%TF.GenerationSoftware,KiCad,Pcbnew,8.99.0-3338-g9b4c1024c9*%
%TF.CreationDate,2024-12-09T11:14:18+02:00*%
%TF.ProjectId,control_unit_v2_upper,636f6e74-726f-46c5-9f75-6e69745f7632,rev?*%
%TF.SameCoordinates,Original*%
%TF.FileFunction,Profile,NP*%
%FSLAX46Y46*%
G04 Gerber Fmt 4.6, Leading zero omitted, Abs format (unit mm)*
G04 Created by KiCad (PCBNEW 8.99.0-3338-g9b4c1024c9) date 2024-12-09 11:14:18*
%MOMM*%
%LPD*%
G01*
G04 APERTURE LIST*
%ADD10C,0.150000*%
%TA.AperFunction,Profile*%
%ADD11C,0.050000*%
%TD*%
G04 APERTURE END LIST*
D10*
X126476190Y-109384819D02*
X125904762Y-109384819D01*
X126190476Y-109384819D02*
X126190476Y-108384819D01*
X126190476Y-108384819D02*
X126095238Y-108527676D01*
X126095238Y-108527676D02*
X126000000Y-108622914D01*
X126000000Y-108622914D02*
X125904762Y-108670533D01*
X127333333Y-108718152D02*
X127333333Y-109384819D01*
X127095238Y-108337200D02*
X126857143Y-109051485D01*
X126857143Y-109051485D02*
X127476190Y-109051485D01*
X127809524Y-108480057D02*
X127857143Y-108432438D01*
X127857143Y-108432438D02*
X127952381Y-108384819D01*
X127952381Y-108384819D02*
X128190476Y-108384819D01*
X128190476Y-108384819D02*
X128285714Y-108432438D01*
X128285714Y-108432438D02*
X128333333Y-108480057D01*
X128333333Y-108480057D02*
X128380952Y-108575295D01*
X128380952Y-108575295D02*
X128380952Y-108670533D01*
X128380952Y-108670533D02*
X128333333Y-108813390D01*
X128333333Y-108813390D02*
X127761905Y-109384819D01*
X127761905Y-109384819D02*
X128380952Y-109384819D01*
X128857143Y-109337200D02*
X128857143Y-109384819D01*
X128857143Y-109384819D02*
X128809524Y-109480057D01*
X128809524Y-109480057D02*
X128761905Y-109527676D01*
X129476190Y-108384819D02*
X129571428Y-108384819D01*
X129571428Y-108384819D02*
X129666666Y-108432438D01*
X129666666Y-108432438D02*
X129714285Y-108480057D01*
X129714285Y-108480057D02*
X129761904Y-108575295D01*
X129761904Y-108575295D02*
X129809523Y-108765771D01*
X129809523Y-108765771D02*
X129809523Y-109003866D01*
X129809523Y-109003866D02*
X129761904Y-109194342D01*
X129761904Y-109194342D02*
X129714285Y-109289580D01*
X129714285Y-109289580D02*
X129666666Y-109337200D01*
X129666666Y-109337200D02*
X129571428Y-109384819D01*
X129571428Y-109384819D02*
X129476190Y-109384819D01*
X129476190Y-109384819D02*
X129380952Y-109337200D01*
X129380952Y-109337200D02*
X129333333Y-109289580D01*
X129333333Y-109289580D02*
X129285714Y-109194342D01*
X129285714Y-109194342D02*
X129238095Y-109003866D01*
X129238095Y-109003866D02*
X129238095Y-108765771D01*
X129238095Y-108765771D02*
X129285714Y-108575295D01*
X129285714Y-108575295D02*
X129333333Y-108480057D01*
X129333333Y-108480057D02*
X129380952Y-108432438D01*
X129380952Y-108432438D02*
X129476190Y-108384819D01*
X130428571Y-108384819D02*
X130523809Y-108384819D01*
X130523809Y-108384819D02*
X130619047Y-108432438D01*
X130619047Y-108432438D02*
X130666666Y-108480057D01*
X130666666Y-108480057D02*
X130714285Y-108575295D01*
X130714285Y-108575295D02*
X130761904Y-108765771D01*
X130761904Y-108765771D02*
X130761904Y-109003866D01*
X130761904Y-109003866D02*
X130714285Y-109194342D01*
X130714285Y-109194342D02*
X130666666Y-109289580D01*
X130666666Y-109289580D02*
X130619047Y-109337200D01*
X130619047Y-109337200D02*
X130523809Y-109384819D01*
X130523809Y-109384819D02*
X130428571Y-109384819D01*
X130428571Y-109384819D02*
X130333333Y-109337200D01*
X130333333Y-109337200D02*
X130285714Y-109289580D01*
X130285714Y-109289580D02*
X130238095Y-109194342D01*
X130238095Y-109194342D02*
X130190476Y-109003866D01*
X130190476Y-109003866D02*
X130190476Y-108765771D01*
X130190476Y-108765771D02*
X130238095Y-108575295D01*
X130238095Y-108575295D02*
X130285714Y-108480057D01*
X130285714Y-108480057D02*
X130333333Y-108432438D01*
X130333333Y-108432438D02*
X130428571Y-108384819D01*
X131380952Y-108384819D02*
X131476190Y-108384819D01*
X131476190Y-108384819D02*
X131571428Y-108432438D01*
X131571428Y-108432438D02*
X131619047Y-108480057D01*
X131619047Y-108480057D02*
X131666666Y-108575295D01*
X131666666Y-108575295D02*
X131714285Y-108765771D01*
X131714285Y-108765771D02*
X131714285Y-109003866D01*
X131714285Y-109003866D02*
X131666666Y-109194342D01*
X131666666Y-109194342D02*
X131619047Y-109289580D01*
X131619047Y-109289580D02*
X131571428Y-109337200D01*
X131571428Y-109337200D02*
X131476190Y-109384819D01*
X131476190Y-109384819D02*
X131380952Y-109384819D01*
X131380952Y-109384819D02*
X131285714Y-109337200D01*
X131285714Y-109337200D02*
X131238095Y-109289580D01*
X131238095Y-109289580D02*
X131190476Y-109194342D01*
X131190476Y-109194342D02*
X131142857Y-109003866D01*
X131142857Y-109003866D02*
X131142857Y-108765771D01*
X131142857Y-108765771D02*
X131190476Y-108575295D01*
X131190476Y-108575295D02*
X131238095Y-108480057D01*
X131238095Y-108480057D02*
X131285714Y-108432438D01*
X131285714Y-108432438D02*
X131380952Y-108384819D01*
X132333333Y-108384819D02*
X132428571Y-108384819D01*
X132428571Y-108384819D02*
X132523809Y-108432438D01*
X132523809Y-108432438D02*
X132571428Y-108480057D01*
X132571428Y-108480057D02*
X132619047Y-108575295D01*
X132619047Y-108575295D02*
X132666666Y-108765771D01*
X132666666Y-108765771D02*
X132666666Y-109003866D01*
X132666666Y-109003866D02*
X132619047Y-109194342D01*
X132619047Y-109194342D02*
X132571428Y-109289580D01*
X132571428Y-109289580D02*
X132523809Y-109337200D01*
X132523809Y-109337200D02*
X132428571Y-109384819D01*
X132428571Y-109384819D02*
X132333333Y-109384819D01*
X132333333Y-109384819D02*
X132238095Y-109337200D01*
X132238095Y-109337200D02*
X132190476Y-109289580D01*
X132190476Y-109289580D02*
X132142857Y-109194342D01*
X132142857Y-109194342D02*
X132095238Y-109003866D01*
X132095238Y-109003866D02*
X132095238Y-108765771D01*
X132095238Y-108765771D02*
X132142857Y-108575295D01*
X132142857Y-108575295D02*
X132190476Y-108480057D01*
X132190476Y-108480057D02*
X132238095Y-108432438D01*
X132238095Y-108432438D02*
X132333333Y-108384819D01*
X133857143Y-109384819D02*
X133857143Y-108718152D01*
X133857143Y-108813390D02*
X133904762Y-108765771D01*
X133904762Y-108765771D02*
X134000000Y-108718152D01*
X134000000Y-108718152D02*
X134142857Y-108718152D01*
X134142857Y-108718152D02*
X134238095Y-108765771D01*
X134238095Y-108765771D02*
X134285714Y-108861009D01*
X134285714Y-108861009D02*
X134285714Y-109384819D01*
X134285714Y-108861009D02*
X134333333Y-108765771D01*
X134333333Y-108765771D02*
X134428571Y-108718152D01*
X134428571Y-108718152D02*
X134571428Y-108718152D01*
X134571428Y-108718152D02*
X134666667Y-108765771D01*
X134666667Y-108765771D02*
X134714286Y-108861009D01*
X134714286Y-108861009D02*
X134714286Y-109384819D01*
X135190476Y-109384819D02*
X135190476Y-108718152D01*
X135190476Y-108813390D02*
X135238095Y-108765771D01*
X135238095Y-108765771D02*
X135333333Y-108718152D01*
X135333333Y-108718152D02*
X135476190Y-108718152D01*
X135476190Y-108718152D02*
X135571428Y-108765771D01*
X135571428Y-108765771D02*
X135619047Y-108861009D01*
X135619047Y-108861009D02*
X135619047Y-109384819D01*
X135619047Y-108861009D02*
X135666666Y-108765771D01*
X135666666Y-108765771D02*
X135761904Y-108718152D01*
X135761904Y-108718152D02*
X135904761Y-108718152D01*
X135904761Y-108718152D02*
X136000000Y-108765771D01*
X136000000Y-108765771D02*
X136047619Y-108861009D01*
X136047619Y-108861009D02*
X136047619Y-109384819D01*
D11*
X60000000Y-108020000D02*
X60000000Y-110666420D01*
X202000000Y-110666420D02*
X202000000Y-108020000D01*
X60000000Y-110080000D02*
X202000000Y-110080000D01*
X60000000Y-110080000D02*
X202000000Y-110080000D01*
X60000000Y-110080000D02*
X61126504Y-109493579D01*
X60000000Y-110080000D02*
X61126504Y-110666421D01*
X202000000Y-110080000D02*
X200873496Y-110666421D01*
X202000000Y-110080000D02*
X200873496Y-109493579D01*
X60000000Y-110080000D02*
X202000000Y-110080000D01*
X60000000Y-110080000D02*
X202000000Y-110080000D01*
X60000000Y-110080000D02*
X61126504Y-109493579D01*
X60000000Y-110080000D02*
X61126504Y-110666421D01*
X202000000Y-110080000D02*
X200873496Y-110666421D01*
X202000000Y-110080000D02*
X200873496Y-109493579D01*
D10*
X203388152Y-87495356D02*
X204054819Y-87495356D01*
X203007200Y-87733451D02*
X203721485Y-87971546D01*
X203721485Y-87971546D02*
X203721485Y-87352499D01*
X203483390Y-86828689D02*
X203435771Y-86923927D01*
X203435771Y-86923927D02*
X203388152Y-86971546D01*
X203388152Y-86971546D02*
X203292914Y-87019165D01*
X203292914Y-87019165D02*
X203245295Y-87019165D01*
X203245295Y-87019165D02*
X203150057Y-86971546D01*
X203150057Y-86971546D02*
X203102438Y-86923927D01*
X203102438Y-86923927D02*
X203054819Y-86828689D01*
X203054819Y-86828689D02*
X203054819Y-86638213D01*
X203054819Y-86638213D02*
X203102438Y-86542975D01*
X203102438Y-86542975D02*
X203150057Y-86495356D01*
X203150057Y-86495356D02*
X203245295Y-86447737D01*
X203245295Y-86447737D02*
X203292914Y-86447737D01*
X203292914Y-86447737D02*
X203388152Y-86495356D01*
X203388152Y-86495356D02*
X203435771Y-86542975D01*
X203435771Y-86542975D02*
X203483390Y-86638213D01*
X203483390Y-86638213D02*
X203483390Y-86828689D01*
X203483390Y-86828689D02*
X203531009Y-86923927D01*
X203531009Y-86923927D02*
X203578628Y-86971546D01*
X203578628Y-86971546D02*
X203673866Y-87019165D01*
X203673866Y-87019165D02*
X203864342Y-87019165D01*
X203864342Y-87019165D02*
X203959580Y-86971546D01*
X203959580Y-86971546D02*
X204007200Y-86923927D01*
X204007200Y-86923927D02*
X204054819Y-86828689D01*
X204054819Y-86828689D02*
X204054819Y-86638213D01*
X204054819Y-86638213D02*
X204007200Y-86542975D01*
X204007200Y-86542975D02*
X203959580Y-86495356D01*
X203959580Y-86495356D02*
X203864342Y-86447737D01*
X203864342Y-86447737D02*
X203673866Y-86447737D01*
X203673866Y-86447737D02*
X203578628Y-86495356D01*
X203578628Y-86495356D02*
X203531009Y-86542975D01*
X203531009Y-86542975D02*
X203483390Y-86638213D01*
X204007200Y-85971546D02*
X204054819Y-85971546D01*
X204054819Y-85971546D02*
X204150057Y-86019165D01*
X204150057Y-86019165D02*
X204197676Y-86066784D01*
X203054819Y-85638213D02*
X203054819Y-85019166D01*
X203054819Y-85019166D02*
X203435771Y-85352499D01*
X203435771Y-85352499D02*
X203435771Y-85209642D01*
X203435771Y-85209642D02*
X203483390Y-85114404D01*
X203483390Y-85114404D02*
X203531009Y-85066785D01*
X203531009Y-85066785D02*
X203626247Y-85019166D01*
X203626247Y-85019166D02*
X203864342Y-85019166D01*
X203864342Y-85019166D02*
X203959580Y-85066785D01*
X203959580Y-85066785D02*
X204007200Y-85114404D01*
X204007200Y-85114404D02*
X204054819Y-85209642D01*
X204054819Y-85209642D02*
X204054819Y-85495356D01*
X204054819Y-85495356D02*
X204007200Y-85590594D01*
X204007200Y-85590594D02*
X203959580Y-85638213D01*
X203054819Y-84685832D02*
X203054819Y-84066785D01*
X203054819Y-84066785D02*
X203435771Y-84400118D01*
X203435771Y-84400118D02*
X203435771Y-84257261D01*
X203435771Y-84257261D02*
X203483390Y-84162023D01*
X203483390Y-84162023D02*
X203531009Y-84114404D01*
X203531009Y-84114404D02*
X203626247Y-84066785D01*
X203626247Y-84066785D02*
X203864342Y-84066785D01*
X203864342Y-84066785D02*
X203959580Y-84114404D01*
X203959580Y-84114404D02*
X204007200Y-84162023D01*
X204007200Y-84162023D02*
X204054819Y-84257261D01*
X204054819Y-84257261D02*
X204054819Y-84542975D01*
X204054819Y-84542975D02*
X204007200Y-84638213D01*
X204007200Y-84638213D02*
X203959580Y-84685832D01*
X203054819Y-83162023D02*
X203054819Y-83638213D01*
X203054819Y-83638213D02*
X203531009Y-83685832D01*
X203531009Y-83685832D02*
X203483390Y-83638213D01*
X203483390Y-83638213D02*
X203435771Y-83542975D01*
X203435771Y-83542975D02*
X203435771Y-83304880D01*
X203435771Y-83304880D02*
X203483390Y-83209642D01*
X203483390Y-83209642D02*
X203531009Y-83162023D01*
X203531009Y-83162023D02*
X203626247Y-83114404D01*
X203626247Y-83114404D02*
X203864342Y-83114404D01*
X203864342Y-83114404D02*
X203959580Y-83162023D01*
X203959580Y-83162023D02*
X204007200Y-83209642D01*
X204007200Y-83209642D02*
X204054819Y-83304880D01*
X204054819Y-83304880D02*
X204054819Y-83542975D01*
X204054819Y-83542975D02*
X204007200Y-83638213D01*
X204007200Y-83638213D02*
X203959580Y-83685832D01*
X203054819Y-82495356D02*
X203054819Y-82400118D01*
X203054819Y-82400118D02*
X203102438Y-82304880D01*
X203102438Y-82304880D02*
X203150057Y-82257261D01*
X203150057Y-82257261D02*
X203245295Y-82209642D01*
X203245295Y-82209642D02*
X203435771Y-82162023D01*
X203435771Y-82162023D02*
X203673866Y-82162023D01*
X203673866Y-82162023D02*
X203864342Y-82209642D01*
X203864342Y-82209642D02*
X203959580Y-82257261D01*
X203959580Y-82257261D02*
X204007200Y-82304880D01*
X204007200Y-82304880D02*
X204054819Y-82400118D01*
X204054819Y-82400118D02*
X204054819Y-82495356D01*
X204054819Y-82495356D02*
X204007200Y-82590594D01*
X204007200Y-82590594D02*
X203959580Y-82638213D01*
X203959580Y-82638213D02*
X203864342Y-82685832D01*
X203864342Y-82685832D02*
X203673866Y-82733451D01*
X203673866Y-82733451D02*
X203435771Y-82733451D01*
X203435771Y-82733451D02*
X203245295Y-82685832D01*
X203245295Y-82685832D02*
X203150057Y-82638213D01*
X203150057Y-82638213D02*
X203102438Y-82590594D01*
X203102438Y-82590594D02*
X203054819Y-82495356D01*
X204054819Y-80971546D02*
X203388152Y-80971546D01*
X203483390Y-80971546D02*
X203435771Y-80923927D01*
X203435771Y-80923927D02*
X203388152Y-80828689D01*
X203388152Y-80828689D02*
X203388152Y-80685832D01*
X203388152Y-80685832D02*
X203435771Y-80590594D01*
X203435771Y-80590594D02*
X203531009Y-80542975D01*
X203531009Y-80542975D02*
X204054819Y-80542975D01*
X203531009Y-80542975D02*
X203435771Y-80495356D01*
X203435771Y-80495356D02*
X203388152Y-80400118D01*
X203388152Y-80400118D02*
X203388152Y-80257261D01*
X203388152Y-80257261D02*
X203435771Y-80162022D01*
X203435771Y-80162022D02*
X203531009Y-80114403D01*
X203531009Y-80114403D02*
X204054819Y-80114403D01*
X204054819Y-79638213D02*
X203388152Y-79638213D01*
X203483390Y-79638213D02*
X203435771Y-79590594D01*
X203435771Y-79590594D02*
X203388152Y-79495356D01*
X203388152Y-79495356D02*
X203388152Y-79352499D01*
X203388152Y-79352499D02*
X203435771Y-79257261D01*
X203435771Y-79257261D02*
X203531009Y-79209642D01*
X203531009Y-79209642D02*
X204054819Y-79209642D01*
X203531009Y-79209642D02*
X203435771Y-79162023D01*
X203435771Y-79162023D02*
X203388152Y-79066785D01*
X203388152Y-79066785D02*
X203388152Y-78923928D01*
X203388152Y-78923928D02*
X203435771Y-78828689D01*
X203435771Y-78828689D02*
X203531009Y-78781070D01*
X203531009Y-78781070D02*
X204054819Y-78781070D01*
D11*
X202500000Y-59185000D02*
X205336420Y-59185000D01*
X205336420Y-107520000D02*
X202500000Y-107520000D01*
X204750000Y-59185000D02*
X204750000Y-107520000D01*
X204750000Y-59185000D02*
X204750000Y-107520000D01*
X204750000Y-59185000D02*
X205336421Y-60311504D01*
X204750000Y-59185000D02*
X204163579Y-60311504D01*
X204750000Y-107520000D02*
X204163579Y-106393496D01*
X204750000Y-107520000D02*
X205336421Y-106393496D01*
X204750000Y-59185000D02*
X204750000Y-107520000D01*
X204750000Y-59185000D02*
X204750000Y-107520000D01*
X204750000Y-59185000D02*
X205336421Y-60311504D01*
X204750000Y-59185000D02*
X204163579Y-60311504D01*
X204750000Y-107520000D02*
X204163579Y-106393496D01*
X204750000Y-107520000D02*
X205336421Y-106393496D01*
X60000000Y-59185000D02*
X202000000Y-59185000D01*
X202000000Y-107520000D01*
X60000000Y-107520000D01*
X60000000Y-59185000D01*
M02*
