%TF.GenerationSoftware,KiCad,Pcbnew,8.99.0-3338-g9b4c1024c9*%
%TF.CreationDate,2024-12-09T11:14:18+02:00*%
%TF.ProjectId,control_unit_v2_upper,636f6e74-726f-46c5-9f75-6e69745f7632,rev?*%
%TF.SameCoordinates,Original*%
%TF.FileFunction,Soldermask,Bot*%
%TF.FilePolarity,Negative*%
%FSLAX46Y46*%
G04 Gerber Fmt 4.6, Leading zero omitted, Abs format (unit mm)*
G04 Created by KiCad (PCBNEW 8.99.0-3338-g9b4c1024c9) date 2024-12-09 11:14:18*
%MOMM*%
%LPD*%
G01*
G04 APERTURE LIST*
%ADD10C,3.200000*%
%ADD11R,1.700000X1.700000*%
%ADD12O,1.700000X1.700000*%
%ADD13C,2.400000*%
%ADD14R,3.000000X1.000000*%
G04 APERTURE END LIST*
D10*
%TO.C,H2*%
X99875000Y-97050000D03*
%TD*%
D11*
%TO.C,J11*%
X117168333Y-79295000D03*
D12*
X117168333Y-81835000D03*
X117168333Y-84375000D03*
%TD*%
D11*
%TO.C,J19*%
X176986515Y-79295000D03*
D12*
X176986515Y-81835000D03*
X176986515Y-84375000D03*
%TD*%
D11*
%TO.C,J15*%
X147077424Y-79295000D03*
D12*
X147077424Y-81835000D03*
X147077424Y-84375000D03*
%TD*%
D11*
%TO.C,J10*%
X100460000Y-79295000D03*
D12*
X100460000Y-81835000D03*
X100460000Y-84375000D03*
%TD*%
D11*
%TO.C,J13*%
X132122878Y-79295000D03*
D12*
X132122878Y-81835000D03*
X132122878Y-84375000D03*
%TD*%
D11*
%TO.C,J12*%
X124645606Y-79295000D03*
D12*
X124645606Y-81835000D03*
X124645606Y-84375000D03*
%TD*%
D13*
%TO.C,J3*%
X83610000Y-64620000D03*
X83610000Y-69620000D03*
X88610000Y-64620000D03*
X88610000Y-69620000D03*
X93610000Y-64620000D03*
X93610000Y-69620000D03*
X98610000Y-64620000D03*
X98610000Y-69620000D03*
%TD*%
D11*
%TO.C,J17*%
X162031969Y-79295000D03*
D12*
X162031969Y-81835000D03*
X162031969Y-84375000D03*
%TD*%
D10*
%TO.C,H4*%
X195875000Y-68500000D03*
%TD*%
D11*
%TO.C,J9*%
X93101667Y-79295000D03*
D12*
X93101667Y-81835000D03*
X93101667Y-84375000D03*
%TD*%
D11*
%TO.C,J8*%
X85743333Y-79295000D03*
D12*
X85743333Y-81835000D03*
X85743333Y-84375000D03*
%TD*%
D13*
%TO.C,J2*%
X64210000Y-97120000D03*
X64210000Y-102120000D03*
X69210000Y-97120000D03*
X69210000Y-102120000D03*
X74210000Y-97120000D03*
X74210000Y-102120000D03*
X79210000Y-97120000D03*
X79210000Y-102120000D03*
%TD*%
%TO.C,J5*%
X145660000Y-64620000D03*
X145660000Y-69620000D03*
X150660000Y-64620000D03*
X150660000Y-69620000D03*
X155660000Y-64620000D03*
X155660000Y-69620000D03*
X160660000Y-64620000D03*
X160660000Y-69620000D03*
%TD*%
D11*
%TO.C,J18*%
X169509242Y-79295000D03*
D12*
X169509242Y-81835000D03*
X169509242Y-84375000D03*
%TD*%
D11*
%TO.C,J21*%
X191941060Y-79295000D03*
D12*
X191941060Y-81835000D03*
X191941060Y-84375000D03*
%TD*%
D11*
%TO.C,J14*%
X139600151Y-79295000D03*
D12*
X139600151Y-81835000D03*
X139600151Y-84375000D03*
%TD*%
D11*
%TO.C,J20*%
X184463788Y-79295000D03*
D12*
X184463788Y-81835000D03*
X184463788Y-84375000D03*
%TD*%
D10*
%TO.C,H1*%
X154500000Y-97050000D03*
%TD*%
D11*
%TO.C,J16*%
X154554697Y-79295000D03*
D12*
X154554697Y-81835000D03*
X154554697Y-84375000D03*
%TD*%
D10*
%TO.C,H3*%
X75000000Y-68500000D03*
%TD*%
D13*
%TO.C,J4*%
X117210000Y-64570000D03*
X117210000Y-69570000D03*
X122210000Y-64570000D03*
X122210000Y-69570000D03*
X127210000Y-64570000D03*
X127210000Y-69570000D03*
X132210000Y-64570000D03*
X132210000Y-69570000D03*
%TD*%
D11*
%TO.C,J22*%
X199418333Y-79295000D03*
D12*
X199418333Y-81835000D03*
X199418333Y-84375000D03*
%TD*%
D13*
%TO.C,J6*%
X174110000Y-64620000D03*
X174110000Y-69620000D03*
X179110000Y-64620000D03*
X179110000Y-69620000D03*
X184110000Y-64620000D03*
X184110000Y-69620000D03*
X189110000Y-64620000D03*
X189110000Y-69620000D03*
%TD*%
D14*
%TO.C,J1*%
X104690000Y-72400000D03*
X109730000Y-72400000D03*
X104690000Y-74940000D03*
X109730000Y-74940000D03*
X104690000Y-77480000D03*
X109730000Y-77480000D03*
X104690000Y-80020000D03*
X109730000Y-80020000D03*
X104690000Y-82560000D03*
X109730000Y-82560000D03*
%TD*%
D11*
%TO.C,J7*%
X78385000Y-79295000D03*
D12*
X78385000Y-81835000D03*
X78385000Y-84375000D03*
%TD*%
M02*
