M48
; DRILL file {KiCad 8.99.0-3338-g9b4c1024c9} date 2024-12-09T11:14:40+0200
; FORMAT={-:-/ absolute / metric / decimal}
; #@! TF.CreationDate,2024-12-09T11:14:40+02:00
; #@! TF.GenerationSoftware,Kicad,Pcbnew,8.99.0-3338-g9b4c1024c9
; #@! TF.FileFunction,Plated,1,4,PTH
FMAT,2
METRIC
; #@! TA.AperFunction,Plated,PTH,ViaDrill
T1C0.300
; #@! TA.AperFunction,Plated,PTH,ComponentDrill
T2C1.000
; #@! TA.AperFunction,Plated,PTH,ComponentDrill
T3C1.100
%
G90
G05
T1
X60.61Y-60.02
X60.61Y-62.02
X60.61Y-64.02
X60.61Y-66.02
X60.61Y-68.02
X60.61Y-70.02
X60.61Y-72.02
X60.61Y-74.02
X60.61Y-76.02
X60.61Y-78.02
X60.61Y-80.02
X60.61Y-82.02
X60.61Y-84.02
X60.61Y-86.02
X60.61Y-88.02
X62.61Y-60.02
X63.16Y-90.57
X63.16Y-91.82
X63.21Y-89.32
X64.11Y-91.87
X64.16Y-89.32
X64.61Y-60.02
X64.61Y-81.02
X64.885Y-78.97
X64.91Y-76.02
X64.91Y-77.003
X64.91Y-77.987
X64.91Y-86.92
X64.935Y-83.97
X64.935Y-84.953
X64.935Y-85.937
X65.56Y-89.42
X65.56Y-91.82
X65.61Y-81.02
X66.51Y-89.445
X66.51Y-91.845
X66.61Y-60.02
X66.61Y-81.02
X67.46Y-89.445
X67.46Y-91.845
X67.61Y-81.02
X68.61Y-60.02
X68.61Y-81.02
X68.685Y-78.97
X68.71Y-76.02
X68.71Y-77.003
X68.71Y-77.987
X68.71Y-86.92
X68.735Y-83.97
X68.735Y-84.953
X68.735Y-85.937
X69.61Y-81.02
X70.11Y-89.52
X70.11Y-90.52
X70.11Y-91.52
X70.61Y-60.02
X70.61Y-81.02
X71.11Y-89.52
X71.11Y-90.52
X71.11Y-91.52
X71.61Y-76.02
X71.61Y-77.02
X71.61Y-78.02
X71.61Y-79.02
X71.61Y-80.02
X71.61Y-81.02
X72.11Y-89.52
X72.11Y-90.52
X72.11Y-91.52
X72.61Y-60.02
X73.31Y-79.34
X73.31Y-80.22
X73.71Y-84.52
X73.71Y-86.395
X73.735Y-85.457
X73.835Y-82.495
X74.0Y-79.34
X74.01Y-80.22
X74.61Y-60.02
X76.085Y-86.495
X76.185Y-82.495
X76.585Y-88.895
X76.61Y-60.02
X76.61Y-74.87
X76.61Y-77.22
X77.135Y-86.57
X77.435Y-74.87
X77.435Y-77.22
X78.26Y-74.87
X78.26Y-77.22
X78.585Y-87.195
X78.61Y-60.02
X80.61Y-60.02
X80.61Y-75.72
X80.61Y-76.52
X80.668Y-79.34
X80.668Y-80.22
X81.068Y-84.52
X81.068Y-86.395
X81.093Y-85.457
X81.193Y-82.495
X81.358Y-79.34
X81.368Y-80.22
X82.61Y-60.02
X83.443Y-86.495
X83.543Y-82.495
X83.66Y-74.87
X83.66Y-77.22
X83.71Y-92.495
X83.943Y-88.895
X84.485Y-74.87
X84.485Y-77.22
X84.493Y-86.57
X84.61Y-60.02
X85.31Y-74.87
X85.31Y-77.22
X85.943Y-87.195
X86.335Y-94.445
X86.61Y-60.02
X87.635Y-75.67
X87.635Y-76.47
X88.027Y-79.34
X88.027Y-80.22
X88.427Y-84.52
X88.427Y-86.395
X88.452Y-85.457
X88.552Y-82.495
X88.61Y-60.02
X88.717Y-79.34
X88.727Y-80.22
X90.61Y-60.02
X90.66Y-74.87
X90.66Y-77.22
X90.802Y-86.495
X90.902Y-82.495
X91.302Y-88.895
X91.41Y-105.77
X91.485Y-74.87
X91.485Y-77.22
X91.852Y-86.57
X92.31Y-74.87
X92.31Y-77.22
X92.61Y-60.02
X93.302Y-87.195
X93.66Y-92.495
X94.61Y-60.02
X94.668Y-75.67
X94.668Y-76.47
X95.385Y-79.34
X95.385Y-80.22
X95.56Y-95.032
X95.785Y-84.515
X95.785Y-86.39
X95.81Y-85.453
X95.91Y-82.49
X96.075Y-79.34
X96.085Y-80.22
X96.61Y-60.02
X97.685Y-74.87
X97.685Y-77.22
X98.16Y-86.49
X98.26Y-82.49
X98.51Y-74.87
X98.51Y-77.22
X98.51Y-105.77
X98.61Y-60.02
X98.66Y-88.89
X99.185Y-100.62
X99.185Y-101.795
X99.21Y-86.565
X99.335Y-74.87
X99.335Y-77.22
X100.61Y-60.02
X100.66Y-87.19
X100.785Y-102.145
X101.385Y-92.145
X101.585Y-101.945
X101.66Y-75.67
X101.66Y-76.47
X102.235Y-92.42
X102.61Y-60.02
X102.76Y-72.42
X102.76Y-74.82
X102.76Y-77.42
X102.76Y-80.02
X102.76Y-85.02
X103.41Y-63.22
X103.41Y-64.62
X103.41Y-66.02
X103.41Y-67.42
X103.96Y-87.52
X104.61Y-60.02
X105.585Y-105.795
X105.685Y-89.895
X106.61Y-60.02
X106.81Y-72.42
X106.81Y-75.02
X106.81Y-77.42
X106.81Y-80.02
X107.185Y-82.56
X107.335Y-96.37
X107.472Y-92.92
X108.41Y-85.345
X108.41Y-86.207
X108.41Y-87.07
X108.61Y-60.02
X108.61Y-84.02
X109.61Y-89.22
X109.947Y-81.332
X110.385Y-91.52
X110.485Y-78.82
X110.61Y-60.02
X111.41Y-63.22
X111.41Y-64.62
X111.41Y-66.02
X111.41Y-67.42
X112.093Y-79.34
X112.093Y-80.22
X112.493Y-84.52
X112.493Y-86.395
X112.518Y-85.457
X112.61Y-60.02
X112.618Y-82.495
X112.685Y-105.795
X112.783Y-79.34
X112.793Y-80.22
X113.835Y-74.87
X113.835Y-77.22
X114.61Y-60.02
X114.66Y-74.87
X114.66Y-77.22
X114.868Y-86.495
X114.968Y-82.495
X115.368Y-88.895
X115.485Y-74.87
X115.485Y-77.22
X115.918Y-86.57
X116.61Y-60.02
X116.66Y-93.807
X117.368Y-87.195
X117.735Y-92.52
X117.81Y-75.67
X117.81Y-76.47
X118.61Y-60.02
X119.571Y-79.34
X119.571Y-80.22
X119.635Y-95.07
X119.71Y-105.795
X119.971Y-84.52
X119.971Y-86.395
X119.996Y-85.457
X120.096Y-82.495
X120.261Y-79.34
X120.271Y-80.22
X120.61Y-60.02
X120.935Y-94.645
X121.285Y-74.87
X121.285Y-77.22
X122.11Y-74.87
X122.11Y-77.22
X122.346Y-86.495
X122.446Y-82.495
X122.61Y-60.02
X122.846Y-88.895
X122.935Y-74.87
X122.935Y-77.22
X123.396Y-86.57
X124.61Y-60.02
X124.846Y-87.195
X124.91Y-101.495
X125.237Y-75.67
X125.237Y-76.47
X126.61Y-60.02
X126.81Y-105.745
X126.885Y-102.245
X127.048Y-79.34
X127.048Y-80.22
X127.448Y-84.52
X127.448Y-86.395
X127.473Y-85.457
X127.573Y-82.495
X127.738Y-79.34
X127.748Y-80.22
X128.61Y-60.02
X128.785Y-74.895
X128.785Y-77.245
X129.085Y-95.395
X129.085Y-101.82
X129.61Y-74.895
X129.61Y-77.245
X129.823Y-86.495
X129.885Y-93.82
X129.885Y-101.32
X129.923Y-82.495
X130.323Y-88.895
X130.435Y-74.895
X130.435Y-77.245
X130.61Y-60.02
X130.873Y-86.57
X132.323Y-87.195
X132.61Y-60.02
X132.765Y-75.62
X132.765Y-76.42
X132.86Y-92.57
X133.935Y-105.77
X134.525Y-79.34
X134.525Y-80.22
X134.61Y-60.02
X134.76Y-95.045
X134.925Y-84.52
X134.925Y-86.395
X134.95Y-85.457
X135.05Y-82.495
X135.215Y-79.34
X135.225Y-80.22
X136.235Y-74.87
X136.235Y-77.22
X136.61Y-60.02
X137.06Y-74.87
X137.06Y-77.22
X137.3Y-86.495
X137.4Y-82.495
X137.8Y-88.895
X137.885Y-74.87
X137.885Y-77.22
X138.35Y-86.57
X138.61Y-60.02
X139.8Y-87.195
X140.242Y-75.72
X140.242Y-76.52
X140.61Y-60.02
X140.985Y-105.77
X142.002Y-79.34
X142.002Y-80.22
X142.402Y-84.52
X142.402Y-86.395
X142.427Y-85.457
X142.527Y-82.495
X142.61Y-60.02
X142.692Y-79.34
X142.702Y-80.22
X143.685Y-74.87
X143.685Y-77.22
X144.51Y-74.87
X144.51Y-77.22
X144.61Y-60.02
X144.777Y-86.495
X144.877Y-82.495
X145.277Y-88.895
X145.335Y-74.87
X145.335Y-77.22
X145.827Y-86.57
X146.035Y-95.12
X146.035Y-102.77
X146.61Y-60.02
X146.835Y-93.807
X147.26Y-102.02
X147.277Y-87.195
X147.719Y-75.67
X147.719Y-76.47
X147.985Y-92.595
X148.06Y-105.795
X148.61Y-60.02
X149.48Y-79.34
X149.48Y-80.22
X149.88Y-84.52
X149.88Y-86.395
X149.885Y-95.07
X149.905Y-85.457
X150.005Y-82.495
X150.17Y-79.34
X150.18Y-80.22
X150.61Y-60.02
X151.21Y-74.87
X151.21Y-77.22
X152.035Y-74.87
X152.035Y-77.22
X152.255Y-86.495
X152.355Y-82.495
X152.61Y-60.02
X152.755Y-88.895
X152.86Y-74.87
X152.86Y-77.22
X153.305Y-86.57
X154.61Y-60.02
X154.755Y-87.195
X155.11Y-105.77
X155.196Y-75.67
X155.196Y-76.47
X156.61Y-60.02
X156.957Y-79.34
X156.957Y-80.22
X157.357Y-84.52
X157.357Y-86.395
X157.382Y-85.457
X157.482Y-82.495
X157.647Y-79.34
X157.657Y-80.22
X158.61Y-60.02
X158.685Y-74.87
X158.685Y-77.22
X158.998Y-94.582
X158.998Y-100.858
X159.51Y-74.87
X159.51Y-77.22
X159.732Y-86.495
X159.832Y-82.495
X159.885Y-93.807
X159.885Y-99.945
X160.232Y-88.895
X160.335Y-74.87
X160.335Y-77.22
X160.61Y-60.02
X160.782Y-86.57
X162.21Y-105.77
X162.232Y-87.195
X162.61Y-60.02
X162.624Y-75.72
X162.624Y-76.52
X163.11Y-92.57
X164.434Y-79.34
X164.434Y-80.22
X164.61Y-60.02
X164.834Y-84.52
X164.834Y-86.395
X164.859Y-85.457
X164.959Y-82.495
X165.01Y-95.07
X165.124Y-79.34
X165.134Y-80.22
X166.185Y-74.87
X166.185Y-77.22
X166.61Y-60.02
X167.01Y-74.87
X167.01Y-77.22
X167.209Y-86.495
X167.309Y-82.495
X167.709Y-88.895
X167.835Y-74.87
X167.835Y-77.22
X168.259Y-86.57
X168.61Y-60.02
X169.26Y-105.745
X169.709Y-87.195
X170.151Y-75.72
X170.151Y-76.52
X170.61Y-60.02
X171.912Y-79.34
X171.912Y-80.22
X172.312Y-84.52
X172.312Y-86.395
X172.337Y-85.457
X172.437Y-82.495
X172.602Y-79.34
X172.61Y-60.02
X172.612Y-80.22
X173.61Y-74.87
X173.61Y-77.22
X174.435Y-74.87
X174.435Y-77.22
X174.61Y-60.02
X174.687Y-86.495
X174.787Y-82.495
X175.187Y-88.895
X175.26Y-74.87
X175.26Y-77.22
X175.737Y-86.57
X176.335Y-105.77
X176.61Y-60.02
X176.685Y-93.807
X177.187Y-87.195
X177.578Y-75.72
X177.578Y-76.52
X178.235Y-92.62
X178.61Y-60.02
X179.389Y-79.34
X179.389Y-80.22
X179.789Y-84.52
X179.789Y-86.395
X179.814Y-85.457
X179.914Y-82.495
X180.079Y-79.34
X180.089Y-80.22
X180.135Y-95.07
X180.61Y-60.02
X181.085Y-74.87
X181.085Y-77.22
X181.91Y-74.87
X181.91Y-77.22
X182.164Y-86.495
X182.264Y-82.495
X182.61Y-60.02
X182.664Y-88.895
X182.735Y-74.87
X182.735Y-77.22
X183.01Y-101.62
X183.214Y-86.57
X183.41Y-105.77
X184.085Y-96.245
X184.085Y-102.745
X184.61Y-60.02
X184.664Y-87.195
X185.105Y-75.72
X185.105Y-76.52
X186.485Y-96.645
X186.485Y-98.745
X186.61Y-60.02
X186.866Y-79.34
X186.866Y-80.22
X187.266Y-84.52
X187.266Y-86.395
X187.291Y-85.457
X187.391Y-82.495
X187.556Y-79.34
X187.566Y-80.22
X188.61Y-60.02
X188.635Y-74.87
X188.635Y-77.22
X189.46Y-74.87
X189.46Y-77.22
X189.641Y-86.495
X189.741Y-82.495
X190.141Y-88.895
X190.285Y-74.87
X190.285Y-77.22
X190.485Y-105.745
X190.61Y-60.02
X190.691Y-86.57
X192.141Y-87.195
X192.533Y-75.67
X192.533Y-76.47
X192.56Y-93.157
X192.61Y-60.02
X194.343Y-79.34
X194.343Y-80.22
X194.61Y-60.02
X194.743Y-84.52
X194.743Y-86.395
X194.768Y-85.457
X194.868Y-82.495
X195.033Y-79.34
X195.043Y-80.22
X195.26Y-95.045
X196.06Y-74.87
X196.06Y-77.22
X196.61Y-60.02
X196.885Y-74.87
X196.885Y-77.22
X197.118Y-86.495
X197.218Y-82.495
X197.56Y-105.745
X197.618Y-88.895
X197.71Y-74.87
X197.71Y-77.22
X198.168Y-86.57
X198.61Y-60.02
X199.618Y-87.195
X200.11Y-75.67
X200.11Y-76.47
X200.61Y-60.02
X201.36Y-61.52
X201.36Y-63.52
X201.36Y-65.52
X201.36Y-67.52
X201.36Y-69.52
X201.36Y-71.52
X201.36Y-73.52
X201.36Y-75.52
X201.36Y-77.52
X201.36Y-79.52
X201.36Y-81.52
X201.36Y-83.52
X201.36Y-85.52
X201.36Y-87.52
X201.36Y-89.52
X201.36Y-91.52
X201.36Y-93.52
X201.36Y-95.52
X201.36Y-97.52
X201.36Y-99.52
X201.36Y-101.52
X201.36Y-103.52
X201.36Y-105.52
X201.36Y-106.77
T2
X78.385Y-79.295
X78.385Y-81.835
X78.385Y-84.375
X85.743Y-79.295
X85.743Y-81.835
X85.743Y-84.375
X93.102Y-79.295
X93.102Y-81.835
X93.102Y-84.375
X100.46Y-79.295
X100.46Y-81.835
X100.46Y-84.375
X117.168Y-79.295
X117.168Y-81.835
X117.168Y-84.375
X124.646Y-79.295
X124.646Y-81.835
X124.646Y-84.375
X132.123Y-79.295
X132.123Y-81.835
X132.123Y-84.375
X139.6Y-79.295
X139.6Y-81.835
X139.6Y-84.375
X147.077Y-79.295
X147.077Y-81.835
X147.077Y-84.375
X154.555Y-79.295
X154.555Y-81.835
X154.555Y-84.375
X162.032Y-79.295
X162.032Y-81.835
X162.032Y-84.375
X169.509Y-79.295
X169.509Y-81.835
X169.509Y-84.375
X176.987Y-79.295
X176.987Y-81.835
X176.987Y-84.375
X184.464Y-79.295
X184.464Y-81.835
X184.464Y-84.375
X191.941Y-79.295
X191.941Y-81.835
X191.941Y-84.375
X199.418Y-79.295
X199.418Y-81.835
X199.418Y-84.375
T3
X64.21Y-97.12
X64.21Y-102.12
X69.21Y-97.12
X69.21Y-102.12
X74.21Y-97.12
X74.21Y-102.12
X79.21Y-97.12
X79.21Y-102.12
X83.61Y-64.62
X83.61Y-69.62
X88.61Y-64.62
X88.61Y-69.62
X93.61Y-64.62
X93.61Y-69.62
X98.61Y-64.62
X98.61Y-69.62
X117.21Y-64.57
X117.21Y-69.57
X122.21Y-64.57
X122.21Y-69.57
X127.21Y-64.57
X127.21Y-69.57
X132.21Y-64.57
X132.21Y-69.57
X145.66Y-64.62
X145.66Y-69.62
X150.66Y-64.62
X150.66Y-69.62
X155.66Y-64.62
X155.66Y-69.62
X160.66Y-64.62
X160.66Y-69.62
X174.11Y-64.62
X174.11Y-69.62
X179.11Y-64.62
X179.11Y-69.62
X184.11Y-64.62
X184.11Y-69.62
X189.11Y-64.62
X189.11Y-69.62
M30
