%TF.GenerationSoftware,KiCad,Pcbnew,8.99.0-3338-g9b4c1024c9*%
%TF.CreationDate,2024-12-09T11:14:18+02:00*%
%TF.ProjectId,control_unit_v2_upper,636f6e74-726f-46c5-9f75-6e69745f7632,rev?*%
%TF.SameCoordinates,Original*%
%TF.FileFunction,Legend,Bot*%
%TF.FilePolarity,Positive*%
%FSLAX46Y46*%
G04 Gerber Fmt 4.6, Leading zero omitted, Abs format (unit mm)*
G04 Created by KiCad (PCBNEW 8.99.0-3338-g9b4c1024c9) date 2024-12-09 11:14:18*
%MOMM*%
%LPD*%
G01*
G04 APERTURE LIST*
%ADD10C,0.150000*%
%ADD11C,0.120000*%
G04 APERTURE END LIST*
D10*
X107543333Y-69084819D02*
X107543333Y-69799104D01*
X107543333Y-69799104D02*
X107590952Y-69941961D01*
X107590952Y-69941961D02*
X107686190Y-70037200D01*
X107686190Y-70037200D02*
X107829047Y-70084819D01*
X107829047Y-70084819D02*
X107924285Y-70084819D01*
X106543333Y-70084819D02*
X107114761Y-70084819D01*
X106829047Y-70084819D02*
X106829047Y-69084819D01*
X106829047Y-69084819D02*
X106924285Y-69227676D01*
X106924285Y-69227676D02*
X107019523Y-69322914D01*
X107019523Y-69322914D02*
X107114761Y-69370533D01*
D11*
%TO.C,J1*%
X104610000Y-71070000D02*
X104610000Y-71640000D01*
X104610000Y-71640000D02*
X103250000Y-71640000D01*
X104610000Y-73160000D02*
X104610000Y-74180000D01*
X104610000Y-75700000D02*
X104610000Y-76720000D01*
X104610000Y-78240000D02*
X104610000Y-79260000D01*
X104610000Y-80780000D02*
X104610000Y-81800000D01*
X104610000Y-83320000D02*
X104610000Y-83890000D01*
X109810000Y-71070000D02*
X104610000Y-71070000D01*
X109810000Y-71070000D02*
X109810000Y-71640000D01*
X109810000Y-73160000D02*
X109810000Y-74180000D01*
X109810000Y-75700000D02*
X109810000Y-76720000D01*
X109810000Y-78240000D02*
X109810000Y-79260000D01*
X109810000Y-80780000D02*
X109810000Y-81800000D01*
X109810000Y-83320000D02*
X109810000Y-83890000D01*
X109810000Y-83890000D02*
X104610000Y-83890000D01*
%TD*%
M02*
