%FSTAX36Y36*%
%MOIN*%
%SFA1B1*%

%IPPOS*%
%ADD23C,0.001580*%
%ADD33C,0.006670*%
%LNpcb1-1*%
%LPD*%
G54D23*
X00091386Y00057213D02*
Y00061213D01*
X00095386*
Y00057213*
X00091386*
X00090992Y00047213D02*
Y00051213D01*
X00094992*
Y00047213*
X00090992*
X00003472Y00043118D02*
Y00047118D01*
X00007472*
Y00043118*
X00003472*
X00003866Y00053118D02*
Y00057118D01*
X00007866*
Y00053118*
X00003866*
X0004052Y00089189D02*
X0003852Y00093189D01*
X0004252*
X0004052Y00089189*
Y00020291D02*
X0003852Y00024291D01*
X0004252*
X0004052Y00020291*
X0009252Y0007674D02*
X0009352Y0007774D01*
X0009452*
X0009352Y0007874*
X0009452Y0007974*
X0009352*
X0009252Y0008074*
X0009152Y0007974*
X0009052*
X0009152Y0007874*
X0009052Y0007774*
X0009152*
X0009252Y0007674*
X0Y-00002D02*
X00001Y-00001D01*
X00002*
X00001Y0*
X00002Y00001*
X00001*
X0Y00002*
X-00001Y00001*
X-00002*
X-00001Y0*
X-00002Y-00001*
X-00001*
X0Y-00002*
X00097409Y00010756D02*
X00098409Y00012756D01*
X00097409Y00014756*
X0009941Y00013756*
X00101409Y00014756*
X00100409Y00012756*
X00101409Y00010756*
X0009941Y00011756*
X00097409Y00010756*
X0006859Y00025165D02*
X00069591Y00027165D01*
X0006859Y00029165*
X00070591Y00028165*
X00072591Y00029165*
X00071591Y00027165*
X00072591Y00025165*
X00070591Y00026165*
X0006859Y00025165*
X00046583Y-00045583D02*
X00047583Y-00043583D01*
X00046583Y-00041583*
X00048583Y-00042583*
X00050583Y-00041583*
X00049583Y-00043583*
X00050583Y-00045583*
X00048583Y-00044583*
X00046583Y-00045583*
X00024693D02*
X00025693Y-00043583D01*
X00024693Y-00041583*
X00026693Y-00042583*
X00028693Y-00041583*
X00027693Y-00043583*
X00028693Y-00045583*
X00026693Y-00044583*
X00024693Y-00045583*
X00036533Y000286D02*
X00037534Y000306D01*
X00036533Y000326*
X00038533Y000316*
X00040534Y000326*
X00039533Y000306*
X00040534Y000286*
X00038533Y000296*
X00036533Y000286*
X00046425Y00008787D02*
X00047425Y00010787D01*
X00046425Y00012787*
X00048425Y00011787*
X00050425Y00012787*
X00049425Y00010787*
X00050425Y00008787*
X00048425Y00009787*
X00046425Y00008787*
X-00008142Y-00045583D02*
X-00007142Y-00043583D01*
X-00008142Y-00041583*
X-00006142Y-00042583*
X-00004142Y-00041583*
X-00005142Y-00043583*
X-00004142Y-00045583*
X-00006142Y-00044583*
X-00008142Y-00045583*
X00002803D02*
X00003803Y-00043583D01*
X00002803Y-00041583*
X00004803Y-00042583*
X00006803Y-00041583*
X00005803Y-00043583*
X00006803Y-00045583*
X00004803Y-00044583*
X00002803Y-00045583*
X00013748D02*
X00014748Y-00043583D01*
X00013748Y-00041583*
X00015748Y-00042583*
X00017748Y-00041583*
X00016748Y-00043583*
X00017748Y-00045583*
X00015748Y-00044583*
X00013748Y-00045583*
X00035638D02*
X00036638Y-00043583D01*
X00035638Y-00041583*
X00037638Y-00042583*
X00039638Y-00041583*
X00038638Y-00043583*
X00039638Y-00045583*
X00037638Y-00044583*
X00035638Y-00045583*
X00057528D02*
X00058527Y-00043583D01*
X00057528Y-00041583*
X00059527Y-00042583*
X00061528Y-00041583*
X00060527Y-00043583*
X00061528Y-00045583*
X00059527Y-00044583*
X00057528Y-00045583*
X00068472D02*
X00069472Y-00043583D01*
X00068472Y-00041583*
X00070472Y-00042583*
X00072472Y-00041583*
X00071472Y-00043583*
X00072472Y-00045583*
X00070472Y-00044583*
X00068472Y-00045583*
X00080323Y-00020976D02*
X00081323Y-00018976D01*
X00080323Y-00016976*
X00082323Y-00017976*
X00084323Y-00016976*
X00083323Y-00018976*
X00084323Y-00020976*
X00082323Y-00019976*
X00080323Y-00020976*
X00092606Y-00020386D02*
X00093606Y-00018386D01*
X00092606Y-00016386*
X00094606Y-00017386*
X00096606Y-00016386*
X00095606Y-00018386*
X00096606Y-00020386*
X00094606Y-00019386*
X00092606Y-00020386*
X00097409Y00019102D02*
X00098409Y00021102D01*
X00097409Y00023102*
X0009941Y00022102*
X00101409Y00023102*
X00100409Y00021102*
X00101409Y00019102*
X0009941Y00020102*
X00097409Y00019102*
Y00029142D02*
X00098409Y00031142D01*
X00097409Y00033142*
X0009941Y00032142*
X00101409Y00033142*
X00100409Y00031142*
X00101409Y00029142*
X0009941Y00030142*
X00097409Y00029142*
Y00041819D02*
X00098409Y00043819D01*
X00097409Y00045819*
X0009941Y00044819*
X00101409Y00045819*
X00100409Y00043819*
X00101409Y00041819*
X0009941Y00042819*
X00097409Y00041819*
Y00052488D02*
X00098409Y00054488D01*
X00097409Y00056488*
X0009941Y00055488*
X00101409Y00056488*
X00100409Y00054488*
X00101409Y00052488*
X0009941Y00053488*
X00097409Y00052488*
Y00064614D02*
X00098409Y00066614D01*
X00097409Y00068614*
X0009941Y00067614*
X00101409Y00068614*
X00100409Y00066614*
X00101409Y00064614*
X0009941Y00065614*
X00097409Y00064614*
Y00088472D02*
X00098409Y00090472D01*
X00097409Y00092472*
X0009941Y00091472*
X00101409Y00092472*
X00100409Y00090472*
X00101409Y00088472*
X0009941Y00089472*
X00097409Y00088472*
Y00098564D02*
X00098409Y00100564D01*
X00097409Y00102564*
X0009941Y00101564*
X00101409Y00102564*
X00100409Y00100564*
X00101409Y00098564*
X0009941Y00099564*
X00097409Y00098564*
Y00108656D02*
X00098409Y00110656D01*
X00097409Y00112656*
X0009941Y00111656*
X00101409Y00112656*
X00100409Y00110656*
X00101409Y00108656*
X0009941Y00109656*
X00097409Y00108656*
Y00118748D02*
X00098409Y00120748D01*
X00097409Y00122748*
X0009941Y00121748*
X00101409Y00122748*
X00100409Y00120748*
X00101409Y00118748*
X0009941Y00119748*
X00097409Y00118748*
X00018118Y00120362D02*
X00019118Y00122362D01*
X00018118Y00124362*
X00020118Y00123362*
X00022118Y00124362*
X00021118Y00122362*
X00022118Y00120362*
X00020118Y00121362*
X00018118Y00120362*
X00016661Y00107606D02*
X00017661Y00109606D01*
X00016661Y00111606*
X00018661Y00110606*
X00020661Y00111606*
X00019661Y00109606*
X00020661Y00107606*
X00018661Y00108606*
X00016661Y00107606*
X0000485Y00094693D02*
X0000585Y00096693D01*
X0000485Y00098693*
X0000685Y00097693*
X0000885Y00098693*
X0000785Y00096693*
X0000885Y00094693*
X0000685Y00095693*
X0000485Y00094693*
X-00009165D02*
X-00008165Y00096693D01*
X-00009165Y00098693*
X-00007165Y00097693*
X-00005165Y00098693*
X-00006165Y00096693*
X-00005165Y00094693*
X-00007165Y00095693*
X-00009165Y00094693*
Y00077528D02*
X-00008165Y00079528D01*
X-00009165Y00081528*
X-00007165Y00080528*
X-00005165Y00081528*
X-00006165Y00079528*
X-00005165Y00077528*
X-00007165Y00078528*
X-00009165Y00077528*
Y00061386D02*
X-00008165Y00063386D01*
X-00009165Y00065386*
X-00007165Y00064386*
X-00005165Y00065386*
X-00006165Y00063386*
X-00005165Y00061386*
X-00007165Y00062386*
X-00009165Y00061386*
Y00023709D02*
X-00008165Y00025709D01*
X-00009165Y00027709*
X-00007165Y00026709*
X-00005165Y00027709*
X-00006165Y00025709*
X-00005165Y00023709*
X-00007165Y00024709*
X-00009165Y00023709*
Y0004174D02*
X-00008165Y0004374D01*
X-00009165Y0004574*
X-00007165Y0004474*
X-00005165Y0004574*
X-00006165Y0004374*
X-00005165Y0004174*
X-00007165Y0004274*
X-00009165Y0004174*
Y00007055D02*
X-00008165Y00009055D01*
X-00009165Y00011055*
X-00007165Y00010055*
X-00005165Y00011055*
X-00006165Y00009055*
X-00005165Y00007055*
X-00007165Y00008055*
X-00009165Y00007055*
X00076386Y-00000779D02*
X00077386Y00001221D01*
X00076386Y00003221*
X00078386Y00002221*
X00080386Y00003221*
X00079386Y00001221*
X00080386Y-00000779*
X00078386Y00000221*
X00076386Y-00000779*
X00066268Y-00000583D02*
X00067268Y00001417D01*
X00066268Y00003417*
X00068268Y00002417*
X00070268Y00003417*
X00069268Y00001417*
X00070268Y-00000583*
X00068268Y00000417*
X00066268Y-00000583*
X00047724Y00028748D02*
X00048724Y00030748D01*
X00047724Y00032748*
X00049724Y00031748*
X00051724Y00032748*
X00050724Y00030748*
X00051724Y00028748*
X00049724Y00029748*
X00047724Y00028748*
X00048276Y00051543D02*
X00049276Y00053543D01*
X00048276Y00055543*
X00050276Y00054543*
X00052276Y00055543*
X00051276Y00053543*
X00052276Y00051543*
X00050276Y00052543*
X00048276Y00051543*
X00034457Y00053748D02*
X00035457Y00055748D01*
X00034457Y00057748*
X00036457Y00056748*
X00038457Y00057748*
X00037457Y00055748*
X00038457Y00053748*
X00036457Y00054748*
X00034457Y00053748*
X-00009165Y-00013732D02*
X-00008165Y-00011732D01*
X-00009165Y-00009732*
X-00007165Y-00010732*
X-00005165Y-00009732*
X-00006165Y-00011732*
X-00005165Y-00013732*
X-00007165Y-00012732*
X-00009165Y-00013732*
X00068118Y00062488D02*
X00069118Y00064488D01*
X00068118Y00066488*
X00070118Y00065488*
X00072118Y00066488*
X00071118Y00064488*
X00072118Y00062488*
X00070118Y00063488*
X00068118Y00062488*
X00068197Y00076858D02*
X00069197Y00078858D01*
X00068197Y00080858*
X00070197Y00079858*
X00072197Y00080858*
X00071197Y00078858*
X00072197Y00076858*
X00070197Y00077858*
X00068197Y00076858*
X00075756Y00069496D02*
X00076756Y00071496D01*
X00075756Y00073496*
X00077756Y00072496*
X00079756Y00073496*
X00078756Y00071496*
X00079756Y00069496*
X00077756Y00070496*
X00075756Y00069496*
X00077449Y00025756D02*
X00078449Y00027756D01*
X00077449Y00029756*
X00079449Y00028756*
X00081449Y00029756*
X00080449Y00027756*
X00081449Y00025756*
X00079449Y00026756*
X00077449Y00025756*
X00068Y00040756D02*
X00069Y00042756D01*
X00068Y00044756*
X0007Y00043756*
X00072Y00044756*
X00071Y00042756*
X00072Y00040756*
X0007Y00041756*
X00068Y00040756*
X00043551Y00033906D02*
X00044551Y00035906D01*
X00043551Y00037905*
X00045551Y00036906*
X00047551Y00037905*
X00046551Y00035906*
X00047551Y00033906*
X00045551Y00034905*
X00043551Y00033906*
Y00069299D02*
X00044551Y00071299D01*
X00043551Y00073299*
X00045551Y00072299*
X00047551Y00073299*
X00046551Y00071299*
X00047551Y00069299*
X00045551Y00070299*
X00043551Y00069299*
X0003674Y00076032D02*
X0003774Y00078031D01*
X0003674Y00080032*
X0003874Y00079031*
X0004074Y00080032*
X0003974Y00078031*
X0004074Y00076032*
X0003874Y00077031*
X0003674Y00076032*
X00036819Y00062685D02*
X00037819Y00064685D01*
X00036819Y00066685*
X00038819Y00065685*
X00040819Y00066685*
X00039819Y00064685*
X00040819Y00062685*
X00038819Y00063685*
X00036819Y00062685*
X00057173Y00100874D02*
X00058173Y00102874D01*
X00057173Y00104874*
X00059173Y00103874*
X00061173Y00104874*
X00060173Y00102874*
X00061173Y00100874*
X00059173Y00101874*
X00057173Y00100874*
G54D33*
X00002787Y-00028858D02*
D01*
X000027821Y-000287184*
X000027675Y-000285796*
X000027432Y-000284421*
X000027095Y-000283067*
X000026663Y-000281739*
X00002614Y-000280445*
X000025528Y-00027919*
X00002483Y-000277981*
X00002405Y-000276824*
X00002319Y-000275724*
X000022256Y-000274686*
X000021252Y-000273717*
X000020183Y-000272819*
X000019053Y-000271999*
X00001787Y-000271259*
X000016637Y-000270604*
X000015362Y-000270036*
X00001405Y-000269558*
X000012708Y-000269174*
X000011342Y-000268883*
X00000996Y-000268689*
X000008567Y-000268592*
X000007172*
X000005779Y-000268689*
X000004397Y-000268883*
X000003031Y-000269174*
X000001689Y-000269558*
X000000377Y-000270036*
X-000000897Y-000270604*
X-00000213Y-000271259*
X-000003313Y-000271999*
X-000004443Y-000272819*
X-000005512Y-000273717*
X-000006516Y-000274686*
X-00000745Y-000275724*
X-00000831Y-000276824*
X-00000909Y-000277981*
X-000009788Y-00027919*
X-0000104Y-000280445*
X-000010923Y-000281739*
X-000011355Y-000283067*
X-000011692Y-000284421*
X-000011935Y-000285796*
X-000012081Y-000287184*
X-00001213Y-00028858*
X-000012081Y-000289975*
X-000011935Y-000291363*
X-000011692Y-000292738*
X-000011355Y-000294092*
X-000010923Y-00029542*
X-0000104Y-000296714*
X-000009788Y-000297969*
X-00000909Y-000299178*
X-00000831Y-000300335*
X-00000745Y-000301435*
X-000006516Y-000302473*
X-000005512Y-000303442*
X-000004443Y-00030434*
X-000003313Y-00030516*
X-000002129Y-0003059*
X-000000897Y-000306555*
X000000377Y-000307123*
X000001689Y-000307601*
X000003031Y-000307985*
X000004397Y-000308276*
X000005779Y-00030847*
X000007172Y-000308567*
X000008567*
X00000996Y-00030847*
X000011342Y-000308276*
X000012708Y-000307985*
X00001405Y-000307601*
X000015362Y-000307123*
X000016637Y-000306555*
X00001787Y-0003059*
X000019053Y-00030516*
X000020183Y-00030434*
X000021252Y-000303442*
X000022256Y-000302473*
X00002319Y-000301435*
X00002405Y-000300335*
X00002483Y-000299178*
X000025528Y-000297969*
X00002614Y-000296714*
X000026663Y-00029542*
X000027095Y-000294092*
X000027432Y-000292738*
X000027675Y-000291363*
X000027821Y-000289975*
X00002787Y-00028858*
X00014598D02*
D01*
X000145931Y-000287184*
X000145785Y-000285796*
X000145542Y-000284421*
X000145205Y-000283067*
X000144773Y-000281739*
X00014425Y-000280445*
X000143638Y-00027919*
X00014294Y-000277981*
X00014216Y-000276824*
X0001413Y-000275724*
X000140366Y-000274686*
X000139362Y-000273717*
X000138293Y-000272819*
X000137163Y-000271999*
X00013598Y-000271259*
X000134747Y-000270604*
X000133472Y-000270036*
X00013216Y-000269558*
X000130818Y-000269174*
X000129452Y-000268883*
X00012807Y-000268689*
X000126677Y-000268592*
X000125282*
X000123889Y-000268689*
X000122507Y-000268883*
X000121141Y-000269174*
X000119799Y-000269558*
X000118487Y-000270036*
X000117212Y-000270604*
X000115979Y-000271259*
X000114796Y-000271999*
X000113666Y-000272819*
X000112597Y-000273717*
X000111593Y-000274686*
X000110659Y-000275724*
X000109799Y-000276824*
X000109019Y-000277981*
X000108321Y-00027919*
X000107709Y-000280445*
X000107186Y-000281739*
X000106754Y-000283067*
X000106417Y-000284421*
X000106174Y-000285796*
X000106028Y-000287184*
X00010598Y-00028858*
X000106028Y-000289975*
X000106174Y-000291363*
X000106417Y-000292738*
X000106754Y-000294092*
X000107186Y-00029542*
X000107709Y-000296714*
X000108321Y-000297969*
X000109019Y-000299178*
X000109799Y-000300335*
X000110659Y-000301435*
X000111593Y-000302473*
X000112597Y-000303442*
X000113666Y-00030434*
X000114796Y-00030516*
X00011598Y-0003059*
X000117212Y-000306555*
X000118487Y-000307123*
X000119799Y-000307601*
X000121141Y-000307985*
X000122507Y-000308276*
X000123889Y-00030847*
X000125282Y-000308567*
X000126677*
X00012807Y-00030847*
X000129452Y-000308276*
X000130818Y-000307985*
X00013216Y-000307601*
X000133472Y-000307123*
X000134747Y-000306555*
X00013598Y-0003059*
X000137163Y-00030516*
X000138293Y-00030434*
X000139362Y-000303442*
X000140366Y-000302473*
X0001413Y-000301435*
X00014216Y-000300335*
X00014294Y-000299178*
X000143638Y-000297969*
X00014425Y-000296714*
X000144773Y-00029542*
X000145205Y-000294092*
X000145542Y-000292738*
X000145785Y-000291363*
X000145931Y-000289975*
X00014598Y-00028858*
X00026409D02*
D01*
X000264041Y-000287184*
X000263895Y-000285796*
X000263652Y-000284421*
X000263315Y-000283067*
X000262883Y-000281739*
X00026236Y-000280445*
X000261748Y-00027919*
X00026105Y-000277981*
X00026027Y-000276824*
X00025941Y-000275724*
X000258476Y-000274686*
X000257472Y-000273717*
X000256403Y-000272819*
X000255273Y-000271999*
X00025409Y-000271259*
X000252857Y-000270604*
X000251582Y-000270036*
X00025027Y-000269558*
X000248928Y-000269174*
X000247562Y-000268883*
X00024618Y-000268689*
X000244787Y-000268592*
X000243392*
X000241999Y-000268689*
X000240617Y-000268883*
X000239251Y-000269174*
X000237909Y-000269558*
X000236597Y-000270036*
X000235322Y-000270604*
X000234089Y-000271259*
X000232906Y-000271999*
X000231776Y-000272819*
X000230707Y-000273717*
X000229703Y-000274686*
X000228769Y-000275724*
X000227909Y-000276824*
X000227129Y-000277981*
X000226431Y-00027919*
X000225819Y-000280445*
X000225296Y-000281739*
X000224864Y-000283067*
X000224527Y-000284421*
X000224284Y-000285796*
X000224138Y-000287184*
X00022409Y-00028858*
X000224138Y-000289975*
X000224284Y-000291363*
X000224527Y-000292738*
X000224864Y-000294092*
X000225296Y-00029542*
X000225819Y-000296714*
X000226431Y-000297969*
X000227129Y-000299178*
X000227909Y-000300335*
X000228769Y-000301435*
X000229703Y-000302473*
X000230707Y-000303442*
X000231776Y-00030434*
X000232906Y-00030516*
X00023409Y-0003059*
X000235322Y-000306555*
X000236597Y-000307123*
X000237909Y-000307601*
X000239251Y-000307985*
X000240617Y-000308276*
X000241999Y-00030847*
X000243392Y-000308567*
X000244787*
X00024618Y-00030847*
X000247562Y-000308276*
X000248928Y-000307985*
X00025027Y-000307601*
X000251582Y-000307123*
X000252857Y-000306555*
X00025409Y-0003059*
X000255273Y-00030516*
X000256403Y-00030434*
X000257472Y-000303442*
X000258476Y-000302473*
X00025941Y-000301435*
X00026027Y-000300335*
X00026105Y-000299178*
X000261748Y-000297969*
X00026236Y-000296714*
X000262883Y-00029542*
X000263315Y-000294092*
X000263652Y-000292738*
X000263895Y-000291363*
X000264041Y-000289975*
X00026409Y-00028858*
X00038221D02*
D01*
X000382161Y-000287184*
X000382015Y-000285796*
X000381772Y-000284421*
X000381435Y-000283067*
X000381003Y-000281739*
X00038048Y-000280445*
X000379868Y-00027919*
X00037917Y-000277981*
X00037839Y-000276824*
X00037753Y-000275724*
X000376596Y-000274686*
X000375592Y-000273717*
X000374523Y-000272819*
X000373393Y-000271999*
X00037221Y-000271259*
X000370977Y-000270604*
X000369702Y-000270036*
X00036839Y-000269558*
X000367048Y-000269174*
X000365682Y-000268883*
X0003643Y-000268689*
X000362907Y-000268592*
X000361512*
X000360119Y-000268689*
X000358737Y-000268883*
X000357371Y-000269174*
X000356029Y-000269558*
X000354717Y-000270036*
X000353442Y-000270604*
X00035221Y-000271259*
X000351026Y-000271999*
X000349896Y-000272819*
X000348827Y-000273717*
X000347823Y-000274686*
X000346889Y-000275724*
X000346029Y-000276824*
X000345249Y-000277981*
X000344551Y-00027919*
X000343939Y-000280445*
X000343416Y-000281739*
X000342984Y-000283067*
X000342647Y-000284421*
X000342404Y-000285796*
X000342258Y-000287184*
X00034221Y-00028858*
X000342258Y-000289975*
X000342404Y-000291363*
X000342647Y-000292738*
X000342984Y-000294092*
X000343416Y-00029542*
X000343939Y-000296714*
X000344551Y-000297969*
X000345249Y-000299178*
X000346029Y-000300335*
X000346889Y-000301435*
X000347823Y-000302473*
X000348827Y-000303442*
X000349896Y-00030434*
X000351026Y-00030516*
X00035221Y-0003059*
X000353442Y-000306555*
X000354717Y-000307123*
X000356029Y-000307601*
X000357371Y-000307985*
X000358737Y-000308276*
X000360119Y-00030847*
X000361512Y-000308567*
X000362907*
X0003643Y-00030847*
X000365682Y-000308276*
X000367048Y-000307985*
X00036839Y-000307601*
X000369702Y-000307123*
X000370977Y-000306555*
X00037221Y-0003059*
X000373393Y-00030516*
X000374523Y-00030434*
X000375592Y-000303442*
X000376596Y-000302473*
X00037753Y-000301435*
X00037839Y-000300335*
X00037917Y-000299178*
X000379868Y-000297969*
X00038048Y-000296714*
X000381003Y-00029542*
X000381435Y-000294092*
X000381772Y-000292738*
X000382015Y-000291363*
X000382161Y-000289975*
X00038221Y-00028858*
X00038954Y00111334D02*
D01*
X000389491Y001114735*
X000389345Y001116123*
X000389102Y001117498*
X000388765Y001118852*
X000388333Y00112018*
X00038781Y001121474*
X000387198Y001122729*
X0003865Y001123938*
X00038572Y001125095*
X00038486Y001126195*
X000383926Y001127233*
X000382922Y001128202*
X000381853Y0011291*
X000380723Y00112992*
X00037954Y00113066*
X000378307Y001131315*
X000377032Y001131883*
X00037572Y001132361*
X000374378Y001132745*
X000373012Y001133036*
X00037163Y00113323*
X000370237Y001133327*
X000368842*
X000367449Y00113323*
X000366067Y001133036*
X000364701Y001132745*
X000363359Y001132361*
X000362047Y001131883*
X000360772Y001131315*
X00035954Y00113066*
X000358356Y00112992*
X000357226Y0011291*
X000356157Y001128202*
X000355153Y001127233*
X000354219Y001126195*
X000353359Y001125095*
X000352579Y001123938*
X000351881Y001122729*
X000351269Y001121474*
X000350746Y00112018*
X000350314Y001118852*
X000349977Y001117498*
X000349734Y001116123*
X000349588Y001114735*
X00034954Y00111334*
X000349588Y001111944*
X000349734Y001110556*
X000349977Y001109181*
X000350314Y001107827*
X000350746Y001106499*
X000351269Y001105205*
X000351881Y00110395*
X000352579Y001102741*
X000353359Y001101584*
X000354219Y001100484*
X000355153Y001099446*
X000356157Y001098477*
X000357226Y001097579*
X000358356Y001096759*
X00035954Y001096019*
X000360772Y001095364*
X000362047Y001094796*
X000363359Y001094318*
X000364701Y001093934*
X000366067Y001093643*
X000367449Y001093449*
X000368842Y001093352*
X000370237*
X00037163Y001093449*
X000373012Y001093643*
X000374378Y001093934*
X00037572Y001094318*
X000377032Y001094796*
X000378307Y001095364*
X00037954Y001096019*
X000380723Y001096759*
X000381853Y001097579*
X000382922Y001098477*
X000383926Y001099446*
X00038486Y001100484*
X00038572Y001101584*
X0003865Y001102741*
X000387198Y00110395*
X00038781Y001105205*
X000388333Y001106499*
X000388765Y001107827*
X000389102Y001109181*
X000389345Y001110556*
X000389491Y001111944*
X00038954Y00111334*
X00050765D02*
D01*
X000507601Y001114735*
X000507455Y001116123*
X000507212Y001117498*
X000506875Y001118852*
X000506443Y00112018*
X00050592Y001121474*
X000505308Y001122729*
X00050461Y001123938*
X00050383Y001125095*
X00050297Y001126195*
X000502036Y001127233*
X000501032Y001128202*
X000499963Y0011291*
X000498833Y00112992*
X00049765Y00113066*
X000496417Y001131315*
X000495142Y001131883*
X00049383Y001132361*
X000492488Y001132745*
X000491122Y001133036*
X00048974Y00113323*
X000488347Y001133327*
X000486952*
X000485559Y00113323*
X000484177Y001133036*
X000482811Y001132745*
X000481469Y001132361*
X000480157Y001131883*
X000478882Y001131315*
X00047765Y00113066*
X000476466Y00112992*
X000475336Y0011291*
X000474267Y001128202*
X000473263Y001127233*
X000472329Y001126195*
X000471469Y001125095*
X000470689Y001123938*
X000469991Y001122729*
X000469379Y001121474*
X000468856Y00112018*
X000468424Y001118852*
X000468087Y001117498*
X000467844Y001116123*
X000467698Y001114735*
X00046765Y00111334*
X000467698Y001111944*
X000467844Y001110556*
X000468087Y001109181*
X000468424Y001107827*
X000468856Y001106499*
X000469379Y001105205*
X000469991Y00110395*
X000470689Y001102741*
X000471469Y001101584*
X000472329Y001100484*
X000473263Y001099446*
X000474267Y001098477*
X000475336Y001097579*
X000476466Y001096759*
X00047765Y001096019*
X000478882Y001095364*
X000480157Y001094796*
X000481469Y001094318*
X000482811Y001093934*
X000484177Y001093643*
X000485559Y001093449*
X000486952Y001093352*
X000488347*
X00048974Y001093449*
X000491122Y001093643*
X000492488Y001093934*
X00049383Y001094318*
X000495142Y001094796*
X000496417Y001095364*
X00049765Y001096019*
X000498833Y001096759*
X000499963Y001097579*
X000501032Y001098477*
X000502036Y001099446*
X00050297Y001100484*
X00050383Y001101584*
X00050461Y001102741*
X000505308Y00110395*
X00050592Y001105205*
X000506443Y001106499*
X000506875Y001107827*
X000507212Y001109181*
X000507455Y001110556*
X000507601Y001111944*
X00050765Y00111334*
X00062576D02*
D01*
X000625711Y001114735*
X000625565Y001116123*
X000625322Y001117498*
X000624985Y001118852*
X000624553Y00112018*
X00062403Y001121474*
X000623418Y001122729*
X00062272Y001123938*
X00062194Y001125095*
X00062108Y001126195*
X000620146Y001127233*
X000619142Y001128202*
X000618073Y0011291*
X000616943Y00112992*
X00061576Y00113066*
X000614527Y001131315*
X000613252Y001131883*
X00061194Y001132361*
X000610598Y001132745*
X000609232Y001133036*
X00060785Y00113323*
X000606457Y001133327*
X000605062*
X000603669Y00113323*
X000602287Y001133036*
X000600921Y001132745*
X000599579Y001132361*
X000598267Y001131883*
X000596992Y001131315*
X00059576Y00113066*
X000594576Y00112992*
X000593446Y0011291*
X000592377Y001128202*
X000591373Y001127233*
X000590439Y001126195*
X000589579Y001125095*
X000588799Y001123938*
X000588101Y001122729*
X000587489Y001121474*
X000586966Y00112018*
X000586534Y001118852*
X000586197Y001117498*
X000585954Y001116123*
X000585808Y001114735*
X00058576Y00111334*
X000585808Y001111944*
X000585954Y001110556*
X000586197Y001109181*
X000586534Y001107827*
X000586966Y001106499*
X000587489Y001105205*
X000588101Y00110395*
X000588799Y001102741*
X000589579Y001101584*
X000590439Y001100484*
X000591373Y001099446*
X000592377Y001098477*
X000593446Y001097579*
X000594576Y001096759*
X00059576Y001096019*
X000596992Y001095364*
X000598267Y001094796*
X000599579Y001094318*
X000600921Y001093934*
X000602287Y001093643*
X000603669Y001093449*
X000605062Y001093352*
X000606457*
X00060785Y001093449*
X000609232Y001093643*
X000610598Y001093934*
X00061194Y001094318*
X000613252Y001094796*
X000614527Y001095364*
X00061576Y001096019*
X000616943Y001096759*
X000618073Y001097579*
X000619142Y001098477*
X000620146Y001099446*
X00062108Y001100484*
X00062194Y001101584*
X00062272Y001102741*
X000623418Y00110395*
X00062403Y001105205*
X000624553Y001106499*
X000624985Y001107827*
X000625322Y001109181*
X000625565Y001110556*
X000625711Y001111944*
X00062576Y00111334*
X00073654Y-00028858D02*
D01*
X000736491Y-000287184*
X000736345Y-000285796*
X000736102Y-000284421*
X000735765Y-000283067*
X000735333Y-000281739*
X00073481Y-000280445*
X000734198Y-00027919*
X0007335Y-000277981*
X00073272Y-000276824*
X00073186Y-000275724*
X000730926Y-000274686*
X000729922Y-000273717*
X000728853Y-000272819*
X000727723Y-000271999*
X00072654Y-000271259*
X000725307Y-000270604*
X000724032Y-000270036*
X00072272Y-000269558*
X000721378Y-000269174*
X000720012Y-000268883*
X00071863Y-000268689*
X000717237Y-000268592*
X000715842*
X000714449Y-000268689*
X000713067Y-000268883*
X000711701Y-000269174*
X000710359Y-000269558*
X000709047Y-000270036*
X000707772Y-000270604*
X00070654Y-000271259*
X000705356Y-000271999*
X000704226Y-000272819*
X000703157Y-000273717*
X000702153Y-000274686*
X000701219Y-000275724*
X000700359Y-000276824*
X000699579Y-000277981*
X000698881Y-00027919*
X000698269Y-000280445*
X000697746Y-000281739*
X000697314Y-000283067*
X000696977Y-000284421*
X000696734Y-000285796*
X000696588Y-000287184*
X00069654Y-00028858*
X000696588Y-000289975*
X000696734Y-000291363*
X000696977Y-000292738*
X000697314Y-000294092*
X000697746Y-00029542*
X000698269Y-000296714*
X000698881Y-000297969*
X000699579Y-000299178*
X000700359Y-000300335*
X000701219Y-000301435*
X000702153Y-000302473*
X000703157Y-000303442*
X000704226Y-00030434*
X000705356Y-00030516*
X00070654Y-0003059*
X000707772Y-000306555*
X000709047Y-000307123*
X000710359Y-000307601*
X000711701Y-000307985*
X000713067Y-000308276*
X000714449Y-00030847*
X000715842Y-000308567*
X000717237*
X00071863Y-00030847*
X000720012Y-000308276*
X000721378Y-000307985*
X00072272Y-000307601*
X000724032Y-000307123*
X000725307Y-000306555*
X00072654Y-0003059*
X000727723Y-00030516*
X000728853Y-00030434*
X000729922Y-000303442*
X000730926Y-000302473*
X00073186Y-000301435*
X00073272Y-000300335*
X0007335Y-000299178*
X000734198Y-000297969*
X00073481Y-000296714*
X000735333Y-00029542*
X000735765Y-000294092*
X000736102Y-000292738*
X000736345Y-000291363*
X000736491Y-000289975*
X00073654Y-00028858*
X00061843D02*
D01*
X000618381Y-000287184*
X000618235Y-000285796*
X000617992Y-000284421*
X000617655Y-000283067*
X000617223Y-000281739*
X0006167Y-000280445*
X000616088Y-00027919*
X00061539Y-000277981*
X00061461Y-000276824*
X00061375Y-000275724*
X000612816Y-000274686*
X000611812Y-000273717*
X000610743Y-000272819*
X000609613Y-000271999*
X00060843Y-000271259*
X000607197Y-000270604*
X000605922Y-000270036*
X00060461Y-000269558*
X000603268Y-000269174*
X000601902Y-000268883*
X00060052Y-000268689*
X000599127Y-000268592*
X000597732*
X000596339Y-000268689*
X000594957Y-000268883*
X000593591Y-000269174*
X000592249Y-000269558*
X000590937Y-000270036*
X000589662Y-000270604*
X00058843Y-000271259*
X000587246Y-000271999*
X000586116Y-000272819*
X000585047Y-000273717*
X000584043Y-000274686*
X000583109Y-000275724*
X000582249Y-000276824*
X000581469Y-000277981*
X000580771Y-00027919*
X000580159Y-000280445*
X000579636Y-000281739*
X000579204Y-000283067*
X000578867Y-000284421*
X000578624Y-000285796*
X000578478Y-000287184*
X00057843Y-00028858*
X000578478Y-000289975*
X000578624Y-000291363*
X000578867Y-000292738*
X000579204Y-000294092*
X000579636Y-00029542*
X000580159Y-000296714*
X000580771Y-000297969*
X000581469Y-000299178*
X000582249Y-000300335*
X000583109Y-000301435*
X000584043Y-000302473*
X000585047Y-000303442*
X000586116Y-00030434*
X000587246Y-00030516*
X00058843Y-0003059*
X000589662Y-000306555*
X000590937Y-000307123*
X000592249Y-000307601*
X000593591Y-000307985*
X000594957Y-000308276*
X000596339Y-00030847*
X000597732Y-000308567*
X000599127*
X00060052Y-00030847*
X000601902Y-000308276*
X000603268Y-000307985*
X00060461Y-000307601*
X000605922Y-000307123*
X000607197Y-000306555*
X00060843Y-0003059*
X000609613Y-00030516*
X000610743Y-00030434*
X000611812Y-000303442*
X000612816Y-000302473*
X00061375Y-000301435*
X00061461Y-000300335*
X00061539Y-000299178*
X000616088Y-000297969*
X0006167Y-000296714*
X000617223Y-00029542*
X000617655Y-000294092*
X000617992Y-000292738*
X000618235Y-000291363*
X000618381Y-000289975*
X00061843Y-00028858*
X00050032D02*
D01*
X000500271Y-000287184*
X000500125Y-000285796*
X000499882Y-000284421*
X000499545Y-000283067*
X000499113Y-000281739*
X00049859Y-000280445*
X000497978Y-00027919*
X00049728Y-000277981*
X0004965Y-000276824*
X00049564Y-000275724*
X000494706Y-000274686*
X000493702Y-000273717*
X000492633Y-000272819*
X000491503Y-000271999*
X00049032Y-000271259*
X000489087Y-000270604*
X000487812Y-000270036*
X0004865Y-000269558*
X000485158Y-000269174*
X000483792Y-000268883*
X00048241Y-000268689*
X000481017Y-000268592*
X000479622*
X000478229Y-000268689*
X000476847Y-000268883*
X000475481Y-000269174*
X000474139Y-000269558*
X000472827Y-000270036*
X000471552Y-000270604*
X00047032Y-000271259*
X000469136Y-000271999*
X000468006Y-000272819*
X000466937Y-000273717*
X000465933Y-000274686*
X000464999Y-000275724*
X000464139Y-000276824*
X000463359Y-000277981*
X000462661Y-00027919*
X000462049Y-000280445*
X000461526Y-000281739*
X000461094Y-000283067*
X000460757Y-000284421*
X000460514Y-000285796*
X000460368Y-000287184*
X00046032Y-00028858*
X000460368Y-000289975*
X000460514Y-000291363*
X000460757Y-000292738*
X000461094Y-000294092*
X000461526Y-00029542*
X000462049Y-000296714*
X000462661Y-000297969*
X000463359Y-000299178*
X000464139Y-000300335*
X000464999Y-000301435*
X000465933Y-000302473*
X000466937Y-000303442*
X000468006Y-00030434*
X000469136Y-00030516*
X00047032Y-0003059*
X000471552Y-000306555*
X000472827Y-000307123*
X000474139Y-000307601*
X000475481Y-000307985*
X000476847Y-000308276*
X000478229Y-00030847*
X000479622Y-000308567*
X000481017*
X00048241Y-00030847*
X000483792Y-000308276*
X000485158Y-000307985*
X0004865Y-000307601*
X000487812Y-000307123*
X000489087Y-000306555*
X00049032Y-0003059*
X000491503Y-00030516*
X000492633Y-00030434*
X000493702Y-000303442*
X000494706Y-000302473*
X00049564Y-000301435*
X0004965Y-000300335*
X00049728Y-000299178*
X000497978Y-000297969*
X00049859Y-000296714*
X000499113Y-00029542*
X000499545Y-000294092*
X000499882Y-000292738*
X000500125Y-000291363*
X000500271Y-000289975*
X00050032Y-00028858*
M02*