%FSTAX36Y36*%
%MOIN*%
%SFA1B1*%

%IPPOS*%
%ADD10R,0.035430X0.035430*%
%ADD11R,0.059060X0.051180*%
%ADD12R,0.031500X0.031500*%
%ADD13R,0.059060X0.051180*%
%ADD14C,0.023620*%
%ADD15C,0.039370*%
%ADD16C,0.019690*%
%ADD17C,0.007870*%
%ADD18C,0.070870*%
%ADD19C,0.098430*%
%ADD20C,0.039370*%
%LNpcb1-1*%
%LPD*%
G36*
X00103347Y-00022638D02*
X00090551D01*
X0008815Y-00022835*
X00085591Y-00023661*
X00083504Y-00024882*
X00081575Y-0002685*
X00080315Y-00028583*
X00079606Y-00030079*
X00079173Y-00031417*
X00078819Y-00033346*
X0007874Y-00034449*
Y-00047244*
X-00010827*
Y00101378*
X00001969*
X0000374Y00101496*
X00005276Y00101929*
X00007795Y00102953*
X00009331Y00103976*
X00010709Y00105354*
X00011614Y00106378*
X00012559Y00107874*
X00013386Y00110158*
X00013701Y00111693*
X0001378Y00114173*
Y00125984*
X00103347*
Y-00022638*
G37*
%LNpcb1-2*%
%LPC*%
G36*
X00041726Y00000549D02*
X00039361D01*
X00040543Y-00000634*
X00041726Y00000549*
G37*
G36*
X00062458Y00001354D02*
X00059699D01*
X00061079Y-00000025*
X00062458Y00001354*
G37*
G36*
X00073105Y00013864D02*
X000652D01*
Y00013011*
X00050403*
X00049922Y0001338*
X000492Y00013679*
X00048425Y00013781*
X0004765Y00013679*
X00046928Y0001338*
X00046308Y00012905*
X00045832Y00012285*
X00045533Y00011562*
X00045431Y00010787*
X00045533Y00010012*
X00045832Y0000929*
X00046308Y0000867*
X00046928Y00008194*
X0004765Y00007895*
X00048425Y00007793*
X000492Y00007895*
X00049922Y00008194*
X00050403Y00008564*
X000652*
Y00006746*
X00073105*
Y00013864*
G37*
G36*
X00052203Y00001533D02*
X00047868D01*
X00050036Y-00000634*
X00052203Y00001533*
G37*
G36*
X00043118Y-00000843D02*
X00041935Y-00002026D01*
X00043118Y-00003209*
Y-00000843*
G37*
G36*
X00058307Y-00000038D02*
Y-00002797D01*
X00059687Y-00001417*
X00058307Y-00000038*
G37*
G36*
X0006385D02*
X00062471Y-00001417D01*
X0006385Y-00002797*
Y-00000038*
G37*
G36*
X00005866Y00059701D02*
X0000468Y00059544D01*
X00003575Y00059087*
X00002626Y00058358*
X00001898Y00057409*
X0000144Y00056304*
X00001284Y00055118*
X0000144Y00053932*
X00001898Y00052827*
X00002626Y00051878*
X00003575Y00051149*
X0000468Y00050692*
X00005866Y00050536*
X00007052Y00050692*
X0000712Y0005072*
X0001253Y00045309*
X00013251Y00044827*
X00013701Y00044738*
Y00043323*
X00021606*
Y00044658*
X0003326*
X0003631Y00041608*
Y00039804*
X00034581*
Y00032686*
X0003631*
Y00032579*
X00035941Y00032097*
X00035641Y00031375*
X00035539Y000306*
X00035641Y00029825*
X00035941Y00029103*
X00036416Y00028483*
X00037036Y00028007*
X00037759Y00027708*
X00038533Y00027606*
X00039309Y00027708*
X00040031Y00028007*
X00040651Y00028483*
X00041126Y00029103*
X00041426Y00029825*
X00041528Y000306*
X00041426Y00031375*
X00041126Y00032097*
X00040757Y00032579*
Y00032686*
X00042486*
Y00039804*
X00040757*
Y00042529*
X00040588Y0004338*
X00040106Y00044102*
X00035754Y00048454*
X00035032Y00048936*
X00034181Y00049106*
X00021606*
Y00050441*
X00013701*
Y00050428*
X00010265Y00053865*
X00010293Y00053932*
X00010449Y00055118*
X00010293Y00056304*
X00009835Y00057409*
X00009106Y00058358*
X00008157Y00059087*
X00007052Y00059544*
X00005866Y00059701*
G37*
G36*
X00017653Y0003801D02*
X00015486Y00035842D01*
X00019821*
X00017653Y0003801*
G37*
G36*
X00013701Y00041962D02*
Y00036841D01*
X00016262Y00039402*
X00013701Y00041962*
G37*
G36*
X00064486Y00039804D02*
X00056581D01*
Y00032686*
X0005731*
Y00028867*
X00056762*
Y00023324*
X00062305*
Y00028867*
X00061757*
Y00032686*
X00064486*
Y00039804*
G37*
G36*
X00023105Y00019344D02*
X000152D01*
Y00012226*
X00023105*
Y00013604*
X00026762*
Y00013056*
X00032305*
Y00018599*
X00026762*
Y00018052*
X00023105*
Y00019344*
G37*
G36*
X00073105Y00021344D02*
X000652D01*
Y00020052*
X00062305*
Y00020599*
X00056762*
Y00015056*
X00062305*
Y00015604*
X000652*
Y00014226*
X00073105*
Y00021344*
G37*
G36*
X00032486Y00039804D02*
X00024581D01*
Y00032686*
X0002731*
Y00026867*
X00026762*
Y00021324*
X00032305*
Y00026867*
X00031757*
Y00032686*
X00032486*
Y00039804*
G37*
G36*
X00093756Y00033849D02*
X00086245D01*
Y-00005803*
Y-00014583*
X00093568*
Y-0001474*
X00101079*
Y-00002024*
Y00009423*
X00093756*
Y00033849*
G37*
G36*
X0004052Y00026874D02*
X00039334Y00026718D01*
X00038228Y0002626*
X00037279Y00025532*
X00036551Y00024583*
X00036093Y00023477*
X00035937Y00022291*
X00036093Y00021105*
X00036551Y0002*
X00037279Y00019051*
X00038228Y00018323*
X00038296Y00018295*
Y00013567*
X00029955Y00005226*
X00029473Y00004505*
X00029304Y00003654*
Y-00003192*
X00028953*
Y-00008341*
X00034102*
Y-00003192*
X00033751*
Y00002733*
X00042092Y00011073*
X00042574Y00011795*
X00042744Y00012646*
Y00018295*
X00042811Y00018323*
X0004376Y00019051*
X00044488Y0002*
X00044946Y00021105*
X00045102Y00022291*
X00044946Y00023477*
X00044488Y00024583*
X0004376Y00025532*
X00042811Y0002626*
X00041706Y00026718*
X0004052Y00026874*
G37*
G36*
X0Y00007928D02*
X-00001547Y00007776D01*
X-00003034Y00007324*
X-00004405Y00006592*
X-00005606Y00005606*
X-00006592Y00004405*
X-00007324Y00003034*
X-00007776Y00001547*
X-00007928Y0*
X-00007776Y-00001547*
X-00007324Y-00003034*
X-00006592Y-00004405*
X-00005606Y-00005606*
X-00004405Y-00006592*
X-00003034Y-00007324*
X-00001547Y-00007776*
X0Y-00007928*
X00001547Y-00007776*
X00003034Y-00007324*
X00004405Y-00006592*
X00005606Y-00005606*
X00006592Y-00004405*
X00007324Y-00003034*
X00007776Y-00001547*
X00007928Y0*
X00007776Y00001547*
X00007324Y00003034*
X00006592Y00004405*
X00005606Y00005606*
X00004405Y00006592*
X00003034Y00007324*
X00001547Y00007776*
X0Y00007928*
G37*
G36*
X00059842Y-00022908D02*
X00058682Y-00023023D01*
X00057566Y-00023361*
X00056537Y-00023911*
X000564Y-00024024*
X00059842Y-00027466*
X00063285Y-00024024*
X00063148Y-00023911*
X00062119Y-00023361*
X00061003Y-00023023*
X00059842Y-00022908*
G37*
G36*
Y-0003025D02*
X000564Y-00033693D01*
X00056537Y-00033805*
X00057566Y-00034355*
X00058682Y-00034694*
X00059842Y-00034808*
X00061003Y-00034694*
X00062119Y-00034355*
X00063148Y-00033805*
X00063285Y-00033693*
X00059842Y-0003025*
G37*
G36*
X00023105Y00011864D02*
X000152D01*
Y00004746*
X00016929*
Y-00001756*
X-00000785Y-0001947*
X-00001267Y-00020191*
X-00001436Y-00021042*
Y-00023345*
X-00001489Y-00023361*
X-00002518Y-00023911*
X-0000342Y-00024651*
X-0000416Y-00025553*
X-0000471Y-00026581*
X-00005048Y-00027698*
X-00005162Y-00028858*
X-00005048Y-00030019*
X-0000471Y-00031135*
X-0000416Y-00032164*
X-0000342Y-00033066*
X-00002518Y-00033805*
X-00001489Y-00034355*
X-00000373Y-00034694*
X00000787Y-00034808*
X00001948Y-00034694*
X00003064Y-00034355*
X00004093Y-00033805*
X00004995Y-00033066*
X00005735Y-00032164*
X00006284Y-00031135*
X00006623Y-00030019*
X00006693Y-00029309*
X00006763Y-00030019*
X00007101Y-00031135*
X00007651Y-00032164*
X00008391Y-00033066*
X00009293Y-00033805*
X00010322Y-00034355*
X00011438Y-00034694*
X00012598Y-00034808*
X00013759Y-00034694*
X00014875Y-00034355*
X00015904Y-00033805*
X00016806Y-00033066*
X00017546Y-00032164*
X00018095Y-00031135*
X00018434Y-00030019*
X00018504Y-00029309*
X00018574Y-00030019*
X00018913Y-00031135*
X00019462Y-00032164*
X00020202Y-00033066*
X00021104Y-00033805*
X00022132Y-00034355*
X00023249Y-00034694*
X00024409Y-00034808*
X0002557Y-00034694*
X00026686Y-00034355*
X00027715Y-00033805*
X00028617Y-00033066*
X00029357Y-00032164*
X00029906Y-00031135*
X00030245Y-00030019*
X00030315Y-00029309*
X00030385Y-00030019*
X00030724Y-00031135*
X00031273Y-00032164*
X00032013Y-00033066*
X00032915Y-00033805*
X00033944Y-00034355*
X0003506Y-00034694*
X0003622Y-00034808*
X00037381Y-00034694*
X00038497Y-00034355*
X00039526Y-00033805*
X00040428Y-00033066*
X00041168Y-00032164*
X00041717Y-00031135*
X00042056Y-00030019*
X00042126Y-00029309*
X00042196Y-00030019*
X00042535Y-00031135*
X00043084Y-00032164*
X00043824Y-00033066*
X00044726Y-00033805*
X00045755Y-00034355*
X00046871Y-00034694*
X00048031Y-00034808*
X00049192Y-00034694*
X00050308Y-00034355*
X00051337Y-00033805*
X00052239Y-00033066*
X00052979Y-00032164*
X00053528Y-00031135*
X00053867Y-00030019*
X00053937Y-00029309*
X00054007Y-00030019*
X00054346Y-00031135*
X00054895Y-00032164*
X00055008Y-00032301*
X00058451Y-00028858*
X00055008Y-00025416*
X00054895Y-00025553*
X00054346Y-00026581*
X00054007Y-00027698*
X00053937Y-00028407*
X00053867Y-00027698*
X00053528Y-00026581*
X00052979Y-00025553*
X00052239Y-00024651*
X00051337Y-00023911*
X00050308Y-00023361*
X00049192Y-00023023*
X00048031Y-00022908*
X00046871Y-00023023*
X00045755Y-00023361*
X00044726Y-00023911*
X00043824Y-00024651*
X00043084Y-00025553*
X00042535Y-00026581*
X00042196Y-00027698*
X00042126Y-00028407*
X00042056Y-00027698*
X00041717Y-00026581*
X00041168Y-00025553*
X00040428Y-00024651*
X00039526Y-00023911*
X00038497Y-00023361*
X00037381Y-00023023*
X0003622Y-00022908*
X0003506Y-00023023*
X00033944Y-00023361*
X00032915Y-00023911*
X00032013Y-00024651*
X00031273Y-00025553*
X00030724Y-00026581*
X00030385Y-00027698*
X00030315Y-00028407*
X00030245Y-00027698*
X00029906Y-00026581*
X00029357Y-00025553*
X00028617Y-00024651*
X00027715Y-00023911*
X00026686Y-00023361*
X0002557Y-00023023*
X00024409Y-00022908*
X00023249Y-00023023*
X00022132Y-00023361*
X00021104Y-00023911*
X00020202Y-00024651*
X00019462Y-00025553*
X00018913Y-00026581*
X00018574Y-00027698*
X00018504Y-00028407*
X00018434Y-00027698*
X00018095Y-00026581*
X00017546Y-00025553*
X00016806Y-00024651*
X00015904Y-00023911*
X00014875Y-00023361*
X00013759Y-00023023*
X00012598Y-00022908*
X00011438Y-00023023*
X00010322Y-00023361*
X00009293Y-00023911*
X00008391Y-00024651*
X00007651Y-00025553*
X00007101Y-00026581*
X00006763Y-00027698*
X00006693Y-00028407*
X00006623Y-00027698*
X00006284Y-00026581*
X00005735Y-00025553*
X00004995Y-00024651*
X00004093Y-00023911*
X00003064Y-00023361*
X00003011Y-00023345*
Y-00021963*
X00020725Y-0000425*
X00021207Y-00003528*
X00021376Y-00002677*
Y00004746*
X00023105*
Y00011864*
G37*
G36*
X00075425Y-00013063D02*
X0006752D01*
Y-00020181*
X0006943*
Y-00023345*
X00069377Y-00023361*
X00068348Y-00023911*
X00067446Y-00024651*
X00066706Y-00025553*
X00066157Y-00026581*
X00065818Y-00027698*
X00065748Y-00028407*
X00065678Y-00027698*
X00065339Y-00026581*
X0006479Y-00025553*
X00064677Y-00025416*
X00061234Y-00028858*
X00064677Y-00032301*
X0006479Y-00032164*
X00065339Y-00031135*
X00065678Y-00030019*
X00065748Y-00029309*
X00065818Y-00030019*
X00066157Y-00031135*
X00066706Y-00032164*
X00067446Y-00033066*
X00068348Y-00033805*
X00069377Y-00034355*
X00070493Y-00034694*
X00071653Y-00034808*
X00072814Y-00034694*
X00073931Y-00034355*
X00074959Y-00033805*
X00075861Y-00033066*
X00076601Y-00032164*
X0007715Y-00031135*
X00077489Y-00030019*
X00077603Y-00028858*
X00077489Y-00027698*
X0007715Y-00026581*
X00076601Y-00025553*
X00075861Y-00024651*
X00074959Y-00023911*
X00073931Y-00023361*
X00073877Y-00023345*
Y-00020181*
X00075425*
Y-00013063*
G37*
G36*
X00053988Y00000535D02*
X00051428Y-00002026D01*
X00053988Y-00004587*
Y00000535*
G37*
G36*
X00061079Y-00002809D02*
X00059699Y-00004189D01*
X00062458*
X00061079Y-00002809*
G37*
G36*
X00037969Y-00000843D02*
Y-00003209D01*
X00039151Y-00002026*
X00037969Y-00000843*
G37*
G36*
X00046083Y00000535D02*
Y-00004587D01*
X00048644Y-00002026*
X00046083Y00000535*
G37*
G36*
X00075425Y-00005583D02*
X0006752D01*
Y-00007542*
X0006385*
Y-00006913*
X00058307*
Y-00007542*
X00053988*
Y-00005947*
X00046083*
Y-00007283*
X00043118*
Y-00006932*
X00037969*
Y-00012081*
X00043118*
Y-0001173*
X00046083*
Y-00013066*
X00053988*
Y-0001199*
X00058307*
Y-00012457*
X0006385*
Y-0001199*
X0006752*
Y-00012701*
X00075425*
Y-00005583*
G37*
G36*
X00050036Y-00003418D02*
X00047868Y-00005585D01*
X00052203*
X00050036Y-00003418*
G37*
G36*
X00040543D02*
X00039361Y-00004601D01*
X00041726*
X00040543Y-00003418*
G37*
G36*
X00066581Y00074239D02*
Y00069117D01*
X00069142Y00071678*
X00066581Y00074239*
G37*
G36*
X00074486D02*
X00071925Y00071678D01*
X00074486Y00069117*
Y00074239*
G37*
G36*
X0009252Y00086668D02*
X00090973Y00086516D01*
X00089486Y00086065*
X00088115Y00085332*
X00086914Y00084346*
X00085928Y00083145*
X00085195Y00081774*
X00084744Y00080287*
X00084592Y0007874*
X00084744Y00077193*
X00085195Y00075706*
X00085928Y00074336*
X00086914Y00073134*
X00088115Y00072148*
X00089486Y00071416*
X00090973Y00070964*
X0009252Y00070812*
X00094066Y00070964*
X00095554Y00071416*
X00096924Y00072148*
X00098126Y00073134*
X00099111Y00074336*
X00099844Y00075706*
X00100295Y00077193*
X00100448Y0007874*
X00100295Y00080287*
X00099844Y00081774*
X00099111Y00083145*
X00098126Y00084346*
X00096924Y00085332*
X00095554Y00086065*
X00094066Y00086516*
X0009252Y00086668*
G37*
G36*
X00042486Y00074239D02*
X00039926Y00071678D01*
X00042486Y00069117*
Y00074239*
G37*
G36*
X00038533Y00070286D02*
X00036366Y00068119D01*
X00040701*
X00038533Y00070286*
G37*
G36*
X00070534D02*
X00068366Y00068119D01*
X00072701*
X00070534Y00070286*
G37*
G36*
X00034581Y00074239D02*
Y00069117D01*
X00037142Y00071678*
X00034581Y00074239*
G37*
G36*
X0006541Y00114776D02*
X00061967Y00111334D01*
X0006541Y00107891*
X00065523Y00108028*
X00066073Y00109057*
X00066411Y00110173*
X00066526Y00111334*
X00066411Y00112495*
X00066073Y00113611*
X00065523Y00114639*
X0006541Y00114776*
G37*
G36*
X00048765Y00117284D02*
X00047604Y00117169D01*
X00046488Y00116831*
X00045459Y00116281*
X00044557Y00115541*
X00043817Y00114639*
X00043268Y00113611*
X00042929Y00112495*
X00042859Y00111785*
X00042789Y00112495*
X0004245Y00113611*
X00041901Y00114639*
X00041161Y00115541*
X00040259Y00116281*
X0003923Y00116831*
X00038114Y00117169*
X00036953Y00117284*
X00035793Y00117169*
X00034677Y00116831*
X00033648Y00116281*
X00032746Y00115541*
X00032006Y00114639*
X00031457Y00113611*
X00031118Y00112495*
X00031004Y00111334*
X00031118Y00110173*
X00031457Y00109057*
X00032006Y00108028*
X00032746Y00107126*
X00033648Y00106387*
X00033959Y0010622*
Y00102682*
X00026416Y00095139*
X00025941Y00094519*
X00025729Y00094008*
X00025641Y00093797*
X00025539Y00093022*
Y00075237*
X00024581*
Y00068119*
X00032486*
Y00075237*
X00031528*
Y00091782*
X00039071Y00099325*
X00039546Y00099945*
X00039758Y00100455*
X00039846Y00100667*
X00039948Y00101442*
Y0010622*
X00040259Y00106387*
X00041161Y00107126*
X00041901Y00108028*
X0004245Y00109057*
X00042789Y00110173*
X00042859Y00110883*
X00042929Y00110173*
X00043268Y00109057*
X00043817Y00108028*
X00044557Y00107126*
X00045459Y00106387*
X0004577Y0010622*
Y00099739*
X00045872Y00098965*
X0004596Y00098753*
X00046172Y00098242*
X00046647Y00097622*
X00057539Y0008673*
Y00075237*
X00056581*
Y00068119*
X00064486*
Y00075237*
X00063528*
Y0008797*
X00063426Y00088745*
X00063338Y00088957*
X00063126Y00089468*
X00062651Y00090088*
X00051759Y0010098*
Y0010622*
X0005207Y00106387*
X00052972Y00107126*
X00053712Y00108028*
X00054261Y00109057*
X000546Y00110173*
X0005467Y00110883*
X0005474Y00110173*
X00055079Y00109057*
X00055628Y00108028*
X00055741Y00107891*
X00059184Y00111334*
X00055741Y00114776*
X00055628Y00114639*
X00055079Y00113611*
X0005474Y00112495*
X0005467Y00111785*
X000546Y00112495*
X00054261Y00113611*
X00053712Y00114639*
X00052972Y00115541*
X0005207Y00116281*
X00051042Y00116831*
X00049925Y00117169*
X00048765Y00117284*
G37*
G36*
X00060576D02*
X00059415Y00117169D01*
X00058299Y00116831*
X0005727Y00116281*
X00057133Y00116168*
X00060576Y00112726*
X00064018Y00116168*
X00063881Y00116281*
X00062853Y00116831*
X00061736Y00117169*
X00060576Y00117284*
G37*
G36*
Y00109942D02*
X00057133Y00106499D01*
X0005727Y00106387*
X00058299Y00105837*
X00059415Y00105498*
X00060576Y00105384*
X00061736Y00105498*
X00062853Y00105837*
X00063881Y00106387*
X00064018Y00106499*
X00060576Y00109942*
G37*
G36*
X00040701Y00075237D02*
X00036366D01*
X00038533Y0007307*
X00040701Y00075237*
G37*
G36*
X00072701D02*
X00068366D01*
X00070534Y0007307*
X00072701Y00075237*
G37*
G36*
X0004052Y00095771D02*
X00039334Y00095615D01*
X00038228Y00095157*
X00037279Y00094429*
X00036551Y0009348*
X00036093Y00092375*
X00035937Y00091189*
X00036093Y00090003*
X00036551Y00088898*
X00037279Y00087949*
X00038228Y0008722*
X00039334Y00086763*
X0004052Y00086607*
X00041706Y00086763*
X00042811Y0008722*
X0004376Y00087949*
X00044488Y00088898*
X00044946Y00090003*
X00045102Y00091189*
X00044946Y00092375*
X00044488Y0009348*
X0004376Y00094429*
X00042811Y00095157*
X00041706Y00095615*
X0004052Y00095771*
G37*
G36*
X00093386Y00063795D02*
X000922Y00063639D01*
X00091095Y00063181*
X00090933Y00063057*
X00093386Y00060605*
X00095838Y00063057*
X00095677Y00063181*
X00094572Y00063639*
X00093386Y00063795*
G37*
G36*
X00081653Y0004349D02*
X00079486Y00041323D01*
X00083821*
X00081653Y0004349*
G37*
G36*
X00077701Y00047443D02*
Y00042321D01*
X00080262Y00044882*
X00077701Y00047443*
G37*
G36*
X00085606D02*
X00083046Y00044882D01*
X00085606Y00042321*
Y00047443*
G37*
G36*
X00019821Y00042961D02*
X00015486D01*
X00017653Y00040793*
X00019821Y00042961*
G37*
G36*
X00021606Y00041962D02*
X00019046Y00039402D01*
X00021606Y00036841*
Y00041962*
G37*
G36*
X00092992Y00053795D02*
X00091806Y00053639D01*
X00090701Y00053181*
X00089752Y00052453*
X00089024Y00051504*
X00088566Y00050399*
X0008841Y00049213*
X00088566Y00048027*
X00089024Y00046921*
X00089752Y00045972*
X00090701Y00045244*
X00090768Y00045216*
Y00044189*
X00086205Y00039625*
X00085606*
Y00040961*
X00077701*
Y00038941*
X00074486*
Y00039804*
X00066581*
Y00032686*
X00068367*
Y00029144*
X00067998Y00028662*
X00067699Y0002794*
X00067596Y00027165*
X00067699Y0002639*
X00067998Y00025668*
X00068473Y00025048*
X00069094Y00024572*
X00069816Y00024273*
X00070591Y00024171*
X00071365Y00024273*
X00072088Y00024572*
X00072708Y00025048*
X00073184Y00025668*
X00073483Y0002639*
X00073585Y00027165*
X00073483Y0002794*
X00073184Y00028662*
X00072814Y00029144*
Y00032686*
X00074486*
Y00034494*
X00077701*
Y00033843*
X00085606*
Y00035178*
X00087126*
X00087977Y00035347*
X00088699Y00035829*
X00094565Y00041695*
X00095047Y00042417*
X00095216Y00043268*
Y00045216*
X00095283Y00045244*
X00096232Y00045972*
X00096961Y00046921*
X00097418Y00048027*
X00097575Y00049213*
X00097418Y00050399*
X00096961Y00051504*
X00096232Y00052453*
X00095283Y00053181*
X00094178Y00053639*
X00092992Y00053795*
G37*
G36*
X00005472Y00043726D02*
X0000302Y00041273D01*
X00003181Y0004115*
X00004286Y00040692*
X00005472Y00040536*
X00006658Y00040692*
X00007764Y0004115*
X00007925Y00041273*
X00005472Y00043726*
G37*
G36*
X00093386Y00057821D02*
X00090933Y00055368D01*
X00091095Y00055244*
X000922Y00054786*
X00093386Y0005463*
X00094572Y00054786*
X00095677Y00055244*
X00095838Y00055368*
X00093386Y00057821*
G37*
G36*
X00089541Y00061665D02*
X00089417Y00061504D01*
X00088959Y00060399*
X00088803Y00059213*
X00088959Y00058027*
X00089417Y00056921*
X00089541Y0005676*
X00091994Y00059213*
X00089541Y00061665*
G37*
G36*
X0009723D02*
X00094778Y00059213D01*
X0009723Y0005676*
X00097354Y00056921*
X00097812Y00058027*
X00097968Y00059213*
X00097812Y00060399*
X00097354Y00061504*
X0009723Y00061665*
G37*
G36*
X00005472Y00049701D02*
X00004286Y00049545D01*
X00003181Y00049087*
X0000302Y00048963*
X00005472Y0004651*
X00007925Y00048963*
X00007764Y00049087*
X00006658Y00049545*
X00005472Y00049701*
G37*
G36*
X00001628Y00047571D02*
X00001504Y00047409D01*
X00001046Y00046304*
X0000089Y00045118*
X00001046Y00043932*
X00001504Y00042827*
X00001628Y00042665*
X00004081Y00045118*
X00001628Y00047571*
G37*
G36*
X00009317D02*
X00006864Y00045118D01*
X00009317Y00042665*
X00009441Y00042827*
X00009899Y00043932*
X00010055Y00045118*
X00009899Y00046304*
X00009441Y00047409*
X00009317Y00047571*
G37*
G36*
X00083821Y00048441D02*
X00079486D01*
X00081653Y00046274*
X00083821Y00048441*
G37*
%LNpcb1-3*%
%LPD*%
G54D10*
X00061079Y-00001417D03*
Y-00009685D03*
X00029533Y00024096D03*
Y00015828D03*
X00059534Y00026096D03*
Y00017828D03*
G54D11*
X00017653Y00039402D03*
Y00046882D03*
X00081653Y00044882D03*
Y00037402D03*
X00069152Y00017785D03*
Y00010305D03*
X00019152Y00015785D03*
Y00008305D03*
X00050036Y-00009506D03*
Y-00002026D03*
X00071472Y-00009142D03*
Y-00016622D03*
G54D12*
X00031528Y-00005766D03*
X00040543Y-00009506D03*
Y-00002026D03*
G54D13*
X00028534Y00071678D03*
X00038533D03*
Y00036245D03*
X00028534D03*
X00060533Y00071678D03*
X00070534D03*
Y00036245D03*
X00060533D03*
G54D14*
X00050295Y-00009766D02*
X00070848D01*
X00071472Y-00009142*
X00092992Y00043268D02*
Y00049213D01*
X00087126Y00037402D02*
X00092992Y00043268D01*
X00081653Y00037402D02*
X00087126D01*
X00014102Y00046882D02*
X00034181D01*
X00005866Y00055118D02*
X00014102Y00046882D01*
X00005472Y00055118D02*
X00005866D01*
X00038533Y00036245D02*
Y00042529D01*
X00034181Y00046882D02*
X00038533Y00042529D01*
X0007073Y00036718D02*
X00080694D01*
X00070534Y00036245D02*
X00070591Y00036188D01*
Y00027165D02*
Y00036188D01*
X00038533Y000306D02*
Y00036245D01*
X00059534Y00026096D02*
Y00035245D01*
X00029533Y00024096D02*
Y00035245D01*
X00059534Y00017828D02*
X0006911D01*
X00069152Y00017785*
X00040543Y-00002026D02*
X00050036D01*
X00040543Y-00009506D02*
X00050036D01*
X00050295Y-00009766*
X00031528Y00003654D02*
X0004052Y00012646D01*
X00031528Y-00005766D02*
Y00003654D01*
X00048425Y00010787D02*
X0006867D01*
X00069152Y00010305*
X00019196Y00015828D02*
X00029533D01*
X0004052Y00012646D02*
Y00022291D01*
X00000787Y-00028858D02*
Y-00021042D01*
X00019152Y-00002677*
Y00008305*
X00071653Y-00028858D02*
Y-00016417D01*
G54D15*
X00060533Y00071678D02*
Y0008797D01*
X00048765Y00099739D02*
X00060533Y0008797D01*
X00048765Y00099739D02*
Y00111334D01*
X00070534Y00070258D02*
Y00071678D01*
X00028534D02*
Y00093022D01*
X00036953Y00101442*
Y00111334*
G54D16*
X00059534Y00035245D02*
X00060533Y00036245D01*
G54D17*
X00099291Y-00000236D02*
Y00001076D01*
Y0000042*
X00095356*
X00096012Y-00000236*
X00099291Y00003044D02*
X00098635D01*
Y000037*
X00099291*
Y00003044*
Y00006323D02*
Y00007635D01*
Y00006979*
X00095356*
X00096012Y00006323*
X00095356Y-00012953D02*
X00097979D01*
X00099291Y-00011641*
X00097979Y-00010329*
X00095356*
X00099291Y-00007049D02*
Y-00008361D01*
X00098635Y-00009017*
X00097324*
X00096667Y-00008361*
Y-00007049*
X00097324Y-00006393*
X00097979*
Y-00009017*
X00096667Y-00005081D02*
X00099291D01*
X00097979*
X00097324Y-00004425*
X00096667Y-00003769*
Y-00003113*
X00088033Y-00012795D02*
X00091969D01*
Y-00010827*
X00091312Y-00010171*
X00090657*
X00090001Y-00010827*
Y-00012795*
Y-00010827*
X00089345Y-00010171*
X00088689*
X00088033Y-00010827*
Y-00012795*
Y-0000886D02*
X00091969D01*
X00090657*
X00088033Y-00006236*
X00090001Y-00008204*
X00091969Y-00006236*
X00088033Y-00004016D02*
Y-00001392D01*
Y-00002704*
X00091969*
Y00001888D02*
Y00000576D01*
X00091312Y-0000008*
X00090001*
X00089345Y00000576*
Y00001888*
X00090001Y00002544*
X00090657*
Y-0000008*
X00091969Y00003856D02*
Y00005168D01*
Y00004512*
X00088033*
Y00003856*
X00091969Y00009103D02*
Y00007791D01*
X00091312Y00007136*
X00090001*
X00089345Y00007791*
Y00009103*
X00090001Y00009759*
X00090657*
Y00007136*
X00091969Y00011071D02*
X00089345D01*
Y00011727*
X00090001Y00012383*
X00091969*
X00090001*
X00089345Y00013039*
X00090001Y00013695*
X00091969*
X00089345Y00015663D02*
Y00016975D01*
X00090001Y00017631*
X00091969*
Y00015663*
X00091312Y00015007*
X00090657Y00015663*
Y00017631*
X00088689Y00019599D02*
X00089345D01*
Y00018943*
Y00020255*
Y00019599*
X00091312*
X00091969Y00020255*
Y00022222D02*
Y00023534D01*
Y00022878*
X00089345*
Y00022222*
Y00028126D02*
Y00026158D01*
X00090001Y00025502*
X00091312*
X00091969Y00026158*
Y00028126*
Y00029438D02*
Y00031406D01*
X00091312Y00032062*
X00090657Y00031406*
Y00030094*
X00090001Y00029438*
X00089345Y00030094*
Y00032062*
G54D18*
X00093386Y00059213D03*
X00092992Y00049213D03*
X00005472Y00045118D03*
X00005866Y00055118D03*
X0004052Y00091189D03*
Y00022291D03*
G54D19*
X00000787Y-00028858D03*
X00012598D03*
X00024409D03*
X0003622D03*
X00036953Y00111334D03*
X00048765D03*
X00060576D03*
X00071653Y-00028858D03*
X00059842D03*
X00048031D03*
G54D20*
X0009941Y00012756D03*
X00070591Y00027165D03*
X00048583Y-00043583D03*
X00026693D03*
X00038533Y000306D03*
X00048425Y00010787D03*
X-00006142Y-00043583D03*
X00004803D03*
X00015748D03*
X00037638D03*
X00059527D03*
X00070472D03*
X00082323Y-00018976D03*
X00094606Y-00018386D03*
X0009941Y00021102D03*
Y00031142D03*
Y00043819D03*
Y00054488D03*
Y00066614D03*
Y00090472D03*
Y00100564D03*
Y00110656D03*
Y00120748D03*
X00020118Y00122362D03*
X00018661Y00109606D03*
X0000685Y00096693D03*
X-00007165D03*
Y00079528D03*
Y00063386D03*
Y00025709D03*
Y0004374D03*
Y00009055D03*
X00078386Y00001221D03*
X00068268Y00001417D03*
X00049724Y00030748D03*
X00050276Y00053543D03*
X00036457Y00055748D03*
X-00007165Y-00011732D03*
X00070118Y00064488D03*
X00070197Y00078858D03*
X00077756Y00071496D03*
X00079449Y00027756D03*
X0007Y00042756D03*
X00045551Y00035906D03*
Y00071299D03*
X0003874Y00078031D03*
X00038819Y00064685D03*
X00059173Y00102874D03*
M02*