%FSTAX36Y36*%
%MOIN*%
%SFA1B1*%

%IPPOS*%
%ADD17C,0.007870*%
%ADD21C,0.010000*%
%ADD22C,0.005000*%
%ADD23C,0.001580*%
%ADD24C,0.005910*%
%LNpcb1-1*%
%LPD*%
G54D17*
X00043701Y-00024055D02*
Y-00021654D01*
X00041653Y-00024094D02*
Y-00021654D01*
X00059504Y-00006732D02*
X0006226D01*
X00060016Y-00004724D02*
X00060831Y-00006278D01*
X00061752Y-00004743*
X00060016Y-00004724D02*
X00061787D01*
X00060843Y-00005236D02*
X00061752Y-00004743D01*
X00063992Y-00012638D02*
Y00001732D01*
X00058165Y-00012638D02*
X00063992D01*
X00058165Y00001732D02*
X00063992D01*
X00058165Y-00012638D02*
Y00001732D01*
X00018465Y-00024331D02*
Y-00021929D01*
X00043319Y-00012459D02*
Y0000073D01*
X00028713D02*
X00043319D01*
X00028713Y-00012459D02*
Y0000073D01*
Y-00012459D02*
X0004328D01*
X00027959Y00018781D02*
X00030715D01*
X00028471Y00020788D02*
X00029286Y00019235D01*
X00030207Y0002077*
X00028471Y00020788D02*
X00030242D01*
X00029297Y00020277D02*
X00030207Y0002077D01*
X00032447Y00012875D02*
Y00027245D01*
X0002662Y00012875D02*
X00032447D01*
X0002662Y00027245D02*
X00032447D01*
X0002662Y00012875D02*
Y00027245D01*
X00057959Y00020781D02*
X00060715D01*
X00058471Y00022788D02*
X00059286Y00021235D01*
X00060207Y0002277*
X00058471Y00022788D02*
X00060242D01*
X00059297Y00022277D02*
X00060207Y0002277D01*
X00062447Y00014875D02*
Y00029245D01*
X0005662Y00014875D02*
X00062447D01*
X0005662Y00029245D02*
X00062447D01*
X0005662Y00014875D02*
Y00029245D01*
X-00004803Y-00024488D02*
Y-00021654D01*
X00041653*
X00043701D02*
X00076653D01*
Y-00023937D02*
Y-00021654D01*
X00059213Y00121339D02*
X00062244D01*
X00059646Y00120158D02*
X00061732D01*
X00060236Y00119016D02*
X00061102D01*
X00011037Y-00036772D02*
X00014068D01*
X0001147Y-00037953D02*
X00013556D01*
X0001206Y-00039094D02*
X00012927D01*
X00035669Y-00039291D02*
X00036535D01*
X00035079Y-0003815D02*
X00037165D01*
X00034646Y-00036968D02*
X00037677D01*
X00058228Y-00036929D02*
X0006126D01*
X00058661Y-0003811D02*
X00060748D01*
X00059252Y-00039252D02*
X00060118D01*
X00035945Y00118661D02*
Y00121285D01*
X00037257Y00122597*
X00038569Y00121285*
Y00118661*
Y00120629*
X00035945*
X0004815Y0012244D02*
Y00118504D01*
X00050117*
X00050773Y0011916*
Y00119816*
X00050117Y00120472*
X0004815*
X00050117*
X00050773Y00121128*
Y00121784*
X00050117Y0012244*
X0004815*
X00044134Y-00038386D02*
X00046758D01*
X00045446Y-00037075D02*
Y-00039698D01*
X0004807Y-00036419D02*
Y-00039042D01*
X00049382Y-00040354*
X00050693Y-00039042*
Y-00036419*
X0006874Y-00036497D02*
X00070052D01*
X00069396*
Y-00040433*
X0006874*
X00070052*
X0007202D02*
Y-00036497D01*
X00074644Y-00040433*
Y-00036497*
X00023583Y-00036419D02*
Y-00040354D01*
X0002555*
X00026206Y-00039698*
Y-00039042*
X0002555Y-00038386*
X00023583*
X0002555*
X00026206Y-00037731*
Y-00037075*
X0002555Y-00036419*
X00023583*
X-0000063Y-00040197D02*
Y-00037573D01*
X00000682Y-00036261*
X00001994Y-00037573*
Y-00040197*
Y-00038229*
X-0000063*
X00051653Y-00015828D02*
Y-00019764D01*
X00053621*
X00054277Y-00019108*
Y-00018452*
X00053621Y-00017796*
X00051653*
X00053621*
X00054277Y-0001714*
Y-00016484*
X00053621Y-00015828*
X00051653*
X00055589D02*
Y-00019108D01*
X00056245Y-00019764*
X00057557*
X00058213Y-00019108*
Y-00015828*
X00059525D02*
X00062149D01*
Y-00016484*
X00059525Y-00019108*
Y-00019764*
X00062149*
X00063461Y-00015828D02*
X00066085D01*
Y-00016484*
X00063461Y-00019108*
Y-00019764*
X00066085*
X0007002Y-00015828D02*
X00067396D01*
Y-00019764*
X0007002*
X00067396Y-00017796D02*
X00068708D01*
X00071332Y-00019764D02*
Y-00015828D01*
X000733*
X00073956Y-00016484*
Y-00017796*
X000733Y-00018452*
X00071332*
X00072644D02*
X00073956Y-00019764D01*
X00002398Y-00015496D02*
X0000371D01*
X00003054*
Y-00019432*
X00002398*
X0000371*
X00005678D02*
Y-00015496D01*
X00008302Y-00019432*
Y-00015496*
X00009613Y-00019432D02*
Y-00015496D01*
X00011581*
X00012237Y-00016152*
Y-00017464*
X00011581Y-0001812*
X00009613*
X00013549Y-00015496D02*
Y-00018776D01*
X00014205Y-00019432*
X00015517*
X00016173Y-00018776*
Y-00015496*
X00017485D02*
X00020109D01*
X00018797*
Y-00019432*
X00024044Y-00016152D02*
X00023389Y-00015496D01*
X00022077*
X00021421Y-00016152*
Y-00016808*
X00022077Y-00017464*
X00023389*
X00024044Y-0001812*
Y-00018776*
X00023389Y-00019432*
X00022077*
X00021421Y-00018776*
X00073503Y00114054D02*
X00072191D01*
X00071535Y00113398*
Y00110774*
X00072191Y00110118*
X00073503*
X00074159Y00110774*
Y00113398*
X00073503Y00114054*
X00075471D02*
Y00110774D01*
X00076127Y00110118*
X00077439*
X00078095Y00110774*
Y00114054*
X00079407D02*
X00082031D01*
X00080719*
Y00110118*
X00083343D02*
Y00114054D01*
X00085311*
X00085966Y00113398*
Y00112086*
X00085311Y0011143*
X00083343*
X00087278Y00114054D02*
Y00110774D01*
X00087934Y00110118*
X00089246*
X00089902Y00110774*
Y00114054*
X00091214D02*
X00093838D01*
X00092526*
Y00110118*
X00097774Y00113398D02*
X00097118Y00114054D01*
X00095806*
X0009515Y00113398*
Y00112742*
X00095806Y00112086*
X00097118*
X00097774Y0011143*
Y00110774*
X00097118Y00110118*
X00095806*
X0009515Y00110774*
G54D21*
X00027033Y00041462D02*
D01*
X000270317Y000414968*
X000270281Y000415315*
X00027022Y000415659*
X000270136Y000415998*
X000270028Y00041633*
X000269897Y000416653*
X000269744Y000416967*
X00026957Y000417269*
X000269375Y000417558*
X00026916Y000417833*
X000268926Y000418093*
X000268675Y000418335*
X000268408Y00041856*
X000268125Y000418765*
X00026783Y00041895*
X000267521Y000419113*
X000267203Y000419255*
X000266875Y000419375*
X000266539Y000419471*
X000266198Y000419544*
X000265852Y000419592*
X000265504Y000419616*
X000265155*
X000264807Y000419592*
X000264461Y000419544*
X00026412Y000419471*
X000263784Y000419375*
X000263456Y000419255*
X000263138Y000419113*
X00026283Y00041895*
X000262534Y000418765*
X000262251Y00041856*
X000261984Y000418335*
X000261733Y000418093*
X000261499Y000417833*
X000261284Y000417558*
X000261089Y000417269*
X000260915Y000416967*
X000260762Y000416653*
X000260631Y00041633*
X000260523Y000415998*
X000260439Y000415659*
X000260378Y000415315*
X000260342Y000414968*
X00026033Y00041462*
X000260342Y000414271*
X000260378Y000413924*
X000260439Y00041358*
X000260523Y000413241*
X000260631Y000412909*
X000260762Y000412586*
X000260915Y000412272*
X000261089Y00041197*
X000261284Y000411681*
X000261499Y000411406*
X000261733Y000411146*
X000261984Y000410904*
X000262251Y000410679*
X000262534Y000410474*
X00026283Y000410289*
X000263138Y000410126*
X000263456Y000409984*
X000263784Y000409864*
X00026412Y000409768*
X000264461Y000409695*
X000264807Y000409647*
X000265155Y000409623*
X000265504*
X000265852Y000409647*
X000266198Y000409695*
X000266539Y000409768*
X000266875Y000409864*
X000267203Y000409984*
X000267521Y000410126*
X00026783Y000410289*
X000268125Y000410474*
X000268408Y000410679*
X000268675Y000410904*
X000268926Y000411146*
X00026916Y000411406*
X000269375Y000411681*
X00026957Y00041197*
X000269744Y000412272*
X000269897Y000412586*
X000270028Y000412909*
X000270136Y000413241*
X00027022Y00041358*
X000270281Y000413924*
X000270317Y000414271*
X00027033Y00041462*
X00059034D02*
D01*
X000590327Y000414968*
X000590291Y000415315*
X00059023Y000415659*
X000590146Y000415998*
X000590038Y00041633*
X000589907Y000416653*
X000589754Y000416967*
X00058958Y000417269*
X000589385Y000417558*
X00058917Y000417833*
X000588936Y000418093*
X000588685Y000418335*
X000588418Y00041856*
X000588135Y000418765*
X00058784Y00041895*
X000587531Y000419113*
X000587213Y000419255*
X000586885Y000419375*
X000586549Y000419471*
X000586208Y000419544*
X000585862Y000419592*
X000585514Y000419616*
X000585165*
X000584817Y000419592*
X000584471Y000419544*
X00058413Y000419471*
X000583794Y000419375*
X000583466Y000419255*
X000583148Y000419113*
X00058284Y00041895*
X000582544Y000418765*
X000582261Y00041856*
X000581994Y000418335*
X000581743Y000418093*
X000581509Y000417833*
X000581294Y000417558*
X000581099Y000417269*
X000580925Y000416967*
X000580772Y000416653*
X000580641Y00041633*
X000580533Y000415998*
X000580449Y000415659*
X000580388Y000415315*
X000580352Y000414968*
X00058034Y00041462*
X000580352Y000414271*
X000580388Y000413924*
X000580449Y00041358*
X000580533Y000413241*
X000580641Y000412909*
X000580772Y000412586*
X000580925Y000412272*
X000581099Y00041197*
X000581294Y000411681*
X000581509Y000411406*
X000581743Y000411146*
X000581994Y000410904*
X000582261Y000410679*
X000582544Y000410474*
X00058284Y000410289*
X000583148Y000410126*
X000583466Y000409984*
X000583794Y000409864*
X00058413Y000409768*
X000584471Y000409695*
X000584817Y000409647*
X000585165Y000409623*
X000585514*
X000585862Y000409647*
X000586208Y000409695*
X000586549Y000409768*
X000586885Y000409864*
X000587213Y000409984*
X000587531Y000410126*
X00058784Y000410289*
X000588135Y000410474*
X000588418Y000410679*
X000588685Y000410904*
X000588936Y000411146*
X00058917Y000411406*
X000589385Y000411681*
X00058958Y00041197*
X000589754Y000412272*
X000589907Y000412586*
X000590038Y000412909*
X000590146Y000413241*
X00059023Y00041358*
X000590291Y000413924*
X000590327Y000414271*
X00059034Y00041462*
G54D22*
X00024034Y00038745D02*
X00042533D01*
Y00068745*
X00024034Y00038745D02*
Y00068745D01*
X00042533*
X00056033Y00038745D02*
X00074533D01*
Y00068745*
X00056033Y00038745D02*
Y00068745D01*
X00074533*
G54D23*
X00024034Y00046245D02*
Y00057745D01*
X00056033Y00046245D02*
Y00057745D01*
G54D24*
X00057087Y00007282D02*
Y00004134D01*
X00058661*
X00059186Y00004659*
Y00006758*
X00058661Y00007282*
X00057087*
X00060235Y00006758D02*
X0006076Y00007282D01*
X00061809*
X00062334Y00006758*
Y00006233*
X00061809Y00005708*
X00061285*
X00061809*
X00062334Y00005183*
Y00004659*
X00061809Y00004134*
X0006076*
X00060235Y00004659*
X0008937Y00038268D02*
X00086221D01*
Y00039842*
X00086746Y00040367*
X00087796*
X00088321Y00039842*
Y00038268*
Y00039317D02*
X0008937Y00040367D01*
X00086221Y00043515D02*
X00086746Y00042466D01*
X00087796Y00041416*
X00088845*
X0008937Y00041941*
Y00042991*
X00088845Y00043515*
X00088321*
X00087796Y00042991*
Y00041416*
X00007795Y00038425D02*
Y00041574D01*
X0000937*
X00009894Y00041049*
Y00039999*
X0000937Y00039475*
X00007795*
X00008845D02*
X00009894Y00038425D01*
X00013043Y00041574D02*
X00010944D01*
Y00039999*
X00011993Y00040524*
X00012518*
X00013043Y00039999*
Y0003895*
X00012518Y00038425*
X00011469*
X00010944Y0003895*
X00022716Y-00000395D02*
X00024816D01*
X00023766*
Y-00003543*
X00025865D02*
X00026915D01*
X0002639*
Y-00000395*
X00025865Y-00000919*
X00048071Y00003347D02*
Y00006495D01*
X00049645*
X0005017Y0000597*
Y00004921*
X00049645Y00004396*
X00048071*
X0004912D02*
X0005017Y00003347D01*
X00052794D02*
Y00006495D01*
X00051219Y00004921*
X00053319*
X00076593Y-0001002D02*
X00079742D01*
Y-00011594*
X00079217Y-00012119*
X00078167*
X00077643Y-00011594*
Y-0001002*
Y-00011069D02*
X00076593Y-00012119D01*
X00079217Y-00013168D02*
X00079742Y-00013693D01*
Y-00014742*
X00079217Y-00015267*
X00078692*
X00078167Y-00014742*
Y-00014218*
Y-00014742*
X00077643Y-00015267*
X00077118*
X00076593Y-00014742*
Y-00013693*
X00077118Y-00013168*
X00077126Y00009055D02*
X00073977D01*
Y00010629*
X00074502Y00011154*
X00075552*
X00076077Y00010629*
Y00009055*
Y00010105D02*
X00077126Y00011154D01*
Y00014303D02*
Y00012204D01*
X00075027Y00014303*
X00074502*
X00073977Y00013778*
Y00012729*
X00074502Y00012204*
X00014423Y00007667D02*
X00011274D01*
Y00009241*
X00011799Y00009766*
X00012848*
X00013373Y00009241*
Y00007667*
Y00008716D02*
X00014423Y00009766D01*
Y00010815D02*
Y00011865D01*
Y0001134*
X00011274*
X00011799Y00010815*
X00076537Y00053543D02*
Y00052493D01*
X00077061Y00051968*
X0007916*
X00079685Y00052493*
Y00053543*
X0007916Y00054068*
X00077061*
X00076537Y00053543*
X00079685Y00055117D02*
X00076537D01*
Y00056691*
X00077061Y00057216*
X00078111*
X00078636Y00056691*
Y00055117*
X00076537Y00058266D02*
Y00060365D01*
Y00059315*
X00079685*
X00076537Y00062989D02*
Y00061939D01*
X00077061Y00061414*
X0007916*
X00079685Y00061939*
Y00062989*
X0007916Y00063513*
X00077061*
X00076537Y00062989*
X00079685Y00066662D02*
Y00064563D01*
X00077586Y00066662*
X00077061*
X00076537Y00066137*
Y00065088*
X00077061Y00064563*
X00018741Y0005496D02*
Y00053911D01*
X00019266Y00053386*
X00021365*
X0002189Y00053911*
Y0005496*
X00021365Y00055485*
X00019266*
X00018741Y0005496*
X0002189Y00056534D02*
X00018741D01*
Y00058109*
X00019266Y00058634*
X00020315*
X0002084Y00058109*
Y00056534*
X00018741Y00059683D02*
Y00061782D01*
Y00060733*
X0002189*
X00018741Y00064406D02*
Y00063356D01*
X00019266Y00062832*
X00021365*
X0002189Y00063356*
Y00064406*
X00021365Y00064931*
X00019266*
X00018741Y00064406*
X0002189Y0006598D02*
Y0006703D01*
Y00066505*
X00018741*
X00019266Y0006598*
X00049567Y00023936D02*
Y00020787D01*
X00051141*
X00051666Y00021312*
Y00023411*
X00051141Y00023936*
X00049567*
X00054815Y00020787D02*
X00052715D01*
X00054815Y00022886*
Y00023411*
X0005429Y00023936*
X0005324*
X00052715Y00023411*
X00019961Y00024133D02*
Y00020984D01*
X00021535*
X0002206Y00021509*
Y00023608*
X00021535Y00024133*
X00019961*
X00023109Y00020984D02*
X00024159D01*
X00023634*
Y00024133*
X00023109Y00023608*
M02*