%FSTAX36Y36*%
%MOIN*%
%SFA1B1*%

%IPPOS*%
%ADD25R,0.043430X0.043430*%
%ADD26R,0.067060X0.059180*%
%ADD27R,0.039500X0.039500*%
%ADD28R,0.067060X0.059180*%
%ADD29C,0.078870*%
%ADD30C,0.106420*%
%ADD31C,0.008000*%
%LNpcb1-1*%
%LPD*%
G54D25*
X00061079Y-00001417D03*
Y-00009685D03*
X00029533Y00024096D03*
Y00015828D03*
X00059534Y00026096D03*
Y00017828D03*
G54D26*
X00017653Y00039402D03*
Y00046882D03*
X00081653Y00044882D03*
Y00037402D03*
X00069152Y00017785D03*
Y00010305D03*
X00019152Y00015785D03*
Y00008305D03*
X00050036Y-00009506D03*
Y-00002026D03*
X00071472Y-00009142D03*
Y-00016622D03*
G54D27*
X00031528Y-00005766D03*
X00040543Y-00009506D03*
Y-00002026D03*
G54D28*
X00028534Y00071678D03*
X00038533D03*
Y00036245D03*
X00028534D03*
X00060533Y00071678D03*
X00070534D03*
Y00036245D03*
X00060533D03*
G54D29*
X00093386Y00059213D03*
X00092992Y00049213D03*
X00005472Y00045118D03*
X00005866Y00055118D03*
X0004052Y00091189D03*
Y00022291D03*
G54D30*
X00000787Y-00028858D03*
X00012598D03*
X00024409D03*
X0003622D03*
X00036953Y00111334D03*
X00048765D03*
X00060576D03*
X00071653Y-00028858D03*
X00059842D03*
X00048031D03*
G54D31*
X0009252Y0007874D03*
X0Y0D03*
M02*