%FSTAX36Y36*%
%MOIN*%
%SFA1B1*%

%IPPOS*%
%ADD23C,0.001580*%
%LNpcb1-1*%
%LPD*%
G54D23*
X00091417Y00059213D02*
X00095354D01*
X00093386Y00057244D02*
Y00061181D01*
X00091024Y00049213D02*
X00094961D01*
X00092992Y00047244D02*
Y00051181D01*
X00003504Y00045118D02*
X00007441D01*
X00005472Y0004315D02*
Y00047087D01*
X00003898Y00055118D02*
X00007835D01*
X00005866Y0005315D02*
Y00057087D01*
X-00002165Y-00028858D02*
X0000374D01*
X00000787Y-00031811D02*
Y-00025905D01*
X00009646Y-00028858D02*
X00015551D01*
X00012598Y-00031811D02*
Y-00025905D01*
X00021457Y-00028858D02*
X00027362D01*
X00024409Y-00031811D02*
Y-00025905D01*
X00033268Y-00028858D02*
X00039173D01*
X0003622Y-00031811D02*
Y-00025905D01*
X00034001Y00111334D02*
X00039906D01*
X00036953Y00108381D02*
Y00114286D01*
X00045812Y00111334D02*
X00051717D01*
X00048765Y00108381D02*
Y00114286D01*
X00057623Y00111334D02*
X00063528D01*
X00060576Y00108381D02*
Y00114286D01*
X00068701Y-00028858D02*
X00074606D01*
X00071653Y-00031811D02*
Y-00025905D01*
X0005689Y-00028858D02*
X00062795D01*
X00059842Y-00031811D02*
Y-00025905D01*
X00045079Y-00028858D02*
X00050984D01*
X00048031Y-00031811D02*
Y-00025905D01*
X00038748Y00091189D02*
X00042291D01*
X0004052Y00089417D02*
Y00092961D01*
X00038748Y00022291D02*
X00042291D01*
X0004052Y0002052D02*
Y00024063D01*
X00086614Y0007874D02*
X00098425D01*
X0009252Y00072835D02*
Y00084646D01*
X-00005906Y0D02*
X00005906D01*
X0Y-00005906D02*
Y00005906D01*
X00098425Y00012756D02*
X00100394D01*
X0009941Y00011772D02*
Y0001374D01*
X00069606Y00027165D02*
X00071575D01*
X00070591Y00026181D02*
Y0002815D01*
X00047598Y-00043583D02*
X00049567D01*
X00048583Y-00044567D02*
Y-00042598D01*
X00025709Y-00043583D02*
X00027677D01*
X00026693Y-00044567D02*
Y-00042598D01*
X00037549Y000306D02*
X00039518D01*
X00038533Y00029616D02*
Y00031585D01*
X00047441Y00010787D02*
X00049409D01*
X00048425Y00009803D02*
Y00011772D01*
X-00007126Y-00043583D02*
X-00005158D01*
X-00006142Y-00044567D02*
Y-00042598D01*
X00003819Y-00043583D02*
X00005787D01*
X00004803Y-00044567D02*
Y-00042598D01*
X00014764Y-00043583D02*
X00016732D01*
X00015748Y-00044567D02*
Y-00042598D01*
X00036654Y-00043583D02*
X00038622D01*
X00037638Y-00044567D02*
Y-00042598D01*
X00058543Y-00043583D02*
X00060512D01*
X00059527Y-00044567D02*
Y-00042598D01*
X00069488Y-00043583D02*
X00071457D01*
X00070472Y-00044567D02*
Y-00042598D01*
X00081339Y-00018976D02*
X00083307D01*
X00082323Y-00019961D02*
Y-00017992D01*
X00093622Y-00018386D02*
X00095591D01*
X00094606Y-0001937D02*
Y-00017402D01*
X00098425Y00021102D02*
X00100394D01*
X0009941Y00020118D02*
Y00022087D01*
X00098425Y00031142D02*
X00100394D01*
X0009941Y00030158D02*
Y00032126D01*
X00098425Y00043819D02*
X00100394D01*
X0009941Y00042835D02*
Y00044803D01*
X00098425Y00054488D02*
X00100394D01*
X0009941Y00053504D02*
Y00055472D01*
X00098425Y00066614D02*
X00100394D01*
X0009941Y0006563D02*
Y00067598D01*
X00098425Y00090472D02*
X00100394D01*
X0009941Y00089488D02*
Y00091457D01*
X00098425Y00100564D02*
X00100394D01*
X0009941Y0009958D02*
Y00101549D01*
X00098425Y00110656D02*
X00100394D01*
X0009941Y00109672D02*
Y0011164D01*
X00098425Y00120748D02*
X00100394D01*
X0009941Y00119764D02*
Y00121732D01*
X00019134Y00122362D02*
X00021102D01*
X00020118Y00121378D02*
Y00123346D01*
X00017677Y00109606D02*
X00019646D01*
X00018661Y00108622D02*
Y00110591D01*
X00005866Y00096693D02*
X00007835D01*
X0000685Y00095709D02*
Y00097677D01*
X-0000815Y00096693D02*
X-00006181D01*
X-00007165Y00095709D02*
Y00097677D01*
X-0000815Y00079528D02*
X-00006181D01*
X-00007165Y00078543D02*
Y00080512D01*
X-0000815Y00063386D02*
X-00006181D01*
X-00007165Y00062402D02*
Y0006437D01*
X-0000815Y00025709D02*
X-00006181D01*
X-00007165Y00024724D02*
Y00026693D01*
X-0000815Y0004374D02*
X-00006181D01*
X-00007165Y00042756D02*
Y00044724D01*
X-0000815Y00009055D02*
X-00006181D01*
X-00007165Y00008071D02*
Y00010039D01*
X00077402Y00001221D02*
X0007937D01*
X00078386Y00000236D02*
Y00002205D01*
X00067283Y00001417D02*
X00069252D01*
X00068268Y00000433D02*
Y00002402D01*
X0004874Y00030748D02*
X00050709D01*
X00049724Y00029764D02*
Y00031732D01*
X00049291Y00053543D02*
X0005126D01*
X00050276Y00052559D02*
Y00054528D01*
X00035472Y00055748D02*
X00037441D01*
X00036457Y00054764D02*
Y00056732D01*
X-0000815Y-00011732D02*
X-00006181D01*
X-00007165Y-00012717D02*
Y-00010748D01*
X00069134Y00064488D02*
X00071102D01*
X00070118Y00063504D02*
Y00065472D01*
X00069213Y00078858D02*
X00071181D01*
X00070197Y00077874D02*
Y00079843D01*
X00076772Y00071496D02*
X0007874D01*
X00077756Y00070512D02*
Y0007248D01*
X00078465Y00027756D02*
X00080433D01*
X00079449Y00026772D02*
Y0002874D01*
X00069016Y00042756D02*
X00070984D01*
X0007Y00041772D02*
Y0004374D01*
X00044567Y00035906D02*
X00046535D01*
X00045551Y00034921D02*
Y0003689D01*
X00044567Y00071299D02*
X00046535D01*
X00045551Y00070315D02*
Y00072284D01*
X00037756Y00078031D02*
X00039724D01*
X0003874Y00077047D02*
Y00079016D01*
X00037835Y00064685D02*
X00039803D01*
X00038819Y00063701D02*
Y00065669D01*
X00058189Y00102874D02*
X00060158D01*
X00059173Y0010189D02*
Y00103858D01*
M02*