M48
; DRILL file {KiCad 9.0.2} date 2025-07-14T16:58:04+0300
; FORMAT={-:-/ absolute / metric / decimal}
; #@! TF.CreationDate,2025-07-14T16:58:04+03:00
; #@! TF.GenerationSoftware,Kicad,Pcbnew,9.0.2
; #@! TF.FileFunction,Plated,1,4,PTH
FMAT,2
METRIC
; #@! TA.AperFunction,Plated,PTH,ViaDrill
T1C0.300
; #@! TA.AperFunction,Plated,PTH,ComponentDrill
T2C0.600
; #@! TA.AperFunction,Plated,PTH,ComponentDrill
T3C1.000
; #@! TA.AperFunction,Plated,PTH,ComponentDrill
T4C1.500
%
G90
G05
T1
X57.77Y-43.785
X57.77Y-45.45
X57.77Y-47.116
X57.77Y-48.781
X57.77Y-50.447
X57.77Y-52.112
X57.77Y-53.778
X57.77Y-55.443
X57.77Y-57.109
X57.77Y-58.774
X57.77Y-60.44
X57.77Y-62.105
X57.77Y-63.77
X57.77Y-68.767
X57.77Y-70.432
X57.77Y-72.098
X57.77Y-73.763
X57.77Y-75.429
X57.77Y-77.094
X57.77Y-78.76
X57.77Y-80.425
X57.77Y-82.091
X57.77Y-83.756
X57.77Y-85.422
X57.77Y-87.087
X57.77Y-88.753
X57.77Y-90.418
X57.77Y-92.084
X57.77Y-93.749
X57.77Y-95.415
X57.77Y-97.08
X57.77Y-98.745
X57.77Y-100.411
X57.77Y-102.076
X57.77Y-103.742
X57.77Y-105.407
X57.77Y-107.073
X57.77Y-108.738
X57.77Y-110.404
X57.77Y-112.069
X57.77Y-113.735
X58.89Y-113.74
X59.774Y-43.29
X60.555Y-113.74
X60.821Y-62.245
X61.439Y-43.29
X61.56Y-87.6
X62.168Y-66.633
X62.168Y-67.45
X62.19Y-96.68
X62.221Y-113.74
X62.446Y-61.22
X63.105Y-43.29
X63.189Y-67.45
X63.193Y-66.625
X63.196Y-61.22
X63.886Y-113.74
X63.921Y-53.795
X63.946Y-61.22
X64.021Y-56.795
X64.04Y-105.15
X64.24Y-96.68
X64.268Y-66.65
X64.31Y-67.45
X64.746Y-53.795
X64.77Y-43.29
X64.78Y-88.97
X64.846Y-56.795
X64.98Y-72.18
X64.98Y-73.06
X65.13Y-76.24
X65.35Y-82.89
X65.521Y-61.345
X65.552Y-113.74
X65.571Y-53.795
X65.671Y-56.795
X66.296Y-61.345
X66.396Y-53.795
X66.496Y-56.795
X66.555Y-43.29
X66.796Y-60.445
X66.821Y-59.77
X67.071Y-61.345
X67.217Y-113.74
X67.54Y-87.64
X67.625Y-70.075
X67.625Y-70.983
X67.625Y-71.917
X67.625Y-72.85
X67.846Y-59.045
X67.846Y-61.345
X68.13Y-96.68
X68.22Y-43.29
X68.617Y-70.075
X68.7Y-84.62
X68.883Y-113.74
X69.608Y-70.075
X69.686Y-48.595
X70.28Y-96.68
X70.473Y-43.29
X70.48Y-78.26
X70.548Y-113.74
X70.596Y-50.67
X70.6Y-70.075
X70.6Y-71.0
X70.6Y-71.925
X70.6Y-72.85
X70.621Y-49.895
X70.621Y-51.545
X70.73Y-88.93
X70.86Y-80.06
X70.95Y-105.17
X71.181Y-48.595
X71.45Y-80.69
X71.45Y-81.49
X71.45Y-82.425
X72.214Y-113.74
X72.574Y-43.3
X72.676Y-48.595
X72.996Y-57.745
X73.221Y-49.845
X73.296Y-50.77
X73.321Y-51.645
X73.48Y-87.63
X73.879Y-113.74
X74.11Y-96.68
X74.171Y-48.595
X74.239Y-43.3
X74.796Y-58.795
X74.796Y-59.57
X74.846Y-57.795
X75.5Y-49.525
X75.5Y-50.5
X75.5Y-51.475
X75.545Y-113.74
X75.905Y-43.3
X76.24Y-96.68
X76.45Y-48.65
X76.7Y-88.94
X76.946Y-64.19
X77.175Y-48.675
X77.21Y-113.74
X77.57Y-43.3
X77.81Y-105.14
X78.1Y-49.525
X78.1Y-50.5
X78.1Y-51.475
X78.6Y-43.31
X78.876Y-113.74
X79.41Y-87.64
X79.946Y-68.745
X80.05Y-96.68
X80.541Y-113.74
X80.671Y-64.37
X80.696Y-65.745
X81.321Y-68.72
X81.64Y-52.62
X81.671Y-54.825
X81.671Y-57.378
X81.671Y-59.932
X81.671Y-62.485
X81.671Y-65.038
X81.671Y-67.592
X82.18Y-96.68
X82.207Y-113.74
X82.66Y-88.95
X83.872Y-113.74
X84.69Y-105.15
X85.39Y-87.63
X85.538Y-113.74
X86.01Y-96.68
X87.203Y-113.74
X88.14Y-96.68
X88.63Y-88.94
X88.869Y-113.74
X89.3Y-43.27
X90.534Y-113.74
X91.05Y-82.925
X91.075Y-84.825
X91.22Y-68.55
X91.6Y-105.15
X91.76Y-73.85
X91.798Y-43.28
X92.2Y-113.74
X92.49Y-76.29
X92.68Y-75.4
X93.464Y-43.28
X93.865Y-113.74
X94.64Y-67.99
X94.96Y-69.73
X95.0Y-52.5
X95.0Y-55.0
X95.129Y-43.28
X95.45Y-81.0
X95.53Y-113.74
X96.3Y-77.38
X96.45Y-81.05
X96.628Y-72.864
X96.795Y-43.28
X97.196Y-113.74
X97.37Y-77.38
X97.42Y-72.98
X97.5Y-52.5
X97.5Y-55.0
X97.925Y-84.75
X98.47Y-105.14
X98.657Y-43.29
X98.861Y-113.74
X98.88Y-68.73
X99.03Y-74.545
X100.0Y-52.5
X100.0Y-55.0
X100.349Y-43.28
X100.527Y-113.74
X100.82Y-62.12
X101.29Y-69.17
X101.38Y-73.67
X101.416Y-74.469
X101.444Y-72.883
X101.53Y-66.66
X101.61Y-87.64
X101.69Y-64.54
X102.015Y-43.28
X102.192Y-113.74
X102.294Y-96.68
X102.335Y-61.235
X102.35Y-76.58
X102.5Y-52.5
X102.5Y-55.0
X102.55Y-82.3
X102.64Y-79.11
X103.68Y-43.28
X103.858Y-113.74
X104.4Y-65.76
X104.41Y-96.68
X104.41Y-69.29
X104.45Y-67.92
X104.73Y-74.13
X104.89Y-88.92
X105.345Y-43.28
X105.37Y-105.17
X105.523Y-113.74
X107.189Y-113.74
X107.208Y-43.29
X107.62Y-87.64
X108.233Y-96.68
X108.753Y-43.27
X108.994Y-113.64
X110.383Y-96.68
X110.418Y-43.27
X110.66Y-113.64
X110.76Y-64.23
X110.85Y-88.95
X111.47Y-53.02
X111.75Y-66.1
X112.084Y-43.27
X112.25Y-73.04
X112.26Y-105.13
X112.325Y-113.64
X112.34Y-48.46
X112.417Y-66.797
X112.501Y-76.552
X112.983Y-67.363
X113.335Y-79.15
X113.38Y-63.81
X113.39Y-65.27
X113.51Y-87.63
X113.59Y-45.22
X113.625Y-68.05
X113.74Y-73.05
X113.749Y-43.27
X113.81Y-76.55
X113.88Y-54.29
X113.991Y-113.64
X114.2Y-96.68
X114.8Y-48.43
X115.54Y-77.02
X115.612Y-43.28
X115.656Y-113.64
X115.8Y-62.76
X116.298Y-96.68
X116.81Y-88.95
X116.9Y-53.87
X116.91Y-64.42
X117.304Y-43.27
X117.322Y-113.64
X117.39Y-79.06
X117.44Y-48.39
X117.7Y-56.25
X117.91Y-65.42
X118.51Y-51.78
X118.53Y-56.27
X118.795Y-60.365
X118.969Y-43.27
X118.987Y-113.64
X119.13Y-105.15
X119.31Y-56.32
X119.5Y-87.6
X119.73Y-75.6
X119.745Y-50.865
X119.83Y-73.02
X120.132Y-96.68
X120.16Y-56.27
X120.38Y-81.44
X120.62Y-71.07
X120.635Y-43.27
X120.653Y-113.64
X120.78Y-51.73
X122.286Y-96.68
X122.3Y-43.27
X122.318Y-113.64
X122.465Y-64.035
X122.5Y-58.25
X122.75Y-88.95
X123.984Y-113.64
X123.99Y-43.32
X124.017Y-45.687
X124.017Y-47.353
X124.017Y-49.018
X124.017Y-50.684
X124.21Y-53.24
X125.45Y-87.64
X125.649Y-113.64
X125.875Y-53.24
X126.0Y-105.12
X126.09Y-96.68
X127.315Y-113.64
X127.541Y-53.24
X128.24Y-96.68
X128.7Y-88.92
X128.98Y-113.64
X129.206Y-53.24
X130.853Y-113.64
X130.872Y-53.24
X131.38Y-87.64
X132.07Y-96.68
X132.518Y-113.64
X132.708Y-53.19
X132.91Y-105.18
X134.17Y-96.68
X134.184Y-113.64
X134.374Y-53.19
X134.65Y-88.93
X135.25Y-65.0
X135.25Y-67.5
X135.849Y-113.64
X136.039Y-53.19
X137.31Y-87.64
X137.515Y-113.64
X137.705Y-53.19
X137.75Y-65.0
X137.75Y-67.5
X138.01Y-96.68
X139.18Y-113.64
X139.37Y-53.19
X139.8Y-105.15
X140.14Y-96.68
X140.25Y-65.0
X140.25Y-67.5
X140.61Y-88.97
X140.846Y-113.64
X140.976Y-43.56
X140.98Y-45.613
X140.98Y-47.278
X140.98Y-48.944
X140.98Y-50.609
X140.98Y-52.54
X142.511Y-113.64
X142.641Y-43.56
X142.75Y-65.0
X142.75Y-67.5
X143.32Y-87.62
X143.93Y-96.68
X144.177Y-113.64
X144.307Y-43.56
X145.842Y-113.64
X145.972Y-43.56
X146.09Y-96.68
X146.61Y-88.95
X146.67Y-105.13
X147.507Y-113.64
X147.637Y-43.56
X149.173Y-113.64
X149.303Y-43.56
X150.838Y-113.64
X150.968Y-43.56
X152.504Y-113.64
X152.634Y-43.56
X153.57Y-105.15
X154.169Y-113.64
X154.299Y-43.56
X155.835Y-113.64
X155.965Y-43.56
X156.81Y-87.65
X157.46Y-96.68
X157.5Y-113.64
X157.63Y-43.56
X159.166Y-113.64
X159.296Y-43.56
X159.59Y-96.68
X160.0Y-60.0
X160.0Y-62.5
X160.13Y-88.94
X160.45Y-105.15
X160.831Y-113.64
X160.961Y-43.56
X162.497Y-113.64
X162.5Y-60.0
X162.5Y-62.5
X162.627Y-43.56
X162.79Y-87.63
X163.42Y-96.68
X164.162Y-113.64
X164.292Y-43.56
X165.0Y-60.0
X165.0Y-62.5
X165.55Y-96.68
X165.828Y-113.64
X165.958Y-43.56
X166.05Y-88.94
X167.33Y-105.14
X167.493Y-113.64
X167.5Y-60.0
X167.5Y-62.5
X167.623Y-43.56
X168.74Y-87.64
X169.159Y-113.64
X169.289Y-43.56
X169.37Y-96.68
X170.824Y-113.64
X170.954Y-43.56
X171.53Y-96.68
X171.96Y-88.95
X172.49Y-113.64
X172.62Y-43.56
X174.155Y-113.64
X174.22Y-105.17
X174.285Y-43.56
X174.69Y-87.64
X175.32Y-96.68
X175.821Y-113.64
X175.951Y-43.56
X177.46Y-96.68
X177.486Y-113.64
X177.92Y-88.93
X179.152Y-113.64
X180.63Y-87.63
X180.817Y-113.64
X181.11Y-105.17
X181.27Y-96.68
X182.482Y-113.64
X182.5Y-67.5
X182.5Y-70.0
X183.42Y-96.68
X183.87Y-88.92
X184.148Y-113.64
X185.0Y-67.5
X185.0Y-70.0
X185.813Y-113.64
X185.943Y-43.56
X186.59Y-87.65
X187.19Y-96.68
X187.479Y-113.64
X187.5Y-67.5
X187.5Y-70.0
X187.609Y-43.56
X187.98Y-105.16
X189.144Y-113.64
X189.274Y-43.56
X189.38Y-96.68
X189.83Y-88.93
X190.0Y-67.5
X190.0Y-70.0
X190.81Y-113.64
X190.94Y-43.56
X192.475Y-113.64
X192.52Y-87.62
X192.605Y-43.56
X193.17Y-96.68
X194.085Y-113.64
X194.215Y-43.56
X194.87Y-105.16
X195.32Y-96.68
X195.75Y-113.64
X195.81Y-88.93
X195.88Y-43.56
X197.96Y-43.59
X197.96Y-45.255
X197.96Y-46.921
X197.96Y-48.586
X197.96Y-50.252
X197.96Y-51.917
X197.96Y-53.583
X197.96Y-55.248
X197.96Y-56.914
X197.96Y-58.579
X197.96Y-60.245
X197.96Y-61.91
X197.96Y-63.576
X197.96Y-65.241
X197.96Y-66.907
X197.96Y-68.572
X197.96Y-70.238
X197.96Y-71.903
X197.96Y-73.569
X197.96Y-75.234
X197.96Y-76.9
X197.96Y-78.565
X197.96Y-80.23
X197.96Y-81.896
X197.96Y-83.561
X197.96Y-85.227
X197.96Y-86.892
X197.96Y-88.558
X197.96Y-90.223
X197.96Y-91.889
X197.96Y-93.554
X197.96Y-95.22
X197.96Y-96.885
X197.96Y-98.551
X197.96Y-100.216
X197.96Y-101.882
X197.96Y-103.547
X197.96Y-105.213
X197.96Y-106.878
X197.96Y-108.544
X197.96Y-110.209
X197.96Y-111.875
X197.96Y-113.54
T3
X124.01Y-55.75
X124.01Y-58.29
X126.55Y-55.75
X126.55Y-58.29
X129.09Y-55.75
X129.09Y-58.29
X131.63Y-55.75
X131.63Y-58.29
X134.17Y-55.75
X134.17Y-58.29
X136.71Y-55.75
X136.71Y-58.29
X139.25Y-55.75
X139.25Y-58.29
X141.79Y-55.75
X141.79Y-58.29
X144.33Y-55.75
X144.33Y-58.29
X146.87Y-55.75
X146.87Y-58.29
T4
X61.37Y-45.68
X61.4Y-51.04
X61.848Y-109.04
X65.8Y-45.68
X65.8Y-51.04
X68.8Y-109.04
X75.751Y-109.04
X82.702Y-109.04
X89.653Y-109.04
X96.604Y-109.04
X103.555Y-109.04
X110.506Y-109.04
X117.458Y-109.04
X124.409Y-109.04
X131.36Y-109.04
X138.311Y-109.04
X145.262Y-109.04
X152.213Y-109.04
X159.164Y-109.04
X166.115Y-109.04
X173.067Y-109.04
X180.018Y-109.04
X186.969Y-109.04
X193.92Y-109.0
T2
G00X59.85Y-75.095
M15
G01X59.05Y-75.095
M16
G05
G00X59.85Y-83.735
M15
G01X59.05Y-83.735
M16
G05
G00X64.18Y-75.095
M15
G01X63.08Y-75.095
M16
G05
G00X64.18Y-83.735
M15
G01X63.08Y-83.735
M16
G05
M30
