%TF.GenerationSoftware,KiCad,Pcbnew,9.0.0*%
%TF.CreationDate,2025-05-13T11:15:22+03:00*%
%TF.ProjectId,light_sensor_rev_2,6c696768-745f-4736-956e-736f725f7265,rev?*%
%TF.SameCoordinates,Original*%
%TF.FileFunction,Legend,Bot*%
%TF.FilePolarity,Positive*%
%FSLAX46Y46*%
G04 Gerber Fmt 4.6, Leading zero omitted, Abs format (unit mm)*
G04 Created by KiCad (PCBNEW 9.0.0) date 2025-05-13 11:15:22*
%MOMM*%
%LPD*%
G01*
G04 APERTURE LIST*
%ADD10C,0.170000*%
G04 APERTURE END LIST*
D10*
X158684268Y-99452443D02*
X158684268Y-99052443D01*
X158055697Y-98881015D02*
X158055697Y-99452443D01*
X158055697Y-99452443D02*
X159255697Y-99452443D01*
X159255697Y-99452443D02*
X159255697Y-98881015D01*
X158202443Y-87719932D02*
X158031015Y-87777075D01*
X158031015Y-87777075D02*
X157973872Y-87834218D01*
X157973872Y-87834218D02*
X157916729Y-87948503D01*
X157916729Y-87948503D02*
X157916729Y-88119932D01*
X157916729Y-88119932D02*
X157973872Y-88234218D01*
X157973872Y-88234218D02*
X158031015Y-88291361D01*
X158031015Y-88291361D02*
X158145300Y-88348503D01*
X158145300Y-88348503D02*
X158602443Y-88348503D01*
X158602443Y-88348503D02*
X158602443Y-87148503D01*
X158602443Y-87148503D02*
X158202443Y-87148503D01*
X158202443Y-87148503D02*
X158088158Y-87205646D01*
X158088158Y-87205646D02*
X158031015Y-87262789D01*
X158031015Y-87262789D02*
X157973872Y-87377075D01*
X157973872Y-87377075D02*
X157973872Y-87491361D01*
X157973872Y-87491361D02*
X158031015Y-87605646D01*
X158031015Y-87605646D02*
X158088158Y-87662789D01*
X158088158Y-87662789D02*
X158202443Y-87719932D01*
X158202443Y-87719932D02*
X158602443Y-87719932D01*
X157402443Y-88348503D02*
X157402443Y-87148503D01*
X156716729Y-88348503D02*
X157231015Y-87662789D01*
X156716729Y-87148503D02*
X157402443Y-87834218D01*
X155459586Y-87148503D02*
X154773872Y-87148503D01*
X155116729Y-88348503D02*
X155116729Y-87148503D01*
X153916728Y-88291361D02*
X154031014Y-88348503D01*
X154031014Y-88348503D02*
X154259586Y-88348503D01*
X154259586Y-88348503D02*
X154373871Y-88291361D01*
X154373871Y-88291361D02*
X154431014Y-88177075D01*
X154431014Y-88177075D02*
X154431014Y-87719932D01*
X154431014Y-87719932D02*
X154373871Y-87605646D01*
X154373871Y-87605646D02*
X154259586Y-87548503D01*
X154259586Y-87548503D02*
X154031014Y-87548503D01*
X154031014Y-87548503D02*
X153916728Y-87605646D01*
X153916728Y-87605646D02*
X153859586Y-87719932D01*
X153859586Y-87719932D02*
X153859586Y-87834218D01*
X153859586Y-87834218D02*
X154431014Y-87948503D01*
X153173872Y-88348503D02*
X153288157Y-88291361D01*
X153288157Y-88291361D02*
X153345300Y-88177075D01*
X153345300Y-88177075D02*
X153345300Y-87148503D01*
X158031015Y-90280436D02*
X158602443Y-90280436D01*
X158602443Y-90280436D02*
X158602443Y-89080436D01*
X157631014Y-90280436D02*
X157631014Y-89480436D01*
X157631014Y-89080436D02*
X157688157Y-89137579D01*
X157688157Y-89137579D02*
X157631014Y-89194722D01*
X157631014Y-89194722D02*
X157573871Y-89137579D01*
X157573871Y-89137579D02*
X157631014Y-89080436D01*
X157631014Y-89080436D02*
X157631014Y-89194722D01*
X156545300Y-89480436D02*
X156545300Y-90451865D01*
X156545300Y-90451865D02*
X156602442Y-90566151D01*
X156602442Y-90566151D02*
X156659585Y-90623294D01*
X156659585Y-90623294D02*
X156773871Y-90680436D01*
X156773871Y-90680436D02*
X156945300Y-90680436D01*
X156945300Y-90680436D02*
X157059585Y-90623294D01*
X156545300Y-90223294D02*
X156659585Y-90280436D01*
X156659585Y-90280436D02*
X156888157Y-90280436D01*
X156888157Y-90280436D02*
X157002442Y-90223294D01*
X157002442Y-90223294D02*
X157059585Y-90166151D01*
X157059585Y-90166151D02*
X157116728Y-90051865D01*
X157116728Y-90051865D02*
X157116728Y-89709008D01*
X157116728Y-89709008D02*
X157059585Y-89594722D01*
X157059585Y-89594722D02*
X157002442Y-89537579D01*
X157002442Y-89537579D02*
X156888157Y-89480436D01*
X156888157Y-89480436D02*
X156659585Y-89480436D01*
X156659585Y-89480436D02*
X156545300Y-89537579D01*
X155973871Y-90280436D02*
X155973871Y-89080436D01*
X155459586Y-90280436D02*
X155459586Y-89651865D01*
X155459586Y-89651865D02*
X155516728Y-89537579D01*
X155516728Y-89537579D02*
X155631014Y-89480436D01*
X155631014Y-89480436D02*
X155802443Y-89480436D01*
X155802443Y-89480436D02*
X155916728Y-89537579D01*
X155916728Y-89537579D02*
X155973871Y-89594722D01*
X155059586Y-89480436D02*
X154602443Y-89480436D01*
X154888157Y-89080436D02*
X154888157Y-90109008D01*
X154888157Y-90109008D02*
X154831014Y-90223294D01*
X154831014Y-90223294D02*
X154716729Y-90280436D01*
X154716729Y-90280436D02*
X154602443Y-90280436D01*
X158659586Y-92155227D02*
X158488158Y-92212369D01*
X158488158Y-92212369D02*
X158202443Y-92212369D01*
X158202443Y-92212369D02*
X158088158Y-92155227D01*
X158088158Y-92155227D02*
X158031015Y-92098084D01*
X158031015Y-92098084D02*
X157973872Y-91983798D01*
X157973872Y-91983798D02*
X157973872Y-91869512D01*
X157973872Y-91869512D02*
X158031015Y-91755227D01*
X158031015Y-91755227D02*
X158088158Y-91698084D01*
X158088158Y-91698084D02*
X158202443Y-91640941D01*
X158202443Y-91640941D02*
X158431015Y-91583798D01*
X158431015Y-91583798D02*
X158545300Y-91526655D01*
X158545300Y-91526655D02*
X158602443Y-91469512D01*
X158602443Y-91469512D02*
X158659586Y-91355227D01*
X158659586Y-91355227D02*
X158659586Y-91240941D01*
X158659586Y-91240941D02*
X158602443Y-91126655D01*
X158602443Y-91126655D02*
X158545300Y-91069512D01*
X158545300Y-91069512D02*
X158431015Y-91012369D01*
X158431015Y-91012369D02*
X158145300Y-91012369D01*
X158145300Y-91012369D02*
X157973872Y-91069512D01*
X157002443Y-92155227D02*
X157116729Y-92212369D01*
X157116729Y-92212369D02*
X157345301Y-92212369D01*
X157345301Y-92212369D02*
X157459586Y-92155227D01*
X157459586Y-92155227D02*
X157516729Y-92040941D01*
X157516729Y-92040941D02*
X157516729Y-91583798D01*
X157516729Y-91583798D02*
X157459586Y-91469512D01*
X157459586Y-91469512D02*
X157345301Y-91412369D01*
X157345301Y-91412369D02*
X157116729Y-91412369D01*
X157116729Y-91412369D02*
X157002443Y-91469512D01*
X157002443Y-91469512D02*
X156945301Y-91583798D01*
X156945301Y-91583798D02*
X156945301Y-91698084D01*
X156945301Y-91698084D02*
X157516729Y-91812369D01*
X156431015Y-91412369D02*
X156431015Y-92212369D01*
X156431015Y-91526655D02*
X156373872Y-91469512D01*
X156373872Y-91469512D02*
X156259587Y-91412369D01*
X156259587Y-91412369D02*
X156088158Y-91412369D01*
X156088158Y-91412369D02*
X155973872Y-91469512D01*
X155973872Y-91469512D02*
X155916730Y-91583798D01*
X155916730Y-91583798D02*
X155916730Y-92212369D01*
X155402444Y-92155227D02*
X155288158Y-92212369D01*
X155288158Y-92212369D02*
X155059587Y-92212369D01*
X155059587Y-92212369D02*
X154945301Y-92155227D01*
X154945301Y-92155227D02*
X154888158Y-92040941D01*
X154888158Y-92040941D02*
X154888158Y-91983798D01*
X154888158Y-91983798D02*
X154945301Y-91869512D01*
X154945301Y-91869512D02*
X155059587Y-91812369D01*
X155059587Y-91812369D02*
X155231016Y-91812369D01*
X155231016Y-91812369D02*
X155345301Y-91755227D01*
X155345301Y-91755227D02*
X155402444Y-91640941D01*
X155402444Y-91640941D02*
X155402444Y-91583798D01*
X155402444Y-91583798D02*
X155345301Y-91469512D01*
X155345301Y-91469512D02*
X155231016Y-91412369D01*
X155231016Y-91412369D02*
X155059587Y-91412369D01*
X155059587Y-91412369D02*
X154945301Y-91469512D01*
X154202444Y-92212369D02*
X154316729Y-92155227D01*
X154316729Y-92155227D02*
X154373872Y-92098084D01*
X154373872Y-92098084D02*
X154431015Y-91983798D01*
X154431015Y-91983798D02*
X154431015Y-91640941D01*
X154431015Y-91640941D02*
X154373872Y-91526655D01*
X154373872Y-91526655D02*
X154316729Y-91469512D01*
X154316729Y-91469512D02*
X154202444Y-91412369D01*
X154202444Y-91412369D02*
X154031015Y-91412369D01*
X154031015Y-91412369D02*
X153916729Y-91469512D01*
X153916729Y-91469512D02*
X153859587Y-91526655D01*
X153859587Y-91526655D02*
X153802444Y-91640941D01*
X153802444Y-91640941D02*
X153802444Y-91983798D01*
X153802444Y-91983798D02*
X153859587Y-92098084D01*
X153859587Y-92098084D02*
X153916729Y-92155227D01*
X153916729Y-92155227D02*
X154031015Y-92212369D01*
X154031015Y-92212369D02*
X154202444Y-92212369D01*
X153288158Y-92212369D02*
X153288158Y-91412369D01*
X153288158Y-91640941D02*
X153231015Y-91526655D01*
X153231015Y-91526655D02*
X153173873Y-91469512D01*
X153173873Y-91469512D02*
X153059587Y-91412369D01*
X153059587Y-91412369D02*
X152945301Y-91412369D01*
X157916729Y-94144302D02*
X158316729Y-93572874D01*
X158602443Y-94144302D02*
X158602443Y-92944302D01*
X158602443Y-92944302D02*
X158145300Y-92944302D01*
X158145300Y-92944302D02*
X158031015Y-93001445D01*
X158031015Y-93001445D02*
X157973872Y-93058588D01*
X157973872Y-93058588D02*
X157916729Y-93172874D01*
X157916729Y-93172874D02*
X157916729Y-93344302D01*
X157916729Y-93344302D02*
X157973872Y-93458588D01*
X157973872Y-93458588D02*
X158031015Y-93515731D01*
X158031015Y-93515731D02*
X158145300Y-93572874D01*
X158145300Y-93572874D02*
X158602443Y-93572874D01*
X157459586Y-93058588D02*
X157402443Y-93001445D01*
X157402443Y-93001445D02*
X157288158Y-92944302D01*
X157288158Y-92944302D02*
X157002443Y-92944302D01*
X157002443Y-92944302D02*
X156888158Y-93001445D01*
X156888158Y-93001445D02*
X156831015Y-93058588D01*
X156831015Y-93058588D02*
X156773872Y-93172874D01*
X156773872Y-93172874D02*
X156773872Y-93287160D01*
X156773872Y-93287160D02*
X156831015Y-93458588D01*
X156831015Y-93458588D02*
X157516729Y-94144302D01*
X157516729Y-94144302D02*
X156773872Y-94144302D01*
X152894982Y-98938158D02*
X152837840Y-98995301D01*
X152837840Y-98995301D02*
X152780697Y-99166729D01*
X152780697Y-99166729D02*
X152780697Y-99281015D01*
X152780697Y-99281015D02*
X152837840Y-99452444D01*
X152837840Y-99452444D02*
X152952125Y-99566729D01*
X152952125Y-99566729D02*
X153066411Y-99623872D01*
X153066411Y-99623872D02*
X153294982Y-99681015D01*
X153294982Y-99681015D02*
X153466411Y-99681015D01*
X153466411Y-99681015D02*
X153694982Y-99623872D01*
X153694982Y-99623872D02*
X153809268Y-99566729D01*
X153809268Y-99566729D02*
X153923554Y-99452444D01*
X153923554Y-99452444D02*
X153980697Y-99281015D01*
X153980697Y-99281015D02*
X153980697Y-99166729D01*
X153980697Y-99166729D02*
X153923554Y-98995301D01*
X153923554Y-98995301D02*
X153866411Y-98938158D01*
M02*
