%TF.GenerationSoftware,KiCad,Pcbnew,9.0.0*%
%TF.CreationDate,2025-05-13T11:15:22+03:00*%
%TF.ProjectId,light_sensor_rev_2,6c696768-745f-4736-956e-736f725f7265,rev?*%
%TF.SameCoordinates,Original*%
%TF.FileFunction,Legend,Top*%
%TF.FilePolarity,Positive*%
%FSLAX46Y46*%
G04 Gerber Fmt 4.6, Leading zero omitted, Abs format (unit mm)*
G04 Created by KiCad (PCBNEW 9.0.0) date 2025-05-13 11:15:22*
%MOMM*%
%LPD*%
G01*
G04 APERTURE LIST*
%ADD10C,0.150000*%
%ADD11C,0.100000*%
%ADD12C,0.120000*%
G04 APERTURE END LIST*
D10*
X153109761Y-96095057D02*
X153014523Y-96047438D01*
X153014523Y-96047438D02*
X152919285Y-95952200D01*
X152919285Y-95952200D02*
X152776428Y-95809342D01*
X152776428Y-95809342D02*
X152681190Y-95761723D01*
X152681190Y-95761723D02*
X152585952Y-95761723D01*
X152633571Y-95999819D02*
X152538333Y-95952200D01*
X152538333Y-95952200D02*
X152443095Y-95856961D01*
X152443095Y-95856961D02*
X152395476Y-95666485D01*
X152395476Y-95666485D02*
X152395476Y-95333152D01*
X152395476Y-95333152D02*
X152443095Y-95142676D01*
X152443095Y-95142676D02*
X152538333Y-95047438D01*
X152538333Y-95047438D02*
X152633571Y-94999819D01*
X152633571Y-94999819D02*
X152824047Y-94999819D01*
X152824047Y-94999819D02*
X152919285Y-95047438D01*
X152919285Y-95047438D02*
X153014523Y-95142676D01*
X153014523Y-95142676D02*
X153062142Y-95333152D01*
X153062142Y-95333152D02*
X153062142Y-95666485D01*
X153062142Y-95666485D02*
X153014523Y-95856961D01*
X153014523Y-95856961D02*
X152919285Y-95952200D01*
X152919285Y-95952200D02*
X152824047Y-95999819D01*
X152824047Y-95999819D02*
X152633571Y-95999819D01*
X154014523Y-95999819D02*
X153443095Y-95999819D01*
X153728809Y-95999819D02*
X153728809Y-94999819D01*
X153728809Y-94999819D02*
X153633571Y-95142676D01*
X153633571Y-95142676D02*
X153538333Y-95237914D01*
X153538333Y-95237914D02*
X153443095Y-95285533D01*
X158448333Y-95802330D02*
X158400714Y-95849950D01*
X158400714Y-95849950D02*
X158257857Y-95897569D01*
X158257857Y-95897569D02*
X158162619Y-95897569D01*
X158162619Y-95897569D02*
X158019762Y-95849950D01*
X158019762Y-95849950D02*
X157924524Y-95754711D01*
X157924524Y-95754711D02*
X157876905Y-95659473D01*
X157876905Y-95659473D02*
X157829286Y-95468997D01*
X157829286Y-95468997D02*
X157829286Y-95326140D01*
X157829286Y-95326140D02*
X157876905Y-95135664D01*
X157876905Y-95135664D02*
X157924524Y-95040426D01*
X157924524Y-95040426D02*
X158019762Y-94945188D01*
X158019762Y-94945188D02*
X158162619Y-94897569D01*
X158162619Y-94897569D02*
X158257857Y-94897569D01*
X158257857Y-94897569D02*
X158400714Y-94945188D01*
X158400714Y-94945188D02*
X158448333Y-94992807D01*
X159400714Y-95897569D02*
X158829286Y-95897569D01*
X159115000Y-95897569D02*
X159115000Y-94897569D01*
X159115000Y-94897569D02*
X159019762Y-95040426D01*
X159019762Y-95040426D02*
X158924524Y-95135664D01*
X158924524Y-95135664D02*
X158829286Y-95183283D01*
%TO.C,Q1*%
D11*
X152795000Y-91660000D02*
X159195000Y-91660000D01*
X159195000Y-94660000D01*
X152795000Y-94660000D01*
X152795000Y-91660000D01*
D12*
%TO.C,C1*%
X155864420Y-95065000D02*
X156145580Y-95065000D01*
X155864420Y-96085000D02*
X156145580Y-96085000D01*
%TD*%
M02*
