M48
; DRILL file {KiCad 7.0.8} date Tue Dec 19 12:05:10 2023
; FORMAT={-:-/ absolute / inch / decimal}
; #@! TF.CreationDate,2023-12-19T12:05:10+02:00
; #@! TF.GenerationSoftware,Kicad,Pcbnew,7.0.8
; #@! TF.FileFunction,Plated,1,4,PTH
FMAT,2
INCH
; #@! TA.AperFunction,Plated,PTH,ViaDrill
T1C0.0118
; #@! TA.AperFunction,Plated,PTH,ComponentDrill
T2C0.0354
; #@! TA.AperFunction,Plated,PTH,ComponentDrill
T3C0.0394
; #@! TA.AperFunction,Plated,PTH,ComponentDrill
T4C0.0433
; #@! TA.AperFunction,Plated,PTH,ComponentDrill
T5C0.0669
%
G90
G05
T1
X2.3949Y-4.1307
X2.4055Y-1.9685
X2.4055Y-2.0669
X2.4055Y-2.185
X2.4055Y-2.3031
X2.4055Y-2.4213
X2.4055Y-2.5394
X2.4055Y-2.6575
X2.4055Y-2.7756
X2.4055Y-2.8937
X2.4055Y-3.0118
X2.4055Y-3.1299
X2.4055Y-3.248
X2.4055Y-3.3661
X2.4055Y-3.4843
X2.4055Y-3.6024
X2.4055Y-3.7205
X2.4055Y-4.311
X2.4094Y-4.4685
X2.4094Y-4.626
X2.4094Y-4.7598
X2.4409Y-5.6693
X2.4665Y-4.0701
X2.5236Y-1.9685
X2.5287Y-3.0232
X2.5287Y-3.1213
X2.5291Y-2.8016
X2.5291Y-3.2783
X2.5295Y-2.5394
X2.5295Y-2.6388
X2.5299Y-2.4622
X2.5299Y-2.8626
X2.5299Y-3.1898
X2.5303Y-2.9626
X2.5315Y-4.311
X2.5354Y-4.4685
X2.5394Y-4.622
X2.5472Y-4.7559
X2.5482Y-2.0738
X2.5575Y-4.0697
X2.5591Y-5.6693
X2.5787Y-3.563
X2.5866Y-3.4134
X2.6063Y-2.6319
X2.6083Y-2.5443
X2.6299Y-4.6142
X2.6319Y-4.498
X2.639Y-2.0744
X2.6417Y-1.9685
X2.6423Y-2.5882
X2.6476Y-4.2854
X2.6476Y-4.3839
X2.6594Y-4.1358
X2.6594Y-4.1693
X2.6614Y-4.0984
X2.6614Y-5.0039
X2.6634Y-4.6142
X2.6673Y-4.498
X2.6772Y-5.6693
X2.6811Y-4.3858
X2.685Y-4.2854
X2.686Y-2.3474
X2.6969Y-4.6122
X2.7008Y-4.498
X2.7012Y-2.0748
X2.7185Y-4.3858
X2.7205Y-3.563
X2.7205Y-4.2854
X2.7205Y-4.8533
X2.7323Y-3.4134
X2.7378Y-3.9335
X2.7445Y-3.7429
X2.7598Y-1.9685
X2.7764Y-3.9339
X2.7789Y-3.7429
X2.7795Y-3.1112
X2.7904Y-2.4222
X2.7953Y-5.6693
X2.7992Y-3.2638
X2.8022Y-2.9734
X2.8031Y-4.6043
X2.8071Y-4.5
X2.8083Y-2.0728
X2.8134Y-3.7429
X2.8189Y-5.0039
X2.8213Y-3.9346
X2.8248Y-3.6102
X2.8248Y-4.2874
X2.8248Y-4.3819
X2.8465Y-4.502
X2.8465Y-4.6043
X2.8469Y-4.0138
X2.8472Y-3.9791
X2.8524Y-2.3465
X2.8567Y-2.0736
X2.8579Y-4.1181
X2.8583Y-4.0846
X2.8583Y-4.1579
X2.8642Y-4.2874
X2.8661Y-4.3819
X2.8748Y-3.9354
X2.876Y-2.872
X2.878Y-1.9685
X2.878Y-3.0364
X2.8819Y-3.4094
X2.8823Y-3.7429
X2.9134Y-5.6693
X2.9154Y-3.935
X2.9167Y-3.7429
X2.9291Y-3.6811
X2.9311Y-4.3248
X2.9311Y-4.3583
X2.9512Y-3.7429
X2.9537Y-2.4232
X2.9626Y-3.6831
X2.9689Y-2.074
X2.9921Y-3.2638
X2.9961Y-1.9685
X2.9961Y-3.6831
X3.0228Y-2.0744
X3.0268Y-3.8949
X3.0295Y-3.6831
X3.0299Y-3.7606
X3.0315Y-5.6693
X3.063Y-3.4094
X3.0827Y-2.2795
X3.1142Y-1.9685
X3.1378Y-2.4252
X3.139Y-2.074
X3.1496Y-5.6693
X3.1874Y-3.1415
X3.2102Y-3.4376
X3.2323Y-1.9685
X3.249Y-3.7411
X3.2677Y-4.7244
X3.2677Y-4.8425
X3.2677Y-4.9606
X3.2677Y-5.6693
X3.2858Y-3.2596
X3.3209Y-3.9941
X3.3528Y-3.112
X3.3583Y-4.2323
X3.378Y-2.9528
X3.3858Y-5.6693
X3.3957Y-3.8189
X3.4049Y-3.3285
X3.4207Y-3.2724
X3.4252Y-4.7244
X3.4252Y-4.8425
X3.4252Y-4.9606
X3.4283Y-3.8843
X3.4547Y-3.9232
X3.4567Y-4.0531
X3.4724Y-2.437
X3.4724Y-3.1496
X3.4882Y-2.8465
X3.4886Y-3.3492
X3.4933Y-3.8094
X3.5039Y-5.6693
X3.5236Y-3.0118
X3.5307Y-3.9571
X3.5315Y-4.2126
X3.5622Y-3.9571
X3.5866Y-1.9685
X3.5937Y-3.9571
X3.622Y-4.7244
X3.622Y-4.8425
X3.622Y-4.9606
X3.622Y-5.6693
X3.6252Y-3.9571
X3.6339Y-2.685
X3.6339Y-2.8819
X3.6339Y-3.0394
X3.6575Y-4.2244
X3.6791Y-3.9094
X3.6811Y-3.1457
X3.686Y-2.0738
X3.689Y-2.4331
X3.7047Y-1.9685
X3.7217Y-3.8685
X3.7402Y-5.6693
X3.752Y-4.0531
X3.7539Y-3.8071
X3.7764Y-2.074
X3.7827Y-3.9
X3.8189Y-4.7244
X3.8189Y-4.8425
X3.8189Y-4.9606
X3.8228Y-1.9685
X3.8343Y-2.0744
X3.8524Y-2.3238
X3.8583Y-5.6693
X3.8898Y-4.185
X3.8947Y-3.9941
X3.9272Y-2.4213
X3.937Y-2.0748
X3.9409Y-1.9685
X3.9705Y-2.7421
X3.9764Y-3.9941
X3.9764Y-5.6693
X3.9843Y-4.189
X3.9852Y-2.3474
X3.9965Y-2.0748
X4.0Y-3.0945
X4.0118Y-2.8661
X4.0157Y-2.9528
X4.0551Y-4.3307
X4.0551Y-4.4488
X4.0551Y-4.5669
X4.0591Y-1.9685
X4.0837Y-2.8041
X4.0906Y-2.4222
X4.0945Y-5.6693
X4.0984Y-4.189
X4.1071Y-2.074
X4.1122Y-3.8228
X4.1368Y-3.7618
X4.1444Y-3.8843
X4.1622Y-2.074
X4.1713Y-4.0531
X4.1732Y-3.9193
X4.1732Y-4.3307
X4.1732Y-4.4488
X4.1732Y-4.5669
X4.1772Y-1.9685
X4.1811Y-2.248
X4.1862Y-3.778
X4.1929Y-4.189
X4.2087Y-2.3858
X4.2094Y-3.8094
X4.2126Y-5.6693
X4.2468Y-3.9571
X4.2549Y-3.7539
X4.2782Y-3.9571
X4.287Y-2.0744
X4.2953Y-1.9685
X4.3097Y-3.9571
X4.3307Y-5.6693
X4.3412Y-3.9571
X4.3465Y-2.2126
X4.3465Y-3.122
X4.3583Y-3.7569
X4.3717Y-2.0732
X4.3957Y-3.9094
X4.4016Y-2.374
X4.4134Y-1.9685
X4.4185Y-3.7917
X4.4377Y-3.8685
X4.4488Y-4.7244
X4.4488Y-4.8425
X4.4488Y-4.9606
X4.4488Y-5.6693
X4.4528Y-3.5443
X4.4547Y-3.3839
X4.4626Y-3.8051
X4.4646Y-3.7539
X4.4685Y-4.0531
X4.4921Y-3.1339
X4.4933Y-3.7898
X4.4961Y-2.074
X4.4987Y-3.9
X4.5079Y-2.2559
X4.5315Y-1.9685
X4.5472Y-2.9783
X4.5501Y-2.7869
X4.5508Y-2.074
X4.5512Y-3.0709
X4.5669Y-3.2677
X4.5669Y-5.6693
X4.5699Y-2.3258
X4.5837Y-3.5768
X4.6033Y-3.75
X4.6063Y-4.7244
X4.6063Y-4.8425
X4.6063Y-4.9606
X4.6112Y-3.9941
X4.6447Y-2.4193
X4.6496Y-1.9685
X4.6496Y-3.1772
X4.6622Y-2.0748
X4.6722Y-3.5984
X4.685Y-5.1575
X4.685Y-5.2756
X4.685Y-5.3937
X4.685Y-5.6693
X4.6919Y-3.9941
X4.6929Y-3.2677
X4.7067Y-2.3465
X4.7126Y-3.752
X4.7173Y-2.0736
X4.7283Y-3.1024
X4.7291Y-2.9362
X4.7425Y-2.824
X4.7628Y-2.9006
X4.7677Y-1.9685
X4.7677Y-2.9941
X4.7894Y-3.8691
X4.7933Y-3.0984
X4.8031Y-4.7244
X4.8031Y-4.8425
X4.8031Y-4.9606
X4.8031Y-5.1575
X4.8031Y-5.2756
X4.8031Y-5.3937
X4.8031Y-5.6693
X4.8067Y-3.3421
X4.8081Y-2.4213
X4.811Y-2.7756
X4.8122Y-3.3035
X4.8224Y-2.0744
X4.8238Y-2.9606
X4.8268Y-3.8189
X4.8604Y-3.8843
X4.8634Y-3.3508
X4.8671Y-3.7608
X4.8683Y-3.2957
X4.878Y-3.9272
X4.8807Y-2.074
X4.8821Y-3.5063
X4.8839Y-3.5817
X4.8858Y-1.9685
X4.8878Y-4.0531
X4.8898Y-2.9616
X4.9028Y-3.7839
X4.9213Y-5.6693
X4.9254Y-3.8094
X4.9301Y-3.6191
X4.9317Y-3.4697
X4.9618Y-3.0909
X4.9628Y-3.9571
X4.9852Y-2.0738
X4.9943Y-3.9571
X5.0Y-4.7244
X5.0Y-4.8425
X5.0Y-4.9606
X5.0039Y-1.9685
X5.0049Y-3.7579
X5.0059Y-2.2352
X5.011Y-3.1421
X5.0136Y-3.4705
X5.0138Y-3.6211
X5.0258Y-3.9571
X5.0268Y-3.2081
X5.0315Y-2.3465
X5.0394Y-2.9252
X5.0394Y-5.6693
X5.0573Y-3.9571
X5.0581Y-3.5856
X5.0632Y-3.5083
X5.0661Y-3.1283
X5.0665Y-3.0047
X5.0685Y-3.2783
X5.1004Y-3.7608
X5.1122Y-3.9114
X5.1299Y-4.189
X5.135Y-3.7996
X5.1496Y-2.3465
X5.152Y-3.4654
X5.1537Y-3.8685
X5.1575Y-5.6693
X5.187Y-3.8051
X5.187Y-4.0551
X5.1872Y-3.1972
X5.1988Y-3.2669
X5.2004Y-2.8242
X5.2079Y-3.5142
X5.2148Y-3.9
X5.2287Y-3.4504
X5.2598Y-3.326
X5.2677Y-2.3465
X5.2677Y-4.189
X5.2756Y-5.6693
X5.2884Y-4.4104
X5.3022Y-3.0059
X5.3071Y-3.2043
X5.3083Y-3.4157
X5.3091Y-2.8886
X5.3093Y-3.0821
X5.3112Y-2.8203
X5.313Y-2.9654
X5.315Y-4.3307
X5.315Y-4.5669
X5.3173Y-3.1252
X5.3256Y-2.9276
X5.3268Y-3.9941
X5.3358Y-3.1835
X5.3398Y-3.3087
X5.3398Y-3.4157
X5.3594Y-3.278
X5.3848Y-3.7293
X5.3858Y-2.3465
X5.3878Y-4.565
X5.3898Y-4.1929
X5.3898Y-4.3297
X5.3937Y-5.6693
X5.4104Y-3.9941
X5.4142Y-3.3059
X5.4169Y-2.8154
X5.4213Y-3.1102
X5.4313Y-3.2514
X5.4323Y-2.5713
X5.4323Y-2.7075
X5.4531Y-3.302
X5.4539Y-3.1707
X5.4587Y-3.0512
X5.4713Y-3.5535
X5.4787Y-3.4252
X5.4953Y-2.8213
X5.499Y-4.4311
X5.5Y-3.3071
X5.501Y-4.565
X5.5039Y-2.3465
X5.5079Y-4.1929
X5.5118Y-5.6693
X5.5276Y-2.9685
X5.5287Y-3.2415
X5.5354Y-2.4567
X5.5354Y-3.0472
X5.5423Y-3.2756
X5.5433Y-3.8189
X5.5437Y-3.5634
X5.5494Y-3.1776
X5.5713Y-3.2606
X5.5765Y-3.8843
X5.5906Y-2.8159
X5.5906Y-4.7244
X5.5906Y-4.8425
X5.5906Y-4.9606
X5.5937Y-3.287
X5.5984Y-3.9232
X5.6004Y-3.0886
X5.6063Y-4.054
X5.6122Y-2.8691
X5.6161Y-3.5476
X5.622Y-2.3465
X5.626Y-3.3081
X5.6299Y-5.6693
X5.6319Y-2.9311
X5.6414Y-3.8094
X5.6467Y-3.2736
X5.678Y-3.5461
X5.6788Y-3.9571
X5.6831Y-3.0098
X5.6839Y-3.2835
X5.6929Y-2.5886
X5.6929Y-2.8159
X5.702Y-3.5693
X5.7087Y-2.1811
X5.7102Y-2.0736
X5.7103Y-3.9571
X5.7126Y-1.9685
X5.7217Y-3.5949
X5.7224Y-3.2772
X5.7244Y-2.3228
X5.7244Y-2.4173
X5.7276Y-3.3134
X5.7335Y-2.7012
X5.7354Y-3.1283
X5.7418Y-3.9571
X5.7472Y-3.6205
X5.748Y-4.7244
X5.748Y-4.8425
X5.748Y-4.9606
X5.748Y-5.6693
X5.7571Y-3.0713
X5.7591Y-2.6795
X5.761Y-3.0339
X5.7638Y-2.5906
X5.7733Y-3.9571
X5.7809Y-2.6994
X5.7856Y-2.8754
X5.7902Y-2.8169
X5.7992Y-3.0256
X5.8004Y-3.1087
X5.8031Y-2.2677
X5.8039Y-2.9264
X5.8189Y-4.2441
X5.8201Y-2.0728
X5.822Y-2.6982
X5.8287Y-3.9094
X5.8307Y-1.9685
X5.8417Y-3.526
X5.8496Y-3.711
X5.8571Y-2.8008
X5.8661Y-5.6693
X5.8698Y-3.8685
X5.8717Y-2.0732
X5.8909Y-2.6283
X5.8917Y-2.3228
X5.9016Y-3.8051
X5.9035Y-4.0531
X5.9047Y-2.6776
X5.9055Y-5.1575
X5.9055Y-5.2756
X5.9055Y-5.3937
X5.9067Y-3.3331
X5.9106Y-3.2815
X5.9173Y-3.2047
X5.922Y-3.0059
X5.9232Y-2.9409
X5.9264Y-3.0457
X5.9308Y-3.9
X5.9311Y-3.1614
X5.9441Y-3.7287
X5.9449Y-4.7244
X5.9449Y-4.8425
X5.9449Y-4.9606
X5.9488Y-1.9685
X5.9596Y-2.4203
X5.9685Y-4.2244
X5.9791Y-2.0744
X5.9813Y-3.9941
X5.9823Y-2.8819
X5.9843Y-5.6693
X5.9862Y-3.5965
X5.9972Y-3.21
X6.0197Y-3.622
X6.0236Y-5.1575
X6.0236Y-5.2756
X6.0236Y-5.3937
X6.0266Y-2.3445
X6.0268Y-2.7199
X6.0378Y-2.0748
X6.0591Y-2.811
X6.0618Y-3.0843
X6.063Y-2.6535
X6.0669Y-1.9685
X6.0848Y-3.1382
X6.0961Y-2.9425
X6.1024Y-5.6693
X6.126Y-3.9941
X6.1281Y-3.0374
X6.1309Y-2.4213
X6.1321Y-2.7652
X6.1417Y-4.7244
X6.1417Y-4.8425
X6.1417Y-4.9606
X6.1457Y-2.0736
X6.1732Y-4.2559
X6.1793Y-3.061
X6.1811Y-2.5945
X6.1823Y-3.6224
X6.185Y-1.9685
X6.1882Y-3.278
X6.1969Y-2.2677
X6.2Y-3.8783
X6.2016Y-2.0736
X6.2165Y-2.4724
X6.2205Y-5.6693
X6.2285Y-3.0079
X6.2323Y-3.4843
X6.2598Y-3.8228
X6.2719Y-2.7642
X6.2925Y-3.8843
X6.2961Y-2.8713
X6.3031Y-1.9685
X6.3031Y-2.3189
X6.3071Y-2.4685
X6.3087Y-3.1606
X6.3142Y-2.0732
X6.3209Y-3.9213
X6.3209Y-4.0531
X6.3337Y-5.0197
X6.3339Y-3.7819
X6.3386Y-5.6693
X6.3504Y-2.1811
X6.3563Y-3.6171
X6.3575Y-3.8094
X6.378Y-2.374
X6.3799Y-4.9124
X6.3815Y-3.0976
X6.3854Y-2.0748
X6.3909Y-3.1657
X6.3949Y-3.9571
X6.4008Y-2.8665
X6.4008Y-2.9472
X6.4055Y-4.4528
X6.4094Y-3.7795
X6.4094Y-4.3701
X6.4213Y-1.9685
X6.4264Y-3.9571
X6.437Y-3.748
X6.437Y-4.4528
X6.4409Y-4.3701
X6.4528Y-2.5906
X6.4567Y-5.6693
X6.4579Y-3.9571
X6.4648Y-2.7681
X6.4685Y-4.4528
X6.4685Y-4.8258
X6.4724Y-4.3701
X6.4854Y-3.2563
X6.4882Y-3.5039
X6.4894Y-3.9571
X6.4913Y-3.1224
X6.5Y-4.4528
X6.5039Y-4.3701
X6.5047Y-2.0752
X6.5209Y-3.3862
X6.5285Y-5.0226
X6.5364Y-4.7402
X6.5394Y-1.9685
X6.5433Y-3.9094
X6.5512Y-2.3455
X6.5575Y-2.0752
X6.5748Y-5.6693
X6.5787Y-4.8957
X6.5858Y-3.8685
X6.5898Y-2.9492
X6.5906Y-4.3701
X6.5906Y-4.4528
X6.6055Y-2.7642
X6.6122Y-3.8031
X6.6181Y-4.0531
X6.622Y-4.3701
X6.622Y-4.4528
X6.6339Y-3.2272
X6.6469Y-3.9
X6.6526Y-4.1752
X6.6535Y-4.3701
X6.6535Y-4.4528
X6.6545Y-2.4222
X6.6575Y-1.9685
X6.6642Y-2.0744
X6.6646Y-3.086
X6.6732Y-4.814
X6.685Y-4.3701
X6.685Y-4.4528
X6.6929Y-5.6693
X6.6988Y-3.2508
X6.7008Y-2.9366
X6.7049Y-3.0841
X6.7136Y-2.3465
X6.7157Y-3.3724
X6.7185Y-4.7234
X6.7248Y-2.0744
X6.7256Y-3.5093
X6.7331Y-3.1476
X6.7441Y-2.5984
X6.75Y-4.9104
X6.7551Y-2.7642
X6.7598Y-2.8906
X6.7598Y-3.9941
X6.7657Y-5.0492
X6.7713Y-3.2717
X6.7756Y-1.9685
X6.7756Y-4.3701
X6.7756Y-4.4528
X6.8008Y-3.3717
X6.8055Y-2.9697
X6.8071Y-4.3701
X6.8071Y-4.4528
X6.811Y-5.6693
X6.8179Y-2.4213
X6.8337Y-4.1772
X6.8346Y-3.2472
X6.8351Y-3.1277
X6.8356Y-2.249
X6.8359Y-3.1954
X6.8386Y-2.7504
X6.8386Y-4.3701
X6.8386Y-4.4528
X6.8398Y-3.4709
X6.8476Y-2.7091
X6.8583Y-3.1675
X6.8612Y-3.6181
X6.8701Y-4.3701
X6.8701Y-4.4528
X6.8776Y-2.9244
X6.8787Y-3.2508
X6.8799Y-2.0748
X6.8918Y-3.024
X6.8937Y-1.9685
X6.8937Y-3.3772
X6.9094Y-4.7776
X6.9157Y-3.0539
X6.9291Y-5.6693
X6.9419Y-4.9419
X6.9441Y-3.2433
X6.9457Y-3.0878
X6.9461Y-3.1254
X6.9465Y-3.0276
X6.9596Y-3.747
X6.9606Y-4.4528
X6.9636Y-3.9488
X6.9646Y-4.3701
X6.9656Y-4.1073
X6.9732Y-3.0587
X6.9778Y-2.9254
X6.9783Y-2.0732
X6.9831Y-2.7799
X6.9882Y-3.5719
X6.9921Y-4.4528
X6.9961Y-4.3701
X6.9984Y-3.0394
X6.9996Y-3.1846
X7.0008Y-3.1453
X7.0051Y-3.2264
X7.0059Y-3.0953
X7.0118Y-1.9685
X7.0236Y-4.4528
X7.0276Y-4.3701
X7.0343Y-3.0315
X7.0409Y-2.9098
X7.0449Y-2.7823
X7.0472Y-5.6693
X7.0551Y-4.4528
X7.0591Y-4.3701
X7.0623Y-3.194
X7.0669Y-3.9488
X7.0691Y-2.6077
X7.0699Y-4.1132
X7.073Y-2.7484
X7.0738Y-3.4833
X7.0758Y-3.7441
X7.0798Y-3.4374
X7.0819Y-2.9098
X7.0858Y-3.3331
X7.0878Y-3.397
X7.1045Y-2.7829
X7.1059Y-2.7165
X7.1102Y-3.5994
X7.1339Y-4.8061
X7.1417Y-5.0276
X7.1591Y-3.2496
X7.1654Y-5.6693
X7.1657Y-2.7122
X7.189Y-3.2752
X7.1902Y-3.3547
X7.2177Y-2.9476
X7.2315Y-3.3144
X7.2315Y-3.4492
X7.2374Y-2.7429
X7.2392Y-4.8091
X7.252Y-4.9409
X7.2835Y-5.6693
X7.3083Y-2.7366
X7.326Y-2.6156
X7.3476Y-3.0571
X7.3567Y-3.2295
X7.3567Y-3.2654
X7.3661Y-1.9685
X7.3661Y-4.81
X7.3868Y-4.8927
X7.3927Y-5.0571
X7.3969Y-2.8862
X7.4016Y-5.6693
X7.4173Y-3.137
X7.4177Y-3.1717
X7.4327Y-3.8677
X7.4705Y-2.8795
X7.4843Y-1.9685
X7.4937Y-3.7516
X7.5051Y-2.8419
X7.5278Y-2.6037
X7.5551Y-2.1575
X7.5642Y-2.9837
X7.6024Y-1.9685
X7.6124Y-3.1136
X7.6144Y-3.2967
X7.6339Y-2.2402
X7.6484Y-3.2492
X7.6492Y-3.1598
X7.6665Y-3.402
X7.7075Y-3.7157
X7.7165Y-2.1575
X7.7205Y-1.9685
X7.8386Y-1.9685
X7.9055Y-1.9803
X7.9055Y-2.0984
X7.9055Y-2.2165
X7.9055Y-2.3346
X7.9055Y-2.4528
X7.9055Y-2.5709
X7.9055Y-2.689
X7.9055Y-2.8071
X7.9055Y-2.9252
X7.9055Y-3.0433
X7.9055Y-3.1614
X7.9055Y-3.2795
X7.9055Y-3.3976
X7.9055Y-3.5157
X7.9055Y-3.6339
X7.9055Y-3.752
X7.9055Y-3.8701
T2
X7.2598Y-4.4945
X7.3476Y-4.0846
X7.3598Y-4.4945
X7.3976Y-3.9846
X7.4476Y-4.0846
X7.4976Y-3.9846
X7.5476Y-4.0846
X7.5976Y-3.9846
X7.6476Y-4.0846
X7.6854Y-4.4945
X7.6976Y-3.9846
X7.7854Y-4.4945
T3
X3.785Y-2.7413
X3.785Y-2.8413
X3.785Y-2.9413
X3.785Y-3.0413
X3.785Y-3.1413
X3.885Y-2.7413
X3.885Y-2.8413
X3.885Y-2.9413
X3.885Y-3.0413
X3.885Y-3.1413
X4.1709Y-2.8504
X4.1709Y-2.9504
X4.1709Y-3.0504
X4.1709Y-3.1504
X4.1709Y-3.2504
X4.2709Y-2.8504
X4.2709Y-2.9504
X4.2709Y-3.0504
X4.2709Y-3.1504
X4.2709Y-3.2504
T4
X2.515Y-5.1512
X2.515Y-5.348
X2.7118Y-5.1512
X2.7118Y-5.348
X2.9087Y-5.1512
X2.9087Y-5.348
X3.1055Y-5.1512
X3.1055Y-5.348
X3.2429Y-4.3543
X3.2429Y-4.5512
X3.4398Y-4.3543
X3.4398Y-4.5512
X3.6366Y-4.3543
X3.6366Y-4.5512
X3.8335Y-4.3543
X3.8335Y-4.5512
X3.8429Y-5.1512
X3.8429Y-5.348
X4.0398Y-5.1512
X4.0398Y-5.348
X4.2366Y-5.1512
X4.2366Y-5.348
X4.4335Y-5.1512
X4.4335Y-5.348
X4.4429Y-4.3543
X4.4429Y-4.5512
X4.6398Y-4.3543
X4.6398Y-4.5512
X4.8366Y-4.3543
X4.8366Y-4.5512
X5.0335Y-4.3543
X5.0335Y-4.5512
X5.0429Y-5.1512
X5.0429Y-5.348
X5.2398Y-5.1512
X5.2398Y-5.348
X5.4366Y-5.1512
X5.4366Y-5.348
X5.6335Y-5.1512
X5.6335Y-5.348
X5.6429Y-4.3543
X5.6429Y-4.5512
X5.8398Y-4.3543
X5.8398Y-4.5512
X6.0366Y-4.3543
X6.0366Y-4.5512
X6.2335Y-4.3543
X6.2335Y-4.5512
X6.2335Y-5.1512
X6.2335Y-5.348
X6.4303Y-5.1512
X6.4303Y-5.348
X6.6272Y-5.1512
X6.6272Y-5.348
X6.824Y-5.1512
X6.824Y-5.348
T5
X7.2136Y-4.2146
X7.8317Y-4.2146
T0
M30
