M48
; DRILL file {KiCad 8.99.0-1891-ge2bd76bdce} date 2024-11-18T13:52:14+0200
; FORMAT={-:-/ absolute / metric / decimal}
; #@! TF.CreationDate,2024-11-18T13:52:14+02:00
; #@! TF.GenerationSoftware,Kicad,Pcbnew,8.99.0-1891-ge2bd76bdce
; #@! TF.FileFunction,Plated,1,2,PTH
FMAT,2
METRIC
; #@! TA.AperFunction,Plated,PTH,ViaDrill
T1C0.300
; #@! TA.AperFunction,Plated,PTH,ComponentDrill
T2C0.700
; #@! TA.AperFunction,Plated,PTH,ComponentDrill
T3C0.800
; #@! TA.AperFunction,Plated,PTH,ComponentDrill
T4C1.800
%
G90
G05
T1
X96.266Y-88.9
X96.266Y-91.44
X96.266Y-93.98
X96.266Y-96.52
X96.266Y-99.06
X96.266Y-101.6
X96.266Y-104.14
X96.266Y-106.68
X96.266Y-109.22
X96.266Y-111.76
X96.266Y-114.3
X96.266Y-116.84
X96.266Y-119.38
X96.266Y-121.92
X96.774Y-87.122
X97.79Y-122.682
X98.5Y-110.34
X98.5Y-112.88
X98.5Y-115.42
X98.5Y-117.96
X98.5Y-120.5
X99.314Y-87.122
X99.32Y-90.5
X100.33Y-122.682
X101.43Y-103.47
X101.5Y-110.84
X101.5Y-113.38
X101.5Y-115.92
X101.5Y-118.46
X101.75Y-120.75
X101.854Y-87.122
X101.86Y-90.5
X102.29Y-103.34
X102.87Y-122.682
X103.25Y-105.0
X103.25Y-106.5
X104.0Y-108.25
X104.394Y-87.122
X104.4Y-90.5
X104.5Y-99.0
X104.5Y-101.25
X105.41Y-122.682
X105.48Y-115.36
X105.75Y-110.0
X106.0Y-95.0
X106.25Y-97.5
X106.934Y-87.122
X106.94Y-90.5
X107.5Y-99.0
X107.5Y-101.25
X107.5Y-111.5
X107.75Y-95.75
X107.95Y-122.682
X109.25Y-94.25
X109.25Y-113.0
X109.474Y-87.122
X109.48Y-90.5
X109.5Y-107.0
X110.0Y-99.0
X110.0Y-101.0
X110.236Y-122.682
X110.5Y-97.5
X110.75Y-95.75
X111.5Y-113.0
X112.014Y-87.122
X112.02Y-90.5
X112.19Y-99.17
X112.75Y-106.75
X112.776Y-122.682
X113.0Y-110.0
X114.0Y-115.5
X114.0Y-116.75
X114.03Y-99.5
X114.5Y-113.0
X114.554Y-87.122
X114.56Y-90.5
X114.75Y-94.25
X115.316Y-122.682
X115.36Y-104.58
X116.03Y-97.69
X116.5Y-94.25
X116.5Y-115.5
X116.5Y-119.0
X116.75Y-113.25
X117.094Y-87.122
X117.1Y-90.5
X117.75Y-95.75
X117.856Y-122.682
X119.634Y-87.122
X119.64Y-90.5
X119.75Y-94.25
X120.31Y-109.29
X120.396Y-122.682
X120.5Y-95.75
X122.174Y-87.122
X122.18Y-90.5
X122.5Y-94.25
X122.68Y-104.82
X122.75Y-99.75
X122.936Y-122.682
X123.05Y-107.4
X123.25Y-95.75
X123.79Y-102.75
X124.714Y-87.122
X124.72Y-90.5
X125.0Y-94.25
X125.45Y-105.2
X125.476Y-122.682
X125.5Y-95.75
X126.79Y-101.02
X127.0Y-116.0
X127.0Y-120.25
X127.254Y-87.122
X127.26Y-90.5
X127.5Y-95.75
X127.64Y-106.4
X128.016Y-122.682
X128.96Y-108.48
X129.0Y-94.25
X129.5Y-95.75
X129.794Y-87.122
X129.8Y-90.5
X130.556Y-122.682
X131.5Y-95.75
X132.25Y-94.25
X132.334Y-87.122
X132.34Y-90.5
X132.48Y-108.61
X132.71Y-104.84
X133.0Y-101.0
X133.096Y-122.682
X133.66Y-106.68
X134.0Y-95.75
X134.86Y-115.2
X134.874Y-87.122
X134.88Y-90.5
X135.25Y-94.25
X135.61Y-107.73
X135.636Y-122.682
X136.25Y-95.75
X136.74Y-109.77
X137.414Y-87.122
X137.42Y-90.5
X138.176Y-122.682
X138.5Y-94.25
X138.75Y-95.75
X139.44Y-102.46
X139.44Y-103.84
X139.954Y-87.122
X139.96Y-90.5
X140.25Y-117.75
X140.43Y-115.2
X140.716Y-122.682
X141.59Y-95.76
X141.7Y-93.46
X142.14Y-115.99
X142.45Y-122.11
X142.494Y-87.122
X142.5Y-90.5
X142.58Y-114.17
X142.75Y-97.25
X142.91Y-108.88
X143.256Y-122.682
X144.25Y-100.0
X144.75Y-118.25
X145.5Y-100.0
X145.57Y-95.72
X145.57Y-97.93
X145.58Y-106.73
X145.796Y-122.682
X146.09Y-112.19
X146.5Y-95.25
X146.75Y-100.0
X147.2Y-121.3
X147.96Y-92.62
X148.336Y-122.682
X149.35Y-110.11
X149.69Y-94.62
X149.83Y-105.95
X150.5Y-91.5
X150.79Y-107.94
X150.876Y-122.682
X151.58Y-98.19
X151.74Y-111.39
X152.0Y-116.5
X152.0Y-119.5
X153.0Y-91.75
X153.25Y-103.25
X153.26Y-99.99
X153.416Y-122.682
X153.5Y-106.5
X153.5Y-109.0
X155.0Y-91.75
X155.956Y-122.682
X157.734Y-87.122
X157.988Y-89.408
X157.988Y-91.948
X157.988Y-94.488
X157.988Y-97.028
X157.988Y-99.568
X157.988Y-102.108
X157.988Y-104.648
X157.988Y-107.188
X157.988Y-109.728
X157.988Y-112.268
X157.988Y-114.808
X157.988Y-117.348
X157.988Y-119.888
X157.988Y-122.428
T2
X101.424Y-95.908
X101.424Y-97.178
X101.424Y-98.448
X101.424Y-99.718
X101.424Y-100.988
X102.694Y-95.908
X102.694Y-97.178
X102.694Y-98.448
X102.694Y-99.718
X102.694Y-100.988
X147.399Y-113.18
X147.399Y-114.45
X148.669Y-113.18
X148.669Y-114.45
X149.939Y-113.18
X149.939Y-114.45
X151.209Y-113.18
X151.209Y-114.45
X152.479Y-113.18
X152.479Y-114.45
T3
X120.62Y-98.24
X120.62Y-103.32
X125.7Y-98.24
X125.7Y-103.32
X128.24Y-98.24
X128.24Y-103.32
X130.78Y-98.24
X130.78Y-103.32
T4
X120.635Y-112.3
X120.635Y-117.8
X124.835Y-112.3
X124.835Y-117.8
X129.035Y-112.3
X129.035Y-117.8
X133.235Y-112.3
X133.235Y-117.8
X137.435Y-112.3
X137.435Y-117.8
M30
