%TF.GenerationSoftware,KiCad,Pcbnew,8.99.0-1891-ge2bd76bdce*%
%TF.CreationDate,2024-11-18T13:52:10+02:00*%
%TF.ProjectId,mini_board_relay_analog,6d696e69-5f62-46f6-9172-645f72656c61,rev?*%
%TF.SameCoordinates,Original*%
%TF.FileFunction,Copper,L2,Bot*%
%TF.FilePolarity,Positive*%
%FSLAX46Y46*%
G04 Gerber Fmt 4.6, Leading zero omitted, Abs format (unit mm)*
G04 Created by KiCad (PCBNEW 8.99.0-1891-ge2bd76bdce) date 2024-11-18 13:52:10*
%MOMM*%
%LPD*%
G01*
G04 APERTURE LIST*
G04 Aperture macros list*
%AMRoundRect*
0 Rectangle with rounded corners*
0 $1 Rounding radius*
0 $2 $3 $4 $5 $6 $7 $8 $9 X,Y pos of 4 corners*
0 Add a 4 corners polygon primitive as box body*
4,1,4,$2,$3,$4,$5,$6,$7,$8,$9,$2,$3,0*
0 Add four circle primitives for the rounded corners*
1,1,$1+$1,$2,$3*
1,1,$1+$1,$4,$5*
1,1,$1+$1,$6,$7*
1,1,$1+$1,$8,$9*
0 Add four rect primitives between the rounded corners*
20,1,$1+$1,$2,$3,$4,$5,0*
20,1,$1+$1,$4,$5,$6,$7,0*
20,1,$1+$1,$6,$7,$8,$9,0*
20,1,$1+$1,$8,$9,$2,$3,0*%
G04 Aperture macros list end*
%ADD10C,0.150000*%
%TA.AperFunction,NonConductor*%
%ADD11C,0.150000*%
%TD*%
%TA.AperFunction,ComponentPad*%
%ADD12R,1.000000X1.000000*%
%TD*%
%TA.AperFunction,ComponentPad*%
%ADD13O,1.000000X1.000000*%
%TD*%
%TA.AperFunction,ComponentPad*%
%ADD14RoundRect,0.250500X0.499500X-0.499500X0.499500X0.499500X-0.499500X0.499500X-0.499500X-0.499500X0*%
%TD*%
%TA.AperFunction,ComponentPad*%
%ADD15C,1.500000*%
%TD*%
%TA.AperFunction,ComponentPad*%
%ADD16RoundRect,0.250001X1.099999X1.599999X-1.099999X1.599999X-1.099999X-1.599999X1.099999X-1.599999X0*%
%TD*%
%TA.AperFunction,ComponentPad*%
%ADD17O,2.700000X3.700000*%
%TD*%
%TA.AperFunction,ViaPad*%
%ADD18C,0.600000*%
%TD*%
%TA.AperFunction,Conductor*%
%ADD19C,0.200000*%
%TD*%
%TA.AperFunction,Conductor*%
%ADD20C,1.500000*%
%TD*%
G04 APERTURE END LIST*
D10*
D11*
X154859887Y-87936065D02*
X154717030Y-87983684D01*
X154717030Y-87983684D02*
X154669411Y-88031303D01*
X154669411Y-88031303D02*
X154621792Y-88126541D01*
X154621792Y-88126541D02*
X154621792Y-88269398D01*
X154621792Y-88269398D02*
X154669411Y-88364636D01*
X154669411Y-88364636D02*
X154717030Y-88412256D01*
X154717030Y-88412256D02*
X154812268Y-88459875D01*
X154812268Y-88459875D02*
X155193220Y-88459875D01*
X155193220Y-88459875D02*
X155193220Y-87459875D01*
X155193220Y-87459875D02*
X154859887Y-87459875D01*
X154859887Y-87459875D02*
X154764649Y-87507494D01*
X154764649Y-87507494D02*
X154717030Y-87555113D01*
X154717030Y-87555113D02*
X154669411Y-87650351D01*
X154669411Y-87650351D02*
X154669411Y-87745589D01*
X154669411Y-87745589D02*
X154717030Y-87840827D01*
X154717030Y-87840827D02*
X154764649Y-87888446D01*
X154764649Y-87888446D02*
X154859887Y-87936065D01*
X154859887Y-87936065D02*
X155193220Y-87936065D01*
X154193220Y-88459875D02*
X154193220Y-87459875D01*
X153621792Y-88459875D02*
X154050363Y-87888446D01*
X153621792Y-87459875D02*
X154193220Y-88031303D01*
X152574172Y-87459875D02*
X152002744Y-87459875D01*
X152288458Y-88459875D02*
X152288458Y-87459875D01*
X151288458Y-88412256D02*
X151383696Y-88459875D01*
X151383696Y-88459875D02*
X151574172Y-88459875D01*
X151574172Y-88459875D02*
X151669410Y-88412256D01*
X151669410Y-88412256D02*
X151717029Y-88317017D01*
X151717029Y-88317017D02*
X151717029Y-87936065D01*
X151717029Y-87936065D02*
X151669410Y-87840827D01*
X151669410Y-87840827D02*
X151574172Y-87793208D01*
X151574172Y-87793208D02*
X151383696Y-87793208D01*
X151383696Y-87793208D02*
X151288458Y-87840827D01*
X151288458Y-87840827D02*
X151240839Y-87936065D01*
X151240839Y-87936065D02*
X151240839Y-88031303D01*
X151240839Y-88031303D02*
X151717029Y-88126541D01*
X150669410Y-88459875D02*
X150764648Y-88412256D01*
X150764648Y-88412256D02*
X150812267Y-88317017D01*
X150812267Y-88317017D02*
X150812267Y-87459875D01*
X149907505Y-88412256D02*
X150002743Y-88459875D01*
X150002743Y-88459875D02*
X150193219Y-88459875D01*
X150193219Y-88459875D02*
X150288457Y-88412256D01*
X150288457Y-88412256D02*
X150336076Y-88317017D01*
X150336076Y-88317017D02*
X150336076Y-87936065D01*
X150336076Y-87936065D02*
X150288457Y-87840827D01*
X150288457Y-87840827D02*
X150193219Y-87793208D01*
X150193219Y-87793208D02*
X150002743Y-87793208D01*
X150002743Y-87793208D02*
X149907505Y-87840827D01*
X149907505Y-87840827D02*
X149859886Y-87936065D01*
X149859886Y-87936065D02*
X149859886Y-88031303D01*
X149859886Y-88031303D02*
X150336076Y-88126541D01*
X149431314Y-88459875D02*
X149431314Y-87793208D01*
X149431314Y-87888446D02*
X149383695Y-87840827D01*
X149383695Y-87840827D02*
X149288457Y-87793208D01*
X149288457Y-87793208D02*
X149145600Y-87793208D01*
X149145600Y-87793208D02*
X149050362Y-87840827D01*
X149050362Y-87840827D02*
X149002743Y-87936065D01*
X149002743Y-87936065D02*
X149002743Y-88459875D01*
X149002743Y-87936065D02*
X148955124Y-87840827D01*
X148955124Y-87840827D02*
X148859886Y-87793208D01*
X148859886Y-87793208D02*
X148717029Y-87793208D01*
X148717029Y-87793208D02*
X148621790Y-87840827D01*
X148621790Y-87840827D02*
X148574171Y-87936065D01*
X148574171Y-87936065D02*
X148574171Y-88459875D01*
X147669410Y-88459875D02*
X147669410Y-87936065D01*
X147669410Y-87936065D02*
X147717029Y-87840827D01*
X147717029Y-87840827D02*
X147812267Y-87793208D01*
X147812267Y-87793208D02*
X148002743Y-87793208D01*
X148002743Y-87793208D02*
X148097981Y-87840827D01*
X147669410Y-88412256D02*
X147764648Y-88459875D01*
X147764648Y-88459875D02*
X148002743Y-88459875D01*
X148002743Y-88459875D02*
X148097981Y-88412256D01*
X148097981Y-88412256D02*
X148145600Y-88317017D01*
X148145600Y-88317017D02*
X148145600Y-88221779D01*
X148145600Y-88221779D02*
X148097981Y-88126541D01*
X148097981Y-88126541D02*
X148002743Y-88078922D01*
X148002743Y-88078922D02*
X147764648Y-88078922D01*
X147764648Y-88078922D02*
X147669410Y-88031303D01*
X147336076Y-87793208D02*
X146955124Y-87793208D01*
X147193219Y-87459875D02*
X147193219Y-88317017D01*
X147193219Y-88317017D02*
X147145600Y-88412256D01*
X147145600Y-88412256D02*
X147050362Y-88459875D01*
X147050362Y-88459875D02*
X146955124Y-88459875D01*
X146621790Y-88459875D02*
X146621790Y-87793208D01*
X146621790Y-87459875D02*
X146669409Y-87507494D01*
X146669409Y-87507494D02*
X146621790Y-87555113D01*
X146621790Y-87555113D02*
X146574171Y-87507494D01*
X146574171Y-87507494D02*
X146621790Y-87459875D01*
X146621790Y-87459875D02*
X146621790Y-87555113D01*
X145717029Y-88412256D02*
X145812267Y-88459875D01*
X145812267Y-88459875D02*
X146002743Y-88459875D01*
X146002743Y-88459875D02*
X146097981Y-88412256D01*
X146097981Y-88412256D02*
X146145600Y-88364636D01*
X146145600Y-88364636D02*
X146193219Y-88269398D01*
X146193219Y-88269398D02*
X146193219Y-87983684D01*
X146193219Y-87983684D02*
X146145600Y-87888446D01*
X146145600Y-87888446D02*
X146097981Y-87840827D01*
X146097981Y-87840827D02*
X146002743Y-87793208D01*
X146002743Y-87793208D02*
X145812267Y-87793208D01*
X145812267Y-87793208D02*
X145717029Y-87840827D01*
X145336076Y-88412256D02*
X145240838Y-88459875D01*
X145240838Y-88459875D02*
X145050362Y-88459875D01*
X145050362Y-88459875D02*
X144955124Y-88412256D01*
X144955124Y-88412256D02*
X144907505Y-88317017D01*
X144907505Y-88317017D02*
X144907505Y-88269398D01*
X144907505Y-88269398D02*
X144955124Y-88174160D01*
X144955124Y-88174160D02*
X145050362Y-88126541D01*
X145050362Y-88126541D02*
X145193219Y-88126541D01*
X145193219Y-88126541D02*
X145288457Y-88078922D01*
X145288457Y-88078922D02*
X145336076Y-87983684D01*
X145336076Y-87983684D02*
X145336076Y-87936065D01*
X145336076Y-87936065D02*
X145288457Y-87840827D01*
X145288457Y-87840827D02*
X145193219Y-87793208D01*
X145193219Y-87793208D02*
X145050362Y-87793208D01*
X145050362Y-87793208D02*
X144955124Y-87840827D01*
X154621792Y-90069819D02*
X154955125Y-89593628D01*
X155193220Y-90069819D02*
X155193220Y-89069819D01*
X155193220Y-89069819D02*
X154812268Y-89069819D01*
X154812268Y-89069819D02*
X154717030Y-89117438D01*
X154717030Y-89117438D02*
X154669411Y-89165057D01*
X154669411Y-89165057D02*
X154621792Y-89260295D01*
X154621792Y-89260295D02*
X154621792Y-89403152D01*
X154621792Y-89403152D02*
X154669411Y-89498390D01*
X154669411Y-89498390D02*
X154717030Y-89546009D01*
X154717030Y-89546009D02*
X154812268Y-89593628D01*
X154812268Y-89593628D02*
X155193220Y-89593628D01*
X153812268Y-90022200D02*
X153907506Y-90069819D01*
X153907506Y-90069819D02*
X154097982Y-90069819D01*
X154097982Y-90069819D02*
X154193220Y-90022200D01*
X154193220Y-90022200D02*
X154240839Y-89926961D01*
X154240839Y-89926961D02*
X154240839Y-89546009D01*
X154240839Y-89546009D02*
X154193220Y-89450771D01*
X154193220Y-89450771D02*
X154097982Y-89403152D01*
X154097982Y-89403152D02*
X153907506Y-89403152D01*
X153907506Y-89403152D02*
X153812268Y-89450771D01*
X153812268Y-89450771D02*
X153764649Y-89546009D01*
X153764649Y-89546009D02*
X153764649Y-89641247D01*
X153764649Y-89641247D02*
X154240839Y-89736485D01*
X153431315Y-89403152D02*
X153193220Y-90069819D01*
X153193220Y-90069819D02*
X152955125Y-89403152D01*
X151859886Y-89165057D02*
X151812267Y-89117438D01*
X151812267Y-89117438D02*
X151717029Y-89069819D01*
X151717029Y-89069819D02*
X151478934Y-89069819D01*
X151478934Y-89069819D02*
X151383696Y-89117438D01*
X151383696Y-89117438D02*
X151336077Y-89165057D01*
X151336077Y-89165057D02*
X151288458Y-89260295D01*
X151288458Y-89260295D02*
X151288458Y-89355533D01*
X151288458Y-89355533D02*
X151336077Y-89498390D01*
X151336077Y-89498390D02*
X151907505Y-90069819D01*
X151907505Y-90069819D02*
X151288458Y-90069819D01*
D12*
%TO.P,J2,1,Pin_1*%
%TO.N,GND*%
X102694000Y-95908000D03*
D13*
%TO.P,J2,2,Pin_2*%
X101424000Y-95908000D03*
%TO.P,J2,3,Pin_3*%
%TO.N,/AD0{slash}PA17*%
X102694000Y-97178000D03*
%TO.P,J2,4,Pin_4*%
%TO.N,EXT_PWR*%
X101424000Y-97178000D03*
%TO.P,J2,5,Pin_5*%
%TO.N,/PA16*%
X102694000Y-98448000D03*
%TO.P,J2,6,Pin_6*%
%TO.N,VSYS*%
X101424000Y-98448000D03*
%TO.P,J2,7,Pin_7*%
%TO.N,/PA15*%
X102694000Y-99718000D03*
%TO.P,J2,8,Pin_8*%
%TO.N,GND*%
X101424000Y-99718000D03*
%TO.P,J2,9,Pin_9*%
%TO.N,/PB3{slash}UTXD1*%
X102694000Y-100988000D03*
%TO.P,J2,10,Pin_10*%
%TO.N,/PB2{slash}URXD1*%
X101424000Y-100988000D03*
%TD*%
D14*
%TO.P,U2,1*%
%TO.N,VSYS*%
X120620000Y-103320000D03*
D15*
%TO.P,U2,3*%
%TO.N,/NO2*%
X125700000Y-103320000D03*
%TO.P,U2,4*%
%TO.N,/COM2*%
X128240000Y-103320000D03*
%TO.P,U2,5*%
%TO.N,/NC2*%
X130780000Y-103320000D03*
%TO.P,U2,8*%
%TO.N,/NC1*%
X130780000Y-98240000D03*
%TO.P,U2,9*%
%TO.N,/COM1*%
X128240000Y-98240000D03*
%TO.P,U2,10*%
%TO.N,/NO1*%
X125700000Y-98240000D03*
%TO.P,U2,12*%
%TO.N,Net-(D2-A)*%
X120620000Y-98240000D03*
%TD*%
D16*
%TO.P,J3,1,Pin_1*%
%TO.N,/ANALOG1*%
X137435000Y-117800000D03*
D17*
%TO.P,J3,2,Pin_2*%
%TO.N,/ANALOG2*%
X133235000Y-117800000D03*
%TO.P,J3,3,Pin_3*%
%TO.N,+3.3V_OUT*%
X129035000Y-117800000D03*
%TO.P,J3,4,Pin_4*%
%TO.N,/RX*%
X124835000Y-117800000D03*
%TO.P,J3,5,Pin_5*%
%TO.N,/ANALOG3*%
X120635000Y-117800000D03*
%TO.P,J3,6,Pin_6*%
%TO.N,/NC2*%
X137435000Y-112300000D03*
%TO.P,J3,7,Pin_7*%
%TO.N,/NO2*%
X133235000Y-112300000D03*
%TO.P,J3,8,Pin_8*%
%TO.N,GND*%
X129035000Y-112300000D03*
%TO.P,J3,9,Pin_9*%
%TO.N,/TX*%
X124835000Y-112300000D03*
%TO.P,J3,10,Pin_10*%
%TO.N,/COM2*%
X120635000Y-112300000D03*
%TD*%
D12*
%TO.P,J1,1,Pin_1*%
%TO.N,/ERASE*%
X147399000Y-113180000D03*
D13*
%TO.P,J1,2,Pin_2*%
%TO.N,+3.3V*%
X147399000Y-114450000D03*
%TO.P,J1,3,Pin_3*%
%TO.N,GND*%
X148669000Y-113180000D03*
%TO.P,J1,4,Pin_4*%
%TO.N,unconnected-(J1-Pin_4-Pad4)*%
X148669000Y-114450000D03*
%TO.P,J1,5,Pin_5*%
%TO.N,unconnected-(J1-Pin_5-Pad5)*%
X149939000Y-113180000D03*
%TO.P,J1,6,Pin_6*%
%TO.N,/AD3{slash}PA20*%
X149939000Y-114450000D03*
%TO.P,J1,7,Pin_7*%
%TO.N,/AD2{slash}PA19*%
X151209000Y-113180000D03*
%TO.P,J1,8,Pin_8*%
%TO.N,+3.3V*%
X151209000Y-114450000D03*
%TO.P,J1,9,Pin_9*%
%TO.N,/AD1{slash}PA18*%
X152479000Y-113180000D03*
%TO.P,J1,10,Pin_10*%
%TO.N,GND*%
X152479000Y-114450000D03*
%TD*%
D18*
%TO.N,GND*%
X134874000Y-87122000D03*
X129000000Y-94250000D03*
X146750000Y-100000000D03*
X127500000Y-95750000D03*
X115360000Y-104580000D03*
X112750000Y-106750000D03*
X133096000Y-122682000D03*
X153416000Y-122682000D03*
X152000000Y-119500000D03*
X139954000Y-87122000D03*
X112776000Y-122682000D03*
X106940000Y-90500000D03*
X147960000Y-92620000D03*
X157988000Y-89408000D03*
X155956000Y-122682000D03*
X117856000Y-122682000D03*
X119640000Y-90500000D03*
X149690000Y-94620000D03*
X105750000Y-110000000D03*
X150500000Y-91500000D03*
X145570000Y-97930000D03*
X101860000Y-90500000D03*
X114554000Y-87122000D03*
X144750000Y-118250000D03*
X112020000Y-90500000D03*
X125500000Y-95750000D03*
X149830000Y-105950000D03*
X96266000Y-119380000D03*
X119634000Y-87122000D03*
X124720000Y-90500000D03*
X153500000Y-106500000D03*
X145796000Y-122682000D03*
X96266000Y-116840000D03*
X98500000Y-115420000D03*
X110000000Y-99000000D03*
X122936000Y-122682000D03*
X142580000Y-114170000D03*
X142140000Y-115990000D03*
X139960000Y-90500000D03*
X152000000Y-116500000D03*
X109250000Y-94250000D03*
X96266000Y-109220000D03*
X101750000Y-120750000D03*
X114000000Y-116750000D03*
X116500000Y-94250000D03*
X110236000Y-122682000D03*
X125476000Y-122682000D03*
X157988000Y-112268000D03*
X103250000Y-106500000D03*
X157988000Y-109728000D03*
X115316000Y-122682000D03*
X137420000Y-90500000D03*
X96266000Y-101600000D03*
X132250000Y-94250000D03*
X114560000Y-90500000D03*
X134000000Y-95750000D03*
X96266000Y-88900000D03*
X143256000Y-122682000D03*
X117750000Y-95750000D03*
X153500000Y-109000000D03*
X122500000Y-94250000D03*
X109250000Y-113000000D03*
X138500000Y-94250000D03*
X132334000Y-87122000D03*
X129800000Y-90500000D03*
X138750000Y-95750000D03*
X157988000Y-104648000D03*
X101500000Y-115920000D03*
X116500000Y-115500000D03*
X135636000Y-122682000D03*
X140250000Y-117750000D03*
X116500000Y-119000000D03*
X101500000Y-110840000D03*
X132340000Y-90500000D03*
X142450000Y-122110000D03*
X153260000Y-99990000D03*
X107750000Y-95750000D03*
X150790000Y-107940000D03*
X116030000Y-97690000D03*
X110000000Y-101000000D03*
X100330000Y-122682000D03*
X101500000Y-118460000D03*
X114500000Y-113000000D03*
X157988000Y-122428000D03*
X130556000Y-122682000D03*
X142494000Y-87122000D03*
X131500000Y-95750000D03*
X125000000Y-94250000D03*
X129794000Y-87122000D03*
X99314000Y-87122000D03*
X117100000Y-90500000D03*
X96266000Y-121920000D03*
X111500000Y-113000000D03*
X96266000Y-96520000D03*
X112190000Y-99170000D03*
X96266000Y-114300000D03*
X133000000Y-101000000D03*
X129500000Y-95750000D03*
X127254000Y-87122000D03*
X157988000Y-97028000D03*
X97790000Y-122682000D03*
X110750000Y-95750000D03*
X114030000Y-99500000D03*
X122750000Y-99750000D03*
X120500000Y-95750000D03*
X157734000Y-87122000D03*
X147200000Y-121300000D03*
X144250000Y-100000000D03*
X120396000Y-122682000D03*
X114000000Y-115500000D03*
X109474000Y-87122000D03*
X157988000Y-94488000D03*
X153250000Y-103250000D03*
X145500000Y-100000000D03*
X155000000Y-91750000D03*
X107500000Y-111500000D03*
X96266000Y-93980000D03*
X110500000Y-97500000D03*
X157988000Y-119888000D03*
X148336000Y-122682000D03*
X109500000Y-107000000D03*
X119750000Y-94250000D03*
X139440000Y-102460000D03*
X138176000Y-122682000D03*
X135250000Y-94250000D03*
X157988000Y-99568000D03*
X142500000Y-90500000D03*
X136250000Y-95750000D03*
X142750000Y-97250000D03*
X116750000Y-113250000D03*
X102870000Y-122682000D03*
X140716000Y-122682000D03*
X103250000Y-105000000D03*
X101854000Y-87122000D03*
X157988000Y-91948000D03*
X104400000Y-90500000D03*
X96266000Y-104140000D03*
X127260000Y-90500000D03*
X107500000Y-101250000D03*
X150876000Y-122682000D03*
X96266000Y-111760000D03*
X96266000Y-106680000D03*
X145580000Y-106730000D03*
X106250000Y-97500000D03*
X98500000Y-110340000D03*
X96266000Y-91440000D03*
X157988000Y-114808000D03*
X141590000Y-95760000D03*
X141700000Y-93460000D03*
X123250000Y-95750000D03*
X149350000Y-110110000D03*
X99320000Y-90500000D03*
X139440000Y-103840000D03*
X96266000Y-99060000D03*
X107500000Y-99000000D03*
X105480000Y-115360000D03*
X104500000Y-99000000D03*
X104500000Y-101250000D03*
X112014000Y-87122000D03*
X106000000Y-95000000D03*
X151580000Y-98190000D03*
X128016000Y-122682000D03*
X114750000Y-94250000D03*
X117094000Y-87122000D03*
X98500000Y-120500000D03*
X157988000Y-117348000D03*
X153000000Y-91750000D03*
X104000000Y-108250000D03*
X107950000Y-122682000D03*
X127000000Y-116000000D03*
X109480000Y-90500000D03*
X106934000Y-87122000D03*
X134880000Y-90500000D03*
X104394000Y-87122000D03*
X98500000Y-112880000D03*
X96774000Y-87122000D03*
X105410000Y-122682000D03*
X127000000Y-120250000D03*
X157988000Y-102108000D03*
X122174000Y-87122000D03*
X124714000Y-87122000D03*
X137414000Y-87122000D03*
X145570000Y-95720000D03*
X98500000Y-117960000D03*
X157988000Y-107188000D03*
X101500000Y-113380000D03*
X113000000Y-110000000D03*
X146500000Y-95250000D03*
X142910000Y-108880000D03*
X122180000Y-90500000D03*
%TO.N,/PB3{slash}UTXD1*%
X102290000Y-103340000D03*
%TO.N,/PB2{slash}URXD1*%
X101430000Y-103470000D03*
%TO.N,/AD3{slash}PA20*%
X146090000Y-112190000D03*
%TO.N,/AD1{slash}PA18*%
X151740000Y-111390000D03*
%TO.N,/NC2*%
X136740000Y-109770000D03*
X133660000Y-106680000D03*
X135610000Y-107730000D03*
X132710000Y-104840000D03*
%TO.N,/NO2*%
X125450000Y-105200000D03*
X127640000Y-106400000D03*
X132480000Y-108610000D03*
X128960000Y-108480000D03*
%TO.N,/COM2*%
X126790000Y-101020000D03*
X122680000Y-104820000D03*
X120310000Y-109290000D03*
X123050000Y-107400000D03*
X123790000Y-102750000D03*
%TO.N,/ANALOG3*%
X140430000Y-115200000D03*
X134860000Y-115200000D03*
%TD*%
D19*
%TO.N,/PB3{slash}UTXD1*%
X102694000Y-100988000D02*
X102694000Y-102936000D01*
X102694000Y-102936000D02*
X102290000Y-103340000D01*
%TO.N,/PB2{slash}URXD1*%
X101424000Y-100988000D02*
X101424000Y-103464000D01*
X101424000Y-103464000D02*
X101430000Y-103470000D01*
%TO.N,/AD3{slash}PA20*%
X148869000Y-115520000D02*
X149939000Y-114450000D01*
X146980000Y-115520000D02*
X148869000Y-115520000D01*
X146090000Y-112190000D02*
X146090000Y-114630000D01*
X146090000Y-114630000D02*
X146980000Y-115520000D01*
%TO.N,/AD1{slash}PA18*%
X151740000Y-111390000D02*
X152479000Y-112129000D01*
X152479000Y-112129000D02*
X152479000Y-113180000D01*
D20*
%TO.N,/NC2*%
X137310000Y-112175000D02*
X137435000Y-112300000D01*
X130780000Y-103320000D02*
X137310000Y-109850000D01*
X137310000Y-109850000D02*
X137310000Y-112175000D01*
%TO.N,/NO2*%
X128950000Y-108290000D02*
X131620000Y-108290000D01*
X125700000Y-103320000D02*
X125700000Y-105040000D01*
X131620000Y-108290000D02*
X133235000Y-109905000D01*
X133235000Y-109905000D02*
X133235000Y-112300000D01*
X125700000Y-105040000D02*
X128950000Y-108290000D01*
%TO.N,/COM2*%
X124890000Y-101350000D02*
X123050000Y-103160000D01*
X128260000Y-102280000D02*
X127360000Y-101350000D01*
X123070000Y-106990000D02*
X120635000Y-109465000D01*
X127360000Y-101350000D02*
X124890000Y-101350000D01*
X128240000Y-103320000D02*
X128260000Y-102280000D01*
X120635000Y-109465000D02*
X120635000Y-112300000D01*
X123050000Y-103160000D02*
X123070000Y-106990000D01*
D19*
%TO.N,/ANALOG3*%
X140430000Y-115200000D02*
X134860000Y-115200000D01*
%TD*%
%TA.AperFunction,Conductor*%
%TO.N,GND*%
G36*
X159002539Y-86170185D02*
G01*
X159048294Y-86222989D01*
X159059500Y-86274500D01*
X159059500Y-123225500D01*
X159039815Y-123292539D01*
X158987011Y-123338294D01*
X158935500Y-123349500D01*
X95184500Y-123349500D01*
X95117461Y-123329815D01*
X95071706Y-123277011D01*
X95060500Y-123225500D01*
X95060500Y-117178711D01*
X118784500Y-117178711D01*
X118784500Y-118421288D01*
X118816161Y-118661785D01*
X118878947Y-118896104D01*
X118971773Y-119120205D01*
X118971776Y-119120212D01*
X119093064Y-119330289D01*
X119093066Y-119330292D01*
X119093067Y-119330293D01*
X119240733Y-119522736D01*
X119240739Y-119522743D01*
X119412256Y-119694260D01*
X119412263Y-119694266D01*
X119525321Y-119781018D01*
X119604711Y-119841936D01*
X119814788Y-119963224D01*
X120038900Y-120056054D01*
X120273211Y-120118838D01*
X120433940Y-120139998D01*
X120513711Y-120150500D01*
X120513712Y-120150500D01*
X120756289Y-120150500D01*
X120836052Y-120139999D01*
X120996789Y-120118838D01*
X121231100Y-120056054D01*
X121455212Y-119963224D01*
X121665289Y-119841936D01*
X121857738Y-119694265D01*
X122029265Y-119522738D01*
X122176936Y-119330289D01*
X122298224Y-119120212D01*
X122391054Y-118896100D01*
X122453838Y-118661789D01*
X122485500Y-118421288D01*
X122485500Y-117178712D01*
X122485500Y-117178711D01*
X122984500Y-117178711D01*
X122984500Y-118421288D01*
X123016161Y-118661785D01*
X123078947Y-118896104D01*
X123171773Y-119120205D01*
X123171776Y-119120212D01*
X123293064Y-119330289D01*
X123293066Y-119330292D01*
X123293067Y-119330293D01*
X123440733Y-119522736D01*
X123440739Y-119522743D01*
X123612256Y-119694260D01*
X123612263Y-119694266D01*
X123725321Y-119781018D01*
X123804711Y-119841936D01*
X124014788Y-119963224D01*
X124238900Y-120056054D01*
X124473211Y-120118838D01*
X124633940Y-120139998D01*
X124713711Y-120150500D01*
X124713712Y-120150500D01*
X124956289Y-120150500D01*
X125036052Y-120139999D01*
X125196789Y-120118838D01*
X125431100Y-120056054D01*
X125655212Y-119963224D01*
X125865289Y-119841936D01*
X126057738Y-119694265D01*
X126229265Y-119522738D01*
X126376936Y-119330289D01*
X126498224Y-119120212D01*
X126591054Y-118896100D01*
X126653838Y-118661789D01*
X126685500Y-118421288D01*
X126685500Y-117178712D01*
X126685500Y-117178711D01*
X127184500Y-117178711D01*
X127184500Y-118421288D01*
X127216161Y-118661785D01*
X127278947Y-118896104D01*
X127371773Y-119120205D01*
X127371776Y-119120212D01*
X127493064Y-119330289D01*
X127493066Y-119330292D01*
X127493067Y-119330293D01*
X127640733Y-119522736D01*
X127640739Y-119522743D01*
X127812256Y-119694260D01*
X127812263Y-119694266D01*
X127925321Y-119781018D01*
X128004711Y-119841936D01*
X128214788Y-119963224D01*
X128438900Y-120056054D01*
X128673211Y-120118838D01*
X128833940Y-120139998D01*
X128913711Y-120150500D01*
X128913712Y-120150500D01*
X129156289Y-120150500D01*
X129236052Y-120139999D01*
X129396789Y-120118838D01*
X129631100Y-120056054D01*
X129855212Y-119963224D01*
X130065289Y-119841936D01*
X130257738Y-119694265D01*
X130429265Y-119522738D01*
X130576936Y-119330289D01*
X130698224Y-119120212D01*
X130791054Y-118896100D01*
X130853838Y-118661789D01*
X130885500Y-118421288D01*
X130885500Y-117178712D01*
X130853838Y-116938211D01*
X130791054Y-116703900D01*
X130698224Y-116479788D01*
X130576936Y-116269711D01*
X130485073Y-116149992D01*
X130429266Y-116077263D01*
X130429260Y-116077256D01*
X130257743Y-115905739D01*
X130257736Y-115905733D01*
X130065293Y-115758067D01*
X130065292Y-115758066D01*
X130065289Y-115758064D01*
X129855212Y-115636776D01*
X129855205Y-115636773D01*
X129631104Y-115543947D01*
X129513944Y-115512554D01*
X129396789Y-115481162D01*
X129396788Y-115481161D01*
X129396785Y-115481161D01*
X129156289Y-115449500D01*
X129156288Y-115449500D01*
X128913712Y-115449500D01*
X128913711Y-115449500D01*
X128673214Y-115481161D01*
X128438895Y-115543947D01*
X128214794Y-115636773D01*
X128214785Y-115636777D01*
X128004706Y-115758067D01*
X127812263Y-115905733D01*
X127812256Y-115905739D01*
X127640739Y-116077256D01*
X127640733Y-116077263D01*
X127493067Y-116269706D01*
X127371777Y-116479785D01*
X127371773Y-116479794D01*
X127278947Y-116703895D01*
X127216161Y-116938214D01*
X127184500Y-117178711D01*
X126685500Y-117178711D01*
X126653838Y-116938211D01*
X126591054Y-116703900D01*
X126498224Y-116479788D01*
X126376936Y-116269711D01*
X126285073Y-116149992D01*
X126229266Y-116077263D01*
X126229260Y-116077256D01*
X126057743Y-115905739D01*
X126057736Y-115905733D01*
X125865293Y-115758067D01*
X125865292Y-115758066D01*
X125865289Y-115758064D01*
X125655212Y-115636776D01*
X125655205Y-115636773D01*
X125431104Y-115543947D01*
X125313944Y-115512554D01*
X125196789Y-115481162D01*
X125196788Y-115481161D01*
X125196785Y-115481161D01*
X124956289Y-115449500D01*
X124956288Y-115449500D01*
X124713712Y-115449500D01*
X124713711Y-115449500D01*
X124473214Y-115481161D01*
X124238895Y-115543947D01*
X124014794Y-115636773D01*
X124014785Y-115636777D01*
X123804706Y-115758067D01*
X123612263Y-115905733D01*
X123612256Y-115905739D01*
X123440739Y-116077256D01*
X123440733Y-116077263D01*
X123293067Y-116269706D01*
X123171777Y-116479785D01*
X123171773Y-116479794D01*
X123078947Y-116703895D01*
X123016161Y-116938214D01*
X122984500Y-117178711D01*
X122485500Y-117178711D01*
X122453838Y-116938211D01*
X122391054Y-116703900D01*
X122298224Y-116479788D01*
X122176936Y-116269711D01*
X122085073Y-116149992D01*
X122029266Y-116077263D01*
X122029260Y-116077256D01*
X121857743Y-115905739D01*
X121857736Y-115905733D01*
X121665293Y-115758067D01*
X121665292Y-115758066D01*
X121665289Y-115758064D01*
X121455212Y-115636776D01*
X121455205Y-115636773D01*
X121231104Y-115543947D01*
X121113944Y-115512554D01*
X120996789Y-115481162D01*
X120996788Y-115481161D01*
X120996785Y-115481161D01*
X120756289Y-115449500D01*
X120756288Y-115449500D01*
X120513712Y-115449500D01*
X120513711Y-115449500D01*
X120273214Y-115481161D01*
X120038895Y-115543947D01*
X119814794Y-115636773D01*
X119814785Y-115636777D01*
X119604706Y-115758067D01*
X119412263Y-115905733D01*
X119412256Y-115905739D01*
X119240739Y-116077256D01*
X119240733Y-116077263D01*
X119093067Y-116269706D01*
X118971777Y-116479785D01*
X118971773Y-116479794D01*
X118878947Y-116703895D01*
X118816161Y-116938214D01*
X118784500Y-117178711D01*
X95060500Y-117178711D01*
X95060500Y-111678711D01*
X118784500Y-111678711D01*
X118784500Y-112921288D01*
X118816161Y-113161785D01*
X118878947Y-113396104D01*
X118971679Y-113619978D01*
X118971776Y-113620212D01*
X119093064Y-113830289D01*
X119093066Y-113830292D01*
X119093067Y-113830293D01*
X119240733Y-114022736D01*
X119240739Y-114022743D01*
X119412256Y-114194260D01*
X119412263Y-114194266D01*
X119419736Y-114200000D01*
X119604711Y-114341936D01*
X119814788Y-114463224D01*
X120038900Y-114556054D01*
X120273211Y-114618838D01*
X120453586Y-114642584D01*
X120513711Y-114650500D01*
X120513712Y-114650500D01*
X120756289Y-114650500D01*
X120804388Y-114644167D01*
X120996789Y-114618838D01*
X121231100Y-114556054D01*
X121455212Y-114463224D01*
X121665289Y-114341936D01*
X121857738Y-114194265D01*
X122029265Y-114022738D01*
X122176936Y-113830289D01*
X122298224Y-113620212D01*
X122391054Y-113396100D01*
X122453838Y-113161789D01*
X122485500Y-112921288D01*
X122485500Y-111678712D01*
X122485500Y-111678711D01*
X122984500Y-111678711D01*
X122984500Y-112921288D01*
X123016161Y-113161785D01*
X123078947Y-113396104D01*
X123171679Y-113619978D01*
X123171776Y-113620212D01*
X123293064Y-113830289D01*
X123293066Y-113830292D01*
X123293067Y-113830293D01*
X123440733Y-114022736D01*
X123440739Y-114022743D01*
X123612256Y-114194260D01*
X123612263Y-114194266D01*
X123619736Y-114200000D01*
X123804711Y-114341936D01*
X124014788Y-114463224D01*
X124238900Y-114556054D01*
X124473211Y-114618838D01*
X124653586Y-114642584D01*
X124713711Y-114650500D01*
X124713712Y-114650500D01*
X124956289Y-114650500D01*
X125004388Y-114644167D01*
X125196789Y-114618838D01*
X125431100Y-114556054D01*
X125655212Y-114463224D01*
X125865289Y-114341936D01*
X126057738Y-114194265D01*
X126229265Y-114022738D01*
X126376936Y-113830289D01*
X126498224Y-113620212D01*
X126591054Y-113396100D01*
X126653838Y-113161789D01*
X126685500Y-112921288D01*
X126685500Y-111678751D01*
X127185000Y-111678751D01*
X127185000Y-112050000D01*
X128167096Y-112050000D01*
X128135000Y-112211358D01*
X128135000Y-112388642D01*
X128167096Y-112550000D01*
X127185000Y-112550000D01*
X127185000Y-112921248D01*
X127185001Y-112921264D01*
X127216653Y-113161687D01*
X127279421Y-113395939D01*
X127372220Y-113619978D01*
X127372227Y-113619993D01*
X127493480Y-113830009D01*
X127641110Y-114022405D01*
X127641116Y-114022412D01*
X127812587Y-114193883D01*
X127812594Y-114193889D01*
X128004990Y-114341519D01*
X128215006Y-114462772D01*
X128215021Y-114462779D01*
X128439060Y-114555578D01*
X128673312Y-114618346D01*
X128785000Y-114633049D01*
X128785000Y-113167904D01*
X128946358Y-113200000D01*
X129123642Y-113200000D01*
X129285000Y-113167904D01*
X129285000Y-114633048D01*
X129396687Y-114618346D01*
X129630939Y-114555578D01*
X129854978Y-114462779D01*
X129854993Y-114462772D01*
X130065009Y-114341519D01*
X130257405Y-114193889D01*
X130257412Y-114193883D01*
X130428883Y-114022412D01*
X130428889Y-114022405D01*
X130576519Y-113830009D01*
X130697772Y-113619993D01*
X130697779Y-113619978D01*
X130790578Y-113395939D01*
X130853346Y-113161687D01*
X130884998Y-112921264D01*
X130885000Y-112921248D01*
X130885000Y-112550000D01*
X129902904Y-112550000D01*
X129935000Y-112388642D01*
X129935000Y-112211358D01*
X129902904Y-112050000D01*
X130885000Y-112050000D01*
X130885000Y-111678751D01*
X130884998Y-111678735D01*
X130853346Y-111438312D01*
X130790578Y-111204060D01*
X130697779Y-110980021D01*
X130697772Y-110980006D01*
X130576519Y-110769990D01*
X130428889Y-110577594D01*
X130428883Y-110577587D01*
X130257412Y-110406116D01*
X130257405Y-110406110D01*
X130065009Y-110258480D01*
X129854993Y-110137227D01*
X129854978Y-110137220D01*
X129630939Y-110044421D01*
X129396687Y-109981653D01*
X129285000Y-109966948D01*
X129285000Y-111432095D01*
X129123642Y-111400000D01*
X128946358Y-111400000D01*
X128785000Y-111432095D01*
X128785000Y-109966948D01*
X128784999Y-109966948D01*
X128673312Y-109981653D01*
X128439060Y-110044421D01*
X128215021Y-110137220D01*
X128215006Y-110137227D01*
X128004990Y-110258480D01*
X127812594Y-110406110D01*
X127812587Y-110406116D01*
X127641116Y-110577587D01*
X127641110Y-110577594D01*
X127493480Y-110769990D01*
X127372227Y-110980006D01*
X127372220Y-110980021D01*
X127279421Y-111204060D01*
X127216653Y-111438312D01*
X127185001Y-111678735D01*
X127185000Y-111678751D01*
X126685500Y-111678751D01*
X126685500Y-111678712D01*
X126680948Y-111644139D01*
X126653838Y-111438214D01*
X126653838Y-111438211D01*
X126591054Y-111203900D01*
X126498224Y-110979788D01*
X126376936Y-110769711D01*
X126250265Y-110604630D01*
X126229266Y-110577263D01*
X126229260Y-110577256D01*
X126057743Y-110405739D01*
X126057736Y-110405733D01*
X125865293Y-110258067D01*
X125865292Y-110258066D01*
X125865289Y-110258064D01*
X125655212Y-110136776D01*
X125655205Y-110136773D01*
X125431104Y-110043947D01*
X125196785Y-109981161D01*
X124956289Y-109949500D01*
X124956288Y-109949500D01*
X124713712Y-109949500D01*
X124713711Y-109949500D01*
X124473214Y-109981161D01*
X124238895Y-110043947D01*
X124014794Y-110136773D01*
X124014785Y-110136777D01*
X123804706Y-110258067D01*
X123612263Y-110405733D01*
X123612256Y-110405739D01*
X123440739Y-110577256D01*
X123440733Y-110577263D01*
X123293067Y-110769706D01*
X123171777Y-110979785D01*
X123171773Y-110979794D01*
X123078947Y-111203895D01*
X123016161Y-111438214D01*
X122984500Y-111678711D01*
X122485500Y-111678711D01*
X122480948Y-111644139D01*
X122453838Y-111438214D01*
X122453838Y-111438211D01*
X122391054Y-111203900D01*
X122298224Y-110979788D01*
X122176936Y-110769711D01*
X122050265Y-110604630D01*
X122029266Y-110577263D01*
X122029260Y-110577256D01*
X121921819Y-110469815D01*
X121888334Y-110408492D01*
X121885500Y-110382134D01*
X121885500Y-110027788D01*
X121905185Y-109960749D01*
X121921107Y-109940824D01*
X122576369Y-109274798D01*
X123960029Y-107868407D01*
X124028069Y-107799654D01*
X124028070Y-107799651D01*
X124028105Y-107799617D01*
X124029062Y-107798479D01*
X124029267Y-107798235D01*
X124030404Y-107796888D01*
X124086541Y-107718285D01*
X124086578Y-107718311D01*
X124086745Y-107717998D01*
X124142932Y-107639811D01*
X124142934Y-107639806D01*
X124142962Y-107639768D01*
X124143692Y-107638555D01*
X124143909Y-107638194D01*
X124144806Y-107636712D01*
X124144824Y-107636674D01*
X124144828Y-107636670D01*
X124187981Y-107550242D01*
X124231375Y-107463967D01*
X124231376Y-107463963D01*
X124231402Y-107463912D01*
X124232070Y-107462263D01*
X124232207Y-107461927D01*
X124232737Y-107460626D01*
X124232753Y-107460574D01*
X124232756Y-107460569D01*
X124261873Y-107368407D01*
X124291221Y-107276453D01*
X124291222Y-107276445D01*
X124291237Y-107276399D01*
X124291610Y-107274794D01*
X124291685Y-107274471D01*
X124292046Y-107272930D01*
X124292054Y-107272880D01*
X124306408Y-107177210D01*
X124320997Y-107081886D01*
X124320996Y-107081883D01*
X124321007Y-107081818D01*
X124321128Y-107080104D01*
X124321155Y-107079724D01*
X124321261Y-107078275D01*
X124320472Y-106981512D01*
X124320470Y-106981147D01*
X124313205Y-105589866D01*
X124332539Y-105522725D01*
X124385103Y-105476695D01*
X124454209Y-105466391D01*
X124517915Y-105495083D01*
X124547687Y-105532923D01*
X124630476Y-105695405D01*
X124746172Y-105854646D01*
X128135354Y-109243828D01*
X128294595Y-109359524D01*
X128377454Y-109401742D01*
X128469969Y-109448882D01*
X128469971Y-109448882D01*
X128469974Y-109448884D01*
X128536840Y-109470610D01*
X128657173Y-109509709D01*
X128851578Y-109540500D01*
X128851583Y-109540500D01*
X129048416Y-109540500D01*
X131050664Y-109540500D01*
X131117703Y-109560185D01*
X131138345Y-109576819D01*
X131902080Y-110340554D01*
X131935565Y-110401877D01*
X131930581Y-110471569D01*
X131902080Y-110515916D01*
X131840739Y-110577256D01*
X131840733Y-110577263D01*
X131693067Y-110769706D01*
X131571777Y-110979785D01*
X131571773Y-110979794D01*
X131478947Y-111203895D01*
X131416161Y-111438214D01*
X131384500Y-111678711D01*
X131384500Y-112921288D01*
X131416161Y-113161785D01*
X131478947Y-113396104D01*
X131571679Y-113619978D01*
X131571776Y-113620212D01*
X131693064Y-113830289D01*
X131693066Y-113830292D01*
X131693067Y-113830293D01*
X131840733Y-114022736D01*
X131840739Y-114022743D01*
X132012256Y-114194260D01*
X132012263Y-114194266D01*
X132019736Y-114200000D01*
X132204711Y-114341936D01*
X132414788Y-114463224D01*
X132638900Y-114556054D01*
X132873211Y-114618838D01*
X133053586Y-114642584D01*
X133113711Y-114650500D01*
X133113712Y-114650500D01*
X133356289Y-114650500D01*
X133404388Y-114644167D01*
X133596789Y-114618838D01*
X133831100Y-114556054D01*
X134055212Y-114463224D01*
X134208386Y-114374788D01*
X134274912Y-114358648D01*
X134290467Y-114325490D01*
X134307852Y-114309275D01*
X134457738Y-114194265D01*
X134629265Y-114022738D01*
X134776936Y-113830289D01*
X134898224Y-113620212D01*
X134991054Y-113396100D01*
X135053838Y-113161789D01*
X135085500Y-112921288D01*
X135085500Y-111678712D01*
X135080948Y-111644139D01*
X135053838Y-111438214D01*
X135053838Y-111438211D01*
X134991054Y-111203900D01*
X134898224Y-110979788D01*
X134776936Y-110769711D01*
X134650265Y-110604630D01*
X134629266Y-110577263D01*
X134629260Y-110577256D01*
X134521819Y-110469815D01*
X134488334Y-110408492D01*
X134485500Y-110382134D01*
X134485500Y-109806577D01*
X134468704Y-109700541D01*
X134454709Y-109612174D01*
X134447746Y-109590745D01*
X134436838Y-109557173D01*
X134393885Y-109424976D01*
X134393884Y-109424973D01*
X134348352Y-109335613D01*
X134304524Y-109249595D01*
X134188828Y-109090354D01*
X132434646Y-107336172D01*
X132275405Y-107220476D01*
X132100030Y-107131117D01*
X131912826Y-107070290D01*
X131718422Y-107039500D01*
X131718417Y-107039500D01*
X129519336Y-107039500D01*
X129452297Y-107019815D01*
X129431655Y-107003181D01*
X126986819Y-104558345D01*
X126953334Y-104497022D01*
X126950500Y-104470664D01*
X126950500Y-104051862D01*
X126970185Y-103984823D01*
X127022989Y-103939068D01*
X127092147Y-103929124D01*
X127155703Y-103958149D01*
X127176073Y-103980737D01*
X127215139Y-104036529D01*
X127235550Y-104065789D01*
X127272065Y-104118135D01*
X127274842Y-104121794D01*
X127278399Y-104126874D01*
X127278401Y-104126876D01*
X127278402Y-104126877D01*
X127346485Y-104194960D01*
X127348105Y-104196612D01*
X127407164Y-104257988D01*
X127407168Y-104257991D01*
X127409971Y-104260111D01*
X127422859Y-104271334D01*
X127433121Y-104281597D01*
X127502093Y-104329891D01*
X127505772Y-104332569D01*
X127564152Y-104376725D01*
X127577899Y-104384065D01*
X127590591Y-104391858D01*
X127612361Y-104407102D01*
X127677797Y-104437615D01*
X127683784Y-104440606D01*
X127737782Y-104469440D01*
X127763859Y-104478471D01*
X127775679Y-104483258D01*
X127810670Y-104499575D01*
X127810675Y-104499576D01*
X127810679Y-104499578D01*
X127848697Y-104509764D01*
X127868825Y-104515157D01*
X127877274Y-104517748D01*
X127923777Y-104533853D01*
X127962789Y-104540803D01*
X127973114Y-104543101D01*
X128022023Y-104556207D01*
X128070011Y-104560405D01*
X128080951Y-104561855D01*
X128117558Y-104568377D01*
X128169204Y-104569369D01*
X128177578Y-104569815D01*
X128240000Y-104575277D01*
X128276015Y-104572125D01*
X128289202Y-104571677D01*
X128302376Y-104571930D01*
X128314348Y-104572161D01*
X128314348Y-104572160D01*
X128314355Y-104572161D01*
X128377418Y-104563411D01*
X128383616Y-104562711D01*
X128457977Y-104556207D01*
X128481274Y-104549964D01*
X128496314Y-104546918D01*
X128509320Y-104545114D01*
X128581693Y-104523127D01*
X128585609Y-104522007D01*
X128669330Y-104499575D01*
X128680266Y-104494474D01*
X128696637Y-104488207D01*
X128697654Y-104487899D01*
X128776575Y-104449579D01*
X128778107Y-104448850D01*
X128867639Y-104407102D01*
X128956529Y-104344860D01*
X128956530Y-104344862D01*
X128956671Y-104344760D01*
X129036156Y-104289315D01*
X129036159Y-104289311D01*
X129038150Y-104287923D01*
X129041800Y-104285152D01*
X129046877Y-104281598D01*
X129114934Y-104213539D01*
X129116584Y-104211920D01*
X129177988Y-104152835D01*
X129180110Y-104150028D01*
X129191333Y-104137141D01*
X129201592Y-104126883D01*
X129201592Y-104126882D01*
X129201598Y-104126877D01*
X129249923Y-104057859D01*
X129252537Y-104054268D01*
X129296725Y-103995848D01*
X129304061Y-103982107D01*
X129311870Y-103969391D01*
X129327102Y-103947639D01*
X129357630Y-103882168D01*
X129360620Y-103876188D01*
X129365880Y-103866339D01*
X129389440Y-103822218D01*
X129392400Y-103813669D01*
X129432935Y-103756764D01*
X129497803Y-103730805D01*
X129566408Y-103744037D01*
X129616969Y-103792260D01*
X129620058Y-103797951D01*
X129654903Y-103866339D01*
X129656800Y-103870228D01*
X129692897Y-103947638D01*
X129692899Y-103947641D01*
X129700518Y-103958521D01*
X129709434Y-103973359D01*
X129710475Y-103975403D01*
X129710478Y-103975409D01*
X129725329Y-103995849D01*
X129754885Y-104036529D01*
X129761235Y-104045268D01*
X129762491Y-104047029D01*
X129780312Y-104072479D01*
X129818402Y-104126877D01*
X129903392Y-104211867D01*
X129977453Y-104285928D01*
X129977464Y-104285938D01*
X136023181Y-110331655D01*
X136056666Y-110392978D01*
X136059500Y-110419336D01*
X136059500Y-110510714D01*
X136039815Y-110577753D01*
X136033876Y-110586200D01*
X135893067Y-110769706D01*
X135771777Y-110979785D01*
X135771773Y-110979794D01*
X135678947Y-111203895D01*
X135616161Y-111438214D01*
X135584500Y-111678711D01*
X135584500Y-112921288D01*
X135616161Y-113161785D01*
X135678947Y-113396104D01*
X135771679Y-113619978D01*
X135771776Y-113620212D01*
X135893064Y-113830289D01*
X135893066Y-113830292D01*
X135893067Y-113830293D01*
X136040733Y-114022736D01*
X136040739Y-114022743D01*
X136212256Y-114194260D01*
X136212263Y-114194266D01*
X136219736Y-114200000D01*
X136404711Y-114341936D01*
X136450053Y-114368114D01*
X136498268Y-114418680D01*
X136511491Y-114487287D01*
X136485523Y-114552152D01*
X136428608Y-114592680D01*
X136388052Y-114599500D01*
X135442412Y-114599500D01*
X135375373Y-114579815D01*
X135365097Y-114572445D01*
X135362263Y-114570185D01*
X135362262Y-114570184D01*
X135293553Y-114527011D01*
X135209523Y-114474211D01*
X135039254Y-114414631D01*
X135039249Y-114414630D01*
X134860004Y-114394435D01*
X134859996Y-114394435D01*
X134680750Y-114414630D01*
X134680745Y-114414631D01*
X134510477Y-114474211D01*
X134449317Y-114512640D01*
X134382080Y-114531639D01*
X134379193Y-114530759D01*
X134360126Y-114567746D01*
X134358064Y-114569858D01*
X134230183Y-114697739D01*
X134134211Y-114850476D01*
X134074631Y-115020745D01*
X134074630Y-115020750D01*
X134054435Y-115199996D01*
X134054435Y-115200003D01*
X134074630Y-115379249D01*
X134074633Y-115379260D01*
X134091783Y-115428274D01*
X134095344Y-115498053D01*
X134060614Y-115558680D01*
X133998620Y-115590906D01*
X133929045Y-115584500D01*
X133927288Y-115583788D01*
X133831104Y-115543947D01*
X133713944Y-115512554D01*
X133596789Y-115481162D01*
X133596788Y-115481161D01*
X133596785Y-115481161D01*
X133356289Y-115449500D01*
X133356288Y-115449500D01*
X133113712Y-115449500D01*
X133113711Y-115449500D01*
X132873214Y-115481161D01*
X132638895Y-115543947D01*
X132414794Y-115636773D01*
X132414785Y-115636777D01*
X132204706Y-115758067D01*
X132012263Y-115905733D01*
X132012256Y-115905739D01*
X131840739Y-116077256D01*
X131840733Y-116077263D01*
X131693067Y-116269706D01*
X131571777Y-116479785D01*
X131571773Y-116479794D01*
X131478947Y-116703895D01*
X131416161Y-116938214D01*
X131384500Y-117178711D01*
X131384500Y-118421288D01*
X131416161Y-118661785D01*
X131478947Y-118896104D01*
X131571773Y-119120205D01*
X131571776Y-119120212D01*
X131693064Y-119330289D01*
X131693066Y-119330292D01*
X131693067Y-119330293D01*
X131840733Y-119522736D01*
X131840739Y-119522743D01*
X132012256Y-119694260D01*
X132012263Y-119694266D01*
X132125321Y-119781018D01*
X132204711Y-119841936D01*
X132414788Y-119963224D01*
X132638900Y-120056054D01*
X132873211Y-120118838D01*
X133033940Y-120139998D01*
X133113711Y-120150500D01*
X133113712Y-120150500D01*
X133356289Y-120150500D01*
X133436052Y-120139999D01*
X133596789Y-120118838D01*
X133831100Y-120056054D01*
X134055212Y-119963224D01*
X134265289Y-119841936D01*
X134457738Y-119694265D01*
X134629265Y-119522738D01*
X134776936Y-119330289D01*
X134898224Y-119120212D01*
X134991054Y-118896100D01*
X135053838Y-118661789D01*
X135085500Y-118421288D01*
X135085500Y-117178712D01*
X135053838Y-116938211D01*
X134991054Y-116703900D01*
X134898224Y-116479788D01*
X134776936Y-116269711D01*
X134724731Y-116201677D01*
X134699539Y-116136511D01*
X134713577Y-116068066D01*
X134762391Y-116018076D01*
X134830482Y-116002412D01*
X134836993Y-116002973D01*
X134859997Y-116005565D01*
X134860000Y-116005565D01*
X134860004Y-116005565D01*
X135039249Y-115985369D01*
X135039252Y-115985368D01*
X135039255Y-115985368D01*
X135209522Y-115925789D01*
X135362262Y-115829816D01*
X135362267Y-115829810D01*
X135365097Y-115827555D01*
X135367275Y-115826665D01*
X135368158Y-115826111D01*
X135368255Y-115826265D01*
X135429783Y-115801145D01*
X135442412Y-115800500D01*
X135505031Y-115800500D01*
X135572070Y-115820185D01*
X135617825Y-115872989D01*
X135627769Y-115942147D01*
X135622739Y-115963492D01*
X135604653Y-116018076D01*
X135595000Y-116047206D01*
X135584500Y-116149984D01*
X135584500Y-119450015D01*
X135595000Y-119552795D01*
X135595001Y-119552796D01*
X135650186Y-119719335D01*
X135650187Y-119719337D01*
X135742286Y-119868651D01*
X135742289Y-119868655D01*
X135866344Y-119992710D01*
X135866348Y-119992713D01*
X136015662Y-120084812D01*
X136015664Y-120084813D01*
X136015666Y-120084814D01*
X136182203Y-120139999D01*
X136284992Y-120150500D01*
X136284997Y-120150500D01*
X138585003Y-120150500D01*
X138585008Y-120150500D01*
X138687797Y-120139999D01*
X138854334Y-120084814D01*
X139003655Y-119992711D01*
X139127711Y-119868655D01*
X139219814Y-119719334D01*
X139274999Y-119552797D01*
X139285500Y-119450008D01*
X139285500Y-116149992D01*
X139274999Y-116047203D01*
X139247262Y-115963501D01*
X139244861Y-115893676D01*
X139280592Y-115833634D01*
X139343113Y-115802441D01*
X139364969Y-115800500D01*
X139847588Y-115800500D01*
X139914627Y-115820185D01*
X139924903Y-115827555D01*
X139927736Y-115829814D01*
X139927738Y-115829816D01*
X140080478Y-115925789D01*
X140188264Y-115963505D01*
X140250745Y-115985368D01*
X140250750Y-115985369D01*
X140429996Y-116005565D01*
X140430000Y-116005565D01*
X140430004Y-116005565D01*
X140609249Y-115985369D01*
X140609252Y-115985368D01*
X140609255Y-115985368D01*
X140779522Y-115925789D01*
X140932262Y-115829816D01*
X141059816Y-115702262D01*
X141155789Y-115549522D01*
X141215368Y-115379255D01*
X141215470Y-115378349D01*
X141235565Y-115200003D01*
X141235565Y-115199996D01*
X141215369Y-115020750D01*
X141215368Y-115020745D01*
X141155788Y-114850476D01*
X141109084Y-114776148D01*
X141059816Y-114697738D01*
X140932262Y-114570184D01*
X140863553Y-114527011D01*
X140779523Y-114474211D01*
X140609254Y-114414631D01*
X140609249Y-114414630D01*
X140430004Y-114394435D01*
X140429996Y-114394435D01*
X140250750Y-114414630D01*
X140250745Y-114414631D01*
X140080476Y-114474211D01*
X139927736Y-114570185D01*
X139924903Y-114572445D01*
X139922724Y-114573334D01*
X139921842Y-114573889D01*
X139921744Y-114573734D01*
X139860217Y-114598855D01*
X139847588Y-114599500D01*
X138481948Y-114599500D01*
X138414909Y-114579815D01*
X138369154Y-114527011D01*
X138359210Y-114457853D01*
X138388235Y-114394297D01*
X138419945Y-114368115D01*
X138465289Y-114341936D01*
X138657738Y-114194265D01*
X138829265Y-114022738D01*
X138976936Y-113830289D01*
X139098224Y-113620212D01*
X139191054Y-113396100D01*
X139253838Y-113161789D01*
X139285500Y-112921288D01*
X139285500Y-112189996D01*
X145284435Y-112189996D01*
X145284435Y-112190003D01*
X145304630Y-112369249D01*
X145304631Y-112369254D01*
X145364211Y-112539523D01*
X145460185Y-112692263D01*
X145462445Y-112695097D01*
X145463334Y-112697275D01*
X145463889Y-112698158D01*
X145463734Y-112698255D01*
X145488855Y-112759783D01*
X145489500Y-112772412D01*
X145489500Y-114543330D01*
X145489499Y-114543348D01*
X145489499Y-114709054D01*
X145489498Y-114709054D01*
X145530423Y-114861786D01*
X145530424Y-114861787D01*
X145549875Y-114895477D01*
X145609481Y-114998717D01*
X145728349Y-115117585D01*
X145728355Y-115117590D01*
X146495139Y-115884374D01*
X146495149Y-115884385D01*
X146499479Y-115888715D01*
X146499480Y-115888716D01*
X146611284Y-116000520D01*
X146692142Y-116047203D01*
X146748215Y-116079577D01*
X146900943Y-116120500D01*
X147059057Y-116120500D01*
X148782331Y-116120500D01*
X148782347Y-116120501D01*
X148789943Y-116120501D01*
X148948054Y-116120501D01*
X148948057Y-116120501D01*
X149100785Y-116079577D01*
X149156858Y-116047203D01*
X149237716Y-116000520D01*
X149349520Y-115888716D01*
X149349520Y-115888714D01*
X149359724Y-115878511D01*
X149359728Y-115878506D01*
X149755421Y-115482812D01*
X149816742Y-115449329D01*
X149855251Y-115447092D01*
X149939000Y-115455341D01*
X150135132Y-115436024D01*
X150323727Y-115378814D01*
X150497538Y-115285910D01*
X150497544Y-115285904D01*
X150502607Y-115282523D01*
X150503703Y-115284164D01*
X150559639Y-115260405D01*
X150628507Y-115272194D01*
X150645148Y-115282888D01*
X150645393Y-115282523D01*
X150650458Y-115285907D01*
X150650462Y-115285910D01*
X150824273Y-115378814D01*
X151012868Y-115436024D01*
X151209000Y-115455341D01*
X151405132Y-115436024D01*
X151593727Y-115378814D01*
X151767538Y-115285910D01*
X151767544Y-115285904D01*
X151772607Y-115282523D01*
X151773624Y-115284045D01*
X151830021Y-115260084D01*
X151898890Y-115271866D01*
X151915424Y-115282489D01*
X151915678Y-115282110D01*
X151920738Y-115285491D01*
X152094465Y-115378349D01*
X152229000Y-115419159D01*
X152729000Y-115419159D01*
X152863534Y-115378349D01*
X153037260Y-115285491D01*
X153189528Y-115160528D01*
X153314492Y-115008260D01*
X153314496Y-115008253D01*
X153407347Y-114834541D01*
X153448160Y-114700000D01*
X152729000Y-114700000D01*
X152729000Y-115419159D01*
X152229000Y-115419159D01*
X152229000Y-114694975D01*
X152264095Y-114730070D01*
X152343905Y-114776148D01*
X152432922Y-114800000D01*
X152525078Y-114800000D01*
X152614095Y-114776148D01*
X152693905Y-114730070D01*
X152759070Y-114664905D01*
X152805148Y-114585095D01*
X152829000Y-114496078D01*
X152829000Y-114403922D01*
X152805148Y-114314905D01*
X152759070Y-114235095D01*
X152723975Y-114200000D01*
X153448160Y-114200000D01*
X153448160Y-114199999D01*
X153407347Y-114065458D01*
X153314496Y-113891746D01*
X153311110Y-113886678D01*
X153312784Y-113885559D01*
X153289081Y-113829746D01*
X153300874Y-113760879D01*
X153311839Y-113743818D01*
X153311523Y-113743607D01*
X153314904Y-113738544D01*
X153314910Y-113738538D01*
X153407814Y-113564727D01*
X153465024Y-113376132D01*
X153484341Y-113180000D01*
X153465024Y-112983868D01*
X153407814Y-112795273D01*
X153407811Y-112795269D01*
X153407811Y-112795266D01*
X153314913Y-112621467D01*
X153314909Y-112621460D01*
X153189887Y-112469122D01*
X153189883Y-112469117D01*
X153124832Y-112415730D01*
X153085500Y-112357987D01*
X153079500Y-112319880D01*
X153079500Y-112218059D01*
X153079501Y-112218046D01*
X153079501Y-112049945D01*
X153079501Y-112049943D01*
X153038577Y-111897215D01*
X152994738Y-111821284D01*
X152959520Y-111760284D01*
X152847716Y-111648480D01*
X152843385Y-111644149D01*
X152843374Y-111644139D01*
X152570700Y-111371465D01*
X152537215Y-111310142D01*
X152535163Y-111297686D01*
X152525368Y-111210745D01*
X152465789Y-111040478D01*
X152369816Y-110887738D01*
X152242262Y-110760184D01*
X152089523Y-110664211D01*
X151919254Y-110604631D01*
X151919249Y-110604630D01*
X151740004Y-110584435D01*
X151739996Y-110584435D01*
X151560750Y-110604630D01*
X151560745Y-110604631D01*
X151390476Y-110664211D01*
X151237737Y-110760184D01*
X151110184Y-110887737D01*
X151014211Y-111040476D01*
X150954631Y-111210745D01*
X150954630Y-111210750D01*
X150934435Y-111389996D01*
X150934435Y-111390003D01*
X150954630Y-111569249D01*
X150954631Y-111569254D01*
X151014211Y-111739523D01*
X151110184Y-111892262D01*
X151190734Y-111972812D01*
X151224219Y-112034135D01*
X151219235Y-112103827D01*
X151177363Y-112159760D01*
X151115208Y-112183896D01*
X151012870Y-112193975D01*
X150824266Y-112251188D01*
X150650467Y-112344086D01*
X150645399Y-112347473D01*
X150644305Y-112345836D01*
X150588337Y-112369596D01*
X150519471Y-112357795D01*
X150502843Y-112347109D01*
X150502601Y-112347473D01*
X150497532Y-112344086D01*
X150323733Y-112251188D01*
X150323727Y-112251186D01*
X150190722Y-112210839D01*
X150135129Y-112193975D01*
X149939000Y-112174659D01*
X149742870Y-112193975D01*
X149554266Y-112251188D01*
X149380467Y-112344086D01*
X149375399Y-112347473D01*
X149374386Y-112345958D01*
X149317936Y-112369920D01*
X149249071Y-112358115D01*
X149232574Y-112347511D01*
X149232322Y-112347890D01*
X149227253Y-112344503D01*
X149053541Y-112251652D01*
X148919000Y-112210839D01*
X148919000Y-112935025D01*
X148883905Y-112899930D01*
X148804095Y-112853852D01*
X148715078Y-112830000D01*
X148622922Y-112830000D01*
X148533905Y-112853852D01*
X148454095Y-112899930D01*
X148419000Y-112935025D01*
X148419000Y-112210839D01*
X148418999Y-112210839D01*
X148284464Y-112251650D01*
X148282586Y-112252655D01*
X148281486Y-112252883D01*
X148278838Y-112253981D01*
X148278629Y-112253478D01*
X148214183Y-112266895D01*
X148149824Y-112242561D01*
X148141335Y-112236206D01*
X148141328Y-112236202D01*
X148006482Y-112185908D01*
X148006483Y-112185908D01*
X147946883Y-112179501D01*
X147946881Y-112179500D01*
X147946873Y-112179500D01*
X147946865Y-112179500D01*
X147005195Y-112179500D01*
X146938156Y-112159815D01*
X146892401Y-112107011D01*
X146881975Y-112069382D01*
X146875369Y-112010750D01*
X146875368Y-112010745D01*
X146815788Y-111840476D01*
X146719815Y-111687737D01*
X146592262Y-111560184D01*
X146439523Y-111464211D01*
X146269254Y-111404631D01*
X146269249Y-111404630D01*
X146090004Y-111384435D01*
X146089996Y-111384435D01*
X145910750Y-111404630D01*
X145910745Y-111404631D01*
X145740476Y-111464211D01*
X145587737Y-111560184D01*
X145460184Y-111687737D01*
X145364211Y-111840476D01*
X145304631Y-112010745D01*
X145304630Y-112010750D01*
X145284435Y-112189996D01*
X139285500Y-112189996D01*
X139285500Y-111678712D01*
X139280948Y-111644139D01*
X139253838Y-111438214D01*
X139253838Y-111438211D01*
X139191054Y-111203900D01*
X139098224Y-110979788D01*
X138976936Y-110769711D01*
X138850265Y-110604630D01*
X138829266Y-110577263D01*
X138829260Y-110577256D01*
X138657745Y-110405741D01*
X138657740Y-110405737D01*
X138657738Y-110405735D01*
X138609011Y-110368345D01*
X138567810Y-110311917D01*
X138560500Y-110269971D01*
X138560500Y-109751577D01*
X138529709Y-109557173D01*
X138486754Y-109424973D01*
X138468884Y-109369975D01*
X138468882Y-109369972D01*
X138468882Y-109369970D01*
X138379523Y-109194594D01*
X138370460Y-109182120D01*
X138263828Y-109035354D01*
X138124646Y-108896172D01*
X131745938Y-102517464D01*
X131745929Y-102517454D01*
X131704147Y-102475672D01*
X131586877Y-102358402D01*
X131543185Y-102327809D01*
X131507029Y-102302491D01*
X131505281Y-102301244D01*
X131468324Y-102274393D01*
X131435409Y-102250478D01*
X131435403Y-102250475D01*
X131435387Y-102250467D01*
X131433353Y-102249430D01*
X131418521Y-102240518D01*
X131407641Y-102232899D01*
X131407638Y-102232897D01*
X131330228Y-102196800D01*
X131326339Y-102194903D01*
X131260031Y-102161118D01*
X131260025Y-102161115D01*
X131246388Y-102156685D01*
X131232298Y-102151135D01*
X131209338Y-102140428D01*
X131209327Y-102140424D01*
X131138403Y-102121419D01*
X131132181Y-102119576D01*
X131072828Y-102100291D01*
X131046777Y-102096165D01*
X131034083Y-102093467D01*
X130997985Y-102083795D01*
X130997981Y-102083794D01*
X130997977Y-102083793D01*
X130997975Y-102083792D01*
X130997972Y-102083792D01*
X130936792Y-102078440D01*
X130928206Y-102077385D01*
X130916936Y-102075600D01*
X130878421Y-102069500D01*
X130878417Y-102069500D01*
X130840015Y-102069500D01*
X130829208Y-102069028D01*
X130780002Y-102064723D01*
X130779998Y-102064723D01*
X130730792Y-102069028D01*
X130719985Y-102069500D01*
X130681583Y-102069500D01*
X130631797Y-102077385D01*
X130623209Y-102078439D01*
X130562027Y-102083792D01*
X130562014Y-102083795D01*
X130525917Y-102093467D01*
X130513223Y-102096165D01*
X130487176Y-102100290D01*
X130427816Y-102119577D01*
X130421595Y-102121419D01*
X130350679Y-102140422D01*
X130350669Y-102140425D01*
X130327695Y-102151137D01*
X130313625Y-102156679D01*
X130299982Y-102161112D01*
X130299978Y-102161114D01*
X130233685Y-102194891D01*
X130229800Y-102196786D01*
X130152358Y-102232900D01*
X130141459Y-102240530D01*
X130126672Y-102249416D01*
X130124609Y-102250467D01*
X130124588Y-102250480D01*
X130054717Y-102301244D01*
X130052958Y-102302499D01*
X129973125Y-102358400D01*
X129973119Y-102358405D01*
X129818405Y-102513119D01*
X129818400Y-102513125D01*
X129762499Y-102592958D01*
X129761243Y-102594718D01*
X129729582Y-102638296D01*
X129674253Y-102680962D01*
X129604639Y-102686941D01*
X129542844Y-102654336D01*
X129508487Y-102593497D01*
X129505287Y-102563031D01*
X129508284Y-102407195D01*
X129508702Y-102399905D01*
X129508718Y-102398903D01*
X129508719Y-102398900D01*
X129510303Y-102302246D01*
X129512161Y-102205645D01*
X129512160Y-102205644D01*
X129512162Y-102205591D01*
X129512061Y-102203963D01*
X129512042Y-102203654D01*
X129511952Y-102202145D01*
X129511065Y-102195883D01*
X129498397Y-102106430D01*
X129485114Y-102010680D01*
X129485111Y-102010673D01*
X129485105Y-102010623D01*
X129484790Y-102009205D01*
X129484714Y-102008862D01*
X129484361Y-102007257D01*
X129456033Y-101914953D01*
X129455930Y-101914616D01*
X129427899Y-101822346D01*
X129427895Y-101822339D01*
X129427876Y-101822274D01*
X129427259Y-101820711D01*
X129427115Y-101820345D01*
X129426624Y-101819091D01*
X129384111Y-101732161D01*
X129341928Y-101645280D01*
X129341927Y-101645278D01*
X129341903Y-101645229D01*
X129341180Y-101644005D01*
X129340967Y-101643643D01*
X129340157Y-101642261D01*
X129284718Y-101563265D01*
X129284517Y-101562978D01*
X129273045Y-101546532D01*
X129229315Y-101483844D01*
X129229313Y-101483842D01*
X129229281Y-101483796D01*
X129228362Y-101482683D01*
X129228131Y-101482404D01*
X129227088Y-101481134D01*
X129159932Y-101411739D01*
X129159688Y-101411486D01*
X129092144Y-101341294D01*
X129086853Y-101336225D01*
X128325960Y-100549968D01*
X128314750Y-100536623D01*
X128313828Y-100535354D01*
X128252165Y-100473691D01*
X128250799Y-100472302D01*
X128240914Y-100462088D01*
X128190171Y-100409653D01*
X128188907Y-100408702D01*
X128175753Y-100397279D01*
X128174645Y-100396171D01*
X128104130Y-100344938D01*
X128102497Y-100343731D01*
X128032850Y-100291364D01*
X128032842Y-100291359D01*
X128031451Y-100290621D01*
X128016679Y-100281401D01*
X128015405Y-100280476D01*
X127937722Y-100240894D01*
X127935919Y-100239956D01*
X127858965Y-100199144D01*
X127858961Y-100199142D01*
X127858957Y-100199140D01*
X127857466Y-100198628D01*
X127841429Y-100191831D01*
X127840025Y-100191116D01*
X127840022Y-100191115D01*
X127840020Y-100191114D01*
X127757123Y-100164178D01*
X127755198Y-100163535D01*
X127672778Y-100135254D01*
X127672770Y-100135252D01*
X127671218Y-100134980D01*
X127654332Y-100130779D01*
X127652844Y-100130295D01*
X127652819Y-100130289D01*
X127566760Y-100116659D01*
X127564756Y-100116325D01*
X127478900Y-100101280D01*
X127478903Y-100101280D01*
X127477326Y-100101255D01*
X127459968Y-100099745D01*
X127458421Y-100099500D01*
X127458417Y-100099500D01*
X127371243Y-100099500D01*
X127369211Y-100099483D01*
X127368062Y-100099464D01*
X127282100Y-100098054D01*
X127282085Y-100098055D01*
X127280538Y-100098275D01*
X127263153Y-100099500D01*
X124895701Y-100099500D01*
X124894682Y-100099496D01*
X124801865Y-100098733D01*
X124801864Y-100098733D01*
X124801861Y-100098733D01*
X124797009Y-100099075D01*
X124796989Y-100098792D01*
X124796411Y-100098835D01*
X124796434Y-100099118D01*
X124791587Y-100099499D01*
X124699993Y-100114005D01*
X124698989Y-100114159D01*
X124607212Y-100127923D01*
X124602458Y-100129024D01*
X124602395Y-100128753D01*
X124601842Y-100128884D01*
X124601907Y-100129155D01*
X124597163Y-100130293D01*
X124508972Y-100158948D01*
X124508004Y-100159258D01*
X124419513Y-100187209D01*
X124415000Y-100189036D01*
X124414899Y-100188787D01*
X124414367Y-100189005D01*
X124414470Y-100189254D01*
X124409974Y-100191116D01*
X124327321Y-100233229D01*
X124326413Y-100233687D01*
X124243407Y-100275125D01*
X124239242Y-100277631D01*
X124239102Y-100277398D01*
X124238601Y-100277702D01*
X124238743Y-100277934D01*
X124234588Y-100280480D01*
X124159642Y-100334932D01*
X124158816Y-100335527D01*
X124083226Y-100389502D01*
X124079499Y-100392634D01*
X124079325Y-100392427D01*
X124078882Y-100392802D01*
X124079058Y-100393008D01*
X124075352Y-100396173D01*
X124009790Y-100461733D01*
X124009069Y-100462449D01*
X122243544Y-102199188D01*
X122234065Y-102207260D01*
X122234066Y-102207261D01*
X122230387Y-102210436D01*
X122230384Y-102210438D01*
X122230384Y-102210439D01*
X122195692Y-102245495D01*
X122167697Y-102273783D01*
X122166520Y-102274956D01*
X122102895Y-102337545D01*
X122099859Y-102341042D01*
X122094952Y-102346769D01*
X122091936Y-102350338D01*
X122039898Y-102422753D01*
X122038919Y-102424096D01*
X121994433Y-102484281D01*
X121938755Y-102526491D01*
X121869094Y-102531899D01*
X121807569Y-102498787D01*
X121789177Y-102475672D01*
X121712607Y-102351532D01*
X121588468Y-102227393D01*
X121470029Y-102154339D01*
X121439049Y-102135230D01*
X121439044Y-102135228D01*
X121272399Y-102080008D01*
X121169553Y-102069500D01*
X121169546Y-102069500D01*
X120070454Y-102069500D01*
X120070446Y-102069500D01*
X119967600Y-102080008D01*
X119800955Y-102135228D01*
X119800950Y-102135230D01*
X119651530Y-102227394D01*
X119527394Y-102351530D01*
X119435230Y-102500950D01*
X119435228Y-102500955D01*
X119380008Y-102667600D01*
X119369500Y-102770446D01*
X119369500Y-103869553D01*
X119380008Y-103972399D01*
X119435228Y-104139044D01*
X119435230Y-104139049D01*
X119469685Y-104194909D01*
X119527393Y-104288468D01*
X119651532Y-104412607D01*
X119800953Y-104504771D01*
X119967601Y-104559992D01*
X120070454Y-104570500D01*
X120070459Y-104570500D01*
X121169541Y-104570500D01*
X121169546Y-104570500D01*
X121272399Y-104559992D01*
X121439047Y-104504771D01*
X121588468Y-104412607D01*
X121594763Y-104406311D01*
X121656083Y-104372825D01*
X121725774Y-104377806D01*
X121781710Y-104419675D01*
X121806130Y-104485139D01*
X121806444Y-104493342D01*
X121816555Y-106429552D01*
X121797221Y-106496694D01*
X121780950Y-106517164D01*
X119747552Y-108583966D01*
X119746842Y-108584681D01*
X119681178Y-108650347D01*
X119678007Y-108654060D01*
X119677796Y-108653880D01*
X119677487Y-108654245D01*
X119677699Y-108654423D01*
X119674561Y-108658157D01*
X119620639Y-108733660D01*
X119620051Y-108734477D01*
X119565473Y-108809598D01*
X119562929Y-108813750D01*
X119562689Y-108813603D01*
X119562441Y-108814011D01*
X119562683Y-108814157D01*
X119560174Y-108818326D01*
X119518709Y-108901370D01*
X119518256Y-108902268D01*
X119476115Y-108984977D01*
X119474251Y-108989477D01*
X119473990Y-108989368D01*
X119473808Y-108989813D01*
X119474070Y-108989919D01*
X119472244Y-108994430D01*
X119444287Y-109082918D01*
X119443979Y-109083878D01*
X119415290Y-109172174D01*
X119414153Y-109176912D01*
X119413885Y-109176847D01*
X119413775Y-109177316D01*
X119414043Y-109177378D01*
X119412945Y-109182119D01*
X119399189Y-109273802D01*
X119399036Y-109274798D01*
X119384499Y-109366587D01*
X119384118Y-109371434D01*
X119383833Y-109371411D01*
X119383796Y-109371906D01*
X119384082Y-109371927D01*
X119383739Y-109376776D01*
X119384496Y-109469600D01*
X119384500Y-109470610D01*
X119384500Y-110382134D01*
X119364815Y-110449173D01*
X119348181Y-110469815D01*
X119240739Y-110577256D01*
X119240733Y-110577263D01*
X119093067Y-110769706D01*
X118971777Y-110979785D01*
X118971773Y-110979794D01*
X118878947Y-111203895D01*
X118816161Y-111438214D01*
X118784500Y-111678711D01*
X95060500Y-111678711D01*
X95060500Y-97178000D01*
X100418659Y-97178000D01*
X100437975Y-97374129D01*
X100495188Y-97562733D01*
X100588086Y-97736532D01*
X100591473Y-97741601D01*
X100589836Y-97742694D01*
X100613596Y-97798663D01*
X100601795Y-97867529D01*
X100591109Y-97884156D01*
X100591473Y-97884399D01*
X100588086Y-97889467D01*
X100495188Y-98063266D01*
X100437975Y-98251870D01*
X100418659Y-98448000D01*
X100437975Y-98644129D01*
X100495188Y-98832733D01*
X100588086Y-99006532D01*
X100591473Y-99011601D01*
X100589955Y-99012615D01*
X100613918Y-99069042D01*
X100602124Y-99137909D01*
X100591515Y-99154420D01*
X100591893Y-99154673D01*
X100588505Y-99159742D01*
X100495652Y-99333458D01*
X100454839Y-99467999D01*
X100454840Y-99468000D01*
X101179025Y-99468000D01*
X101143930Y-99503095D01*
X101097852Y-99582905D01*
X101074000Y-99671922D01*
X101074000Y-99764078D01*
X101097852Y-99853095D01*
X101143930Y-99932905D01*
X101179025Y-99968000D01*
X100454840Y-99968000D01*
X100495652Y-100102541D01*
X100588503Y-100276253D01*
X100591890Y-100281322D01*
X100590215Y-100282440D01*
X100613918Y-100338259D01*
X100602123Y-100407125D01*
X100591158Y-100424188D01*
X100591473Y-100424399D01*
X100588086Y-100429467D01*
X100495188Y-100603266D01*
X100437975Y-100791870D01*
X100418659Y-100988000D01*
X100437975Y-101184129D01*
X100495188Y-101372733D01*
X100588086Y-101546532D01*
X100588090Y-101546539D01*
X100713115Y-101698882D01*
X100744194Y-101724387D01*
X100778165Y-101752266D01*
X100817499Y-101810010D01*
X100823500Y-101848119D01*
X100823500Y-102895111D01*
X100803815Y-102962150D01*
X100802847Y-102963499D01*
X100704211Y-103120476D01*
X100644631Y-103290745D01*
X100644630Y-103290750D01*
X100624435Y-103469996D01*
X100624435Y-103470003D01*
X100644630Y-103649249D01*
X100644631Y-103649254D01*
X100704211Y-103819523D01*
X100791316Y-103958149D01*
X100800184Y-103972262D01*
X100927738Y-104099816D01*
X101080478Y-104195789D01*
X101250745Y-104255368D01*
X101250750Y-104255369D01*
X101429996Y-104275565D01*
X101430000Y-104275565D01*
X101430004Y-104275565D01*
X101609249Y-104255369D01*
X101609252Y-104255368D01*
X101609255Y-104255368D01*
X101779522Y-104195789D01*
X101919422Y-104107883D01*
X101986658Y-104088883D01*
X102026346Y-104095835D01*
X102110745Y-104125368D01*
X102110751Y-104125368D01*
X102110753Y-104125369D01*
X102289996Y-104145565D01*
X102290000Y-104145565D01*
X102290004Y-104145565D01*
X102469249Y-104125369D01*
X102469252Y-104125368D01*
X102469255Y-104125368D01*
X102639522Y-104065789D01*
X102792262Y-103969816D01*
X102919816Y-103842262D01*
X103015789Y-103689522D01*
X103075368Y-103519255D01*
X103085161Y-103432331D01*
X103112226Y-103367921D01*
X103120700Y-103358535D01*
X103174520Y-103304716D01*
X103244687Y-103183182D01*
X103253577Y-103167785D01*
X103294500Y-103015058D01*
X103294500Y-102856943D01*
X103294500Y-101848119D01*
X103314185Y-101781080D01*
X103339833Y-101752267D01*
X103404883Y-101698883D01*
X103449921Y-101644005D01*
X103529909Y-101546539D01*
X103529913Y-101546532D01*
X103622811Y-101372733D01*
X103622811Y-101372732D01*
X103622814Y-101372727D01*
X103680024Y-101184132D01*
X103699341Y-100988000D01*
X103680024Y-100791868D01*
X103622814Y-100603273D01*
X103529910Y-100429462D01*
X103529907Y-100429458D01*
X103526523Y-100424393D01*
X103528164Y-100423296D01*
X103504405Y-100367361D01*
X103516194Y-100298493D01*
X103526888Y-100281851D01*
X103526523Y-100281607D01*
X103529904Y-100276544D01*
X103529910Y-100276538D01*
X103622814Y-100102727D01*
X103680024Y-99914132D01*
X103699341Y-99718000D01*
X103680024Y-99521868D01*
X103622814Y-99333273D01*
X103529910Y-99159462D01*
X103529907Y-99159458D01*
X103526523Y-99154393D01*
X103528164Y-99153296D01*
X103504405Y-99097361D01*
X103516194Y-99028493D01*
X103526888Y-99011851D01*
X103526523Y-99011607D01*
X103529904Y-99006544D01*
X103529910Y-99006538D01*
X103622814Y-98832727D01*
X103680024Y-98644132D01*
X103699341Y-98448000D01*
X103680024Y-98251868D01*
X103676423Y-98239997D01*
X119364723Y-98239997D01*
X119364723Y-98240002D01*
X119383793Y-98457975D01*
X119383793Y-98457979D01*
X119440422Y-98669322D01*
X119440424Y-98669326D01*
X119440425Y-98669330D01*
X119462382Y-98716416D01*
X119532897Y-98867638D01*
X119532898Y-98867639D01*
X119658402Y-99046877D01*
X119813123Y-99201598D01*
X119992361Y-99327102D01*
X120190670Y-99419575D01*
X120402023Y-99476207D01*
X120584926Y-99492208D01*
X120619998Y-99495277D01*
X120620000Y-99495277D01*
X120620002Y-99495277D01*
X120648254Y-99492805D01*
X120837977Y-99476207D01*
X121049330Y-99419575D01*
X121247639Y-99327102D01*
X121426877Y-99201598D01*
X121581598Y-99046877D01*
X121707102Y-98867639D01*
X121799575Y-98669330D01*
X121856207Y-98457977D01*
X121875277Y-98240000D01*
X121875277Y-98239997D01*
X124444723Y-98239997D01*
X124444723Y-98240002D01*
X124463793Y-98457975D01*
X124463793Y-98457979D01*
X124520422Y-98669322D01*
X124520424Y-98669326D01*
X124520425Y-98669330D01*
X124542382Y-98716416D01*
X124612897Y-98867638D01*
X124612898Y-98867639D01*
X124738402Y-99046877D01*
X124893123Y-99201598D01*
X125072361Y-99327102D01*
X125270670Y-99419575D01*
X125482023Y-99476207D01*
X125664926Y-99492208D01*
X125699998Y-99495277D01*
X125700000Y-99495277D01*
X125700002Y-99495277D01*
X125728254Y-99492805D01*
X125917977Y-99476207D01*
X126129330Y-99419575D01*
X126327639Y-99327102D01*
X126506877Y-99201598D01*
X126661598Y-99046877D01*
X126787102Y-98867639D01*
X126857618Y-98716414D01*
X126903790Y-98663977D01*
X126970984Y-98644825D01*
X127037865Y-98665041D01*
X127082381Y-98716414D01*
X127152898Y-98867639D01*
X127278402Y-99046877D01*
X127433123Y-99201598D01*
X127612361Y-99327102D01*
X127810670Y-99419575D01*
X128022023Y-99476207D01*
X128204926Y-99492208D01*
X128239998Y-99495277D01*
X128240000Y-99495277D01*
X128240002Y-99495277D01*
X128268254Y-99492805D01*
X128457977Y-99476207D01*
X128669330Y-99419575D01*
X128867639Y-99327102D01*
X129046877Y-99201598D01*
X129201598Y-99046877D01*
X129327102Y-98867639D01*
X129397618Y-98716414D01*
X129443790Y-98663977D01*
X129510984Y-98644825D01*
X129577865Y-98665041D01*
X129622381Y-98716414D01*
X129692898Y-98867639D01*
X129818402Y-99046877D01*
X129973123Y-99201598D01*
X130152361Y-99327102D01*
X130350670Y-99419575D01*
X130562023Y-99476207D01*
X130744926Y-99492208D01*
X130779998Y-99495277D01*
X130780000Y-99495277D01*
X130780002Y-99495277D01*
X130808254Y-99492805D01*
X130997977Y-99476207D01*
X131209330Y-99419575D01*
X131407639Y-99327102D01*
X131586877Y-99201598D01*
X131741598Y-99046877D01*
X131867102Y-98867639D01*
X131959575Y-98669330D01*
X132016207Y-98457977D01*
X132035277Y-98240000D01*
X132016207Y-98022023D01*
X131959575Y-97810670D01*
X131867102Y-97612362D01*
X131867100Y-97612359D01*
X131867099Y-97612357D01*
X131741599Y-97433124D01*
X131682604Y-97374129D01*
X131586877Y-97278402D01*
X131407639Y-97152898D01*
X131407640Y-97152898D01*
X131407638Y-97152897D01*
X131308484Y-97106661D01*
X131209330Y-97060425D01*
X131209326Y-97060424D01*
X131209322Y-97060422D01*
X130997977Y-97003793D01*
X130780002Y-96984723D01*
X130779998Y-96984723D01*
X130634682Y-96997436D01*
X130562023Y-97003793D01*
X130562020Y-97003793D01*
X130350677Y-97060422D01*
X130350668Y-97060426D01*
X130152361Y-97152898D01*
X130152357Y-97152900D01*
X129973121Y-97278402D01*
X129818402Y-97433121D01*
X129692900Y-97612357D01*
X129692898Y-97612361D01*
X129622382Y-97763583D01*
X129576209Y-97816022D01*
X129509016Y-97835174D01*
X129442135Y-97814958D01*
X129397618Y-97763583D01*
X129383118Y-97732488D01*
X129327102Y-97612362D01*
X129327100Y-97612359D01*
X129327099Y-97612357D01*
X129201599Y-97433124D01*
X129142604Y-97374129D01*
X129046877Y-97278402D01*
X128867639Y-97152898D01*
X128867640Y-97152898D01*
X128867638Y-97152897D01*
X128768484Y-97106661D01*
X128669330Y-97060425D01*
X128669326Y-97060424D01*
X128669322Y-97060422D01*
X128457977Y-97003793D01*
X128240002Y-96984723D01*
X128239998Y-96984723D01*
X128094682Y-96997436D01*
X128022023Y-97003793D01*
X128022020Y-97003793D01*
X127810677Y-97060422D01*
X127810668Y-97060426D01*
X127612361Y-97152898D01*
X127612357Y-97152900D01*
X127433121Y-97278402D01*
X127278402Y-97433121D01*
X127152900Y-97612357D01*
X127152898Y-97612361D01*
X127082382Y-97763583D01*
X127036209Y-97816022D01*
X126969016Y-97835174D01*
X126902135Y-97814958D01*
X126857618Y-97763583D01*
X126843118Y-97732488D01*
X126787102Y-97612362D01*
X126787100Y-97612359D01*
X126787099Y-97612357D01*
X126661599Y-97433124D01*
X126602604Y-97374129D01*
X126506877Y-97278402D01*
X126327639Y-97152898D01*
X126327640Y-97152898D01*
X126327638Y-97152897D01*
X126228484Y-97106661D01*
X126129330Y-97060425D01*
X126129326Y-97060424D01*
X126129322Y-97060422D01*
X125917977Y-97003793D01*
X125700002Y-96984723D01*
X125699998Y-96984723D01*
X125554682Y-96997436D01*
X125482023Y-97003793D01*
X125482020Y-97003793D01*
X125270677Y-97060422D01*
X125270668Y-97060426D01*
X125072361Y-97152898D01*
X125072357Y-97152900D01*
X124893121Y-97278402D01*
X124738402Y-97433121D01*
X124612900Y-97612357D01*
X124612898Y-97612361D01*
X124520426Y-97810668D01*
X124520422Y-97810677D01*
X124463793Y-98022020D01*
X124463793Y-98022024D01*
X124444723Y-98239997D01*
X121875277Y-98239997D01*
X121856207Y-98022023D01*
X121799575Y-97810670D01*
X121707102Y-97612362D01*
X121707100Y-97612359D01*
X121707099Y-97612357D01*
X121581599Y-97433124D01*
X121522604Y-97374129D01*
X121426877Y-97278402D01*
X121247639Y-97152898D01*
X121247640Y-97152898D01*
X121247638Y-97152897D01*
X121148484Y-97106661D01*
X121049330Y-97060425D01*
X121049326Y-97060424D01*
X121049322Y-97060422D01*
X120837977Y-97003793D01*
X120620002Y-96984723D01*
X120619998Y-96984723D01*
X120474682Y-96997436D01*
X120402023Y-97003793D01*
X120402020Y-97003793D01*
X120190677Y-97060422D01*
X120190668Y-97060426D01*
X119992361Y-97152898D01*
X119992357Y-97152900D01*
X119813121Y-97278402D01*
X119658402Y-97433121D01*
X119532900Y-97612357D01*
X119532898Y-97612361D01*
X119440426Y-97810668D01*
X119440422Y-97810677D01*
X119383793Y-98022020D01*
X119383793Y-98022024D01*
X119364723Y-98239997D01*
X103676423Y-98239997D01*
X103622814Y-98063273D01*
X103529910Y-97889462D01*
X103529907Y-97889458D01*
X103526523Y-97884393D01*
X103528164Y-97883296D01*
X103504405Y-97827361D01*
X103516194Y-97758493D01*
X103526888Y-97741851D01*
X103526523Y-97741607D01*
X103529904Y-97736544D01*
X103529910Y-97736538D01*
X103622814Y-97562727D01*
X103680024Y-97374132D01*
X103699341Y-97178000D01*
X103680024Y-96981868D01*
X103622814Y-96793273D01*
X103621419Y-96790663D01*
X103621100Y-96789135D01*
X103620482Y-96787641D01*
X103620765Y-96787523D01*
X103607174Y-96722261D01*
X103631512Y-96657890D01*
X103637351Y-96650089D01*
X103687597Y-96515376D01*
X103687598Y-96515372D01*
X103693999Y-96455844D01*
X103694000Y-96455827D01*
X103694000Y-96158000D01*
X102938975Y-96158000D01*
X102974070Y-96122905D01*
X103020148Y-96043095D01*
X103044000Y-95954078D01*
X103044000Y-95861922D01*
X103020148Y-95772905D01*
X102974070Y-95693095D01*
X102938975Y-95658000D01*
X102944000Y-95658000D01*
X103694000Y-95658000D01*
X103694000Y-95360172D01*
X103693999Y-95360155D01*
X103687598Y-95300627D01*
X103687596Y-95300620D01*
X103637354Y-95165913D01*
X103637350Y-95165906D01*
X103551190Y-95050812D01*
X103551187Y-95050809D01*
X103436093Y-94964649D01*
X103436086Y-94964645D01*
X103301379Y-94914403D01*
X103301372Y-94914401D01*
X103241844Y-94908000D01*
X102944000Y-94908000D01*
X102944000Y-95658000D01*
X102938975Y-95658000D01*
X102908905Y-95627930D01*
X102829095Y-95581852D01*
X102740078Y-95558000D01*
X102647922Y-95558000D01*
X102558905Y-95581852D01*
X102479095Y-95627930D01*
X102413930Y-95693095D01*
X102367852Y-95772905D01*
X102344000Y-95861922D01*
X102344000Y-95954078D01*
X102367852Y-96043095D01*
X102413930Y-96122905D01*
X102449025Y-96158000D01*
X101668975Y-96158000D01*
X101704070Y-96122905D01*
X101750148Y-96043095D01*
X101774000Y-95954078D01*
X101774000Y-95861922D01*
X101750148Y-95772905D01*
X101704070Y-95693095D01*
X101638905Y-95627930D01*
X101559095Y-95581852D01*
X101470078Y-95558000D01*
X101377922Y-95558000D01*
X101288905Y-95581852D01*
X101209095Y-95627930D01*
X101143930Y-95693095D01*
X101097852Y-95772905D01*
X101074000Y-95861922D01*
X101074000Y-95954078D01*
X101097852Y-96043095D01*
X101143930Y-96122905D01*
X101179025Y-96158000D01*
X100454840Y-96158000D01*
X100495652Y-96292541D01*
X100588503Y-96466253D01*
X100591890Y-96471322D01*
X100590215Y-96472440D01*
X100613918Y-96528259D01*
X100602123Y-96597125D01*
X100591158Y-96614188D01*
X100591473Y-96614399D01*
X100588086Y-96619467D01*
X100495188Y-96793266D01*
X100437975Y-96981870D01*
X100418659Y-97178000D01*
X95060500Y-97178000D01*
X95060500Y-95657999D01*
X100454839Y-95657999D01*
X100454840Y-95658000D01*
X101174000Y-95658000D01*
X101174000Y-94938839D01*
X101674000Y-94938839D01*
X101674000Y-95658000D01*
X102444000Y-95658000D01*
X102444000Y-94908000D01*
X102146155Y-94908000D01*
X102086627Y-94914401D01*
X102086620Y-94914403D01*
X101951913Y-94964645D01*
X101951910Y-94964647D01*
X101943662Y-94970822D01*
X101878197Y-94995239D01*
X101814309Y-94981638D01*
X101814167Y-94981982D01*
X101812312Y-94981213D01*
X101810899Y-94980913D01*
X101808540Y-94979652D01*
X101674000Y-94938839D01*
X101174000Y-94938839D01*
X101173999Y-94938839D01*
X101039458Y-94979652D01*
X100865746Y-95072503D01*
X100865739Y-95072507D01*
X100713471Y-95197471D01*
X100588507Y-95349739D01*
X100588503Y-95349746D01*
X100495652Y-95523458D01*
X100454839Y-95657999D01*
X95060500Y-95657999D01*
X95060500Y-86960000D01*
X144100000Y-86960000D01*
X144100000Y-90760000D01*
X144110000Y-90770000D01*
X155850000Y-90770000D01*
X155850000Y-86960000D01*
X155813681Y-86923681D01*
X155815066Y-86922295D01*
X155799297Y-86904096D01*
X155773720Y-86878519D01*
X144326149Y-86878519D01*
X144308473Y-86896194D01*
X144306464Y-86903039D01*
X144253660Y-86948794D01*
X144202149Y-86960000D01*
X144100000Y-86960000D01*
X95060500Y-86960000D01*
X95060500Y-86274500D01*
X95080185Y-86207461D01*
X95132989Y-86161706D01*
X95184500Y-86150500D01*
X158935500Y-86150500D01*
X159002539Y-86170185D01*
G37*
%TD.AperFunction*%
%TD*%
M02*
