M48
; DRILL file {KiCad 9.0.3} date 2025-07-22T11:40:32+0300
; FORMAT={-:-/ absolute / inch / decimal}
; #@! TF.CreationDate,2025-07-22T11:40:32+03:00
; #@! TF.GenerationSoftware,Kicad,Pcbnew,9.0.3
; #@! TF.FileFunction,Plated,1,2,PTH
FMAT,2
INCH
; #@! TA.AperFunction,Plated,PTH,ViaDrill
T1C0.0118
; #@! TA.AperFunction,Plated,PTH,ComponentDrill
T2C0.0276
; #@! TA.AperFunction,Plated,PTH,ComponentDrill
T3C0.0315
; #@! TA.AperFunction,Plated,PTH,ComponentDrill
T4C0.0709
%
G90
G05
T1
X3.79Y-3.5
X3.79Y-3.6
X3.79Y-3.7
X3.79Y-3.8
X3.79Y-3.9
X3.79Y-4.0
X3.79Y-4.1
X3.79Y-4.2
X3.79Y-4.3
X3.79Y-4.4
X3.79Y-4.5
X3.79Y-4.6
X3.79Y-4.7
X3.79Y-4.8
X3.81Y-3.43
X3.85Y-4.83
X3.878Y-4.3441
X3.878Y-4.4441
X3.878Y-4.5441
X3.878Y-4.6441
X3.878Y-4.7441
X3.91Y-3.43
X3.9102Y-3.563
X3.95Y-4.83
X3.9933Y-4.0736
X3.9961Y-4.3638
X3.9961Y-4.4638
X3.9961Y-4.5638
X3.9961Y-4.6638
X4.0059Y-4.7539
X4.01Y-3.43
X4.0102Y-3.563
X4.0272Y-4.0685
X4.05Y-4.83
X4.065Y-4.1339
X4.065Y-4.1929
X4.0945Y-4.2618
X4.11Y-3.43
X4.1102Y-3.563
X4.1142Y-3.8976
X4.1142Y-3.9862
X4.15Y-4.83
X4.1528Y-4.5417
X4.1634Y-4.3307
X4.1732Y-3.7402
X4.1831Y-3.8386
X4.21Y-3.43
X4.2102Y-3.563
X4.2323Y-3.8976
X4.2323Y-3.9862
X4.2323Y-4.3898
X4.2421Y-3.7697
X4.25Y-4.83
X4.3012Y-3.7106
X4.3012Y-4.4488
X4.31Y-3.43
X4.3102Y-3.563
X4.311Y-4.2126
X4.3307Y-3.8976
X4.3307Y-3.9764
X4.34Y-4.83
X4.3504Y-3.8386
X4.3602Y-3.7697
X4.3898Y-4.4488
X4.41Y-3.43
X4.4102Y-3.563
X4.4169Y-3.9043
X4.439Y-4.2028
X4.44Y-4.83
X4.4488Y-4.3307
X4.4882Y-4.5472
X4.4882Y-4.5965
X4.4894Y-3.9173
X4.5079Y-4.4488
X4.51Y-3.43
X4.5102Y-3.563
X4.5177Y-3.7106
X4.54Y-4.83
X4.5417Y-4.1173
X4.5681Y-3.8461
X4.5866Y-3.7106
X4.5866Y-4.5472
X4.5866Y-4.685
X4.5965Y-4.4587
X4.61Y-3.43
X4.6102Y-3.563
X4.6358Y-3.7697
X4.64Y-4.83
X4.71Y-3.43
X4.7102Y-3.563
X4.7146Y-3.7106
X4.74Y-4.83
X4.7441Y-3.7697
X4.7494Y-4.3362
X4.7795Y-4.2598
X4.81Y-3.43
X4.8102Y-3.563
X4.8228Y-3.7106
X4.8327Y-3.9272
X4.84Y-4.83
X4.8524Y-3.7697
X4.91Y-3.43
X4.9102Y-3.563
X4.9213Y-3.7106
X4.9354Y-4.2346
X4.94Y-4.83
X4.9409Y-3.7697
X4.9705Y-4.0063
X5.0Y-4.5669
X5.0Y-4.7343
X5.01Y-3.43
X5.0102Y-3.563
X5.0197Y-3.7697
X5.0199Y-4.1986
X5.04Y-4.83
X5.0488Y-4.1134
X5.0492Y-3.9811
X5.0787Y-3.7106
X5.0984Y-3.7697
X5.11Y-3.43
X5.1102Y-3.563
X5.14Y-4.83
X5.1488Y-4.1409
X5.1626Y-3.9811
X5.1772Y-3.7697
X5.1986Y-4.2266
X5.2067Y-3.7106
X5.21Y-3.43
X5.2102Y-3.563
X5.24Y-4.83
X5.2455Y-4.3165
X5.2606Y-3.9413
X5.261Y-4.0378
X5.2756Y-3.7697
X5.3094Y-4.5354
X5.31Y-3.43
X5.3102Y-3.563
X5.3248Y-3.7106
X5.34Y-4.83
X5.3407Y-4.1175
X5.3642Y-3.7697
X5.41Y-3.43
X5.4102Y-3.563
X5.4108Y-4.1937
X5.4108Y-4.2858
X5.44Y-4.83
X5.4528Y-3.7106
X5.4626Y-3.7697
X5.4898Y-4.0339
X5.4898Y-4.0882
X5.51Y-3.43
X5.5102Y-3.563
X5.5217Y-4.6358
X5.5287Y-4.5354
X5.54Y-4.83
X5.5744Y-3.7701
X5.5787Y-3.6795
X5.5961Y-4.5665
X5.6083Y-4.8075
X5.61Y-3.43
X5.6102Y-3.563
X5.6134Y-4.4949
X5.6201Y-3.8287
X5.6264Y-4.2866
X5.64Y-4.83
X5.6791Y-3.937
X5.6988Y-4.6555
X5.7283Y-3.937
X5.7311Y-3.7685
X5.7311Y-3.8555
X5.7315Y-4.202
X5.74Y-4.83
X5.7516Y-4.4169
X5.7677Y-3.75
X5.7776Y-3.937
X5.7953Y-4.7756
X5.8252Y-3.6465
X5.84Y-4.83
X5.8799Y-4.335
X5.8933Y-3.7252
X5.8988Y-4.1713
X5.9252Y-3.6024
X5.9366Y-4.2496
X5.94Y-4.83
X5.9677Y-3.8657
X5.974Y-4.3854
X5.9843Y-4.5866
X5.9843Y-4.7047
X6.0236Y-3.6122
X6.0335Y-4.065
X6.0339Y-3.9366
X6.04Y-4.83
X6.0433Y-4.1929
X6.0433Y-4.2913
X6.1024Y-3.6122
X6.14Y-4.83
X6.21Y-3.43
X6.22Y-3.52
X6.22Y-3.62
X6.22Y-3.72
X6.22Y-3.82
X6.22Y-3.92
X6.22Y-4.02
X6.22Y-4.12
X6.22Y-4.22
X6.22Y-4.32
X6.22Y-4.42
X6.22Y-4.52
X6.22Y-4.62
X6.22Y-4.72
X6.22Y-4.82
T2
X3.9931Y-3.7759
X3.9931Y-3.8259
X3.9931Y-3.8759
X3.9931Y-3.9259
X3.9931Y-3.9759
X4.0431Y-3.7759
X4.0431Y-3.8259
X4.0431Y-3.8759
X4.0431Y-3.9259
X4.0431Y-3.9759
X5.8031Y-4.4559
X5.8031Y-4.5059
X5.8531Y-4.4559
X5.8531Y-4.5059
X5.9031Y-4.4559
X5.9031Y-4.5059
X5.9531Y-4.4559
X5.9531Y-4.5059
X6.0031Y-4.4559
X6.0031Y-4.5059
T3
X4.7488Y-3.8677
X4.7488Y-4.0677
X4.9488Y-3.8677
X4.9488Y-4.0677
X5.0488Y-3.8677
X5.0488Y-4.0677
X5.1488Y-3.8677
X5.1488Y-4.0677
T4
X4.7494Y-4.4213
X4.7494Y-4.6378
X4.9148Y-4.4213
X4.9148Y-4.6378
X5.0801Y-4.4213
X5.0801Y-4.6378
X5.2455Y-4.4213
X5.2455Y-4.6378
X5.4108Y-4.4213
X5.4108Y-4.6378
M30
