%TF.GenerationSoftware,KiCad,Pcbnew,9.0.3*%
%TF.CreationDate,2025-07-15T10:45:23+03:00*%
%TF.ProjectId,control_unit_tester,636f6e74-726f-46c5-9f75-6e69745f7465,R2*%
%TF.SameCoordinates,Original*%
%TF.FileFunction,Soldermask,Top*%
%TF.FilePolarity,Negative*%
%FSLAX46Y46*%
G04 Gerber Fmt 4.6, Leading zero omitted, Abs format (unit mm)*
G04 Created by KiCad (PCBNEW 9.0.3) date 2025-07-15 10:45:23*
%MOMM*%
%LPD*%
G01*
G04 APERTURE LIST*
G04 Aperture macros list*
%AMRoundRect*
0 Rectangle with rounded corners*
0 $1 Rounding radius*
0 $2 $3 $4 $5 $6 $7 $8 $9 X,Y pos of 4 corners*
0 Add a 4 corners polygon primitive as box body*
4,1,4,$2,$3,$4,$5,$6,$7,$8,$9,$2,$3,0*
0 Add four circle primitives for the rounded corners*
1,1,$1+$1,$2,$3*
1,1,$1+$1,$4,$5*
1,1,$1+$1,$6,$7*
1,1,$1+$1,$8,$9*
0 Add four rect primitives between the rounded corners*
20,1,$1+$1,$2,$3,$4,$5,0*
20,1,$1+$1,$4,$5,$6,$7,0*
20,1,$1+$1,$6,$7,$8,$9,0*
20,1,$1+$1,$8,$9,$2,$3,0*%
G04 Aperture macros list end*
%ADD10C,3.200000*%
%ADD11RoundRect,0.225000X0.225000X0.250000X-0.225000X0.250000X-0.225000X-0.250000X0.225000X-0.250000X0*%
%ADD12C,3.000000*%
%ADD13R,4.000000X1.500000*%
%ADD14RoundRect,0.225000X-0.250000X0.225000X-0.250000X-0.225000X0.250000X-0.225000X0.250000X0.225000X0*%
%ADD15RoundRect,0.200000X0.200000X0.275000X-0.200000X0.275000X-0.200000X-0.275000X0.200000X-0.275000X0*%
%ADD16RoundRect,0.225000X0.225000X0.375000X-0.225000X0.375000X-0.225000X-0.375000X0.225000X-0.375000X0*%
%ADD17RoundRect,0.150000X-0.825000X-0.150000X0.825000X-0.150000X0.825000X0.150000X-0.825000X0.150000X0*%
%ADD18R,0.400000X0.900000*%
%ADD19RoundRect,0.250000X-0.262500X-0.450000X0.262500X-0.450000X0.262500X0.450000X-0.262500X0.450000X0*%
%ADD20RoundRect,0.150000X0.150000X-0.850000X0.150000X0.850000X-0.150000X0.850000X-0.150000X-0.850000X0*%
%ADD21C,1.500000*%
%ADD22RoundRect,0.250001X-0.949999X-0.949999X0.949999X-0.949999X0.949999X0.949999X-0.949999X0.949999X0*%
%ADD23C,2.400000*%
%ADD24RoundRect,0.200000X-0.275000X0.200000X-0.275000X-0.200000X0.275000X-0.200000X0.275000X0.200000X0*%
%ADD25RoundRect,0.150000X0.150000X-0.512500X0.150000X0.512500X-0.150000X0.512500X-0.150000X-0.512500X0*%
%ADD26RoundRect,0.250000X1.100000X-0.325000X1.100000X0.325000X-1.100000X0.325000X-1.100000X-0.325000X0*%
%ADD27RoundRect,0.225000X0.250000X-0.225000X0.250000X0.225000X-0.250000X0.225000X-0.250000X-0.225000X0*%
%ADD28RoundRect,0.200000X0.275000X-0.200000X0.275000X0.200000X-0.275000X0.200000X-0.275000X-0.200000X0*%
%ADD29RoundRect,0.250000X0.450000X-0.262500X0.450000X0.262500X-0.450000X0.262500X-0.450000X-0.262500X0*%
%ADD30RoundRect,0.250000X0.650000X-1.000000X0.650000X1.000000X-0.650000X1.000000X-0.650000X-1.000000X0*%
%ADD31RoundRect,0.250000X0.325000X1.100000X-0.325000X1.100000X-0.325000X-1.100000X0.325000X-1.100000X0*%
%ADD32RoundRect,0.250000X-0.950000X-0.500000X0.950000X-0.500000X0.950000X0.500000X-0.950000X0.500000X0*%
%ADD33RoundRect,0.250000X-0.275000X-0.500000X0.275000X-0.500000X0.275000X0.500000X-0.275000X0.500000X0*%
%ADD34RoundRect,0.250000X0.550000X-1.250000X0.550000X1.250000X-0.550000X1.250000X-0.550000X-1.250000X0*%
%ADD35RoundRect,0.243750X0.456250X-0.243750X0.456250X0.243750X-0.456250X0.243750X-0.456250X-0.243750X0*%
%ADD36RoundRect,0.250000X-0.600000X0.600000X-0.600000X-0.600000X0.600000X-0.600000X0.600000X0.600000X0*%
G04 APERTURE END LIST*
D10*
%TO.C,H2*%
X247500000Y-67500000D03*
%TD*%
D11*
%TO.C,C68*%
X115289286Y-105050000D03*
X113739286Y-105050000D03*
%TD*%
D12*
%TO.C,J7*%
X134789474Y-65950000D03*
%TD*%
D13*
%TO.C,L2*%
X82408333Y-76975000D03*
X82408333Y-80575000D03*
%TD*%
D14*
%TO.C,C29*%
X228960714Y-102125000D03*
X228960714Y-103675000D03*
%TD*%
D12*
%TO.C,J2*%
X99750000Y-65950000D03*
%TD*%
D15*
%TO.C,R6*%
X89008333Y-76600000D03*
X87358333Y-76600000D03*
%TD*%
D16*
%TO.C,D21*%
X182182143Y-107125000D03*
X178882143Y-107125000D03*
%TD*%
D11*
%TO.C,C16*%
X247400000Y-97625000D03*
X245850000Y-97625000D03*
%TD*%
D12*
%TO.C,J22*%
X74375000Y-108425000D03*
%TD*%
D11*
%TO.C,C8*%
X180532143Y-97625000D03*
X178982143Y-97625000D03*
%TD*%
D14*
%TO.C,C45*%
X208385714Y-102125000D03*
X208385714Y-103675000D03*
%TD*%
D11*
%TO.C,C14*%
X225110714Y-97625000D03*
X223560714Y-97625000D03*
%TD*%
D12*
%TO.C,J15*%
X190852632Y-65950000D03*
%TD*%
%TO.C,J25*%
X107885000Y-108425000D03*
%TD*%
D17*
%TO.C,U10*%
X199571429Y-99585000D03*
X199571429Y-100855000D03*
X199571429Y-102125000D03*
X199571429Y-103395000D03*
X204521429Y-103395000D03*
X204521429Y-102125000D03*
X204521429Y-100855000D03*
X204521429Y-99585000D03*
%TD*%
D18*
%TO.C,RN6*%
X128478571Y-95900000D03*
X129278571Y-95900000D03*
X130078571Y-95900000D03*
X130878571Y-95900000D03*
X130878571Y-94200000D03*
X130078571Y-94200000D03*
X129278571Y-94200000D03*
X128478571Y-94200000D03*
%TD*%
D14*
%TO.C,C40*%
X119228571Y-102125000D03*
X119228571Y-103675000D03*
%TD*%
D11*
%TO.C,C69*%
X226735714Y-105050000D03*
X225185714Y-105050000D03*
%TD*%
D17*
%TO.C,U6*%
X154992857Y-99585000D03*
X154992857Y-100855000D03*
X154992857Y-102125000D03*
X154992857Y-103395000D03*
X159942857Y-103395000D03*
X159942857Y-102125000D03*
X159942857Y-100855000D03*
X159942857Y-99585000D03*
%TD*%
D14*
%TO.C,C50*%
X173132143Y-102125000D03*
X173132143Y-103675000D03*
%TD*%
%TO.C,C30*%
X251250000Y-102125000D03*
X251250000Y-103675000D03*
%TD*%
D11*
%TO.C,C2*%
X91375000Y-97625000D03*
X89825000Y-97625000D03*
%TD*%
D14*
%TO.C,C36*%
X108289286Y-102125000D03*
X108289286Y-103675000D03*
%TD*%
D16*
%TO.C,D38*%
X215535714Y-107050000D03*
X212235714Y-107050000D03*
%TD*%
D12*
%TO.C,J13*%
X176836842Y-65950000D03*
%TD*%
D16*
%TO.C,D32*%
X104089286Y-107050000D03*
X100789286Y-107050000D03*
%TD*%
D19*
%TO.C,R3*%
X72187500Y-87350000D03*
X74012500Y-87350000D03*
%TD*%
D14*
%TO.C,C37*%
X219735714Y-102125000D03*
X219735714Y-103675000D03*
%TD*%
D16*
%TO.C,D20*%
X170957143Y-107050000D03*
X167657143Y-107050000D03*
%TD*%
D14*
%TO.C,C39*%
X74650000Y-102125000D03*
X74650000Y-103675000D03*
%TD*%
D10*
%TO.C,H1*%
X65250000Y-67500000D03*
%TD*%
D18*
%TO.C,RN8*%
X159442857Y-109300000D03*
X158642857Y-109300000D03*
X157842857Y-109300000D03*
X157042857Y-109300000D03*
X157042857Y-111000000D03*
X157842857Y-111000000D03*
X158642857Y-111000000D03*
X159442857Y-111000000D03*
%TD*%
D14*
%TO.C,C46*%
X230675000Y-102125000D03*
X230675000Y-103675000D03*
%TD*%
D16*
%TO.C,D9*%
X137603571Y-107125000D03*
X134303571Y-107125000D03*
%TD*%
D18*
%TO.C,RN14*%
X204021429Y-109300000D03*
X203221429Y-109300000D03*
X202421429Y-109300000D03*
X201621429Y-109300000D03*
X201621429Y-111000000D03*
X202421429Y-111000000D03*
X203221429Y-111000000D03*
X204021429Y-111000000D03*
%TD*%
D11*
%TO.C,C58*%
X170632143Y-105000000D03*
X169082143Y-105000000D03*
%TD*%
D16*
%TO.C,D8*%
X126378571Y-107050000D03*
X123078571Y-107050000D03*
%TD*%
D12*
%TO.C,J21*%
X232900000Y-65950000D03*
%TD*%
D17*
%TO.C,U11*%
X99114286Y-99495000D03*
X99114286Y-100765000D03*
X99114286Y-102035000D03*
X99114286Y-103305000D03*
X104064286Y-103305000D03*
X104064286Y-102035000D03*
X104064286Y-100765000D03*
X104064286Y-99495000D03*
%TD*%
D11*
%TO.C,C70*%
X249025000Y-105050000D03*
X247475000Y-105050000D03*
%TD*%
%TO.C,C65*%
X159867857Y-105050000D03*
X158317857Y-105050000D03*
%TD*%
D16*
%TO.C,D45*%
X249050000Y-107125000D03*
X245750000Y-107125000D03*
%TD*%
D19*
%TO.C,R2*%
X75887500Y-90200000D03*
X77712500Y-90200000D03*
%TD*%
D20*
%TO.C,L1*%
X77800000Y-69350000D03*
X79700000Y-69350000D03*
%TD*%
D21*
%TO.C,TP3*%
X75875000Y-85050000D03*
%TD*%
D14*
%TO.C,C38*%
X242025000Y-102125000D03*
X242025000Y-103675000D03*
%TD*%
D17*
%TO.C,U4*%
X132703571Y-99585000D03*
X132703571Y-100855000D03*
X132703571Y-102125000D03*
X132703571Y-103395000D03*
X137653571Y-103395000D03*
X137653571Y-102125000D03*
X137653571Y-100855000D03*
X137653571Y-99585000D03*
%TD*%
D12*
%TO.C,J12*%
X169828947Y-65950000D03*
%TD*%
D19*
%TO.C,R1*%
X72187500Y-90200000D03*
X74012500Y-90200000D03*
%TD*%
D18*
%TO.C,RN10*%
X168107143Y-110900000D03*
X168907143Y-110900000D03*
X169707143Y-110900000D03*
X170507143Y-110900000D03*
X170507143Y-109200000D03*
X169707143Y-109200000D03*
X168907143Y-109200000D03*
X168107143Y-109200000D03*
%TD*%
%TO.C,RN19*%
X212685714Y-110900000D03*
X213485714Y-110900000D03*
X214285714Y-110900000D03*
X215085714Y-110900000D03*
X215085714Y-109200000D03*
X214285714Y-109200000D03*
X213485714Y-109200000D03*
X212685714Y-109200000D03*
%TD*%
D12*
%TO.C,J33*%
X197245000Y-108425000D03*
%TD*%
D14*
%TO.C,C43*%
X186096429Y-102125000D03*
X186096429Y-103675000D03*
%TD*%
D12*
%TO.C,J19*%
X218884211Y-65950000D03*
%TD*%
%TO.C,J27*%
X130225000Y-108425000D03*
%TD*%
%TO.C,J35*%
X219585000Y-108425000D03*
%TD*%
D18*
%TO.C,RN22*%
X234975000Y-110900000D03*
X235775000Y-110900000D03*
X236575000Y-110900000D03*
X237375000Y-110900000D03*
X237375000Y-109200000D03*
X236575000Y-109200000D03*
X235775000Y-109200000D03*
X234975000Y-109200000D03*
%TD*%
D12*
%TO.C,J30*%
X163735000Y-108425000D03*
%TD*%
D14*
%TO.C,C44*%
X96939286Y-102125000D03*
X96939286Y-103675000D03*
%TD*%
D21*
%TO.C,TP2*%
X73725000Y-92675000D03*
%TD*%
D22*
%TO.C,J1*%
X63725000Y-108350000D03*
D23*
X67225000Y-108350000D03*
%TD*%
D11*
%TO.C,C19*%
X86850000Y-82810000D03*
X85300000Y-82810000D03*
%TD*%
D14*
%TO.C,C47*%
X83975000Y-102125000D03*
X83975000Y-103675000D03*
%TD*%
D12*
%TO.C,J34*%
X208415000Y-108425000D03*
%TD*%
%TO.C,J32*%
X186075000Y-108425000D03*
%TD*%
D18*
%TO.C,RN15*%
X195346429Y-95900000D03*
X196146429Y-95900000D03*
X196946429Y-95900000D03*
X197746429Y-95900000D03*
X197746429Y-94200000D03*
X196946429Y-94200000D03*
X196146429Y-94200000D03*
X195346429Y-94200000D03*
%TD*%
D14*
%TO.C,C31*%
X86000000Y-102125000D03*
X86000000Y-103675000D03*
%TD*%
D12*
%TO.C,J6*%
X127781579Y-65950000D03*
%TD*%
D16*
%TO.C,D3*%
X93025000Y-107125000D03*
X89725000Y-107125000D03*
%TD*%
D17*
%TO.C,U7*%
X165982143Y-99495000D03*
X165982143Y-100765000D03*
X165982143Y-102035000D03*
X165982143Y-103305000D03*
X170932143Y-103305000D03*
X170932143Y-102035000D03*
X170932143Y-100765000D03*
X170932143Y-99495000D03*
%TD*%
D24*
%TO.C,R8*%
X88395000Y-82495000D03*
X88395000Y-84145000D03*
%TD*%
D25*
%TO.C,U17*%
X86408333Y-80725000D03*
X87358333Y-80725000D03*
X88308333Y-80725000D03*
X88308333Y-78450000D03*
X87358333Y-78450000D03*
X86408333Y-78450000D03*
%TD*%
D11*
%TO.C,C66*%
X182157143Y-105050000D03*
X180607143Y-105050000D03*
%TD*%
D18*
%TO.C,RN23*%
X248600000Y-109300000D03*
X247800000Y-109300000D03*
X247000000Y-109300000D03*
X246200000Y-109300000D03*
X246200000Y-111000000D03*
X247000000Y-111000000D03*
X247800000Y-111000000D03*
X248600000Y-111000000D03*
%TD*%
D17*
%TO.C,U12*%
X110414286Y-99585000D03*
X110414286Y-100855000D03*
X110414286Y-102125000D03*
X110414286Y-103395000D03*
X115364286Y-103395000D03*
X115364286Y-102125000D03*
X115364286Y-100855000D03*
X115364286Y-99585000D03*
%TD*%
D18*
%TO.C,RN1*%
X78950000Y-110900000D03*
X79750000Y-110900000D03*
X80550000Y-110900000D03*
X81350000Y-110900000D03*
X81350000Y-109200000D03*
X80550000Y-109200000D03*
X79750000Y-109200000D03*
X78950000Y-109200000D03*
%TD*%
%TO.C,RN12*%
X173057143Y-95900000D03*
X173857143Y-95900000D03*
X174657143Y-95900000D03*
X175457143Y-95900000D03*
X175457143Y-94200000D03*
X174657143Y-94200000D03*
X173857143Y-94200000D03*
X173057143Y-94200000D03*
%TD*%
D11*
%TO.C,C1*%
X80275000Y-97620000D03*
X78725000Y-97620000D03*
%TD*%
D24*
%TO.C,R9*%
X90045000Y-81570000D03*
X90045000Y-83220000D03*
%TD*%
D14*
%TO.C,C42*%
X163807143Y-102125000D03*
X163807143Y-103675000D03*
%TD*%
D12*
%TO.C,J31*%
X174905000Y-108425000D03*
%TD*%
D18*
%TO.C,RN2*%
X92575000Y-109300000D03*
X91775000Y-109300000D03*
X90975000Y-109300000D03*
X90175000Y-109300000D03*
X90175000Y-111000000D03*
X90975000Y-111000000D03*
X91775000Y-111000000D03*
X92575000Y-111000000D03*
%TD*%
%TO.C,RN18*%
X106189286Y-95900000D03*
X106989286Y-95900000D03*
X107789286Y-95900000D03*
X108589286Y-95900000D03*
X108589286Y-94200000D03*
X107789286Y-94200000D03*
X106989286Y-94200000D03*
X106189286Y-94200000D03*
%TD*%
D11*
%TO.C,C5*%
X147142857Y-97620000D03*
X145592857Y-97620000D03*
%TD*%
D16*
%TO.C,D2*%
X81800000Y-107050000D03*
X78500000Y-107050000D03*
%TD*%
D18*
%TO.C,RN5*%
X137153571Y-109300000D03*
X136353571Y-109300000D03*
X135553571Y-109300000D03*
X134753571Y-109300000D03*
X134753571Y-111000000D03*
X135553571Y-111000000D03*
X136353571Y-111000000D03*
X137153571Y-111000000D03*
%TD*%
D11*
%TO.C,C63*%
X93000000Y-105050000D03*
X91450000Y-105050000D03*
%TD*%
D18*
%TO.C,RN16*%
X101239286Y-110900000D03*
X102039286Y-110900000D03*
X102839286Y-110900000D03*
X103639286Y-110900000D03*
X103639286Y-109200000D03*
X102839286Y-109200000D03*
X102039286Y-109200000D03*
X101239286Y-109200000D03*
%TD*%
D12*
%TO.C,J18*%
X211876316Y-65950000D03*
%TD*%
D11*
%TO.C,C4*%
X135953571Y-97625000D03*
X134403571Y-97625000D03*
%TD*%
D17*
%TO.C,U5*%
X143692857Y-99495000D03*
X143692857Y-100765000D03*
X143692857Y-102035000D03*
X143692857Y-103305000D03*
X148642857Y-103305000D03*
X148642857Y-102035000D03*
X148642857Y-100765000D03*
X148642857Y-99495000D03*
%TD*%
D12*
%TO.C,J8*%
X141797368Y-65950000D03*
%TD*%
%TO.C,J14*%
X183844737Y-65950000D03*
%TD*%
%TO.C,J17*%
X204868421Y-65950000D03*
%TD*%
D14*
%TO.C,C53*%
X217710714Y-102125000D03*
X217710714Y-103675000D03*
%TD*%
%TO.C,C33*%
X152867857Y-102125000D03*
X152867857Y-103675000D03*
%TD*%
D18*
%TO.C,RN21*%
X217635714Y-95900000D03*
X218435714Y-95900000D03*
X219235714Y-95900000D03*
X220035714Y-95900000D03*
X220035714Y-94200000D03*
X219235714Y-94200000D03*
X218435714Y-94200000D03*
X217635714Y-94200000D03*
%TD*%
D11*
%TO.C,C55*%
X81475000Y-105000000D03*
X79925000Y-105000000D03*
%TD*%
D26*
%TO.C,C20*%
X77685000Y-80615000D03*
X77685000Y-77665000D03*
%TD*%
D18*
%TO.C,RN7*%
X145817857Y-110900000D03*
X146617857Y-110900000D03*
X147417857Y-110900000D03*
X148217857Y-110900000D03*
X148217857Y-109200000D03*
X147417857Y-109200000D03*
X146617857Y-109200000D03*
X145817857Y-109200000D03*
%TD*%
D11*
%TO.C,C7*%
X169432143Y-97620000D03*
X167882143Y-97620000D03*
%TD*%
D12*
%TO.C,J10*%
X155813158Y-65950000D03*
%TD*%
D14*
%TO.C,C24*%
X139803571Y-102125000D03*
X139803571Y-103675000D03*
%TD*%
D16*
%TO.C,D33*%
X115314286Y-107125000D03*
X112014286Y-107125000D03*
%TD*%
D14*
%TO.C,C32*%
X130578571Y-102125000D03*
X130578571Y-103675000D03*
%TD*%
D12*
%TO.C,J23*%
X85545000Y-108425000D03*
%TD*%
D27*
%TO.C,C22*%
X71675000Y-80250000D03*
X71675000Y-78700000D03*
%TD*%
D16*
%TO.C,D44*%
X237825000Y-107050000D03*
X234525000Y-107050000D03*
%TD*%
D12*
%TO.C,J28*%
X141395000Y-108425000D03*
%TD*%
D11*
%TO.C,C67*%
X204446429Y-105050000D03*
X202896429Y-105050000D03*
%TD*%
D18*
%TO.C,RN24*%
X239925000Y-95900000D03*
X240725000Y-95900000D03*
X241525000Y-95900000D03*
X242325000Y-95900000D03*
X242325000Y-94200000D03*
X241525000Y-94200000D03*
X240725000Y-94200000D03*
X239925000Y-94200000D03*
%TD*%
D16*
%TO.C,D26*%
X193246429Y-107050000D03*
X189946429Y-107050000D03*
%TD*%
D11*
%TO.C,C10*%
X202821429Y-97625000D03*
X201271429Y-97625000D03*
%TD*%
%TO.C,C15*%
X236300000Y-97620000D03*
X234750000Y-97620000D03*
%TD*%
D14*
%TO.C,C41*%
X141517857Y-102125000D03*
X141517857Y-103675000D03*
%TD*%
%TO.C,C35*%
X197446429Y-102125000D03*
X197446429Y-103675000D03*
%TD*%
D28*
%TO.C,R7*%
X90058333Y-80100000D03*
X90058333Y-78450000D03*
%TD*%
D14*
%TO.C,C54*%
X240000000Y-102125000D03*
X240000000Y-103675000D03*
%TD*%
%TO.C,C52*%
X106264286Y-102125000D03*
X106264286Y-103675000D03*
%TD*%
D12*
%TO.C,J4*%
X113765789Y-65950000D03*
%TD*%
D18*
%TO.C,RN20*%
X226310714Y-109300000D03*
X225510714Y-109300000D03*
X224710714Y-109300000D03*
X223910714Y-109300000D03*
X223910714Y-111000000D03*
X224710714Y-111000000D03*
X225510714Y-111000000D03*
X226310714Y-111000000D03*
%TD*%
D12*
%TO.C,J29*%
X152565000Y-108425000D03*
%TD*%
D17*
%TO.C,U13*%
X210560714Y-99495000D03*
X210560714Y-100765000D03*
X210560714Y-102035000D03*
X210560714Y-103305000D03*
X215510714Y-103305000D03*
X215510714Y-102035000D03*
X215510714Y-100765000D03*
X215510714Y-99495000D03*
%TD*%
D29*
%TO.C,R5*%
X71405000Y-103000000D03*
X71405000Y-101175000D03*
%TD*%
D17*
%TO.C,U16*%
X244150000Y-99585000D03*
X244150000Y-100855000D03*
X244150000Y-102125000D03*
X244150000Y-103395000D03*
X249100000Y-103395000D03*
X249100000Y-102125000D03*
X249100000Y-100855000D03*
X249100000Y-99585000D03*
%TD*%
D21*
%TO.C,TP1*%
X71650000Y-83875000D03*
%TD*%
D12*
%TO.C,J36*%
X230755000Y-108425000D03*
%TD*%
D18*
%TO.C,RN3*%
X83900000Y-95900000D03*
X84700000Y-95900000D03*
X85500000Y-95900000D03*
X86300000Y-95900000D03*
X86300000Y-94200000D03*
X85500000Y-94200000D03*
X84700000Y-94200000D03*
X83900000Y-94200000D03*
%TD*%
D19*
%TO.C,R4*%
X75887500Y-87350000D03*
X77712500Y-87350000D03*
%TD*%
D30*
%TO.C,D50*%
X82445000Y-69097500D03*
X82445000Y-65097500D03*
%TD*%
D31*
%TO.C,C18*%
X87383333Y-74075000D03*
X84433333Y-74075000D03*
%TD*%
D12*
%TO.C,J5*%
X120773684Y-65950000D03*
%TD*%
%TO.C,J9*%
X148805263Y-65950000D03*
%TD*%
D11*
%TO.C,C9*%
X191721429Y-97620000D03*
X190171429Y-97620000D03*
%TD*%
D18*
%TO.C,RN4*%
X123528571Y-110900000D03*
X124328571Y-110900000D03*
X125128571Y-110900000D03*
X125928571Y-110900000D03*
X125928571Y-109200000D03*
X125128571Y-109200000D03*
X124328571Y-109200000D03*
X123528571Y-109200000D03*
%TD*%
D17*
%TO.C,U14*%
X221860714Y-99585000D03*
X221860714Y-100855000D03*
X221860714Y-102125000D03*
X221860714Y-103395000D03*
X226810714Y-103395000D03*
X226810714Y-102125000D03*
X226810714Y-100855000D03*
X226810714Y-99585000D03*
%TD*%
D11*
%TO.C,C62*%
X237500000Y-105000000D03*
X235950000Y-105000000D03*
%TD*%
D18*
%TO.C,RN17*%
X114864286Y-109300000D03*
X114064286Y-109300000D03*
X113264286Y-109300000D03*
X112464286Y-109300000D03*
X112464286Y-111000000D03*
X113264286Y-111000000D03*
X114064286Y-111000000D03*
X114864286Y-111000000D03*
%TD*%
D11*
%TO.C,C64*%
X137578571Y-105050000D03*
X136028571Y-105050000D03*
%TD*%
D12*
%TO.C,J16*%
X197860526Y-65950000D03*
%TD*%
%TO.C,J24*%
X96715000Y-108425000D03*
%TD*%
D11*
%TO.C,C61*%
X215210714Y-105000000D03*
X213660714Y-105000000D03*
%TD*%
D12*
%TO.C,J3*%
X106757895Y-65950000D03*
%TD*%
D14*
%TO.C,C28*%
X117514286Y-102125000D03*
X117514286Y-103675000D03*
%TD*%
D17*
%TO.C,U15*%
X232850000Y-99495000D03*
X232850000Y-100765000D03*
X232850000Y-102035000D03*
X232850000Y-103305000D03*
X237800000Y-103305000D03*
X237800000Y-102035000D03*
X237800000Y-100765000D03*
X237800000Y-99495000D03*
%TD*%
D16*
%TO.C,D15*%
X159892857Y-107125000D03*
X156592857Y-107125000D03*
%TD*%
D17*
%TO.C,U9*%
X188271429Y-99495000D03*
X188271429Y-100765000D03*
X188271429Y-102035000D03*
X188271429Y-103305000D03*
X193221429Y-103305000D03*
X193221429Y-102035000D03*
X193221429Y-100765000D03*
X193221429Y-99495000D03*
%TD*%
D14*
%TO.C,C23*%
X95225000Y-102125000D03*
X95225000Y-103675000D03*
%TD*%
D11*
%TO.C,C13*%
X214010714Y-97620000D03*
X212460714Y-97620000D03*
%TD*%
%TO.C,C11*%
X102564286Y-97620000D03*
X101014286Y-97620000D03*
%TD*%
%TO.C,C59*%
X192921429Y-105000000D03*
X191371429Y-105000000D03*
%TD*%
D16*
%TO.C,D39*%
X226760714Y-107125000D03*
X223460714Y-107125000D03*
%TD*%
D11*
%TO.C,C12*%
X113664286Y-97625000D03*
X112114286Y-97625000D03*
%TD*%
D12*
%TO.C,J20*%
X225892105Y-65950000D03*
%TD*%
D14*
%TO.C,C48*%
X128553571Y-102125000D03*
X128553571Y-103675000D03*
%TD*%
D12*
%TO.C,J37*%
X241925000Y-108425000D03*
%TD*%
D14*
%TO.C,C27*%
X206671429Y-102125000D03*
X206671429Y-103675000D03*
%TD*%
D18*
%TO.C,RN11*%
X181732143Y-109300000D03*
X180932143Y-109300000D03*
X180132143Y-109300000D03*
X179332143Y-109300000D03*
X179332143Y-111000000D03*
X180132143Y-111000000D03*
X180932143Y-111000000D03*
X181732143Y-111000000D03*
%TD*%
D32*
%TO.C,D51*%
X81220000Y-74295000D03*
D33*
X78845000Y-74295000D03*
%TD*%
D32*
%TO.C,D52*%
X75325000Y-69375000D03*
D33*
X72950000Y-69375000D03*
%TD*%
D14*
%TO.C,C51*%
X195421429Y-102125000D03*
X195421429Y-103675000D03*
%TD*%
D18*
%TO.C,RN13*%
X190396429Y-110900000D03*
X191196429Y-110900000D03*
X191996429Y-110900000D03*
X192796429Y-110900000D03*
X192796429Y-109200000D03*
X191996429Y-109200000D03*
X191196429Y-109200000D03*
X190396429Y-109200000D03*
%TD*%
D17*
%TO.C,U8*%
X177282143Y-99585000D03*
X177282143Y-100855000D03*
X177282143Y-102125000D03*
X177282143Y-103395000D03*
X182232143Y-103395000D03*
X182232143Y-102125000D03*
X182232143Y-100855000D03*
X182232143Y-99585000D03*
%TD*%
D12*
%TO.C,J26*%
X119055000Y-108425000D03*
%TD*%
D11*
%TO.C,C3*%
X124853571Y-97620000D03*
X123303571Y-97620000D03*
%TD*%
D14*
%TO.C,C34*%
X175157143Y-102125000D03*
X175157143Y-103675000D03*
%TD*%
D11*
%TO.C,C6*%
X158242857Y-97625000D03*
X156692857Y-97625000D03*
%TD*%
D16*
%TO.C,D14*%
X148667857Y-107050000D03*
X145367857Y-107050000D03*
%TD*%
D17*
%TO.C,U2*%
X88125000Y-99585000D03*
X88125000Y-100855000D03*
X88125000Y-102125000D03*
X88125000Y-103395000D03*
X93075000Y-103395000D03*
X93075000Y-102125000D03*
X93075000Y-100855000D03*
X93075000Y-99585000D03*
%TD*%
%TO.C,U1*%
X76825000Y-99495000D03*
X76825000Y-100765000D03*
X76825000Y-102035000D03*
X76825000Y-103305000D03*
X81775000Y-103305000D03*
X81775000Y-102035000D03*
X81775000Y-100765000D03*
X81775000Y-99495000D03*
%TD*%
D16*
%TO.C,D27*%
X204471429Y-107125000D03*
X201171429Y-107125000D03*
%TD*%
D14*
%TO.C,C25*%
X162092857Y-102125000D03*
X162092857Y-103675000D03*
%TD*%
D34*
%TO.C,C17*%
X87270000Y-69645000D03*
X87270000Y-65245000D03*
%TD*%
D11*
%TO.C,C57*%
X148342857Y-105000000D03*
X146792857Y-105000000D03*
%TD*%
D17*
%TO.C,U3*%
X121403571Y-99495000D03*
X121403571Y-100765000D03*
X121403571Y-102035000D03*
X121403571Y-103305000D03*
X126353571Y-103305000D03*
X126353571Y-102035000D03*
X126353571Y-100765000D03*
X126353571Y-99495000D03*
%TD*%
D35*
%TO.C,D1*%
X71450000Y-106600000D03*
X71450000Y-104725000D03*
%TD*%
D14*
%TO.C,C49*%
X150842857Y-102125000D03*
X150842857Y-103675000D03*
%TD*%
%TO.C,C26*%
X184382143Y-102125000D03*
X184382143Y-103675000D03*
%TD*%
D11*
%TO.C,C56*%
X126053571Y-105000000D03*
X124503571Y-105000000D03*
%TD*%
D26*
%TO.C,C21*%
X74285000Y-80615000D03*
X74285000Y-77665000D03*
%TD*%
D18*
%TO.C,RN9*%
X150767857Y-95900000D03*
X151567857Y-95900000D03*
X152367857Y-95900000D03*
X153167857Y-95900000D03*
X153167857Y-94200000D03*
X152367857Y-94200000D03*
X151567857Y-94200000D03*
X150767857Y-94200000D03*
%TD*%
D11*
%TO.C,C60*%
X103764286Y-105000000D03*
X102214286Y-105000000D03*
%TD*%
D12*
%TO.C,J11*%
X162821053Y-65950000D03*
%TD*%
D36*
%TO.C,SW7*%
X141813158Y-73750000D03*
X141813158Y-76950000D03*
X141813158Y-80150000D03*
X141813158Y-83350000D03*
%TD*%
%TO.C,SW15*%
X197897368Y-73750000D03*
X197897368Y-76950000D03*
X197897368Y-80150000D03*
X197897368Y-83350000D03*
%TD*%
%TO.C,SW20*%
X232950000Y-73750000D03*
X232950000Y-76950000D03*
X232950000Y-80150000D03*
X232950000Y-83350000D03*
%TD*%
%TO.C,SW13*%
X183876316Y-73750000D03*
X183876316Y-76950000D03*
X183876316Y-80150000D03*
X183876316Y-83350000D03*
%TD*%
%TO.C,SW8*%
X148823684Y-73750000D03*
X148823684Y-76950000D03*
X148823684Y-80150000D03*
X148823684Y-83350000D03*
%TD*%
%TO.C,SW10*%
X162844737Y-73750000D03*
X162844737Y-76950000D03*
X162844737Y-80150000D03*
X162844737Y-83350000D03*
%TD*%
%TO.C,SW19*%
X225939474Y-73750000D03*
X225939474Y-76950000D03*
X225939474Y-80150000D03*
X225939474Y-83350000D03*
%TD*%
%TO.C,SW2*%
X106760526Y-73750000D03*
X106760526Y-76950000D03*
X106760526Y-80150000D03*
X106760526Y-83350000D03*
%TD*%
%TO.C,SW17*%
X211918421Y-73750000D03*
X211918421Y-76950000D03*
X211918421Y-80150000D03*
X211918421Y-83350000D03*
%TD*%
%TO.C,SW18*%
X218928947Y-73750000D03*
X218928947Y-76950000D03*
X218928947Y-80150000D03*
X218928947Y-83350000D03*
%TD*%
%TO.C,SW11*%
X169855263Y-73750000D03*
X169855263Y-76950000D03*
X169855263Y-80150000D03*
X169855263Y-83350000D03*
%TD*%
%TO.C,SW9*%
X155834211Y-73750000D03*
X155834211Y-76950000D03*
X155834211Y-80150000D03*
X155834211Y-83350000D03*
%TD*%
%TO.C,SW5*%
X127792105Y-73750000D03*
X127792105Y-76950000D03*
X127792105Y-80150000D03*
X127792105Y-83350000D03*
%TD*%
%TO.C,SW1*%
X99750000Y-73750000D03*
X99750000Y-76950000D03*
X99750000Y-80150000D03*
X99750000Y-83350000D03*
%TD*%
%TO.C,SW16*%
X204907895Y-73750000D03*
X204907895Y-76950000D03*
X204907895Y-80150000D03*
X204907895Y-83350000D03*
%TD*%
%TO.C,SW6*%
X134802632Y-73750000D03*
X134802632Y-76950000D03*
X134802632Y-80150000D03*
X134802632Y-83350000D03*
%TD*%
%TO.C,SW12*%
X176865789Y-73750000D03*
X176865789Y-76950000D03*
X176865789Y-80150000D03*
X176865789Y-83350000D03*
%TD*%
%TO.C,SW14*%
X190886842Y-73750000D03*
X190886842Y-76950000D03*
X190886842Y-80150000D03*
X190886842Y-83350000D03*
%TD*%
%TO.C,SW3*%
X113771053Y-73750000D03*
X113771053Y-76950000D03*
X113771053Y-80150000D03*
X113771053Y-83350000D03*
%TD*%
%TO.C,SW4*%
X120781579Y-73750000D03*
X120781579Y-76950000D03*
X120781579Y-80150000D03*
X120781579Y-83350000D03*
%TD*%
M02*
