%TF.GenerationSoftware,KiCad,Pcbnew,9.0.3*%
%TF.CreationDate,2025-07-15T10:45:23+03:00*%
%TF.ProjectId,control_unit_tester,636f6e74-726f-46c5-9f75-6e69745f7465,R2*%
%TF.SameCoordinates,Original*%
%TF.FileFunction,Paste,Bot*%
%TF.FilePolarity,Positive*%
%FSLAX46Y46*%
G04 Gerber Fmt 4.6, Leading zero omitted, Abs format (unit mm)*
G04 Created by KiCad (PCBNEW 9.0.3) date 2025-07-15 10:45:23*
%MOMM*%
%LPD*%
G01*
G04 APERTURE LIST*
G04 Aperture macros list*
%AMRoundRect*
0 Rectangle with rounded corners*
0 $1 Rounding radius*
0 $2 $3 $4 $5 $6 $7 $8 $9 X,Y pos of 4 corners*
0 Add a 4 corners polygon primitive as box body*
4,1,4,$2,$3,$4,$5,$6,$7,$8,$9,$2,$3,0*
0 Add four circle primitives for the rounded corners*
1,1,$1+$1,$2,$3*
1,1,$1+$1,$4,$5*
1,1,$1+$1,$6,$7*
1,1,$1+$1,$8,$9*
0 Add four rect primitives between the rounded corners*
20,1,$1+$1,$2,$3,$4,$5,0*
20,1,$1+$1,$4,$5,$6,$7,0*
20,1,$1+$1,$6,$7,$8,$9,0*
20,1,$1+$1,$8,$9,$2,$3,0*%
G04 Aperture macros list end*
%ADD10RoundRect,0.243750X-0.456250X0.243750X-0.456250X-0.243750X0.456250X-0.243750X0.456250X0.243750X0*%
G04 APERTURE END LIST*
D10*
%TO.C,D23*%
X165560000Y-96062500D03*
X165560000Y-97937500D03*
%TD*%
%TO.C,D47*%
X232130000Y-96062500D03*
X232130000Y-97937500D03*
%TD*%
%TO.C,D34*%
X96915000Y-96062500D03*
X96915000Y-97937500D03*
%TD*%
%TO.C,D46*%
X230055000Y-96062500D03*
X230055000Y-97937500D03*
%TD*%
%TO.C,D19*%
X154465000Y-96062500D03*
X154465000Y-97937500D03*
%TD*%
%TO.C,D28*%
X185675000Y-96062500D03*
X185675000Y-97937500D03*
%TD*%
%TO.C,D11*%
X121180000Y-96062500D03*
X121180000Y-97937500D03*
%TD*%
%TO.C,D16*%
X141295000Y-96062500D03*
X141295000Y-97937500D03*
%TD*%
%TO.C,D10*%
X119105000Y-96062500D03*
X119105000Y-97937500D03*
%TD*%
%TO.C,D49*%
X243225000Y-96062500D03*
X243225000Y-97937500D03*
%TD*%
%TO.C,D6*%
X85820000Y-96062500D03*
X85820000Y-97937500D03*
%TD*%
%TO.C,D48*%
X241150000Y-96062500D03*
X241150000Y-97937500D03*
%TD*%
%TO.C,D30*%
X196770000Y-96062500D03*
X196770000Y-97937500D03*
%TD*%
%TO.C,D29*%
X187750000Y-96062500D03*
X187750000Y-97937500D03*
%TD*%
%TO.C,D5*%
X76800000Y-96062500D03*
X76800000Y-97937500D03*
%TD*%
%TO.C,D17*%
X143370000Y-96062500D03*
X143370000Y-97937500D03*
%TD*%
%TO.C,D36*%
X108010000Y-96062500D03*
X108010000Y-97937500D03*
%TD*%
%TO.C,D12*%
X130200000Y-96062500D03*
X130200000Y-97937500D03*
%TD*%
%TO.C,D42*%
X218960000Y-96062500D03*
X218960000Y-97937500D03*
%TD*%
%TO.C,D43*%
X221035000Y-96062500D03*
X221035000Y-97937500D03*
%TD*%
%TO.C,D41*%
X209940000Y-96062500D03*
X209940000Y-97937500D03*
%TD*%
%TO.C,D13*%
X132275000Y-96062500D03*
X132275000Y-97937500D03*
%TD*%
%TO.C,D4*%
X74725000Y-96062500D03*
X74725000Y-97937500D03*
%TD*%
%TO.C,D25*%
X176655000Y-96062500D03*
X176655000Y-97937500D03*
%TD*%
%TO.C,D7*%
X87895000Y-96062500D03*
X87895000Y-97937500D03*
%TD*%
%TO.C,D40*%
X207865000Y-96062500D03*
X207865000Y-97937500D03*
%TD*%
%TO.C,D37*%
X110085000Y-96062500D03*
X110085000Y-97937500D03*
%TD*%
%TO.C,D22*%
X163485000Y-96062500D03*
X163485000Y-97937500D03*
%TD*%
%TO.C,D24*%
X174580000Y-96062500D03*
X174580000Y-97937500D03*
%TD*%
%TO.C,D31*%
X198845000Y-96062500D03*
X198845000Y-97937500D03*
%TD*%
%TO.C,D35*%
X98990000Y-96062500D03*
X98990000Y-97937500D03*
%TD*%
%TO.C,D18*%
X152390000Y-96062500D03*
X152390000Y-97937500D03*
%TD*%
M02*
