M48
; DRILL file {KiCad 9.0.3} date 2025-07-15T10:45:37+0300
; FORMAT={-:-/ absolute / inch / decimal}
; #@! TF.CreationDate,2025-07-15T10:45:37+03:00
; #@! TF.GenerationSoftware,Kicad,Pcbnew,9.0.3
; #@! TF.FileFunction,Plated,1,4,PTH
FMAT,2
INCH
; #@! TA.AperFunction,Plated,PTH,ViaDrill
T1C0.0118
; #@! TA.AperFunction,Plated,PTH,ViaDrill
T2C0.0157
; #@! TA.AperFunction,Plated,PTH,ComponentDrill
T3C0.0394
; #@! TA.AperFunction,Plated,PTH,ComponentDrill
T4C0.0472
; #@! TA.AperFunction,Plated,PTH,ComponentDrill
T5C0.0591
%
G90
G05
T1
X2.4016Y-2.4803
X2.4016Y-2.5591
X2.4016Y-2.6378
X2.4016Y-2.7165
X2.4016Y-2.7953
X2.4016Y-2.874
X2.4016Y-2.9528
X2.4016Y-3.0315
X2.4016Y-3.1102
X2.4016Y-3.189
X2.4016Y-3.2677
X2.4016Y-3.3465
X2.4016Y-3.4252
X2.4016Y-3.5039
X2.4016Y-3.5827
X2.4016Y-3.6614
X2.4016Y-3.7402
X2.4016Y-3.8189
X2.4016Y-3.8976
X2.4016Y-3.9764
X2.4016Y-4.0551
X2.4016Y-4.1339
X2.4016Y-4.2126
X2.4016Y-4.2913
X2.4016Y-4.3701
X2.4409Y-4.4094
X2.4803Y-2.4803
X2.5197Y-4.4094
X2.5591Y-2.4803
X2.5984Y-4.4094
X2.6378Y-2.4803
X2.6772Y-4.4094
X2.7165Y-2.4803
X2.7559Y-4.4094
X2.7953Y-2.4803
X2.8022Y-3.94
X2.812Y-4.2347
X2.8189Y-2.6535
X2.8199Y-2.5768
X2.8219Y-3.063
X2.8219Y-3.2402
X2.8287Y-2.8238
X2.8287Y-2.8942
X2.8287Y-2.9646
X2.8346Y-4.4094
X2.8612Y-3.2402
X2.874Y-2.4803
X2.8907Y-3.0157
X2.9006Y-3.2402
X2.9134Y-4.4094
X2.9257Y-3.0157
X2.937Y-2.6732
X2.937Y-2.7884
X2.939Y-4.1152
X2.9398Y-3.8957
X2.94Y-3.2402
X2.9488Y-3.7402
X2.9528Y-2.4803
X2.9606Y-3.0157
X2.9675Y-2.6732
X2.9675Y-2.7884
X2.9793Y-3.2402
X2.9921Y-4.4094
X2.998Y-2.6732
X2.998Y-2.7884
X3.0187Y-3.2402
X3.0266Y-3.0157
X3.0285Y-2.6732
X3.0285Y-2.7884
X3.0315Y-2.4803
X3.0354Y-3.6378
X3.0561Y-4.2146
X3.0615Y-3.0157
X3.063Y-2.9055
X3.063Y-2.937
X3.0709Y-4.4094
X3.0787Y-4.0679
X3.0965Y-3.0157
X3.0994Y-3.877
X3.1014Y-2.9734
X3.1043Y-2.877
X3.1084Y-4.2667
X3.1102Y-2.4803
X3.1112Y-4.1339
X3.1399Y-4.2598
X3.1496Y-4.4094
X3.1535Y-4.0256
X3.189Y-2.4803
X3.19Y-2.5276
X3.19Y-2.5625
X3.19Y-2.5974
X3.2195Y-3.8819
X3.2283Y-4.4094
X3.2677Y-2.4803
X3.3022Y-2.5285
X3.3022Y-2.5635
X3.3022Y-2.5984
X3.3061Y-4.1181
X3.3071Y-4.4094
X3.3241Y-2.8445
X3.3465Y-2.4803
X3.3622Y-3.9114
X3.3652Y-2.8799
X3.3652Y-2.9158
X3.3652Y-2.9518
X3.3809Y-3.6506
X3.3819Y-2.5335
X3.3819Y-2.5684
X3.3819Y-2.6033
X3.3848Y-4.1181
X3.3858Y-4.4094
X3.3868Y-3.9774
X3.4252Y-2.4803
X3.44Y-3.1348
X3.4488Y-3.7106
X3.4646Y-4.4094
X3.4911Y-2.5335
X3.4911Y-2.5684
X3.4911Y-2.6033
X3.497Y-4.2165
X3.5039Y-2.4803
X3.5246Y-4.0709
X3.5364Y-3.8071
X3.5433Y-4.4094
X3.5503Y-4.2707
X3.5571Y-3.3317
X3.5659Y-4.1358
X3.5817Y-3.1535
X3.5818Y-4.2638
X3.5827Y-2.4803
X3.5837Y-3.2116
X3.5994Y-4.0256
X3.6093Y-3.3307
X3.6142Y-2.5906
X3.6142Y-2.6732
X3.6152Y-2.9656
X3.6161Y-2.9331
X3.622Y-4.4094
X3.6614Y-2.4803
X3.6644Y-3.8878
X3.7008Y-4.4094
X3.7402Y-2.4803
X3.749Y-4.1181
X3.7795Y-4.4094
X3.814Y-3.8976
X3.8159Y-3.7293
X3.8165Y-4.1152
X3.8189Y-2.4803
X3.8583Y-4.4094
X3.8976Y-2.4803
X3.8976Y-3.6722
X3.9336Y-4.2146
X3.937Y-4.4094
X3.9563Y-4.0679
X3.9764Y-2.4803
X3.9769Y-3.877
X3.9859Y-4.2667
X3.9888Y-4.1339
X4.0157Y-4.4094
X4.0174Y-4.2598
X4.0311Y-4.0256
X4.0551Y-2.4803
X4.0945Y-4.4094
X4.097Y-3.8848
X4.1339Y-2.4803
X4.1732Y-4.4094
X4.1836Y-4.1181
X4.2126Y-2.4803
X4.2382Y-3.9124
X4.252Y-4.4094
X4.2532Y-3.6558
X4.2624Y-4.1181
X4.2643Y-3.9774
X4.2913Y-2.4803
X4.3199Y-3.7087
X4.3307Y-4.4094
X4.3701Y-2.4803
X4.3746Y-4.2165
X4.4021Y-4.0709
X4.4094Y-4.4094
X4.4134Y-3.811
X4.4279Y-4.2707
X4.4435Y-4.1358
X4.4488Y-2.4803
X4.4594Y-4.2638
X4.4769Y-4.0256
X4.4882Y-4.4094
X4.5276Y-2.4803
X4.5419Y-3.8868
X4.5669Y-4.4094
X4.6063Y-2.4803
X4.6265Y-4.1181
X4.6457Y-4.4094
X4.685Y-2.4803
X4.689Y-3.7313
X4.6929Y-3.9085
X4.694Y-4.1152
X4.7244Y-4.4094
X4.7638Y-2.4803
X4.7707Y-3.6742
X4.8031Y-4.4094
X4.8112Y-4.2146
X4.8338Y-4.0679
X4.8425Y-2.4803
X4.8545Y-3.877
X4.8635Y-4.2667
X4.8663Y-4.1339
X4.8819Y-4.4094
X4.895Y-4.2598
X4.9086Y-4.0256
X4.9213Y-2.4803
X4.9606Y-4.4094
X4.9746Y-3.8868
X5.0Y-2.4803
X5.0394Y-4.4094
X5.0612Y-4.1181
X5.0787Y-2.4803
X5.1161Y-3.9124
X5.1181Y-4.4094
X5.127Y-3.6595
X5.1399Y-4.1181
X5.1419Y-3.9774
X5.1575Y-2.4803
X5.1929Y-3.7087
X5.1969Y-4.4094
X5.2362Y-2.4803
X5.2521Y-4.2165
X5.26Y-3.8435
X5.2756Y-4.4094
X5.2797Y-4.0709
X5.3054Y-4.2707
X5.315Y-2.4803
X5.321Y-4.1358
X5.3369Y-4.2638
X5.3543Y-4.4094
X5.3545Y-4.0256
X5.3937Y-2.4803
X5.4194Y-3.8907
X5.4331Y-4.4094
X5.4724Y-2.4803
X5.5041Y-4.1181
X5.5118Y-4.4094
X5.5512Y-2.4803
X5.562Y-3.9085
X5.563Y-3.7313
X5.5716Y-4.1152
X5.5906Y-4.4094
X5.6299Y-2.4803
X5.6437Y-3.6752
X5.6693Y-4.4094
X5.6887Y-4.2146
X5.7087Y-2.4803
X5.7113Y-4.0679
X5.732Y-3.877
X5.741Y-4.2667
X5.7438Y-4.1339
X5.748Y-4.4094
X5.7725Y-4.2598
X5.7861Y-4.0256
X5.7874Y-2.4803
X5.8268Y-4.4094
X5.8521Y-3.8888
X5.8661Y-2.4803
X5.9055Y-4.4094
X5.9387Y-4.1181
X5.9449Y-2.4803
X5.9843Y-4.4094
X5.9951Y-3.9114
X5.9987Y-3.6654
X6.0174Y-4.1181
X6.0194Y-3.9774
X6.0236Y-2.4803
X6.063Y-4.4094
X6.0679Y-3.7087
X6.1024Y-2.4803
X6.1296Y-4.2165
X6.1375Y-3.8435
X6.1417Y-4.4094
X6.1572Y-4.0709
X6.1811Y-2.4803
X6.1829Y-4.2707
X6.1985Y-4.1358
X6.2144Y-4.2638
X6.2205Y-4.4094
X6.232Y-4.0256
X6.2598Y-2.4803
X6.297Y-3.8898
X6.2992Y-4.4094
X6.3386Y-2.4803
X6.378Y-4.4094
X6.3816Y-4.1181
X6.4173Y-2.4803
X6.437Y-3.7313
X6.4419Y-3.9104
X6.4491Y-4.1152
X6.4567Y-4.4094
X6.4961Y-2.4803
X6.5187Y-3.6772
X6.5354Y-4.4094
X6.5662Y-4.2146
X6.5748Y-2.4803
X6.5889Y-4.0679
X6.6095Y-3.877
X6.6142Y-4.4094
X6.6185Y-4.2667
X6.6213Y-4.1339
X6.65Y-4.2598
X6.6535Y-2.4803
X6.6637Y-4.0256
X6.6929Y-4.4094
X6.7296Y-3.8888
X6.7323Y-2.4803
X6.7717Y-4.4094
X6.811Y-2.4803
X6.8162Y-4.1181
X6.8504Y-4.4094
X6.8681Y-3.9124
X6.8763Y-3.6654
X6.8898Y-2.4803
X6.895Y-4.1181
X6.8969Y-3.9774
X6.9291Y-4.4094
X6.9439Y-3.7087
X6.9685Y-2.4803
X7.0072Y-4.2165
X7.0079Y-4.4094
X7.015Y-3.8435
X7.0347Y-4.0709
X7.0472Y-2.4803
X7.0605Y-4.2707
X7.0761Y-4.1358
X7.0866Y-4.4094
X7.092Y-4.2638
X7.1095Y-4.0256
X7.126Y-2.4803
X7.1654Y-4.4094
X7.1745Y-3.8927
X7.2047Y-2.4803
X7.2441Y-4.4094
X7.2591Y-4.1181
X7.2835Y-2.4803
X7.3061Y-3.9094
X7.31Y-3.7303
X7.3228Y-4.4094
X7.3266Y-4.1152
X7.3622Y-2.4803
X7.3917Y-3.6732
X7.4016Y-4.4094
X7.4409Y-2.4803
X7.4438Y-4.2146
X7.4664Y-4.0679
X7.4803Y-4.4094
X7.4871Y-3.877
X7.4961Y-4.2667
X7.4989Y-4.1339
X7.5197Y-2.4803
X7.5276Y-4.2598
X7.5412Y-4.0256
X7.5591Y-4.4094
X7.5984Y-2.4803
X7.6071Y-3.8898
X7.6378Y-4.4094
X7.6772Y-2.4803
X7.6919Y-3.8583
X7.6938Y-4.1181
X7.7165Y-4.4094
X7.7538Y-3.6654
X7.7559Y-2.4803
X7.7725Y-4.1181
X7.7745Y-3.9774
X7.7953Y-4.4094
X7.8297Y-3.7087
X7.8346Y-2.4803
X7.874Y-4.4094
X7.8847Y-4.2165
X7.8926Y-3.8435
X7.9123Y-4.0709
X7.9134Y-2.4803
X7.938Y-4.2707
X7.9528Y-4.4094
X7.9536Y-4.1358
X7.9695Y-4.2638
X7.9871Y-4.0256
X7.9921Y-2.4803
X8.0315Y-4.4094
X8.052Y-3.8907
X8.0709Y-2.4803
X8.1102Y-4.4094
X8.1367Y-4.1181
X8.1496Y-2.4803
X8.1831Y-3.7313
X8.189Y-4.4094
X8.1929Y-3.9065
X8.2042Y-4.1152
X8.2283Y-2.4803
X8.2667Y-3.6752
X8.2677Y-4.4094
X8.3071Y-2.4803
X8.3213Y-4.2146
X8.3439Y-4.0679
X8.3465Y-4.4094
X8.3646Y-3.877
X8.3736Y-4.2667
X8.3764Y-4.1339
X8.3858Y-2.4803
X8.4051Y-4.2598
X8.4187Y-4.0256
X8.4252Y-4.4094
X8.4646Y-2.4803
X8.4847Y-3.8898
X8.5039Y-4.4094
X8.5433Y-2.4803
X8.5669Y-3.8533
X8.5713Y-4.1181
X8.5827Y-4.4094
X8.622Y-2.4803
X8.6365Y-3.6602
X8.65Y-4.1181
X8.652Y-3.9774
X8.6614Y-4.4094
X8.7008Y-2.4803
X8.7028Y-3.7087
X8.7402Y-4.4094
X8.7622Y-4.2165
X8.7701Y-3.8435
X8.7795Y-2.4803
X8.7898Y-4.0709
X8.8155Y-4.2707
X8.8189Y-4.4094
X8.8311Y-4.1358
X8.847Y-4.2638
X8.8583Y-2.4803
X8.8646Y-4.0256
X8.8976Y-4.4094
X8.9296Y-3.8907
X8.937Y-2.4803
X8.9764Y-4.4094
X9.0142Y-4.1181
X9.0157Y-2.4803
X9.0551Y-4.4094
X9.0571Y-3.7352
X9.0579Y-3.9
X9.0817Y-4.1152
X9.0945Y-2.4803
X9.1339Y-4.4094
X9.1398Y-3.6762
X9.1732Y-2.4803
X9.1988Y-4.2146
X9.2126Y-4.4094
X9.2215Y-4.0679
X9.2421Y-3.877
X9.2511Y-4.2667
X9.252Y-2.4803
X9.2539Y-4.1339
X9.2826Y-4.2598
X9.2913Y-4.4094
X9.2963Y-4.0256
X9.3307Y-2.4803
X9.3622Y-3.8898
X9.3701Y-4.4094
X9.4094Y-2.4803
X9.4419Y-3.8573
X9.4488Y-4.1181
X9.4488Y-4.4094
X9.4882Y-2.4803
X9.5089Y-3.6654
X9.5276Y-4.1181
X9.5276Y-4.4094
X9.5295Y-3.9774
X9.5669Y-2.4803
X9.5758Y-3.7087
X9.6063Y-4.4094
X9.6398Y-4.2165
X9.6457Y-2.4803
X9.6476Y-3.8435
X9.6673Y-4.0709
X9.685Y-4.4094
X9.6931Y-4.2707
X9.7087Y-4.1358
X9.7244Y-2.4803
X9.7246Y-4.2638
X9.7421Y-4.0256
X9.7638Y-4.4094
X9.8031Y-2.4803
X9.8071Y-3.8917
X9.8425Y-4.4094
X9.8819Y-2.4803
X9.8917Y-4.1181
X9.9213Y-2.5197
X9.9213Y-2.5984
X9.9213Y-2.6772
X9.9213Y-2.7559
X9.9213Y-2.8346
X9.9213Y-2.9134
X9.9213Y-2.9921
X9.9213Y-3.0709
X9.9213Y-3.1496
X9.9213Y-3.2283
X9.9213Y-3.3071
X9.9213Y-3.3858
X9.9213Y-3.4646
X9.9213Y-3.5433
X9.9213Y-3.622
X9.9213Y-3.7008
X9.9213Y-3.7795
X9.9213Y-3.8583
X9.9213Y-3.937
X9.9213Y-4.1732
X9.9213Y-4.252
X9.9213Y-4.3307
X9.9213Y-4.4094
T2
X2.7982Y-3.438
X2.7992Y-3.5512
X2.9429Y-3.9783
X2.9508Y-3.438
X2.9508Y-3.5502
X3.0994Y-3.436
X3.0994Y-3.5522
X3.8204Y-3.9783
X4.698Y-3.9783
X5.5755Y-3.9783
X6.453Y-3.9783
X7.3306Y-3.9783
X8.2081Y-3.9783
X9.0856Y-3.9783
T3
X3.9272Y-2.9035
X3.9272Y-3.0295
X3.9272Y-3.1555
X3.9272Y-3.2815
X4.2032Y-2.9035
X4.2032Y-3.0295
X4.2032Y-3.1555
X4.2032Y-3.2815
X4.4792Y-2.9035
X4.4792Y-3.0295
X4.4792Y-3.1555
X4.4792Y-3.2815
X4.7552Y-2.9035
X4.7552Y-3.0295
X4.7552Y-3.1555
X4.7552Y-3.2815
X5.0312Y-2.9035
X5.0312Y-3.0295
X5.0312Y-3.1555
X5.0312Y-3.2815
X5.3072Y-2.9035
X5.3072Y-3.0295
X5.3072Y-3.1555
X5.3072Y-3.2815
X5.5832Y-2.9035
X5.5832Y-3.0295
X5.5832Y-3.1555
X5.5832Y-3.2815
X5.8592Y-2.9035
X5.8592Y-3.0295
X5.8592Y-3.1555
X5.8592Y-3.2815
X6.1352Y-2.9035
X6.1352Y-3.0295
X6.1352Y-3.1555
X6.1352Y-3.2815
X6.4112Y-2.9035
X6.4112Y-3.0295
X6.4112Y-3.1555
X6.4112Y-3.2815
X6.6872Y-2.9035
X6.6872Y-3.0295
X6.6872Y-3.1555
X6.6872Y-3.2815
X6.9632Y-2.9035
X6.9632Y-3.0295
X6.9632Y-3.1555
X6.9632Y-3.2815
X7.2392Y-2.9035
X7.2392Y-3.0295
X7.2392Y-3.1555
X7.2392Y-3.2815
X7.5152Y-2.9035
X7.5152Y-3.0295
X7.5152Y-3.1555
X7.5152Y-3.2815
X7.7912Y-2.9035
X7.7912Y-3.0295
X7.7912Y-3.1555
X7.7912Y-3.2815
X8.0672Y-2.9035
X8.0672Y-3.0295
X8.0672Y-3.1555
X8.0672Y-3.2815
X8.3432Y-2.9035
X8.3432Y-3.0295
X8.3432Y-3.1555
X8.3432Y-3.2815
X8.6192Y-2.9035
X8.6192Y-3.0295
X8.6192Y-3.1555
X8.6192Y-3.2815
X8.8953Y-2.9035
X8.8953Y-3.0295
X8.8953Y-3.1555
X8.8953Y-3.2815
X9.1713Y-2.9035
X9.1713Y-3.0295
X9.1713Y-3.1555
X9.1713Y-3.2815
T4
X2.5089Y-4.2657
X2.6467Y-4.2657
T5
X2.9281Y-4.2687
X3.3679Y-4.2687
X3.8077Y-4.2687
X3.9272Y-2.5965
X4.2031Y-2.5965
X4.2474Y-4.2687
X4.479Y-2.5965
X4.6872Y-4.2687
X4.7549Y-2.5965
X5.0308Y-2.5965
X5.127Y-4.2687
X5.3067Y-2.5965
X5.5667Y-4.2687
X5.5826Y-2.5965
X5.8585Y-2.5965
X6.0065Y-4.2687
X6.1344Y-2.5965
X6.4103Y-2.5965
X6.4463Y-4.2687
X6.6862Y-2.5965
X6.886Y-4.2687
X6.9621Y-2.5965
X7.238Y-2.5965
X7.3258Y-4.2687
X7.5139Y-2.5965
X7.7656Y-4.2687
X7.7898Y-2.5965
X8.0657Y-2.5965
X8.2053Y-4.2687
X8.3416Y-2.5965
X8.6175Y-2.5965
X8.6451Y-4.2687
X8.8934Y-2.5965
X9.0848Y-4.2687
X9.1693Y-2.5965
X9.5246Y-4.2687
M30
