M48
; DRILL file {KiCad 9.0.0-rc2-6-ga1fa0bdb0b} date 2025-01-23T13:26:04+0200
; FORMAT={-:-/ absolute / metric / decimal}
; #@! TF.CreationDate,2025-01-23T13:26:04+02:00
; #@! TF.GenerationSoftware,Kicad,Pcbnew,9.0.0-rc2-6-ga1fa0bdb0b
; #@! TF.FileFunction,Plated,1,2,PTH
FMAT,2
METRIC
; #@! TA.AperFunction,Plated,PTH,ViaDrill
T1C0.400
; #@! TA.AperFunction,Plated,PTH,ComponentDrill
T2C1.000
; #@! TA.AperFunction,Plated,PTH,ComponentDrill
T3C1.800
%
G90
G05
T1
X132.05Y-72.05
X132.05Y-74.05
X132.05Y-76.05
X132.05Y-78.05
X132.05Y-80.05
X132.05Y-82.05
X132.05Y-84.05
X132.05Y-86.05
X132.05Y-88.05
X132.05Y-90.05
X132.05Y-92.05
X132.05Y-94.05
X132.05Y-96.05
X132.05Y-98.05
X132.05Y-100.05
X132.05Y-102.05
X132.05Y-104.05
X132.05Y-106.05
X132.05Y-108.05
X132.05Y-110.05
X132.05Y-112.05
X132.05Y-114.05
X132.05Y-116.05
X132.05Y-118.05
X132.05Y-120.05
X132.05Y-122.05
X132.05Y-124.05
X132.05Y-126.05
X132.05Y-128.05
X132.05Y-130.05
X135.05Y-72.05
X135.05Y-134.05
X137.05Y-72.05
X137.05Y-134.05
X138.05Y-77.05
X138.05Y-81.05
X138.05Y-85.05
X138.05Y-96.05
X138.05Y-100.05
X138.05Y-104.05
X139.05Y-72.05
X139.05Y-134.05
X141.05Y-72.05
X141.05Y-77.05
X141.05Y-81.05
X141.05Y-85.05
X141.05Y-96.05
X141.05Y-100.05
X141.05Y-104.05
X141.05Y-134.05
X143.05Y-72.05
X143.05Y-134.05
X144.05Y-77.05
X144.05Y-81.05
X144.05Y-85.05
X144.05Y-96.05
X144.05Y-100.05
X145.05Y-72.05
X145.05Y-134.05
X145.51Y-102.92
X145.54Y-104.54
X146.25Y-125.55
X146.3Y-123.075
X147.05Y-72.05
X147.05Y-134.05
X147.53Y-107.18
X147.65Y-127.95
X148.2Y-99.97
X149.05Y-72.05
X149.05Y-134.05
X149.45Y-123.85
X149.8Y-122.7
X149.87Y-99.99
X150.1Y-113.65
X150.2Y-112.05
X150.325Y-94.75
X150.75Y-110.6
X151.05Y-72.05
X151.05Y-134.05
X151.4Y-118.0
X151.4Y-121.5
X151.425Y-128.35
X151.45Y-119.6
X151.7Y-94.8
X151.9Y-106.27
X152.45Y-112.6
X152.65Y-114.85
X152.75Y-124.15
X152.775Y-100.7
X153.05Y-72.05
X153.05Y-134.05
X153.3Y-110.65
X153.35Y-94.95
X154.15Y-116.45
X154.275Y-104.575
X154.5Y-98.65
X154.5Y-112.85
X154.55Y-100.25
X154.8Y-102.2
X155.05Y-72.05
X155.05Y-134.05
X155.6Y-110.6
X155.725Y-107.5
X155.75Y-114.9
X157.0Y-107.85
X157.0Y-110.7
X157.05Y-72.05
X157.05Y-134.05
X157.15Y-113.35
X157.9Y-91.4
X157.9Y-118.05
X157.9Y-120.3
X158.15Y-97.25
X158.15Y-107.1
X158.15Y-110.45
X159.0Y-101.8
X159.025Y-105.875
X159.05Y-72.05
X159.05Y-134.05
X159.1Y-89.55
X159.125Y-100.05
X159.35Y-114.05
X159.7Y-94.95
X159.85Y-110.75
X161.05Y-72.05
X161.05Y-134.05
X161.65Y-104.0
X161.675Y-98.575
X161.7Y-102.9
X161.8Y-105.15
X162.425Y-95.775
X163.05Y-72.05
X163.05Y-134.05
X163.8Y-94.05
X163.8Y-110.75
X163.9Y-86.95
X165.0Y-104.25
X165.05Y-72.05
X165.05Y-134.05
X166.35Y-105.4
X166.625Y-96.0
X166.65Y-98.35
X166.65Y-115.55
X167.0Y-97.3
X167.05Y-72.05
X167.05Y-134.05
X167.45Y-110.75
X168.35Y-105.85
X169.05Y-72.05
X169.05Y-134.05
X170.35Y-112.15
X170.38Y-96.23
X171.05Y-72.05
X171.05Y-134.05
X171.275Y-106.75
X171.62Y-96.3
X172.05Y-81.05
X172.05Y-85.05
X172.1Y-110.425
X172.15Y-98.025
X172.875Y-96.6
X173.05Y-72.05
X173.05Y-134.05
X173.125Y-105.075
X173.775Y-109.1
X174.025Y-102.25
X174.05Y-101.05
X174.875Y-103.35
X175.025Y-97.95
X175.05Y-72.05
X175.05Y-81.05
X175.05Y-85.05
X175.05Y-134.05
X175.325Y-96.35
X176.05Y-102.3
X176.125Y-106.675
X176.325Y-96.35
X177.05Y-72.05
X177.05Y-102.15
X177.05Y-134.05
X178.05Y-81.05
X178.05Y-85.05
X178.05Y-113.05
X178.05Y-117.05
X178.05Y-121.05
X178.125Y-103.225
X178.3Y-102.325
X179.05Y-72.05
X179.05Y-134.05
X181.05Y-72.05
X181.05Y-113.05
X181.05Y-117.05
X181.05Y-121.05
X181.05Y-134.05
X182.525Y-96.325
X182.525Y-97.825
X182.625Y-101.8
X182.9Y-102.8
X183.05Y-72.05
X183.05Y-134.05
X183.8Y-101.325
X184.0Y-96.35
X184.025Y-97.85
X184.05Y-113.05
X184.05Y-117.05
X184.05Y-121.05
X185.05Y-72.05
X185.05Y-134.05
X187.05Y-72.05
X187.05Y-134.05
X189.05Y-134.05
X191.05Y-75.05
X191.05Y-77.05
X191.05Y-79.05
X191.05Y-81.05
X191.05Y-83.05
X191.05Y-85.05
X191.05Y-87.05
X191.05Y-89.05
X191.05Y-100.05
X191.05Y-102.05
X191.05Y-104.05
X191.05Y-106.05
X191.05Y-108.05
X191.05Y-110.05
X191.05Y-112.05
X191.05Y-114.05
X191.05Y-116.05
X191.05Y-118.05
X191.05Y-120.05
X191.05Y-122.05
X191.05Y-124.05
X191.05Y-126.05
X191.05Y-128.05
X191.05Y-130.05
X191.05Y-132.05
X191.05Y-134.05
T2
X155.425Y-83.225
X155.425Y-85.765
X157.965Y-83.225
X157.965Y-85.765
X160.505Y-83.225
X160.505Y-85.765
X168.935Y-90.853
X168.935Y-93.393
X171.475Y-90.853
X171.475Y-93.393
X174.015Y-90.853
X174.015Y-93.393
X176.555Y-90.853
X176.555Y-93.393
X179.095Y-90.853
X179.095Y-93.393
X181.635Y-90.853
X181.635Y-93.393
X184.175Y-90.853
X184.175Y-93.393
X186.715Y-90.853
X186.715Y-93.393
X186.715Y-96.899
X189.255Y-90.853
X189.255Y-93.393
X189.255Y-96.899
T3
X155.125Y-123.5
X155.125Y-129.0
X159.325Y-123.5
X159.325Y-129.0
X163.525Y-123.5
X163.525Y-129.0
X167.725Y-123.5
X167.725Y-129.0
X171.925Y-123.5
X171.925Y-129.0
M30
