G04 #@! TF.GenerationSoftware,KiCad,Pcbnew,9.0.0-rc2-6-ga1fa0bdb0b*
G04 #@! TF.CreationDate,2025-01-23T13:26:01+02:00*
G04 #@! TF.ProjectId,bk_can_bus_extension_v2,626b5f63-616e-45f6-9275-735f65787465,Rev 4*
G04 #@! TF.SameCoordinates,Original*
G04 #@! TF.FileFunction,Copper,L2,Bot*
G04 #@! TF.FilePolarity,Positive*
%FSLAX46Y46*%
G04 Gerber Fmt 4.6, Leading zero omitted, Abs format (unit mm)*
G04 Created by KiCad (PCBNEW 9.0.0-rc2-6-ga1fa0bdb0b) date 2025-01-23 13:26:01*
%MOMM*%
%LPD*%
G01*
G04 APERTURE LIST*
G04 Aperture macros list*
%AMRoundRect*
0 Rectangle with rounded corners*
0 $1 Rounding radius*
0 $2 $3 $4 $5 $6 $7 $8 $9 X,Y pos of 4 corners*
0 Add a 4 corners polygon primitive as box body*
4,1,4,$2,$3,$4,$5,$6,$7,$8,$9,$2,$3,0*
0 Add four circle primitives for the rounded corners*
1,1,$1+$1,$2,$3*
1,1,$1+$1,$4,$5*
1,1,$1+$1,$6,$7*
1,1,$1+$1,$8,$9*
0 Add four rect primitives between the rounded corners*
20,1,$1+$1,$2,$3,$4,$5,0*
20,1,$1+$1,$4,$5,$6,$7,0*
20,1,$1+$1,$6,$7,$8,$9,0*
20,1,$1+$1,$8,$9,$2,$3,0*%
G04 Aperture macros list end*
G04 #@! TA.AperFunction,ComponentPad*
%ADD10R,1.700000X1.700000*%
G04 #@! TD*
G04 #@! TA.AperFunction,ComponentPad*
%ADD11O,1.700000X1.700000*%
G04 #@! TD*
G04 #@! TA.AperFunction,ComponentPad*
%ADD12RoundRect,0.250001X1.099999X1.599999X-1.099999X1.599999X-1.099999X-1.599999X1.099999X-1.599999X0*%
G04 #@! TD*
G04 #@! TA.AperFunction,ComponentPad*
%ADD13O,2.700000X3.700000*%
G04 #@! TD*
G04 #@! TA.AperFunction,ViaPad*
%ADD14C,0.800000*%
G04 #@! TD*
G04 #@! TA.AperFunction,Conductor*
%ADD15C,0.254000*%
G04 #@! TD*
G04 #@! TA.AperFunction,Conductor*
%ADD16C,0.300000*%
G04 #@! TD*
G04 #@! TA.AperFunction,Conductor*
%ADD17C,0.250000*%
G04 #@! TD*
G04 APERTURE END LIST*
D10*
G04 #@! TO.P,J1,1,UART1_TX*
G04 #@! TO.N,/MCU/PIC_RX*
X189255000Y-93393000D03*
D11*
G04 #@! TO.P,J1,2,PA1*
G04 #@! TO.N,unconnected-(J1-PA1-Pad2)*
X189255000Y-90853000D03*
G04 #@! TO.P,J1,3,UART1_RX*
G04 #@! TO.N,/MCU/PIC_TX*
X186715000Y-93393000D03*
G04 #@! TO.P,J1,4,PC24*
G04 #@! TO.N,unconnected-(J1-PC24-Pad4)*
X186715000Y-90853000D03*
G04 #@! TO.P,J1,5,GND*
G04 #@! TO.N,GND*
X184175000Y-93393000D03*
G04 #@! TO.P,J1,6,PC14*
G04 #@! TO.N,unconnected-(J1-PC14-Pad6)*
X184175000Y-90853000D03*
G04 #@! TO.P,J1,7,UART0_RX*
G04 #@! TO.N,/UART0_RX*
X181635000Y-93393000D03*
G04 #@! TO.P,J1,8,PC13*
G04 #@! TO.N,unconnected-(J1-PC13-Pad8)*
X181635000Y-90853000D03*
G04 #@! TO.P,J1,9,UART0_TX*
G04 #@! TO.N,/UART0_TX*
X179095000Y-93393000D03*
G04 #@! TO.P,J1,10,PC15*
G04 #@! TO.N,unconnected-(J1-PC15-Pad10)*
X179095000Y-90853000D03*
G04 #@! TO.P,J1,11,GND*
G04 #@! TO.N,GND*
X176555000Y-93393000D03*
G04 #@! TO.P,J1,12,PA2*
G04 #@! TO.N,/MCU/PIC_PIN1*
X176555000Y-90853000D03*
G04 #@! TO.P,J1,13,PC11*
G04 #@! TO.N,/3V3_ON*
X174015000Y-93393000D03*
G04 #@! TO.P,J1,14,TWI_SCL*
G04 #@! TO.N,unconnected-(J1-TWI_SCL-Pad14)*
X174015000Y-90853000D03*
G04 #@! TO.P,J1,15,PC10*
G04 #@! TO.N,/MCU/PIC_PIN2*
X171475000Y-93393000D03*
G04 #@! TO.P,J1,16,TWI_SDA*
G04 #@! TO.N,unconnected-(J1-TWI_SDA-Pad16)*
X171475000Y-90853000D03*
G04 #@! TO.P,J1,17,GND*
G04 #@! TO.N,GND*
X168935000Y-93393000D03*
G04 #@! TO.P,J1,18,GND*
X168935000Y-90853000D03*
G04 #@! TD*
D10*
G04 #@! TO.P,J2,1,VSYS*
G04 #@! TO.N,+VSYS*
X189255000Y-96899000D03*
D11*
G04 #@! TO.P,J2,2,3.3V*
G04 #@! TO.N,Net-(J2-3.3V)*
X186715000Y-96899000D03*
G04 #@! TD*
D12*
G04 #@! TO.P,J3,1,Pin_1*
G04 #@! TO.N,unconnected-(J3-Pin_1-Pad1)*
X171925000Y-129000000D03*
D13*
G04 #@! TO.P,J3,2,Pin_2*
G04 #@! TO.N,unconnected-(J3-Pin_2-Pad2)*
X167725000Y-129000000D03*
G04 #@! TO.P,J3,3,Pin_3*
G04 #@! TO.N,GND*
X163525000Y-129000000D03*
G04 #@! TO.P,J3,4,Pin_4*
X159325000Y-129000000D03*
G04 #@! TO.P,J3,5,Pin_5*
G04 #@! TO.N,/CAN_N*
X155125000Y-129000000D03*
G04 #@! TO.P,J3,6,Pin_6*
G04 #@! TO.N,unconnected-(J3-Pin_6-Pad6)*
X171925000Y-123500000D03*
G04 #@! TO.P,J3,7,Pin_7*
G04 #@! TO.N,/SERIAL_RX*
X167725000Y-123500000D03*
G04 #@! TO.P,J3,8,Pin_8*
G04 #@! TO.N,/SERIAL_TX*
X163525000Y-123500000D03*
G04 #@! TO.P,J3,9,Pin_9*
G04 #@! TO.N,/OBD2_VIN*
X159325000Y-123500000D03*
G04 #@! TO.P,J3,10,Pin_10*
G04 #@! TO.N,/CAN_P*
X155125000Y-123500000D03*
G04 #@! TD*
D10*
G04 #@! TO.P,J4,1,Pin_1*
G04 #@! TO.N,+3V3*
X155425000Y-83225000D03*
D11*
G04 #@! TO.P,J4,2,Pin_2*
G04 #@! TO.N,unconnected-(J4-Pin_2-Pad2)*
X155425000Y-85765000D03*
G04 #@! TO.P,J4,3,Pin_3*
G04 #@! TO.N,/MCU/RESET*
X157965000Y-83225000D03*
G04 #@! TO.P,J4,4,Pin_4*
G04 #@! TO.N,/MCU/ICSP_DAT*
X157965000Y-85765000D03*
G04 #@! TO.P,J4,5,Pin_5*
G04 #@! TO.N,/MCU/ICSP_CLK*
X160505000Y-83225000D03*
G04 #@! TO.P,J4,6,Pin_6*
G04 #@! TO.N,GND*
X160505000Y-85765000D03*
G04 #@! TD*
D14*
G04 #@! TO.N,GND*
X191050000Y-110050000D03*
X149050000Y-72050000D03*
X157050000Y-72050000D03*
X141050000Y-81050000D03*
X155050000Y-134050000D03*
X191050000Y-112050000D03*
X147050000Y-72050000D03*
X161050000Y-72050000D03*
X132050000Y-126050000D03*
X149800000Y-122700000D03*
X182525000Y-96325000D03*
X132050000Y-118050000D03*
X143050000Y-72050000D03*
X132050000Y-82050000D03*
X175050000Y-134050000D03*
X178125000Y-103225000D03*
X132050000Y-96050000D03*
X132050000Y-100050000D03*
X157900000Y-120300000D03*
X151050000Y-72050000D03*
X166350000Y-105400000D03*
X187050000Y-134050000D03*
X146300000Y-123075000D03*
X135050000Y-134050000D03*
X173125000Y-105075000D03*
X191050000Y-134050000D03*
X157900000Y-91400000D03*
X182625000Y-101800000D03*
X157150000Y-113350000D03*
X154800000Y-102200000D03*
X176325000Y-96350000D03*
X163050000Y-134050000D03*
X173050000Y-134050000D03*
X184050000Y-121050000D03*
X159050000Y-134050000D03*
X163800000Y-110750000D03*
X159000000Y-101800000D03*
X191050000Y-116050000D03*
X132050000Y-130050000D03*
X132050000Y-108050000D03*
X147050000Y-134050000D03*
X132050000Y-72050000D03*
X150200000Y-112050000D03*
X171050000Y-134050000D03*
X132050000Y-128050000D03*
X167050000Y-134050000D03*
X169050000Y-72050000D03*
X132050000Y-80050000D03*
X175050000Y-72050000D03*
X132050000Y-74050000D03*
X158150000Y-97250000D03*
X166650000Y-115550000D03*
X181050000Y-113050000D03*
X138050000Y-96050000D03*
X144050000Y-77050000D03*
X157050000Y-134050000D03*
X149870000Y-99990000D03*
X191050000Y-118050000D03*
X150325000Y-94750000D03*
X132050000Y-98050000D03*
X191050000Y-124050000D03*
X179050000Y-72050000D03*
X191050000Y-79050000D03*
X172050000Y-85050000D03*
X163050000Y-72050000D03*
X151450000Y-119600000D03*
X181050000Y-134050000D03*
X132050000Y-92050000D03*
X150750000Y-110600000D03*
X178050000Y-113050000D03*
X165050000Y-72050000D03*
X132050000Y-112050000D03*
X159025000Y-105875000D03*
X191050000Y-104050000D03*
X176125000Y-106675000D03*
X145540000Y-104540000D03*
X151900000Y-106270000D03*
X165050000Y-134050000D03*
X132050000Y-102050000D03*
X138050000Y-100050000D03*
X144050000Y-81050000D03*
X181050000Y-117050000D03*
X145510000Y-102920000D03*
X152750000Y-124150000D03*
X154500000Y-98650000D03*
X168350000Y-105850000D03*
X161050000Y-134050000D03*
X132050000Y-86050000D03*
X153300000Y-110650000D03*
X151050000Y-134050000D03*
X182525000Y-97825000D03*
X178300000Y-102325000D03*
X152775000Y-100700000D03*
X172100000Y-110425000D03*
X185050000Y-134050000D03*
X138050000Y-77050000D03*
X178050000Y-121050000D03*
X191050000Y-108050000D03*
X148200000Y-99970000D03*
X147650000Y-127950000D03*
X141050000Y-96050000D03*
X183800000Y-101325000D03*
X159700000Y-94950000D03*
X191050000Y-85050000D03*
X138050000Y-85050000D03*
X162425000Y-95775000D03*
X139050000Y-72050000D03*
X174875000Y-103350000D03*
X153350000Y-94950000D03*
X141050000Y-134050000D03*
X163800000Y-94050000D03*
X177050000Y-72050000D03*
X159850000Y-110750000D03*
X163900000Y-86950000D03*
X184025000Y-97850000D03*
X191050000Y-128050000D03*
X132050000Y-124050000D03*
X170350000Y-112150000D03*
X150100000Y-113650000D03*
X144050000Y-100050000D03*
X144050000Y-96050000D03*
X159100000Y-89550000D03*
X184050000Y-117050000D03*
X132050000Y-78050000D03*
X144050000Y-85050000D03*
X154500000Y-112850000D03*
X132050000Y-90050000D03*
X153050000Y-72050000D03*
X161650000Y-104000000D03*
X167450000Y-110750000D03*
X191050000Y-114050000D03*
X191050000Y-75050000D03*
X183050000Y-72050000D03*
X154275000Y-104575000D03*
X191050000Y-126050000D03*
X175050000Y-81050000D03*
X149450000Y-123850000D03*
X132050000Y-88050000D03*
X141050000Y-72050000D03*
X132050000Y-104050000D03*
X132050000Y-84050000D03*
X178050000Y-117050000D03*
X145050000Y-134050000D03*
X132050000Y-106050000D03*
X166625000Y-96000000D03*
X178050000Y-85050000D03*
X181050000Y-121050000D03*
X191050000Y-132050000D03*
X191050000Y-102050000D03*
X191050000Y-77050000D03*
X132050000Y-120050000D03*
X191050000Y-87050000D03*
X139050000Y-134050000D03*
X169050000Y-134050000D03*
X146250000Y-125550000D03*
X141050000Y-104050000D03*
X171050000Y-72050000D03*
X137050000Y-72050000D03*
X141050000Y-85050000D03*
X159050000Y-72050000D03*
X172050000Y-81050000D03*
X137050000Y-134050000D03*
X159125000Y-100050000D03*
X184000000Y-96350000D03*
X185050000Y-72050000D03*
X171275000Y-106750000D03*
X161675000Y-98575000D03*
X191050000Y-120050000D03*
X132050000Y-116050000D03*
X175050000Y-85050000D03*
X147530000Y-107180000D03*
X152450000Y-112600000D03*
X153050000Y-134050000D03*
X181050000Y-72050000D03*
X191050000Y-122050000D03*
X145050000Y-72050000D03*
X174025000Y-102250000D03*
X173050000Y-72050000D03*
X149050000Y-134050000D03*
X184050000Y-113050000D03*
X143050000Y-134050000D03*
X179050000Y-134050000D03*
X172150000Y-98025000D03*
X151400000Y-118000000D03*
X177050000Y-134050000D03*
X175025000Y-97950000D03*
X191050000Y-89050000D03*
X152650000Y-114850000D03*
X155725000Y-107500000D03*
X191050000Y-106050000D03*
X132050000Y-76050000D03*
X132050000Y-114050000D03*
X154550000Y-100250000D03*
X155750000Y-114900000D03*
X191050000Y-83050000D03*
X135050000Y-72050000D03*
X141050000Y-77050000D03*
X132050000Y-122050000D03*
X189050000Y-134050000D03*
X132050000Y-94050000D03*
X155050000Y-72050000D03*
X141050000Y-100050000D03*
X151400000Y-121500000D03*
X167050000Y-72050000D03*
X138050000Y-104050000D03*
X183050000Y-134050000D03*
X138050000Y-81050000D03*
X191050000Y-130050000D03*
X173775000Y-109100000D03*
X191050000Y-100050000D03*
X182900000Y-102800000D03*
X191050000Y-81050000D03*
X154150000Y-116450000D03*
X178050000Y-81050000D03*
X159350000Y-114050000D03*
X132050000Y-110050000D03*
X157900000Y-118050000D03*
X187050000Y-72050000D03*
X151425000Y-128350000D03*
X175325000Y-96350000D03*
X172875000Y-96600000D03*
X155600000Y-110600000D03*
G04 #@! TO.N,/UART0_RX*
X177050000Y-102150000D03*
G04 #@! TO.N,/UART0_TX*
X176050000Y-102300000D03*
G04 #@! TO.N,+3V3*
X151700000Y-94800000D03*
X161700000Y-102900000D03*
G04 #@! TO.N,/MCU/PIC_TX*
X161800000Y-105150000D03*
X167000000Y-97300000D03*
G04 #@! TO.N,/MCU/PIC_RX*
X166650000Y-98350000D03*
X165000000Y-104250000D03*
G04 #@! TO.N,/3V3_ON*
X174050000Y-101050000D03*
G04 #@! TO.N,/OBD2_MEAS*
X158150000Y-110450000D03*
X158150000Y-107100000D03*
G04 #@! TO.N,/MCU/CAN_TX*
X157000000Y-110700000D03*
X157000000Y-107850000D03*
G04 #@! TO.N,/MCU/PIC_PIN2*
X170380000Y-96230000D03*
G04 #@! TO.N,/MCU/PIC_PIN1*
X171620000Y-96300000D03*
G04 #@! TD*
D15*
G04 #@! TO.N,/UART0_RX*
X177050000Y-99080000D02*
X181635000Y-94495000D01*
X181635000Y-94495000D02*
X181635000Y-93393000D01*
X177050000Y-100800000D02*
X177050000Y-100100000D01*
X177050000Y-100800000D02*
X177050000Y-102150000D01*
X177050000Y-100100000D02*
X177050000Y-100085000D01*
X177050000Y-100100000D02*
X177050000Y-99080000D01*
G04 #@! TO.N,/UART0_TX*
X176050000Y-102300000D02*
X176050000Y-98650000D01*
X176050000Y-98650000D02*
X179095000Y-95605000D01*
X179095000Y-95605000D02*
X179095000Y-93393000D01*
D16*
G04 #@! TO.N,+3V3*
X157650000Y-102900000D02*
X153100000Y-102900000D01*
X153525000Y-83225000D02*
X151700000Y-85050000D01*
X151700000Y-101500000D02*
X151700000Y-99800000D01*
X151700000Y-94800000D02*
X151700000Y-85050000D01*
X161700000Y-102900000D02*
X157650000Y-102900000D01*
X157650000Y-102900000D02*
X154800000Y-102900000D01*
X153100000Y-102900000D02*
X151700000Y-101500000D01*
X151700000Y-99800000D02*
X151700000Y-94800000D01*
X155425000Y-83225000D02*
X153525000Y-83225000D01*
D15*
G04 #@! TO.N,/MCU/PIC_TX*
X162600000Y-105150000D02*
X163000000Y-104750000D01*
X166700000Y-97300000D02*
X164100000Y-99900000D01*
X161800000Y-105150000D02*
X162600000Y-105150000D01*
X167000000Y-97300000D02*
X166700000Y-97300000D01*
X164100000Y-99900000D02*
X164100000Y-103650000D01*
X164100000Y-103650000D02*
X163000000Y-104750000D01*
G04 #@! TO.N,/MCU/PIC_RX*
X165000000Y-100000000D02*
X166650000Y-98350000D01*
X165000000Y-104250000D02*
X165000000Y-100000000D01*
G04 #@! TO.N,/3V3_ON*
X174015000Y-101015000D02*
X174015000Y-93393000D01*
X174050000Y-101050000D02*
X174015000Y-101015000D01*
X174015000Y-93393000D02*
X174015000Y-98815000D01*
G04 #@! TO.N,/OBD2_MEAS*
X158150000Y-110450000D02*
X158150000Y-107100000D01*
G04 #@! TO.N,/MCU/CAN_TX*
X157000000Y-110700000D02*
X157000000Y-107850000D01*
D17*
G04 #@! TO.N,/MCU/PIC_PIN2*
X171475000Y-95135000D02*
X171475000Y-93393000D01*
X170380000Y-96230000D02*
X171475000Y-95135000D01*
G04 #@! TO.N,/MCU/PIC_PIN1*
X173340000Y-92140000D02*
X175268000Y-92140000D01*
X172790000Y-95130000D02*
X172790000Y-92690000D01*
X171620000Y-96300000D02*
X172790000Y-95130000D01*
X172790000Y-92690000D02*
X173340000Y-92140000D01*
X175268000Y-92140000D02*
X176555000Y-90853000D01*
G04 #@! TD*
G04 #@! TA.AperFunction,Conductor*
G04 #@! TO.N,GND*
G36*
X169189000Y-92962297D02*
G01*
X169127993Y-92927075D01*
X169000826Y-92893000D01*
X168869174Y-92893000D01*
X168742007Y-92927075D01*
X168681000Y-92962297D01*
X168681000Y-91283702D01*
X168742007Y-91318925D01*
X168869174Y-91353000D01*
X169000826Y-91353000D01*
X169127993Y-91318925D01*
X169189000Y-91283702D01*
X169189000Y-92962297D01*
G37*
G04 #@! TD.AperFunction*
G04 #@! TA.AperFunction,Conductor*
G36*
X191854543Y-70934707D02*
G01*
X191923784Y-70989926D01*
X191962211Y-71069718D01*
X191967200Y-71114000D01*
X191967200Y-134749400D01*
X191947493Y-134835743D01*
X191892274Y-134904984D01*
X191812482Y-134943411D01*
X191768200Y-134948400D01*
X131358600Y-134948400D01*
X131272257Y-134928693D01*
X131203016Y-134873474D01*
X131164589Y-134793682D01*
X131159600Y-134749400D01*
X131159600Y-128385258D01*
X153374500Y-128385258D01*
X153374500Y-129614741D01*
X153404451Y-129842235D01*
X153404451Y-129842236D01*
X153463839Y-130063879D01*
X153463843Y-130063889D01*
X153551654Y-130275883D01*
X153551658Y-130275892D01*
X153666382Y-130474603D01*
X153666385Y-130474606D01*
X153666387Y-130474608D01*
X153666389Y-130474612D01*
X153712313Y-130534461D01*
X153806084Y-130656665D01*
X153968334Y-130818915D01*
X153968338Y-130818918D01*
X153968339Y-130818919D01*
X154150388Y-130958611D01*
X154150392Y-130958613D01*
X154150393Y-130958614D01*
X154150396Y-130958617D01*
X154305540Y-131048188D01*
X154349112Y-131073344D01*
X154561113Y-131161158D01*
X154782762Y-131220548D01*
X154971996Y-131245461D01*
X155010258Y-131250499D01*
X155010264Y-131250500D01*
X155010266Y-131250500D01*
X155239736Y-131250500D01*
X155239739Y-131250499D01*
X155467238Y-131220548D01*
X155688887Y-131161158D01*
X155900888Y-131073344D01*
X155992717Y-131020326D01*
X156099603Y-130958617D01*
X156099604Y-130958615D01*
X156099612Y-130958611D01*
X156281661Y-130818919D01*
X156281665Y-130818915D01*
X156281669Y-130818912D01*
X156443912Y-130656669D01*
X156443915Y-130656665D01*
X156443919Y-130656661D01*
X156583611Y-130474612D01*
X156583615Y-130474604D01*
X156583617Y-130474603D01*
X156645326Y-130367717D01*
X156698344Y-130275888D01*
X156786158Y-130063887D01*
X156845548Y-129842238D01*
X156875500Y-129614734D01*
X156875500Y-128385266D01*
X156874571Y-128378212D01*
X157467000Y-128378212D01*
X157467000Y-128746000D01*
X158457891Y-128746000D01*
X158425000Y-128911358D01*
X158425000Y-129088642D01*
X158457891Y-129254000D01*
X157467000Y-129254000D01*
X157467000Y-129621787D01*
X157498789Y-129863248D01*
X157498792Y-129863261D01*
X157561825Y-130098507D01*
X157561829Y-130098519D01*
X157655037Y-130323541D01*
X157776811Y-130534461D01*
X157925087Y-130727697D01*
X158097302Y-130899912D01*
X158290538Y-131048188D01*
X158501458Y-131169962D01*
X158726480Y-131263170D01*
X158726489Y-131263173D01*
X158961732Y-131326206D01*
X159071000Y-131340591D01*
X159071000Y-129867108D01*
X159236358Y-129900000D01*
X159413642Y-129900000D01*
X159579000Y-129867108D01*
X159579000Y-131340591D01*
X159688267Y-131326206D01*
X159923510Y-131263173D01*
X159923519Y-131263170D01*
X160148541Y-131169962D01*
X160359461Y-131048188D01*
X160552697Y-130899912D01*
X160552701Y-130899909D01*
X160724909Y-130727701D01*
X160724912Y-130727697D01*
X160873188Y-130534461D01*
X160994962Y-130323541D01*
X161088170Y-130098519D01*
X161088174Y-130098507D01*
X161151207Y-129863261D01*
X161151210Y-129863248D01*
X161182999Y-129621787D01*
X161183000Y-129621782D01*
X161183000Y-129254000D01*
X160192109Y-129254000D01*
X160225000Y-129088642D01*
X160225000Y-128911358D01*
X160192109Y-128746000D01*
X161183000Y-128746000D01*
X161183000Y-128378217D01*
X161182999Y-128378212D01*
X161667000Y-128378212D01*
X161667000Y-128746000D01*
X162657891Y-128746000D01*
X162625000Y-128911358D01*
X162625000Y-129088642D01*
X162657891Y-129254000D01*
X161667000Y-129254000D01*
X161667000Y-129621787D01*
X161698789Y-129863248D01*
X161698792Y-129863261D01*
X161761825Y-130098507D01*
X161761829Y-130098519D01*
X161855037Y-130323541D01*
X161976811Y-130534461D01*
X162125087Y-130727697D01*
X162297302Y-130899912D01*
X162490538Y-131048188D01*
X162701458Y-131169962D01*
X162926480Y-131263170D01*
X162926489Y-131263173D01*
X163161732Y-131326206D01*
X163271000Y-131340591D01*
X163271000Y-129867108D01*
X163436358Y-129900000D01*
X163613642Y-129900000D01*
X163779000Y-129867108D01*
X163779000Y-131340591D01*
X163888267Y-131326206D01*
X164123510Y-131263173D01*
X164123519Y-131263170D01*
X164348541Y-131169962D01*
X164559461Y-131048188D01*
X164752697Y-130899912D01*
X164752701Y-130899909D01*
X164924909Y-130727701D01*
X164924912Y-130727697D01*
X165073188Y-130534461D01*
X165194962Y-130323541D01*
X165288170Y-130098519D01*
X165288174Y-130098507D01*
X165351207Y-129863261D01*
X165351210Y-129863248D01*
X165382999Y-129621787D01*
X165383000Y-129621782D01*
X165383000Y-129254000D01*
X164392109Y-129254000D01*
X164425000Y-129088642D01*
X164425000Y-128911358D01*
X164392109Y-128746000D01*
X165383000Y-128746000D01*
X165383000Y-128385258D01*
X165974500Y-128385258D01*
X165974500Y-129614741D01*
X166004451Y-129842235D01*
X166004451Y-129842236D01*
X166063839Y-130063879D01*
X166063843Y-130063889D01*
X166151654Y-130275883D01*
X166151658Y-130275892D01*
X166266382Y-130474603D01*
X166266385Y-130474606D01*
X166266387Y-130474608D01*
X166266389Y-130474612D01*
X166312313Y-130534461D01*
X166406084Y-130656665D01*
X166568334Y-130818915D01*
X166568338Y-130818918D01*
X166568339Y-130818919D01*
X166750388Y-130958611D01*
X166750392Y-130958613D01*
X166750393Y-130958614D01*
X166750396Y-130958617D01*
X166905540Y-131048188D01*
X166949112Y-131073344D01*
X167161113Y-131161158D01*
X167382762Y-131220548D01*
X167571996Y-131245461D01*
X167610258Y-131250499D01*
X167610264Y-131250500D01*
X167610266Y-131250500D01*
X167839736Y-131250500D01*
X167839739Y-131250499D01*
X168067238Y-131220548D01*
X168288887Y-131161158D01*
X168500888Y-131073344D01*
X168592717Y-131020326D01*
X168699603Y-130958617D01*
X168699604Y-130958615D01*
X168699612Y-130958611D01*
X168881661Y-130818919D01*
X168881665Y-130818915D01*
X168881669Y-130818912D01*
X169043912Y-130656669D01*
X169043915Y-130656665D01*
X169043919Y-130656661D01*
X169183611Y-130474612D01*
X169183615Y-130474604D01*
X169183617Y-130474603D01*
X169245326Y-130367717D01*
X169298344Y-130275888D01*
X169386158Y-130063887D01*
X169445548Y-129842238D01*
X169475500Y-129614734D01*
X169475500Y-128385266D01*
X169445548Y-128157762D01*
X169386158Y-127936113D01*
X169298344Y-127724112D01*
X169270831Y-127676458D01*
X169183617Y-127525396D01*
X169183614Y-127525393D01*
X169183613Y-127525392D01*
X169183611Y-127525388D01*
X169043919Y-127343339D01*
X169043918Y-127343338D01*
X169043915Y-127343334D01*
X169034892Y-127334311D01*
X170174500Y-127334311D01*
X170174500Y-130665688D01*
X170177402Y-130702569D01*
X170223256Y-130860397D01*
X170306917Y-131001862D01*
X170423137Y-131118082D01*
X170493869Y-131159912D01*
X170564603Y-131201744D01*
X170722431Y-131247598D01*
X170759306Y-131250500D01*
X170759311Y-131250500D01*
X173090689Y-131250500D01*
X173090694Y-131250500D01*
X173127569Y-131247598D01*
X173285397Y-131201744D01*
X173426864Y-131118081D01*
X173543081Y-131001864D01*
X173626744Y-130860397D01*
X173672598Y-130702569D01*
X173675500Y-130665694D01*
X173675500Y-127334306D01*
X173672598Y-127297431D01*
X173626744Y-127139603D01*
X173543081Y-126998136D01*
X173426864Y-126881919D01*
X173426862Y-126881917D01*
X173285397Y-126798256D01*
X173127569Y-126752402D01*
X173090694Y-126749500D01*
X170759306Y-126749500D01*
X170728576Y-126751918D01*
X170722430Y-126752402D01*
X170564602Y-126798256D01*
X170423137Y-126881917D01*
X170306917Y-126998137D01*
X170223256Y-127139602D01*
X170177402Y-127297430D01*
X170174500Y-127334311D01*
X169034892Y-127334311D01*
X168881665Y-127181084D01*
X168776108Y-127100087D01*
X168699612Y-127041389D01*
X168699608Y-127041387D01*
X168699606Y-127041385D01*
X168699603Y-127041382D01*
X168500892Y-126926658D01*
X168500883Y-126926654D01*
X168288887Y-126838842D01*
X168288885Y-126838841D01*
X168288879Y-126838839D01*
X168067235Y-126779451D01*
X167839741Y-126749500D01*
X167839734Y-126749500D01*
X167610266Y-126749500D01*
X167610258Y-126749500D01*
X167382764Y-126779451D01*
X167382763Y-126779451D01*
X167161120Y-126838839D01*
X167161110Y-126838843D01*
X166949116Y-126926654D01*
X166949107Y-126926658D01*
X166750396Y-127041382D01*
X166750393Y-127041385D01*
X166568334Y-127181084D01*
X166568331Y-127181088D01*
X166406088Y-127343331D01*
X166406084Y-127343334D01*
X166266385Y-127525393D01*
X166266382Y-127525396D01*
X166151658Y-127724107D01*
X166151654Y-127724116D01*
X166063843Y-127936110D01*
X166063839Y-127936120D01*
X166004451Y-128157763D01*
X166004451Y-128157764D01*
X165974500Y-128385258D01*
X165383000Y-128385258D01*
X165383000Y-128378217D01*
X165382999Y-128378212D01*
X165351210Y-128136751D01*
X165351207Y-128136738D01*
X165288174Y-127901492D01*
X165288170Y-127901480D01*
X165194962Y-127676458D01*
X165073188Y-127465538D01*
X164924912Y-127272302D01*
X164752697Y-127100087D01*
X164559461Y-126951811D01*
X164348541Y-126830037D01*
X164123519Y-126736829D01*
X164123507Y-126736825D01*
X163888254Y-126673790D01*
X163888255Y-126673790D01*
X163779000Y-126659406D01*
X163779000Y-128132891D01*
X163613642Y-128100000D01*
X163436358Y-128100000D01*
X163271000Y-128132891D01*
X163271000Y-126659406D01*
X163270999Y-126659406D01*
X163161745Y-126673790D01*
X162926492Y-126736825D01*
X162926480Y-126736829D01*
X162701458Y-126830037D01*
X162490538Y-126951811D01*
X162297302Y-127100087D01*
X162297299Y-127100091D01*
X162125091Y-127272299D01*
X162125087Y-127272302D01*
X161976811Y-127465538D01*
X161855037Y-127676458D01*
X161761829Y-127901480D01*
X161761825Y-127901492D01*
X161698792Y-128136738D01*
X161698789Y-128136751D01*
X161667000Y-128378212D01*
X161182999Y-128378212D01*
X161151210Y-128136751D01*
X161151207Y-128136738D01*
X161088174Y-127901492D01*
X161088170Y-127901480D01*
X160994962Y-127676458D01*
X160873188Y-127465538D01*
X160724912Y-127272302D01*
X160552697Y-127100087D01*
X160359461Y-126951811D01*
X160148541Y-126830037D01*
X159923519Y-126736829D01*
X159923507Y-126736825D01*
X159688254Y-126673790D01*
X159688255Y-126673790D01*
X159579000Y-126659406D01*
X159579000Y-128132891D01*
X159413642Y-128100000D01*
X159236358Y-128100000D01*
X159071000Y-128132891D01*
X159071000Y-126659406D01*
X159070999Y-126659406D01*
X158961745Y-126673790D01*
X158726492Y-126736825D01*
X158726480Y-126736829D01*
X158501458Y-126830037D01*
X158290538Y-126951811D01*
X158097302Y-127100087D01*
X158097299Y-127100091D01*
X157925091Y-127272299D01*
X157925087Y-127272302D01*
X157776811Y-127465538D01*
X157655037Y-127676458D01*
X157561829Y-127901480D01*
X157561825Y-127901492D01*
X157498792Y-128136738D01*
X157498789Y-128136751D01*
X157467000Y-128378212D01*
X156874571Y-128378212D01*
X156845548Y-128157764D01*
X156845548Y-128157763D01*
X156839914Y-128136738D01*
X156786158Y-127936113D01*
X156698344Y-127724112D01*
X156670831Y-127676458D01*
X156583617Y-127525396D01*
X156583614Y-127525393D01*
X156583613Y-127525392D01*
X156583611Y-127525388D01*
X156443919Y-127343339D01*
X156443918Y-127343338D01*
X156443915Y-127343334D01*
X156281665Y-127181084D01*
X156176108Y-127100087D01*
X156099612Y-127041389D01*
X156099608Y-127041387D01*
X156099606Y-127041385D01*
X156099603Y-127041382D01*
X155900892Y-126926658D01*
X155900883Y-126926654D01*
X155688887Y-126838842D01*
X155688885Y-126838841D01*
X155688879Y-126838839D01*
X155467235Y-126779451D01*
X155239741Y-126749500D01*
X155239734Y-126749500D01*
X155010266Y-126749500D01*
X155010258Y-126749500D01*
X154782764Y-126779451D01*
X154782763Y-126779451D01*
X154561120Y-126838839D01*
X154561110Y-126838843D01*
X154349116Y-126926654D01*
X154349107Y-126926658D01*
X154150396Y-127041382D01*
X154150393Y-127041385D01*
X153968334Y-127181084D01*
X153968331Y-127181088D01*
X153806088Y-127343331D01*
X153806084Y-127343334D01*
X153666385Y-127525393D01*
X153666382Y-127525396D01*
X153551658Y-127724107D01*
X153551654Y-127724116D01*
X153463843Y-127936110D01*
X153463839Y-127936120D01*
X153404451Y-128157763D01*
X153404451Y-128157764D01*
X153374500Y-128385258D01*
X131159600Y-128385258D01*
X131159600Y-122885258D01*
X153374500Y-122885258D01*
X153374500Y-124114741D01*
X153404451Y-124342235D01*
X153404451Y-124342236D01*
X153463839Y-124563879D01*
X153463843Y-124563889D01*
X153551654Y-124775883D01*
X153551658Y-124775892D01*
X153666382Y-124974603D01*
X153666385Y-124974606D01*
X153666387Y-124974608D01*
X153666389Y-124974612D01*
X153791700Y-125137919D01*
X153806084Y-125156665D01*
X153968334Y-125318915D01*
X153968338Y-125318918D01*
X153968339Y-125318919D01*
X154150388Y-125458611D01*
X154150392Y-125458613D01*
X154150393Y-125458614D01*
X154150396Y-125458617D01*
X154334047Y-125564646D01*
X154349112Y-125573344D01*
X154561113Y-125661158D01*
X154782762Y-125720548D01*
X154971996Y-125745461D01*
X155010258Y-125750499D01*
X155010264Y-125750500D01*
X155010266Y-125750500D01*
X155239736Y-125750500D01*
X155239739Y-125750499D01*
X155467238Y-125720548D01*
X155688887Y-125661158D01*
X155900888Y-125573344D01*
X155992717Y-125520326D01*
X156099603Y-125458617D01*
X156099604Y-125458615D01*
X156099612Y-125458611D01*
X156281661Y-125318919D01*
X156281665Y-125318915D01*
X156281669Y-125318912D01*
X156443912Y-125156669D01*
X156443915Y-125156665D01*
X156443919Y-125156661D01*
X156583611Y-124974612D01*
X156583615Y-124974604D01*
X156583617Y-124974603D01*
X156645326Y-124867717D01*
X156698344Y-124775888D01*
X156786158Y-124563887D01*
X156845548Y-124342238D01*
X156875500Y-124114734D01*
X156875500Y-122885266D01*
X156875499Y-122885258D01*
X157574500Y-122885258D01*
X157574500Y-124114741D01*
X157604451Y-124342235D01*
X157604451Y-124342236D01*
X157663839Y-124563879D01*
X157663843Y-124563889D01*
X157751654Y-124775883D01*
X157751658Y-124775892D01*
X157866382Y-124974603D01*
X157866385Y-124974606D01*
X157866387Y-124974608D01*
X157866389Y-124974612D01*
X157991700Y-125137919D01*
X158006084Y-125156665D01*
X158168334Y-125318915D01*
X158168338Y-125318918D01*
X158168339Y-125318919D01*
X158350388Y-125458611D01*
X158350392Y-125458613D01*
X158350393Y-125458614D01*
X158350396Y-125458617D01*
X158534047Y-125564646D01*
X158549112Y-125573344D01*
X158761113Y-125661158D01*
X158982762Y-125720548D01*
X159171996Y-125745461D01*
X159210258Y-125750499D01*
X159210264Y-125750500D01*
X159210266Y-125750500D01*
X159439736Y-125750500D01*
X159439739Y-125750499D01*
X159667238Y-125720548D01*
X159888887Y-125661158D01*
X160100888Y-125573344D01*
X160192717Y-125520326D01*
X160299603Y-125458617D01*
X160299604Y-125458615D01*
X160299612Y-125458611D01*
X160481661Y-125318919D01*
X160481665Y-125318915D01*
X160481669Y-125318912D01*
X160643912Y-125156669D01*
X160643915Y-125156665D01*
X160643919Y-125156661D01*
X160783611Y-124974612D01*
X160783615Y-124974604D01*
X160783617Y-124974603D01*
X160845326Y-124867717D01*
X160898344Y-124775888D01*
X160986158Y-124563887D01*
X161045548Y-124342238D01*
X161075500Y-124114734D01*
X161075500Y-122885266D01*
X161075499Y-122885258D01*
X161774500Y-122885258D01*
X161774500Y-124114741D01*
X161804451Y-124342235D01*
X161804451Y-124342236D01*
X161863839Y-124563879D01*
X161863843Y-124563889D01*
X161951654Y-124775883D01*
X161951658Y-124775892D01*
X162066382Y-124974603D01*
X162066385Y-124974606D01*
X162066387Y-124974608D01*
X162066389Y-124974612D01*
X162191700Y-125137919D01*
X162206084Y-125156665D01*
X162368334Y-125318915D01*
X162368338Y-125318918D01*
X162368339Y-125318919D01*
X162550388Y-125458611D01*
X162550392Y-125458613D01*
X162550393Y-125458614D01*
X162550396Y-125458617D01*
X162734047Y-125564646D01*
X162749112Y-125573344D01*
X162961113Y-125661158D01*
X163182762Y-125720548D01*
X163371996Y-125745461D01*
X163410258Y-125750499D01*
X163410264Y-125750500D01*
X163410266Y-125750500D01*
X163639736Y-125750500D01*
X163639739Y-125750499D01*
X163867238Y-125720548D01*
X164088887Y-125661158D01*
X164300888Y-125573344D01*
X164392717Y-125520326D01*
X164499603Y-125458617D01*
X164499604Y-125458615D01*
X164499612Y-125458611D01*
X164681661Y-125318919D01*
X164681665Y-125318915D01*
X164681669Y-125318912D01*
X164843912Y-125156669D01*
X164843915Y-125156665D01*
X164843919Y-125156661D01*
X164983611Y-124974612D01*
X164983615Y-124974604D01*
X164983617Y-124974603D01*
X165045326Y-124867717D01*
X165098344Y-124775888D01*
X165186158Y-124563887D01*
X165245548Y-124342238D01*
X165275500Y-124114734D01*
X165275500Y-122885266D01*
X165275499Y-122885258D01*
X165974500Y-122885258D01*
X165974500Y-124114741D01*
X166004451Y-124342235D01*
X166004451Y-124342236D01*
X166063839Y-124563879D01*
X166063843Y-124563889D01*
X166151654Y-124775883D01*
X166151658Y-124775892D01*
X166266382Y-124974603D01*
X166266385Y-124974606D01*
X166266387Y-124974608D01*
X166266389Y-124974612D01*
X166391700Y-125137919D01*
X166406084Y-125156665D01*
X166568334Y-125318915D01*
X166568338Y-125318918D01*
X166568339Y-125318919D01*
X166750388Y-125458611D01*
X166750392Y-125458613D01*
X166750393Y-125458614D01*
X166750396Y-125458617D01*
X166934047Y-125564646D01*
X166949112Y-125573344D01*
X167161113Y-125661158D01*
X167382762Y-125720548D01*
X167571996Y-125745461D01*
X167610258Y-125750499D01*
X167610264Y-125750500D01*
X167610266Y-125750500D01*
X167839736Y-125750500D01*
X167839739Y-125750499D01*
X168067238Y-125720548D01*
X168288887Y-125661158D01*
X168500888Y-125573344D01*
X168592717Y-125520326D01*
X168699603Y-125458617D01*
X168699604Y-125458615D01*
X168699612Y-125458611D01*
X168881661Y-125318919D01*
X168881665Y-125318915D01*
X168881669Y-125318912D01*
X169043912Y-125156669D01*
X169043915Y-125156665D01*
X169043919Y-125156661D01*
X169183611Y-124974612D01*
X169183615Y-124974604D01*
X169183617Y-124974603D01*
X169245326Y-124867717D01*
X169298344Y-124775888D01*
X169386158Y-124563887D01*
X169445548Y-124342238D01*
X169475500Y-124114734D01*
X169475500Y-122885266D01*
X169475499Y-122885258D01*
X170174500Y-122885258D01*
X170174500Y-124114741D01*
X170204451Y-124342235D01*
X170204451Y-124342236D01*
X170263839Y-124563879D01*
X170263843Y-124563889D01*
X170351654Y-124775883D01*
X170351658Y-124775892D01*
X170466382Y-124974603D01*
X170466385Y-124974606D01*
X170466387Y-124974608D01*
X170466389Y-124974612D01*
X170591700Y-125137919D01*
X170606084Y-125156665D01*
X170768334Y-125318915D01*
X170768338Y-125318918D01*
X170768339Y-125318919D01*
X170950388Y-125458611D01*
X170950392Y-125458613D01*
X170950393Y-125458614D01*
X170950396Y-125458617D01*
X171134047Y-125564646D01*
X171149112Y-125573344D01*
X171361113Y-125661158D01*
X171582762Y-125720548D01*
X171771996Y-125745461D01*
X171810258Y-125750499D01*
X171810264Y-125750500D01*
X171810266Y-125750500D01*
X172039736Y-125750500D01*
X172039739Y-125750499D01*
X172267238Y-125720548D01*
X172488887Y-125661158D01*
X172700888Y-125573344D01*
X172792717Y-125520326D01*
X172899603Y-125458617D01*
X172899604Y-125458615D01*
X172899612Y-125458611D01*
X173081661Y-125318919D01*
X173081665Y-125318915D01*
X173081669Y-125318912D01*
X173243912Y-125156669D01*
X173243915Y-125156665D01*
X173243919Y-125156661D01*
X173383611Y-124974612D01*
X173383615Y-124974604D01*
X173383617Y-124974603D01*
X173445326Y-124867717D01*
X173498344Y-124775888D01*
X173586158Y-124563887D01*
X173645548Y-124342238D01*
X173675500Y-124114734D01*
X173675500Y-122885266D01*
X173645548Y-122657762D01*
X173586158Y-122436113D01*
X173498344Y-122224112D01*
X173489646Y-122209047D01*
X173383617Y-122025396D01*
X173383614Y-122025393D01*
X173383613Y-122025392D01*
X173383611Y-122025388D01*
X173243919Y-121843339D01*
X173243918Y-121843338D01*
X173243915Y-121843334D01*
X173081665Y-121681084D01*
X173062919Y-121666700D01*
X172899612Y-121541389D01*
X172899608Y-121541387D01*
X172899606Y-121541385D01*
X172899603Y-121541382D01*
X172700892Y-121426658D01*
X172700883Y-121426654D01*
X172488889Y-121338843D01*
X172488879Y-121338839D01*
X172267235Y-121279451D01*
X172039741Y-121249500D01*
X172039734Y-121249500D01*
X171810266Y-121249500D01*
X171810258Y-121249500D01*
X171582764Y-121279451D01*
X171582763Y-121279451D01*
X171361120Y-121338839D01*
X171361110Y-121338843D01*
X171149116Y-121426654D01*
X171149107Y-121426658D01*
X170950396Y-121541382D01*
X170950393Y-121541385D01*
X170768334Y-121681084D01*
X170768331Y-121681088D01*
X170606088Y-121843331D01*
X170606084Y-121843334D01*
X170466385Y-122025393D01*
X170466382Y-122025396D01*
X170351658Y-122224107D01*
X170351654Y-122224116D01*
X170263843Y-122436110D01*
X170263839Y-122436120D01*
X170204451Y-122657763D01*
X170204451Y-122657764D01*
X170174500Y-122885258D01*
X169475499Y-122885258D01*
X169445548Y-122657762D01*
X169386158Y-122436113D01*
X169298344Y-122224112D01*
X169289646Y-122209047D01*
X169183617Y-122025396D01*
X169183614Y-122025393D01*
X169183613Y-122025392D01*
X169183611Y-122025388D01*
X169043919Y-121843339D01*
X169043918Y-121843338D01*
X169043915Y-121843334D01*
X168881665Y-121681084D01*
X168862919Y-121666700D01*
X168699612Y-121541389D01*
X168699608Y-121541387D01*
X168699606Y-121541385D01*
X168699603Y-121541382D01*
X168500892Y-121426658D01*
X168500883Y-121426654D01*
X168288889Y-121338843D01*
X168288879Y-121338839D01*
X168067235Y-121279451D01*
X167839741Y-121249500D01*
X167839734Y-121249500D01*
X167610266Y-121249500D01*
X167610258Y-121249500D01*
X167382764Y-121279451D01*
X167382763Y-121279451D01*
X167161120Y-121338839D01*
X167161110Y-121338843D01*
X166949116Y-121426654D01*
X166949107Y-121426658D01*
X166750396Y-121541382D01*
X166750393Y-121541385D01*
X166568334Y-121681084D01*
X166568331Y-121681088D01*
X166406088Y-121843331D01*
X166406084Y-121843334D01*
X166266385Y-122025393D01*
X166266382Y-122025396D01*
X166151658Y-122224107D01*
X166151654Y-122224116D01*
X166063843Y-122436110D01*
X166063839Y-122436120D01*
X166004451Y-122657763D01*
X166004451Y-122657764D01*
X165974500Y-122885258D01*
X165275499Y-122885258D01*
X165245548Y-122657762D01*
X165186158Y-122436113D01*
X165098344Y-122224112D01*
X165089646Y-122209047D01*
X164983617Y-122025396D01*
X164983614Y-122025393D01*
X164983613Y-122025392D01*
X164983611Y-122025388D01*
X164843919Y-121843339D01*
X164843918Y-121843338D01*
X164843915Y-121843334D01*
X164681665Y-121681084D01*
X164662919Y-121666700D01*
X164499612Y-121541389D01*
X164499608Y-121541387D01*
X164499606Y-121541385D01*
X164499603Y-121541382D01*
X164300892Y-121426658D01*
X164300883Y-121426654D01*
X164088889Y-121338843D01*
X164088879Y-121338839D01*
X163867235Y-121279451D01*
X163639741Y-121249500D01*
X163639734Y-121249500D01*
X163410266Y-121249500D01*
X163410258Y-121249500D01*
X163182764Y-121279451D01*
X163182763Y-121279451D01*
X162961120Y-121338839D01*
X162961110Y-121338843D01*
X162749116Y-121426654D01*
X162749107Y-121426658D01*
X162550396Y-121541382D01*
X162550393Y-121541385D01*
X162368334Y-121681084D01*
X162368331Y-121681088D01*
X162206088Y-121843331D01*
X162206084Y-121843334D01*
X162066385Y-122025393D01*
X162066382Y-122025396D01*
X161951658Y-122224107D01*
X161951654Y-122224116D01*
X161863843Y-122436110D01*
X161863839Y-122436120D01*
X161804451Y-122657763D01*
X161804451Y-122657764D01*
X161774500Y-122885258D01*
X161075499Y-122885258D01*
X161045548Y-122657762D01*
X160986158Y-122436113D01*
X160898344Y-122224112D01*
X160889646Y-122209047D01*
X160783617Y-122025396D01*
X160783614Y-122025393D01*
X160783613Y-122025392D01*
X160783611Y-122025388D01*
X160643919Y-121843339D01*
X160643918Y-121843338D01*
X160643915Y-121843334D01*
X160481665Y-121681084D01*
X160462919Y-121666700D01*
X160299612Y-121541389D01*
X160299608Y-121541387D01*
X160299606Y-121541385D01*
X160299603Y-121541382D01*
X160100892Y-121426658D01*
X160100883Y-121426654D01*
X159888889Y-121338843D01*
X159888879Y-121338839D01*
X159667235Y-121279451D01*
X159439741Y-121249500D01*
X159439734Y-121249500D01*
X159210266Y-121249500D01*
X159210258Y-121249500D01*
X158982764Y-121279451D01*
X158982763Y-121279451D01*
X158761120Y-121338839D01*
X158761110Y-121338843D01*
X158549116Y-121426654D01*
X158549107Y-121426658D01*
X158350396Y-121541382D01*
X158350393Y-121541385D01*
X158168334Y-121681084D01*
X158168331Y-121681088D01*
X158006088Y-121843331D01*
X158006084Y-121843334D01*
X157866385Y-122025393D01*
X157866382Y-122025396D01*
X157751658Y-122224107D01*
X157751654Y-122224116D01*
X157663843Y-122436110D01*
X157663839Y-122436120D01*
X157604451Y-122657763D01*
X157604451Y-122657764D01*
X157574500Y-122885258D01*
X156875499Y-122885258D01*
X156845548Y-122657762D01*
X156786158Y-122436113D01*
X156698344Y-122224112D01*
X156689646Y-122209047D01*
X156583617Y-122025396D01*
X156583614Y-122025393D01*
X156583613Y-122025392D01*
X156583611Y-122025388D01*
X156443919Y-121843339D01*
X156443918Y-121843338D01*
X156443915Y-121843334D01*
X156281665Y-121681084D01*
X156262919Y-121666700D01*
X156099612Y-121541389D01*
X156099608Y-121541387D01*
X156099606Y-121541385D01*
X156099603Y-121541382D01*
X155900892Y-121426658D01*
X155900883Y-121426654D01*
X155688889Y-121338843D01*
X155688879Y-121338839D01*
X155467235Y-121279451D01*
X155239741Y-121249500D01*
X155239734Y-121249500D01*
X155010266Y-121249500D01*
X155010258Y-121249500D01*
X154782764Y-121279451D01*
X154782763Y-121279451D01*
X154561120Y-121338839D01*
X154561110Y-121338843D01*
X154349116Y-121426654D01*
X154349107Y-121426658D01*
X154150396Y-121541382D01*
X154150393Y-121541385D01*
X153968334Y-121681084D01*
X153968331Y-121681088D01*
X153806088Y-121843331D01*
X153806084Y-121843334D01*
X153666385Y-122025393D01*
X153666382Y-122025396D01*
X153551658Y-122224107D01*
X153551654Y-122224116D01*
X153463843Y-122436110D01*
X153463839Y-122436120D01*
X153404451Y-122657763D01*
X153404451Y-122657764D01*
X153374500Y-122885258D01*
X131159600Y-122885258D01*
X131159600Y-107771158D01*
X156199500Y-107771158D01*
X156199500Y-107928841D01*
X156230262Y-108083493D01*
X156230264Y-108083500D01*
X156290603Y-108229174D01*
X156290606Y-108229179D01*
X156378211Y-108360289D01*
X156378214Y-108360292D01*
X156414214Y-108396292D01*
X156461333Y-108471280D01*
X156472500Y-108537006D01*
X156472500Y-110012994D01*
X156452793Y-110099337D01*
X156414214Y-110153708D01*
X156378214Y-110189707D01*
X156378208Y-110189715D01*
X156290607Y-110320818D01*
X156290603Y-110320825D01*
X156230264Y-110466499D01*
X156230262Y-110466506D01*
X156199500Y-110621158D01*
X156199500Y-110778841D01*
X156230262Y-110933493D01*
X156230264Y-110933500D01*
X156290603Y-111079174D01*
X156290606Y-111079179D01*
X156378211Y-111210289D01*
X156489711Y-111321789D01*
X156619939Y-111408805D01*
X156620818Y-111409392D01*
X156620825Y-111409396D01*
X156693662Y-111439565D01*
X156766503Y-111469737D01*
X156921158Y-111500500D01*
X156921159Y-111500500D01*
X157078841Y-111500500D01*
X157078842Y-111500500D01*
X157233497Y-111469737D01*
X157379179Y-111409394D01*
X157510289Y-111321789D01*
X157607409Y-111224668D01*
X157682393Y-111177554D01*
X157770399Y-111167637D01*
X157824270Y-111181533D01*
X157916503Y-111219737D01*
X158071158Y-111250500D01*
X158071159Y-111250500D01*
X158228841Y-111250500D01*
X158228842Y-111250500D01*
X158383497Y-111219737D01*
X158529179Y-111159394D01*
X158660289Y-111071789D01*
X158771789Y-110960289D01*
X158859394Y-110829179D01*
X158919737Y-110683497D01*
X158950500Y-110528842D01*
X158950500Y-110371158D01*
X158919737Y-110216503D01*
X158859394Y-110070821D01*
X158771789Y-109939711D01*
X158735786Y-109903708D01*
X158688667Y-109828720D01*
X158677500Y-109762994D01*
X158677500Y-107787006D01*
X158697207Y-107700663D01*
X158735786Y-107646292D01*
X158771789Y-107610289D01*
X158859394Y-107479179D01*
X158919737Y-107333497D01*
X158950500Y-107178842D01*
X158950500Y-107021158D01*
X158919737Y-106866503D01*
X158859394Y-106720821D01*
X158771789Y-106589711D01*
X158660289Y-106478211D01*
X158594293Y-106434114D01*
X158529181Y-106390607D01*
X158529174Y-106390603D01*
X158383500Y-106330264D01*
X158383498Y-106330263D01*
X158383497Y-106330263D01*
X158383495Y-106330262D01*
X158383493Y-106330262D01*
X158305125Y-106314673D01*
X158228842Y-106299500D01*
X158071158Y-106299500D01*
X158020072Y-106309661D01*
X157916506Y-106330262D01*
X157916499Y-106330264D01*
X157770825Y-106390603D01*
X157770818Y-106390607D01*
X157639715Y-106478208D01*
X157639707Y-106478214D01*
X157528214Y-106589707D01*
X157528208Y-106589715D01*
X157440607Y-106720818D01*
X157440603Y-106720825D01*
X157380264Y-106866499D01*
X157380263Y-106866501D01*
X157372598Y-106905036D01*
X157336423Y-106985874D01*
X157268757Y-107043012D01*
X157183000Y-107065132D01*
X157138602Y-107061387D01*
X157078842Y-107049500D01*
X156921158Y-107049500D01*
X156870072Y-107059661D01*
X156766506Y-107080262D01*
X156766499Y-107080264D01*
X156620825Y-107140603D01*
X156620818Y-107140607D01*
X156489715Y-107228208D01*
X156489707Y-107228214D01*
X156378214Y-107339707D01*
X156378208Y-107339715D01*
X156290607Y-107470818D01*
X156290603Y-107470825D01*
X156230264Y-107616499D01*
X156230262Y-107616506D01*
X156199500Y-107771158D01*
X131159600Y-107771158D01*
X131159600Y-105071158D01*
X160999500Y-105071158D01*
X160999500Y-105228841D01*
X161030262Y-105383493D01*
X161030264Y-105383500D01*
X161090603Y-105529174D01*
X161090607Y-105529181D01*
X161134114Y-105594293D01*
X161178211Y-105660289D01*
X161289711Y-105771789D01*
X161419939Y-105858805D01*
X161420818Y-105859392D01*
X161420825Y-105859396D01*
X161493662Y-105889565D01*
X161566503Y-105919737D01*
X161721158Y-105950500D01*
X161721159Y-105950500D01*
X161878841Y-105950500D01*
X161878842Y-105950500D01*
X162033497Y-105919737D01*
X162179179Y-105859394D01*
X162310289Y-105771789D01*
X162346292Y-105735786D01*
X162367778Y-105722284D01*
X162386258Y-105704887D01*
X162402487Y-105700475D01*
X162421280Y-105688667D01*
X162470695Y-105678170D01*
X162478842Y-105677500D01*
X162530554Y-105677500D01*
X162669446Y-105677500D01*
X162669447Y-105677500D01*
X162736527Y-105659526D01*
X162803608Y-105641552D01*
X162863747Y-105606830D01*
X162863750Y-105606829D01*
X162909679Y-105580310D01*
X162923893Y-105572105D01*
X163022105Y-105473893D01*
X163022106Y-105473891D01*
X163422105Y-105073893D01*
X163422105Y-105073891D01*
X163438485Y-105057512D01*
X163438488Y-105057507D01*
X163955888Y-104540107D01*
X164030876Y-104492990D01*
X164118882Y-104483074D01*
X164202476Y-104512325D01*
X164265099Y-104574949D01*
X164280452Y-104604667D01*
X164290604Y-104629175D01*
X164290607Y-104629181D01*
X164297643Y-104639711D01*
X164378211Y-104760289D01*
X164489711Y-104871789D01*
X164556635Y-104916506D01*
X164620818Y-104959392D01*
X164620825Y-104959396D01*
X164693662Y-104989565D01*
X164766503Y-105019737D01*
X164921158Y-105050500D01*
X164921159Y-105050500D01*
X165078841Y-105050500D01*
X165078842Y-105050500D01*
X165233497Y-105019737D01*
X165379179Y-104959394D01*
X165510289Y-104871789D01*
X165621789Y-104760289D01*
X165709394Y-104629179D01*
X165769737Y-104483497D01*
X165800500Y-104328842D01*
X165800500Y-104171158D01*
X165769737Y-104016503D01*
X165709394Y-103870821D01*
X165621789Y-103739711D01*
X165585786Y-103703708D01*
X165538667Y-103628720D01*
X165527500Y-103562994D01*
X165527500Y-100300925D01*
X165547207Y-100214582D01*
X165585786Y-100160211D01*
X166537212Y-99208786D01*
X166612201Y-99161667D01*
X166677926Y-99150500D01*
X166728841Y-99150500D01*
X166728842Y-99150500D01*
X166883497Y-99119737D01*
X167029179Y-99059394D01*
X167160289Y-98971789D01*
X167271789Y-98860289D01*
X167359394Y-98729179D01*
X167419737Y-98583497D01*
X167450500Y-98428842D01*
X167450500Y-98271158D01*
X167422113Y-98128448D01*
X167424596Y-98039923D01*
X167465245Y-97961239D01*
X167506733Y-97924164D01*
X167510289Y-97921789D01*
X167621789Y-97810289D01*
X167709394Y-97679179D01*
X167769737Y-97533497D01*
X167800500Y-97378842D01*
X167800500Y-97221158D01*
X167769737Y-97066503D01*
X167717087Y-96939394D01*
X167709396Y-96920825D01*
X167709392Y-96920818D01*
X167697839Y-96903528D01*
X167621789Y-96789711D01*
X167510289Y-96678211D01*
X167444293Y-96634114D01*
X167379181Y-96590607D01*
X167379174Y-96590603D01*
X167233500Y-96530264D01*
X167233498Y-96530263D01*
X167233497Y-96530263D01*
X167233495Y-96530262D01*
X167233493Y-96530262D01*
X167155125Y-96514673D01*
X167078842Y-96499500D01*
X166921158Y-96499500D01*
X166870072Y-96509661D01*
X166766506Y-96530262D01*
X166766499Y-96530264D01*
X166620825Y-96590603D01*
X166620818Y-96590607D01*
X166489715Y-96678208D01*
X166489707Y-96678214D01*
X166378214Y-96789707D01*
X166378208Y-96789715D01*
X166290606Y-96920819D01*
X166290602Y-96920826D01*
X166275647Y-96956932D01*
X166232510Y-97021490D01*
X163776109Y-99477893D01*
X163677895Y-99576106D01*
X163659223Y-99608448D01*
X163659222Y-99608447D01*
X163608448Y-99696391D01*
X163601667Y-99721699D01*
X163601667Y-99721700D01*
X163572500Y-99830552D01*
X163572500Y-103349074D01*
X163552793Y-103435417D01*
X163514214Y-103489788D01*
X162676108Y-104327893D01*
X162676107Y-104327894D01*
X162676107Y-104327895D01*
X162563399Y-104440603D01*
X162524981Y-104479021D01*
X162449992Y-104526139D01*
X162361985Y-104536055D01*
X162278392Y-104506804D01*
X162273708Y-104503768D01*
X162179181Y-104440607D01*
X162179174Y-104440603D01*
X162033500Y-104380264D01*
X162033498Y-104380263D01*
X162033497Y-104380263D01*
X162033495Y-104380262D01*
X162033493Y-104380262D01*
X161955125Y-104364673D01*
X161878842Y-104349500D01*
X161721158Y-104349500D01*
X161670072Y-104359661D01*
X161566506Y-104380262D01*
X161566499Y-104380264D01*
X161420825Y-104440603D01*
X161420818Y-104440607D01*
X161289715Y-104528208D01*
X161289707Y-104528214D01*
X161178214Y-104639707D01*
X161178208Y-104639715D01*
X161090607Y-104770818D01*
X161090603Y-104770825D01*
X161030264Y-104916499D01*
X161030262Y-104916506D01*
X160999500Y-105071158D01*
X131159600Y-105071158D01*
X131159600Y-94721158D01*
X150899500Y-94721158D01*
X150899500Y-94878842D01*
X150907156Y-94917331D01*
X150930262Y-95033493D01*
X150930264Y-95033500D01*
X150990603Y-95179174D01*
X150990606Y-95179179D01*
X151078211Y-95310289D01*
X151078214Y-95310292D01*
X151091214Y-95323292D01*
X151138333Y-95398280D01*
X151149500Y-95464006D01*
X151149500Y-99727525D01*
X151149500Y-101572475D01*
X151154309Y-101590423D01*
X151176112Y-101671789D01*
X151187016Y-101712484D01*
X151187019Y-101712492D01*
X151259487Y-101838011D01*
X151259490Y-101838015D01*
X152761985Y-103340510D01*
X152882841Y-103410286D01*
X152887513Y-103412983D01*
X152887515Y-103412984D01*
X153027525Y-103450500D01*
X153027526Y-103450500D01*
X153172474Y-103450500D01*
X154727525Y-103450500D01*
X157577525Y-103450500D01*
X161035994Y-103450500D01*
X161122337Y-103470207D01*
X161176708Y-103508786D01*
X161189711Y-103521789D01*
X161251379Y-103562994D01*
X161320818Y-103609392D01*
X161320825Y-103609396D01*
X161367478Y-103628720D01*
X161466503Y-103669737D01*
X161621158Y-103700500D01*
X161621159Y-103700500D01*
X161778841Y-103700500D01*
X161778842Y-103700500D01*
X161933497Y-103669737D01*
X162079179Y-103609394D01*
X162210289Y-103521789D01*
X162321789Y-103410289D01*
X162409394Y-103279179D01*
X162469737Y-103133497D01*
X162500500Y-102978842D01*
X162500500Y-102821158D01*
X162469737Y-102666503D01*
X162409394Y-102520821D01*
X162321789Y-102389711D01*
X162210289Y-102278211D01*
X162124903Y-102221158D01*
X162079181Y-102190607D01*
X162079174Y-102190603D01*
X161933500Y-102130264D01*
X161933498Y-102130263D01*
X161933497Y-102130263D01*
X161933495Y-102130262D01*
X161933493Y-102130262D01*
X161855125Y-102114673D01*
X161778842Y-102099500D01*
X161621158Y-102099500D01*
X161570072Y-102109661D01*
X161466506Y-102130262D01*
X161466499Y-102130264D01*
X161320825Y-102190603D01*
X161320818Y-102190607D01*
X161189715Y-102278208D01*
X161189707Y-102278214D01*
X161176708Y-102291214D01*
X161101720Y-102338333D01*
X161035994Y-102349500D01*
X153410453Y-102349500D01*
X153324110Y-102329793D01*
X153269739Y-102291214D01*
X152308786Y-101330261D01*
X152261667Y-101255273D01*
X152250500Y-101189547D01*
X152250500Y-95464006D01*
X152270207Y-95377663D01*
X152308786Y-95323292D01*
X152321789Y-95310289D01*
X152409394Y-95179179D01*
X152469737Y-95033497D01*
X152500500Y-94878842D01*
X152500500Y-94721158D01*
X152469737Y-94566503D01*
X152436519Y-94486306D01*
X152409396Y-94420825D01*
X152409392Y-94420818D01*
X152374303Y-94368304D01*
X152321789Y-94289711D01*
X152308786Y-94276708D01*
X152261667Y-94201720D01*
X152250500Y-94135994D01*
X152250500Y-90599000D01*
X167600302Y-90599000D01*
X168504297Y-90599000D01*
X168469075Y-90660007D01*
X168435000Y-90787174D01*
X168435000Y-90918826D01*
X168469075Y-91045993D01*
X168504297Y-91107000D01*
X167600302Y-91107000D01*
X167610438Y-91170997D01*
X167676490Y-91374285D01*
X167676492Y-91374291D01*
X167773532Y-91564744D01*
X167899180Y-91737681D01*
X167899181Y-91737683D01*
X168050316Y-91888818D01*
X168050318Y-91888819D01*
X168151049Y-91962006D01*
X168209318Y-92028701D01*
X168232879Y-92114073D01*
X168217065Y-92201213D01*
X168165008Y-92272862D01*
X168151049Y-92283994D01*
X168050318Y-92357180D01*
X168050316Y-92357181D01*
X167899181Y-92508316D01*
X167899180Y-92508318D01*
X167773532Y-92681255D01*
X167676492Y-92871708D01*
X167676490Y-92871714D01*
X167610438Y-93075002D01*
X167600302Y-93139000D01*
X168504297Y-93139000D01*
X168469075Y-93200007D01*
X168435000Y-93327174D01*
X168435000Y-93458826D01*
X168469075Y-93585993D01*
X168504297Y-93647000D01*
X167600302Y-93647000D01*
X167610438Y-93710997D01*
X167676490Y-93914285D01*
X167676492Y-93914291D01*
X167773532Y-94104744D01*
X167899180Y-94277681D01*
X167899181Y-94277683D01*
X168050316Y-94428818D01*
X168050318Y-94428819D01*
X168223255Y-94554467D01*
X168413708Y-94651507D01*
X168413710Y-94651508D01*
X168616998Y-94717560D01*
X168680999Y-94727697D01*
X168681000Y-94727696D01*
X168681000Y-93823702D01*
X168742007Y-93858925D01*
X168869174Y-93893000D01*
X169000826Y-93893000D01*
X169127993Y-93858925D01*
X169189000Y-93823702D01*
X169189000Y-94727697D01*
X169253001Y-94717560D01*
X169456289Y-94651508D01*
X169456291Y-94651507D01*
X169646744Y-94554467D01*
X169819681Y-94428819D01*
X169819683Y-94428818D01*
X169970818Y-94277683D01*
X169970819Y-94277681D01*
X170096471Y-94104739D01*
X170100555Y-94098076D01*
X170102902Y-94099514D01*
X170149878Y-94043124D01*
X170230474Y-94006412D01*
X170319017Y-94008304D01*
X170397970Y-94048426D01*
X170431593Y-94084353D01*
X170483693Y-94156061D01*
X170521172Y-94207646D01*
X170521174Y-94207648D01*
X170521177Y-94207652D01*
X170660347Y-94346822D01*
X170660349Y-94346823D01*
X170660354Y-94346828D01*
X170819595Y-94462524D01*
X170838843Y-94472331D01*
X170840843Y-94473350D01*
X170856362Y-94486306D01*
X170874574Y-94495077D01*
X170889926Y-94514327D01*
X170908828Y-94530108D01*
X170917187Y-94548511D01*
X170929793Y-94564318D01*
X170935272Y-94588325D01*
X170945455Y-94610742D01*
X170949500Y-94650661D01*
X170949500Y-94834903D01*
X170929793Y-94921246D01*
X170891214Y-94975617D01*
X170495617Y-95371214D01*
X170420629Y-95418333D01*
X170354903Y-95429500D01*
X170301158Y-95429500D01*
X170250072Y-95439661D01*
X170146506Y-95460262D01*
X170146499Y-95460264D01*
X170000825Y-95520603D01*
X170000818Y-95520607D01*
X169869715Y-95608208D01*
X169869707Y-95608214D01*
X169758214Y-95719707D01*
X169758208Y-95719715D01*
X169670607Y-95850818D01*
X169670603Y-95850825D01*
X169610264Y-95996499D01*
X169610262Y-95996506D01*
X169579500Y-96151158D01*
X169579500Y-96308841D01*
X169610262Y-96463493D01*
X169610264Y-96463500D01*
X169670603Y-96609174D01*
X169670607Y-96609181D01*
X169714114Y-96674293D01*
X169758211Y-96740289D01*
X169869711Y-96851789D01*
X169915931Y-96882672D01*
X170000818Y-96939392D01*
X170000825Y-96939396D01*
X170073662Y-96969565D01*
X170146503Y-96999737D01*
X170301158Y-97030500D01*
X170301159Y-97030500D01*
X170458841Y-97030500D01*
X170458842Y-97030500D01*
X170613497Y-96999737D01*
X170759179Y-96939394D01*
X170844069Y-96882671D01*
X170926809Y-96851088D01*
X171015059Y-96858531D01*
X171091340Y-96903528D01*
X171095342Y-96907420D01*
X171109711Y-96921789D01*
X171217034Y-96993500D01*
X171240818Y-97009392D01*
X171240825Y-97009396D01*
X171291776Y-97030500D01*
X171386503Y-97069737D01*
X171541158Y-97100500D01*
X171541159Y-97100500D01*
X171698841Y-97100500D01*
X171698842Y-97100500D01*
X171853497Y-97069737D01*
X171999179Y-97009394D01*
X172130289Y-96921789D01*
X172241789Y-96810289D01*
X172329394Y-96679179D01*
X172389737Y-96533497D01*
X172420500Y-96378842D01*
X172420500Y-96325096D01*
X172440207Y-96238753D01*
X172478783Y-96184385D01*
X173112662Y-95550506D01*
X173112665Y-95550505D01*
X173147790Y-95515380D01*
X173182020Y-95493872D01*
X173222774Y-95468265D01*
X173222780Y-95468263D01*
X173261619Y-95463888D01*
X173310781Y-95458349D01*
X173310784Y-95458350D01*
X173310787Y-95458350D01*
X173349899Y-95472037D01*
X173394374Y-95487600D01*
X173394375Y-95487601D01*
X173394379Y-95487603D01*
X173421948Y-95515174D01*
X173456998Y-95550224D01*
X173456999Y-95550227D01*
X173457001Y-95550229D01*
X173467918Y-95581431D01*
X173486249Y-95633817D01*
X173487500Y-95656098D01*
X173487500Y-100397994D01*
X173467793Y-100484337D01*
X173434065Y-100531871D01*
X173434412Y-100532156D01*
X173430358Y-100537095D01*
X173429214Y-100538708D01*
X173428214Y-100539707D01*
X173428208Y-100539715D01*
X173340607Y-100670818D01*
X173340603Y-100670825D01*
X173280264Y-100816499D01*
X173280262Y-100816506D01*
X173249500Y-100971158D01*
X173249500Y-101128841D01*
X173280262Y-101283493D01*
X173280264Y-101283500D01*
X173340603Y-101429174D01*
X173340606Y-101429179D01*
X173428211Y-101560289D01*
X173539711Y-101671789D01*
X173662311Y-101753708D01*
X173670818Y-101759392D01*
X173670825Y-101759396D01*
X173698401Y-101770818D01*
X173816503Y-101819737D01*
X173971158Y-101850500D01*
X173971159Y-101850500D01*
X174128841Y-101850500D01*
X174128842Y-101850500D01*
X174283497Y-101819737D01*
X174429179Y-101759394D01*
X174560289Y-101671789D01*
X174671789Y-101560289D01*
X174759394Y-101429179D01*
X174819737Y-101283497D01*
X174850500Y-101128842D01*
X174850500Y-100971158D01*
X174819737Y-100816503D01*
X174759394Y-100670821D01*
X174671789Y-100539711D01*
X174600786Y-100468708D01*
X174553667Y-100393720D01*
X174542500Y-100327994D01*
X174542500Y-94649642D01*
X174562207Y-94563299D01*
X174617426Y-94494058D01*
X174651157Y-94472331D01*
X174670405Y-94462524D01*
X174829646Y-94346828D01*
X174968828Y-94207646D01*
X175058406Y-94084353D01*
X175125100Y-94026085D01*
X175210472Y-94002524D01*
X175297612Y-94018338D01*
X175369261Y-94070395D01*
X175388410Y-94098709D01*
X175389445Y-94098076D01*
X175393528Y-94104739D01*
X175519180Y-94277681D01*
X175519181Y-94277683D01*
X175670316Y-94428818D01*
X175670318Y-94428819D01*
X175843255Y-94554467D01*
X176033708Y-94651507D01*
X176033710Y-94651508D01*
X176236998Y-94717560D01*
X176300999Y-94727697D01*
X176301000Y-94727696D01*
X176301000Y-93823702D01*
X176362007Y-93858925D01*
X176489174Y-93893000D01*
X176620826Y-93893000D01*
X176747993Y-93858925D01*
X176809000Y-93823702D01*
X176809000Y-94727697D01*
X176873001Y-94717560D01*
X177076289Y-94651508D01*
X177076291Y-94651507D01*
X177266744Y-94554467D01*
X177439681Y-94428819D01*
X177439683Y-94428818D01*
X177590818Y-94277683D01*
X177590819Y-94277681D01*
X177716471Y-94104739D01*
X177720555Y-94098076D01*
X177722902Y-94099514D01*
X177769878Y-94043124D01*
X177850474Y-94006412D01*
X177939017Y-94008304D01*
X178017970Y-94048426D01*
X178051593Y-94084353D01*
X178103693Y-94156061D01*
X178141172Y-94207646D01*
X178141174Y-94207648D01*
X178141177Y-94207652D01*
X178280347Y-94346822D01*
X178280349Y-94346823D01*
X178280354Y-94346828D01*
X178439595Y-94462524D01*
X178458843Y-94472331D01*
X178526829Y-94529089D01*
X178563455Y-94609723D01*
X178567500Y-94649642D01*
X178567500Y-95304074D01*
X178547793Y-95390417D01*
X178509214Y-95444788D01*
X175726109Y-98227893D01*
X175726107Y-98227895D01*
X175682844Y-98271158D01*
X175627897Y-98326104D01*
X175627891Y-98326112D01*
X175593171Y-98386248D01*
X175593171Y-98386250D01*
X175558448Y-98446392D01*
X175551667Y-98471700D01*
X175522500Y-98580552D01*
X175522500Y-101612994D01*
X175502793Y-101699337D01*
X175464214Y-101753708D01*
X175428214Y-101789707D01*
X175428208Y-101789715D01*
X175340607Y-101920818D01*
X175340603Y-101920825D01*
X175280264Y-102066499D01*
X175280262Y-102066506D01*
X175249500Y-102221158D01*
X175249500Y-102378841D01*
X175280262Y-102533493D01*
X175280264Y-102533500D01*
X175340603Y-102679174D01*
X175340606Y-102679179D01*
X175428211Y-102810289D01*
X175539711Y-102921789D01*
X175625097Y-102978842D01*
X175670818Y-103009392D01*
X175670825Y-103009396D01*
X175743662Y-103039565D01*
X175816503Y-103069737D01*
X175971158Y-103100500D01*
X175971159Y-103100500D01*
X176128841Y-103100500D01*
X176128842Y-103100500D01*
X176283497Y-103069737D01*
X176429179Y-103009394D01*
X176560289Y-102921789D01*
X176560289Y-102921788D01*
X176568417Y-102916358D01*
X176569851Y-102918504D01*
X176634886Y-102886033D01*
X176723440Y-102884769D01*
X176758082Y-102895538D01*
X176816503Y-102919737D01*
X176971158Y-102950500D01*
X176971159Y-102950500D01*
X177128841Y-102950500D01*
X177128842Y-102950500D01*
X177283497Y-102919737D01*
X177429179Y-102859394D01*
X177560289Y-102771789D01*
X177671789Y-102660289D01*
X177759394Y-102529179D01*
X177819737Y-102383497D01*
X177850500Y-102228842D01*
X177850500Y-102071158D01*
X177819737Y-101916503D01*
X177767220Y-101789715D01*
X177759396Y-101770825D01*
X177759392Y-101770818D01*
X177747959Y-101753708D01*
X177671789Y-101639711D01*
X177635786Y-101603708D01*
X177588667Y-101528720D01*
X177577500Y-101462994D01*
X177577500Y-99380925D01*
X177597207Y-99294582D01*
X177635786Y-99240211D01*
X180075415Y-96800583D01*
X185464500Y-96800583D01*
X185464500Y-96997417D01*
X185466397Y-97009392D01*
X185495289Y-97191820D01*
X185495291Y-97191828D01*
X185556113Y-97379017D01*
X185556113Y-97379018D01*
X185556115Y-97379021D01*
X185556116Y-97379025D01*
X185645476Y-97554405D01*
X185761172Y-97713646D01*
X185761176Y-97713650D01*
X185761177Y-97713652D01*
X185900347Y-97852822D01*
X185900349Y-97852823D01*
X185900354Y-97852828D01*
X186059595Y-97968524D01*
X186234975Y-98057884D01*
X186234980Y-98057885D01*
X186234981Y-98057886D01*
X186359774Y-98098434D01*
X186422174Y-98118709D01*
X186422176Y-98118709D01*
X186422179Y-98118710D01*
X186616583Y-98149500D01*
X186813417Y-98149500D01*
X187007820Y-98118710D01*
X187007820Y-98118709D01*
X187007826Y-98118709D01*
X187195025Y-98057884D01*
X187370405Y-97968524D01*
X187529646Y-97852828D01*
X187668828Y-97713646D01*
X187668830Y-97713642D01*
X187673293Y-97709180D01*
X187748282Y-97662061D01*
X187836288Y-97652145D01*
X187919882Y-97681396D01*
X187982506Y-97744019D01*
X188010558Y-97818765D01*
X188019353Y-97874300D01*
X188019354Y-97874303D01*
X188019354Y-97874305D01*
X188076951Y-97987344D01*
X188166657Y-98077050D01*
X188279692Y-98134644D01*
X188279696Y-98134646D01*
X188373481Y-98149500D01*
X190136518Y-98149499D01*
X190230304Y-98134646D01*
X190343342Y-98077050D01*
X190433050Y-97987342D01*
X190490646Y-97874304D01*
X190505500Y-97780519D01*
X190505499Y-96017482D01*
X190490646Y-95923696D01*
X190433050Y-95810658D01*
X190433049Y-95810657D01*
X190433048Y-95810655D01*
X190343342Y-95720949D01*
X190230307Y-95663355D01*
X190230304Y-95663354D01*
X190230302Y-95663353D01*
X190230300Y-95663353D01*
X190164818Y-95652982D01*
X190136519Y-95648500D01*
X190136518Y-95648500D01*
X188373481Y-95648500D01*
X188279696Y-95663354D01*
X188279694Y-95663354D01*
X188166655Y-95720951D01*
X188076949Y-95810657D01*
X188019355Y-95923692D01*
X188019353Y-95923698D01*
X188010557Y-95979236D01*
X187977584Y-96061433D01*
X187912214Y-96121183D01*
X187827392Y-96146653D01*
X187739919Y-96132798D01*
X187673293Y-96088818D01*
X187529652Y-95945177D01*
X187529650Y-95945176D01*
X187529646Y-95945172D01*
X187399780Y-95850818D01*
X187370407Y-95829477D01*
X187333466Y-95810655D01*
X187195025Y-95740116D01*
X187195021Y-95740115D01*
X187195018Y-95740113D01*
X187007828Y-95679291D01*
X187007820Y-95679289D01*
X186813417Y-95648500D01*
X186616583Y-95648500D01*
X186422179Y-95679289D01*
X186422171Y-95679291D01*
X186234982Y-95740113D01*
X186234981Y-95740113D01*
X186059592Y-95829477D01*
X185938156Y-95917706D01*
X185900354Y-95945172D01*
X185900352Y-95945173D01*
X185900349Y-95945176D01*
X185900347Y-95945177D01*
X185761177Y-96084347D01*
X185761176Y-96084349D01*
X185645477Y-96243592D01*
X185556113Y-96418981D01*
X185556113Y-96418982D01*
X185495291Y-96606171D01*
X185495289Y-96606179D01*
X185474049Y-96740292D01*
X185464500Y-96800583D01*
X180075415Y-96800583D01*
X180223948Y-96652050D01*
X181135885Y-95740113D01*
X182057105Y-94818893D01*
X182126551Y-94698610D01*
X182126552Y-94698609D01*
X182139172Y-94651508D01*
X182150973Y-94607463D01*
X182192353Y-94529166D01*
X182252847Y-94481660D01*
X182290405Y-94462524D01*
X182449646Y-94346828D01*
X182588828Y-94207646D01*
X182678406Y-94084353D01*
X182745100Y-94026085D01*
X182830472Y-94002524D01*
X182917612Y-94018338D01*
X182989261Y-94070395D01*
X183008410Y-94098709D01*
X183009445Y-94098076D01*
X183013528Y-94104739D01*
X183139180Y-94277681D01*
X183139181Y-94277683D01*
X183290316Y-94428818D01*
X183290318Y-94428819D01*
X183463255Y-94554467D01*
X183653708Y-94651507D01*
X183653710Y-94651508D01*
X183856998Y-94717560D01*
X183920999Y-94727697D01*
X183921000Y-94727696D01*
X183921000Y-93823702D01*
X183982007Y-93858925D01*
X184109174Y-93893000D01*
X184240826Y-93893000D01*
X184367993Y-93858925D01*
X184429000Y-93823702D01*
X184429000Y-94727697D01*
X184493001Y-94717560D01*
X184696289Y-94651508D01*
X184696291Y-94651507D01*
X184886744Y-94554467D01*
X185059681Y-94428819D01*
X185059683Y-94428818D01*
X185210818Y-94277683D01*
X185210819Y-94277681D01*
X185336471Y-94104739D01*
X185340555Y-94098076D01*
X185342902Y-94099514D01*
X185389878Y-94043124D01*
X185470474Y-94006412D01*
X185559017Y-94008304D01*
X185637970Y-94048426D01*
X185671593Y-94084353D01*
X185723693Y-94156061D01*
X185761172Y-94207646D01*
X185761174Y-94207648D01*
X185761177Y-94207652D01*
X185900347Y-94346822D01*
X185900349Y-94346823D01*
X185900354Y-94346828D01*
X186059595Y-94462524D01*
X186234975Y-94551884D01*
X186234980Y-94551885D01*
X186234981Y-94551886D01*
X186347128Y-94588325D01*
X186422174Y-94612709D01*
X186422176Y-94612709D01*
X186422179Y-94612710D01*
X186616583Y-94643500D01*
X186813417Y-94643500D01*
X187007820Y-94612710D01*
X187007820Y-94612709D01*
X187007826Y-94612709D01*
X187195025Y-94551884D01*
X187370405Y-94462524D01*
X187529646Y-94346828D01*
X187668828Y-94207646D01*
X187668830Y-94207642D01*
X187673293Y-94203180D01*
X187748282Y-94156061D01*
X187836288Y-94146145D01*
X187919882Y-94175396D01*
X187982506Y-94238019D01*
X188010558Y-94312765D01*
X188019353Y-94368300D01*
X188019354Y-94368303D01*
X188019354Y-94368305D01*
X188076951Y-94481344D01*
X188166657Y-94571050D01*
X188248416Y-94612708D01*
X188279696Y-94628646D01*
X188373481Y-94643500D01*
X190136518Y-94643499D01*
X190230304Y-94628646D01*
X190343342Y-94571050D01*
X190433050Y-94481342D01*
X190490646Y-94368304D01*
X190505500Y-94274519D01*
X190505499Y-92511482D01*
X190490646Y-92417696D01*
X190433050Y-92304658D01*
X190433049Y-92304657D01*
X190433048Y-92304655D01*
X190343342Y-92214949D01*
X190230307Y-92157355D01*
X190230302Y-92157353D01*
X190174763Y-92148557D01*
X190092567Y-92115585D01*
X190032816Y-92050214D01*
X190007346Y-91965392D01*
X190021201Y-91877919D01*
X190065181Y-91811292D01*
X190069642Y-91806830D01*
X190069646Y-91806828D01*
X190208828Y-91667646D01*
X190324524Y-91508405D01*
X190413884Y-91333025D01*
X190474709Y-91145826D01*
X190505500Y-90951417D01*
X190505500Y-90754583D01*
X190490521Y-90660007D01*
X190474710Y-90560179D01*
X190474708Y-90560171D01*
X190413886Y-90372982D01*
X190413886Y-90372981D01*
X190413885Y-90372980D01*
X190413884Y-90372975D01*
X190324524Y-90197595D01*
X190208828Y-90038354D01*
X190208823Y-90038349D01*
X190208822Y-90038347D01*
X190069652Y-89899177D01*
X190069650Y-89899176D01*
X190069646Y-89899172D01*
X189956794Y-89817180D01*
X189910407Y-89783477D01*
X189904704Y-89780571D01*
X189735025Y-89694116D01*
X189735021Y-89694115D01*
X189735018Y-89694113D01*
X189547828Y-89633291D01*
X189547820Y-89633289D01*
X189353417Y-89602500D01*
X189156583Y-89602500D01*
X188962179Y-89633289D01*
X188962171Y-89633291D01*
X188774982Y-89694113D01*
X188774981Y-89694113D01*
X188599592Y-89783477D01*
X188478156Y-89871706D01*
X188440354Y-89899172D01*
X188440352Y-89899173D01*
X188440349Y-89899176D01*
X188440347Y-89899177D01*
X188301177Y-90038347D01*
X188301176Y-90038349D01*
X188185474Y-90197597D01*
X188162310Y-90243060D01*
X188105552Y-90311045D01*
X188024917Y-90347671D01*
X187936376Y-90345684D01*
X187857466Y-90305477D01*
X187807690Y-90243060D01*
X187784525Y-90197597D01*
X187784524Y-90197595D01*
X187668828Y-90038354D01*
X187668823Y-90038349D01*
X187668822Y-90038347D01*
X187529652Y-89899177D01*
X187529650Y-89899176D01*
X187529646Y-89899172D01*
X187416794Y-89817180D01*
X187370407Y-89783477D01*
X187364704Y-89780571D01*
X187195025Y-89694116D01*
X187195021Y-89694115D01*
X187195018Y-89694113D01*
X187007828Y-89633291D01*
X187007820Y-89633289D01*
X186813417Y-89602500D01*
X186616583Y-89602500D01*
X186422179Y-89633289D01*
X186422171Y-89633291D01*
X186234982Y-89694113D01*
X186234981Y-89694113D01*
X186059592Y-89783477D01*
X185938156Y-89871706D01*
X185900354Y-89899172D01*
X185900352Y-89899173D01*
X185900349Y-89899176D01*
X185900347Y-89899177D01*
X185761177Y-90038347D01*
X185761176Y-90038349D01*
X185645474Y-90197597D01*
X185622310Y-90243060D01*
X185565552Y-90311045D01*
X185484917Y-90347671D01*
X185396376Y-90345684D01*
X185317466Y-90305477D01*
X185267690Y-90243060D01*
X185244525Y-90197597D01*
X185244524Y-90197595D01*
X185128828Y-90038354D01*
X185128823Y-90038349D01*
X185128822Y-90038347D01*
X184989652Y-89899177D01*
X184989650Y-89899176D01*
X184989646Y-89899172D01*
X184876794Y-89817180D01*
X184830407Y-89783477D01*
X184824704Y-89780571D01*
X184655025Y-89694116D01*
X184655021Y-89694115D01*
X184655018Y-89694113D01*
X184467828Y-89633291D01*
X184467820Y-89633289D01*
X184273417Y-89602500D01*
X184076583Y-89602500D01*
X183882179Y-89633289D01*
X183882171Y-89633291D01*
X183694982Y-89694113D01*
X183694981Y-89694113D01*
X183519592Y-89783477D01*
X183398156Y-89871706D01*
X183360354Y-89899172D01*
X183360352Y-89899173D01*
X183360349Y-89899176D01*
X183360347Y-89899177D01*
X183221177Y-90038347D01*
X183221176Y-90038349D01*
X183105474Y-90197597D01*
X183082310Y-90243060D01*
X183025552Y-90311045D01*
X182944917Y-90347671D01*
X182856376Y-90345684D01*
X182777466Y-90305477D01*
X182727690Y-90243060D01*
X182704525Y-90197597D01*
X182704524Y-90197595D01*
X182588828Y-90038354D01*
X182588823Y-90038349D01*
X182588822Y-90038347D01*
X182449652Y-89899177D01*
X182449650Y-89899176D01*
X182449646Y-89899172D01*
X182336794Y-89817180D01*
X182290407Y-89783477D01*
X182284704Y-89780571D01*
X182115025Y-89694116D01*
X182115021Y-89694115D01*
X182115018Y-89694113D01*
X181927828Y-89633291D01*
X181927820Y-89633289D01*
X181733417Y-89602500D01*
X181536583Y-89602500D01*
X181342179Y-89633289D01*
X181342171Y-89633291D01*
X181154982Y-89694113D01*
X181154981Y-89694113D01*
X180979592Y-89783477D01*
X180858156Y-89871706D01*
X180820354Y-89899172D01*
X180820352Y-89899173D01*
X180820349Y-89899176D01*
X180820347Y-89899177D01*
X180681177Y-90038347D01*
X180681176Y-90038349D01*
X180565474Y-90197597D01*
X180542310Y-90243060D01*
X180485552Y-90311045D01*
X180404917Y-90347671D01*
X180316376Y-90345684D01*
X180237466Y-90305477D01*
X180187690Y-90243060D01*
X180164525Y-90197597D01*
X180164524Y-90197595D01*
X180048828Y-90038354D01*
X180048823Y-90038349D01*
X180048822Y-90038347D01*
X179909652Y-89899177D01*
X179909650Y-89899176D01*
X179909646Y-89899172D01*
X179796794Y-89817180D01*
X179750407Y-89783477D01*
X179744704Y-89780571D01*
X179575025Y-89694116D01*
X179575021Y-89694115D01*
X179575018Y-89694113D01*
X179387828Y-89633291D01*
X179387820Y-89633289D01*
X179193417Y-89602500D01*
X178996583Y-89602500D01*
X178802179Y-89633289D01*
X178802171Y-89633291D01*
X178614982Y-89694113D01*
X178614981Y-89694113D01*
X178439592Y-89783477D01*
X178318156Y-89871706D01*
X178280354Y-89899172D01*
X178280352Y-89899173D01*
X178280349Y-89899176D01*
X178280347Y-89899177D01*
X178141177Y-90038347D01*
X178141176Y-90038349D01*
X178025474Y-90197597D01*
X178002310Y-90243060D01*
X177945552Y-90311045D01*
X177864917Y-90347671D01*
X177776376Y-90345684D01*
X177697466Y-90305477D01*
X177647690Y-90243060D01*
X177624525Y-90197597D01*
X177624524Y-90197595D01*
X177508828Y-90038354D01*
X177508823Y-90038349D01*
X177508822Y-90038347D01*
X177369652Y-89899177D01*
X177369650Y-89899176D01*
X177369646Y-89899172D01*
X177256794Y-89817180D01*
X177210407Y-89783477D01*
X177204704Y-89780571D01*
X177035025Y-89694116D01*
X177035021Y-89694115D01*
X177035018Y-89694113D01*
X176847828Y-89633291D01*
X176847820Y-89633289D01*
X176653417Y-89602500D01*
X176456583Y-89602500D01*
X176262179Y-89633289D01*
X176262171Y-89633291D01*
X176074982Y-89694113D01*
X176074981Y-89694113D01*
X175899592Y-89783477D01*
X175778156Y-89871706D01*
X175740354Y-89899172D01*
X175740352Y-89899173D01*
X175740349Y-89899176D01*
X175740347Y-89899177D01*
X175601177Y-90038347D01*
X175601176Y-90038349D01*
X175485474Y-90197597D01*
X175462310Y-90243060D01*
X175405552Y-90311045D01*
X175324917Y-90347671D01*
X175236376Y-90345684D01*
X175157466Y-90305477D01*
X175107690Y-90243060D01*
X175084525Y-90197597D01*
X175084524Y-90197595D01*
X174968828Y-90038354D01*
X174968823Y-90038349D01*
X174968822Y-90038347D01*
X174829652Y-89899177D01*
X174829650Y-89899176D01*
X174829646Y-89899172D01*
X174716794Y-89817180D01*
X174670407Y-89783477D01*
X174664704Y-89780571D01*
X174495025Y-89694116D01*
X174495021Y-89694115D01*
X174495018Y-89694113D01*
X174307828Y-89633291D01*
X174307820Y-89633289D01*
X174113417Y-89602500D01*
X173916583Y-89602500D01*
X173722179Y-89633289D01*
X173722171Y-89633291D01*
X173534982Y-89694113D01*
X173534981Y-89694113D01*
X173359592Y-89783477D01*
X173238156Y-89871706D01*
X173200354Y-89899172D01*
X173200352Y-89899173D01*
X173200349Y-89899176D01*
X173200347Y-89899177D01*
X173061177Y-90038347D01*
X173061176Y-90038349D01*
X172945474Y-90197597D01*
X172922310Y-90243060D01*
X172865552Y-90311045D01*
X172784917Y-90347671D01*
X172696376Y-90345684D01*
X172617466Y-90305477D01*
X172567690Y-90243060D01*
X172544525Y-90197597D01*
X172544524Y-90197595D01*
X172428828Y-90038354D01*
X172428823Y-90038349D01*
X172428822Y-90038347D01*
X172289652Y-89899177D01*
X172289650Y-89899176D01*
X172289646Y-89899172D01*
X172176794Y-89817180D01*
X172130407Y-89783477D01*
X172124704Y-89780571D01*
X171955025Y-89694116D01*
X171955021Y-89694115D01*
X171955018Y-89694113D01*
X171767828Y-89633291D01*
X171767820Y-89633289D01*
X171573417Y-89602500D01*
X171376583Y-89602500D01*
X171182179Y-89633289D01*
X171182171Y-89633291D01*
X170994982Y-89694113D01*
X170994981Y-89694113D01*
X170819592Y-89783477D01*
X170698156Y-89871706D01*
X170660354Y-89899172D01*
X170660352Y-89899173D01*
X170660349Y-89899176D01*
X170660347Y-89899177D01*
X170521173Y-90038351D01*
X170431593Y-90161646D01*
X170364898Y-90219915D01*
X170279526Y-90243475D01*
X170192386Y-90227660D01*
X170120737Y-90175603D01*
X170101596Y-90147285D01*
X170100555Y-90147924D01*
X170096471Y-90141260D01*
X169970819Y-89968318D01*
X169970818Y-89968316D01*
X169819683Y-89817181D01*
X169819681Y-89817180D01*
X169646744Y-89691532D01*
X169456291Y-89594492D01*
X169456285Y-89594490D01*
X169252996Y-89528438D01*
X169252998Y-89528438D01*
X169189000Y-89518302D01*
X169189000Y-90422297D01*
X169127993Y-90387075D01*
X169000826Y-90353000D01*
X168869174Y-90353000D01*
X168742007Y-90387075D01*
X168681000Y-90422297D01*
X168681000Y-89518302D01*
X168617002Y-89528438D01*
X168413714Y-89594490D01*
X168413708Y-89594492D01*
X168223255Y-89691532D01*
X168050318Y-89817180D01*
X168050316Y-89817181D01*
X167899181Y-89968316D01*
X167899180Y-89968318D01*
X167773532Y-90141255D01*
X167676492Y-90331708D01*
X167676490Y-90331714D01*
X167610438Y-90535002D01*
X167600302Y-90599000D01*
X152250500Y-90599000D01*
X152250500Y-85360453D01*
X152270207Y-85274110D01*
X152308786Y-85219739D01*
X153694739Y-83833786D01*
X153723008Y-83816022D01*
X153749110Y-83795207D01*
X153760143Y-83792688D01*
X153769727Y-83786667D01*
X153835453Y-83775500D01*
X153975501Y-83775500D01*
X154061844Y-83795207D01*
X154131085Y-83850426D01*
X154169512Y-83930218D01*
X154174501Y-83974500D01*
X154174501Y-84106518D01*
X154189353Y-84200300D01*
X154189354Y-84200303D01*
X154189354Y-84200305D01*
X154246951Y-84313344D01*
X154336657Y-84403050D01*
X154438778Y-84455083D01*
X154449696Y-84460646D01*
X154505233Y-84469442D01*
X154587431Y-84502413D01*
X154647182Y-84567783D01*
X154672653Y-84652604D01*
X154658799Y-84740077D01*
X154614819Y-84806706D01*
X154471174Y-84950351D01*
X154355477Y-85109592D01*
X154266113Y-85284981D01*
X154266113Y-85284982D01*
X154205291Y-85472171D01*
X154205289Y-85472179D01*
X154174500Y-85666583D01*
X154174500Y-85863416D01*
X154205289Y-86057820D01*
X154205291Y-86057828D01*
X154266113Y-86245017D01*
X154266113Y-86245018D01*
X154266115Y-86245021D01*
X154266116Y-86245025D01*
X154355476Y-86420405D01*
X154471172Y-86579646D01*
X154471176Y-86579650D01*
X154471177Y-86579652D01*
X154610347Y-86718822D01*
X154610349Y-86718823D01*
X154610354Y-86718828D01*
X154769595Y-86834524D01*
X154944975Y-86923884D01*
X154944980Y-86923885D01*
X154944981Y-86923886D01*
X155069774Y-86964434D01*
X155132174Y-86984709D01*
X155132176Y-86984709D01*
X155132179Y-86984710D01*
X155326583Y-87015500D01*
X155523417Y-87015500D01*
X155717820Y-86984710D01*
X155717820Y-86984709D01*
X155717826Y-86984709D01*
X155905025Y-86923884D01*
X156080405Y-86834524D01*
X156239646Y-86718828D01*
X156378828Y-86579646D01*
X156494524Y-86420405D01*
X156517690Y-86374938D01*
X156574447Y-86306955D01*
X156655081Y-86270328D01*
X156743622Y-86272314D01*
X156822533Y-86312521D01*
X156872309Y-86374938D01*
X156895476Y-86420405D01*
X157011172Y-86579646D01*
X157011176Y-86579650D01*
X157011177Y-86579652D01*
X157150347Y-86718822D01*
X157150349Y-86718823D01*
X157150354Y-86718828D01*
X157309595Y-86834524D01*
X157484975Y-86923884D01*
X157484980Y-86923885D01*
X157484981Y-86923886D01*
X157609774Y-86964434D01*
X157672174Y-86984709D01*
X157672176Y-86984709D01*
X157672179Y-86984710D01*
X157866583Y-87015500D01*
X158063417Y-87015500D01*
X158257820Y-86984710D01*
X158257820Y-86984709D01*
X158257826Y-86984709D01*
X158445025Y-86923884D01*
X158620405Y-86834524D01*
X158779646Y-86718828D01*
X158918828Y-86579646D01*
X159008406Y-86456353D01*
X159075100Y-86398085D01*
X159160472Y-86374524D01*
X159247612Y-86390338D01*
X159319261Y-86442395D01*
X159338410Y-86470709D01*
X159339445Y-86470076D01*
X159343528Y-86476739D01*
X159469180Y-86649681D01*
X159469181Y-86649683D01*
X159620316Y-86800818D01*
X159620318Y-86800819D01*
X159793255Y-86926467D01*
X159983708Y-87023507D01*
X159983710Y-87023508D01*
X160186998Y-87089560D01*
X160250999Y-87099697D01*
X160251000Y-87099696D01*
X160251000Y-86195702D01*
X160312007Y-86230925D01*
X160439174Y-86265000D01*
X160570826Y-86265000D01*
X160697993Y-86230925D01*
X160759000Y-86195702D01*
X160759000Y-87099697D01*
X160823001Y-87089560D01*
X161026289Y-87023508D01*
X161026291Y-87023507D01*
X161216744Y-86926467D01*
X161389681Y-86800819D01*
X161389683Y-86800818D01*
X161540818Y-86649683D01*
X161540819Y-86649681D01*
X161666467Y-86476744D01*
X161763507Y-86286291D01*
X161763509Y-86286285D01*
X161829561Y-86082997D01*
X161839698Y-86019000D01*
X160935703Y-86019000D01*
X160970925Y-85957993D01*
X161005000Y-85830826D01*
X161005000Y-85699174D01*
X160970925Y-85572007D01*
X160935703Y-85511000D01*
X161839698Y-85511000D01*
X161829561Y-85447002D01*
X161763509Y-85243714D01*
X161763507Y-85243708D01*
X161666467Y-85053255D01*
X161540819Y-84880318D01*
X161540818Y-84880316D01*
X161389683Y-84729181D01*
X161389681Y-84729180D01*
X161216739Y-84603528D01*
X161210076Y-84599445D01*
X161211498Y-84597123D01*
X161154994Y-84549950D01*
X161118368Y-84469315D01*
X161120356Y-84380774D01*
X161160564Y-84301863D01*
X161196352Y-84268406D01*
X161319646Y-84178828D01*
X161458828Y-84039646D01*
X161574524Y-83880405D01*
X161663884Y-83705025D01*
X161724709Y-83517826D01*
X161755500Y-83323417D01*
X161755500Y-83126583D01*
X161724709Y-82932174D01*
X161663884Y-82744975D01*
X161574524Y-82569595D01*
X161458828Y-82410354D01*
X161458823Y-82410349D01*
X161458822Y-82410347D01*
X161319652Y-82271177D01*
X161319650Y-82271176D01*
X161319646Y-82271172D01*
X161207049Y-82189365D01*
X161160407Y-82155477D01*
X161123466Y-82136655D01*
X160985025Y-82066116D01*
X160985021Y-82066115D01*
X160985018Y-82066113D01*
X160797828Y-82005291D01*
X160797820Y-82005289D01*
X160603417Y-81974500D01*
X160406583Y-81974500D01*
X160212179Y-82005289D01*
X160212171Y-82005291D01*
X160024982Y-82066113D01*
X160024981Y-82066113D01*
X159849592Y-82155477D01*
X159728156Y-82243706D01*
X159690354Y-82271172D01*
X159690352Y-82271173D01*
X159690349Y-82271176D01*
X159690347Y-82271177D01*
X159551177Y-82410347D01*
X159551176Y-82410349D01*
X159551173Y-82410352D01*
X159551172Y-82410354D01*
X159527742Y-82442603D01*
X159435474Y-82569597D01*
X159412310Y-82615060D01*
X159355552Y-82683045D01*
X159274917Y-82719671D01*
X159186376Y-82717684D01*
X159107466Y-82677477D01*
X159057690Y-82615060D01*
X159034525Y-82569597D01*
X159034524Y-82569595D01*
X158918828Y-82410354D01*
X158918823Y-82410349D01*
X158918822Y-82410347D01*
X158779652Y-82271177D01*
X158779650Y-82271176D01*
X158779646Y-82271172D01*
X158667049Y-82189365D01*
X158620407Y-82155477D01*
X158583466Y-82136655D01*
X158445025Y-82066116D01*
X158445021Y-82066115D01*
X158445018Y-82066113D01*
X158257828Y-82005291D01*
X158257820Y-82005289D01*
X158063417Y-81974500D01*
X157866583Y-81974500D01*
X157672179Y-82005289D01*
X157672171Y-82005291D01*
X157484982Y-82066113D01*
X157484981Y-82066113D01*
X157309592Y-82155477D01*
X157150351Y-82271174D01*
X157006705Y-82414820D01*
X156931716Y-82461938D01*
X156843709Y-82471854D01*
X156760116Y-82442603D01*
X156697493Y-82379979D01*
X156669442Y-82305238D01*
X156660646Y-82249696D01*
X156603050Y-82136658D01*
X156603049Y-82136657D01*
X156603048Y-82136655D01*
X156513342Y-82046949D01*
X156400307Y-81989355D01*
X156400304Y-81989354D01*
X156400302Y-81989353D01*
X156400300Y-81989353D01*
X156334818Y-81978982D01*
X156306519Y-81974500D01*
X156306518Y-81974500D01*
X154543481Y-81974500D01*
X154449696Y-81989354D01*
X154449694Y-81989354D01*
X154336655Y-82046951D01*
X154246949Y-82136657D01*
X154189355Y-82249692D01*
X154189353Y-82249699D01*
X154174500Y-82343481D01*
X154174500Y-82475500D01*
X154154793Y-82561843D01*
X154099574Y-82631084D01*
X154019782Y-82669511D01*
X153975500Y-82674500D01*
X153452522Y-82674500D01*
X153312515Y-82712016D01*
X153312507Y-82712019D01*
X153186988Y-82784487D01*
X153186984Y-82784490D01*
X151259489Y-84711985D01*
X151202224Y-84811171D01*
X151202225Y-84811172D01*
X151187017Y-84837513D01*
X151187016Y-84837515D01*
X151149500Y-84977522D01*
X151149500Y-94135994D01*
X151129793Y-94222337D01*
X151091214Y-94276708D01*
X151078214Y-94289707D01*
X151078208Y-94289715D01*
X150990607Y-94420818D01*
X150990603Y-94420825D01*
X150930264Y-94566499D01*
X150930262Y-94566506D01*
X150903985Y-94698609D01*
X150899500Y-94721158D01*
X131159600Y-94721158D01*
X131159600Y-71114000D01*
X131179307Y-71027657D01*
X131234526Y-70958416D01*
X131314318Y-70919989D01*
X131358600Y-70915000D01*
X191768200Y-70915000D01*
X191854543Y-70934707D01*
G37*
G04 #@! TD.AperFunction*
G04 #@! TD*
M02*
