G04 #@! TF.GenerationSoftware,KiCad,Pcbnew,9.0.0-rc2-6-ga1fa0bdb0b*
G04 #@! TF.CreationDate,2025-01-23T13:26:01+02:00*
G04 #@! TF.ProjectId,bk_can_bus_extension_v2,626b5f63-616e-45f6-9275-735f65787465,Rev 4*
G04 #@! TF.SameCoordinates,Original*
G04 #@! TF.FileFunction,Legend,Bot*
G04 #@! TF.FilePolarity,Positive*
%FSLAX46Y46*%
G04 Gerber Fmt 4.6, Leading zero omitted, Abs format (unit mm)*
G04 Created by KiCad (PCBNEW 9.0.0-rc2-6-ga1fa0bdb0b) date 2025-01-23 13:26:01*
%MOMM*%
%LPD*%
G01*
G04 APERTURE LIST*
%ADD10C,0.150000*%
%ADD11C,0.300000*%
%ADD12C,0.120000*%
%ADD13C,0.000000*%
G04 APERTURE END LIST*
D10*
X172331427Y-120819771D02*
X172331427Y-120219771D01*
X172331427Y-120219771D02*
X171988570Y-120819771D01*
X171988570Y-120819771D02*
X171988570Y-120219771D01*
X171359999Y-120762628D02*
X171388571Y-120791200D01*
X171388571Y-120791200D02*
X171474285Y-120819771D01*
X171474285Y-120819771D02*
X171531428Y-120819771D01*
X171531428Y-120819771D02*
X171617142Y-120791200D01*
X171617142Y-120791200D02*
X171674285Y-120734057D01*
X171674285Y-120734057D02*
X171702856Y-120676914D01*
X171702856Y-120676914D02*
X171731428Y-120562628D01*
X171731428Y-120562628D02*
X171731428Y-120476914D01*
X171731428Y-120476914D02*
X171702856Y-120362628D01*
X171702856Y-120362628D02*
X171674285Y-120305485D01*
X171674285Y-120305485D02*
X171617142Y-120248342D01*
X171617142Y-120248342D02*
X171531428Y-120219771D01*
X171531428Y-120219771D02*
X171474285Y-120219771D01*
X171474285Y-120219771D02*
X171388571Y-120248342D01*
X171388571Y-120248342D02*
X171359999Y-120276914D01*
D11*
X187038346Y-76228013D02*
X187109774Y-76299442D01*
X187109774Y-76299442D02*
X187324060Y-76370870D01*
X187324060Y-76370870D02*
X187466917Y-76370870D01*
X187466917Y-76370870D02*
X187681203Y-76299442D01*
X187681203Y-76299442D02*
X187824060Y-76156584D01*
X187824060Y-76156584D02*
X187895489Y-76013727D01*
X187895489Y-76013727D02*
X187966917Y-75728013D01*
X187966917Y-75728013D02*
X187966917Y-75513727D01*
X187966917Y-75513727D02*
X187895489Y-75228013D01*
X187895489Y-75228013D02*
X187824060Y-75085156D01*
X187824060Y-75085156D02*
X187681203Y-74942299D01*
X187681203Y-74942299D02*
X187466917Y-74870870D01*
X187466917Y-74870870D02*
X187324060Y-74870870D01*
X187324060Y-74870870D02*
X187109774Y-74942299D01*
X187109774Y-74942299D02*
X187038346Y-75013727D01*
X186466917Y-75942299D02*
X185752632Y-75942299D01*
X186609774Y-76370870D02*
X186109774Y-74870870D01*
X186109774Y-74870870D02*
X185609774Y-76370870D01*
X185109775Y-76370870D02*
X185109775Y-74870870D01*
X185109775Y-74870870D02*
X184252632Y-76370870D01*
X184252632Y-76370870D02*
X184252632Y-74870870D01*
X181895489Y-75585156D02*
X181681203Y-75656584D01*
X181681203Y-75656584D02*
X181609774Y-75728013D01*
X181609774Y-75728013D02*
X181538346Y-75870870D01*
X181538346Y-75870870D02*
X181538346Y-76085156D01*
X181538346Y-76085156D02*
X181609774Y-76228013D01*
X181609774Y-76228013D02*
X181681203Y-76299442D01*
X181681203Y-76299442D02*
X181824060Y-76370870D01*
X181824060Y-76370870D02*
X182395489Y-76370870D01*
X182395489Y-76370870D02*
X182395489Y-74870870D01*
X182395489Y-74870870D02*
X181895489Y-74870870D01*
X181895489Y-74870870D02*
X181752632Y-74942299D01*
X181752632Y-74942299D02*
X181681203Y-75013727D01*
X181681203Y-75013727D02*
X181609774Y-75156584D01*
X181609774Y-75156584D02*
X181609774Y-75299442D01*
X181609774Y-75299442D02*
X181681203Y-75442299D01*
X181681203Y-75442299D02*
X181752632Y-75513727D01*
X181752632Y-75513727D02*
X181895489Y-75585156D01*
X181895489Y-75585156D02*
X182395489Y-75585156D01*
X180895489Y-74870870D02*
X180895489Y-76085156D01*
X180895489Y-76085156D02*
X180824060Y-76228013D01*
X180824060Y-76228013D02*
X180752632Y-76299442D01*
X180752632Y-76299442D02*
X180609774Y-76370870D01*
X180609774Y-76370870D02*
X180324060Y-76370870D01*
X180324060Y-76370870D02*
X180181203Y-76299442D01*
X180181203Y-76299442D02*
X180109774Y-76228013D01*
X180109774Y-76228013D02*
X180038346Y-76085156D01*
X180038346Y-76085156D02*
X180038346Y-74870870D01*
X179395488Y-76299442D02*
X179181203Y-76370870D01*
X179181203Y-76370870D02*
X178824060Y-76370870D01*
X178824060Y-76370870D02*
X178681203Y-76299442D01*
X178681203Y-76299442D02*
X178609774Y-76228013D01*
X178609774Y-76228013D02*
X178538345Y-76085156D01*
X178538345Y-76085156D02*
X178538345Y-75942299D01*
X178538345Y-75942299D02*
X178609774Y-75799442D01*
X178609774Y-75799442D02*
X178681203Y-75728013D01*
X178681203Y-75728013D02*
X178824060Y-75656584D01*
X178824060Y-75656584D02*
X179109774Y-75585156D01*
X179109774Y-75585156D02*
X179252631Y-75513727D01*
X179252631Y-75513727D02*
X179324060Y-75442299D01*
X179324060Y-75442299D02*
X179395488Y-75299442D01*
X179395488Y-75299442D02*
X179395488Y-75156584D01*
X179395488Y-75156584D02*
X179324060Y-75013727D01*
X179324060Y-75013727D02*
X179252631Y-74942299D01*
X179252631Y-74942299D02*
X179109774Y-74870870D01*
X179109774Y-74870870D02*
X178752631Y-74870870D01*
X178752631Y-74870870D02*
X178538345Y-74942299D01*
X176252632Y-75585156D02*
X176038346Y-75656584D01*
X176038346Y-75656584D02*
X175966917Y-75728013D01*
X175966917Y-75728013D02*
X175895489Y-75870870D01*
X175895489Y-75870870D02*
X175895489Y-76085156D01*
X175895489Y-76085156D02*
X175966917Y-76228013D01*
X175966917Y-76228013D02*
X176038346Y-76299442D01*
X176038346Y-76299442D02*
X176181203Y-76370870D01*
X176181203Y-76370870D02*
X176752632Y-76370870D01*
X176752632Y-76370870D02*
X176752632Y-74870870D01*
X176752632Y-74870870D02*
X176252632Y-74870870D01*
X176252632Y-74870870D02*
X176109775Y-74942299D01*
X176109775Y-74942299D02*
X176038346Y-75013727D01*
X176038346Y-75013727D02*
X175966917Y-75156584D01*
X175966917Y-75156584D02*
X175966917Y-75299442D01*
X175966917Y-75299442D02*
X176038346Y-75442299D01*
X176038346Y-75442299D02*
X176109775Y-75513727D01*
X176109775Y-75513727D02*
X176252632Y-75585156D01*
X176252632Y-75585156D02*
X176752632Y-75585156D01*
X174966917Y-74870870D02*
X174681203Y-74870870D01*
X174681203Y-74870870D02*
X174538346Y-74942299D01*
X174538346Y-74942299D02*
X174395489Y-75085156D01*
X174395489Y-75085156D02*
X174324060Y-75370870D01*
X174324060Y-75370870D02*
X174324060Y-75870870D01*
X174324060Y-75870870D02*
X174395489Y-76156584D01*
X174395489Y-76156584D02*
X174538346Y-76299442D01*
X174538346Y-76299442D02*
X174681203Y-76370870D01*
X174681203Y-76370870D02*
X174966917Y-76370870D01*
X174966917Y-76370870D02*
X175109775Y-76299442D01*
X175109775Y-76299442D02*
X175252632Y-76156584D01*
X175252632Y-76156584D02*
X175324060Y-75870870D01*
X175324060Y-75870870D02*
X175324060Y-75370870D01*
X175324060Y-75370870D02*
X175252632Y-75085156D01*
X175252632Y-75085156D02*
X175109775Y-74942299D01*
X175109775Y-74942299D02*
X174966917Y-74870870D01*
X173752631Y-75942299D02*
X173038346Y-75942299D01*
X173895488Y-76370870D02*
X173395488Y-74870870D01*
X173395488Y-74870870D02*
X172895488Y-76370870D01*
X171538346Y-76370870D02*
X172038346Y-75656584D01*
X172395489Y-76370870D02*
X172395489Y-74870870D01*
X172395489Y-74870870D02*
X171824060Y-74870870D01*
X171824060Y-74870870D02*
X171681203Y-74942299D01*
X171681203Y-74942299D02*
X171609774Y-75013727D01*
X171609774Y-75013727D02*
X171538346Y-75156584D01*
X171538346Y-75156584D02*
X171538346Y-75370870D01*
X171538346Y-75370870D02*
X171609774Y-75513727D01*
X171609774Y-75513727D02*
X171681203Y-75585156D01*
X171681203Y-75585156D02*
X171824060Y-75656584D01*
X171824060Y-75656584D02*
X172395489Y-75656584D01*
X170895489Y-76370870D02*
X170895489Y-74870870D01*
X170895489Y-74870870D02*
X170538346Y-74870870D01*
X170538346Y-74870870D02*
X170324060Y-74942299D01*
X170324060Y-74942299D02*
X170181203Y-75085156D01*
X170181203Y-75085156D02*
X170109774Y-75228013D01*
X170109774Y-75228013D02*
X170038346Y-75513727D01*
X170038346Y-75513727D02*
X170038346Y-75728013D01*
X170038346Y-75728013D02*
X170109774Y-76013727D01*
X170109774Y-76013727D02*
X170181203Y-76156584D01*
X170181203Y-76156584D02*
X170324060Y-76299442D01*
X170324060Y-76299442D02*
X170538346Y-76370870D01*
X170538346Y-76370870D02*
X170895489Y-76370870D01*
X168466917Y-74870870D02*
X167966917Y-76370870D01*
X167966917Y-76370870D02*
X167466917Y-74870870D01*
X167038346Y-75013727D02*
X166966918Y-74942299D01*
X166966918Y-74942299D02*
X166824061Y-74870870D01*
X166824061Y-74870870D02*
X166466918Y-74870870D01*
X166466918Y-74870870D02*
X166324061Y-74942299D01*
X166324061Y-74942299D02*
X166252632Y-75013727D01*
X166252632Y-75013727D02*
X166181203Y-75156584D01*
X166181203Y-75156584D02*
X166181203Y-75299442D01*
X166181203Y-75299442D02*
X166252632Y-75513727D01*
X166252632Y-75513727D02*
X167109775Y-76370870D01*
X167109775Y-76370870D02*
X166181203Y-76370870D01*
X163538347Y-76370870D02*
X164038347Y-75656584D01*
X164395490Y-76370870D02*
X164395490Y-74870870D01*
X164395490Y-74870870D02*
X163824061Y-74870870D01*
X163824061Y-74870870D02*
X163681204Y-74942299D01*
X163681204Y-74942299D02*
X163609775Y-75013727D01*
X163609775Y-75013727D02*
X163538347Y-75156584D01*
X163538347Y-75156584D02*
X163538347Y-75370870D01*
X163538347Y-75370870D02*
X163609775Y-75513727D01*
X163609775Y-75513727D02*
X163681204Y-75585156D01*
X163681204Y-75585156D02*
X163824061Y-75656584D01*
X163824061Y-75656584D02*
X164395490Y-75656584D01*
X162895490Y-75585156D02*
X162395490Y-75585156D01*
X162181204Y-76370870D02*
X162895490Y-76370870D01*
X162895490Y-76370870D02*
X162895490Y-74870870D01*
X162895490Y-74870870D02*
X162181204Y-74870870D01*
X161752632Y-74870870D02*
X161252632Y-76370870D01*
X161252632Y-76370870D02*
X160752632Y-74870870D01*
X159466918Y-76370870D02*
X160324061Y-76370870D01*
X159895490Y-76370870D02*
X159895490Y-74870870D01*
X159895490Y-74870870D02*
X160038347Y-75085156D01*
X160038347Y-75085156D02*
X160181204Y-75228013D01*
X160181204Y-75228013D02*
X160324061Y-75299442D01*
X187395489Y-78000072D02*
X187181203Y-78071500D01*
X187181203Y-78071500D02*
X187109774Y-78142929D01*
X187109774Y-78142929D02*
X187038346Y-78285786D01*
X187038346Y-78285786D02*
X187038346Y-78500072D01*
X187038346Y-78500072D02*
X187109774Y-78642929D01*
X187109774Y-78642929D02*
X187181203Y-78714358D01*
X187181203Y-78714358D02*
X187324060Y-78785786D01*
X187324060Y-78785786D02*
X187895489Y-78785786D01*
X187895489Y-78785786D02*
X187895489Y-77285786D01*
X187895489Y-77285786D02*
X187395489Y-77285786D01*
X187395489Y-77285786D02*
X187252632Y-77357215D01*
X187252632Y-77357215D02*
X187181203Y-77428643D01*
X187181203Y-77428643D02*
X187109774Y-77571500D01*
X187109774Y-77571500D02*
X187109774Y-77714358D01*
X187109774Y-77714358D02*
X187181203Y-77857215D01*
X187181203Y-77857215D02*
X187252632Y-77928643D01*
X187252632Y-77928643D02*
X187395489Y-78000072D01*
X187395489Y-78000072D02*
X187895489Y-78000072D01*
X186395489Y-78785786D02*
X186395489Y-77285786D01*
X185538346Y-78785786D02*
X186181203Y-77928643D01*
X185538346Y-77285786D02*
X186395489Y-78142929D01*
X183966917Y-77285786D02*
X183109775Y-77285786D01*
X183538346Y-78785786D02*
X183538346Y-77285786D01*
X182609775Y-78000072D02*
X182109775Y-78000072D01*
X181895489Y-78785786D02*
X182609775Y-78785786D01*
X182609775Y-78785786D02*
X182609775Y-77285786D01*
X182609775Y-77285786D02*
X181895489Y-77285786D01*
X180538346Y-78785786D02*
X181252632Y-78785786D01*
X181252632Y-78785786D02*
X181252632Y-77285786D01*
X180038346Y-78000072D02*
X179538346Y-78000072D01*
X179324060Y-78785786D02*
X180038346Y-78785786D01*
X180038346Y-78785786D02*
X180038346Y-77285786D01*
X180038346Y-77285786D02*
X179324060Y-77285786D01*
X178681203Y-78785786D02*
X178681203Y-77285786D01*
X178681203Y-77285786D02*
X178181203Y-78357215D01*
X178181203Y-78357215D02*
X177681203Y-77285786D01*
X177681203Y-77285786D02*
X177681203Y-78785786D01*
X177038345Y-78357215D02*
X176324060Y-78357215D01*
X177181202Y-78785786D02*
X176681202Y-77285786D01*
X176681202Y-77285786D02*
X176181202Y-78785786D01*
X175895488Y-77285786D02*
X175038346Y-77285786D01*
X175466917Y-78785786D02*
X175466917Y-77285786D01*
X174538346Y-78785786D02*
X174538346Y-77285786D01*
X172966917Y-78642929D02*
X173038345Y-78714358D01*
X173038345Y-78714358D02*
X173252631Y-78785786D01*
X173252631Y-78785786D02*
X173395488Y-78785786D01*
X173395488Y-78785786D02*
X173609774Y-78714358D01*
X173609774Y-78714358D02*
X173752631Y-78571500D01*
X173752631Y-78571500D02*
X173824060Y-78428643D01*
X173824060Y-78428643D02*
X173895488Y-78142929D01*
X173895488Y-78142929D02*
X173895488Y-77928643D01*
X173895488Y-77928643D02*
X173824060Y-77642929D01*
X173824060Y-77642929D02*
X173752631Y-77500072D01*
X173752631Y-77500072D02*
X173609774Y-77357215D01*
X173609774Y-77357215D02*
X173395488Y-77285786D01*
X173395488Y-77285786D02*
X173252631Y-77285786D01*
X173252631Y-77285786D02*
X173038345Y-77357215D01*
X173038345Y-77357215D02*
X172966917Y-77428643D01*
X172395488Y-78714358D02*
X172181203Y-78785786D01*
X172181203Y-78785786D02*
X171824060Y-78785786D01*
X171824060Y-78785786D02*
X171681203Y-78714358D01*
X171681203Y-78714358D02*
X171609774Y-78642929D01*
X171609774Y-78642929D02*
X171538345Y-78500072D01*
X171538345Y-78500072D02*
X171538345Y-78357215D01*
X171538345Y-78357215D02*
X171609774Y-78214358D01*
X171609774Y-78214358D02*
X171681203Y-78142929D01*
X171681203Y-78142929D02*
X171824060Y-78071500D01*
X171824060Y-78071500D02*
X172109774Y-78000072D01*
X172109774Y-78000072D02*
X172252631Y-77928643D01*
X172252631Y-77928643D02*
X172324060Y-77857215D01*
X172324060Y-77857215D02*
X172395488Y-77714358D01*
X172395488Y-77714358D02*
X172395488Y-77571500D01*
X172395488Y-77571500D02*
X172324060Y-77428643D01*
X172324060Y-77428643D02*
X172252631Y-77357215D01*
X172252631Y-77357215D02*
X172109774Y-77285786D01*
X172109774Y-77285786D02*
X171752631Y-77285786D01*
X171752631Y-77285786D02*
X171538345Y-77357215D01*
D10*
X159807142Y-131573342D02*
X159864285Y-131544771D01*
X159864285Y-131544771D02*
X159949999Y-131544771D01*
X159949999Y-131544771D02*
X160035713Y-131573342D01*
X160035713Y-131573342D02*
X160092856Y-131630485D01*
X160092856Y-131630485D02*
X160121427Y-131687628D01*
X160121427Y-131687628D02*
X160149999Y-131801914D01*
X160149999Y-131801914D02*
X160149999Y-131887628D01*
X160149999Y-131887628D02*
X160121427Y-132001914D01*
X160121427Y-132001914D02*
X160092856Y-132059057D01*
X160092856Y-132059057D02*
X160035713Y-132116200D01*
X160035713Y-132116200D02*
X159949999Y-132144771D01*
X159949999Y-132144771D02*
X159892856Y-132144771D01*
X159892856Y-132144771D02*
X159807142Y-132116200D01*
X159807142Y-132116200D02*
X159778570Y-132087628D01*
X159778570Y-132087628D02*
X159778570Y-131887628D01*
X159778570Y-131887628D02*
X159892856Y-131887628D01*
X159521427Y-132144771D02*
X159521427Y-131544771D01*
X159521427Y-131544771D02*
X159178570Y-132144771D01*
X159178570Y-132144771D02*
X159178570Y-131544771D01*
X158892856Y-132144771D02*
X158892856Y-131544771D01*
X158892856Y-131544771D02*
X158749999Y-131544771D01*
X158749999Y-131544771D02*
X158664285Y-131573342D01*
X158664285Y-131573342D02*
X158607142Y-131630485D01*
X158607142Y-131630485D02*
X158578571Y-131687628D01*
X158578571Y-131687628D02*
X158549999Y-131801914D01*
X158549999Y-131801914D02*
X158549999Y-131887628D01*
X158549999Y-131887628D02*
X158578571Y-132001914D01*
X158578571Y-132001914D02*
X158607142Y-132059057D01*
X158607142Y-132059057D02*
X158664285Y-132116200D01*
X158664285Y-132116200D02*
X158749999Y-132144771D01*
X158749999Y-132144771D02*
X158892856Y-132144771D01*
X155974999Y-120762628D02*
X156003571Y-120791200D01*
X156003571Y-120791200D02*
X156089285Y-120819771D01*
X156089285Y-120819771D02*
X156146428Y-120819771D01*
X156146428Y-120819771D02*
X156232142Y-120791200D01*
X156232142Y-120791200D02*
X156289285Y-120734057D01*
X156289285Y-120734057D02*
X156317856Y-120676914D01*
X156317856Y-120676914D02*
X156346428Y-120562628D01*
X156346428Y-120562628D02*
X156346428Y-120476914D01*
X156346428Y-120476914D02*
X156317856Y-120362628D01*
X156317856Y-120362628D02*
X156289285Y-120305485D01*
X156289285Y-120305485D02*
X156232142Y-120248342D01*
X156232142Y-120248342D02*
X156146428Y-120219771D01*
X156146428Y-120219771D02*
X156089285Y-120219771D01*
X156089285Y-120219771D02*
X156003571Y-120248342D01*
X156003571Y-120248342D02*
X155974999Y-120276914D01*
X155746428Y-120648342D02*
X155460714Y-120648342D01*
X155803571Y-120819771D02*
X155603571Y-120219771D01*
X155603571Y-120219771D02*
X155403571Y-120819771D01*
X155203570Y-120819771D02*
X155203570Y-120219771D01*
X155203570Y-120219771D02*
X154860713Y-120819771D01*
X154860713Y-120819771D02*
X154860713Y-120219771D01*
X154574999Y-120819771D02*
X154574999Y-120219771D01*
X154574999Y-120505485D02*
X154232142Y-120505485D01*
X154232142Y-120819771D02*
X154232142Y-120219771D01*
X155903570Y-132087628D02*
X155932142Y-132116200D01*
X155932142Y-132116200D02*
X156017856Y-132144771D01*
X156017856Y-132144771D02*
X156074999Y-132144771D01*
X156074999Y-132144771D02*
X156160713Y-132116200D01*
X156160713Y-132116200D02*
X156217856Y-132059057D01*
X156217856Y-132059057D02*
X156246427Y-132001914D01*
X156246427Y-132001914D02*
X156274999Y-131887628D01*
X156274999Y-131887628D02*
X156274999Y-131801914D01*
X156274999Y-131801914D02*
X156246427Y-131687628D01*
X156246427Y-131687628D02*
X156217856Y-131630485D01*
X156217856Y-131630485D02*
X156160713Y-131573342D01*
X156160713Y-131573342D02*
X156074999Y-131544771D01*
X156074999Y-131544771D02*
X156017856Y-131544771D01*
X156017856Y-131544771D02*
X155932142Y-131573342D01*
X155932142Y-131573342D02*
X155903570Y-131601914D01*
X155674999Y-131973342D02*
X155389285Y-131973342D01*
X155732142Y-132144771D02*
X155532142Y-131544771D01*
X155532142Y-131544771D02*
X155332142Y-132144771D01*
X155132141Y-132144771D02*
X155132141Y-131544771D01*
X155132141Y-131544771D02*
X154789284Y-132144771D01*
X154789284Y-132144771D02*
X154789284Y-131544771D01*
X154217856Y-132144771D02*
X154503570Y-132144771D01*
X154503570Y-132144771D02*
X154503570Y-131544771D01*
X164132142Y-131573342D02*
X164189285Y-131544771D01*
X164189285Y-131544771D02*
X164274999Y-131544771D01*
X164274999Y-131544771D02*
X164360713Y-131573342D01*
X164360713Y-131573342D02*
X164417856Y-131630485D01*
X164417856Y-131630485D02*
X164446427Y-131687628D01*
X164446427Y-131687628D02*
X164474999Y-131801914D01*
X164474999Y-131801914D02*
X164474999Y-131887628D01*
X164474999Y-131887628D02*
X164446427Y-132001914D01*
X164446427Y-132001914D02*
X164417856Y-132059057D01*
X164417856Y-132059057D02*
X164360713Y-132116200D01*
X164360713Y-132116200D02*
X164274999Y-132144771D01*
X164274999Y-132144771D02*
X164217856Y-132144771D01*
X164217856Y-132144771D02*
X164132142Y-132116200D01*
X164132142Y-132116200D02*
X164103570Y-132087628D01*
X164103570Y-132087628D02*
X164103570Y-131887628D01*
X164103570Y-131887628D02*
X164217856Y-131887628D01*
X163846427Y-132144771D02*
X163846427Y-131544771D01*
X163846427Y-131544771D02*
X163503570Y-132144771D01*
X163503570Y-132144771D02*
X163503570Y-131544771D01*
X163217856Y-132144771D02*
X163217856Y-131544771D01*
X163217856Y-131544771D02*
X163074999Y-131544771D01*
X163074999Y-131544771D02*
X162989285Y-131573342D01*
X162989285Y-131573342D02*
X162932142Y-131630485D01*
X162932142Y-131630485D02*
X162903571Y-131687628D01*
X162903571Y-131687628D02*
X162874999Y-131801914D01*
X162874999Y-131801914D02*
X162874999Y-131887628D01*
X162874999Y-131887628D02*
X162903571Y-132001914D01*
X162903571Y-132001914D02*
X162932142Y-132059057D01*
X162932142Y-132059057D02*
X162989285Y-132116200D01*
X162989285Y-132116200D02*
X163074999Y-132144771D01*
X163074999Y-132144771D02*
X163217856Y-132144771D01*
X160057142Y-120219771D02*
X159857142Y-120819771D01*
X159857142Y-120819771D02*
X159657142Y-120219771D01*
X159457141Y-120819771D02*
X159457141Y-120219771D01*
X159171427Y-120819771D02*
X159171427Y-120219771D01*
X159171427Y-120219771D02*
X158828570Y-120819771D01*
X158828570Y-120819771D02*
X158828570Y-120219771D01*
X164007143Y-120219771D02*
X163664286Y-120219771D01*
X163835714Y-120819771D02*
X163835714Y-120219771D01*
X163521428Y-120219771D02*
X163121428Y-120819771D01*
X163121428Y-120219771D02*
X163521428Y-120819771D01*
X172446427Y-132144771D02*
X172446427Y-131544771D01*
X172446427Y-131544771D02*
X172103570Y-132144771D01*
X172103570Y-132144771D02*
X172103570Y-131544771D01*
X171474999Y-132087628D02*
X171503571Y-132116200D01*
X171503571Y-132116200D02*
X171589285Y-132144771D01*
X171589285Y-132144771D02*
X171646428Y-132144771D01*
X171646428Y-132144771D02*
X171732142Y-132116200D01*
X171732142Y-132116200D02*
X171789285Y-132059057D01*
X171789285Y-132059057D02*
X171817856Y-132001914D01*
X171817856Y-132001914D02*
X171846428Y-131887628D01*
X171846428Y-131887628D02*
X171846428Y-131801914D01*
X171846428Y-131801914D02*
X171817856Y-131687628D01*
X171817856Y-131687628D02*
X171789285Y-131630485D01*
X171789285Y-131630485D02*
X171732142Y-131573342D01*
X171732142Y-131573342D02*
X171646428Y-131544771D01*
X171646428Y-131544771D02*
X171589285Y-131544771D01*
X171589285Y-131544771D02*
X171503571Y-131573342D01*
X171503571Y-131573342D02*
X171474999Y-131601914D01*
X168151427Y-132144771D02*
X168151427Y-131544771D01*
X168151427Y-131544771D02*
X167808570Y-132144771D01*
X167808570Y-132144771D02*
X167808570Y-131544771D01*
X167179999Y-132087628D02*
X167208571Y-132116200D01*
X167208571Y-132116200D02*
X167294285Y-132144771D01*
X167294285Y-132144771D02*
X167351428Y-132144771D01*
X167351428Y-132144771D02*
X167437142Y-132116200D01*
X167437142Y-132116200D02*
X167494285Y-132059057D01*
X167494285Y-132059057D02*
X167522856Y-132001914D01*
X167522856Y-132001914D02*
X167551428Y-131887628D01*
X167551428Y-131887628D02*
X167551428Y-131801914D01*
X167551428Y-131801914D02*
X167522856Y-131687628D01*
X167522856Y-131687628D02*
X167494285Y-131630485D01*
X167494285Y-131630485D02*
X167437142Y-131573342D01*
X167437142Y-131573342D02*
X167351428Y-131544771D01*
X167351428Y-131544771D02*
X167294285Y-131544771D01*
X167294285Y-131544771D02*
X167208571Y-131573342D01*
X167208571Y-131573342D02*
X167179999Y-131601914D01*
X167909999Y-120819771D02*
X168109999Y-120534057D01*
X168252856Y-120819771D02*
X168252856Y-120219771D01*
X168252856Y-120219771D02*
X168024285Y-120219771D01*
X168024285Y-120219771D02*
X167967142Y-120248342D01*
X167967142Y-120248342D02*
X167938571Y-120276914D01*
X167938571Y-120276914D02*
X167909999Y-120334057D01*
X167909999Y-120334057D02*
X167909999Y-120419771D01*
X167909999Y-120419771D02*
X167938571Y-120476914D01*
X167938571Y-120476914D02*
X167967142Y-120505485D01*
X167967142Y-120505485D02*
X168024285Y-120534057D01*
X168024285Y-120534057D02*
X168252856Y-120534057D01*
X167709999Y-120219771D02*
X167309999Y-120819771D01*
X167309999Y-120219771D02*
X167709999Y-120819771D01*
X152549819Y-84161666D02*
X153264104Y-84161666D01*
X153264104Y-84161666D02*
X153406961Y-84114047D01*
X153406961Y-84114047D02*
X153502200Y-84018809D01*
X153502200Y-84018809D02*
X153549819Y-83875952D01*
X153549819Y-83875952D02*
X153549819Y-83780714D01*
X152883152Y-85066428D02*
X153549819Y-85066428D01*
X152502200Y-84828333D02*
X153216485Y-84590238D01*
X153216485Y-84590238D02*
X153216485Y-85209285D01*
D12*
G04 #@! TO.C,J4*
X154095000Y-81895000D02*
X154095000Y-83225000D01*
X154095000Y-84495000D02*
X154095000Y-87095000D01*
X154095000Y-87095000D02*
X161835000Y-87095000D01*
X155425000Y-81895000D02*
X154095000Y-81895000D01*
X156695000Y-81895000D02*
X156695000Y-84495000D01*
X156695000Y-81895000D02*
X161835000Y-81895000D01*
X156695000Y-84495000D02*
X154095000Y-84495000D01*
X161835000Y-81895000D02*
X161835000Y-87095000D01*
D13*
G04 #@! TO.C,G\u002A\u002A\u002A*
G36*
X140623283Y-115491841D02*
G01*
X140963832Y-115832087D01*
X140963832Y-118095646D01*
X140963853Y-118249405D01*
X140963987Y-118515779D01*
X140964241Y-118771792D01*
X140964606Y-119015538D01*
X140965074Y-119245114D01*
X140965640Y-119458612D01*
X140966294Y-119654129D01*
X140967030Y-119829758D01*
X140967840Y-119983595D01*
X140968716Y-120113734D01*
X140969652Y-120218270D01*
X140970639Y-120295297D01*
X140971670Y-120342911D01*
X140972737Y-120359205D01*
X140973165Y-120359077D01*
X140990649Y-120346982D01*
X141030286Y-120317056D01*
X141088676Y-120271942D01*
X141162418Y-120214283D01*
X141248112Y-120146723D01*
X141342358Y-120071904D01*
X141426216Y-120005124D01*
X141532767Y-119920299D01*
X141636009Y-119838134D01*
X141730274Y-119763142D01*
X141809893Y-119699832D01*
X141869195Y-119652714D01*
X141874641Y-119648390D01*
X141939430Y-119596901D01*
X141995894Y-119551945D01*
X142038129Y-119518227D01*
X142060235Y-119500451D01*
X142067932Y-119494201D01*
X142103714Y-119465452D01*
X142162870Y-119418170D01*
X142245845Y-119352003D01*
X142353079Y-119266599D01*
X142485015Y-119161605D01*
X142642097Y-119036668D01*
X142824765Y-118891436D01*
X143260586Y-118544989D01*
X143300378Y-118592417D01*
X143318211Y-118613762D01*
X143404633Y-118719873D01*
X143482207Y-118819479D01*
X143548778Y-118909483D01*
X143602189Y-118986790D01*
X143640283Y-119048302D01*
X143660904Y-119090923D01*
X143661895Y-119111556D01*
X143660604Y-119112667D01*
X143639395Y-119129900D01*
X143596247Y-119164485D01*
X143534592Y-119213683D01*
X143457864Y-119274758D01*
X143369497Y-119344974D01*
X143272923Y-119421593D01*
X143202394Y-119477522D01*
X143075716Y-119578027D01*
X142942292Y-119683938D01*
X142810320Y-119788744D01*
X142687996Y-119885936D01*
X142583519Y-119969008D01*
X142566495Y-119982550D01*
X142477042Y-120053710D01*
X142367655Y-120140727D01*
X142243279Y-120239669D01*
X142108858Y-120346600D01*
X141969336Y-120457589D01*
X141829658Y-120568703D01*
X141694768Y-120676007D01*
X141619700Y-120735715D01*
X141500368Y-120830599D01*
X141388620Y-120919415D01*
X141287525Y-120999726D01*
X141200151Y-121069094D01*
X141129568Y-121125084D01*
X141078843Y-121165259D01*
X141051046Y-121187181D01*
X141023464Y-121209815D01*
X140992494Y-121238806D01*
X140980445Y-121255525D01*
X140982399Y-121258971D01*
X141003683Y-121280360D01*
X141044691Y-121316622D01*
X141100786Y-121363735D01*
X141167331Y-121417677D01*
X141189139Y-121435070D01*
X141307105Y-121529111D01*
X141443302Y-121637622D01*
X141594327Y-121757898D01*
X141756781Y-121887232D01*
X141927261Y-122022921D01*
X142102367Y-122162257D01*
X142278698Y-122302536D01*
X142452851Y-122441051D01*
X142621426Y-122575098D01*
X142781021Y-122701970D01*
X142928236Y-122818962D01*
X143059669Y-122923368D01*
X143171918Y-123012483D01*
X143261583Y-123083600D01*
X143312538Y-123124081D01*
X143408864Y-123201149D01*
X143494730Y-123270562D01*
X143567005Y-123329746D01*
X143622557Y-123376125D01*
X143658251Y-123407124D01*
X143670957Y-123420167D01*
X143664949Y-123436008D01*
X143641283Y-123475459D01*
X143602767Y-123532463D01*
X143552720Y-123602400D01*
X143494464Y-123680649D01*
X143431318Y-123762592D01*
X143366605Y-123843607D01*
X143342436Y-123872981D01*
X143302808Y-123919775D01*
X143273947Y-123952028D01*
X143260855Y-123964045D01*
X143251882Y-123958017D01*
X143219557Y-123933629D01*
X143166673Y-123892728D01*
X143096273Y-123837693D01*
X143011400Y-123770907D01*
X142915097Y-123694751D01*
X142810408Y-123611605D01*
X142699245Y-123523137D01*
X142449360Y-123324273D01*
X142223988Y-123144926D01*
X142022082Y-122984262D01*
X141842596Y-122841450D01*
X141684484Y-122715658D01*
X141546699Y-122606053D01*
X141428196Y-122511804D01*
X141327929Y-122432078D01*
X141244851Y-122366044D01*
X141177915Y-122312869D01*
X141126077Y-122271721D01*
X141088289Y-122241769D01*
X141063505Y-122222179D01*
X140972139Y-122150155D01*
X140963549Y-123964045D01*
X140282734Y-123964045D01*
X140282734Y-115151596D01*
X140623283Y-115491841D01*
G37*
G36*
X136629075Y-118077557D02*
G01*
X136682303Y-118129917D01*
X136566299Y-118268596D01*
X136420632Y-118451211D01*
X136199663Y-118768094D01*
X136008391Y-119098230D01*
X135846252Y-119442877D01*
X135712680Y-119803290D01*
X135607110Y-120180728D01*
X135528977Y-120576446D01*
X135526526Y-120591945D01*
X135514873Y-120671037D01*
X135506013Y-120744651D01*
X135499585Y-120819234D01*
X135495230Y-120901237D01*
X135492587Y-120997110D01*
X135491296Y-121113302D01*
X135490997Y-121256262D01*
X135491677Y-121395242D01*
X135494893Y-121555853D01*
X135501522Y-121696511D01*
X135512413Y-121824748D01*
X135528410Y-121948096D01*
X135550362Y-122074088D01*
X135579114Y-122210256D01*
X135615513Y-122364130D01*
X135704266Y-122681876D01*
X135832060Y-123036405D01*
X135986878Y-123374331D01*
X136170293Y-123699030D01*
X136383878Y-124013882D01*
X136520460Y-124190601D01*
X136780070Y-124485155D01*
X137060291Y-124754021D01*
X137360166Y-124996633D01*
X137678739Y-125212425D01*
X138015052Y-125400830D01*
X138368149Y-125561282D01*
X138737073Y-125693215D01*
X139120867Y-125796062D01*
X139518574Y-125869257D01*
X139555198Y-125874064D01*
X139682890Y-125885938D01*
X139832768Y-125894225D01*
X139996942Y-125898929D01*
X140167525Y-125900053D01*
X140336629Y-125897598D01*
X140496365Y-125891569D01*
X140638845Y-125881968D01*
X140756180Y-125868798D01*
X141060264Y-125815136D01*
X141447969Y-125718461D01*
X141820368Y-125592470D01*
X142177067Y-125437356D01*
X142517677Y-125253317D01*
X142841804Y-125040548D01*
X143149057Y-124799243D01*
X143439045Y-124529600D01*
X143696802Y-124247727D01*
X143935152Y-123939648D01*
X144145240Y-123615052D01*
X144326482Y-123275300D01*
X144478296Y-122921754D01*
X144600099Y-122555776D01*
X144691309Y-122178726D01*
X144751342Y-121791968D01*
X144779616Y-121396862D01*
X144779726Y-121069129D01*
X144756268Y-120730588D01*
X144707180Y-120399853D01*
X144631270Y-120069043D01*
X144527344Y-119730278D01*
X144482760Y-119606755D01*
X144365600Y-119326599D01*
X144228777Y-119050343D01*
X144076348Y-118785272D01*
X143912371Y-118538674D01*
X143740902Y-118317836D01*
X143665242Y-118228396D01*
X143719581Y-118179844D01*
X143721070Y-118178512D01*
X143745139Y-118157638D01*
X143764873Y-118146312D01*
X143784399Y-118147309D01*
X143807846Y-118163405D01*
X143839342Y-118197374D01*
X143883015Y-118251991D01*
X143942993Y-118330032D01*
X144016876Y-118428868D01*
X144235179Y-118754989D01*
X144423989Y-119094146D01*
X144583876Y-119447702D01*
X144715412Y-119817019D01*
X144819164Y-120203460D01*
X144895704Y-120608388D01*
X144897659Y-120621785D01*
X144909346Y-120730828D01*
X144918042Y-120864739D01*
X144923747Y-121016345D01*
X144926465Y-121178472D01*
X144926197Y-121343946D01*
X144922946Y-121505593D01*
X144916714Y-121656238D01*
X144907503Y-121788709D01*
X144895315Y-121895831D01*
X144826368Y-122270569D01*
X144723183Y-122664546D01*
X144591058Y-123042594D01*
X144430242Y-123404261D01*
X144240988Y-123749094D01*
X144023545Y-124076638D01*
X143778165Y-124386442D01*
X143505098Y-124678052D01*
X143204596Y-124951015D01*
X143060841Y-125066501D01*
X142749881Y-125285695D01*
X142419430Y-125480543D01*
X142073018Y-125649572D01*
X141714175Y-125791310D01*
X141346431Y-125904285D01*
X140973318Y-125987023D01*
X140598365Y-126038053D01*
X140538518Y-126042794D01*
X140408221Y-126049473D01*
X140261605Y-126053347D01*
X140108554Y-126054390D01*
X139958950Y-126052577D01*
X139822676Y-126047885D01*
X139709614Y-126040287D01*
X139424580Y-126005696D01*
X139034535Y-125930755D01*
X138655691Y-125825738D01*
X138289509Y-125691652D01*
X137937451Y-125529507D01*
X137600977Y-125340313D01*
X137281548Y-125125077D01*
X136980624Y-124884808D01*
X136699667Y-124620516D01*
X136440136Y-124333210D01*
X136203494Y-124023898D01*
X135991200Y-123693589D01*
X135804715Y-123343292D01*
X135726259Y-123172063D01*
X135583745Y-122804853D01*
X135473428Y-122431006D01*
X135395004Y-122049183D01*
X135348172Y-121658048D01*
X135332628Y-121256262D01*
X135345930Y-120889756D01*
X135391216Y-120493536D01*
X135468323Y-120106215D01*
X135576946Y-119728688D01*
X135716785Y-119361848D01*
X135887536Y-119006593D01*
X136088896Y-118663816D01*
X136320563Y-118334412D01*
X136365346Y-118276597D01*
X136421367Y-118205945D01*
X136471738Y-118144103D01*
X136509311Y-118099951D01*
X136575848Y-118025196D01*
X136629075Y-118077557D01*
G37*
G36*
X140100000Y-123964045D02*
G01*
X139402289Y-123964045D01*
X139402289Y-123058682D01*
X139402240Y-122959418D01*
X139401934Y-122795092D01*
X139401371Y-122642901D01*
X139400578Y-122505859D01*
X139399583Y-122386979D01*
X139398413Y-122289272D01*
X139397094Y-122215751D01*
X139395654Y-122169429D01*
X139394121Y-122153319D01*
X139385966Y-122158809D01*
X139354253Y-122182770D01*
X139301189Y-122223842D01*
X139229430Y-122279943D01*
X139141630Y-122348986D01*
X139040446Y-122428889D01*
X138928531Y-122517568D01*
X138808542Y-122612937D01*
X138769238Y-122644222D01*
X138633817Y-122752007D01*
X138496254Y-122861486D01*
X138361237Y-122968929D01*
X138233455Y-123070603D01*
X138117599Y-123162778D01*
X138018357Y-123241722D01*
X137940419Y-123303703D01*
X137904107Y-123332591D01*
X137819768Y-123399808D01*
X137744078Y-123460299D01*
X137681379Y-123510581D01*
X137636017Y-123547175D01*
X137612337Y-123566598D01*
X137599596Y-123577367D01*
X137525829Y-123638005D01*
X137446347Y-123700950D01*
X137365657Y-123762889D01*
X137288268Y-123820510D01*
X137218689Y-123870502D01*
X137161428Y-123909552D01*
X137120995Y-123934347D01*
X137101897Y-123941576D01*
X137081683Y-123925865D01*
X137044792Y-123886421D01*
X136996048Y-123828253D01*
X136939000Y-123755974D01*
X136877200Y-123674197D01*
X136814199Y-123587534D01*
X136753549Y-123500597D01*
X136698801Y-123418000D01*
X136594853Y-123246527D01*
X136432087Y-122929509D01*
X136299372Y-122601605D01*
X136196741Y-122264995D01*
X136124229Y-121921860D01*
X136081870Y-121574381D01*
X136070508Y-121248002D01*
X136775577Y-121248002D01*
X136783080Y-121510703D01*
X136807068Y-121753532D01*
X136849310Y-121986274D01*
X136911578Y-122218717D01*
X136995641Y-122460644D01*
X137003432Y-122480486D01*
X137032164Y-122548626D01*
X137067661Y-122627767D01*
X137106590Y-122710997D01*
X137145618Y-122791402D01*
X137181411Y-122862072D01*
X137210636Y-122916092D01*
X137229958Y-122946550D01*
X137238979Y-122956128D01*
X137257201Y-122966656D01*
X137260033Y-122965375D01*
X137283787Y-122949030D01*
X137326729Y-122916849D01*
X137383905Y-122872592D01*
X137450360Y-122820022D01*
X137474198Y-122800990D01*
X137531880Y-122754977D01*
X137609683Y-122692944D01*
X137704313Y-122617513D01*
X137812477Y-122531308D01*
X137930883Y-122436953D01*
X138056237Y-122337071D01*
X138185247Y-122234286D01*
X138314619Y-122131221D01*
X138441061Y-122030499D01*
X138561279Y-121934744D01*
X138671981Y-121846579D01*
X138769873Y-121768629D01*
X138851662Y-121703515D01*
X138914056Y-121653863D01*
X138953761Y-121622295D01*
X138974144Y-121606100D01*
X139105519Y-121501259D01*
X139211344Y-121415895D01*
X139292361Y-121349392D01*
X139349312Y-121301135D01*
X139382939Y-121270509D01*
X139393983Y-121256896D01*
X139386552Y-121248586D01*
X139356863Y-121222313D01*
X139304211Y-121178093D01*
X139228277Y-121115669D01*
X139128743Y-121034787D01*
X139005290Y-120935189D01*
X138857603Y-120816622D01*
X138685362Y-120678829D01*
X138488249Y-120521554D01*
X138265947Y-120344542D01*
X138018139Y-120147538D01*
X137744505Y-119930285D01*
X137733561Y-119921606D01*
X137624007Y-119835386D01*
X137522613Y-119756732D01*
X137432333Y-119687855D01*
X137356122Y-119630963D01*
X137296936Y-119588265D01*
X137257730Y-119561970D01*
X137241460Y-119554286D01*
X137233587Y-119562123D01*
X137210238Y-119597964D01*
X137178460Y-119656393D01*
X137140796Y-119731931D01*
X137099792Y-119819102D01*
X137057992Y-119912428D01*
X137017941Y-120006432D01*
X136982185Y-120095636D01*
X136953268Y-120174564D01*
X136886608Y-120386220D01*
X136835461Y-120593294D01*
X136801159Y-120797746D01*
X136781824Y-121010874D01*
X136775580Y-121243978D01*
X136775577Y-121248002D01*
X136070508Y-121248002D01*
X136069698Y-121224739D01*
X136087748Y-120875114D01*
X136136054Y-120527688D01*
X136214650Y-120184640D01*
X136323571Y-119848152D01*
X136462850Y-119520404D01*
X136632522Y-119203577D01*
X136633436Y-119202044D01*
X136689386Y-119111716D01*
X136751862Y-119016793D01*
X136817797Y-118921340D01*
X136884124Y-118829421D01*
X136947776Y-118745101D01*
X137005686Y-118672443D01*
X137054789Y-118615513D01*
X137092016Y-118578374D01*
X137114301Y-118565092D01*
X137123872Y-118571326D01*
X137157790Y-118596633D01*
X137214275Y-118640008D01*
X137291425Y-118699956D01*
X137387337Y-118774981D01*
X137500108Y-118863587D01*
X137627837Y-118964280D01*
X137768619Y-119075562D01*
X137920552Y-119195940D01*
X138081734Y-119323916D01*
X138250261Y-119457995D01*
X138382243Y-119563057D01*
X138545274Y-119692702D01*
X138699481Y-119815184D01*
X138842962Y-119928997D01*
X138973808Y-120032635D01*
X139090116Y-120124592D01*
X139189979Y-120203361D01*
X139271492Y-120267437D01*
X139332749Y-120315312D01*
X139371844Y-120345481D01*
X139386873Y-120356437D01*
X139388168Y-120351235D01*
X139390270Y-120316650D01*
X139392229Y-120250610D01*
X139394037Y-120154228D01*
X139395688Y-120028620D01*
X139397173Y-119874900D01*
X139398484Y-119694182D01*
X139399615Y-119487581D01*
X139400557Y-119256211D01*
X139401304Y-119001188D01*
X139401846Y-118723625D01*
X139402177Y-118424638D01*
X139402289Y-118105340D01*
X139402289Y-115848706D01*
X139751145Y-115500147D01*
X140100000Y-115151588D01*
X140100000Y-121256896D01*
X140100000Y-123964045D01*
G37*
G36*
X183973283Y-115491841D02*
G01*
X184313832Y-115832087D01*
X184313832Y-118095646D01*
X184313853Y-118249405D01*
X184313987Y-118515779D01*
X184314241Y-118771792D01*
X184314606Y-119015538D01*
X184315074Y-119245114D01*
X184315640Y-119458612D01*
X184316294Y-119654129D01*
X184317030Y-119829758D01*
X184317840Y-119983595D01*
X184318716Y-120113734D01*
X184319652Y-120218270D01*
X184320639Y-120295297D01*
X184321670Y-120342911D01*
X184322737Y-120359205D01*
X184323165Y-120359077D01*
X184340649Y-120346982D01*
X184380286Y-120317056D01*
X184438676Y-120271942D01*
X184512418Y-120214283D01*
X184598112Y-120146723D01*
X184692358Y-120071904D01*
X184776216Y-120005124D01*
X184882767Y-119920299D01*
X184986009Y-119838134D01*
X185080274Y-119763142D01*
X185159893Y-119699832D01*
X185219195Y-119652714D01*
X185224641Y-119648390D01*
X185289430Y-119596901D01*
X185345894Y-119551945D01*
X185388129Y-119518227D01*
X185410235Y-119500451D01*
X185417932Y-119494201D01*
X185453714Y-119465452D01*
X185512870Y-119418170D01*
X185595845Y-119352003D01*
X185703079Y-119266599D01*
X185835015Y-119161605D01*
X185992097Y-119036668D01*
X186174765Y-118891436D01*
X186610586Y-118544989D01*
X186650378Y-118592417D01*
X186668211Y-118613762D01*
X186754633Y-118719873D01*
X186832207Y-118819479D01*
X186898778Y-118909483D01*
X186952189Y-118986790D01*
X186990283Y-119048302D01*
X187010904Y-119090923D01*
X187011895Y-119111556D01*
X187010604Y-119112667D01*
X186989395Y-119129900D01*
X186946247Y-119164485D01*
X186884592Y-119213683D01*
X186807864Y-119274758D01*
X186719497Y-119344974D01*
X186622923Y-119421593D01*
X186552394Y-119477522D01*
X186425716Y-119578027D01*
X186292292Y-119683938D01*
X186160320Y-119788744D01*
X186037996Y-119885936D01*
X185933519Y-119969008D01*
X185916495Y-119982550D01*
X185827042Y-120053710D01*
X185717655Y-120140727D01*
X185593279Y-120239669D01*
X185458858Y-120346600D01*
X185319336Y-120457589D01*
X185179658Y-120568703D01*
X185044768Y-120676007D01*
X184969700Y-120735715D01*
X184850368Y-120830599D01*
X184738620Y-120919415D01*
X184637525Y-120999726D01*
X184550151Y-121069094D01*
X184479568Y-121125084D01*
X184428843Y-121165259D01*
X184401046Y-121187181D01*
X184373464Y-121209815D01*
X184342494Y-121238806D01*
X184330445Y-121255525D01*
X184332399Y-121258971D01*
X184353683Y-121280360D01*
X184394691Y-121316622D01*
X184450786Y-121363735D01*
X184517331Y-121417677D01*
X184539139Y-121435070D01*
X184657105Y-121529111D01*
X184793302Y-121637622D01*
X184944327Y-121757898D01*
X185106781Y-121887232D01*
X185277261Y-122022921D01*
X185452367Y-122162257D01*
X185628698Y-122302536D01*
X185802851Y-122441051D01*
X185971426Y-122575098D01*
X186131021Y-122701970D01*
X186278236Y-122818962D01*
X186409669Y-122923368D01*
X186521918Y-123012483D01*
X186611583Y-123083600D01*
X186662538Y-123124081D01*
X186758864Y-123201149D01*
X186844730Y-123270562D01*
X186917005Y-123329746D01*
X186972557Y-123376125D01*
X187008251Y-123407124D01*
X187020957Y-123420167D01*
X187014949Y-123436008D01*
X186991283Y-123475459D01*
X186952767Y-123532463D01*
X186902720Y-123602400D01*
X186844464Y-123680649D01*
X186781318Y-123762592D01*
X186716605Y-123843607D01*
X186692436Y-123872981D01*
X186652808Y-123919775D01*
X186623947Y-123952028D01*
X186610855Y-123964045D01*
X186601882Y-123958017D01*
X186569557Y-123933629D01*
X186516673Y-123892728D01*
X186446273Y-123837693D01*
X186361400Y-123770907D01*
X186265097Y-123694751D01*
X186160408Y-123611605D01*
X186049245Y-123523137D01*
X185799360Y-123324273D01*
X185573988Y-123144926D01*
X185372082Y-122984262D01*
X185192596Y-122841450D01*
X185034484Y-122715658D01*
X184896699Y-122606053D01*
X184778196Y-122511804D01*
X184677929Y-122432078D01*
X184594851Y-122366044D01*
X184527915Y-122312869D01*
X184476077Y-122271721D01*
X184438289Y-122241769D01*
X184413505Y-122222179D01*
X184322139Y-122150155D01*
X184313549Y-123964045D01*
X183632734Y-123964045D01*
X183632734Y-115151596D01*
X183973283Y-115491841D01*
G37*
G36*
X179979075Y-118077557D02*
G01*
X180032303Y-118129917D01*
X179916299Y-118268596D01*
X179770632Y-118451211D01*
X179549663Y-118768094D01*
X179358391Y-119098230D01*
X179196252Y-119442877D01*
X179062680Y-119803290D01*
X178957110Y-120180728D01*
X178878977Y-120576446D01*
X178876526Y-120591945D01*
X178864873Y-120671037D01*
X178856013Y-120744651D01*
X178849585Y-120819234D01*
X178845230Y-120901237D01*
X178842587Y-120997110D01*
X178841296Y-121113302D01*
X178840997Y-121256262D01*
X178841677Y-121395242D01*
X178844893Y-121555853D01*
X178851522Y-121696511D01*
X178862413Y-121824748D01*
X178878410Y-121948096D01*
X178900362Y-122074088D01*
X178929114Y-122210256D01*
X178965513Y-122364130D01*
X179054266Y-122681876D01*
X179182060Y-123036405D01*
X179336878Y-123374331D01*
X179520293Y-123699030D01*
X179733878Y-124013882D01*
X179870460Y-124190601D01*
X180130070Y-124485155D01*
X180410291Y-124754021D01*
X180710166Y-124996633D01*
X181028739Y-125212425D01*
X181365052Y-125400830D01*
X181718149Y-125561282D01*
X182087073Y-125693215D01*
X182470867Y-125796062D01*
X182868574Y-125869257D01*
X182905198Y-125874064D01*
X183032890Y-125885938D01*
X183182768Y-125894225D01*
X183346942Y-125898929D01*
X183517525Y-125900053D01*
X183686629Y-125897598D01*
X183846365Y-125891569D01*
X183988845Y-125881968D01*
X184106180Y-125868798D01*
X184410264Y-125815136D01*
X184797969Y-125718461D01*
X185170368Y-125592470D01*
X185527067Y-125437356D01*
X185867677Y-125253317D01*
X186191804Y-125040548D01*
X186499057Y-124799243D01*
X186789045Y-124529600D01*
X187046802Y-124247727D01*
X187285152Y-123939648D01*
X187495240Y-123615052D01*
X187676482Y-123275300D01*
X187828296Y-122921754D01*
X187950099Y-122555776D01*
X188041309Y-122178726D01*
X188101342Y-121791968D01*
X188129616Y-121396862D01*
X188129726Y-121069129D01*
X188106268Y-120730588D01*
X188057180Y-120399853D01*
X187981270Y-120069043D01*
X187877344Y-119730278D01*
X187832760Y-119606755D01*
X187715600Y-119326599D01*
X187578777Y-119050343D01*
X187426348Y-118785272D01*
X187262371Y-118538674D01*
X187090902Y-118317836D01*
X187015242Y-118228396D01*
X187069581Y-118179844D01*
X187071070Y-118178512D01*
X187095139Y-118157638D01*
X187114873Y-118146312D01*
X187134399Y-118147309D01*
X187157846Y-118163405D01*
X187189342Y-118197374D01*
X187233015Y-118251991D01*
X187292993Y-118330032D01*
X187366876Y-118428868D01*
X187585179Y-118754989D01*
X187773989Y-119094146D01*
X187933876Y-119447702D01*
X188065412Y-119817019D01*
X188169164Y-120203460D01*
X188245704Y-120608388D01*
X188247659Y-120621785D01*
X188259346Y-120730828D01*
X188268042Y-120864739D01*
X188273747Y-121016345D01*
X188276465Y-121178472D01*
X188276197Y-121343946D01*
X188272946Y-121505593D01*
X188266714Y-121656238D01*
X188257503Y-121788709D01*
X188245315Y-121895831D01*
X188176368Y-122270569D01*
X188073183Y-122664546D01*
X187941058Y-123042594D01*
X187780242Y-123404261D01*
X187590988Y-123749094D01*
X187373545Y-124076638D01*
X187128165Y-124386442D01*
X186855098Y-124678052D01*
X186554596Y-124951015D01*
X186410841Y-125066501D01*
X186099881Y-125285695D01*
X185769430Y-125480543D01*
X185423018Y-125649572D01*
X185064175Y-125791310D01*
X184696431Y-125904285D01*
X184323318Y-125987023D01*
X183948365Y-126038053D01*
X183888518Y-126042794D01*
X183758221Y-126049473D01*
X183611605Y-126053347D01*
X183458554Y-126054390D01*
X183308950Y-126052577D01*
X183172676Y-126047885D01*
X183059614Y-126040287D01*
X182774580Y-126005696D01*
X182384535Y-125930755D01*
X182005691Y-125825738D01*
X181639509Y-125691652D01*
X181287451Y-125529507D01*
X180950977Y-125340313D01*
X180631548Y-125125077D01*
X180330624Y-124884808D01*
X180049667Y-124620516D01*
X179790136Y-124333210D01*
X179553494Y-124023898D01*
X179341200Y-123693589D01*
X179154715Y-123343292D01*
X179076259Y-123172063D01*
X178933745Y-122804853D01*
X178823428Y-122431006D01*
X178745004Y-122049183D01*
X178698172Y-121658048D01*
X178682628Y-121256262D01*
X178695930Y-120889756D01*
X178741216Y-120493536D01*
X178818323Y-120106215D01*
X178926946Y-119728688D01*
X179066785Y-119361848D01*
X179237536Y-119006593D01*
X179438896Y-118663816D01*
X179670563Y-118334412D01*
X179715346Y-118276597D01*
X179771367Y-118205945D01*
X179821738Y-118144103D01*
X179859311Y-118099951D01*
X179925848Y-118025196D01*
X179979075Y-118077557D01*
G37*
G36*
X183450000Y-123964045D02*
G01*
X182752289Y-123964045D01*
X182752289Y-123058682D01*
X182752240Y-122959418D01*
X182751934Y-122795092D01*
X182751371Y-122642901D01*
X182750578Y-122505859D01*
X182749583Y-122386979D01*
X182748413Y-122289272D01*
X182747094Y-122215751D01*
X182745654Y-122169429D01*
X182744121Y-122153319D01*
X182735966Y-122158809D01*
X182704253Y-122182770D01*
X182651189Y-122223842D01*
X182579430Y-122279943D01*
X182491630Y-122348986D01*
X182390446Y-122428889D01*
X182278531Y-122517568D01*
X182158542Y-122612937D01*
X182119238Y-122644222D01*
X181983817Y-122752007D01*
X181846254Y-122861486D01*
X181711237Y-122968929D01*
X181583455Y-123070603D01*
X181467599Y-123162778D01*
X181368357Y-123241722D01*
X181290419Y-123303703D01*
X181254107Y-123332591D01*
X181169768Y-123399808D01*
X181094078Y-123460299D01*
X181031379Y-123510581D01*
X180986017Y-123547175D01*
X180962337Y-123566598D01*
X180949596Y-123577367D01*
X180875829Y-123638005D01*
X180796347Y-123700950D01*
X180715657Y-123762889D01*
X180638268Y-123820510D01*
X180568689Y-123870502D01*
X180511428Y-123909552D01*
X180470995Y-123934347D01*
X180451897Y-123941576D01*
X180431683Y-123925865D01*
X180394792Y-123886421D01*
X180346048Y-123828253D01*
X180289000Y-123755974D01*
X180227200Y-123674197D01*
X180164199Y-123587534D01*
X180103549Y-123500597D01*
X180048801Y-123418000D01*
X179944853Y-123246527D01*
X179782087Y-122929509D01*
X179649372Y-122601605D01*
X179546741Y-122264995D01*
X179474229Y-121921860D01*
X179431870Y-121574381D01*
X179420508Y-121248002D01*
X180125577Y-121248002D01*
X180133080Y-121510703D01*
X180157068Y-121753532D01*
X180199310Y-121986274D01*
X180261578Y-122218717D01*
X180345641Y-122460644D01*
X180353432Y-122480486D01*
X180382164Y-122548626D01*
X180417661Y-122627767D01*
X180456590Y-122710997D01*
X180495618Y-122791402D01*
X180531411Y-122862072D01*
X180560636Y-122916092D01*
X180579958Y-122946550D01*
X180588979Y-122956128D01*
X180607201Y-122966656D01*
X180610033Y-122965375D01*
X180633787Y-122949030D01*
X180676729Y-122916849D01*
X180733905Y-122872592D01*
X180800360Y-122820022D01*
X180824198Y-122800990D01*
X180881880Y-122754977D01*
X180959683Y-122692944D01*
X181054313Y-122617513D01*
X181162477Y-122531308D01*
X181280883Y-122436953D01*
X181406237Y-122337071D01*
X181535247Y-122234286D01*
X181664619Y-122131221D01*
X181791061Y-122030499D01*
X181911279Y-121934744D01*
X182021981Y-121846579D01*
X182119873Y-121768629D01*
X182201662Y-121703515D01*
X182264056Y-121653863D01*
X182303761Y-121622295D01*
X182324144Y-121606100D01*
X182455519Y-121501259D01*
X182561344Y-121415895D01*
X182642361Y-121349392D01*
X182699312Y-121301135D01*
X182732939Y-121270509D01*
X182743983Y-121256896D01*
X182736552Y-121248586D01*
X182706863Y-121222313D01*
X182654211Y-121178093D01*
X182578277Y-121115669D01*
X182478743Y-121034787D01*
X182355290Y-120935189D01*
X182207603Y-120816622D01*
X182035362Y-120678829D01*
X181838249Y-120521554D01*
X181615947Y-120344542D01*
X181368139Y-120147538D01*
X181094505Y-119930285D01*
X181083561Y-119921606D01*
X180974007Y-119835386D01*
X180872613Y-119756732D01*
X180782333Y-119687855D01*
X180706122Y-119630963D01*
X180646936Y-119588265D01*
X180607730Y-119561970D01*
X180591460Y-119554286D01*
X180583587Y-119562123D01*
X180560238Y-119597964D01*
X180528460Y-119656393D01*
X180490796Y-119731931D01*
X180449792Y-119819102D01*
X180407992Y-119912428D01*
X180367941Y-120006432D01*
X180332185Y-120095636D01*
X180303268Y-120174564D01*
X180236608Y-120386220D01*
X180185461Y-120593294D01*
X180151159Y-120797746D01*
X180131824Y-121010874D01*
X180125580Y-121243978D01*
X180125577Y-121248002D01*
X179420508Y-121248002D01*
X179419698Y-121224739D01*
X179437748Y-120875114D01*
X179486054Y-120527688D01*
X179564650Y-120184640D01*
X179673571Y-119848152D01*
X179812850Y-119520404D01*
X179982522Y-119203577D01*
X179983436Y-119202044D01*
X180039386Y-119111716D01*
X180101862Y-119016793D01*
X180167797Y-118921340D01*
X180234124Y-118829421D01*
X180297776Y-118745101D01*
X180355686Y-118672443D01*
X180404789Y-118615513D01*
X180442016Y-118578374D01*
X180464301Y-118565092D01*
X180473872Y-118571326D01*
X180507790Y-118596633D01*
X180564275Y-118640008D01*
X180641425Y-118699956D01*
X180737337Y-118774981D01*
X180850108Y-118863587D01*
X180977837Y-118964280D01*
X181118619Y-119075562D01*
X181270552Y-119195940D01*
X181431734Y-119323916D01*
X181600261Y-119457995D01*
X181732243Y-119563057D01*
X181895274Y-119692702D01*
X182049481Y-119815184D01*
X182192962Y-119928997D01*
X182323808Y-120032635D01*
X182440116Y-120124592D01*
X182539979Y-120203361D01*
X182621492Y-120267437D01*
X182682749Y-120315312D01*
X182721844Y-120345481D01*
X182736873Y-120356437D01*
X182738168Y-120351235D01*
X182740270Y-120316650D01*
X182742229Y-120250610D01*
X182744037Y-120154228D01*
X182745688Y-120028620D01*
X182747173Y-119874900D01*
X182748484Y-119694182D01*
X182749615Y-119487581D01*
X182750557Y-119256211D01*
X182751304Y-119001188D01*
X182751846Y-118723625D01*
X182752177Y-118424638D01*
X182752289Y-118105340D01*
X182752289Y-115848706D01*
X183101145Y-115500147D01*
X183450000Y-115151588D01*
X183450000Y-121256896D01*
X183450000Y-123964045D01*
G37*
G04 #@! TD*
M02*
