%TF.GenerationSoftware,KiCad,Pcbnew,9.0.3*%
%TF.CreationDate,2025-07-22T15:46:12+03:00*%
%TF.ProjectId,buzzer_door_detect_board,62757a7a-6572-45f6-946f-6f725f646574,rev?*%
%TF.SameCoordinates,Original*%
%TF.FileFunction,Copper,L2,Bot*%
%TF.FilePolarity,Positive*%
%FSLAX46Y46*%
G04 Gerber Fmt 4.6, Leading zero omitted, Abs format (unit mm)*
G04 Created by KiCad (PCBNEW 9.0.3) date 2025-07-22 15:46:12*
%MOMM*%
%LPD*%
G01*
G04 APERTURE LIST*
G04 Aperture macros list*
%AMRoundRect*
0 Rectangle with rounded corners*
0 $1 Rounding radius*
0 $2 $3 $4 $5 $6 $7 $8 $9 X,Y pos of 4 corners*
0 Add a 4 corners polygon primitive as box body*
4,1,4,$2,$3,$4,$5,$6,$7,$8,$9,$2,$3,0*
0 Add four circle primitives for the rounded corners*
1,1,$1+$1,$2,$3*
1,1,$1+$1,$4,$5*
1,1,$1+$1,$6,$7*
1,1,$1+$1,$8,$9*
0 Add four rect primitives between the rounded corners*
20,1,$1+$1,$2,$3,$4,$5,0*
20,1,$1+$1,$4,$5,$6,$7,0*
20,1,$1+$1,$6,$7,$8,$9,0*
20,1,$1+$1,$8,$9,$2,$3,0*%
G04 Aperture macros list end*
%TA.AperFunction,ComponentPad*%
%ADD10R,2.000000X2.000000*%
%TD*%
%TA.AperFunction,ComponentPad*%
%ADD11C,2.000000*%
%TD*%
%TA.AperFunction,ComponentPad*%
%ADD12RoundRect,0.250000X-0.265000X-0.615000X0.265000X-0.615000X0.265000X0.615000X-0.265000X0.615000X0*%
%TD*%
%TA.AperFunction,ComponentPad*%
%ADD13O,1.030000X1.730000*%
%TD*%
%TA.AperFunction,ViaPad*%
%ADD14C,0.600000*%
%TD*%
%TA.AperFunction,Conductor*%
%ADD15C,0.200000*%
%TD*%
G04 APERTURE END LIST*
D10*
%TO.P,BZ1,1,+*%
%TO.N,VCC*%
X43790000Y-58970000D03*
D11*
%TO.P,BZ1,2,-*%
%TO.N,Net-(BZ1--)*%
X61290000Y-58970000D03*
%TD*%
D12*
%TO.P,J10,1,Pin_1*%
%TO.N,VCC*%
X49000000Y-73750000D03*
D13*
%TO.P,J10,2,Pin_2*%
%TO.N,/Buzzer_IN*%
X50500000Y-73750000D03*
%TO.P,J10,3,Pin_3*%
%TO.N,GND*%
X52000000Y-73750000D03*
%TO.P,J10,4,Pin_4*%
%TO.N,/IN_A*%
X53500000Y-73750000D03*
%TO.P,J10,5,Pin_5*%
%TO.N,/IN_B*%
X55000000Y-73750000D03*
%TO.P,J10,6,Pin_6*%
%TO.N,/OUT_A*%
X56500000Y-73750000D03*
%TO.P,J10,7,Pin_7*%
%TO.N,/OUT_B*%
X58000000Y-73750000D03*
%TO.P,J10,8,Pin_8*%
%TO.N,GND2*%
X59500000Y-73750000D03*
%TO.P,J10,9,Pin_9*%
%TO.N,GND1*%
X61000000Y-73750000D03*
%TD*%
D14*
%TO.N,GND*%
X47740000Y-43980000D03*
X44750000Y-65750000D03*
X68410000Y-74355000D03*
X68410000Y-58762500D03*
X66350000Y-73270000D03*
X56922500Y-86260000D03*
X62150000Y-82690000D03*
X41330000Y-81950000D03*
X47510000Y-47350000D03*
X68410000Y-79552500D03*
X48250000Y-63750000D03*
X65000000Y-69750000D03*
X46527500Y-86260000D03*
X68530000Y-43980000D03*
X46950000Y-68060000D03*
X52937500Y-43980000D03*
X62120000Y-86260000D03*
X68410000Y-69157500D03*
X63332500Y-43980000D03*
X41250000Y-66082500D03*
X58135000Y-43980000D03*
X41250000Y-71280000D03*
X41250000Y-55687500D03*
X65000000Y-64750000D03*
X66410000Y-76020000D03*
X41250000Y-50490000D03*
X51725000Y-86260000D03*
X41330000Y-86260000D03*
X44620000Y-50360000D03*
X41250000Y-60885000D03*
X65040000Y-79680000D03*
X68410000Y-63960000D03*
%TO.N,/OUT_A*%
X61250000Y-67750000D03*
%TO.N,/OUT_B*%
X64250000Y-67750000D03*
%TD*%
D15*
%TO.N,VCC*%
X49000000Y-73750000D02*
X49000000Y-67590000D01*
X49000000Y-67590000D02*
X43790000Y-62380000D01*
X43790000Y-62380000D02*
X43790000Y-58970000D01*
%TO.N,/IN_B*%
X55000000Y-73400000D02*
X55000000Y-73750000D01*
%TO.N,/OUT_A*%
X61250000Y-67750000D02*
X56500000Y-72500000D01*
X56500000Y-72500000D02*
X56500000Y-73750000D01*
%TO.N,/OUT_B*%
X58000000Y-71900000D02*
X58000000Y-73750000D01*
X64250000Y-67750000D02*
X62150000Y-67750000D01*
X62150000Y-67750000D02*
X58000000Y-71900000D01*
%TD*%
%TA.AperFunction,Conductor*%
%TO.N,GND*%
G36*
X68942539Y-43520185D02*
G01*
X68988294Y-43572989D01*
X68999500Y-43624500D01*
X68999500Y-80125170D01*
X68979815Y-80192209D01*
X68927011Y-80237964D01*
X68875500Y-80249170D01*
X66315537Y-80249170D01*
X66315511Y-80249163D01*
X66249619Y-80249170D01*
X66176572Y-80249170D01*
X66176462Y-80249176D01*
X66065386Y-80249187D01*
X65698657Y-80285339D01*
X65337268Y-80357254D01*
X65337266Y-80357254D01*
X64984662Y-80464240D01*
X64644227Y-80605273D01*
X64319256Y-80778990D01*
X64012883Y-80983713D01*
X63728041Y-81217482D01*
X63467482Y-81478041D01*
X63233713Y-81762883D01*
X63028990Y-82069256D01*
X62855273Y-82394227D01*
X62714240Y-82734662D01*
X62607254Y-83087266D01*
X62607254Y-83087268D01*
X62535339Y-83448657D01*
X62499187Y-83815386D01*
X62499171Y-83993854D01*
X62499170Y-83999619D01*
X62499163Y-84065511D01*
X62499460Y-84066619D01*
X62499499Y-84075661D01*
X62499471Y-84075756D01*
X62499500Y-84076195D01*
X62499500Y-86625500D01*
X62479815Y-86692539D01*
X62427011Y-86738294D01*
X62375500Y-86749500D01*
X40874500Y-86749500D01*
X40807461Y-86729815D01*
X40761706Y-86677011D01*
X40750500Y-86625500D01*
X40750500Y-75128711D01*
X41259500Y-75128711D01*
X41259500Y-75371288D01*
X41291161Y-75611785D01*
X41353947Y-75846104D01*
X41446773Y-76070205D01*
X41446776Y-76070212D01*
X41568064Y-76280289D01*
X41568066Y-76280292D01*
X41568067Y-76280293D01*
X41715733Y-76472736D01*
X41715739Y-76472743D01*
X41887256Y-76644260D01*
X41887262Y-76644265D01*
X42079711Y-76791936D01*
X42289788Y-76913224D01*
X42513900Y-77006054D01*
X42748211Y-77068838D01*
X42928586Y-77092584D01*
X42988711Y-77100500D01*
X42988712Y-77100500D01*
X43231289Y-77100500D01*
X43279388Y-77094167D01*
X43471789Y-77068838D01*
X43706100Y-77006054D01*
X43930212Y-76913224D01*
X44140289Y-76791936D01*
X44332738Y-76644265D01*
X44504265Y-76472738D01*
X44651936Y-76280289D01*
X44773224Y-76070212D01*
X44866054Y-75846100D01*
X44928838Y-75611789D01*
X44960500Y-75371288D01*
X44960500Y-75128712D01*
X44928838Y-74888211D01*
X44866054Y-74653900D01*
X44773224Y-74429788D01*
X44651936Y-74219711D01*
X44504265Y-74027262D01*
X44504260Y-74027256D01*
X44332743Y-73855739D01*
X44332736Y-73855733D01*
X44140293Y-73708067D01*
X44140292Y-73708066D01*
X44140289Y-73708064D01*
X43930212Y-73586776D01*
X43930205Y-73586773D01*
X43706104Y-73493947D01*
X43471785Y-73431161D01*
X43231289Y-73399500D01*
X43231288Y-73399500D01*
X42988712Y-73399500D01*
X42988711Y-73399500D01*
X42748214Y-73431161D01*
X42513895Y-73493947D01*
X42289794Y-73586773D01*
X42289785Y-73586777D01*
X42079706Y-73708067D01*
X41887263Y-73855733D01*
X41887256Y-73855739D01*
X41715739Y-74027256D01*
X41715733Y-74027263D01*
X41568067Y-74219706D01*
X41446777Y-74429785D01*
X41446773Y-74429794D01*
X41353947Y-74653895D01*
X41291161Y-74888214D01*
X41259500Y-75128711D01*
X40750500Y-75128711D01*
X40750500Y-57922135D01*
X42289500Y-57922135D01*
X42289500Y-60017870D01*
X42289501Y-60017876D01*
X42295908Y-60077483D01*
X42346202Y-60212328D01*
X42346206Y-60212335D01*
X42432452Y-60327544D01*
X42432455Y-60327547D01*
X42547664Y-60413793D01*
X42547671Y-60413797D01*
X42592618Y-60430561D01*
X42682517Y-60464091D01*
X42742127Y-60470500D01*
X43065500Y-60470499D01*
X43132539Y-60490183D01*
X43178294Y-60542987D01*
X43189500Y-60594499D01*
X43189500Y-62293330D01*
X43189499Y-62293348D01*
X43189499Y-62459054D01*
X43189498Y-62459054D01*
X43230423Y-62611785D01*
X43259358Y-62661900D01*
X43259359Y-62661904D01*
X43259360Y-62661904D01*
X43309479Y-62748714D01*
X43309481Y-62748717D01*
X43428349Y-62867585D01*
X43428355Y-62867590D01*
X48363181Y-67802416D01*
X48396666Y-67863739D01*
X48399500Y-67890097D01*
X48399500Y-72390949D01*
X48379815Y-72457988D01*
X48340598Y-72496487D01*
X48266344Y-72542287D01*
X48142289Y-72666342D01*
X48050187Y-72815663D01*
X48050186Y-72815666D01*
X47995001Y-72982203D01*
X47995001Y-72982204D01*
X47995000Y-72982204D01*
X47984500Y-73084983D01*
X47984500Y-74415001D01*
X47984501Y-74415018D01*
X47995000Y-74517796D01*
X47995001Y-74517799D01*
X48015951Y-74581020D01*
X48050186Y-74684334D01*
X48142288Y-74833656D01*
X48266344Y-74957712D01*
X48415666Y-75049814D01*
X48582203Y-75104999D01*
X48684991Y-75115500D01*
X49315008Y-75115499D01*
X49315016Y-75115498D01*
X49315019Y-75115498D01*
X49371302Y-75109748D01*
X49417797Y-75104999D01*
X49584334Y-75049814D01*
X49733656Y-74957712D01*
X49750674Y-74940693D01*
X49811994Y-74907206D01*
X49881686Y-74912187D01*
X49907249Y-74925269D01*
X50018973Y-74999921D01*
X50018986Y-74999928D01*
X50139418Y-75049812D01*
X50203789Y-75076475D01*
X50347185Y-75104998D01*
X50399977Y-75115499D01*
X50399981Y-75115500D01*
X50399982Y-75115500D01*
X50600019Y-75115500D01*
X50600020Y-75115499D01*
X50796211Y-75076475D01*
X50981020Y-74999925D01*
X51147344Y-74888791D01*
X51288791Y-74747344D01*
X51399925Y-74581020D01*
X51476475Y-74396211D01*
X51515500Y-74200018D01*
X51515500Y-73299982D01*
X51515499Y-73299977D01*
X52484500Y-73299977D01*
X52484500Y-74200022D01*
X52523523Y-74396203D01*
X52523526Y-74396215D01*
X52600071Y-74581013D01*
X52600078Y-74581026D01*
X52711208Y-74747343D01*
X52711211Y-74747347D01*
X52852652Y-74888788D01*
X52852656Y-74888791D01*
X53018973Y-74999921D01*
X53018986Y-74999928D01*
X53139418Y-75049812D01*
X53203789Y-75076475D01*
X53347185Y-75104998D01*
X53399977Y-75115499D01*
X53399981Y-75115500D01*
X53399982Y-75115500D01*
X53600019Y-75115500D01*
X53600020Y-75115499D01*
X53796211Y-75076475D01*
X53981020Y-74999925D01*
X54147344Y-74888791D01*
X54162318Y-74873816D01*
X54223639Y-74840331D01*
X54293331Y-74845314D01*
X54337681Y-74873816D01*
X54352076Y-74888211D01*
X54352657Y-74888792D01*
X54518973Y-74999921D01*
X54518986Y-74999928D01*
X54639418Y-75049812D01*
X54703789Y-75076475D01*
X54847185Y-75104998D01*
X54899977Y-75115499D01*
X54899981Y-75115500D01*
X54899982Y-75115500D01*
X55100019Y-75115500D01*
X55100020Y-75115499D01*
X55296211Y-75076475D01*
X55481020Y-74999925D01*
X55647344Y-74888791D01*
X55662318Y-74873816D01*
X55723639Y-74840331D01*
X55793331Y-74845314D01*
X55837681Y-74873816D01*
X55852076Y-74888211D01*
X55852657Y-74888792D01*
X56018973Y-74999921D01*
X56018986Y-74999928D01*
X56139418Y-75049812D01*
X56203789Y-75076475D01*
X56347185Y-75104998D01*
X56399977Y-75115499D01*
X56399981Y-75115500D01*
X56399982Y-75115500D01*
X56600019Y-75115500D01*
X56600020Y-75115499D01*
X56796211Y-75076475D01*
X56981020Y-74999925D01*
X57147344Y-74888791D01*
X57162318Y-74873816D01*
X57223639Y-74840331D01*
X57293331Y-74845314D01*
X57337681Y-74873816D01*
X57352076Y-74888211D01*
X57352657Y-74888792D01*
X57518973Y-74999921D01*
X57518986Y-74999928D01*
X57639418Y-75049812D01*
X57703789Y-75076475D01*
X57847185Y-75104998D01*
X57899977Y-75115499D01*
X57899981Y-75115500D01*
X57899982Y-75115500D01*
X58100019Y-75115500D01*
X58100020Y-75115499D01*
X58296211Y-75076475D01*
X58481020Y-74999925D01*
X58647344Y-74888791D01*
X58662318Y-74873816D01*
X58723639Y-74840331D01*
X58793331Y-74845314D01*
X58837681Y-74873816D01*
X58852076Y-74888211D01*
X58852657Y-74888792D01*
X59018973Y-74999921D01*
X59018986Y-74999928D01*
X59139418Y-75049812D01*
X59203789Y-75076475D01*
X59347185Y-75104998D01*
X59399977Y-75115499D01*
X59399981Y-75115500D01*
X59399982Y-75115500D01*
X59600019Y-75115500D01*
X59600020Y-75115499D01*
X59796211Y-75076475D01*
X59981020Y-74999925D01*
X60147344Y-74888791D01*
X60162318Y-74873816D01*
X60223639Y-74840331D01*
X60293331Y-74845314D01*
X60337681Y-74873816D01*
X60352076Y-74888211D01*
X60352657Y-74888792D01*
X60518973Y-74999921D01*
X60518986Y-74999928D01*
X60639418Y-75049812D01*
X60703789Y-75076475D01*
X60847185Y-75104998D01*
X60899977Y-75115499D01*
X60899981Y-75115500D01*
X60899982Y-75115500D01*
X61100019Y-75115500D01*
X61100020Y-75115499D01*
X61296211Y-75076475D01*
X61481020Y-74999925D01*
X61647344Y-74888791D01*
X61788791Y-74747344D01*
X61899925Y-74581020D01*
X61976475Y-74396211D01*
X62015500Y-74200018D01*
X62015500Y-73299982D01*
X61976475Y-73103789D01*
X61926113Y-72982203D01*
X61899928Y-72918986D01*
X61899921Y-72918973D01*
X61788791Y-72752656D01*
X61788788Y-72752652D01*
X61647347Y-72611211D01*
X61647343Y-72611208D01*
X61481026Y-72500078D01*
X61481013Y-72500071D01*
X61296215Y-72423526D01*
X61296203Y-72423523D01*
X61100022Y-72384500D01*
X61100018Y-72384500D01*
X60899982Y-72384500D01*
X60899977Y-72384500D01*
X60703796Y-72423523D01*
X60703784Y-72423526D01*
X60518986Y-72500071D01*
X60518973Y-72500078D01*
X60352656Y-72611208D01*
X60352652Y-72611211D01*
X60337681Y-72626183D01*
X60276358Y-72659668D01*
X60206666Y-72654684D01*
X60162319Y-72626183D01*
X60147347Y-72611211D01*
X60147343Y-72611208D01*
X59981026Y-72500078D01*
X59981013Y-72500071D01*
X59796215Y-72423526D01*
X59796203Y-72423523D01*
X59600022Y-72384500D01*
X59600018Y-72384500D01*
X59399982Y-72384500D01*
X59399977Y-72384500D01*
X59203796Y-72423523D01*
X59203784Y-72423526D01*
X59018986Y-72500071D01*
X59018973Y-72500078D01*
X58852656Y-72611208D01*
X58837678Y-72626186D01*
X58830956Y-72629855D01*
X58826507Y-72636085D01*
X58800722Y-72646363D01*
X58776354Y-72659669D01*
X58768716Y-72659122D01*
X58761604Y-72661958D01*
X58734353Y-72656664D01*
X58706662Y-72654683D01*
X58698809Y-72649759D01*
X58693017Y-72648634D01*
X58668982Y-72631056D01*
X58664297Y-72628119D01*
X58663312Y-72627177D01*
X58647344Y-72611209D01*
X58644922Y-72609591D01*
X58638798Y-72603734D01*
X58623621Y-72577358D01*
X58606497Y-72552213D01*
X58605496Y-72545858D01*
X58603952Y-72543174D01*
X58604218Y-72537741D01*
X58600500Y-72514117D01*
X58600500Y-72200097D01*
X58620185Y-72133058D01*
X58636819Y-72112416D01*
X62362416Y-68386819D01*
X62423739Y-68353334D01*
X62450097Y-68350500D01*
X63670234Y-68350500D01*
X63737273Y-68370185D01*
X63739125Y-68371398D01*
X63870814Y-68459390D01*
X63870827Y-68459397D01*
X64016498Y-68519735D01*
X64016503Y-68519737D01*
X64171153Y-68550499D01*
X64171156Y-68550500D01*
X64171158Y-68550500D01*
X64328844Y-68550500D01*
X64328845Y-68550499D01*
X64483497Y-68519737D01*
X64629179Y-68459394D01*
X64760289Y-68371789D01*
X64871789Y-68260289D01*
X64959394Y-68129179D01*
X65019737Y-67983497D01*
X65050500Y-67828842D01*
X65050500Y-67671158D01*
X65050500Y-67671155D01*
X65050499Y-67671153D01*
X65019738Y-67516510D01*
X65019738Y-67516508D01*
X65019737Y-67516503D01*
X65017434Y-67510943D01*
X64959397Y-67370827D01*
X64959390Y-67370814D01*
X64871789Y-67239711D01*
X64871786Y-67239707D01*
X64760292Y-67128213D01*
X64760288Y-67128210D01*
X64629185Y-67040609D01*
X64629172Y-67040602D01*
X64483501Y-66980264D01*
X64483489Y-66980261D01*
X64328845Y-66949500D01*
X64328842Y-66949500D01*
X64171158Y-66949500D01*
X64171155Y-66949500D01*
X64016510Y-66980261D01*
X64016498Y-66980264D01*
X63870827Y-67040602D01*
X63870814Y-67040609D01*
X63739125Y-67128602D01*
X63672447Y-67149480D01*
X63670234Y-67149500D01*
X62070942Y-67149500D01*
X61911879Y-67192120D01*
X61842029Y-67190457D01*
X61792105Y-67160026D01*
X61760292Y-67128213D01*
X61760288Y-67128210D01*
X61629185Y-67040609D01*
X61629172Y-67040602D01*
X61483501Y-66980264D01*
X61483489Y-66980261D01*
X61328845Y-66949500D01*
X61328842Y-66949500D01*
X61171158Y-66949500D01*
X61171155Y-66949500D01*
X61016510Y-66980261D01*
X61016498Y-66980264D01*
X60870827Y-67040602D01*
X60870814Y-67040609D01*
X60739711Y-67128210D01*
X60739707Y-67128213D01*
X60628213Y-67239707D01*
X60628210Y-67239711D01*
X60540609Y-67370814D01*
X60540602Y-67370827D01*
X60480264Y-67516498D01*
X60480261Y-67516508D01*
X60449361Y-67671850D01*
X60416976Y-67733761D01*
X60415425Y-67735339D01*
X56019481Y-72131282D01*
X56019479Y-72131285D01*
X55969361Y-72218094D01*
X55969359Y-72218096D01*
X55940425Y-72268209D01*
X55940424Y-72268210D01*
X55940423Y-72268215D01*
X55899499Y-72420943D01*
X55899499Y-72420945D01*
X55899499Y-72514118D01*
X55890480Y-72544831D01*
X55882976Y-72575962D01*
X55880471Y-72578918D01*
X55879814Y-72581157D01*
X55861199Y-72603737D01*
X55855077Y-72609591D01*
X55852656Y-72611209D01*
X55836706Y-72627158D01*
X55835700Y-72628121D01*
X55805855Y-72643561D01*
X55776355Y-72659669D01*
X55774920Y-72659566D01*
X55773644Y-72660227D01*
X55740203Y-72657082D01*
X55706663Y-72654683D01*
X55705288Y-72653799D01*
X55704081Y-72653686D01*
X55699394Y-72650011D01*
X55662319Y-72626183D01*
X55647347Y-72611211D01*
X55647343Y-72611208D01*
X55481026Y-72500078D01*
X55481013Y-72500071D01*
X55296215Y-72423526D01*
X55296203Y-72423523D01*
X55100022Y-72384500D01*
X55100018Y-72384500D01*
X54899982Y-72384500D01*
X54899977Y-72384500D01*
X54703796Y-72423523D01*
X54703784Y-72423526D01*
X54518986Y-72500071D01*
X54518973Y-72500078D01*
X54352656Y-72611208D01*
X54352652Y-72611211D01*
X54337681Y-72626183D01*
X54276358Y-72659668D01*
X54206666Y-72654684D01*
X54162319Y-72626183D01*
X54147347Y-72611211D01*
X54147343Y-72611208D01*
X53981026Y-72500078D01*
X53981013Y-72500071D01*
X53796215Y-72423526D01*
X53796203Y-72423523D01*
X53600022Y-72384500D01*
X53600018Y-72384500D01*
X53399982Y-72384500D01*
X53399977Y-72384500D01*
X53203796Y-72423523D01*
X53203784Y-72423526D01*
X53018986Y-72500071D01*
X53018973Y-72500078D01*
X52852656Y-72611208D01*
X52852652Y-72611211D01*
X52711211Y-72752652D01*
X52711208Y-72752656D01*
X52600078Y-72918973D01*
X52600071Y-72918986D01*
X52523526Y-73103784D01*
X52523523Y-73103796D01*
X52484500Y-73299977D01*
X51515499Y-73299977D01*
X51476475Y-73103789D01*
X51426113Y-72982203D01*
X51399928Y-72918986D01*
X51399921Y-72918973D01*
X51288791Y-72752656D01*
X51288788Y-72752652D01*
X51147347Y-72611211D01*
X51147343Y-72611208D01*
X50981026Y-72500078D01*
X50981013Y-72500071D01*
X50796215Y-72423526D01*
X50796203Y-72423523D01*
X50600022Y-72384500D01*
X50600018Y-72384500D01*
X50399982Y-72384500D01*
X50399977Y-72384500D01*
X50203796Y-72423523D01*
X50203784Y-72423526D01*
X50018986Y-72500071D01*
X50018968Y-72500081D01*
X49907248Y-72574730D01*
X49840571Y-72595608D01*
X49773191Y-72577123D01*
X49766666Y-72572803D01*
X49758104Y-72566736D01*
X49733656Y-72542288D01*
X49656040Y-72494414D01*
X49652808Y-72492124D01*
X49633501Y-72467690D01*
X49612678Y-72444539D01*
X49611656Y-72440045D01*
X49609490Y-72437303D01*
X49608323Y-72425374D01*
X49600500Y-72390949D01*
X49600500Y-67679060D01*
X49600501Y-67679047D01*
X49600501Y-67510944D01*
X49562956Y-67370827D01*
X49559577Y-67358216D01*
X49491159Y-67239711D01*
X49480524Y-67221290D01*
X49480518Y-67221282D01*
X44426819Y-62167583D01*
X44393334Y-62106260D01*
X44390500Y-62079902D01*
X44390500Y-60594499D01*
X44410185Y-60527460D01*
X44462989Y-60481705D01*
X44514500Y-60470499D01*
X44837871Y-60470499D01*
X44837872Y-60470499D01*
X44897483Y-60464091D01*
X45032331Y-60413796D01*
X45147546Y-60327546D01*
X45233796Y-60212331D01*
X45284091Y-60077483D01*
X45290500Y-60017873D01*
X45290499Y-58851902D01*
X59789500Y-58851902D01*
X59789500Y-59088097D01*
X59826446Y-59321368D01*
X59899433Y-59545996D01*
X60006657Y-59756433D01*
X60145483Y-59947510D01*
X60312490Y-60114517D01*
X60503567Y-60253343D01*
X60602991Y-60304002D01*
X60714003Y-60360566D01*
X60714005Y-60360566D01*
X60714008Y-60360568D01*
X60834412Y-60399689D01*
X60938631Y-60433553D01*
X61171903Y-60470500D01*
X61171908Y-60470500D01*
X61408097Y-60470500D01*
X61641368Y-60433553D01*
X61865992Y-60360568D01*
X62076433Y-60253343D01*
X62267510Y-60114517D01*
X62434517Y-59947510D01*
X62573343Y-59756433D01*
X62680568Y-59545992D01*
X62753553Y-59321368D01*
X62790500Y-59088097D01*
X62790500Y-58851902D01*
X62753553Y-58618631D01*
X62680566Y-58394003D01*
X62573342Y-58183566D01*
X62434517Y-57992490D01*
X62267510Y-57825483D01*
X62076433Y-57686657D01*
X61865996Y-57579433D01*
X61641368Y-57506446D01*
X61408097Y-57469500D01*
X61408092Y-57469500D01*
X61171908Y-57469500D01*
X61171903Y-57469500D01*
X60938631Y-57506446D01*
X60714003Y-57579433D01*
X60503566Y-57686657D01*
X60447119Y-57727669D01*
X60312490Y-57825483D01*
X60312488Y-57825485D01*
X60312487Y-57825485D01*
X60145485Y-57992487D01*
X60145485Y-57992488D01*
X60145483Y-57992490D01*
X60085862Y-58074550D01*
X60006657Y-58183566D01*
X59899433Y-58394003D01*
X59826446Y-58618631D01*
X59789500Y-58851902D01*
X45290499Y-58851902D01*
X45290499Y-57922128D01*
X45284091Y-57862517D01*
X45270278Y-57825483D01*
X45233797Y-57727671D01*
X45233793Y-57727664D01*
X45147547Y-57612455D01*
X45147544Y-57612452D01*
X45032335Y-57526206D01*
X45032328Y-57526202D01*
X44897482Y-57475908D01*
X44897483Y-57475908D01*
X44837883Y-57469501D01*
X44837881Y-57469500D01*
X44837873Y-57469500D01*
X44837864Y-57469500D01*
X42742129Y-57469500D01*
X42742123Y-57469501D01*
X42682516Y-57475908D01*
X42547671Y-57526202D01*
X42547664Y-57526206D01*
X42432455Y-57612452D01*
X42432452Y-57612455D01*
X42346206Y-57727664D01*
X42346202Y-57727671D01*
X42295908Y-57862517D01*
X42289501Y-57922116D01*
X42289501Y-57922123D01*
X42289500Y-57922135D01*
X40750500Y-57922135D01*
X40750500Y-54878711D01*
X64789500Y-54878711D01*
X64789500Y-55121288D01*
X64821161Y-55361785D01*
X64883947Y-55596104D01*
X64976773Y-55820205D01*
X64976776Y-55820212D01*
X65098064Y-56030289D01*
X65098066Y-56030292D01*
X65098067Y-56030293D01*
X65245733Y-56222736D01*
X65245739Y-56222743D01*
X65417256Y-56394260D01*
X65417262Y-56394265D01*
X65609711Y-56541936D01*
X65819788Y-56663224D01*
X66043900Y-56756054D01*
X66278211Y-56818838D01*
X66458586Y-56842584D01*
X66518711Y-56850500D01*
X66518712Y-56850500D01*
X66761289Y-56850500D01*
X66809388Y-56844167D01*
X67001789Y-56818838D01*
X67236100Y-56756054D01*
X67460212Y-56663224D01*
X67670289Y-56541936D01*
X67862738Y-56394265D01*
X68034265Y-56222738D01*
X68181936Y-56030289D01*
X68303224Y-55820212D01*
X68396054Y-55596100D01*
X68458838Y-55361789D01*
X68490500Y-55121288D01*
X68490500Y-54878712D01*
X68458838Y-54638211D01*
X68396054Y-54403900D01*
X68303224Y-54179788D01*
X68181936Y-53969711D01*
X68034265Y-53777262D01*
X68034260Y-53777256D01*
X67862743Y-53605739D01*
X67862736Y-53605733D01*
X67670293Y-53458067D01*
X67670292Y-53458066D01*
X67670289Y-53458064D01*
X67460212Y-53336776D01*
X67460205Y-53336773D01*
X67236104Y-53243947D01*
X67001785Y-53181161D01*
X66761289Y-53149500D01*
X66761288Y-53149500D01*
X66518712Y-53149500D01*
X66518711Y-53149500D01*
X66278214Y-53181161D01*
X66043895Y-53243947D01*
X65819794Y-53336773D01*
X65819785Y-53336777D01*
X65609706Y-53458067D01*
X65417263Y-53605733D01*
X65417256Y-53605739D01*
X65245739Y-53777256D01*
X65245733Y-53777263D01*
X65098067Y-53969706D01*
X64976777Y-54179785D01*
X64976773Y-54179794D01*
X64883947Y-54403895D01*
X64821161Y-54638214D01*
X64789500Y-54878711D01*
X40750500Y-54878711D01*
X40750500Y-50124562D01*
X40770185Y-50057523D01*
X40822989Y-50011768D01*
X40874510Y-50000562D01*
X43434439Y-50000823D01*
X43434489Y-50000837D01*
X43498739Y-50000830D01*
X43565841Y-50000837D01*
X43565843Y-50000836D01*
X43574182Y-50000837D01*
X43574407Y-50000822D01*
X43684623Y-50000812D01*
X44051331Y-49964662D01*
X44051340Y-49964660D01*
X44051342Y-49964660D01*
X44108767Y-49953232D01*
X44412731Y-49892746D01*
X44765342Y-49785758D01*
X45105771Y-49644728D01*
X45430739Y-49471012D01*
X45737119Y-49266285D01*
X46021959Y-49032517D01*
X46282517Y-48771959D01*
X46516285Y-48487119D01*
X46721012Y-48180739D01*
X46894728Y-47855771D01*
X47035758Y-47515342D01*
X47142746Y-47162731D01*
X47214662Y-46801331D01*
X47250812Y-46434623D01*
X47250830Y-46250381D01*
X47250837Y-46184489D01*
X47250539Y-46183378D01*
X47250501Y-46174343D01*
X47250528Y-46174247D01*
X47250500Y-46173809D01*
X47250500Y-43624500D01*
X47270185Y-43557461D01*
X47322989Y-43511706D01*
X47374500Y-43500500D01*
X68875500Y-43500500D01*
X68942539Y-43520185D01*
G37*
%TD.AperFunction*%
%TD*%
M02*
