M48
; DRILL file {KiCad 9.0.3} date 2025-07-22T15:46:15+0300
; FORMAT={-:-/ absolute / inch / decimal}
; #@! TF.CreationDate,2025-07-22T15:46:15+03:00
; #@! TF.GenerationSoftware,Kicad,Pcbnew,9.0.3
; #@! TF.FileFunction,Plated,1,2,PTH
FMAT,2
INCH
; #@! TA.AperFunction,Plated,PTH,ViaDrill
T1C0.0118
; #@! TA.AperFunction,Plated,PTH,ComponentDrill
T2C0.0287
; #@! TA.AperFunction,Plated,PTH,ComponentDrill
T3C0.0394
%
G90
G05
T1
X1.624Y-1.9878
X1.624Y-2.1924
X1.624Y-2.397
X1.624Y-2.6017
X1.624Y-2.8063
X1.6272Y-3.2264
X1.6272Y-3.3961
X1.7567Y-1.9827
X1.7618Y-2.5886
X1.8318Y-3.3961
X1.8484Y-2.6795
X1.8705Y-1.8642
X1.8795Y-1.7315
X1.8996Y-2.5098
X2.0364Y-3.3961
X2.0842Y-1.7315
X2.241Y-3.3961
X2.2888Y-1.7315
X2.4114Y-2.6673
X2.4457Y-3.3961
X2.4469Y-3.2555
X2.4934Y-1.7315
X2.5295Y-2.6673
X2.5591Y-2.5492
X2.5591Y-2.7461
X2.5606Y-3.137
X2.6122Y-2.8846
X2.6146Y-2.9929
X2.6933Y-2.3135
X2.6933Y-2.5181
X2.6933Y-2.7227
X2.6933Y-2.9274
X2.6933Y-3.132
X2.698Y-1.7315
T2
X1.9291Y-2.9035
X1.9882Y-2.9035
X2.0472Y-2.9035
X2.1063Y-2.9035
X2.1654Y-2.9035
X2.2244Y-2.9035
X2.2835Y-2.9035
X2.3425Y-2.9035
X2.4016Y-2.9035
T3
X1.724Y-2.3217
X2.413Y-2.3217
M30
