%TF.GenerationSoftware,KiCad,Pcbnew,9.0.3*%
%TF.CreationDate,2025-07-22T15:46:12+03:00*%
%TF.ProjectId,buzzer_door_detect_board,62757a7a-6572-45f6-946f-6f725f646574,rev?*%
%TF.SameCoordinates,Original*%
%TF.FileFunction,Copper,L1,Top*%
%TF.FilePolarity,Positive*%
%FSLAX46Y46*%
G04 Gerber Fmt 4.6, Leading zero omitted, Abs format (unit mm)*
G04 Created by KiCad (PCBNEW 9.0.3) date 2025-07-22 15:46:12*
%MOMM*%
%LPD*%
G01*
G04 APERTURE LIST*
G04 Aperture macros list*
%AMRoundRect*
0 Rectangle with rounded corners*
0 $1 Rounding radius*
0 $2 $3 $4 $5 $6 $7 $8 $9 X,Y pos of 4 corners*
0 Add a 4 corners polygon primitive as box body*
4,1,4,$2,$3,$4,$5,$6,$7,$8,$9,$2,$3,0*
0 Add four circle primitives for the rounded corners*
1,1,$1+$1,$2,$3*
1,1,$1+$1,$4,$5*
1,1,$1+$1,$6,$7*
1,1,$1+$1,$8,$9*
0 Add four rect primitives between the rounded corners*
20,1,$1+$1,$2,$3,$4,$5,0*
20,1,$1+$1,$4,$5,$6,$7,0*
20,1,$1+$1,$6,$7,$8,$9,0*
20,1,$1+$1,$8,$9,$2,$3,0*%
%AMFreePoly0*
4,1,23,0.500000,-0.750000,0.000000,-0.750000,0.000000,-0.745722,-0.065263,-0.745722,-0.191342,-0.711940,-0.304381,-0.646677,-0.396677,-0.554381,-0.461940,-0.441342,-0.495722,-0.315263,-0.495722,-0.250000,-0.500000,-0.250000,-0.500000,0.250000,-0.495722,0.250000,-0.495722,0.315263,-0.461940,0.441342,-0.396677,0.554381,-0.304381,0.646677,-0.191342,0.711940,-0.065263,0.745722,0.000000,0.745722,
0.000000,0.750000,0.500000,0.750000,0.500000,-0.750000,0.500000,-0.750000,$1*%
%AMFreePoly1*
4,1,23,0.000000,0.745722,0.065263,0.745722,0.191342,0.711940,0.304381,0.646677,0.396677,0.554381,0.461940,0.441342,0.495722,0.315263,0.495722,0.250000,0.500000,0.250000,0.500000,-0.250000,0.495722,-0.250000,0.495722,-0.315263,0.461940,-0.441342,0.396677,-0.554381,0.304381,-0.646677,0.191342,-0.711940,0.065263,-0.745722,0.000000,-0.745722,0.000000,-0.750000,-0.500000,-0.750000,
-0.500000,0.750000,0.000000,0.750000,0.000000,0.745722,0.000000,0.745722,$1*%
G04 Aperture macros list end*
%ADD10C,0.180000*%
%TA.AperFunction,NonConductor*%
%ADD11C,0.180000*%
%TD*%
%TA.AperFunction,SMDPad,CuDef*%
%ADD12RoundRect,0.250000X0.262500X0.450000X-0.262500X0.450000X-0.262500X-0.450000X0.262500X-0.450000X0*%
%TD*%
%TA.AperFunction,SMDPad,CuDef*%
%ADD13FreePoly0,0.000000*%
%TD*%
%TA.AperFunction,SMDPad,CuDef*%
%ADD14FreePoly1,0.000000*%
%TD*%
%TA.AperFunction,SMDPad,CuDef*%
%ADD15RoundRect,0.225000X0.375000X-0.225000X0.375000X0.225000X-0.375000X0.225000X-0.375000X-0.225000X0*%
%TD*%
%TA.AperFunction,SMDPad,CuDef*%
%ADD16RoundRect,0.150000X0.150000X-0.587500X0.150000X0.587500X-0.150000X0.587500X-0.150000X-0.587500X0*%
%TD*%
%TA.AperFunction,SMDPad,CuDef*%
%ADD17RoundRect,0.250000X-0.450000X0.262500X-0.450000X-0.262500X0.450000X-0.262500X0.450000X0.262500X0*%
%TD*%
%TA.AperFunction,SMDPad,CuDef*%
%ADD18RoundRect,0.249999X-0.750001X-0.640001X0.750001X-0.640001X0.750001X0.640001X-0.750001X0.640001X0*%
%TD*%
%TA.AperFunction,SMDPad,CuDef*%
%ADD19RoundRect,0.250000X-0.262500X-0.450000X0.262500X-0.450000X0.262500X0.450000X-0.262500X0.450000X0*%
%TD*%
%TA.AperFunction,SMDPad,CuDef*%
%ADD20RoundRect,0.225000X-0.225000X-0.375000X0.225000X-0.375000X0.225000X0.375000X-0.225000X0.375000X0*%
%TD*%
%TA.AperFunction,ComponentPad*%
%ADD21R,2.000000X2.000000*%
%TD*%
%TA.AperFunction,ComponentPad*%
%ADD22C,2.000000*%
%TD*%
%TA.AperFunction,ComponentPad*%
%ADD23RoundRect,0.250000X-0.265000X-0.615000X0.265000X-0.615000X0.265000X0.615000X-0.265000X0.615000X0*%
%TD*%
%TA.AperFunction,ComponentPad*%
%ADD24O,1.030000X1.730000*%
%TD*%
%TA.AperFunction,ViaPad*%
%ADD25C,0.600000*%
%TD*%
%TA.AperFunction,Conductor*%
%ADD26C,0.200000*%
%TD*%
G04 APERTURE END LIST*
D10*
D11*
X43689849Y-81374561D02*
X43832706Y-81422180D01*
X43832706Y-81422180D02*
X43880325Y-81469799D01*
X43880325Y-81469799D02*
X43927944Y-81565037D01*
X43927944Y-81565037D02*
X43927944Y-81707894D01*
X43927944Y-81707894D02*
X43880325Y-81803132D01*
X43880325Y-81803132D02*
X43832706Y-81850752D01*
X43832706Y-81850752D02*
X43737468Y-81898371D01*
X43737468Y-81898371D02*
X43356516Y-81898371D01*
X43356516Y-81898371D02*
X43356516Y-80898371D01*
X43356516Y-80898371D02*
X43689849Y-80898371D01*
X43689849Y-80898371D02*
X43785087Y-80945990D01*
X43785087Y-80945990D02*
X43832706Y-80993609D01*
X43832706Y-80993609D02*
X43880325Y-81088847D01*
X43880325Y-81088847D02*
X43880325Y-81184085D01*
X43880325Y-81184085D02*
X43832706Y-81279323D01*
X43832706Y-81279323D02*
X43785087Y-81326942D01*
X43785087Y-81326942D02*
X43689849Y-81374561D01*
X43689849Y-81374561D02*
X43356516Y-81374561D01*
X44356516Y-81898371D02*
X44356516Y-80898371D01*
X44927944Y-81898371D02*
X44499373Y-81326942D01*
X44927944Y-80898371D02*
X44356516Y-81469799D01*
X45975564Y-80898371D02*
X46546992Y-80898371D01*
X46261278Y-81898371D02*
X46261278Y-80898371D01*
X47261278Y-81850752D02*
X47166040Y-81898371D01*
X47166040Y-81898371D02*
X46975564Y-81898371D01*
X46975564Y-81898371D02*
X46880326Y-81850752D01*
X46880326Y-81850752D02*
X46832707Y-81755513D01*
X46832707Y-81755513D02*
X46832707Y-81374561D01*
X46832707Y-81374561D02*
X46880326Y-81279323D01*
X46880326Y-81279323D02*
X46975564Y-81231704D01*
X46975564Y-81231704D02*
X47166040Y-81231704D01*
X47166040Y-81231704D02*
X47261278Y-81279323D01*
X47261278Y-81279323D02*
X47308897Y-81374561D01*
X47308897Y-81374561D02*
X47308897Y-81469799D01*
X47308897Y-81469799D02*
X46832707Y-81565037D01*
X47880326Y-81898371D02*
X47785088Y-81850752D01*
X47785088Y-81850752D02*
X47737469Y-81755513D01*
X47737469Y-81755513D02*
X47737469Y-80898371D01*
X48642231Y-81850752D02*
X48546993Y-81898371D01*
X48546993Y-81898371D02*
X48356517Y-81898371D01*
X48356517Y-81898371D02*
X48261279Y-81850752D01*
X48261279Y-81850752D02*
X48213660Y-81755513D01*
X48213660Y-81755513D02*
X48213660Y-81374561D01*
X48213660Y-81374561D02*
X48261279Y-81279323D01*
X48261279Y-81279323D02*
X48356517Y-81231704D01*
X48356517Y-81231704D02*
X48546993Y-81231704D01*
X48546993Y-81231704D02*
X48642231Y-81279323D01*
X48642231Y-81279323D02*
X48689850Y-81374561D01*
X48689850Y-81374561D02*
X48689850Y-81469799D01*
X48689850Y-81469799D02*
X48213660Y-81565037D01*
X49118422Y-81898371D02*
X49118422Y-81231704D01*
X49118422Y-81326942D02*
X49166041Y-81279323D01*
X49166041Y-81279323D02*
X49261279Y-81231704D01*
X49261279Y-81231704D02*
X49404136Y-81231704D01*
X49404136Y-81231704D02*
X49499374Y-81279323D01*
X49499374Y-81279323D02*
X49546993Y-81374561D01*
X49546993Y-81374561D02*
X49546993Y-81898371D01*
X49546993Y-81374561D02*
X49594612Y-81279323D01*
X49594612Y-81279323D02*
X49689850Y-81231704D01*
X49689850Y-81231704D02*
X49832707Y-81231704D01*
X49832707Y-81231704D02*
X49927946Y-81279323D01*
X49927946Y-81279323D02*
X49975565Y-81374561D01*
X49975565Y-81374561D02*
X49975565Y-81898371D01*
X50880326Y-81898371D02*
X50880326Y-81374561D01*
X50880326Y-81374561D02*
X50832707Y-81279323D01*
X50832707Y-81279323D02*
X50737469Y-81231704D01*
X50737469Y-81231704D02*
X50546993Y-81231704D01*
X50546993Y-81231704D02*
X50451755Y-81279323D01*
X50880326Y-81850752D02*
X50785088Y-81898371D01*
X50785088Y-81898371D02*
X50546993Y-81898371D01*
X50546993Y-81898371D02*
X50451755Y-81850752D01*
X50451755Y-81850752D02*
X50404136Y-81755513D01*
X50404136Y-81755513D02*
X50404136Y-81660275D01*
X50404136Y-81660275D02*
X50451755Y-81565037D01*
X50451755Y-81565037D02*
X50546993Y-81517418D01*
X50546993Y-81517418D02*
X50785088Y-81517418D01*
X50785088Y-81517418D02*
X50880326Y-81469799D01*
X51213660Y-81231704D02*
X51594612Y-81231704D01*
X51356517Y-80898371D02*
X51356517Y-81755513D01*
X51356517Y-81755513D02*
X51404136Y-81850752D01*
X51404136Y-81850752D02*
X51499374Y-81898371D01*
X51499374Y-81898371D02*
X51594612Y-81898371D01*
X51927946Y-81898371D02*
X51927946Y-81231704D01*
X51927946Y-80898371D02*
X51880327Y-80945990D01*
X51880327Y-80945990D02*
X51927946Y-80993609D01*
X51927946Y-80993609D02*
X51975565Y-80945990D01*
X51975565Y-80945990D02*
X51927946Y-80898371D01*
X51927946Y-80898371D02*
X51927946Y-80993609D01*
X52832707Y-81850752D02*
X52737469Y-81898371D01*
X52737469Y-81898371D02*
X52546993Y-81898371D01*
X52546993Y-81898371D02*
X52451755Y-81850752D01*
X52451755Y-81850752D02*
X52404136Y-81803132D01*
X52404136Y-81803132D02*
X52356517Y-81707894D01*
X52356517Y-81707894D02*
X52356517Y-81422180D01*
X52356517Y-81422180D02*
X52404136Y-81326942D01*
X52404136Y-81326942D02*
X52451755Y-81279323D01*
X52451755Y-81279323D02*
X52546993Y-81231704D01*
X52546993Y-81231704D02*
X52737469Y-81231704D01*
X52737469Y-81231704D02*
X52832707Y-81279323D01*
X53213660Y-81850752D02*
X53308898Y-81898371D01*
X53308898Y-81898371D02*
X53499374Y-81898371D01*
X53499374Y-81898371D02*
X53594612Y-81850752D01*
X53594612Y-81850752D02*
X53642231Y-81755513D01*
X53642231Y-81755513D02*
X53642231Y-81707894D01*
X53642231Y-81707894D02*
X53594612Y-81612656D01*
X53594612Y-81612656D02*
X53499374Y-81565037D01*
X53499374Y-81565037D02*
X53356517Y-81565037D01*
X53356517Y-81565037D02*
X53261279Y-81517418D01*
X53261279Y-81517418D02*
X53213660Y-81422180D01*
X53213660Y-81422180D02*
X53213660Y-81374561D01*
X53213660Y-81374561D02*
X53261279Y-81279323D01*
X53261279Y-81279323D02*
X53356517Y-81231704D01*
X53356517Y-81231704D02*
X53499374Y-81231704D01*
X53499374Y-81231704D02*
X53594612Y-81279323D01*
X43689849Y-82984505D02*
X43832706Y-83032124D01*
X43832706Y-83032124D02*
X43880325Y-83079743D01*
X43880325Y-83079743D02*
X43927944Y-83174981D01*
X43927944Y-83174981D02*
X43927944Y-83317838D01*
X43927944Y-83317838D02*
X43880325Y-83413076D01*
X43880325Y-83413076D02*
X43832706Y-83460696D01*
X43832706Y-83460696D02*
X43737468Y-83508315D01*
X43737468Y-83508315D02*
X43356516Y-83508315D01*
X43356516Y-83508315D02*
X43356516Y-82508315D01*
X43356516Y-82508315D02*
X43689849Y-82508315D01*
X43689849Y-82508315D02*
X43785087Y-82555934D01*
X43785087Y-82555934D02*
X43832706Y-82603553D01*
X43832706Y-82603553D02*
X43880325Y-82698791D01*
X43880325Y-82698791D02*
X43880325Y-82794029D01*
X43880325Y-82794029D02*
X43832706Y-82889267D01*
X43832706Y-82889267D02*
X43785087Y-82936886D01*
X43785087Y-82936886D02*
X43689849Y-82984505D01*
X43689849Y-82984505D02*
X43356516Y-82984505D01*
X44785087Y-82841648D02*
X44785087Y-83508315D01*
X44356516Y-82841648D02*
X44356516Y-83365457D01*
X44356516Y-83365457D02*
X44404135Y-83460696D01*
X44404135Y-83460696D02*
X44499373Y-83508315D01*
X44499373Y-83508315D02*
X44642230Y-83508315D01*
X44642230Y-83508315D02*
X44737468Y-83460696D01*
X44737468Y-83460696D02*
X44785087Y-83413076D01*
X45166040Y-82841648D02*
X45689849Y-82841648D01*
X45689849Y-82841648D02*
X45166040Y-83508315D01*
X45166040Y-83508315D02*
X45689849Y-83508315D01*
X45975564Y-82841648D02*
X46499373Y-82841648D01*
X46499373Y-82841648D02*
X45975564Y-83508315D01*
X45975564Y-83508315D02*
X46499373Y-83508315D01*
X47261278Y-83460696D02*
X47166040Y-83508315D01*
X47166040Y-83508315D02*
X46975564Y-83508315D01*
X46975564Y-83508315D02*
X46880326Y-83460696D01*
X46880326Y-83460696D02*
X46832707Y-83365457D01*
X46832707Y-83365457D02*
X46832707Y-82984505D01*
X46832707Y-82984505D02*
X46880326Y-82889267D01*
X46880326Y-82889267D02*
X46975564Y-82841648D01*
X46975564Y-82841648D02*
X47166040Y-82841648D01*
X47166040Y-82841648D02*
X47261278Y-82889267D01*
X47261278Y-82889267D02*
X47308897Y-82984505D01*
X47308897Y-82984505D02*
X47308897Y-83079743D01*
X47308897Y-83079743D02*
X46832707Y-83174981D01*
X47737469Y-83508315D02*
X47737469Y-82841648D01*
X47737469Y-83032124D02*
X47785088Y-82936886D01*
X47785088Y-82936886D02*
X47832707Y-82889267D01*
X47832707Y-82889267D02*
X47927945Y-82841648D01*
X47927945Y-82841648D02*
X48023183Y-82841648D01*
X49118422Y-83127362D02*
X49880327Y-83127362D01*
X51118422Y-83508315D02*
X51118422Y-82508315D01*
X51118422Y-82508315D02*
X51356517Y-82508315D01*
X51356517Y-82508315D02*
X51499374Y-82555934D01*
X51499374Y-82555934D02*
X51594612Y-82651172D01*
X51594612Y-82651172D02*
X51642231Y-82746410D01*
X51642231Y-82746410D02*
X51689850Y-82936886D01*
X51689850Y-82936886D02*
X51689850Y-83079743D01*
X51689850Y-83079743D02*
X51642231Y-83270219D01*
X51642231Y-83270219D02*
X51594612Y-83365457D01*
X51594612Y-83365457D02*
X51499374Y-83460696D01*
X51499374Y-83460696D02*
X51356517Y-83508315D01*
X51356517Y-83508315D02*
X51118422Y-83508315D01*
X52261279Y-83508315D02*
X52166041Y-83460696D01*
X52166041Y-83460696D02*
X52118422Y-83413076D01*
X52118422Y-83413076D02*
X52070803Y-83317838D01*
X52070803Y-83317838D02*
X52070803Y-83032124D01*
X52070803Y-83032124D02*
X52118422Y-82936886D01*
X52118422Y-82936886D02*
X52166041Y-82889267D01*
X52166041Y-82889267D02*
X52261279Y-82841648D01*
X52261279Y-82841648D02*
X52404136Y-82841648D01*
X52404136Y-82841648D02*
X52499374Y-82889267D01*
X52499374Y-82889267D02*
X52546993Y-82936886D01*
X52546993Y-82936886D02*
X52594612Y-83032124D01*
X52594612Y-83032124D02*
X52594612Y-83317838D01*
X52594612Y-83317838D02*
X52546993Y-83413076D01*
X52546993Y-83413076D02*
X52499374Y-83460696D01*
X52499374Y-83460696D02*
X52404136Y-83508315D01*
X52404136Y-83508315D02*
X52261279Y-83508315D01*
X53166041Y-83508315D02*
X53070803Y-83460696D01*
X53070803Y-83460696D02*
X53023184Y-83413076D01*
X53023184Y-83413076D02*
X52975565Y-83317838D01*
X52975565Y-83317838D02*
X52975565Y-83032124D01*
X52975565Y-83032124D02*
X53023184Y-82936886D01*
X53023184Y-82936886D02*
X53070803Y-82889267D01*
X53070803Y-82889267D02*
X53166041Y-82841648D01*
X53166041Y-82841648D02*
X53308898Y-82841648D01*
X53308898Y-82841648D02*
X53404136Y-82889267D01*
X53404136Y-82889267D02*
X53451755Y-82936886D01*
X53451755Y-82936886D02*
X53499374Y-83032124D01*
X53499374Y-83032124D02*
X53499374Y-83317838D01*
X53499374Y-83317838D02*
X53451755Y-83413076D01*
X53451755Y-83413076D02*
X53404136Y-83460696D01*
X53404136Y-83460696D02*
X53308898Y-83508315D01*
X53308898Y-83508315D02*
X53166041Y-83508315D01*
X53927946Y-83508315D02*
X53927946Y-82841648D01*
X53927946Y-83032124D02*
X53975565Y-82936886D01*
X53975565Y-82936886D02*
X54023184Y-82889267D01*
X54023184Y-82889267D02*
X54118422Y-82841648D01*
X54118422Y-82841648D02*
X54213660Y-82841648D01*
X55261280Y-83460696D02*
X55404137Y-83508315D01*
X55404137Y-83508315D02*
X55642232Y-83508315D01*
X55642232Y-83508315D02*
X55737470Y-83460696D01*
X55737470Y-83460696D02*
X55785089Y-83413076D01*
X55785089Y-83413076D02*
X55832708Y-83317838D01*
X55832708Y-83317838D02*
X55832708Y-83222600D01*
X55832708Y-83222600D02*
X55785089Y-83127362D01*
X55785089Y-83127362D02*
X55737470Y-83079743D01*
X55737470Y-83079743D02*
X55642232Y-83032124D01*
X55642232Y-83032124D02*
X55451756Y-82984505D01*
X55451756Y-82984505D02*
X55356518Y-82936886D01*
X55356518Y-82936886D02*
X55308899Y-82889267D01*
X55308899Y-82889267D02*
X55261280Y-82794029D01*
X55261280Y-82794029D02*
X55261280Y-82698791D01*
X55261280Y-82698791D02*
X55308899Y-82603553D01*
X55308899Y-82603553D02*
X55356518Y-82555934D01*
X55356518Y-82555934D02*
X55451756Y-82508315D01*
X55451756Y-82508315D02*
X55689851Y-82508315D01*
X55689851Y-82508315D02*
X55832708Y-82555934D01*
X56642232Y-83460696D02*
X56546994Y-83508315D01*
X56546994Y-83508315D02*
X56356518Y-83508315D01*
X56356518Y-83508315D02*
X56261280Y-83460696D01*
X56261280Y-83460696D02*
X56213661Y-83365457D01*
X56213661Y-83365457D02*
X56213661Y-82984505D01*
X56213661Y-82984505D02*
X56261280Y-82889267D01*
X56261280Y-82889267D02*
X56356518Y-82841648D01*
X56356518Y-82841648D02*
X56546994Y-82841648D01*
X56546994Y-82841648D02*
X56642232Y-82889267D01*
X56642232Y-82889267D02*
X56689851Y-82984505D01*
X56689851Y-82984505D02*
X56689851Y-83079743D01*
X56689851Y-83079743D02*
X56213661Y-83174981D01*
X57118423Y-82841648D02*
X57118423Y-83508315D01*
X57118423Y-82936886D02*
X57166042Y-82889267D01*
X57166042Y-82889267D02*
X57261280Y-82841648D01*
X57261280Y-82841648D02*
X57404137Y-82841648D01*
X57404137Y-82841648D02*
X57499375Y-82889267D01*
X57499375Y-82889267D02*
X57546994Y-82984505D01*
X57546994Y-82984505D02*
X57546994Y-83508315D01*
X57975566Y-83460696D02*
X58070804Y-83508315D01*
X58070804Y-83508315D02*
X58261280Y-83508315D01*
X58261280Y-83508315D02*
X58356518Y-83460696D01*
X58356518Y-83460696D02*
X58404137Y-83365457D01*
X58404137Y-83365457D02*
X58404137Y-83317838D01*
X58404137Y-83317838D02*
X58356518Y-83222600D01*
X58356518Y-83222600D02*
X58261280Y-83174981D01*
X58261280Y-83174981D02*
X58118423Y-83174981D01*
X58118423Y-83174981D02*
X58023185Y-83127362D01*
X58023185Y-83127362D02*
X57975566Y-83032124D01*
X57975566Y-83032124D02*
X57975566Y-82984505D01*
X57975566Y-82984505D02*
X58023185Y-82889267D01*
X58023185Y-82889267D02*
X58118423Y-82841648D01*
X58118423Y-82841648D02*
X58261280Y-82841648D01*
X58261280Y-82841648D02*
X58356518Y-82889267D01*
X58975566Y-83508315D02*
X58880328Y-83460696D01*
X58880328Y-83460696D02*
X58832709Y-83413076D01*
X58832709Y-83413076D02*
X58785090Y-83317838D01*
X58785090Y-83317838D02*
X58785090Y-83032124D01*
X58785090Y-83032124D02*
X58832709Y-82936886D01*
X58832709Y-82936886D02*
X58880328Y-82889267D01*
X58880328Y-82889267D02*
X58975566Y-82841648D01*
X58975566Y-82841648D02*
X59118423Y-82841648D01*
X59118423Y-82841648D02*
X59213661Y-82889267D01*
X59213661Y-82889267D02*
X59261280Y-82936886D01*
X59261280Y-82936886D02*
X59308899Y-83032124D01*
X59308899Y-83032124D02*
X59308899Y-83317838D01*
X59308899Y-83317838D02*
X59261280Y-83413076D01*
X59261280Y-83413076D02*
X59213661Y-83460696D01*
X59213661Y-83460696D02*
X59118423Y-83508315D01*
X59118423Y-83508315D02*
X58975566Y-83508315D01*
X59737471Y-83508315D02*
X59737471Y-82841648D01*
X59737471Y-83032124D02*
X59785090Y-82936886D01*
X59785090Y-82936886D02*
X59832709Y-82889267D01*
X59832709Y-82889267D02*
X59927947Y-82841648D01*
X59927947Y-82841648D02*
X60023185Y-82841648D01*
X43213659Y-84118259D02*
X43546992Y-85118259D01*
X43546992Y-85118259D02*
X43880325Y-84118259D01*
X44594611Y-85070640D02*
X44499373Y-85118259D01*
X44499373Y-85118259D02*
X44308897Y-85118259D01*
X44308897Y-85118259D02*
X44213659Y-85070640D01*
X44213659Y-85070640D02*
X44166040Y-84975401D01*
X44166040Y-84975401D02*
X44166040Y-84594449D01*
X44166040Y-84594449D02*
X44213659Y-84499211D01*
X44213659Y-84499211D02*
X44308897Y-84451592D01*
X44308897Y-84451592D02*
X44499373Y-84451592D01*
X44499373Y-84451592D02*
X44594611Y-84499211D01*
X44594611Y-84499211D02*
X44642230Y-84594449D01*
X44642230Y-84594449D02*
X44642230Y-84689687D01*
X44642230Y-84689687D02*
X44166040Y-84784925D01*
X45070802Y-85118259D02*
X45070802Y-84451592D01*
X45070802Y-84642068D02*
X45118421Y-84546830D01*
X45118421Y-84546830D02*
X45166040Y-84499211D01*
X45166040Y-84499211D02*
X45261278Y-84451592D01*
X45261278Y-84451592D02*
X45356516Y-84451592D01*
X46404136Y-84213497D02*
X46451755Y-84165878D01*
X46451755Y-84165878D02*
X46546993Y-84118259D01*
X46546993Y-84118259D02*
X46785088Y-84118259D01*
X46785088Y-84118259D02*
X46880326Y-84165878D01*
X46880326Y-84165878D02*
X46927945Y-84213497D01*
X46927945Y-84213497D02*
X46975564Y-84308735D01*
X46975564Y-84308735D02*
X46975564Y-84403973D01*
X46975564Y-84403973D02*
X46927945Y-84546830D01*
X46927945Y-84546830D02*
X46356517Y-85118259D01*
X46356517Y-85118259D02*
X46975564Y-85118259D01*
X47404136Y-85023020D02*
X47451755Y-85070640D01*
X47451755Y-85070640D02*
X47404136Y-85118259D01*
X47404136Y-85118259D02*
X47356517Y-85070640D01*
X47356517Y-85070640D02*
X47404136Y-85023020D01*
X47404136Y-85023020D02*
X47404136Y-85118259D01*
X48070802Y-84118259D02*
X48166040Y-84118259D01*
X48166040Y-84118259D02*
X48261278Y-84165878D01*
X48261278Y-84165878D02*
X48308897Y-84213497D01*
X48308897Y-84213497D02*
X48356516Y-84308735D01*
X48356516Y-84308735D02*
X48404135Y-84499211D01*
X48404135Y-84499211D02*
X48404135Y-84737306D01*
X48404135Y-84737306D02*
X48356516Y-84927782D01*
X48356516Y-84927782D02*
X48308897Y-85023020D01*
X48308897Y-85023020D02*
X48261278Y-85070640D01*
X48261278Y-85070640D02*
X48166040Y-85118259D01*
X48166040Y-85118259D02*
X48070802Y-85118259D01*
X48070802Y-85118259D02*
X47975564Y-85070640D01*
X47975564Y-85070640D02*
X47927945Y-85023020D01*
X47927945Y-85023020D02*
X47880326Y-84927782D01*
X47880326Y-84927782D02*
X47832707Y-84737306D01*
X47832707Y-84737306D02*
X47832707Y-84499211D01*
X47832707Y-84499211D02*
X47880326Y-84308735D01*
X47880326Y-84308735D02*
X47927945Y-84213497D01*
X47927945Y-84213497D02*
X47975564Y-84165878D01*
X47975564Y-84165878D02*
X48070802Y-84118259D01*
D12*
%TO.P,R1,1*%
%TO.N,/Buzzer_IN*%
X47527500Y-70250000D03*
%TO.P,R1,2*%
%TO.N,Net-(D1-K)*%
X45702500Y-70250000D03*
%TD*%
D13*
%TO.P,JP1,1,A*%
%TO.N,GND1*%
X64200000Y-73250000D03*
D14*
%TO.P,JP1,2,B*%
%TO.N,GND*%
X65500000Y-73250000D03*
%TD*%
D15*
%TO.P,D3,1,K*%
%TO.N,Net-(D3-K)*%
X53642500Y-65650000D03*
%TO.P,D3,2,A*%
%TO.N,Net-(D3-A)*%
X53642500Y-62350000D03*
%TD*%
%TO.P,D2,1,K*%
%TO.N,Net-(D2-K)*%
X51250000Y-65650000D03*
%TO.P,D2,2,A*%
%TO.N,Net-(D2-A)*%
X51250000Y-62350000D03*
%TD*%
D16*
%TO.P,Q2,1,B*%
%TO.N,Net-(D1-K)*%
X45645000Y-63735043D03*
%TO.P,Q2,2,E*%
%TO.N,GND*%
X47545000Y-63735043D03*
%TO.P,Q2,3,C*%
%TO.N,Net-(BZ1--)*%
X46595000Y-61860043D03*
%TD*%
D17*
%TO.P,R6,1*%
%TO.N,Net-(D3-K)*%
X54750000Y-69007500D03*
%TO.P,R6,2*%
%TO.N,/IN_B*%
X54750000Y-70832500D03*
%TD*%
%TO.P,R5,1*%
%TO.N,Net-(D2-K)*%
X52750000Y-68997500D03*
%TO.P,R5,2*%
%TO.N,/IN_A*%
X52750000Y-70822500D03*
%TD*%
D18*
%TO.P,U1,1*%
%TO.N,Net-(D2-A)*%
X56985000Y-62190000D03*
%TO.P,U1,2*%
%TO.N,GND1*%
X56985000Y-64730000D03*
%TO.P,U1,3*%
%TO.N,Net-(D3-A)*%
X56985000Y-67270000D03*
%TO.P,U1,4*%
%TO.N,GND2*%
X56985000Y-69810000D03*
%TO.P,U1,5*%
%TO.N,GND*%
X66515000Y-69810000D03*
%TO.P,U1,6*%
%TO.N,/OUT_B*%
X66515000Y-67270000D03*
%TO.P,U1,7*%
%TO.N,GND*%
X66515000Y-64730000D03*
%TO.P,U1,8*%
%TO.N,/OUT_A*%
X66515000Y-62190000D03*
%TD*%
D19*
%TO.P,R2,1*%
%TO.N,GND*%
X45702500Y-65735043D03*
%TO.P,R2,2*%
%TO.N,Net-(D1-K)*%
X47527500Y-65735043D03*
%TD*%
D20*
%TO.P,D1,1,K*%
%TO.N,Net-(D1-K)*%
X44600000Y-68000000D03*
%TO.P,D1,2,A*%
%TO.N,GND*%
X47900000Y-68000000D03*
%TD*%
D13*
%TO.P,JP2,1,A*%
%TO.N,GND2*%
X64200000Y-76000000D03*
D14*
%TO.P,JP2,2,B*%
%TO.N,GND*%
X65500000Y-76000000D03*
%TD*%
D21*
%TO.P,BZ1,1,+*%
%TO.N,VCC*%
X43790000Y-58970000D03*
D22*
%TO.P,BZ1,2,-*%
%TO.N,Net-(BZ1--)*%
X61290000Y-58970000D03*
%TD*%
D23*
%TO.P,J10,1,Pin_1*%
%TO.N,VCC*%
X49000000Y-73750000D03*
D24*
%TO.P,J10,2,Pin_2*%
%TO.N,/Buzzer_IN*%
X50500000Y-73750000D03*
%TO.P,J10,3,Pin_3*%
%TO.N,GND*%
X52000000Y-73750000D03*
%TO.P,J10,4,Pin_4*%
%TO.N,/IN_A*%
X53500000Y-73750000D03*
%TO.P,J10,5,Pin_5*%
%TO.N,/IN_B*%
X55000000Y-73750000D03*
%TO.P,J10,6,Pin_6*%
%TO.N,/OUT_A*%
X56500000Y-73750000D03*
%TO.P,J10,7,Pin_7*%
%TO.N,/OUT_B*%
X58000000Y-73750000D03*
%TO.P,J10,8,Pin_8*%
%TO.N,GND2*%
X59500000Y-73750000D03*
%TO.P,J10,9,Pin_9*%
%TO.N,GND1*%
X61000000Y-73750000D03*
%TD*%
D25*
%TO.N,GND*%
X47740000Y-43980000D03*
X44750000Y-65750000D03*
X68410000Y-74355000D03*
X68410000Y-58762500D03*
X66350000Y-73270000D03*
X56922500Y-86260000D03*
X62150000Y-82690000D03*
X41330000Y-81950000D03*
X47510000Y-47350000D03*
X68410000Y-79552500D03*
X48250000Y-63750000D03*
X65000000Y-69750000D03*
X46527500Y-86260000D03*
X68530000Y-43980000D03*
X46950000Y-68060000D03*
X52937500Y-43980000D03*
X62120000Y-86260000D03*
X68410000Y-69157500D03*
X63332500Y-43980000D03*
X41250000Y-66082500D03*
X58135000Y-43980000D03*
X41250000Y-71280000D03*
X41250000Y-55687500D03*
X65000000Y-64750000D03*
X66410000Y-76020000D03*
X41250000Y-50490000D03*
X51725000Y-86260000D03*
X41330000Y-86260000D03*
X44620000Y-50360000D03*
X41250000Y-60885000D03*
X65040000Y-79680000D03*
X68410000Y-63960000D03*
%TO.N,/OUT_A*%
X61250000Y-67750000D03*
%TO.N,/OUT_B*%
X64250000Y-67750000D03*
%TD*%
D26*
%TO.N,Net-(BZ1--)*%
X49750000Y-58970000D02*
X61290000Y-58970000D01*
X46595000Y-61860043D02*
X46859957Y-61860043D01*
X46859957Y-61860043D02*
X49750000Y-58970000D01*
%TO.N,Net-(D1-K)*%
X47527500Y-66000000D02*
X47527500Y-65735043D01*
X44600000Y-69650000D02*
X44600000Y-68000000D01*
X47527500Y-66372500D02*
X47527500Y-65735043D01*
X45702500Y-70250000D02*
X45200000Y-70250000D01*
X47527500Y-65617543D02*
X45645000Y-63735043D01*
X44600000Y-68000000D02*
X45630000Y-66970000D01*
X47527500Y-65735043D02*
X47527500Y-65617543D01*
X45702500Y-70250000D02*
X45952500Y-70250000D01*
X47500000Y-66027500D02*
X47527500Y-66000000D01*
X45630000Y-66970000D02*
X46930000Y-66970000D01*
X46930000Y-66970000D02*
X47527500Y-66372500D01*
X45200000Y-70250000D02*
X44600000Y-69650000D01*
%TO.N,GND*%
X47527500Y-68027500D02*
X47500000Y-68000000D01*
%TO.N,Net-(D2-K)*%
X51250000Y-66500000D02*
X52750000Y-68000000D01*
X52750000Y-68000000D02*
X52750000Y-68997500D01*
X51250000Y-65650000D02*
X51250000Y-66500000D01*
%TO.N,Net-(D2-A)*%
X51250000Y-61750000D02*
X51750000Y-61250000D01*
X51250000Y-62350000D02*
X51250000Y-61750000D01*
X51750000Y-61250000D02*
X55000000Y-61250000D01*
X55000000Y-61250000D02*
X55940000Y-62190000D01*
X55940000Y-62190000D02*
X56985000Y-62190000D01*
%TO.N,Net-(D3-A)*%
X56985000Y-67270000D02*
X56985000Y-67235000D01*
X55500000Y-65750000D02*
X55500000Y-63750000D01*
X53642500Y-62350000D02*
X54100000Y-62350000D01*
X54100000Y-62350000D02*
X55500000Y-63750000D01*
X56985000Y-67235000D02*
X55500000Y-65750000D01*
%TO.N,Net-(D3-K)*%
X54750000Y-69007500D02*
X54750000Y-67957500D01*
X54146250Y-67353750D02*
X53792500Y-67000000D01*
X53642500Y-65650000D02*
X53642500Y-66850000D01*
X54750000Y-67957500D02*
X54146250Y-67353750D01*
X53642500Y-66850000D02*
X54146250Y-67353750D01*
%TO.N,/IN_A*%
X53500000Y-72250000D02*
X53500000Y-73750000D01*
X52750000Y-70822500D02*
X52750000Y-71500000D01*
X52750000Y-71500000D02*
X53500000Y-72250000D01*
%TO.N,/IN_B*%
X54750000Y-72000000D02*
X55000000Y-72250000D01*
X55000000Y-72250000D02*
X55000000Y-73750000D01*
X54750000Y-70832500D02*
X54750000Y-72000000D01*
%TO.N,GND1*%
X62500000Y-73250000D02*
X64200000Y-73250000D01*
X58377500Y-66122500D02*
X56985000Y-64730000D01*
X61000000Y-73750000D02*
X61000000Y-72750000D01*
X58377500Y-70127500D02*
X58377500Y-66122500D01*
X61000000Y-73750000D02*
X62000000Y-73750000D01*
X62000000Y-73750000D02*
X62500000Y-73250000D01*
X61000000Y-72750000D02*
X58377500Y-70127500D01*
%TO.N,GND2*%
X59500000Y-73750000D02*
X59500000Y-72325000D01*
X59500000Y-73750000D02*
X59500000Y-74100000D01*
X59500000Y-72325000D02*
X56985000Y-69810000D01*
X60900000Y-75500000D02*
X63000000Y-75500000D01*
X59500000Y-74100000D02*
X60900000Y-75500000D01*
X63000000Y-75500000D02*
X63500000Y-76000000D01*
X63500000Y-76000000D02*
X64200000Y-76000000D01*
%TO.N,/OUT_A*%
X61250000Y-65750000D02*
X61250000Y-67750000D01*
X64810000Y-62190000D02*
X61250000Y-65750000D01*
X66515000Y-62190000D02*
X64810000Y-62190000D01*
%TO.N,/OUT_B*%
X64730000Y-67270000D02*
X64250000Y-67750000D01*
X66515000Y-67270000D02*
X64730000Y-67270000D01*
%TO.N,/Buzzer_IN*%
X50500000Y-73222500D02*
X50500000Y-73750000D01*
X47527500Y-70250000D02*
X50500000Y-73222500D01*
%TD*%
%TA.AperFunction,Conductor*%
%TO.N,GND*%
G36*
X68942539Y-43520185D02*
G01*
X68988294Y-43572989D01*
X68999500Y-43624500D01*
X68999500Y-80125170D01*
X68979815Y-80192209D01*
X68927011Y-80237964D01*
X68875500Y-80249170D01*
X66315537Y-80249170D01*
X66315511Y-80249163D01*
X66249619Y-80249170D01*
X66176572Y-80249170D01*
X66176462Y-80249176D01*
X66065386Y-80249187D01*
X65698657Y-80285339D01*
X65337268Y-80357254D01*
X65337266Y-80357254D01*
X64984662Y-80464240D01*
X64644227Y-80605273D01*
X64319256Y-80778990D01*
X64012883Y-80983713D01*
X63728041Y-81217482D01*
X63467482Y-81478041D01*
X63233713Y-81762883D01*
X63028990Y-82069256D01*
X62855273Y-82394227D01*
X62714240Y-82734662D01*
X62607254Y-83087266D01*
X62607254Y-83087268D01*
X62535339Y-83448657D01*
X62499187Y-83815386D01*
X62499171Y-83993854D01*
X62499170Y-83999619D01*
X62499163Y-84065511D01*
X62499460Y-84066619D01*
X62499499Y-84075661D01*
X62499471Y-84075756D01*
X62499500Y-84076195D01*
X62499500Y-86625500D01*
X62479815Y-86692539D01*
X62427011Y-86738294D01*
X62375500Y-86749500D01*
X40874500Y-86749500D01*
X40807461Y-86729815D01*
X40761706Y-86677011D01*
X40750500Y-86625500D01*
X40750500Y-85714789D01*
X42617129Y-85714789D01*
X60618685Y-85714789D01*
X60618685Y-80301842D01*
X42617129Y-80301842D01*
X42617129Y-85714789D01*
X40750500Y-85714789D01*
X40750500Y-75128711D01*
X41259500Y-75128711D01*
X41259500Y-75371288D01*
X41291161Y-75611785D01*
X41353947Y-75846104D01*
X41409624Y-75980520D01*
X41446776Y-76070212D01*
X41568064Y-76280289D01*
X41568066Y-76280292D01*
X41568067Y-76280293D01*
X41715733Y-76472736D01*
X41715739Y-76472743D01*
X41887256Y-76644260D01*
X41887263Y-76644266D01*
X41954359Y-76695750D01*
X42079711Y-76791936D01*
X42289788Y-76913224D01*
X42513900Y-77006054D01*
X42748211Y-77068838D01*
X42928586Y-77092584D01*
X42988711Y-77100500D01*
X42988712Y-77100500D01*
X43231289Y-77100500D01*
X43279388Y-77094167D01*
X43471789Y-77068838D01*
X43706100Y-77006054D01*
X43930212Y-76913224D01*
X44140289Y-76791936D01*
X44332738Y-76644265D01*
X44504265Y-76472738D01*
X44651936Y-76280289D01*
X44773224Y-76070212D01*
X44866054Y-75846100D01*
X44928838Y-75611789D01*
X44960500Y-75371288D01*
X44960500Y-75128712D01*
X44958735Y-75115309D01*
X44946594Y-75023081D01*
X44928838Y-74888211D01*
X44866054Y-74653900D01*
X44773224Y-74429788D01*
X44651936Y-74219711D01*
X44504265Y-74027262D01*
X44504260Y-74027256D01*
X44332743Y-73855739D01*
X44332736Y-73855733D01*
X44140293Y-73708067D01*
X44140292Y-73708066D01*
X44140289Y-73708064D01*
X43930212Y-73586776D01*
X43930205Y-73586773D01*
X43706104Y-73493947D01*
X43471785Y-73431161D01*
X43231289Y-73399500D01*
X43231288Y-73399500D01*
X42988712Y-73399500D01*
X42988711Y-73399500D01*
X42748214Y-73431161D01*
X42513895Y-73493947D01*
X42289794Y-73586773D01*
X42289785Y-73586777D01*
X42079706Y-73708067D01*
X41887263Y-73855733D01*
X41887256Y-73855739D01*
X41715739Y-74027256D01*
X41715733Y-74027263D01*
X41568067Y-74219706D01*
X41446777Y-74429785D01*
X41446773Y-74429794D01*
X41353947Y-74653895D01*
X41291161Y-74888214D01*
X41259500Y-75128711D01*
X40750500Y-75128711D01*
X40750500Y-67576647D01*
X43649500Y-67576647D01*
X43649500Y-68423337D01*
X43649501Y-68423355D01*
X43659650Y-68522707D01*
X43659651Y-68522710D01*
X43712996Y-68683694D01*
X43713001Y-68683705D01*
X43802029Y-68828040D01*
X43802032Y-68828044D01*
X43921956Y-68947968D01*
X43940596Y-68959465D01*
X43987321Y-69011412D01*
X43999500Y-69065004D01*
X43999500Y-69563330D01*
X43999499Y-69563348D01*
X43999499Y-69729054D01*
X43999498Y-69729054D01*
X43999499Y-69729057D01*
X44040423Y-69881785D01*
X44041495Y-69883642D01*
X44042377Y-69885168D01*
X44042382Y-69885189D01*
X44042387Y-69885187D01*
X44119475Y-70018709D01*
X44119481Y-70018717D01*
X44238349Y-70137585D01*
X44238355Y-70137590D01*
X44653181Y-70552416D01*
X44686666Y-70613739D01*
X44689500Y-70640096D01*
X44689500Y-70750000D01*
X44689501Y-70750019D01*
X44700000Y-70852796D01*
X44700001Y-70852799D01*
X44755185Y-71019331D01*
X44755186Y-71019334D01*
X44847288Y-71168656D01*
X44971344Y-71292712D01*
X45120666Y-71384814D01*
X45287203Y-71439999D01*
X45389991Y-71450500D01*
X46015008Y-71450499D01*
X46015016Y-71450498D01*
X46015019Y-71450498D01*
X46071302Y-71444748D01*
X46117797Y-71439999D01*
X46284334Y-71384814D01*
X46433656Y-71292712D01*
X46527319Y-71199049D01*
X46588642Y-71165564D01*
X46658334Y-71170548D01*
X46702681Y-71199049D01*
X46796344Y-71292712D01*
X46945666Y-71384814D01*
X47112203Y-71439999D01*
X47214991Y-71450500D01*
X47827402Y-71450499D01*
X47894441Y-71470183D01*
X47915083Y-71486818D01*
X48621114Y-72192849D01*
X48654599Y-72254172D01*
X48649615Y-72323864D01*
X48607743Y-72379797D01*
X48572438Y-72398236D01*
X48415666Y-72450186D01*
X48415663Y-72450187D01*
X48266342Y-72542289D01*
X48142289Y-72666342D01*
X48050187Y-72815663D01*
X48050186Y-72815666D01*
X47995001Y-72982203D01*
X47995001Y-72982204D01*
X47995000Y-72982204D01*
X47984500Y-73084983D01*
X47984500Y-74415001D01*
X47984501Y-74415018D01*
X47995000Y-74517796D01*
X47995001Y-74517799D01*
X48040099Y-74653895D01*
X48050186Y-74684334D01*
X48142288Y-74833656D01*
X48266344Y-74957712D01*
X48415666Y-75049814D01*
X48582203Y-75104999D01*
X48684991Y-75115500D01*
X49315008Y-75115499D01*
X49315016Y-75115498D01*
X49315019Y-75115498D01*
X49371302Y-75109748D01*
X49417797Y-75104999D01*
X49584334Y-75049814D01*
X49733656Y-74957712D01*
X49750674Y-74940693D01*
X49811994Y-74907206D01*
X49881686Y-74912187D01*
X49907249Y-74925269D01*
X50018973Y-74999921D01*
X50018986Y-74999928D01*
X50115749Y-75040008D01*
X50203789Y-75076475D01*
X50347185Y-75104998D01*
X50399977Y-75115499D01*
X50399981Y-75115500D01*
X50399982Y-75115500D01*
X50600019Y-75115500D01*
X50600020Y-75115499D01*
X50796211Y-75076475D01*
X50981020Y-74999925D01*
X51147344Y-74888791D01*
X51288791Y-74747344D01*
X51399925Y-74581020D01*
X51476475Y-74396211D01*
X51515500Y-74200018D01*
X51515500Y-73299982D01*
X51476475Y-73103789D01*
X51423901Y-72976863D01*
X51399928Y-72918986D01*
X51399921Y-72918973D01*
X51288791Y-72752656D01*
X51288788Y-72752652D01*
X51147347Y-72611211D01*
X51147343Y-72611208D01*
X50981026Y-72500078D01*
X50981013Y-72500071D01*
X50796215Y-72423526D01*
X50796203Y-72423523D01*
X50600022Y-72384500D01*
X50600018Y-72384500D01*
X50562597Y-72384500D01*
X50495558Y-72364815D01*
X50474916Y-72348181D01*
X48576818Y-70450083D01*
X48543333Y-70388760D01*
X48540499Y-70362402D01*
X48540499Y-69749998D01*
X48540498Y-69749981D01*
X48529999Y-69647203D01*
X48529998Y-69647200D01*
X48504729Y-69570943D01*
X48474814Y-69480666D01*
X48382712Y-69331344D01*
X48258656Y-69207288D01*
X48109334Y-69115186D01*
X47942797Y-69060001D01*
X47942795Y-69060000D01*
X47840010Y-69049500D01*
X47214998Y-69049500D01*
X47214980Y-69049501D01*
X47112203Y-69060000D01*
X47112200Y-69060001D01*
X46945668Y-69115185D01*
X46945663Y-69115187D01*
X46796342Y-69207289D01*
X46702681Y-69300951D01*
X46641358Y-69334436D01*
X46571666Y-69329452D01*
X46527319Y-69300951D01*
X46433657Y-69207289D01*
X46433656Y-69207288D01*
X46284334Y-69115186D01*
X46117797Y-69060001D01*
X46117795Y-69060000D01*
X46015016Y-69049500D01*
X45475873Y-69049500D01*
X45408834Y-69029815D01*
X45363079Y-68977011D01*
X45353135Y-68907853D01*
X45382160Y-68844297D01*
X45388181Y-68837830D01*
X45397968Y-68828044D01*
X45487003Y-68683697D01*
X45540349Y-68522708D01*
X45550500Y-68423345D01*
X45550499Y-67950096D01*
X45570183Y-67883058D01*
X45586818Y-67862416D01*
X45842416Y-67606819D01*
X45903739Y-67573334D01*
X45930097Y-67570500D01*
X46843331Y-67570500D01*
X46843347Y-67570501D01*
X46850943Y-67570501D01*
X47009054Y-67570501D01*
X47009057Y-67570501D01*
X47161785Y-67529577D01*
X47211904Y-67500639D01*
X47298716Y-67450520D01*
X47410520Y-67338716D01*
X47410521Y-67338714D01*
X47779506Y-66969728D01*
X47840827Y-66936245D01*
X47854584Y-66934053D01*
X47903492Y-66929057D01*
X47942797Y-66925042D01*
X48109334Y-66869857D01*
X48258656Y-66777755D01*
X48382712Y-66653699D01*
X48474814Y-66504377D01*
X48529999Y-66337840D01*
X48540500Y-66235052D01*
X48540499Y-65235035D01*
X48529999Y-65132246D01*
X48474814Y-64965709D01*
X48382712Y-64816387D01*
X48258656Y-64692331D01*
X48109334Y-64600229D01*
X47942797Y-64545044D01*
X47942795Y-64545043D01*
X47840016Y-64534543D01*
X47840009Y-64534543D01*
X47345097Y-64534543D01*
X47278058Y-64514858D01*
X47257416Y-64498224D01*
X46481819Y-63722627D01*
X46448334Y-63661304D01*
X46445500Y-63634946D01*
X46445500Y-63222043D01*
X46465185Y-63155004D01*
X46517989Y-63109249D01*
X46569500Y-63098043D01*
X46810686Y-63098043D01*
X46810694Y-63098043D01*
X46847569Y-63095141D01*
X46847571Y-63095140D01*
X46847573Y-63095140D01*
X46893347Y-63081841D01*
X47005398Y-63049287D01*
X47146865Y-62965624D01*
X47263081Y-62849408D01*
X47346744Y-62707941D01*
X47392598Y-62550112D01*
X47395500Y-62513237D01*
X47395500Y-62225097D01*
X47404144Y-62195656D01*
X47410668Y-62165670D01*
X47414422Y-62160654D01*
X47415185Y-62158058D01*
X47431819Y-62137416D01*
X47492588Y-62076647D01*
X50149500Y-62076647D01*
X50149500Y-62623337D01*
X50149501Y-62623355D01*
X50159650Y-62722707D01*
X50159651Y-62722710D01*
X50212996Y-62883694D01*
X50213001Y-62883705D01*
X50302029Y-63028040D01*
X50302032Y-63028044D01*
X50421955Y-63147967D01*
X50421959Y-63147970D01*
X50566294Y-63236998D01*
X50566297Y-63236999D01*
X50566303Y-63237003D01*
X50727292Y-63290349D01*
X50826655Y-63300500D01*
X51673344Y-63300499D01*
X51673352Y-63300498D01*
X51673355Y-63300498D01*
X51727760Y-63294940D01*
X51772708Y-63290349D01*
X51933697Y-63237003D01*
X52078044Y-63147968D01*
X52197968Y-63028044D01*
X52287003Y-62883697D01*
X52328544Y-62758332D01*
X52368317Y-62700888D01*
X52432832Y-62674065D01*
X52501608Y-62686380D01*
X52552808Y-62733923D01*
X52563956Y-62758333D01*
X52605496Y-62883694D01*
X52605501Y-62883705D01*
X52694529Y-63028040D01*
X52694532Y-63028044D01*
X52814455Y-63147967D01*
X52814459Y-63147970D01*
X52958794Y-63236998D01*
X52958797Y-63236999D01*
X52958803Y-63237003D01*
X53119792Y-63290349D01*
X53219155Y-63300500D01*
X54065844Y-63300499D01*
X54130096Y-63293935D01*
X54198786Y-63306704D01*
X54230377Y-63329612D01*
X54863181Y-63962416D01*
X54896666Y-64023739D01*
X54899500Y-64050097D01*
X54899500Y-65035737D01*
X54879815Y-65102776D01*
X54827011Y-65148531D01*
X54757853Y-65158475D01*
X54694297Y-65129450D01*
X54669962Y-65100834D01*
X54590470Y-64971959D01*
X54590467Y-64971955D01*
X54470544Y-64852032D01*
X54470540Y-64852029D01*
X54326205Y-64763001D01*
X54326199Y-64762998D01*
X54326197Y-64762997D01*
X54326194Y-64762996D01*
X54165209Y-64709651D01*
X54065846Y-64699500D01*
X53219162Y-64699500D01*
X53219144Y-64699501D01*
X53119792Y-64709650D01*
X53119789Y-64709651D01*
X52958805Y-64762996D01*
X52958794Y-64763001D01*
X52814459Y-64852029D01*
X52814455Y-64852032D01*
X52694532Y-64971955D01*
X52694529Y-64971959D01*
X52605501Y-65116294D01*
X52605496Y-65116305D01*
X52563956Y-65241666D01*
X52524183Y-65299111D01*
X52459667Y-65325934D01*
X52390892Y-65313619D01*
X52339692Y-65266076D01*
X52328544Y-65241666D01*
X52297682Y-65148531D01*
X52287003Y-65116303D01*
X52286999Y-65116297D01*
X52286998Y-65116294D01*
X52197970Y-64971959D01*
X52197967Y-64971955D01*
X52078044Y-64852032D01*
X52078040Y-64852029D01*
X51933705Y-64763001D01*
X51933699Y-64762998D01*
X51933697Y-64762997D01*
X51933694Y-64762996D01*
X51772709Y-64709651D01*
X51673346Y-64699500D01*
X50826662Y-64699500D01*
X50826644Y-64699501D01*
X50727292Y-64709650D01*
X50727289Y-64709651D01*
X50566305Y-64762996D01*
X50566294Y-64763001D01*
X50421959Y-64852029D01*
X50421955Y-64852032D01*
X50302032Y-64971955D01*
X50302029Y-64971959D01*
X50213001Y-65116294D01*
X50212996Y-65116305D01*
X50159651Y-65277290D01*
X50149500Y-65376647D01*
X50149500Y-65923337D01*
X50149501Y-65923355D01*
X50159650Y-66022707D01*
X50159651Y-66022710D01*
X50212996Y-66183694D01*
X50213001Y-66183705D01*
X50302029Y-66328040D01*
X50302032Y-66328044D01*
X50421955Y-66447967D01*
X50421959Y-66447970D01*
X50566294Y-66536998D01*
X50566296Y-66536999D01*
X50566303Y-66537003D01*
X50581771Y-66542128D01*
X50585225Y-66544519D01*
X50589411Y-66544940D01*
X50613714Y-66564243D01*
X50639215Y-66581898D01*
X50641766Y-66586524D01*
X50644123Y-66588396D01*
X50651561Y-66604282D01*
X50660144Y-66619844D01*
X50661474Y-66623748D01*
X50690423Y-66731785D01*
X50703526Y-66754480D01*
X50709597Y-66764995D01*
X50709598Y-66764998D01*
X50769477Y-66868712D01*
X50769481Y-66868717D01*
X50888349Y-66987585D01*
X50888355Y-66987590D01*
X51851395Y-67950630D01*
X51884880Y-68011953D01*
X51879896Y-68081645D01*
X51838024Y-68137578D01*
X51832820Y-68141120D01*
X51831343Y-68142288D01*
X51707289Y-68266342D01*
X51615187Y-68415663D01*
X51615185Y-68415668D01*
X51612641Y-68423345D01*
X51560001Y-68582203D01*
X51560001Y-68582204D01*
X51560000Y-68582204D01*
X51549500Y-68684983D01*
X51549500Y-69310001D01*
X51549501Y-69310019D01*
X51560000Y-69412796D01*
X51560001Y-69412799D01*
X51615185Y-69579331D01*
X51615187Y-69579336D01*
X51707289Y-69728657D01*
X51800951Y-69822319D01*
X51834436Y-69883642D01*
X51829452Y-69953334D01*
X51800951Y-69997681D01*
X51707289Y-70091342D01*
X51615187Y-70240663D01*
X51615186Y-70240666D01*
X51560001Y-70407203D01*
X51560001Y-70407204D01*
X51560000Y-70407204D01*
X51549500Y-70509983D01*
X51549500Y-71135001D01*
X51549501Y-71135019D01*
X51560000Y-71237796D01*
X51560001Y-71237799D01*
X51578197Y-71292710D01*
X51615186Y-71404334D01*
X51707288Y-71553656D01*
X51831344Y-71677712D01*
X51980666Y-71769814D01*
X52147203Y-71824999D01*
X52190816Y-71829454D01*
X52213599Y-71838750D01*
X52237640Y-71843980D01*
X52251085Y-71854044D01*
X52255507Y-71855849D01*
X52265895Y-71865130D01*
X52269478Y-71868713D01*
X52269480Y-71868716D01*
X52381284Y-71980520D01*
X52381286Y-71980521D01*
X52388356Y-71987591D01*
X52844633Y-72443868D01*
X52878118Y-72505191D01*
X52873134Y-72574883D01*
X52844634Y-72619230D01*
X52711208Y-72752656D01*
X52600078Y-72918973D01*
X52600071Y-72918986D01*
X52523526Y-73103784D01*
X52523523Y-73103796D01*
X52484500Y-73299977D01*
X52484500Y-74200022D01*
X52523523Y-74396203D01*
X52523526Y-74396215D01*
X52600071Y-74581013D01*
X52600078Y-74581026D01*
X52711208Y-74747343D01*
X52711211Y-74747347D01*
X52852652Y-74888788D01*
X52852656Y-74888791D01*
X53018973Y-74999921D01*
X53018986Y-74999928D01*
X53115749Y-75040008D01*
X53203789Y-75076475D01*
X53347185Y-75104998D01*
X53399977Y-75115499D01*
X53399981Y-75115500D01*
X53399982Y-75115500D01*
X53600019Y-75115500D01*
X53600020Y-75115499D01*
X53796211Y-75076475D01*
X53981020Y-74999925D01*
X54147344Y-74888791D01*
X54162318Y-74873816D01*
X54223639Y-74840331D01*
X54293331Y-74845314D01*
X54337681Y-74873816D01*
X54352076Y-74888211D01*
X54352657Y-74888792D01*
X54518973Y-74999921D01*
X54518986Y-74999928D01*
X54615749Y-75040008D01*
X54703789Y-75076475D01*
X54847185Y-75104998D01*
X54899977Y-75115499D01*
X54899981Y-75115500D01*
X54899982Y-75115500D01*
X55100019Y-75115500D01*
X55100020Y-75115499D01*
X55296211Y-75076475D01*
X55481020Y-74999925D01*
X55647344Y-74888791D01*
X55662318Y-74873816D01*
X55723639Y-74840331D01*
X55793331Y-74845314D01*
X55837681Y-74873816D01*
X55852076Y-74888211D01*
X55852657Y-74888792D01*
X56018973Y-74999921D01*
X56018986Y-74999928D01*
X56115749Y-75040008D01*
X56203789Y-75076475D01*
X56347185Y-75104998D01*
X56399977Y-75115499D01*
X56399981Y-75115500D01*
X56399982Y-75115500D01*
X56600019Y-75115500D01*
X56600020Y-75115499D01*
X56796211Y-75076475D01*
X56981020Y-74999925D01*
X57147344Y-74888791D01*
X57162318Y-74873816D01*
X57223639Y-74840331D01*
X57293331Y-74845314D01*
X57337681Y-74873816D01*
X57352076Y-74888211D01*
X57352657Y-74888792D01*
X57518973Y-74999921D01*
X57518986Y-74999928D01*
X57615749Y-75040008D01*
X57703789Y-75076475D01*
X57847185Y-75104998D01*
X57899977Y-75115499D01*
X57899981Y-75115500D01*
X57899982Y-75115500D01*
X58100019Y-75115500D01*
X58100020Y-75115499D01*
X58296211Y-75076475D01*
X58481020Y-74999925D01*
X58647344Y-74888791D01*
X58662318Y-74873816D01*
X58723639Y-74840331D01*
X58793331Y-74845314D01*
X58837681Y-74873816D01*
X58852076Y-74888211D01*
X58852657Y-74888792D01*
X59018973Y-74999921D01*
X59018986Y-74999928D01*
X59115749Y-75040008D01*
X59203789Y-75076475D01*
X59347185Y-75104998D01*
X59399977Y-75115499D01*
X59399981Y-75115500D01*
X59399982Y-75115500D01*
X59600012Y-75115500D01*
X59600018Y-75115500D01*
X59600023Y-75115498D01*
X59601950Y-75115309D01*
X59602958Y-75115500D01*
X59606110Y-75115500D01*
X59606110Y-75116097D01*
X59670597Y-75128322D01*
X59701795Y-75151030D01*
X60415139Y-75864374D01*
X60415149Y-75864385D01*
X60419479Y-75868715D01*
X60419480Y-75868716D01*
X60531284Y-75980520D01*
X60618095Y-76030639D01*
X60618097Y-76030641D01*
X60656151Y-76052611D01*
X60668215Y-76059577D01*
X60820943Y-76100501D01*
X60820946Y-76100501D01*
X60986653Y-76100501D01*
X60986669Y-76100500D01*
X62699903Y-76100500D01*
X62766942Y-76120185D01*
X62787583Y-76136818D01*
X63131284Y-76480520D01*
X63194543Y-76517042D01*
X63242758Y-76567608D01*
X63247099Y-76576966D01*
X63296299Y-76695743D01*
X63296302Y-76695750D01*
X63296303Y-76695751D01*
X63362120Y-76809749D01*
X63362132Y-76809767D01*
X63442455Y-76914444D01*
X63442459Y-76914449D01*
X63535551Y-77007541D01*
X63535555Y-77007544D01*
X63640232Y-77087867D01*
X63640236Y-77087869D01*
X63640243Y-77087875D01*
X63640250Y-77087879D01*
X63754248Y-77153696D01*
X63754249Y-77153697D01*
X63754252Y-77153698D01*
X63754257Y-77153701D01*
X63876171Y-77204200D01*
X64003338Y-77238275D01*
X64134174Y-77255500D01*
X64134181Y-77255500D01*
X64700000Y-77255500D01*
X64771940Y-77250355D01*
X64909992Y-77209819D01*
X65031032Y-77132031D01*
X65125254Y-77023294D01*
X65174964Y-76914444D01*
X65185023Y-76892419D01*
X65185024Y-76892414D01*
X65205500Y-76750000D01*
X65205500Y-75250000D01*
X65200355Y-75178060D01*
X65159819Y-75040008D01*
X65129261Y-74992459D01*
X65082032Y-74918969D01*
X65082028Y-74918965D01*
X64973299Y-74824750D01*
X64973297Y-74824748D01*
X64973294Y-74824746D01*
X64973290Y-74824744D01*
X64842419Y-74764976D01*
X64842415Y-74764975D01*
X64731549Y-74749036D01*
X64667994Y-74720011D01*
X64630219Y-74661233D01*
X64630219Y-74591364D01*
X64667993Y-74532585D01*
X64731549Y-74503560D01*
X64740345Y-74502614D01*
X64771940Y-74500355D01*
X64909992Y-74459819D01*
X65031032Y-74382031D01*
X65125254Y-74273294D01*
X65185024Y-74142416D01*
X65205500Y-74000000D01*
X65205500Y-72500000D01*
X65200355Y-72428060D01*
X65199023Y-72423525D01*
X65187565Y-72384501D01*
X65159819Y-72290008D01*
X65129261Y-72242459D01*
X65082032Y-72168969D01*
X65082028Y-72168965D01*
X64973299Y-72074750D01*
X64973295Y-72074747D01*
X64973294Y-72074746D01*
X64973290Y-72074744D01*
X64842419Y-72014976D01*
X64842414Y-72014975D01*
X64700000Y-71994500D01*
X64134174Y-71994500D01*
X64134166Y-71994500D01*
X64003341Y-72011724D01*
X63876170Y-72045800D01*
X63754249Y-72096302D01*
X63754248Y-72096303D01*
X63640250Y-72162120D01*
X63640232Y-72162132D01*
X63535555Y-72242455D01*
X63535545Y-72242464D01*
X63442464Y-72335545D01*
X63442455Y-72335555D01*
X63362132Y-72440232D01*
X63362120Y-72440250D01*
X63296302Y-72554249D01*
X63296298Y-72554257D01*
X63288556Y-72572951D01*
X63244716Y-72627355D01*
X63178422Y-72649421D01*
X63173994Y-72649500D01*
X62586670Y-72649500D01*
X62586654Y-72649499D01*
X62579058Y-72649499D01*
X62420943Y-72649499D01*
X62358078Y-72666344D01*
X62268214Y-72690423D01*
X62268209Y-72690426D01*
X62131290Y-72769475D01*
X62131282Y-72769481D01*
X62039551Y-72861211D01*
X61978228Y-72894695D01*
X61908536Y-72889710D01*
X61852603Y-72847838D01*
X61848779Y-72842435D01*
X61788791Y-72752656D01*
X61788789Y-72752653D01*
X61647346Y-72611210D01*
X61632756Y-72601462D01*
X61609591Y-72585983D01*
X61569211Y-72541496D01*
X61562424Y-72528845D01*
X61559577Y-72518216D01*
X61559577Y-72518215D01*
X61520300Y-72450186D01*
X61504908Y-72423526D01*
X61480522Y-72381287D01*
X61480521Y-72381286D01*
X61480520Y-72381284D01*
X61368716Y-72269480D01*
X61368715Y-72269479D01*
X61364385Y-72265149D01*
X61364374Y-72265139D01*
X59014319Y-69915084D01*
X58980834Y-69853761D01*
X58978000Y-69827403D01*
X58978000Y-67671153D01*
X60449500Y-67671153D01*
X60449500Y-67828846D01*
X60480261Y-67983489D01*
X60480264Y-67983501D01*
X60540602Y-68129172D01*
X60540609Y-68129185D01*
X60628210Y-68260288D01*
X60628213Y-68260292D01*
X60739707Y-68371786D01*
X60739711Y-68371789D01*
X60870814Y-68459390D01*
X60870827Y-68459397D01*
X61016498Y-68519735D01*
X61016503Y-68519737D01*
X61171153Y-68550499D01*
X61171156Y-68550500D01*
X61171158Y-68550500D01*
X61328844Y-68550500D01*
X61328845Y-68550499D01*
X61483497Y-68519737D01*
X61629179Y-68459394D01*
X61760289Y-68371789D01*
X61871789Y-68260289D01*
X61959394Y-68129179D01*
X62019737Y-67983497D01*
X62050500Y-67828842D01*
X62050500Y-67671158D01*
X62050500Y-67671155D01*
X62050499Y-67671153D01*
X63449500Y-67671153D01*
X63449500Y-67828846D01*
X63480261Y-67983489D01*
X63480264Y-67983501D01*
X63540602Y-68129172D01*
X63540609Y-68129185D01*
X63628210Y-68260288D01*
X63628213Y-68260292D01*
X63739707Y-68371786D01*
X63739711Y-68371789D01*
X63870814Y-68459390D01*
X63870827Y-68459397D01*
X64016498Y-68519735D01*
X64016503Y-68519737D01*
X64171153Y-68550499D01*
X64171156Y-68550500D01*
X64171158Y-68550500D01*
X64328844Y-68550500D01*
X64328845Y-68550499D01*
X64483497Y-68519737D01*
X64629179Y-68459394D01*
X64760289Y-68371789D01*
X64871789Y-68260289D01*
X64882807Y-68243799D01*
X64936417Y-68198995D01*
X65005742Y-68190286D01*
X65068770Y-68220440D01*
X65091446Y-68247591D01*
X65172288Y-68378656D01*
X65296344Y-68502712D01*
X65445665Y-68594814D01*
X65612202Y-68649999D01*
X65714990Y-68660500D01*
X65714995Y-68660500D01*
X67315005Y-68660500D01*
X67315010Y-68660500D01*
X67417798Y-68649999D01*
X67584335Y-68594814D01*
X67733656Y-68502712D01*
X67857712Y-68378656D01*
X67949814Y-68229335D01*
X68004999Y-68062798D01*
X68015500Y-67960010D01*
X68015500Y-66579990D01*
X68004999Y-66477202D01*
X67949814Y-66310665D01*
X67857712Y-66161344D01*
X67733656Y-66037288D01*
X67584335Y-65945186D01*
X67417798Y-65890001D01*
X67417796Y-65890000D01*
X67315017Y-65879500D01*
X67315010Y-65879500D01*
X65714990Y-65879500D01*
X65714982Y-65879500D01*
X65612203Y-65890000D01*
X65612202Y-65890001D01*
X65529669Y-65917349D01*
X65445667Y-65945185D01*
X65445662Y-65945187D01*
X65296342Y-66037289D01*
X65172289Y-66161342D01*
X65080187Y-66310662D01*
X65080185Y-66310667D01*
X65052349Y-66394669D01*
X65025001Y-66477202D01*
X65025001Y-66477203D01*
X65025000Y-66477203D01*
X65016736Y-66558103D01*
X65015741Y-66560540D01*
X65016116Y-66563147D01*
X65002616Y-66592706D01*
X64990340Y-66622794D01*
X64988185Y-66624307D01*
X64987091Y-66626703D01*
X64959753Y-66644271D01*
X64933159Y-66662946D01*
X64929845Y-66663491D01*
X64928313Y-66664477D01*
X64893378Y-66669500D01*
X64816670Y-66669500D01*
X64816654Y-66669499D01*
X64809058Y-66669499D01*
X64650943Y-66669499D01*
X64574579Y-66689961D01*
X64498214Y-66710423D01*
X64498209Y-66710426D01*
X64361290Y-66789475D01*
X64361286Y-66789478D01*
X64235337Y-66915427D01*
X64174014Y-66948911D01*
X64171848Y-66949362D01*
X64016508Y-66980261D01*
X64016498Y-66980264D01*
X63870827Y-67040602D01*
X63870814Y-67040609D01*
X63739711Y-67128210D01*
X63739707Y-67128213D01*
X63628213Y-67239707D01*
X63628210Y-67239711D01*
X63540609Y-67370814D01*
X63540602Y-67370827D01*
X63480264Y-67516498D01*
X63480261Y-67516510D01*
X63449500Y-67671153D01*
X62050499Y-67671153D01*
X62042901Y-67632955D01*
X62019737Y-67516503D01*
X62005133Y-67481245D01*
X61959397Y-67370827D01*
X61959390Y-67370814D01*
X61871398Y-67239125D01*
X61850520Y-67172447D01*
X61850500Y-67170234D01*
X61850500Y-66050097D01*
X61870185Y-65983058D01*
X61886819Y-65962416D01*
X63351011Y-64498224D01*
X64843385Y-63005849D01*
X64904706Y-62972366D01*
X64974398Y-62977350D01*
X65030331Y-63019222D01*
X65048770Y-63054528D01*
X65080185Y-63149332D01*
X65080187Y-63149337D01*
X65115070Y-63205890D01*
X65172288Y-63298656D01*
X65296344Y-63422712D01*
X65445665Y-63514814D01*
X65612202Y-63569999D01*
X65714990Y-63580500D01*
X65714995Y-63580500D01*
X67315005Y-63580500D01*
X67315010Y-63580500D01*
X67417798Y-63569999D01*
X67584335Y-63514814D01*
X67733656Y-63422712D01*
X67857712Y-63298656D01*
X67949814Y-63149335D01*
X68004999Y-62982798D01*
X68015500Y-62880010D01*
X68015500Y-61499990D01*
X68004999Y-61397202D01*
X67949814Y-61230665D01*
X67857712Y-61081344D01*
X67733656Y-60957288D01*
X67610434Y-60881284D01*
X67584337Y-60865187D01*
X67584332Y-60865185D01*
X67582863Y-60864698D01*
X67417798Y-60810001D01*
X67417796Y-60810000D01*
X67315017Y-60799500D01*
X67315010Y-60799500D01*
X65714990Y-60799500D01*
X65714982Y-60799500D01*
X65612203Y-60810000D01*
X65612202Y-60810001D01*
X65529669Y-60837349D01*
X65445667Y-60865185D01*
X65445662Y-60865187D01*
X65296342Y-60957289D01*
X65172289Y-61081342D01*
X65080187Y-61230662D01*
X65080185Y-61230667D01*
X65067324Y-61269480D01*
X65025001Y-61397202D01*
X65025001Y-61397203D01*
X65025000Y-61397203D01*
X65016736Y-61478103D01*
X64990340Y-61542794D01*
X64933159Y-61582946D01*
X64893378Y-61589500D01*
X64889057Y-61589500D01*
X64730942Y-61589500D01*
X64578215Y-61630423D01*
X64578214Y-61630423D01*
X64578212Y-61630424D01*
X64578209Y-61630425D01*
X64528096Y-61659359D01*
X64528095Y-61659360D01*
X64506280Y-61671955D01*
X64441285Y-61709479D01*
X64441282Y-61709481D01*
X60769481Y-65381282D01*
X60769479Y-65381285D01*
X60719361Y-65468094D01*
X60719359Y-65468096D01*
X60690425Y-65518209D01*
X60690424Y-65518210D01*
X60690423Y-65518215D01*
X60649499Y-65670943D01*
X60649499Y-65670945D01*
X60649499Y-65839046D01*
X60649500Y-65839059D01*
X60649500Y-67170234D01*
X60629815Y-67237273D01*
X60628602Y-67239125D01*
X60540609Y-67370814D01*
X60540602Y-67370827D01*
X60480264Y-67516498D01*
X60480261Y-67516510D01*
X60449500Y-67671153D01*
X58978000Y-67671153D01*
X58978000Y-66043443D01*
X58975449Y-66033923D01*
X58971579Y-66019481D01*
X58961479Y-65981785D01*
X58937077Y-65890716D01*
X58936664Y-65890000D01*
X58858024Y-65753790D01*
X58858021Y-65753786D01*
X58858020Y-65753784D01*
X58746216Y-65641980D01*
X58746215Y-65641979D01*
X58741885Y-65637649D01*
X58741874Y-65637639D01*
X58521819Y-65417584D01*
X58488334Y-65356261D01*
X58485500Y-65329903D01*
X58485500Y-64039995D01*
X58485499Y-64039982D01*
X58474999Y-63937203D01*
X58474999Y-63937202D01*
X58419814Y-63770665D01*
X58327712Y-63621344D01*
X58254049Y-63547681D01*
X58220564Y-63486358D01*
X58225548Y-63416666D01*
X58254049Y-63372319D01*
X58327712Y-63298656D01*
X58419814Y-63149335D01*
X58474999Y-62982798D01*
X58485500Y-62880010D01*
X58485500Y-61499990D01*
X58474999Y-61397202D01*
X58419814Y-61230665D01*
X58327712Y-61081344D01*
X58203656Y-60957288D01*
X58080434Y-60881284D01*
X58054337Y-60865187D01*
X58054332Y-60865185D01*
X58052863Y-60864698D01*
X57887798Y-60810001D01*
X57887796Y-60810000D01*
X57785017Y-60799500D01*
X57785010Y-60799500D01*
X56184990Y-60799500D01*
X56184982Y-60799500D01*
X56082203Y-60810000D01*
X56082202Y-60810001D01*
X55999669Y-60837349D01*
X55915667Y-60865185D01*
X55915662Y-60865187D01*
X55766342Y-60957289D01*
X55749112Y-60974519D01*
X55741167Y-60978856D01*
X55735743Y-60986103D01*
X55710983Y-60995337D01*
X55687788Y-61008003D01*
X55678759Y-61007357D01*
X55670279Y-61010520D01*
X55644458Y-61004903D01*
X55618097Y-61003017D01*
X55609044Y-60997199D01*
X55602006Y-60995668D01*
X55573752Y-60974517D01*
X55487590Y-60888355D01*
X55487588Y-60888352D01*
X55368717Y-60769481D01*
X55368716Y-60769480D01*
X55281904Y-60719360D01*
X55281904Y-60719359D01*
X55281900Y-60719358D01*
X55231785Y-60690423D01*
X55079057Y-60649499D01*
X54920943Y-60649499D01*
X54913347Y-60649499D01*
X54913331Y-60649500D01*
X51836670Y-60649500D01*
X51836654Y-60649499D01*
X51829058Y-60649499D01*
X51670943Y-60649499D01*
X51594579Y-60669961D01*
X51518214Y-60690423D01*
X51518209Y-60690426D01*
X51381290Y-60769475D01*
X51381282Y-60769481D01*
X50768744Y-61382019D01*
X50720068Y-61412044D01*
X50566303Y-61462997D01*
X50566294Y-61463001D01*
X50421959Y-61552029D01*
X50421955Y-61552032D01*
X50302032Y-61671955D01*
X50302029Y-61671959D01*
X50213001Y-61816294D01*
X50212996Y-61816305D01*
X50159651Y-61977290D01*
X50149500Y-62076647D01*
X47492588Y-62076647D01*
X49962416Y-59606819D01*
X50023739Y-59573334D01*
X50050097Y-59570500D01*
X59835932Y-59570500D01*
X59902971Y-59590185D01*
X59946416Y-59638203D01*
X60006657Y-59756433D01*
X60145483Y-59947510D01*
X60312490Y-60114517D01*
X60503567Y-60253343D01*
X60602991Y-60304002D01*
X60714003Y-60360566D01*
X60714005Y-60360566D01*
X60714008Y-60360568D01*
X60834412Y-60399689D01*
X60938631Y-60433553D01*
X61171903Y-60470500D01*
X61171908Y-60470500D01*
X61408097Y-60470500D01*
X61641368Y-60433553D01*
X61865992Y-60360568D01*
X62076433Y-60253343D01*
X62267510Y-60114517D01*
X62434517Y-59947510D01*
X62573343Y-59756433D01*
X62680568Y-59545992D01*
X62753553Y-59321368D01*
X62790500Y-59088097D01*
X62790500Y-58851902D01*
X62753553Y-58618631D01*
X62711589Y-58489480D01*
X62680568Y-58394008D01*
X62680566Y-58394005D01*
X62680566Y-58394003D01*
X62573342Y-58183566D01*
X62434517Y-57992490D01*
X62267510Y-57825483D01*
X62076433Y-57686657D01*
X61865996Y-57579433D01*
X61641368Y-57506446D01*
X61408097Y-57469500D01*
X61408092Y-57469500D01*
X61171908Y-57469500D01*
X61171903Y-57469500D01*
X60938631Y-57506446D01*
X60714003Y-57579433D01*
X60503566Y-57686657D01*
X60447119Y-57727669D01*
X60312490Y-57825483D01*
X60312488Y-57825485D01*
X60312487Y-57825485D01*
X60145485Y-57992487D01*
X60145485Y-57992488D01*
X60145483Y-57992490D01*
X60085862Y-58074550D01*
X60006657Y-58183566D01*
X59946417Y-58301795D01*
X59898442Y-58352591D01*
X59835932Y-58369500D01*
X49836669Y-58369500D01*
X49836653Y-58369499D01*
X49829057Y-58369499D01*
X49670943Y-58369499D01*
X49579476Y-58394008D01*
X49518210Y-58410424D01*
X49518209Y-58410425D01*
X49468096Y-58439359D01*
X49468095Y-58439360D01*
X49424689Y-58464420D01*
X49381285Y-58489479D01*
X49381282Y-58489481D01*
X49269478Y-58601286D01*
X47195672Y-60675091D01*
X47134349Y-60708576D01*
X47064657Y-60703592D01*
X47044871Y-60694143D01*
X47012655Y-60675091D01*
X47005398Y-60670799D01*
X47005396Y-60670798D01*
X47005394Y-60670797D01*
X46847573Y-60624945D01*
X46847567Y-60624944D01*
X46810701Y-60622043D01*
X46810694Y-60622043D01*
X46379306Y-60622043D01*
X46379298Y-60622043D01*
X46342432Y-60624944D01*
X46342426Y-60624945D01*
X46184606Y-60670797D01*
X46184603Y-60670798D01*
X46043137Y-60754460D01*
X46043129Y-60754466D01*
X45926923Y-60870672D01*
X45926917Y-60870680D01*
X45843255Y-61012146D01*
X45843254Y-61012149D01*
X45797402Y-61169969D01*
X45797401Y-61169975D01*
X45794500Y-61206841D01*
X45794500Y-62373043D01*
X45774815Y-62440082D01*
X45722011Y-62485837D01*
X45670500Y-62497043D01*
X45429298Y-62497043D01*
X45392432Y-62499944D01*
X45392426Y-62499945D01*
X45234606Y-62545797D01*
X45234603Y-62545798D01*
X45093137Y-62629460D01*
X45093129Y-62629466D01*
X44976923Y-62745672D01*
X44976917Y-62745680D01*
X44893255Y-62887146D01*
X44893254Y-62887149D01*
X44847402Y-63044969D01*
X44847401Y-63044975D01*
X44844500Y-63081841D01*
X44844500Y-64388244D01*
X44847401Y-64425110D01*
X44847402Y-64425116D01*
X44893254Y-64582936D01*
X44893255Y-64582939D01*
X44893256Y-64582941D01*
X44903480Y-64600229D01*
X44976917Y-64724405D01*
X44976923Y-64724413D01*
X45093129Y-64840619D01*
X45093133Y-64840622D01*
X45093135Y-64840624D01*
X45234602Y-64924287D01*
X45276224Y-64936379D01*
X45392426Y-64970140D01*
X45392429Y-64970140D01*
X45392431Y-64970141D01*
X45429306Y-64973043D01*
X45429314Y-64973043D01*
X45860686Y-64973043D01*
X45860694Y-64973043D01*
X45897569Y-64970141D01*
X45930432Y-64960593D01*
X46000298Y-64960790D01*
X46052709Y-64991987D01*
X46478181Y-65417459D01*
X46511666Y-65478782D01*
X46514500Y-65505140D01*
X46514500Y-66235044D01*
X46514662Y-66238206D01*
X46513279Y-66238276D01*
X46501515Y-66301583D01*
X46453638Y-66352471D01*
X46390923Y-66369500D01*
X45716669Y-66369500D01*
X45716653Y-66369499D01*
X45709057Y-66369499D01*
X45550943Y-66369499D01*
X45443587Y-66398265D01*
X45398210Y-66410424D01*
X45398209Y-66410425D01*
X45348096Y-66439359D01*
X45348095Y-66439360D01*
X45333182Y-66447970D01*
X45261285Y-66489479D01*
X45261282Y-66489481D01*
X45149478Y-66601286D01*
X44887582Y-66863181D01*
X44826259Y-66896666D01*
X44799901Y-66899500D01*
X44326662Y-66899500D01*
X44326644Y-66899501D01*
X44227292Y-66909650D01*
X44227289Y-66909651D01*
X44066305Y-66962996D01*
X44066294Y-66963001D01*
X43921959Y-67052029D01*
X43921955Y-67052032D01*
X43802032Y-67171955D01*
X43802029Y-67171959D01*
X43713001Y-67316294D01*
X43712996Y-67316305D01*
X43659651Y-67477290D01*
X43649500Y-67576647D01*
X40750500Y-67576647D01*
X40750500Y-57922135D01*
X42289500Y-57922135D01*
X42289500Y-60017870D01*
X42289501Y-60017876D01*
X42295908Y-60077483D01*
X42346202Y-60212328D01*
X42346206Y-60212335D01*
X42432452Y-60327544D01*
X42432455Y-60327547D01*
X42547664Y-60413793D01*
X42547671Y-60413797D01*
X42682517Y-60464091D01*
X42682516Y-60464091D01*
X42689444Y-60464835D01*
X42742127Y-60470500D01*
X44837872Y-60470499D01*
X44897483Y-60464091D01*
X45032331Y-60413796D01*
X45147546Y-60327546D01*
X45233796Y-60212331D01*
X45284091Y-60077483D01*
X45290500Y-60017873D01*
X45290499Y-57922128D01*
X45284091Y-57862517D01*
X45270278Y-57825483D01*
X45233797Y-57727671D01*
X45233793Y-57727664D01*
X45147547Y-57612455D01*
X45147544Y-57612452D01*
X45032335Y-57526206D01*
X45032328Y-57526202D01*
X44897482Y-57475908D01*
X44897483Y-57475908D01*
X44837883Y-57469501D01*
X44837881Y-57469500D01*
X44837873Y-57469500D01*
X44837864Y-57469500D01*
X42742129Y-57469500D01*
X42742123Y-57469501D01*
X42682516Y-57475908D01*
X42547671Y-57526202D01*
X42547664Y-57526206D01*
X42432455Y-57612452D01*
X42432452Y-57612455D01*
X42346206Y-57727664D01*
X42346202Y-57727671D01*
X42295908Y-57862517D01*
X42289501Y-57922116D01*
X42289501Y-57922123D01*
X42289500Y-57922135D01*
X40750500Y-57922135D01*
X40750500Y-54878711D01*
X64789500Y-54878711D01*
X64789500Y-55121288D01*
X64821161Y-55361785D01*
X64883947Y-55596104D01*
X64976773Y-55820205D01*
X64976776Y-55820212D01*
X65098064Y-56030289D01*
X65098066Y-56030292D01*
X65098067Y-56030293D01*
X65245733Y-56222736D01*
X65245739Y-56222743D01*
X65417256Y-56394260D01*
X65417262Y-56394265D01*
X65609711Y-56541936D01*
X65819788Y-56663224D01*
X66043900Y-56756054D01*
X66278211Y-56818838D01*
X66458586Y-56842584D01*
X66518711Y-56850500D01*
X66518712Y-56850500D01*
X66761289Y-56850500D01*
X66809388Y-56844167D01*
X67001789Y-56818838D01*
X67236100Y-56756054D01*
X67460212Y-56663224D01*
X67670289Y-56541936D01*
X67862738Y-56394265D01*
X68034265Y-56222738D01*
X68181936Y-56030289D01*
X68303224Y-55820212D01*
X68396054Y-55596100D01*
X68458838Y-55361789D01*
X68490500Y-55121288D01*
X68490500Y-54878712D01*
X68458838Y-54638211D01*
X68396054Y-54403900D01*
X68303224Y-54179788D01*
X68181936Y-53969711D01*
X68034265Y-53777262D01*
X68034260Y-53777256D01*
X67862743Y-53605739D01*
X67862736Y-53605733D01*
X67670293Y-53458067D01*
X67670292Y-53458066D01*
X67670289Y-53458064D01*
X67460212Y-53336776D01*
X67460205Y-53336773D01*
X67236104Y-53243947D01*
X67001785Y-53181161D01*
X66761289Y-53149500D01*
X66761288Y-53149500D01*
X66518712Y-53149500D01*
X66518711Y-53149500D01*
X66278214Y-53181161D01*
X66043895Y-53243947D01*
X65819794Y-53336773D01*
X65819785Y-53336777D01*
X65609706Y-53458067D01*
X65417263Y-53605733D01*
X65417256Y-53605739D01*
X65245739Y-53777256D01*
X65245733Y-53777263D01*
X65098067Y-53969706D01*
X64976777Y-54179785D01*
X64976773Y-54179794D01*
X64883947Y-54403895D01*
X64821161Y-54638214D01*
X64789500Y-54878711D01*
X40750500Y-54878711D01*
X40750500Y-50124562D01*
X40770185Y-50057523D01*
X40822989Y-50011768D01*
X40874510Y-50000562D01*
X43434439Y-50000823D01*
X43434489Y-50000837D01*
X43498739Y-50000830D01*
X43565841Y-50000837D01*
X43565843Y-50000836D01*
X43574182Y-50000837D01*
X43574407Y-50000822D01*
X43684623Y-50000812D01*
X44051331Y-49964662D01*
X44051340Y-49964660D01*
X44051342Y-49964660D01*
X44108767Y-49953232D01*
X44412731Y-49892746D01*
X44765342Y-49785758D01*
X45105771Y-49644728D01*
X45430739Y-49471012D01*
X45737119Y-49266285D01*
X46021959Y-49032517D01*
X46282517Y-48771959D01*
X46516285Y-48487119D01*
X46721012Y-48180739D01*
X46894728Y-47855771D01*
X47035758Y-47515342D01*
X47142746Y-47162731D01*
X47214662Y-46801331D01*
X47250812Y-46434623D01*
X47250830Y-46250381D01*
X47250837Y-46184489D01*
X47250539Y-46183378D01*
X47250501Y-46174343D01*
X47250528Y-46174247D01*
X47250500Y-46173809D01*
X47250500Y-43624500D01*
X47270185Y-43557461D01*
X47322989Y-43511706D01*
X47374500Y-43500500D01*
X68875500Y-43500500D01*
X68942539Y-43520185D01*
G37*
%TD.AperFunction*%
%TD*%
M02*
