M48
; DRILL file {KiCad 9.0.3} date 2025-07-15T09:49:48+0300
; FORMAT={-:-/ absolute / inch / decimal}
; #@! TF.CreationDate,2025-07-15T09:49:48+03:00
; #@! TF.GenerationSoftware,Kicad,Pcbnew,9.0.3
; #@! TF.FileFunction,Plated,1,2,PTH
FMAT,2
INCH
; #@! TA.AperFunction,Plated,PTH,ComponentDrill
T1C0.0394
; #@! TA.AperFunction,Plated,PTH,ComponentDrill
T2C0.0591
%
G90
G05
T1
X2.3354Y-3.8063
X2.3354Y-3.9323
X2.3354Y-4.0583
X2.3354Y-4.1843
X2.6193Y-3.8063
X2.6193Y-3.9323
X2.6193Y-4.0583
X2.6193Y-4.1843
X2.9031Y-3.8063
X2.9031Y-3.9323
X2.9031Y-4.0583
X2.9031Y-4.1843
X3.1862Y-3.8063
X3.1862Y-3.9323
X3.1862Y-4.0583
X3.1862Y-4.1843
X3.4734Y-3.8067
X3.4734Y-3.9327
X3.4734Y-4.0587
X3.4734Y-4.1846
X3.7572Y-3.8067
X3.7572Y-3.9327
X3.7572Y-4.0587
X3.7572Y-4.1846
X4.0411Y-3.8067
X4.0411Y-3.9327
X4.0411Y-4.0587
X4.0411Y-4.1846
X4.3249Y-3.8067
X4.3249Y-3.9327
X4.3249Y-4.0587
X4.3249Y-4.1846
X4.6088Y-3.8067
X4.6088Y-3.9327
X4.6088Y-4.0587
X4.6088Y-4.1846
X4.8926Y-3.8067
X4.8926Y-3.9327
X4.8926Y-4.0587
X4.8926Y-4.1846
X5.1765Y-3.8067
X5.1765Y-3.9327
X5.1765Y-4.0587
X5.1765Y-4.1846
X5.4603Y-3.8067
X5.4603Y-3.9327
X5.4603Y-4.0587
X5.4603Y-4.1846
X5.7442Y-3.8067
X5.7442Y-3.9327
X5.7442Y-4.0587
X5.7442Y-4.1846
X6.028Y-3.8067
X6.028Y-3.9327
X6.028Y-4.0587
X6.028Y-4.1846
X6.3119Y-3.8067
X6.3119Y-3.9327
X6.3119Y-4.0587
X6.3119Y-4.1846
X6.5957Y-3.8067
X6.5957Y-3.9327
X6.5957Y-4.0587
X6.5957Y-4.1846
X6.8796Y-3.8067
X6.8796Y-3.9327
X6.8796Y-4.0587
X6.8796Y-4.1846
X7.1634Y-3.8067
X7.1634Y-3.9327
X7.1634Y-4.0587
X7.1634Y-4.1846
X7.4473Y-3.8067
X7.4473Y-3.9327
X7.4473Y-4.0587
X7.4473Y-4.1846
X7.7311Y-3.8067
X7.7311Y-3.9327
X7.7311Y-4.0587
X7.7311Y-4.1846
T2
X2.0362Y-3.7787
X2.0457Y-4.1957
X2.3337Y-3.4419
X2.6211Y-3.4281
X2.9035Y-3.436
X3.1933Y-3.4382
X3.4598Y-3.4382
X3.7454Y-3.4382
X4.0309Y-3.4382
X4.3164Y-3.4382
X4.6019Y-3.4382
X4.8874Y-3.4382
X5.1729Y-3.4382
X5.4584Y-3.4382
X5.7439Y-3.4382
X6.0294Y-3.4382
X6.315Y-3.4382
X6.6005Y-3.4382
X6.886Y-3.4382
X7.1715Y-3.4382
X7.457Y-3.4382
X7.7425Y-3.4382
M30
