%TF.GenerationSoftware,KiCad,Pcbnew,9.0.3*%
%TF.CreationDate,2025-07-15T09:49:43+03:00*%
%TF.ProjectId,switches_board,73776974-6368-4657-935f-626f6172642e,rev?*%
%TF.SameCoordinates,Original*%
%TF.FileFunction,Legend,Bot*%
%TF.FilePolarity,Positive*%
%FSLAX46Y46*%
G04 Gerber Fmt 4.6, Leading zero omitted, Abs format (unit mm)*
G04 Created by KiCad (PCBNEW 9.0.3) date 2025-07-15 09:49:43*
%MOMM*%
%LPD*%
G01*
G04 APERTURE LIST*
%ADD10C,0.150000*%
%ADD11C,0.300000*%
G04 APERTURE END LIST*
D10*
X58964411Y-85069819D02*
X59535839Y-85069819D01*
X59250125Y-85069819D02*
X59250125Y-84069819D01*
X59250125Y-84069819D02*
X59345363Y-84212676D01*
X59345363Y-84212676D02*
X59440601Y-84307914D01*
X59440601Y-84307914D02*
X59535839Y-84355533D01*
X174869411Y-85119819D02*
X175440839Y-85119819D01*
X175155125Y-85119819D02*
X175155125Y-84119819D01*
X175155125Y-84119819D02*
X175250363Y-84262676D01*
X175250363Y-84262676D02*
X175345601Y-84357914D01*
X175345601Y-84357914D02*
X175440839Y-84405533D01*
X174536077Y-84119819D02*
X173869411Y-84119819D01*
X173869411Y-84119819D02*
X174297982Y-85119819D01*
X80954649Y-84413152D02*
X80954649Y-85079819D01*
X81192744Y-84032200D02*
X81430839Y-84746485D01*
X81430839Y-84746485D02*
X80811792Y-84746485D01*
X102778458Y-84069819D02*
X102111792Y-84069819D01*
X102111792Y-84069819D02*
X102540363Y-85069819D01*
X116975601Y-85079819D02*
X116785125Y-85079819D01*
X116785125Y-85079819D02*
X116689887Y-85032200D01*
X116689887Y-85032200D02*
X116642268Y-84984580D01*
X116642268Y-84984580D02*
X116547030Y-84841723D01*
X116547030Y-84841723D02*
X116499411Y-84651247D01*
X116499411Y-84651247D02*
X116499411Y-84270295D01*
X116499411Y-84270295D02*
X116547030Y-84175057D01*
X116547030Y-84175057D02*
X116594649Y-84127438D01*
X116594649Y-84127438D02*
X116689887Y-84079819D01*
X116689887Y-84079819D02*
X116880363Y-84079819D01*
X116880363Y-84079819D02*
X116975601Y-84127438D01*
X116975601Y-84127438D02*
X117023220Y-84175057D01*
X117023220Y-84175057D02*
X117070839Y-84270295D01*
X117070839Y-84270295D02*
X117070839Y-84508390D01*
X117070839Y-84508390D02*
X117023220Y-84603628D01*
X117023220Y-84603628D02*
X116975601Y-84651247D01*
X116975601Y-84651247D02*
X116880363Y-84698866D01*
X116880363Y-84698866D02*
X116689887Y-84698866D01*
X116689887Y-84698866D02*
X116594649Y-84651247D01*
X116594649Y-84651247D02*
X116547030Y-84603628D01*
X116547030Y-84603628D02*
X116499411Y-84508390D01*
X94504649Y-84079819D02*
X94695125Y-84079819D01*
X94695125Y-84079819D02*
X94790363Y-84127438D01*
X94790363Y-84127438D02*
X94837982Y-84175057D01*
X94837982Y-84175057D02*
X94933220Y-84317914D01*
X94933220Y-84317914D02*
X94980839Y-84508390D01*
X94980839Y-84508390D02*
X94980839Y-84889342D01*
X94980839Y-84889342D02*
X94933220Y-84984580D01*
X94933220Y-84984580D02*
X94885601Y-85032200D01*
X94885601Y-85032200D02*
X94790363Y-85079819D01*
X94790363Y-85079819D02*
X94599887Y-85079819D01*
X94599887Y-85079819D02*
X94504649Y-85032200D01*
X94504649Y-85032200D02*
X94457030Y-84984580D01*
X94457030Y-84984580D02*
X94409411Y-84889342D01*
X94409411Y-84889342D02*
X94409411Y-84651247D01*
X94409411Y-84651247D02*
X94457030Y-84556009D01*
X94457030Y-84556009D02*
X94504649Y-84508390D01*
X94504649Y-84508390D02*
X94599887Y-84460771D01*
X94599887Y-84460771D02*
X94790363Y-84460771D01*
X94790363Y-84460771D02*
X94885601Y-84508390D01*
X94885601Y-84508390D02*
X94933220Y-84556009D01*
X94933220Y-84556009D02*
X94980839Y-84651247D01*
X73968458Y-84059819D02*
X73349411Y-84059819D01*
X73349411Y-84059819D02*
X73682744Y-84440771D01*
X73682744Y-84440771D02*
X73539887Y-84440771D01*
X73539887Y-84440771D02*
X73444649Y-84488390D01*
X73444649Y-84488390D02*
X73397030Y-84536009D01*
X73397030Y-84536009D02*
X73349411Y-84631247D01*
X73349411Y-84631247D02*
X73349411Y-84869342D01*
X73349411Y-84869342D02*
X73397030Y-84964580D01*
X73397030Y-84964580D02*
X73444649Y-85012200D01*
X73444649Y-85012200D02*
X73539887Y-85059819D01*
X73539887Y-85059819D02*
X73825601Y-85059819D01*
X73825601Y-85059819D02*
X73920839Y-85012200D01*
X73920839Y-85012200D02*
X73968458Y-84964580D01*
X66860839Y-84165057D02*
X66813220Y-84117438D01*
X66813220Y-84117438D02*
X66717982Y-84069819D01*
X66717982Y-84069819D02*
X66479887Y-84069819D01*
X66479887Y-84069819D02*
X66384649Y-84117438D01*
X66384649Y-84117438D02*
X66337030Y-84165057D01*
X66337030Y-84165057D02*
X66289411Y-84260295D01*
X66289411Y-84260295D02*
X66289411Y-84355533D01*
X66289411Y-84355533D02*
X66337030Y-84498390D01*
X66337030Y-84498390D02*
X66908458Y-85069819D01*
X66908458Y-85069819D02*
X66289411Y-85069819D01*
X87737030Y-84049819D02*
X88213220Y-84049819D01*
X88213220Y-84049819D02*
X88260839Y-84526009D01*
X88260839Y-84526009D02*
X88213220Y-84478390D01*
X88213220Y-84478390D02*
X88117982Y-84430771D01*
X88117982Y-84430771D02*
X87879887Y-84430771D01*
X87879887Y-84430771D02*
X87784649Y-84478390D01*
X87784649Y-84478390D02*
X87737030Y-84526009D01*
X87737030Y-84526009D02*
X87689411Y-84621247D01*
X87689411Y-84621247D02*
X87689411Y-84859342D01*
X87689411Y-84859342D02*
X87737030Y-84954580D01*
X87737030Y-84954580D02*
X87784649Y-85002200D01*
X87784649Y-85002200D02*
X87879887Y-85049819D01*
X87879887Y-85049819D02*
X88117982Y-85049819D01*
X88117982Y-85049819D02*
X88213220Y-85002200D01*
X88213220Y-85002200D02*
X88260839Y-84954580D01*
X52160951Y-93743866D02*
X51399047Y-93743866D01*
X51779999Y-94124819D02*
X51779999Y-93362914D01*
X160499411Y-85099819D02*
X161070839Y-85099819D01*
X160785125Y-85099819D02*
X160785125Y-84099819D01*
X160785125Y-84099819D02*
X160880363Y-84242676D01*
X160880363Y-84242676D02*
X160975601Y-84337914D01*
X160975601Y-84337914D02*
X161070839Y-84385533D01*
X159594649Y-84099819D02*
X160070839Y-84099819D01*
X160070839Y-84099819D02*
X160118458Y-84576009D01*
X160118458Y-84576009D02*
X160070839Y-84528390D01*
X160070839Y-84528390D02*
X159975601Y-84480771D01*
X159975601Y-84480771D02*
X159737506Y-84480771D01*
X159737506Y-84480771D02*
X159642268Y-84528390D01*
X159642268Y-84528390D02*
X159594649Y-84576009D01*
X159594649Y-84576009D02*
X159547030Y-84671247D01*
X159547030Y-84671247D02*
X159547030Y-84909342D01*
X159547030Y-84909342D02*
X159594649Y-85004580D01*
X159594649Y-85004580D02*
X159642268Y-85052200D01*
X159642268Y-85052200D02*
X159737506Y-85099819D01*
X159737506Y-85099819D02*
X159975601Y-85099819D01*
X159975601Y-85099819D02*
X160070839Y-85052200D01*
X160070839Y-85052200D02*
X160118458Y-85004580D01*
D11*
X202709774Y-112067019D02*
X202424060Y-112162257D01*
X202424060Y-112162257D02*
X202328822Y-112257495D01*
X202328822Y-112257495D02*
X202233584Y-112447971D01*
X202233584Y-112447971D02*
X202233584Y-112733685D01*
X202233584Y-112733685D02*
X202328822Y-112924161D01*
X202328822Y-112924161D02*
X202424060Y-113019400D01*
X202424060Y-113019400D02*
X202614536Y-113114638D01*
X202614536Y-113114638D02*
X203376441Y-113114638D01*
X203376441Y-113114638D02*
X203376441Y-111114638D01*
X203376441Y-111114638D02*
X202709774Y-111114638D01*
X202709774Y-111114638D02*
X202519298Y-111209876D01*
X202519298Y-111209876D02*
X202424060Y-111305114D01*
X202424060Y-111305114D02*
X202328822Y-111495590D01*
X202328822Y-111495590D02*
X202328822Y-111686066D01*
X202328822Y-111686066D02*
X202424060Y-111876542D01*
X202424060Y-111876542D02*
X202519298Y-111971780D01*
X202519298Y-111971780D02*
X202709774Y-112067019D01*
X202709774Y-112067019D02*
X203376441Y-112067019D01*
X201376441Y-113114638D02*
X201376441Y-111114638D01*
X200233584Y-113114638D02*
X201090727Y-111971780D01*
X200233584Y-111114638D02*
X201376441Y-112257495D01*
X197947869Y-113019400D02*
X197662155Y-113114638D01*
X197662155Y-113114638D02*
X197185964Y-113114638D01*
X197185964Y-113114638D02*
X196995488Y-113019400D01*
X196995488Y-113019400D02*
X196900250Y-112924161D01*
X196900250Y-112924161D02*
X196805012Y-112733685D01*
X196805012Y-112733685D02*
X196805012Y-112543209D01*
X196805012Y-112543209D02*
X196900250Y-112352733D01*
X196900250Y-112352733D02*
X196995488Y-112257495D01*
X196995488Y-112257495D02*
X197185964Y-112162257D01*
X197185964Y-112162257D02*
X197566917Y-112067019D01*
X197566917Y-112067019D02*
X197757393Y-111971780D01*
X197757393Y-111971780D02*
X197852631Y-111876542D01*
X197852631Y-111876542D02*
X197947869Y-111686066D01*
X197947869Y-111686066D02*
X197947869Y-111495590D01*
X197947869Y-111495590D02*
X197852631Y-111305114D01*
X197852631Y-111305114D02*
X197757393Y-111209876D01*
X197757393Y-111209876D02*
X197566917Y-111114638D01*
X197566917Y-111114638D02*
X197090726Y-111114638D01*
X197090726Y-111114638D02*
X196805012Y-111209876D01*
X196138345Y-111781304D02*
X195757393Y-113114638D01*
X195757393Y-113114638D02*
X195376440Y-112162257D01*
X195376440Y-112162257D02*
X194995488Y-113114638D01*
X194995488Y-113114638D02*
X194614536Y-111781304D01*
X193852631Y-113114638D02*
X193852631Y-111781304D01*
X193852631Y-111114638D02*
X193947869Y-111209876D01*
X193947869Y-111209876D02*
X193852631Y-111305114D01*
X193852631Y-111305114D02*
X193757393Y-111209876D01*
X193757393Y-111209876D02*
X193852631Y-111114638D01*
X193852631Y-111114638D02*
X193852631Y-111305114D01*
X193185964Y-111781304D02*
X192424060Y-111781304D01*
X192900250Y-111114638D02*
X192900250Y-112828923D01*
X192900250Y-112828923D02*
X192805012Y-113019400D01*
X192805012Y-113019400D02*
X192614536Y-113114638D01*
X192614536Y-113114638D02*
X192424060Y-113114638D01*
X190900250Y-113019400D02*
X191090726Y-113114638D01*
X191090726Y-113114638D02*
X191471679Y-113114638D01*
X191471679Y-113114638D02*
X191662155Y-113019400D01*
X191662155Y-113019400D02*
X191757393Y-112924161D01*
X191757393Y-112924161D02*
X191852631Y-112733685D01*
X191852631Y-112733685D02*
X191852631Y-112162257D01*
X191852631Y-112162257D02*
X191757393Y-111971780D01*
X191757393Y-111971780D02*
X191662155Y-111876542D01*
X191662155Y-111876542D02*
X191471679Y-111781304D01*
X191471679Y-111781304D02*
X191090726Y-111781304D01*
X191090726Y-111781304D02*
X190900250Y-111876542D01*
X190043107Y-113114638D02*
X190043107Y-111114638D01*
X189185964Y-113114638D02*
X189185964Y-112067019D01*
X189185964Y-112067019D02*
X189281202Y-111876542D01*
X189281202Y-111876542D02*
X189471678Y-111781304D01*
X189471678Y-111781304D02*
X189757393Y-111781304D01*
X189757393Y-111781304D02*
X189947869Y-111876542D01*
X189947869Y-111876542D02*
X190043107Y-111971780D01*
X187471678Y-113019400D02*
X187662154Y-113114638D01*
X187662154Y-113114638D02*
X188043107Y-113114638D01*
X188043107Y-113114638D02*
X188233583Y-113019400D01*
X188233583Y-113019400D02*
X188328821Y-112828923D01*
X188328821Y-112828923D02*
X188328821Y-112067019D01*
X188328821Y-112067019D02*
X188233583Y-111876542D01*
X188233583Y-111876542D02*
X188043107Y-111781304D01*
X188043107Y-111781304D02*
X187662154Y-111781304D01*
X187662154Y-111781304D02*
X187471678Y-111876542D01*
X187471678Y-111876542D02*
X187376440Y-112067019D01*
X187376440Y-112067019D02*
X187376440Y-112257495D01*
X187376440Y-112257495D02*
X188328821Y-112447971D01*
X186614535Y-113019400D02*
X186424059Y-113114638D01*
X186424059Y-113114638D02*
X186043107Y-113114638D01*
X186043107Y-113114638D02*
X185852630Y-113019400D01*
X185852630Y-113019400D02*
X185757392Y-112828923D01*
X185757392Y-112828923D02*
X185757392Y-112733685D01*
X185757392Y-112733685D02*
X185852630Y-112543209D01*
X185852630Y-112543209D02*
X186043107Y-112447971D01*
X186043107Y-112447971D02*
X186328821Y-112447971D01*
X186328821Y-112447971D02*
X186519297Y-112352733D01*
X186519297Y-112352733D02*
X186614535Y-112162257D01*
X186614535Y-112162257D02*
X186614535Y-112067019D01*
X186614535Y-112067019D02*
X186519297Y-111876542D01*
X186519297Y-111876542D02*
X186328821Y-111781304D01*
X186328821Y-111781304D02*
X186043107Y-111781304D01*
X186043107Y-111781304D02*
X185852630Y-111876542D01*
X182709772Y-112067019D02*
X182424058Y-112162257D01*
X182424058Y-112162257D02*
X182328820Y-112257495D01*
X182328820Y-112257495D02*
X182233582Y-112447971D01*
X182233582Y-112447971D02*
X182233582Y-112733685D01*
X182233582Y-112733685D02*
X182328820Y-112924161D01*
X182328820Y-112924161D02*
X182424058Y-113019400D01*
X182424058Y-113019400D02*
X182614534Y-113114638D01*
X182614534Y-113114638D02*
X183376439Y-113114638D01*
X183376439Y-113114638D02*
X183376439Y-111114638D01*
X183376439Y-111114638D02*
X182709772Y-111114638D01*
X182709772Y-111114638D02*
X182519296Y-111209876D01*
X182519296Y-111209876D02*
X182424058Y-111305114D01*
X182424058Y-111305114D02*
X182328820Y-111495590D01*
X182328820Y-111495590D02*
X182328820Y-111686066D01*
X182328820Y-111686066D02*
X182424058Y-111876542D01*
X182424058Y-111876542D02*
X182519296Y-111971780D01*
X182519296Y-111971780D02*
X182709772Y-112067019D01*
X182709772Y-112067019D02*
X183376439Y-112067019D01*
X181090725Y-113114638D02*
X181281201Y-113019400D01*
X181281201Y-113019400D02*
X181376439Y-112924161D01*
X181376439Y-112924161D02*
X181471677Y-112733685D01*
X181471677Y-112733685D02*
X181471677Y-112162257D01*
X181471677Y-112162257D02*
X181376439Y-111971780D01*
X181376439Y-111971780D02*
X181281201Y-111876542D01*
X181281201Y-111876542D02*
X181090725Y-111781304D01*
X181090725Y-111781304D02*
X180805010Y-111781304D01*
X180805010Y-111781304D02*
X180614534Y-111876542D01*
X180614534Y-111876542D02*
X180519296Y-111971780D01*
X180519296Y-111971780D02*
X180424058Y-112162257D01*
X180424058Y-112162257D02*
X180424058Y-112733685D01*
X180424058Y-112733685D02*
X180519296Y-112924161D01*
X180519296Y-112924161D02*
X180614534Y-113019400D01*
X180614534Y-113019400D02*
X180805010Y-113114638D01*
X180805010Y-113114638D02*
X181090725Y-113114638D01*
X178709772Y-113114638D02*
X178709772Y-112067019D01*
X178709772Y-112067019D02*
X178805010Y-111876542D01*
X178805010Y-111876542D02*
X178995486Y-111781304D01*
X178995486Y-111781304D02*
X179376439Y-111781304D01*
X179376439Y-111781304D02*
X179566915Y-111876542D01*
X178709772Y-113019400D02*
X178900248Y-113114638D01*
X178900248Y-113114638D02*
X179376439Y-113114638D01*
X179376439Y-113114638D02*
X179566915Y-113019400D01*
X179566915Y-113019400D02*
X179662153Y-112828923D01*
X179662153Y-112828923D02*
X179662153Y-112638447D01*
X179662153Y-112638447D02*
X179566915Y-112447971D01*
X179566915Y-112447971D02*
X179376439Y-112352733D01*
X179376439Y-112352733D02*
X178900248Y-112352733D01*
X178900248Y-112352733D02*
X178709772Y-112257495D01*
X177757391Y-113114638D02*
X177757391Y-111781304D01*
X177757391Y-112162257D02*
X177662153Y-111971780D01*
X177662153Y-111971780D02*
X177566915Y-111876542D01*
X177566915Y-111876542D02*
X177376439Y-111781304D01*
X177376439Y-111781304D02*
X177185962Y-111781304D01*
X175662153Y-113114638D02*
X175662153Y-111114638D01*
X175662153Y-113019400D02*
X175852629Y-113114638D01*
X175852629Y-113114638D02*
X176233582Y-113114638D01*
X176233582Y-113114638D02*
X176424058Y-113019400D01*
X176424058Y-113019400D02*
X176519296Y-112924161D01*
X176519296Y-112924161D02*
X176614534Y-112733685D01*
X176614534Y-112733685D02*
X176614534Y-112162257D01*
X176614534Y-112162257D02*
X176519296Y-111971780D01*
X176519296Y-111971780D02*
X176424058Y-111876542D01*
X176424058Y-111876542D02*
X176233582Y-111781304D01*
X176233582Y-111781304D02*
X175852629Y-111781304D01*
X175852629Y-111781304D02*
X175662153Y-111876542D01*
X172043105Y-113114638D02*
X172709772Y-112162257D01*
X173185962Y-113114638D02*
X173185962Y-111114638D01*
X173185962Y-111114638D02*
X172424057Y-111114638D01*
X172424057Y-111114638D02*
X172233581Y-111209876D01*
X172233581Y-111209876D02*
X172138343Y-111305114D01*
X172138343Y-111305114D02*
X172043105Y-111495590D01*
X172043105Y-111495590D02*
X172043105Y-111781304D01*
X172043105Y-111781304D02*
X172138343Y-111971780D01*
X172138343Y-111971780D02*
X172233581Y-112067019D01*
X172233581Y-112067019D02*
X172424057Y-112162257D01*
X172424057Y-112162257D02*
X173185962Y-112162257D01*
X170424057Y-113019400D02*
X170614533Y-113114638D01*
X170614533Y-113114638D02*
X170995486Y-113114638D01*
X170995486Y-113114638D02*
X171185962Y-113019400D01*
X171185962Y-113019400D02*
X171281200Y-112828923D01*
X171281200Y-112828923D02*
X171281200Y-112067019D01*
X171281200Y-112067019D02*
X171185962Y-111876542D01*
X171185962Y-111876542D02*
X170995486Y-111781304D01*
X170995486Y-111781304D02*
X170614533Y-111781304D01*
X170614533Y-111781304D02*
X170424057Y-111876542D01*
X170424057Y-111876542D02*
X170328819Y-112067019D01*
X170328819Y-112067019D02*
X170328819Y-112257495D01*
X170328819Y-112257495D02*
X171281200Y-112447971D01*
X169662152Y-111781304D02*
X169185962Y-113114638D01*
X169185962Y-113114638D02*
X168709771Y-111781304D01*
X166900247Y-113114638D02*
X168043104Y-113114638D01*
X167471676Y-113114638D02*
X167471676Y-111114638D01*
X167471676Y-111114638D02*
X167662152Y-111400352D01*
X167662152Y-111400352D02*
X167852628Y-111590828D01*
X167852628Y-111590828D02*
X168043104Y-111686066D01*
D10*
X189309411Y-85099819D02*
X189880839Y-85099819D01*
X189595125Y-85099819D02*
X189595125Y-84099819D01*
X189595125Y-84099819D02*
X189690363Y-84242676D01*
X189690363Y-84242676D02*
X189785601Y-84337914D01*
X189785601Y-84337914D02*
X189880839Y-84385533D01*
X188833220Y-85099819D02*
X188642744Y-85099819D01*
X188642744Y-85099819D02*
X188547506Y-85052200D01*
X188547506Y-85052200D02*
X188499887Y-85004580D01*
X188499887Y-85004580D02*
X188404649Y-84861723D01*
X188404649Y-84861723D02*
X188357030Y-84671247D01*
X188357030Y-84671247D02*
X188357030Y-84290295D01*
X188357030Y-84290295D02*
X188404649Y-84195057D01*
X188404649Y-84195057D02*
X188452268Y-84147438D01*
X188452268Y-84147438D02*
X188547506Y-84099819D01*
X188547506Y-84099819D02*
X188737982Y-84099819D01*
X188737982Y-84099819D02*
X188833220Y-84147438D01*
X188833220Y-84147438D02*
X188880839Y-84195057D01*
X188880839Y-84195057D02*
X188928458Y-84290295D01*
X188928458Y-84290295D02*
X188928458Y-84528390D01*
X188928458Y-84528390D02*
X188880839Y-84623628D01*
X188880839Y-84623628D02*
X188833220Y-84671247D01*
X188833220Y-84671247D02*
X188737982Y-84718866D01*
X188737982Y-84718866D02*
X188547506Y-84718866D01*
X188547506Y-84718866D02*
X188452268Y-84671247D01*
X188452268Y-84671247D02*
X188404649Y-84623628D01*
X188404649Y-84623628D02*
X188357030Y-84528390D01*
X153369411Y-85089819D02*
X153940839Y-85089819D01*
X153655125Y-85089819D02*
X153655125Y-84089819D01*
X153655125Y-84089819D02*
X153750363Y-84232676D01*
X153750363Y-84232676D02*
X153845601Y-84327914D01*
X153845601Y-84327914D02*
X153940839Y-84375533D01*
X152512268Y-84423152D02*
X152512268Y-85089819D01*
X152750363Y-84042200D02*
X152988458Y-84756485D01*
X152988458Y-84756485D02*
X152369411Y-84756485D01*
X197180839Y-84185057D02*
X197133220Y-84137438D01*
X197133220Y-84137438D02*
X197037982Y-84089819D01*
X197037982Y-84089819D02*
X196799887Y-84089819D01*
X196799887Y-84089819D02*
X196704649Y-84137438D01*
X196704649Y-84137438D02*
X196657030Y-84185057D01*
X196657030Y-84185057D02*
X196609411Y-84280295D01*
X196609411Y-84280295D02*
X196609411Y-84375533D01*
X196609411Y-84375533D02*
X196657030Y-84518390D01*
X196657030Y-84518390D02*
X197228458Y-85089819D01*
X197228458Y-85089819D02*
X196609411Y-85089819D01*
X195990363Y-84089819D02*
X195895125Y-84089819D01*
X195895125Y-84089819D02*
X195799887Y-84137438D01*
X195799887Y-84137438D02*
X195752268Y-84185057D01*
X195752268Y-84185057D02*
X195704649Y-84280295D01*
X195704649Y-84280295D02*
X195657030Y-84470771D01*
X195657030Y-84470771D02*
X195657030Y-84708866D01*
X195657030Y-84708866D02*
X195704649Y-84899342D01*
X195704649Y-84899342D02*
X195752268Y-84994580D01*
X195752268Y-84994580D02*
X195799887Y-85042200D01*
X195799887Y-85042200D02*
X195895125Y-85089819D01*
X195895125Y-85089819D02*
X195990363Y-85089819D01*
X195990363Y-85089819D02*
X196085601Y-85042200D01*
X196085601Y-85042200D02*
X196133220Y-84994580D01*
X196133220Y-84994580D02*
X196180839Y-84899342D01*
X196180839Y-84899342D02*
X196228458Y-84708866D01*
X196228458Y-84708866D02*
X196228458Y-84470771D01*
X196228458Y-84470771D02*
X196180839Y-84280295D01*
X196180839Y-84280295D02*
X196133220Y-84185057D01*
X196133220Y-84185057D02*
X196085601Y-84137438D01*
X196085601Y-84137438D02*
X195990363Y-84089819D01*
X145969411Y-85069819D02*
X146540839Y-85069819D01*
X146255125Y-85069819D02*
X146255125Y-84069819D01*
X146255125Y-84069819D02*
X146350363Y-84212676D01*
X146350363Y-84212676D02*
X146445601Y-84307914D01*
X146445601Y-84307914D02*
X146540839Y-84355533D01*
X145636077Y-84069819D02*
X145017030Y-84069819D01*
X145017030Y-84069819D02*
X145350363Y-84450771D01*
X145350363Y-84450771D02*
X145207506Y-84450771D01*
X145207506Y-84450771D02*
X145112268Y-84498390D01*
X145112268Y-84498390D02*
X145064649Y-84546009D01*
X145064649Y-84546009D02*
X145017030Y-84641247D01*
X145017030Y-84641247D02*
X145017030Y-84879342D01*
X145017030Y-84879342D02*
X145064649Y-84974580D01*
X145064649Y-84974580D02*
X145112268Y-85022200D01*
X145112268Y-85022200D02*
X145207506Y-85069819D01*
X145207506Y-85069819D02*
X145493220Y-85069819D01*
X145493220Y-85069819D02*
X145588458Y-85022200D01*
X145588458Y-85022200D02*
X145636077Y-84974580D01*
X109760363Y-84498390D02*
X109855601Y-84450771D01*
X109855601Y-84450771D02*
X109903220Y-84403152D01*
X109903220Y-84403152D02*
X109950839Y-84307914D01*
X109950839Y-84307914D02*
X109950839Y-84260295D01*
X109950839Y-84260295D02*
X109903220Y-84165057D01*
X109903220Y-84165057D02*
X109855601Y-84117438D01*
X109855601Y-84117438D02*
X109760363Y-84069819D01*
X109760363Y-84069819D02*
X109569887Y-84069819D01*
X109569887Y-84069819D02*
X109474649Y-84117438D01*
X109474649Y-84117438D02*
X109427030Y-84165057D01*
X109427030Y-84165057D02*
X109379411Y-84260295D01*
X109379411Y-84260295D02*
X109379411Y-84307914D01*
X109379411Y-84307914D02*
X109427030Y-84403152D01*
X109427030Y-84403152D02*
X109474649Y-84450771D01*
X109474649Y-84450771D02*
X109569887Y-84498390D01*
X109569887Y-84498390D02*
X109760363Y-84498390D01*
X109760363Y-84498390D02*
X109855601Y-84546009D01*
X109855601Y-84546009D02*
X109903220Y-84593628D01*
X109903220Y-84593628D02*
X109950839Y-84688866D01*
X109950839Y-84688866D02*
X109950839Y-84879342D01*
X109950839Y-84879342D02*
X109903220Y-84974580D01*
X109903220Y-84974580D02*
X109855601Y-85022200D01*
X109855601Y-85022200D02*
X109760363Y-85069819D01*
X109760363Y-85069819D02*
X109569887Y-85069819D01*
X109569887Y-85069819D02*
X109474649Y-85022200D01*
X109474649Y-85022200D02*
X109427030Y-84974580D01*
X109427030Y-84974580D02*
X109379411Y-84879342D01*
X109379411Y-84879342D02*
X109379411Y-84688866D01*
X109379411Y-84688866D02*
X109427030Y-84593628D01*
X109427030Y-84593628D02*
X109474649Y-84546009D01*
X109474649Y-84546009D02*
X109569887Y-84498390D01*
X167709411Y-85089819D02*
X168280839Y-85089819D01*
X167995125Y-85089819D02*
X167995125Y-84089819D01*
X167995125Y-84089819D02*
X168090363Y-84232676D01*
X168090363Y-84232676D02*
X168185601Y-84327914D01*
X168185601Y-84327914D02*
X168280839Y-84375533D01*
X166852268Y-84089819D02*
X167042744Y-84089819D01*
X167042744Y-84089819D02*
X167137982Y-84137438D01*
X167137982Y-84137438D02*
X167185601Y-84185057D01*
X167185601Y-84185057D02*
X167280839Y-84327914D01*
X167280839Y-84327914D02*
X167328458Y-84518390D01*
X167328458Y-84518390D02*
X167328458Y-84899342D01*
X167328458Y-84899342D02*
X167280839Y-84994580D01*
X167280839Y-84994580D02*
X167233220Y-85042200D01*
X167233220Y-85042200D02*
X167137982Y-85089819D01*
X167137982Y-85089819D02*
X166947506Y-85089819D01*
X166947506Y-85089819D02*
X166852268Y-85042200D01*
X166852268Y-85042200D02*
X166804649Y-84994580D01*
X166804649Y-84994580D02*
X166757030Y-84899342D01*
X166757030Y-84899342D02*
X166757030Y-84661247D01*
X166757030Y-84661247D02*
X166804649Y-84566009D01*
X166804649Y-84566009D02*
X166852268Y-84518390D01*
X166852268Y-84518390D02*
X166947506Y-84470771D01*
X166947506Y-84470771D02*
X167137982Y-84470771D01*
X167137982Y-84470771D02*
X167233220Y-84518390D01*
X167233220Y-84518390D02*
X167280839Y-84566009D01*
X167280839Y-84566009D02*
X167328458Y-84661247D01*
X182119411Y-85069819D02*
X182690839Y-85069819D01*
X182405125Y-85069819D02*
X182405125Y-84069819D01*
X182405125Y-84069819D02*
X182500363Y-84212676D01*
X182500363Y-84212676D02*
X182595601Y-84307914D01*
X182595601Y-84307914D02*
X182690839Y-84355533D01*
X181547982Y-84498390D02*
X181643220Y-84450771D01*
X181643220Y-84450771D02*
X181690839Y-84403152D01*
X181690839Y-84403152D02*
X181738458Y-84307914D01*
X181738458Y-84307914D02*
X181738458Y-84260295D01*
X181738458Y-84260295D02*
X181690839Y-84165057D01*
X181690839Y-84165057D02*
X181643220Y-84117438D01*
X181643220Y-84117438D02*
X181547982Y-84069819D01*
X181547982Y-84069819D02*
X181357506Y-84069819D01*
X181357506Y-84069819D02*
X181262268Y-84117438D01*
X181262268Y-84117438D02*
X181214649Y-84165057D01*
X181214649Y-84165057D02*
X181167030Y-84260295D01*
X181167030Y-84260295D02*
X181167030Y-84307914D01*
X181167030Y-84307914D02*
X181214649Y-84403152D01*
X181214649Y-84403152D02*
X181262268Y-84450771D01*
X181262268Y-84450771D02*
X181357506Y-84498390D01*
X181357506Y-84498390D02*
X181547982Y-84498390D01*
X181547982Y-84498390D02*
X181643220Y-84546009D01*
X181643220Y-84546009D02*
X181690839Y-84593628D01*
X181690839Y-84593628D02*
X181738458Y-84688866D01*
X181738458Y-84688866D02*
X181738458Y-84879342D01*
X181738458Y-84879342D02*
X181690839Y-84974580D01*
X181690839Y-84974580D02*
X181643220Y-85022200D01*
X181643220Y-85022200D02*
X181547982Y-85069819D01*
X181547982Y-85069819D02*
X181357506Y-85069819D01*
X181357506Y-85069819D02*
X181262268Y-85022200D01*
X181262268Y-85022200D02*
X181214649Y-84974580D01*
X181214649Y-84974580D02*
X181167030Y-84879342D01*
X181167030Y-84879342D02*
X181167030Y-84688866D01*
X181167030Y-84688866D02*
X181214649Y-84593628D01*
X181214649Y-84593628D02*
X181262268Y-84546009D01*
X181262268Y-84546009D02*
X181357506Y-84498390D01*
X138659411Y-85069819D02*
X139230839Y-85069819D01*
X138945125Y-85069819D02*
X138945125Y-84069819D01*
X138945125Y-84069819D02*
X139040363Y-84212676D01*
X139040363Y-84212676D02*
X139135601Y-84307914D01*
X139135601Y-84307914D02*
X139230839Y-84355533D01*
X138278458Y-84165057D02*
X138230839Y-84117438D01*
X138230839Y-84117438D02*
X138135601Y-84069819D01*
X138135601Y-84069819D02*
X137897506Y-84069819D01*
X137897506Y-84069819D02*
X137802268Y-84117438D01*
X137802268Y-84117438D02*
X137754649Y-84165057D01*
X137754649Y-84165057D02*
X137707030Y-84260295D01*
X137707030Y-84260295D02*
X137707030Y-84355533D01*
X137707030Y-84355533D02*
X137754649Y-84498390D01*
X137754649Y-84498390D02*
X138326077Y-85069819D01*
X138326077Y-85069819D02*
X137707030Y-85069819D01*
X131579411Y-85049819D02*
X132150839Y-85049819D01*
X131865125Y-85049819D02*
X131865125Y-84049819D01*
X131865125Y-84049819D02*
X131960363Y-84192676D01*
X131960363Y-84192676D02*
X132055601Y-84287914D01*
X132055601Y-84287914D02*
X132150839Y-84335533D01*
X130627030Y-85049819D02*
X131198458Y-85049819D01*
X130912744Y-85049819D02*
X130912744Y-84049819D01*
X130912744Y-84049819D02*
X131007982Y-84192676D01*
X131007982Y-84192676D02*
X131103220Y-84287914D01*
X131103220Y-84287914D02*
X131198458Y-84335533D01*
X52350951Y-108563866D02*
X51589047Y-108563866D01*
X124289411Y-85039819D02*
X124860839Y-85039819D01*
X124575125Y-85039819D02*
X124575125Y-84039819D01*
X124575125Y-84039819D02*
X124670363Y-84182676D01*
X124670363Y-84182676D02*
X124765601Y-84277914D01*
X124765601Y-84277914D02*
X124860839Y-84325533D01*
X123670363Y-84039819D02*
X123575125Y-84039819D01*
X123575125Y-84039819D02*
X123479887Y-84087438D01*
X123479887Y-84087438D02*
X123432268Y-84135057D01*
X123432268Y-84135057D02*
X123384649Y-84230295D01*
X123384649Y-84230295D02*
X123337030Y-84420771D01*
X123337030Y-84420771D02*
X123337030Y-84658866D01*
X123337030Y-84658866D02*
X123384649Y-84849342D01*
X123384649Y-84849342D02*
X123432268Y-84944580D01*
X123432268Y-84944580D02*
X123479887Y-84992200D01*
X123479887Y-84992200D02*
X123575125Y-85039819D01*
X123575125Y-85039819D02*
X123670363Y-85039819D01*
X123670363Y-85039819D02*
X123765601Y-84992200D01*
X123765601Y-84992200D02*
X123813220Y-84944580D01*
X123813220Y-84944580D02*
X123860839Y-84849342D01*
X123860839Y-84849342D02*
X123908458Y-84658866D01*
X123908458Y-84658866D02*
X123908458Y-84420771D01*
X123908458Y-84420771D02*
X123860839Y-84230295D01*
X123860839Y-84230295D02*
X123813220Y-84135057D01*
X123813220Y-84135057D02*
X123765601Y-84087438D01*
X123765601Y-84087438D02*
X123670363Y-84039819D01*
M02*
