G04 #@! TF.GenerationSoftware,KiCad,Pcbnew,9.0.0-rc2-6-ga1fa0bdb0b*
G04 #@! TF.CreationDate,2025-02-11T11:14:16+02:00*
G04 #@! TF.ProjectId,can_link_r1,63616e5f-6c69-46e6-9b5f-72312e6b6963,Rev 4*
G04 #@! TF.SameCoordinates,Original*
G04 #@! TF.FileFunction,Copper,L1,Top*
G04 #@! TF.FilePolarity,Positive*
%FSLAX46Y46*%
G04 Gerber Fmt 4.6, Leading zero omitted, Abs format (unit mm)*
G04 Created by KiCad (PCBNEW 9.0.0-rc2-6-ga1fa0bdb0b) date 2025-02-11 11:14:16*
%MOMM*%
%LPD*%
G01*
G04 APERTURE LIST*
G04 Aperture macros list*
%AMRoundRect*
0 Rectangle with rounded corners*
0 $1 Rounding radius*
0 $2 $3 $4 $5 $6 $7 $8 $9 X,Y pos of 4 corners*
0 Add a 4 corners polygon primitive as box body*
4,1,4,$2,$3,$4,$5,$6,$7,$8,$9,$2,$3,0*
0 Add four circle primitives for the rounded corners*
1,1,$1+$1,$2,$3*
1,1,$1+$1,$4,$5*
1,1,$1+$1,$6,$7*
1,1,$1+$1,$8,$9*
0 Add four rect primitives between the rounded corners*
20,1,$1+$1,$2,$3,$4,$5,0*
20,1,$1+$1,$4,$5,$6,$7,0*
20,1,$1+$1,$6,$7,$8,$9,0*
20,1,$1+$1,$8,$9,$2,$3,0*%
G04 Aperture macros list end*
G04 #@! TA.AperFunction,SMDPad,CuDef*
%ADD10RoundRect,0.150000X-0.150000X0.825000X-0.150000X-0.825000X0.150000X-0.825000X0.150000X0.825000X0*%
G04 #@! TD*
G04 #@! TA.AperFunction,SMDPad,CuDef*
%ADD11RoundRect,0.225000X-0.225000X-0.250000X0.225000X-0.250000X0.225000X0.250000X-0.225000X0.250000X0*%
G04 #@! TD*
G04 #@! TA.AperFunction,SMDPad,CuDef*
%ADD12RoundRect,0.250000X-0.450000X0.262500X-0.450000X-0.262500X0.450000X-0.262500X0.450000X0.262500X0*%
G04 #@! TD*
G04 #@! TA.AperFunction,SMDPad,CuDef*
%ADD13R,2.400000X2.000000*%
G04 #@! TD*
G04 #@! TA.AperFunction,SMDPad,CuDef*
%ADD14RoundRect,0.200000X-0.200000X-0.275000X0.200000X-0.275000X0.200000X0.275000X-0.200000X0.275000X0*%
G04 #@! TD*
G04 #@! TA.AperFunction,SMDPad,CuDef*
%ADD15RoundRect,0.200000X0.200000X0.275000X-0.200000X0.275000X-0.200000X-0.275000X0.200000X-0.275000X0*%
G04 #@! TD*
G04 #@! TA.AperFunction,SMDPad,CuDef*
%ADD16RoundRect,0.225000X-0.250000X0.225000X-0.250000X-0.225000X0.250000X-0.225000X0.250000X0.225000X0*%
G04 #@! TD*
G04 #@! TA.AperFunction,SMDPad,CuDef*
%ADD17R,1.750000X0.450000*%
G04 #@! TD*
G04 #@! TA.AperFunction,SMDPad,CuDef*
%ADD18RoundRect,0.225000X-0.225000X-0.375000X0.225000X-0.375000X0.225000X0.375000X-0.225000X0.375000X0*%
G04 #@! TD*
G04 #@! TA.AperFunction,SMDPad,CuDef*
%ADD19RoundRect,0.225000X0.250000X-0.225000X0.250000X0.225000X-0.250000X0.225000X-0.250000X-0.225000X0*%
G04 #@! TD*
G04 #@! TA.AperFunction,ComponentPad*
%ADD20R,1.700000X1.700000*%
G04 #@! TD*
G04 #@! TA.AperFunction,ComponentPad*
%ADD21O,1.700000X1.700000*%
G04 #@! TD*
G04 #@! TA.AperFunction,SMDPad,CuDef*
%ADD22RoundRect,0.218750X0.218750X0.256250X-0.218750X0.256250X-0.218750X-0.256250X0.218750X-0.256250X0*%
G04 #@! TD*
G04 #@! TA.AperFunction,SMDPad,CuDef*
%ADD23RoundRect,0.100000X-0.225000X-0.100000X0.225000X-0.100000X0.225000X0.100000X-0.225000X0.100000X0*%
G04 #@! TD*
G04 #@! TA.AperFunction,ComponentPad*
%ADD24RoundRect,0.250001X1.099999X1.599999X-1.099999X1.599999X-1.099999X-1.599999X1.099999X-1.599999X0*%
G04 #@! TD*
G04 #@! TA.AperFunction,ComponentPad*
%ADD25O,2.700000X3.700000*%
G04 #@! TD*
G04 #@! TA.AperFunction,SMDPad,CuDef*
%ADD26C,1.000000*%
G04 #@! TD*
G04 #@! TA.AperFunction,SMDPad,CuDef*
%ADD27RoundRect,0.150000X-0.512500X-0.150000X0.512500X-0.150000X0.512500X0.150000X-0.512500X0.150000X0*%
G04 #@! TD*
G04 #@! TA.AperFunction,SMDPad,CuDef*
%ADD28RoundRect,0.250000X-0.475000X0.250000X-0.475000X-0.250000X0.475000X-0.250000X0.475000X0.250000X0*%
G04 #@! TD*
G04 #@! TA.AperFunction,SMDPad,CuDef*
%ADD29RoundRect,0.200000X-0.275000X0.200000X-0.275000X-0.200000X0.275000X-0.200000X0.275000X0.200000X0*%
G04 #@! TD*
G04 #@! TA.AperFunction,SMDPad,CuDef*
%ADD30RoundRect,0.225000X0.225000X0.375000X-0.225000X0.375000X-0.225000X-0.375000X0.225000X-0.375000X0*%
G04 #@! TD*
G04 #@! TA.AperFunction,SMDPad,CuDef*
%ADD31RoundRect,0.250000X0.350000X0.450000X-0.350000X0.450000X-0.350000X-0.450000X0.350000X-0.450000X0*%
G04 #@! TD*
G04 #@! TA.AperFunction,ViaPad*
%ADD32C,0.800000*%
G04 #@! TD*
G04 #@! TA.AperFunction,Conductor*
%ADD33C,0.250000*%
G04 #@! TD*
G04 #@! TA.AperFunction,Conductor*
%ADD34C,0.300000*%
G04 #@! TD*
G04 #@! TA.AperFunction,Conductor*
%ADD35C,0.254000*%
G04 #@! TD*
G04 #@! TA.AperFunction,Conductor*
%ADD36C,0.500000*%
G04 #@! TD*
G04 #@! TA.AperFunction,Conductor*
%ADD37C,0.400000*%
G04 #@! TD*
G04 APERTURE END LIST*
D10*
G04 #@! TO.P,U4,1,TXD*
G04 #@! TO.N,/MCU/CAN_TX*
X150150000Y-115890000D03*
G04 #@! TO.P,U4,2,GND*
G04 #@! TO.N,GND*
X148880000Y-115890000D03*
G04 #@! TO.P,U4,3,VCC*
G04 #@! TO.N,+3V3*
X147610000Y-115890000D03*
G04 #@! TO.P,U4,4,RXD*
G04 #@! TO.N,/MCU/CAN_RX*
X146340000Y-115890000D03*
G04 #@! TO.P,U4,5,VIO*
G04 #@! TO.N,/MCU/CAN_VIO*
X146340000Y-120840000D03*
G04 #@! TO.P,U4,6,CANL*
G04 #@! TO.N,/CAN_N*
X147610000Y-120840000D03*
G04 #@! TO.P,U4,7,CANH*
G04 #@! TO.N,/CAN_P*
X148880000Y-120840000D03*
G04 #@! TO.P,U4,8,STB*
G04 #@! TO.N,/MCU/CAN_STBY*
X150150000Y-120840000D03*
G04 #@! TD*
D11*
G04 #@! TO.P,C5,1*
G04 #@! TO.N,+3V3*
X147695000Y-112025000D03*
G04 #@! TO.P,C5,2*
G04 #@! TO.N,GND*
X149245000Y-112025000D03*
G04 #@! TD*
D12*
G04 #@! TO.P,R14,1*
G04 #@! TO.N,/CAN_P*
X149900000Y-125187500D03*
G04 #@! TO.P,R14,2*
G04 #@! TO.N,/CAN_N*
X149900000Y-127012500D03*
G04 #@! TD*
D13*
G04 #@! TO.P,Y1,1,1*
G04 #@! TO.N,Net-(U3-OSC1_CLKIN{slash}RA7)*
X149590000Y-101840000D03*
G04 #@! TO.P,Y1,2,2*
G04 #@! TO.N,Net-(U3-OSC2_CLKOUT{slash}RA6)*
X149590000Y-105540000D03*
G04 #@! TD*
D14*
G04 #@! TO.P,R17,1*
G04 #@! TO.N,Net-(D4-K)*
X162600000Y-113450000D03*
G04 #@! TO.P,R17,2*
G04 #@! TO.N,/UART0_TX*
X164250000Y-113450000D03*
G04 #@! TD*
D15*
G04 #@! TO.P,R16,1*
G04 #@! TO.N,Net-(D3-K)*
X170925000Y-113450000D03*
G04 #@! TO.P,R16,2*
G04 #@! TO.N,/UART0_RX*
X169275000Y-113450000D03*
G04 #@! TD*
D16*
G04 #@! TO.P,C3,1*
G04 #@! TO.N,+3V3*
X166350000Y-102950000D03*
G04 #@! TO.P,C3,2*
G04 #@! TO.N,GND*
X166350000Y-104500000D03*
G04 #@! TD*
D17*
G04 #@! TO.P,U3,1,VPP/~{MCLR}/RE3*
G04 #@! TO.N,/MCU/RESET*
X156250000Y-97725000D03*
G04 #@! TO.P,U3,2,RA0*
G04 #@! TO.N,/MCU/OBD2_VIN*
X156250000Y-98375000D03*
G04 #@! TO.P,U3,3,RA1*
G04 #@! TO.N,/MCU/LED*
X156250000Y-99025000D03*
G04 #@! TO.P,U3,4,RA2*
G04 #@! TO.N,unconnected-(U3-RA2-Pad4)*
X156250000Y-99675000D03*
G04 #@! TO.P,U3,5,RA3*
G04 #@! TO.N,unconnected-(U3-RA3-Pad5)*
X156250000Y-100325000D03*
G04 #@! TO.P,U3,6,RA4*
G04 #@! TO.N,unconnected-(U3-RA4-Pad6)*
X156250000Y-100975000D03*
G04 #@! TO.P,U3,7,RA5*
G04 #@! TO.N,unconnected-(U3-RA5-Pad7)*
X156250000Y-101625000D03*
G04 #@! TO.P,U3,8,VSS*
G04 #@! TO.N,GND*
X156250000Y-102275000D03*
G04 #@! TO.P,U3,9,OSC1_CLKIN/RA7*
G04 #@! TO.N,Net-(U3-OSC1_CLKIN{slash}RA7)*
X156250000Y-102925000D03*
G04 #@! TO.P,U3,10,OSC2_CLKOUT/RA6*
G04 #@! TO.N,Net-(U3-OSC2_CLKOUT{slash}RA6)*
X156250000Y-103575000D03*
G04 #@! TO.P,U3,11,RC0/SOSCO*
G04 #@! TO.N,unconnected-(U3-RC0{slash}SOSCO-Pad11)*
X156250000Y-104225000D03*
G04 #@! TO.P,U3,12,RC1/SOSCI*
G04 #@! TO.N,unconnected-(U3-RC1{slash}SOSCI-Pad12)*
X156250000Y-104875000D03*
G04 #@! TO.P,U3,13,RC2*
G04 #@! TO.N,/MCU/CAN_VIO*
X156250000Y-105525000D03*
G04 #@! TO.P,U3,14,RC3*
G04 #@! TO.N,/MCU/CAN_STBY*
X156250000Y-106175000D03*
G04 #@! TO.P,U3,15,RC4*
G04 #@! TO.N,unconnected-(U3-RC4-Pad15)*
X163450000Y-106175000D03*
G04 #@! TO.P,U3,16,RC5*
G04 #@! TO.N,unconnected-(U3-RC5-Pad16)*
X163450000Y-105525000D03*
G04 #@! TO.P,U3,17,RC6*
G04 #@! TO.N,/MCU/PIC_TX*
X163450000Y-104875000D03*
G04 #@! TO.P,U3,18,RC7*
G04 #@! TO.N,/MCU/PIC_RX*
X163450000Y-104225000D03*
G04 #@! TO.P,U3,19,VSS*
G04 #@! TO.N,GND*
X163450000Y-103575000D03*
G04 #@! TO.P,U3,20,VDD*
G04 #@! TO.N,+3V3*
X163450000Y-102925000D03*
G04 #@! TO.P,U3,21,RB0*
G04 #@! TO.N,unconnected-(U3-RB0-Pad21)*
X163450000Y-102275000D03*
G04 #@! TO.P,U3,22,RB1*
G04 #@! TO.N,/MCU/PIC_PIN1*
X163450000Y-101625000D03*
G04 #@! TO.P,U3,23,RB2*
G04 #@! TO.N,/MCU/PIC_PIN2*
X163450000Y-100975000D03*
G04 #@! TO.P,U3,24,RB3*
G04 #@! TO.N,/MCU/CAN_RX*
X163450000Y-100325000D03*
G04 #@! TO.P,U3,25,RB4*
G04 #@! TO.N,/MCU/CAN_TX*
X163450000Y-99675000D03*
G04 #@! TO.P,U3,26,RB5*
G04 #@! TO.N,unconnected-(U3-RB5-Pad26)*
X163450000Y-99025000D03*
G04 #@! TO.P,U3,27,ICSPCLK/RB6*
G04 #@! TO.N,/MCU/ICSP_CLK*
X163450000Y-98375000D03*
G04 #@! TO.P,U3,28,ICSPDAT/RB7*
G04 #@! TO.N,/MCU/ICSP_DAT*
X163450000Y-97725000D03*
G04 #@! TD*
D18*
G04 #@! TO.P,D4,1,K*
G04 #@! TO.N,Net-(D4-K)*
X162425000Y-115550000D03*
G04 #@! TO.P,D4,2,A*
G04 #@! TO.N,GND*
X165725000Y-115550000D03*
G04 #@! TD*
D19*
G04 #@! TO.P,C1,1*
G04 #@! TO.N,/MCU/RESET*
X153350000Y-97425000D03*
G04 #@! TO.P,C1,2*
G04 #@! TO.N,GND*
X153350000Y-95875000D03*
G04 #@! TD*
D20*
G04 #@! TO.P,J1,1,UART1_TX*
G04 #@! TO.N,/MCU/PIC_RX*
X189255000Y-93393000D03*
D21*
G04 #@! TO.P,J1,2,PA1*
G04 #@! TO.N,unconnected-(J1-PA1-Pad2)*
X189255000Y-90853000D03*
G04 #@! TO.P,J1,3,UART1_RX*
G04 #@! TO.N,/MCU/PIC_TX*
X186715000Y-93393000D03*
G04 #@! TO.P,J1,4,PC24*
G04 #@! TO.N,unconnected-(J1-PC24-Pad4)*
X186715000Y-90853000D03*
G04 #@! TO.P,J1,5,GND*
G04 #@! TO.N,GND*
X184175000Y-93393000D03*
G04 #@! TO.P,J1,6,PC14*
G04 #@! TO.N,unconnected-(J1-PC14-Pad6)*
X184175000Y-90853000D03*
G04 #@! TO.P,J1,7,UART0_RX*
G04 #@! TO.N,/UART0_RX*
X181635000Y-93393000D03*
G04 #@! TO.P,J1,8,PC13*
G04 #@! TO.N,unconnected-(J1-PC13-Pad8)*
X181635000Y-90853000D03*
G04 #@! TO.P,J1,9,UART0_TX*
G04 #@! TO.N,/UART0_TX*
X179095000Y-93393000D03*
G04 #@! TO.P,J1,10,PC15*
G04 #@! TO.N,unconnected-(J1-PC15-Pad10)*
X179095000Y-90853000D03*
G04 #@! TO.P,J1,11,GND*
G04 #@! TO.N,GND*
X176555000Y-93393000D03*
G04 #@! TO.P,J1,12,PA2*
G04 #@! TO.N,/MCU/PIC_PIN1*
X176555000Y-90853000D03*
G04 #@! TO.P,J1,13,PC11*
G04 #@! TO.N,/3V3_ON*
X174015000Y-93393000D03*
G04 #@! TO.P,J1,14,TWI_SCL*
G04 #@! TO.N,unconnected-(J1-TWI_SCL-Pad14)*
X174015000Y-90853000D03*
G04 #@! TO.P,J1,15,PC10*
G04 #@! TO.N,/MCU/PIC_PIN2*
X171475000Y-93393000D03*
G04 #@! TO.P,J1,16,TWI_SDA*
G04 #@! TO.N,unconnected-(J1-TWI_SDA-Pad16)*
X171475000Y-90853000D03*
G04 #@! TO.P,J1,17,GND*
G04 #@! TO.N,GND*
X168935000Y-93393000D03*
G04 #@! TO.P,J1,18,GND*
X168935000Y-90853000D03*
G04 #@! TD*
D14*
G04 #@! TO.P,R2,1*
G04 #@! TO.N,+3V3*
X145475000Y-132435000D03*
G04 #@! TO.P,R2,2*
G04 #@! TO.N,Net-(D1-A)*
X147125000Y-132435000D03*
G04 #@! TD*
D22*
G04 #@! TO.P,D1,1,K*
G04 #@! TO.N,Net-(D1-K)*
X150362500Y-132475000D03*
G04 #@! TO.P,D1,2,A*
G04 #@! TO.N,Net-(D1-A)*
X148787500Y-132475000D03*
G04 #@! TD*
D14*
G04 #@! TO.P,R21,1*
G04 #@! TO.N,/3V3_ON*
X180325000Y-102700000D03*
G04 #@! TO.P,R21,2*
G04 #@! TO.N,GND*
X181975000Y-102700000D03*
G04 #@! TD*
D15*
G04 #@! TO.P,R20,1*
G04 #@! TO.N,/OBD2_VIN*
X159250000Y-120025000D03*
G04 #@! TO.P,R20,2*
G04 #@! TO.N,/OBD2_MEAS*
X157600000Y-120025000D03*
G04 #@! TD*
G04 #@! TO.P,R18,1*
G04 #@! TO.N,/SERIAL_TX*
X164100000Y-117600000D03*
G04 #@! TO.P,R18,2*
G04 #@! TO.N,Net-(D4-K)*
X162450000Y-117600000D03*
G04 #@! TD*
D16*
G04 #@! TO.P,C6,1*
G04 #@! TO.N,Net-(U3-OSC1_CLKIN{slash}RA7)*
X146580000Y-101300000D03*
G04 #@! TO.P,C6,2*
G04 #@! TO.N,GND*
X146580000Y-102850000D03*
G04 #@! TD*
D20*
G04 #@! TO.P,J2,1,VSYS*
G04 #@! TO.N,+VSYS*
X189255000Y-96899000D03*
D21*
G04 #@! TO.P,J2,2,3.3V*
G04 #@! TO.N,Net-(J2-3.3V)*
X186715000Y-96899000D03*
G04 #@! TD*
D11*
G04 #@! TO.P,C4,1*
G04 #@! TO.N,+3V3*
X147670000Y-113625000D03*
G04 #@! TO.P,C4,2*
G04 #@! TO.N,GND*
X149220000Y-113625000D03*
G04 #@! TD*
D19*
G04 #@! TO.P,C2,1*
G04 #@! TO.N,Net-(U3-OSC2_CLKOUT{slash}RA6)*
X146580000Y-106080000D03*
G04 #@! TO.P,C2,2*
G04 #@! TO.N,GND*
X146580000Y-104530000D03*
G04 #@! TD*
D23*
G04 #@! TO.P,U1,6*
G04 #@! TO.N,Net-(D1-K)*
X148800000Y-129400000D03*
G04 #@! TO.P,U1,5*
G04 #@! TO.N,/OBD2_MEAS*
X148800000Y-130050000D03*
G04 #@! TO.P,U1,4*
G04 #@! TO.N,GND*
X148800000Y-130700000D03*
G04 #@! TO.P,U1,3*
G04 #@! TO.N,/MCU/OBD2_VIN*
X146900000Y-130700000D03*
G04 #@! TO.P,U1,2*
G04 #@! TO.N,/MCU/LED*
X146900000Y-130050000D03*
G04 #@! TO.P,U1,1*
G04 #@! TO.N,GND*
X146900000Y-129400000D03*
G04 #@! TD*
D24*
G04 #@! TO.P,J3,1,Pin_1*
G04 #@! TO.N,unconnected-(J3-Pin_1-Pad1)*
X171925000Y-129000000D03*
D25*
G04 #@! TO.P,J3,2,Pin_2*
G04 #@! TO.N,unconnected-(J3-Pin_2-Pad2)*
X167725000Y-129000000D03*
G04 #@! TO.P,J3,3,Pin_3*
G04 #@! TO.N,GND*
X163525000Y-129000000D03*
G04 #@! TO.P,J3,4,Pin_4*
X159325000Y-129000000D03*
G04 #@! TO.P,J3,5,Pin_5*
G04 #@! TO.N,/CAN_N*
X155125000Y-129000000D03*
G04 #@! TO.P,J3,6,Pin_6*
G04 #@! TO.N,unconnected-(J3-Pin_6-Pad6)*
X171925000Y-123500000D03*
G04 #@! TO.P,J3,7,Pin_7*
G04 #@! TO.N,/SERIAL_RX*
X167725000Y-123500000D03*
G04 #@! TO.P,J3,8,Pin_8*
G04 #@! TO.N,/SERIAL_TX*
X163525000Y-123500000D03*
G04 #@! TO.P,J3,9,Pin_9*
G04 #@! TO.N,/OBD2_VIN*
X159325000Y-123500000D03*
G04 #@! TO.P,J3,10,Pin_10*
G04 #@! TO.N,/CAN_P*
X155125000Y-123500000D03*
G04 #@! TD*
D26*
G04 #@! TO.P,FID1,*
G04 #@! TO.N,*
X133344000Y-132840200D03*
G04 #@! TD*
G04 #@! TO.P,FID2,*
G04 #@! TO.N,*
X189376400Y-73226400D03*
G04 #@! TD*
D14*
G04 #@! TO.P,R15,1*
G04 #@! TO.N,/SERIAL_RX*
X169275000Y-117600000D03*
G04 #@! TO.P,R15,2*
G04 #@! TO.N,Net-(D3-K)*
X170925000Y-117600000D03*
G04 #@! TD*
D27*
G04 #@! TO.P,U2,1,OUT*
G04 #@! TO.N,+3V3*
X180350000Y-99150000D03*
G04 #@! TO.P,U2,2,OUT*
X180350000Y-100100000D03*
G04 #@! TO.P,U2,3,EN*
G04 #@! TO.N,/3V3_ON*
X180350000Y-101050000D03*
G04 #@! TO.P,U2,4,GND*
G04 #@! TO.N,GND*
X182625000Y-101050000D03*
G04 #@! TO.P,U2,5,IN*
G04 #@! TO.N,Net-(J2-3.3V)*
X182625000Y-100100000D03*
G04 #@! TO.P,U2,6,IN*
X182625000Y-99150000D03*
G04 #@! TD*
D28*
G04 #@! TO.P,C10,1*
G04 #@! TO.N,+3V3*
X168350000Y-102950000D03*
G04 #@! TO.P,C10,2*
G04 #@! TO.N,GND*
X168350000Y-104850000D03*
G04 #@! TD*
D29*
G04 #@! TO.P,R4,1*
G04 #@! TO.N,+3V3*
X151700000Y-95825000D03*
G04 #@! TO.P,R4,2*
G04 #@! TO.N,/MCU/RESET*
X151700000Y-97475000D03*
G04 #@! TD*
D26*
G04 #@! TO.P,FID3,*
G04 #@! TO.N,*
X133394800Y-73302600D03*
G04 #@! TD*
D30*
G04 #@! TO.P,D3,1,K*
G04 #@! TO.N,Net-(D3-K)*
X170950000Y-115550000D03*
G04 #@! TO.P,D3,2,A*
G04 #@! TO.N,GND*
X167650000Y-115550000D03*
G04 #@! TD*
D14*
G04 #@! TO.P,R19,1*
G04 #@! TO.N,/OBD2_MEAS*
X157600000Y-118375000D03*
G04 #@! TO.P,R19,2*
G04 #@! TO.N,GND*
X159250000Y-118375000D03*
G04 #@! TD*
D31*
G04 #@! TO.P,R1,1*
G04 #@! TO.N,Net-(J2-3.3V)*
X179710000Y-97140000D03*
G04 #@! TO.P,R1,2*
G04 #@! TO.N,+3V3*
X177710000Y-97140000D03*
G04 #@! TD*
D20*
G04 #@! TO.P,J4,1,Pin_1*
G04 #@! TO.N,+3V3*
X155425000Y-83225000D03*
D21*
G04 #@! TO.P,J4,2,Pin_2*
G04 #@! TO.N,unconnected-(J4-Pin_2-Pad2)*
X155425000Y-85765000D03*
G04 #@! TO.P,J4,3,Pin_3*
G04 #@! TO.N,/MCU/RESET*
X157965000Y-83225000D03*
G04 #@! TO.P,J4,4,Pin_4*
G04 #@! TO.N,/MCU/ICSP_DAT*
X157965000Y-85765000D03*
G04 #@! TO.P,J4,5,Pin_5*
G04 #@! TO.N,/MCU/ICSP_CLK*
X160505000Y-83225000D03*
G04 #@! TO.P,J4,6,Pin_6*
G04 #@! TO.N,GND*
X160505000Y-85765000D03*
G04 #@! TD*
D32*
G04 #@! TO.N,GND*
X142170000Y-107340000D03*
X142170000Y-130540000D03*
X142170000Y-124740000D03*
X142170000Y-118940000D03*
X142170000Y-113140000D03*
X145990000Y-129020000D03*
X150625000Y-130700000D03*
G04 #@! TO.N,/OBD2_MEAS*
X152100000Y-121225000D03*
X150025000Y-129275000D03*
G04 #@! TO.N,GND*
X191050000Y-110050000D03*
X149050000Y-72050000D03*
X157050000Y-72050000D03*
X141050000Y-81050000D03*
X155050000Y-134050000D03*
X191050000Y-112050000D03*
X147050000Y-72050000D03*
X161050000Y-72050000D03*
X132050000Y-126050000D03*
X150375000Y-122775000D03*
X132050000Y-118050000D03*
X143050000Y-72050000D03*
X132050000Y-82050000D03*
X175050000Y-134050000D03*
X178125000Y-103225000D03*
X132050000Y-96050000D03*
X132050000Y-100050000D03*
X151050000Y-72050000D03*
X166350000Y-105400000D03*
X187050000Y-134050000D03*
X146300000Y-123075000D03*
X135050000Y-134050000D03*
X173125000Y-105075000D03*
X191050000Y-134050000D03*
X157900000Y-91400000D03*
X182625000Y-101800000D03*
X157150000Y-113350000D03*
X154500000Y-101900000D03*
X175850000Y-97190000D03*
X163050000Y-134050000D03*
X173050000Y-134050000D03*
X184050000Y-121050000D03*
X159050000Y-134050000D03*
X163800000Y-110750000D03*
X159000000Y-101800000D03*
X191050000Y-116050000D03*
X132050000Y-130050000D03*
X132050000Y-108050000D03*
X147050000Y-134050000D03*
X132050000Y-72050000D03*
X150200000Y-112050000D03*
X171050000Y-134050000D03*
X132050000Y-128050000D03*
X167050000Y-134050000D03*
X169050000Y-72050000D03*
X132050000Y-80050000D03*
X175050000Y-72050000D03*
X132050000Y-74050000D03*
X158150000Y-97250000D03*
X166650000Y-115550000D03*
X181050000Y-113050000D03*
X138050000Y-96050000D03*
X144050000Y-77050000D03*
X157050000Y-134050000D03*
X191050000Y-118050000D03*
X150325000Y-94750000D03*
X132050000Y-98050000D03*
X191050000Y-124050000D03*
X179050000Y-72050000D03*
X191050000Y-79050000D03*
X172050000Y-85050000D03*
X163050000Y-72050000D03*
X151450000Y-119600000D03*
X181050000Y-134050000D03*
X132050000Y-92050000D03*
X150750000Y-110600000D03*
X178050000Y-113050000D03*
X165050000Y-72050000D03*
X132050000Y-112050000D03*
X159025000Y-105875000D03*
X191050000Y-104050000D03*
X176125000Y-106675000D03*
X145540000Y-104540000D03*
X151900000Y-106270000D03*
X165050000Y-134050000D03*
X132050000Y-102050000D03*
X138050000Y-100050000D03*
X144050000Y-81050000D03*
X181050000Y-117050000D03*
X145510000Y-102920000D03*
X154620000Y-96860000D03*
X168350000Y-105850000D03*
X161050000Y-134050000D03*
X132050000Y-86050000D03*
X153300000Y-110650000D03*
X151050000Y-134050000D03*
X178300000Y-102325000D03*
X145375000Y-109025000D03*
X152775000Y-100700000D03*
X172100000Y-110425000D03*
X185050000Y-134050000D03*
X138050000Y-77050000D03*
X178050000Y-121050000D03*
X191050000Y-108050000D03*
X147725000Y-100275000D03*
X148280000Y-128210000D03*
X141050000Y-96050000D03*
X183800000Y-101325000D03*
X167375000Y-108275000D03*
X159700000Y-94950000D03*
X191050000Y-85050000D03*
X138050000Y-85050000D03*
X162425000Y-95775000D03*
X139050000Y-72050000D03*
X174875000Y-103350000D03*
X161125000Y-108350000D03*
X153350000Y-94950000D03*
X141050000Y-134050000D03*
X163800000Y-94050000D03*
X177050000Y-72050000D03*
X159850000Y-110750000D03*
X163900000Y-86950000D03*
X184060000Y-97890000D03*
X191050000Y-128050000D03*
X132050000Y-124050000D03*
X170350000Y-112150000D03*
X150200000Y-113650000D03*
X143700000Y-99750000D03*
X144050000Y-96050000D03*
X159100000Y-89550000D03*
X184050000Y-117050000D03*
X132050000Y-78050000D03*
X144050000Y-85050000D03*
X154500000Y-112850000D03*
X132050000Y-90050000D03*
X153050000Y-72050000D03*
X161650000Y-104000000D03*
X167450000Y-110750000D03*
X191050000Y-114050000D03*
X191050000Y-75050000D03*
X183050000Y-72050000D03*
X154275000Y-104575000D03*
X191050000Y-126050000D03*
X175050000Y-81050000D03*
X149425000Y-123800000D03*
X132050000Y-88050000D03*
X141050000Y-72050000D03*
X132050000Y-104050000D03*
X132050000Y-84050000D03*
X178050000Y-117050000D03*
X145050000Y-134050000D03*
X132050000Y-106050000D03*
X166625000Y-96000000D03*
X178050000Y-85050000D03*
X181050000Y-121050000D03*
X191050000Y-132050000D03*
X191050000Y-102050000D03*
X191050000Y-77050000D03*
X132050000Y-120050000D03*
X191050000Y-87050000D03*
X139050000Y-134050000D03*
X169050000Y-134050000D03*
X146250000Y-125550000D03*
X141050000Y-104050000D03*
X171050000Y-72050000D03*
X137050000Y-72050000D03*
X141050000Y-85050000D03*
X159050000Y-72050000D03*
X172050000Y-81050000D03*
X137050000Y-134050000D03*
X159125000Y-100050000D03*
X184060000Y-96470000D03*
X185050000Y-72050000D03*
X171275000Y-106750000D03*
X161675000Y-98575000D03*
X191050000Y-120050000D03*
X132050000Y-116050000D03*
X175050000Y-85050000D03*
X147400000Y-107180000D03*
X152450000Y-112600000D03*
X153050000Y-134050000D03*
X181050000Y-72050000D03*
X191050000Y-122050000D03*
X145050000Y-72050000D03*
X174025000Y-102250000D03*
X173050000Y-72050000D03*
X149050000Y-134050000D03*
X184050000Y-113050000D03*
X143050000Y-134050000D03*
X179050000Y-134050000D03*
X172150000Y-98025000D03*
X151400000Y-118000000D03*
X177050000Y-134050000D03*
X175025000Y-97950000D03*
X191050000Y-89050000D03*
X152650000Y-114850000D03*
X155725000Y-107500000D03*
X191050000Y-106050000D03*
X132050000Y-76050000D03*
X132050000Y-114050000D03*
X154550000Y-100250000D03*
X155750000Y-114900000D03*
X191050000Y-83050000D03*
X135050000Y-72050000D03*
X141050000Y-77050000D03*
X132050000Y-122050000D03*
X189050000Y-134050000D03*
X132050000Y-94050000D03*
X155050000Y-72050000D03*
X141050000Y-100050000D03*
X145070000Y-121260000D03*
X167050000Y-72050000D03*
X138050000Y-104050000D03*
X183050000Y-134050000D03*
X138050000Y-81050000D03*
X191050000Y-130050000D03*
X173775000Y-109100000D03*
X191050000Y-100050000D03*
X182900000Y-102800000D03*
X191050000Y-81050000D03*
X153640000Y-113820000D03*
X178050000Y-81050000D03*
X159350000Y-114050000D03*
X132050000Y-110050000D03*
X160750000Y-118250000D03*
X187050000Y-72050000D03*
X175000000Y-96325000D03*
X172875000Y-96600000D03*
X155600000Y-110600000D03*
G04 #@! TO.N,/UART0_RX*
X177050000Y-102150000D03*
G04 #@! TO.N,/UART0_TX*
X176050000Y-102300000D03*
G04 #@! TO.N,+3V3*
X151700000Y-94800000D03*
X168490000Y-101010000D03*
X161700000Y-102900000D03*
G04 #@! TO.N,/MCU/PIC_TX*
X161800000Y-105150000D03*
X167000000Y-97300000D03*
G04 #@! TO.N,/MCU/PIC_RX*
X166650000Y-98350000D03*
X165000000Y-104250000D03*
G04 #@! TO.N,/3V3_ON*
X174050000Y-101050000D03*
G04 #@! TO.N,/MCU/CAN_RX*
X146545000Y-111105000D03*
G04 #@! TO.N,/MCU/CAN_TX*
X157000000Y-110700000D03*
X153700000Y-115250000D03*
X157000000Y-107850000D03*
G04 #@! TO.N,/MCU/PIC_PIN2*
X170380000Y-96230000D03*
G04 #@! TO.N,/MCU/PIC_PIN1*
X171620000Y-96300000D03*
G04 #@! TD*
D33*
G04 #@! TO.N,Net-(D1-K)*
X149837500Y-131275000D02*
X150362500Y-131800000D01*
X149750000Y-131275000D02*
X149600000Y-131275000D01*
X150362500Y-132475000D02*
X150362500Y-131800000D01*
X149750000Y-131275000D02*
X149837500Y-131275000D01*
D34*
G04 #@! TO.N,GND*
X150625000Y-130700000D02*
X151050000Y-130700000D01*
X148800000Y-130700000D02*
X150625000Y-130700000D01*
G04 #@! TO.N,Net-(D1-A)*
X148747500Y-132435000D02*
X148787500Y-132475000D01*
X147125000Y-132435000D02*
X148747500Y-132435000D01*
G04 #@! TO.N,+3V3*
X144510000Y-132435000D02*
X145475000Y-132435000D01*
X143225000Y-131150000D02*
X144510000Y-132435000D01*
X143225000Y-101975000D02*
X143225000Y-131150000D01*
X149375000Y-95825000D02*
X143225000Y-101975000D01*
X151700000Y-95825000D02*
X149375000Y-95825000D01*
D33*
G04 #@! TO.N,/MCU/OBD2_VIN*
X143700000Y-128975000D02*
X145425000Y-130700000D01*
X145425000Y-130700000D02*
X146900000Y-130700000D01*
X143700000Y-102175000D02*
X143700000Y-128975000D01*
X147500000Y-98375000D02*
X143700000Y-102175000D01*
X156250000Y-98375000D02*
X147500000Y-98375000D01*
G04 #@! TO.N,/MCU/LED*
X144100000Y-102525000D02*
X144825000Y-101800000D01*
X144350000Y-128850000D02*
X144100000Y-128600000D01*
X144825000Y-101800000D02*
X144725000Y-101900000D01*
X144100000Y-128600000D02*
X144100000Y-102525000D01*
X145550000Y-130050000D02*
X146900000Y-130050000D01*
X144350000Y-128850000D02*
X145550000Y-130050000D01*
X147600000Y-99025000D02*
X144825000Y-101800000D01*
X156250000Y-99025000D02*
X147600000Y-99025000D01*
G04 #@! TO.N,/OBD2_MEAS*
X157600000Y-120025000D02*
X157600000Y-118375000D01*
X153300000Y-120025000D02*
X152100000Y-121225000D01*
X157600000Y-120025000D02*
X153300000Y-120025000D01*
X150025000Y-129750000D02*
X150025000Y-129275000D01*
X148800000Y-130050000D02*
X149725000Y-130050000D01*
X149725000Y-130050000D02*
X150025000Y-129750000D01*
G04 #@! TO.N,Net-(D1-K)*
X148100000Y-131275000D02*
X148700000Y-131275000D01*
X147950000Y-129575000D02*
X147950000Y-131125000D01*
X148125000Y-129400000D02*
X147950000Y-129575000D01*
X148800000Y-129400000D02*
X148125000Y-129400000D01*
X147950000Y-131125000D02*
X148100000Y-131275000D01*
X148700000Y-131275000D02*
X149600000Y-131275000D01*
X148475000Y-131275000D02*
X148700000Y-131275000D01*
G04 #@! TO.N,Net-(D3-K)*
X170925000Y-113450000D02*
X170925000Y-117600000D01*
G04 #@! TO.N,Net-(D4-K)*
X162450000Y-117600000D02*
X162450000Y-113600000D01*
X162450000Y-113600000D02*
X162600000Y-113450000D01*
D35*
G04 #@! TO.N,GND*
X162025000Y-103575000D02*
X161800000Y-103800000D01*
X161800000Y-103800000D02*
X161800000Y-103850000D01*
D34*
X156250000Y-102275000D02*
X154875000Y-102275000D01*
D35*
X163450000Y-103575000D02*
X162025000Y-103575000D01*
D33*
X146580000Y-104530000D02*
X146580000Y-102850000D01*
D35*
X161800000Y-103850000D02*
X161650000Y-104000000D01*
D34*
X154875000Y-102275000D02*
X154800000Y-102200000D01*
D33*
G04 #@! TO.N,/MCU/RESET*
X154225000Y-97475000D02*
X151700000Y-97475000D01*
X154475000Y-97725000D02*
X154225000Y-97475000D01*
D35*
X156700000Y-95550000D02*
X156250000Y-96000000D01*
D33*
X156250000Y-97725000D02*
X154475000Y-97725000D01*
D35*
X157965000Y-83225000D02*
X156700000Y-84490000D01*
X156700000Y-84490000D02*
X156700000Y-95550000D01*
X156250000Y-96000000D02*
X156250000Y-97725000D01*
G04 #@! TO.N,/UART0_RX*
X177050000Y-104100000D02*
X177050000Y-102150000D01*
X169275000Y-113450000D02*
X169275000Y-111875000D01*
X169275000Y-111875000D02*
X171550000Y-109600000D01*
X171550000Y-109600000D02*
X177050000Y-104100000D01*
G04 #@! TO.N,/UART0_TX*
X166350000Y-113450000D02*
X170700000Y-109100000D01*
X176050000Y-103750000D02*
X176050000Y-102300000D01*
X164250000Y-113450000D02*
X166350000Y-113450000D01*
X170700000Y-109100000D02*
X176050000Y-103750000D01*
D36*
G04 #@! TO.N,+3V3*
X169650000Y-102950000D02*
X170250000Y-103550000D01*
X167950000Y-109500000D02*
X169775000Y-107675000D01*
X168350000Y-102950000D02*
X169650000Y-102950000D01*
X147610000Y-111290000D02*
X149400000Y-109500000D01*
X170250000Y-107200000D02*
X169775000Y-107675000D01*
D37*
X163450000Y-102925000D02*
X161725000Y-102925000D01*
D36*
X147610000Y-115900000D02*
X147610000Y-111290000D01*
X149400000Y-109500000D02*
X167950000Y-109500000D01*
X170250000Y-103550000D02*
X170250000Y-107200000D01*
D34*
X161725000Y-102925000D02*
X161700000Y-102900000D01*
D37*
X151700000Y-94800000D02*
X151700000Y-95825000D01*
D35*
G04 #@! TO.N,/MCU/ICSP_DAT*
X157965000Y-85765000D02*
X157965000Y-89965000D01*
X157965000Y-89965000D02*
X163450000Y-95450000D01*
X163450000Y-95450000D02*
X163450000Y-97725000D01*
G04 #@! TO.N,/MCU/ICSP_CLK*
X164775000Y-98375000D02*
X164950000Y-98200000D01*
X163450000Y-98375000D02*
X164775000Y-98375000D01*
X161725000Y-83225000D02*
X160505000Y-83225000D01*
X164950000Y-98200000D02*
X164950000Y-86450000D01*
X164950000Y-86450000D02*
X161725000Y-83225000D01*
D33*
G04 #@! TO.N,/SERIAL_TX*
X164100000Y-119400000D02*
X164100000Y-117600000D01*
X163525000Y-119975000D02*
X164100000Y-119400000D01*
X163525000Y-123500000D02*
X163525000Y-119975000D01*
G04 #@! TO.N,/SERIAL_RX*
X167725000Y-123500000D02*
X167725000Y-120825000D01*
X167725000Y-120825000D02*
X169275000Y-119275000D01*
X169275000Y-119275000D02*
X169275000Y-117600000D01*
G04 #@! TO.N,/MCU/CAN_VIO*
X144760000Y-117040990D02*
X144760000Y-117080000D01*
X144760495Y-117040495D02*
X144760000Y-117040990D01*
X153601009Y-105525000D02*
X151707009Y-107419000D01*
X144760000Y-117080000D02*
X146340000Y-118660000D01*
X156250000Y-105525000D02*
X153601009Y-105525000D01*
X151707009Y-107419000D02*
X148409446Y-107419000D01*
X148409446Y-107419000D02*
X144760495Y-111067951D01*
X144760495Y-111067951D02*
X144760495Y-117040495D01*
X146340000Y-118660000D02*
X146340000Y-120850000D01*
D35*
G04 #@! TO.N,/CAN_P*
X153437500Y-125187500D02*
X155125000Y-123500000D01*
X148587500Y-125187500D02*
X148300000Y-124900000D01*
X148880000Y-122320000D02*
X148880000Y-120850000D01*
X148300000Y-122900000D02*
X148880000Y-122320000D01*
X148300000Y-124900000D02*
X148300000Y-124420000D01*
X149900000Y-125187500D02*
X148587500Y-125187500D01*
X148300000Y-124420000D02*
X148300000Y-122900000D01*
X149900000Y-125187500D02*
X153437500Y-125187500D01*
X155125000Y-124250000D02*
X155125000Y-123500000D01*
G04 #@! TO.N,/CAN_N*
X153137500Y-127012500D02*
X155125000Y-129000000D01*
X147610000Y-120850000D02*
X147610000Y-126210000D01*
X147785000Y-126385000D02*
X148412500Y-127012500D01*
X148412500Y-127012500D02*
X149900000Y-127012500D01*
X147610000Y-126210000D02*
X147785000Y-126385000D01*
X149900000Y-127012500D02*
X153137500Y-127012500D01*
G04 #@! TO.N,/MCU/PIC_TX*
X163450000Y-104875000D02*
X161875000Y-104875000D01*
X186715000Y-93393000D02*
X185308000Y-94800000D01*
X163450000Y-104875000D02*
X162075000Y-104875000D01*
X185308000Y-94800000D02*
X169500000Y-94800000D01*
X162075000Y-104875000D02*
X161800000Y-105150000D01*
X169500000Y-94800000D02*
X167000000Y-97300000D01*
G04 #@! TO.N,/MCU/PIC_RX*
X170050000Y-95400000D02*
X187248000Y-95400000D01*
X166650000Y-98350000D02*
X167100000Y-98350000D01*
X167100000Y-98350000D02*
X170050000Y-95400000D01*
X165000000Y-104250000D02*
X163475000Y-104250000D01*
X163475000Y-104250000D02*
X163450000Y-104225000D01*
X187248000Y-95400000D02*
X189255000Y-93393000D01*
G04 #@! TO.N,/3V3_ON*
X180325000Y-101075000D02*
X180350000Y-101050000D01*
X174050000Y-101050000D02*
X180350000Y-101050000D01*
X180350000Y-101050000D02*
X178150000Y-101050000D01*
X180325000Y-102700000D02*
X180325000Y-101075000D01*
G04 #@! TO.N,/OBD2_VIN*
X159325000Y-120100000D02*
X159350000Y-120075000D01*
X159325000Y-123500000D02*
X159325000Y-120100000D01*
G04 #@! TO.N,/MCU/CAN_RX*
X159350000Y-108550000D02*
X157250000Y-108550000D01*
X160650000Y-107250000D02*
X159350000Y-108550000D01*
X146340000Y-111310000D02*
X146545000Y-111105000D01*
X146545000Y-111105000D02*
X149100000Y-108550000D01*
X149100000Y-108550000D02*
X157250000Y-108550000D01*
X160650000Y-101200000D02*
X160650000Y-107250000D01*
X146340000Y-115900000D02*
X146340000Y-111310000D01*
X161525000Y-100325000D02*
X160650000Y-101200000D01*
X163450000Y-100325000D02*
X161525000Y-100325000D01*
D33*
G04 #@! TO.N,/MCU/CAN_STBY*
X153595000Y-106175000D02*
X151950000Y-107820000D01*
D35*
X146450000Y-118200000D02*
X149250000Y-118200000D01*
D33*
X151950000Y-107820000D02*
X148630000Y-107820000D01*
X156250000Y-106175000D02*
X153595000Y-106175000D01*
D35*
X149250000Y-118200000D02*
X150150000Y-119100000D01*
X150150000Y-119100000D02*
X150150000Y-120850000D01*
X145200000Y-111250000D02*
X145200000Y-116950000D01*
X145200000Y-116950000D02*
X146450000Y-118200000D01*
D33*
X148630000Y-107820000D02*
X145200000Y-111250000D01*
D35*
G04 #@! TO.N,/MCU/CAN_TX*
X155300000Y-113650000D02*
X157000000Y-111950000D01*
X150160000Y-115900000D02*
X151150000Y-115900000D01*
X157000000Y-110700000D02*
X157000000Y-110650000D01*
X157000000Y-107850000D02*
X158800000Y-107850000D01*
X153700000Y-115250000D02*
X153050000Y-115900000D01*
X153050000Y-115900000D02*
X150160000Y-115900000D01*
X157000000Y-111950000D02*
X157000000Y-110700000D01*
X153700000Y-115250000D02*
X155300000Y-113650000D01*
X159900000Y-100900000D02*
X161125000Y-99675000D01*
X158800000Y-107850000D02*
X159900000Y-106750000D01*
X159900000Y-106750000D02*
X159900000Y-100900000D01*
X161125000Y-99675000D02*
X163450000Y-99675000D01*
X150160000Y-115900000D02*
X150150000Y-115890000D01*
D33*
G04 #@! TO.N,/MCU/PIC_PIN2*
X163450000Y-100975000D02*
X165635000Y-100975000D01*
X165635000Y-100975000D02*
X170380000Y-96230000D01*
G04 #@! TO.N,/MCU/PIC_PIN1*
X166295000Y-101625000D02*
X171620000Y-96300000D01*
X163450000Y-101625000D02*
X166295000Y-101625000D01*
G04 #@! TO.N,Net-(U3-OSC2_CLKOUT{slash}RA6)*
X151090000Y-105540000D02*
X149590000Y-105540000D01*
X156250000Y-103575000D02*
X153055000Y-103575000D01*
X146580000Y-106080000D02*
X149050000Y-106080000D01*
X149050000Y-106080000D02*
X149590000Y-105540000D01*
X153055000Y-103575000D02*
X151090000Y-105540000D01*
G04 #@! TO.N,Net-(U3-OSC1_CLKIN{slash}RA7)*
X151990000Y-101840000D02*
X149590000Y-101840000D01*
X153075000Y-102925000D02*
X151990000Y-101840000D01*
X146580000Y-101300000D02*
X149050000Y-101300000D01*
X149050000Y-101300000D02*
X149590000Y-101840000D01*
X156250000Y-102925000D02*
X153075000Y-102925000D01*
G04 #@! TO.N,/MCU/LED*
X156250000Y-99025000D02*
X156165000Y-98940000D01*
G04 #@! TD*
G04 #@! TA.AperFunction,Conductor*
G04 #@! TO.N,+3V3*
G36*
X178378326Y-96121674D02*
G01*
X178400000Y-96174000D01*
X178400000Y-98880000D01*
X180937651Y-98850859D01*
X180990222Y-98871931D01*
X181012495Y-98924004D01*
X181012500Y-98924854D01*
X181012500Y-100326000D01*
X180990826Y-100378326D01*
X180938500Y-100400000D01*
X172220000Y-100400000D01*
X172220000Y-103426000D01*
X172198326Y-103478326D01*
X172146000Y-103500000D01*
X167475000Y-103500000D01*
X165674000Y-103500000D01*
X165621674Y-103478326D01*
X165600000Y-103426000D01*
X165600000Y-103150000D01*
X164353464Y-103150000D01*
X164346217Y-103149644D01*
X164344754Y-103149500D01*
X164344748Y-103149500D01*
X162649000Y-103149500D01*
X162596674Y-103127826D01*
X162575000Y-103075500D01*
X162575000Y-102774500D01*
X162596674Y-102722174D01*
X162649000Y-102700500D01*
X164344754Y-102700500D01*
X164346217Y-102700356D01*
X164353464Y-102700000D01*
X165600000Y-102700000D01*
X165600000Y-102024500D01*
X165621674Y-101972174D01*
X165674000Y-101950500D01*
X166337851Y-101950500D01*
X166337853Y-101950500D01*
X166420639Y-101928318D01*
X166494862Y-101885465D01*
X169526369Y-98853957D01*
X169578359Y-98832286D01*
X176830000Y-98800000D01*
X176820275Y-96174273D01*
X176841755Y-96121868D01*
X176894000Y-96100001D01*
X176894274Y-96100000D01*
X178326000Y-96100000D01*
X178378326Y-96121674D01*
G37*
G04 #@! TD.AperFunction*
G04 #@! TD*
G04 #@! TA.AperFunction,Conductor*
G04 #@! TO.N,Net-(J2-3.3V)*
G36*
X187560485Y-95870312D02*
G01*
X187596145Y-95930397D01*
X187600000Y-95961077D01*
X187600000Y-100276000D01*
X187580315Y-100343039D01*
X187527511Y-100388794D01*
X187476000Y-100400000D01*
X183196667Y-100400000D01*
X183188688Y-100399572D01*
X183188683Y-100399678D01*
X183185379Y-100399500D01*
X183185373Y-100399500D01*
X183185366Y-100399500D01*
X182074000Y-100399500D01*
X182006961Y-100379815D01*
X181961206Y-100327011D01*
X181950000Y-100275500D01*
X181950000Y-98700007D01*
X181950000Y-98699999D01*
X181930000Y-98130000D01*
X181929999Y-98130000D01*
X179206432Y-98130000D01*
X179139393Y-98110315D01*
X179093638Y-98057511D01*
X179082455Y-98003593D01*
X179117639Y-96191593D01*
X179138622Y-96124948D01*
X179192304Y-96080227D01*
X179241616Y-96070000D01*
X182656000Y-96070000D01*
X182723039Y-96089685D01*
X182768794Y-96142489D01*
X182780000Y-96194000D01*
X182780000Y-98690700D01*
X182779999Y-98690700D01*
X185699999Y-98700000D01*
X185699999Y-98699999D01*
X185700000Y-98700000D01*
X185700000Y-96001500D01*
X185719685Y-95934461D01*
X185772489Y-95888706D01*
X185824000Y-95877500D01*
X187310861Y-95877500D01*
X187310864Y-95877500D01*
X187432308Y-95844959D01*
X187432309Y-95844957D01*
X187440158Y-95842855D01*
X187440787Y-95845203D01*
X187498002Y-95839045D01*
X187560485Y-95870312D01*
G37*
G04 #@! TD.AperFunction*
G04 #@! TD*
G04 #@! TA.AperFunction,Conductor*
G04 #@! TO.N,GND*
G36*
X145757623Y-101829350D02*
G01*
X145820246Y-101891974D01*
X145823036Y-101896550D01*
X145826569Y-101902525D01*
X145831830Y-101911420D01*
X145943580Y-102023170D01*
X145999161Y-102056040D01*
X146079609Y-102103618D01*
X146088800Y-102106288D01*
X146231373Y-102147709D01*
X146266837Y-102150500D01*
X146893162Y-102150499D01*
X146928627Y-102147709D01*
X147080390Y-102103618D01*
X147216420Y-102023170D01*
X147328170Y-101911420D01*
X147328173Y-101911414D01*
X147335064Y-101902532D01*
X147336126Y-101901661D01*
X147336721Y-101900426D01*
X147370316Y-101873633D01*
X147403556Y-101846386D01*
X147404888Y-101846062D01*
X147405962Y-101845207D01*
X147447871Y-101835641D01*
X147489626Y-101825518D01*
X147492305Y-101825500D01*
X147790500Y-101825500D01*
X147876843Y-101845207D01*
X147946084Y-101900426D01*
X147984511Y-101980218D01*
X147989500Y-102024500D01*
X147989500Y-102871518D01*
X148002323Y-102952480D01*
X148004353Y-102965300D01*
X148004354Y-102965303D01*
X148004354Y-102965305D01*
X148061951Y-103078344D01*
X148151657Y-103168050D01*
X148264692Y-103225644D01*
X148264696Y-103225646D01*
X148358481Y-103240500D01*
X150821518Y-103240499D01*
X150915304Y-103225646D01*
X151028342Y-103168050D01*
X151118050Y-103078342D01*
X151175646Y-102965304D01*
X151190500Y-102871519D01*
X151190500Y-102564500D01*
X151195489Y-102542641D01*
X151195489Y-102520218D01*
X151205217Y-102500016D01*
X151210207Y-102478157D01*
X151224188Y-102460625D01*
X151233916Y-102440426D01*
X151251446Y-102426446D01*
X151265426Y-102408916D01*
X151285625Y-102399188D01*
X151303157Y-102385207D01*
X151325016Y-102380217D01*
X151345218Y-102370489D01*
X151389500Y-102365500D01*
X151689903Y-102365500D01*
X151776246Y-102385207D01*
X151830617Y-102423786D01*
X152506116Y-103099285D01*
X152553235Y-103174273D01*
X152563151Y-103262280D01*
X152533900Y-103345873D01*
X152506116Y-103380713D01*
X151469399Y-104417430D01*
X151394411Y-104464549D01*
X151306404Y-104474465D01*
X151222811Y-104445214D01*
X151160187Y-104382590D01*
X151151375Y-104367061D01*
X151118049Y-104301656D01*
X151028342Y-104211949D01*
X150915307Y-104154355D01*
X150915304Y-104154354D01*
X150915302Y-104154353D01*
X150915300Y-104154353D01*
X150849818Y-104143982D01*
X150821519Y-104139500D01*
X150821518Y-104139500D01*
X148358481Y-104139500D01*
X148264696Y-104154354D01*
X148264694Y-104154354D01*
X148151655Y-104211951D01*
X148061949Y-104301657D01*
X148004355Y-104414692D01*
X148004353Y-104414699D01*
X147989500Y-104508481D01*
X147989500Y-105019737D01*
X147989501Y-105355500D01*
X147984512Y-105377358D01*
X147984512Y-105399782D01*
X147974783Y-105419983D01*
X147969794Y-105441843D01*
X147955812Y-105459375D01*
X147946085Y-105479574D01*
X147928557Y-105493552D01*
X147914576Y-105511084D01*
X147894374Y-105520812D01*
X147876844Y-105534793D01*
X147854984Y-105539782D01*
X147834783Y-105549511D01*
X147790501Y-105554500D01*
X147492305Y-105554500D01*
X147405962Y-105534793D01*
X147336721Y-105479574D01*
X147335064Y-105477468D01*
X147328169Y-105468579D01*
X147216420Y-105356830D01*
X147080390Y-105276381D01*
X146984400Y-105248494D01*
X146928627Y-105232291D01*
X146893163Y-105229500D01*
X146893157Y-105229500D01*
X146266842Y-105229500D01*
X146231372Y-105232291D01*
X146079608Y-105276382D01*
X145943579Y-105356830D01*
X145831830Y-105468579D01*
X145751381Y-105604609D01*
X145715392Y-105728486D01*
X145707291Y-105756373D01*
X145705312Y-105781527D01*
X145704500Y-105791842D01*
X145704500Y-106368157D01*
X145707291Y-106403627D01*
X145751382Y-106555391D01*
X145826574Y-106682532D01*
X145831830Y-106691420D01*
X145943580Y-106803170D01*
X145997763Y-106835214D01*
X146079609Y-106883618D01*
X146107496Y-106891719D01*
X146231373Y-106927709D01*
X146266837Y-106930500D01*
X146893162Y-106930499D01*
X146928627Y-106927709D01*
X147080390Y-106883618D01*
X147216420Y-106803170D01*
X147328170Y-106691420D01*
X147328173Y-106691414D01*
X147335064Y-106682532D01*
X147336126Y-106681661D01*
X147336721Y-106680426D01*
X147370316Y-106653633D01*
X147403556Y-106626386D01*
X147404888Y-106626062D01*
X147405962Y-106625207D01*
X147447871Y-106615641D01*
X147489626Y-106605518D01*
X147492305Y-106605500D01*
X147851935Y-106605500D01*
X147938278Y-106625207D01*
X148007519Y-106680426D01*
X148029245Y-106714156D01*
X148061949Y-106778341D01*
X148065142Y-106782736D01*
X148099948Y-106864173D01*
X148095973Y-106952647D01*
X148054003Y-107030635D01*
X148044861Y-107040415D01*
X147988941Y-107096335D01*
X144965214Y-110120062D01*
X144890226Y-110167181D01*
X144802219Y-110177097D01*
X144718626Y-110147846D01*
X144656002Y-110085222D01*
X144626751Y-110001629D01*
X144625500Y-109979348D01*
X144625500Y-102825097D01*
X144645207Y-102738754D01*
X144683786Y-102684383D01*
X144927743Y-102440426D01*
X145245505Y-102122665D01*
X145245505Y-102122663D01*
X145261881Y-102106288D01*
X145261884Y-102106283D01*
X145511038Y-101857130D01*
X145586023Y-101810015D01*
X145674029Y-101800099D01*
X145757623Y-101829350D01*
G37*
G04 #@! TD.AperFunction*
G04 #@! TA.AperFunction,Conductor*
G36*
X169486843Y-103925207D02*
G01*
X169556084Y-103980426D01*
X169594511Y-104060218D01*
X169599500Y-104104500D01*
X169599500Y-106848126D01*
X169579793Y-106934469D01*
X169541214Y-106988840D01*
X167738840Y-108791214D01*
X167663852Y-108838333D01*
X167598126Y-108849500D01*
X160276925Y-108849500D01*
X160190582Y-108829793D01*
X160121341Y-108774574D01*
X160082914Y-108694782D01*
X160082914Y-108606218D01*
X160121341Y-108526426D01*
X160136211Y-108509786D01*
X161072106Y-107573892D01*
X161141552Y-107453608D01*
X161177501Y-107319446D01*
X161177501Y-107180553D01*
X161177501Y-107168359D01*
X161177500Y-107168341D01*
X161177500Y-106056431D01*
X161197207Y-105970088D01*
X161252426Y-105900847D01*
X161332218Y-105862420D01*
X161420782Y-105862420D01*
X161452648Y-105872577D01*
X161566503Y-105919737D01*
X161721158Y-105950500D01*
X161721159Y-105950500D01*
X161878839Y-105950500D01*
X161878842Y-105950500D01*
X161936680Y-105938995D01*
X162025204Y-105941478D01*
X162103888Y-105982126D01*
X162157143Y-106052889D01*
X162174500Y-106134170D01*
X162174500Y-106431518D01*
X162187323Y-106512480D01*
X162189353Y-106525300D01*
X162189354Y-106525303D01*
X162189354Y-106525305D01*
X162246951Y-106638344D01*
X162336657Y-106728050D01*
X162397718Y-106759162D01*
X162449696Y-106785646D01*
X162543481Y-106800500D01*
X164356518Y-106800499D01*
X164450304Y-106785646D01*
X164563342Y-106728050D01*
X164653050Y-106638342D01*
X164710646Y-106525304D01*
X164725500Y-106431519D01*
X164725499Y-105918482D01*
X164719583Y-105881128D01*
X164719584Y-105818867D01*
X164725500Y-105781519D01*
X164725499Y-105268482D01*
X164725498Y-105268478D01*
X164725234Y-105265121D01*
X164725499Y-105263316D01*
X164725499Y-105260663D01*
X164725889Y-105260663D01*
X164738103Y-105177498D01*
X164787715Y-105104135D01*
X164864245Y-105059564D01*
X164923620Y-105050500D01*
X165078841Y-105050500D01*
X165078842Y-105050500D01*
X165233497Y-105019737D01*
X165379179Y-104959394D01*
X165510289Y-104871789D01*
X165621789Y-104760289D01*
X165709394Y-104629179D01*
X165769737Y-104483497D01*
X165800500Y-104328842D01*
X165800500Y-104171158D01*
X165794963Y-104143321D01*
X165797446Y-104054795D01*
X165838095Y-103976111D01*
X165908858Y-103922856D01*
X165990139Y-103905500D01*
X169400500Y-103905500D01*
X169486843Y-103925207D01*
G37*
G04 #@! TD.AperFunction*
G04 #@! TA.AperFunction,Conductor*
G36*
X155121155Y-106720207D02*
G01*
X155125156Y-106722190D01*
X155197718Y-106759162D01*
X155249696Y-106785646D01*
X155343481Y-106800500D01*
X156473812Y-106800499D01*
X156560154Y-106820206D01*
X156629395Y-106875424D01*
X156667822Y-106955217D01*
X156667822Y-107043780D01*
X156629396Y-107123573D01*
X156584371Y-107164961D01*
X156489711Y-107228211D01*
X156489707Y-107228214D01*
X156378214Y-107339707D01*
X156378208Y-107339715D01*
X156290607Y-107470818D01*
X156290603Y-107470825D01*
X156230264Y-107616499D01*
X156230262Y-107616506D01*
X156199500Y-107771158D01*
X156199500Y-107823500D01*
X156179793Y-107909843D01*
X156124574Y-107979084D01*
X156044782Y-108017511D01*
X156000500Y-108022500D01*
X152971097Y-108022500D01*
X152884754Y-108002793D01*
X152815513Y-107947574D01*
X152777086Y-107867782D01*
X152777086Y-107779218D01*
X152815513Y-107699426D01*
X152830383Y-107682786D01*
X153754383Y-106758786D01*
X153829371Y-106711667D01*
X153895097Y-106700500D01*
X155034812Y-106700500D01*
X155121155Y-106720207D01*
G37*
G04 #@! TD.AperFunction*
G04 #@! TA.AperFunction,Conductor*
G36*
X157550574Y-90298342D02*
G01*
X157567214Y-90313212D01*
X157652447Y-90398445D01*
X157652453Y-90398450D01*
X162864214Y-95610211D01*
X162911333Y-95685199D01*
X162922500Y-95750925D01*
X162922500Y-96900500D01*
X162902793Y-96986843D01*
X162847574Y-97056084D01*
X162767782Y-97094511D01*
X162723501Y-97099500D01*
X162543481Y-97099500D01*
X162449696Y-97114354D01*
X162449694Y-97114354D01*
X162336655Y-97171951D01*
X162246949Y-97261657D01*
X162189355Y-97374692D01*
X162189353Y-97374699D01*
X162174501Y-97468474D01*
X162174500Y-97468488D01*
X162174500Y-97981518D01*
X162174501Y-97981520D01*
X162180416Y-98018877D01*
X162180416Y-98081123D01*
X162174500Y-98118482D01*
X162174500Y-98631518D01*
X162174501Y-98631520D01*
X162180416Y-98668877D01*
X162182752Y-98706693D01*
X162182338Y-98718991D01*
X162174500Y-98768481D01*
X162174500Y-98951823D01*
X162174387Y-98955195D01*
X162163920Y-98994852D01*
X162154793Y-99034843D01*
X162152660Y-99037517D01*
X162151787Y-99040826D01*
X162125136Y-99072030D01*
X162099574Y-99104084D01*
X162096493Y-99105567D01*
X162094270Y-99108171D01*
X162056723Y-99124720D01*
X162019782Y-99142511D01*
X162015186Y-99143028D01*
X162013230Y-99143891D01*
X162008843Y-99143743D01*
X161975500Y-99147500D01*
X161206658Y-99147500D01*
X161206642Y-99147499D01*
X161194447Y-99147499D01*
X161055554Y-99147499D01*
X161055551Y-99147499D01*
X160921392Y-99183448D01*
X160921388Y-99183449D01*
X160801108Y-99252893D01*
X159477933Y-100576068D01*
X159477932Y-100576069D01*
X159477895Y-100576107D01*
X159473657Y-100583448D01*
X159408448Y-100696392D01*
X159394860Y-100747105D01*
X159390356Y-100763911D01*
X159390356Y-100763913D01*
X159372500Y-100830550D01*
X159372500Y-106449075D01*
X159352793Y-106535418D01*
X159314214Y-106589789D01*
X158639789Y-107264214D01*
X158564801Y-107311333D01*
X158499075Y-107322500D01*
X157687006Y-107322500D01*
X157600663Y-107302793D01*
X157577411Y-107289602D01*
X157560564Y-107278486D01*
X157510289Y-107228211D01*
X157379179Y-107140606D01*
X157305068Y-107109908D01*
X157289193Y-107099434D01*
X157271400Y-107080832D01*
X157250405Y-107065935D01*
X157241170Y-107049227D01*
X157227977Y-107035433D01*
X157220017Y-107010953D01*
X157207565Y-106988422D01*
X157206494Y-106969361D01*
X157200593Y-106951210D01*
X157204043Y-106925700D01*
X157202600Y-106899998D01*
X157209904Y-106882363D01*
X157212463Y-106863446D01*
X157226641Y-106841957D01*
X157236492Y-106818176D01*
X157250724Y-106805456D01*
X157261238Y-106789523D01*
X157283332Y-106776316D01*
X157302528Y-106759162D01*
X157308419Y-106756034D01*
X157363342Y-106728050D01*
X157453050Y-106638342D01*
X157510646Y-106525304D01*
X157525500Y-106431519D01*
X157525499Y-105918482D01*
X157519583Y-105881128D01*
X157519584Y-105818867D01*
X157525500Y-105781519D01*
X157525499Y-105268482D01*
X157519583Y-105231128D01*
X157519584Y-105168867D01*
X157525500Y-105131519D01*
X157525499Y-104618482D01*
X157519583Y-104581128D01*
X157519584Y-104518867D01*
X157525186Y-104483500D01*
X157525500Y-104481519D01*
X157525499Y-103968482D01*
X157519583Y-103931128D01*
X157519584Y-103868867D01*
X157525500Y-103831519D01*
X157525499Y-103318482D01*
X157519583Y-103281128D01*
X157519584Y-103218867D01*
X157525500Y-103181519D01*
X157525499Y-102668482D01*
X157524201Y-102660289D01*
X157523468Y-102655658D01*
X157510646Y-102574696D01*
X157453050Y-102461658D01*
X157453049Y-102461657D01*
X157453048Y-102461655D01*
X157407107Y-102415714D01*
X157359988Y-102340726D01*
X157350072Y-102252719D01*
X157379323Y-102169126D01*
X157407107Y-102134286D01*
X157453049Y-102088343D01*
X157453050Y-102088342D01*
X157464176Y-102066506D01*
X157510646Y-101975304D01*
X157525500Y-101881519D01*
X157525499Y-101368482D01*
X157519583Y-101331128D01*
X157519584Y-101268867D01*
X157525500Y-101231519D01*
X157525499Y-100718482D01*
X157519583Y-100681128D01*
X157519584Y-100618867D01*
X157522310Y-100601657D01*
X157525500Y-100581519D01*
X157525499Y-100068482D01*
X157519583Y-100031128D01*
X157519584Y-99968867D01*
X157525500Y-99931519D01*
X157525499Y-99418482D01*
X157519583Y-99381128D01*
X157519584Y-99318867D01*
X157525500Y-99281519D01*
X157525499Y-98768482D01*
X157519583Y-98731128D01*
X157519584Y-98668867D01*
X157521606Y-98656103D01*
X157525500Y-98631519D01*
X157525499Y-98118482D01*
X157519583Y-98081128D01*
X157519584Y-98018867D01*
X157525500Y-97981519D01*
X157525499Y-97468482D01*
X157510646Y-97374696D01*
X157453050Y-97261658D01*
X157453049Y-97261657D01*
X157453048Y-97261655D01*
X157363342Y-97171949D01*
X157250307Y-97114355D01*
X157250304Y-97114354D01*
X157250302Y-97114353D01*
X157250300Y-97114353D01*
X157156519Y-97099500D01*
X156976500Y-97099500D01*
X156890157Y-97079793D01*
X156820916Y-97024574D01*
X156782489Y-96944782D01*
X156777500Y-96900500D01*
X156777500Y-96300925D01*
X156784928Y-96268376D01*
X156788667Y-96235200D01*
X156794688Y-96225616D01*
X156797207Y-96214582D01*
X156835783Y-96160213D01*
X157007509Y-95988486D01*
X157007513Y-95988484D01*
X157023891Y-95972105D01*
X157023893Y-95972105D01*
X157122105Y-95873893D01*
X157166850Y-95796392D01*
X157191552Y-95753608D01*
X157215735Y-95663354D01*
X157227500Y-95619447D01*
X157227500Y-90453926D01*
X157247207Y-90367583D01*
X157302426Y-90298342D01*
X157382218Y-90259915D01*
X157470782Y-90259915D01*
X157550574Y-90298342D01*
G37*
G04 #@! TD.AperFunction*
G04 #@! TA.AperFunction,Conductor*
G36*
X154794158Y-104104758D02*
G01*
X154813284Y-104104120D01*
X154836791Y-104114488D01*
X154861844Y-104120207D01*
X154876806Y-104132139D01*
X154894314Y-104139862D01*
X154910996Y-104159405D01*
X154931085Y-104175426D01*
X154939387Y-104192665D01*
X154951813Y-104207222D01*
X154958363Y-104232068D01*
X154969512Y-104255218D01*
X154973277Y-104288638D01*
X154974390Y-104292859D01*
X154974500Y-104296168D01*
X154974501Y-104481518D01*
X154982342Y-104531033D01*
X154982754Y-104543357D01*
X154980416Y-104581123D01*
X154974500Y-104618482D01*
X154974500Y-104800500D01*
X154954793Y-104886843D01*
X154899574Y-104956084D01*
X154819782Y-104994511D01*
X154775500Y-104999500D01*
X153531821Y-104999500D01*
X153475845Y-105014500D01*
X153439795Y-105024159D01*
X153398171Y-105035312D01*
X153278344Y-105104494D01*
X153278343Y-105104495D01*
X153213972Y-105168867D01*
X153180504Y-105202335D01*
X153180502Y-105202337D01*
X152345584Y-106037256D01*
X151547626Y-106835214D01*
X151519356Y-106852977D01*
X151493255Y-106873793D01*
X151482221Y-106876311D01*
X151472638Y-106882333D01*
X151406912Y-106893500D01*
X151372502Y-106893500D01*
X151286159Y-106873793D01*
X151216918Y-106818574D01*
X151178491Y-106738782D01*
X151175952Y-106663369D01*
X151181997Y-106625207D01*
X151190500Y-106571519D01*
X151190499Y-106203664D01*
X151210206Y-106117323D01*
X151265424Y-106048081D01*
X151289999Y-106031326D01*
X151375216Y-105982126D01*
X151412665Y-105960505D01*
X151510505Y-105862665D01*
X151510505Y-105862663D01*
X151526884Y-105846285D01*
X151526887Y-105846280D01*
X153214384Y-104158786D01*
X153289373Y-104111667D01*
X153355098Y-104100500D01*
X154775501Y-104100500D01*
X154794158Y-104104758D01*
G37*
G04 #@! TD.AperFunction*
G04 #@! TA.AperFunction,Conductor*
G36*
X161452648Y-103663998D02*
G01*
X161466503Y-103669737D01*
X161621158Y-103700500D01*
X161621159Y-103700500D01*
X161778841Y-103700500D01*
X161778842Y-103700500D01*
X161922372Y-103671950D01*
X161943085Y-103667830D01*
X161943379Y-103669309D01*
X161944500Y-103669231D01*
X161955730Y-103664509D01*
X161988230Y-103666158D01*
X162020693Y-103663878D01*
X162032012Y-103668381D01*
X162044180Y-103668999D01*
X162072748Y-103684588D01*
X162102983Y-103696617D01*
X162111226Y-103705584D01*
X162121922Y-103711421D01*
X162140898Y-103737862D01*
X162162919Y-103761818D01*
X162166455Y-103773474D01*
X162173559Y-103783373D01*
X162176282Y-103805867D01*
X162188630Y-103846567D01*
X162188863Y-103870604D01*
X162188325Y-103881188D01*
X162174500Y-103968481D01*
X162174500Y-104153536D01*
X162174244Y-104158589D01*
X162163551Y-104196468D01*
X162154793Y-104234843D01*
X162151583Y-104238867D01*
X162150185Y-104243822D01*
X162124108Y-104273319D01*
X162099574Y-104304084D01*
X162094937Y-104306316D01*
X162091527Y-104310175D01*
X162055242Y-104325433D01*
X162019782Y-104342511D01*
X162012748Y-104343303D01*
X162009889Y-104344506D01*
X162004501Y-104344232D01*
X161975500Y-104347500D01*
X161805553Y-104347500D01*
X161805550Y-104347500D01*
X161803292Y-104347798D01*
X161777318Y-104349500D01*
X161721158Y-104349500D01*
X161674796Y-104358722D01*
X161566506Y-104380262D01*
X161566504Y-104380262D01*
X161566503Y-104380263D01*
X161461170Y-104423893D01*
X161452653Y-104427421D01*
X161435999Y-104430250D01*
X161420782Y-104437579D01*
X161392864Y-104437579D01*
X161365341Y-104442255D01*
X161349111Y-104437579D01*
X161332218Y-104437579D01*
X161307065Y-104425465D01*
X161280239Y-104417737D01*
X161267643Y-104406480D01*
X161252426Y-104399152D01*
X161235019Y-104377324D01*
X161214203Y-104358722D01*
X161207739Y-104343118D01*
X161197207Y-104329911D01*
X161190994Y-104302692D01*
X161180311Y-104276900D01*
X161177500Y-104243568D01*
X161177500Y-103847852D01*
X161197207Y-103761509D01*
X161252426Y-103692268D01*
X161332218Y-103653841D01*
X161420782Y-103653841D01*
X161452648Y-103663998D01*
G37*
G04 #@! TD.AperFunction*
G04 #@! TA.AperFunction,Conductor*
G36*
X154794158Y-99554758D02*
G01*
X154813284Y-99554120D01*
X154836791Y-99564488D01*
X154861844Y-99570207D01*
X154876806Y-99582139D01*
X154894314Y-99589862D01*
X154910996Y-99609405D01*
X154931085Y-99625426D01*
X154939387Y-99642665D01*
X154951813Y-99657222D01*
X154958363Y-99682068D01*
X154969512Y-99705218D01*
X154973277Y-99738638D01*
X154974390Y-99742859D01*
X154974500Y-99746168D01*
X154974501Y-99931518D01*
X154982342Y-99981033D01*
X154982754Y-99993357D01*
X154980416Y-100031123D01*
X154974500Y-100068482D01*
X154974500Y-100581518D01*
X154974501Y-100581520D01*
X154980416Y-100618877D01*
X154980416Y-100681123D01*
X154978179Y-100695250D01*
X154975100Y-100714696D01*
X154974500Y-100718482D01*
X154974500Y-101231518D01*
X154974501Y-101231520D01*
X154980416Y-101268877D01*
X154980416Y-101331123D01*
X154974500Y-101368482D01*
X154974500Y-101881518D01*
X154987323Y-101962480D01*
X154989353Y-101975300D01*
X154989354Y-101975303D01*
X154989354Y-101975305D01*
X155054060Y-102102296D01*
X155051937Y-102103377D01*
X155078262Y-102164966D01*
X155074289Y-102253440D01*
X155032322Y-102331429D01*
X154960674Y-102383485D01*
X154882460Y-102399500D01*
X153375098Y-102399500D01*
X153288755Y-102379793D01*
X153234384Y-102341214D01*
X152421850Y-101528681D01*
X152421848Y-101528678D01*
X152312665Y-101419495D01*
X152312661Y-101419492D01*
X152192838Y-101350313D01*
X152192833Y-101350311D01*
X152164586Y-101342741D01*
X152164586Y-101342740D01*
X152059185Y-101314499D01*
X152059183Y-101314499D01*
X151920817Y-101314499D01*
X151908622Y-101314499D01*
X151908606Y-101314500D01*
X151389499Y-101314500D01*
X151303156Y-101294793D01*
X151233915Y-101239574D01*
X151195488Y-101159782D01*
X151190499Y-101115500D01*
X151190499Y-100808481D01*
X151185117Y-100774500D01*
X151175646Y-100714696D01*
X151118050Y-100601658D01*
X151118049Y-100601657D01*
X151118048Y-100601655D01*
X151028342Y-100511949D01*
X150915307Y-100454355D01*
X150915304Y-100454354D01*
X150915302Y-100454353D01*
X150915300Y-100454353D01*
X150849818Y-100443982D01*
X150821519Y-100439500D01*
X150821518Y-100439500D01*
X148358481Y-100439500D01*
X148264696Y-100454354D01*
X148264694Y-100454354D01*
X148151655Y-100511951D01*
X148061949Y-100601657D01*
X148029245Y-100665844D01*
X148016289Y-100681361D01*
X148007519Y-100699574D01*
X147988267Y-100714926D01*
X147972487Y-100733829D01*
X147954083Y-100742188D01*
X147938278Y-100754793D01*
X147914268Y-100760272D01*
X147891852Y-100770455D01*
X147851935Y-100774500D01*
X147492305Y-100774500D01*
X147405962Y-100754793D01*
X147336721Y-100699574D01*
X147335064Y-100697468D01*
X147328169Y-100688579D01*
X147216421Y-100576831D01*
X147216420Y-100576830D01*
X147170127Y-100549452D01*
X147105842Y-100488537D01*
X147074352Y-100405761D01*
X147081895Y-100317520D01*
X147126978Y-100241290D01*
X147130624Y-100237544D01*
X147759386Y-99608783D01*
X147834373Y-99561667D01*
X147900098Y-99550500D01*
X154775501Y-99550500D01*
X154794158Y-99554758D01*
G37*
G04 #@! TD.AperFunction*
G04 #@! TA.AperFunction,Conductor*
G36*
X176257488Y-95935820D02*
G01*
X176294433Y-95941532D01*
X176300360Y-95945605D01*
X176307375Y-95947207D01*
X176336606Y-95970518D01*
X176367419Y-95991697D01*
X176370993Y-95997941D01*
X176376616Y-96002426D01*
X176392838Y-96036110D01*
X176411411Y-96068562D01*
X176411921Y-96075736D01*
X176415043Y-96082218D01*
X176417696Y-96156902D01*
X176414777Y-96175778D01*
X176422265Y-98197458D01*
X176402877Y-98283873D01*
X176347916Y-98353319D01*
X176268266Y-98392040D01*
X176224152Y-98397193D01*
X170722793Y-98421686D01*
X170636363Y-98402363D01*
X170566876Y-98347454D01*
X170528095Y-98267833D01*
X170527701Y-98179271D01*
X170565772Y-98099307D01*
X170581182Y-98081985D01*
X171504383Y-97158786D01*
X171579372Y-97111667D01*
X171645097Y-97100500D01*
X171698841Y-97100500D01*
X171698842Y-97100500D01*
X171853497Y-97069737D01*
X171999179Y-97009394D01*
X172130289Y-96921789D01*
X172241789Y-96810289D01*
X172329394Y-96679179D01*
X172389737Y-96533497D01*
X172420500Y-96378842D01*
X172420500Y-96221158D01*
X172409393Y-96165319D01*
X172411878Y-96076793D01*
X172452527Y-95998110D01*
X172523291Y-95944856D01*
X172604570Y-95927500D01*
X176221032Y-95927500D01*
X176257488Y-95935820D01*
G37*
G04 #@! TD.AperFunction*
G04 #@! TA.AperFunction,Conductor*
G36*
X185181843Y-95947207D02*
G01*
X185251084Y-96002426D01*
X185289511Y-96082218D01*
X185294500Y-96126500D01*
X185294500Y-98093571D01*
X185274793Y-98179914D01*
X185219574Y-98249155D01*
X185139782Y-98287582D01*
X185094866Y-98292570D01*
X183383866Y-98287120D01*
X183297586Y-98267138D01*
X183228521Y-98211699D01*
X183190349Y-98131784D01*
X183185500Y-98088121D01*
X183185500Y-96194007D01*
X183185500Y-96194000D01*
X183180529Y-96147770D01*
X183190893Y-96059819D01*
X183238393Y-95985071D01*
X183313621Y-95938335D01*
X183378389Y-95927500D01*
X185095500Y-95927500D01*
X185181843Y-95947207D01*
G37*
G04 #@! TD.AperFunction*
G04 #@! TA.AperFunction,Conductor*
G36*
X161701973Y-83968202D02*
G01*
X161764478Y-84010475D01*
X164364214Y-86610211D01*
X164411333Y-86685199D01*
X164422500Y-86750925D01*
X164422500Y-96900500D01*
X164402793Y-96986843D01*
X164347574Y-97056084D01*
X164267782Y-97094511D01*
X164223500Y-97099500D01*
X164176500Y-97099500D01*
X164090157Y-97079793D01*
X164020916Y-97024574D01*
X163982489Y-96944782D01*
X163977500Y-96900500D01*
X163977500Y-95380552D01*
X163949083Y-95274500D01*
X163941552Y-95246393D01*
X163941550Y-95246389D01*
X163941548Y-95246385D01*
X163872109Y-95126112D01*
X163872106Y-95126108D01*
X158550786Y-89804788D01*
X158503667Y-89729800D01*
X158492500Y-89664074D01*
X158492500Y-87021642D01*
X158512207Y-86935299D01*
X158567426Y-86866058D01*
X158601157Y-86844331D01*
X158620405Y-86834524D01*
X158779646Y-86718828D01*
X158918828Y-86579646D01*
X159008406Y-86456353D01*
X159075100Y-86398085D01*
X159160472Y-86374524D01*
X159247612Y-86390338D01*
X159319261Y-86442395D01*
X159338410Y-86470709D01*
X159339445Y-86470076D01*
X159343528Y-86476739D01*
X159469180Y-86649681D01*
X159469181Y-86649683D01*
X159620316Y-86800818D01*
X159620318Y-86800819D01*
X159793255Y-86926467D01*
X159983708Y-87023507D01*
X159983710Y-87023508D01*
X160186998Y-87089560D01*
X160250999Y-87099697D01*
X160251000Y-87099696D01*
X160251000Y-86195702D01*
X160312007Y-86230925D01*
X160439174Y-86265000D01*
X160570826Y-86265000D01*
X160697993Y-86230925D01*
X160759000Y-86195702D01*
X160759000Y-87099697D01*
X160823001Y-87089560D01*
X161026289Y-87023508D01*
X161026291Y-87023507D01*
X161216744Y-86926467D01*
X161389681Y-86800819D01*
X161389683Y-86800818D01*
X161540818Y-86649683D01*
X161540819Y-86649681D01*
X161666467Y-86476744D01*
X161763507Y-86286291D01*
X161763509Y-86286285D01*
X161829561Y-86082997D01*
X161839698Y-86019000D01*
X160935703Y-86019000D01*
X160970925Y-85957993D01*
X161005000Y-85830826D01*
X161005000Y-85699174D01*
X160970925Y-85572007D01*
X160935703Y-85511000D01*
X161839698Y-85511000D01*
X161829561Y-85447002D01*
X161763509Y-85243714D01*
X161763507Y-85243708D01*
X161666467Y-85053255D01*
X161540819Y-84880318D01*
X161540818Y-84880316D01*
X161389683Y-84729181D01*
X161389681Y-84729180D01*
X161216739Y-84603528D01*
X161210076Y-84599445D01*
X161211498Y-84597123D01*
X161154994Y-84549950D01*
X161118368Y-84469315D01*
X161120356Y-84380774D01*
X161160564Y-84301863D01*
X161196352Y-84268406D01*
X161319646Y-84178828D01*
X161458828Y-84039646D01*
X161462769Y-84034220D01*
X161529461Y-83975952D01*
X161614832Y-83952390D01*
X161701973Y-83968202D01*
G37*
G04 #@! TD.AperFunction*
G04 #@! TA.AperFunction,Conductor*
G36*
X169189000Y-92962297D02*
G01*
X169127993Y-92927075D01*
X169000826Y-92893000D01*
X168869174Y-92893000D01*
X168742007Y-92927075D01*
X168681000Y-92962297D01*
X168681000Y-91283702D01*
X168742007Y-91318925D01*
X168869174Y-91353000D01*
X169000826Y-91353000D01*
X169127993Y-91318925D01*
X169189000Y-91283702D01*
X169189000Y-92962297D01*
G37*
G04 #@! TD.AperFunction*
G04 #@! TA.AperFunction,Conductor*
G36*
X191854543Y-70934707D02*
G01*
X191923784Y-70989926D01*
X191962211Y-71069718D01*
X191967200Y-71114000D01*
X191967200Y-134749400D01*
X191947493Y-134835743D01*
X191892274Y-134904984D01*
X191812482Y-134943411D01*
X191768200Y-134948400D01*
X131358600Y-134948400D01*
X131272257Y-134928693D01*
X131203016Y-134873474D01*
X131164589Y-134793682D01*
X131159600Y-134749400D01*
X131159600Y-132741659D01*
X132343500Y-132741659D01*
X132343500Y-132938741D01*
X132345339Y-132947984D01*
X132381948Y-133132032D01*
X132381949Y-133132036D01*
X132457365Y-133314109D01*
X132457369Y-133314116D01*
X132481680Y-133350500D01*
X132566861Y-133477982D01*
X132706218Y-133617339D01*
X132868985Y-133726096D01*
X132870083Y-133726830D01*
X132870090Y-133726834D01*
X132991472Y-133777111D01*
X133052165Y-133802251D01*
X133245459Y-133840700D01*
X133245460Y-133840700D01*
X133442540Y-133840700D01*
X133442541Y-133840700D01*
X133635835Y-133802251D01*
X133817914Y-133726832D01*
X133981782Y-133617339D01*
X134121139Y-133477982D01*
X134230632Y-133314114D01*
X134306051Y-133132035D01*
X134344500Y-132938741D01*
X134344500Y-132741659D01*
X134306051Y-132548365D01*
X134230632Y-132366286D01*
X134121139Y-132202418D01*
X133981782Y-132063061D01*
X133899297Y-132007946D01*
X133817916Y-131953569D01*
X133817909Y-131953565D01*
X133635836Y-131878149D01*
X133635832Y-131878148D01*
X133506389Y-131852400D01*
X133442541Y-131839700D01*
X133245459Y-131839700D01*
X133197464Y-131849246D01*
X133052167Y-131878148D01*
X133052163Y-131878149D01*
X132870090Y-131953565D01*
X132870083Y-131953569D01*
X132706222Y-132063058D01*
X132706214Y-132063064D01*
X132566864Y-132202414D01*
X132566858Y-132202422D01*
X132457369Y-132366283D01*
X132457365Y-132366290D01*
X132381949Y-132548363D01*
X132381948Y-132548367D01*
X132343500Y-132741659D01*
X131159600Y-132741659D01*
X131159600Y-101902522D01*
X142674500Y-101902522D01*
X142674500Y-131222477D01*
X142693662Y-131293986D01*
X142702732Y-131327836D01*
X142712016Y-131362485D01*
X142783586Y-131486450D01*
X142784490Y-131488015D01*
X144171984Y-132875509D01*
X144171988Y-132875512D01*
X144297507Y-132947980D01*
X144297510Y-132947981D01*
X144297515Y-132947984D01*
X144437525Y-132985500D01*
X144631348Y-132985500D01*
X144717691Y-133005207D01*
X144786932Y-133060426D01*
X144789225Y-133063356D01*
X144846718Y-133138282D01*
X144899739Y-133178966D01*
X144972156Y-133234535D01*
X144972159Y-133234536D01*
X145118238Y-133295044D01*
X145235639Y-133310500D01*
X145714360Y-133310499D01*
X145831762Y-133295044D01*
X145831764Y-133295043D01*
X145831765Y-133295043D01*
X145831765Y-133295042D01*
X145977841Y-133234536D01*
X145977841Y-133234535D01*
X145977843Y-133234535D01*
X146006976Y-133212179D01*
X146103282Y-133138282D01*
X146142123Y-133087662D01*
X146210320Y-133031160D01*
X146296279Y-133009842D01*
X146382975Y-133027931D01*
X146453237Y-133081845D01*
X146457871Y-133087655D01*
X146496718Y-133138282D01*
X146549739Y-133178966D01*
X146622156Y-133234535D01*
X146622159Y-133234536D01*
X146768238Y-133295044D01*
X146885639Y-133310500D01*
X147364360Y-133310499D01*
X147481762Y-133295044D01*
X147481764Y-133295043D01*
X147481765Y-133295043D01*
X147481765Y-133295042D01*
X147627841Y-133234536D01*
X147627841Y-133234535D01*
X147627843Y-133234535D01*
X147700261Y-133178966D01*
X147753282Y-133138282D01*
X147765963Y-133121755D01*
X147834156Y-133065253D01*
X147920115Y-133043933D01*
X148006811Y-133062020D01*
X148064995Y-133106664D01*
X148066704Y-133104956D01*
X148075557Y-133113809D01*
X148186191Y-133224443D01*
X148320861Y-133304087D01*
X148471108Y-133347737D01*
X148506213Y-133350500D01*
X149068786Y-133350499D01*
X149103892Y-133347737D01*
X149254139Y-133304087D01*
X149388809Y-133224443D01*
X149434286Y-133178966D01*
X149509274Y-133131847D01*
X149597281Y-133121931D01*
X149680874Y-133151182D01*
X149715714Y-133178966D01*
X149761191Y-133224443D01*
X149895861Y-133304087D01*
X150046108Y-133347737D01*
X150081213Y-133350500D01*
X150643786Y-133350499D01*
X150678892Y-133347737D01*
X150829139Y-133304087D01*
X150963809Y-133224443D01*
X151074443Y-133113809D01*
X151154087Y-132979139D01*
X151197737Y-132828892D01*
X151200500Y-132793787D01*
X151200499Y-132156214D01*
X151197737Y-132121108D01*
X151154087Y-131970861D01*
X151154087Y-131970860D01*
X151093249Y-131867990D01*
X151074443Y-131836191D01*
X150963809Y-131725557D01*
X150963808Y-131725556D01*
X150963807Y-131725555D01*
X150941950Y-131712629D01*
X150882120Y-131658124D01*
X150860546Y-131628357D01*
X150852188Y-131597164D01*
X150783005Y-131477335D01*
X150685165Y-131379495D01*
X150685162Y-131379493D01*
X150269350Y-130963681D01*
X150269348Y-130963678D01*
X150160164Y-130854494D01*
X150068328Y-130801473D01*
X150064810Y-130798209D01*
X150060297Y-130796580D01*
X150032505Y-130768234D01*
X150003407Y-130741235D01*
X150001653Y-130736767D01*
X149998294Y-130733341D01*
X149985552Y-130695744D01*
X149971051Y-130658794D01*
X149971409Y-130654008D01*
X149969869Y-130649463D01*
X149974702Y-130610060D01*
X149977669Y-130570478D01*
X149980068Y-130566321D01*
X149980653Y-130561559D01*
X149990941Y-130547489D01*
X150021950Y-130493780D01*
X150028509Y-130487039D01*
X150042088Y-130473724D01*
X150047665Y-130470505D01*
X150145505Y-130372665D01*
X150145506Y-130372662D01*
X150331280Y-130186888D01*
X150331285Y-130186884D01*
X150347663Y-130170505D01*
X150347665Y-130170505D01*
X150445505Y-130072665D01*
X150514688Y-129952836D01*
X150514688Y-129952833D01*
X150519680Y-129940785D01*
X150521470Y-129941526D01*
X150555238Y-129877627D01*
X150565355Y-129866722D01*
X150646789Y-129785289D01*
X150734394Y-129654179D01*
X150794737Y-129508497D01*
X150825500Y-129353842D01*
X150825500Y-129196158D01*
X150794737Y-129041503D01*
X150740397Y-128910313D01*
X150734396Y-128895825D01*
X150734392Y-128895818D01*
X150711246Y-128861178D01*
X150646789Y-128764711D01*
X150535289Y-128653211D01*
X150416278Y-128573690D01*
X150404181Y-128565607D01*
X150404174Y-128565603D01*
X150258500Y-128505264D01*
X150258498Y-128505263D01*
X150258497Y-128505263D01*
X150258495Y-128505262D01*
X150258493Y-128505262D01*
X150180125Y-128489673D01*
X150103842Y-128474500D01*
X149946158Y-128474500D01*
X149895072Y-128484661D01*
X149791506Y-128505262D01*
X149791499Y-128505264D01*
X149645825Y-128565603D01*
X149645818Y-128565607D01*
X149514715Y-128653208D01*
X149514712Y-128653210D01*
X149396298Y-128771624D01*
X149395210Y-128770536D01*
X149334030Y-128817928D01*
X149247418Y-128836414D01*
X149180687Y-128823888D01*
X149132483Y-128805909D01*
X149072873Y-128799500D01*
X149072867Y-128799500D01*
X148527123Y-128799500D01*
X148467518Y-128805908D01*
X148319333Y-128861178D01*
X148317941Y-128857446D01*
X148258534Y-128874240D01*
X148248371Y-128874500D01*
X148055816Y-128874500D01*
X147922165Y-128910311D01*
X147922160Y-128910313D01*
X147802335Y-128979494D01*
X147529495Y-129252334D01*
X147464325Y-129365212D01*
X147404086Y-129430133D01*
X147321644Y-129462488D01*
X147245070Y-129456749D01*
X147244593Y-129458771D01*
X147232484Y-129455909D01*
X147223967Y-129454993D01*
X147172873Y-129449500D01*
X147172867Y-129449500D01*
X146627123Y-129449500D01*
X146567518Y-129455908D01*
X146419333Y-129511178D01*
X146417941Y-129507446D01*
X146358534Y-129524240D01*
X146348371Y-129524500D01*
X145850097Y-129524500D01*
X145763754Y-129504793D01*
X145709383Y-129466214D01*
X144683786Y-128440617D01*
X144636667Y-128365629D01*
X144625500Y-128299903D01*
X144625500Y-118169097D01*
X144645207Y-118082754D01*
X144700426Y-118013513D01*
X144780218Y-117975086D01*
X144868782Y-117975086D01*
X144948574Y-118013513D01*
X144965214Y-118028383D01*
X145756214Y-118819383D01*
X145803333Y-118894371D01*
X145814500Y-118960097D01*
X145814500Y-119532182D01*
X145794793Y-119618525D01*
X145774065Y-119652424D01*
X145705641Y-119742654D01*
X145705635Y-119742665D01*
X145650124Y-119883431D01*
X145650122Y-119883439D01*
X145639500Y-119971892D01*
X145639500Y-121708107D01*
X145650122Y-121796560D01*
X145650124Y-121796568D01*
X145705635Y-121937334D01*
X145705639Y-121937342D01*
X145797078Y-122057922D01*
X145917658Y-122149361D01*
X145917662Y-122149362D01*
X145917665Y-122149364D01*
X145931237Y-122154716D01*
X146058436Y-122204877D01*
X146091609Y-122208860D01*
X146146893Y-122215500D01*
X146146898Y-122215500D01*
X146533106Y-122215500D01*
X146577333Y-122210188D01*
X146621564Y-122204877D01*
X146762342Y-122149361D01*
X146763255Y-122148668D01*
X146764871Y-122147938D01*
X146774205Y-122142690D01*
X146774666Y-122143511D01*
X146843959Y-122112199D01*
X146932497Y-122114357D01*
X147011329Y-122154716D01*
X147064844Y-122225283D01*
X147082500Y-122307231D01*
X147082500Y-126140554D01*
X147082500Y-126279446D01*
X147118448Y-126413608D01*
X147118449Y-126413611D01*
X147118449Y-126413613D01*
X147142021Y-126454439D01*
X147142024Y-126454442D01*
X147142026Y-126454446D01*
X147187895Y-126533893D01*
X147187896Y-126533894D01*
X147472447Y-126818445D01*
X147472453Y-126818450D01*
X147990393Y-127336390D01*
X147990395Y-127336393D01*
X148088607Y-127434605D01*
X148148750Y-127469328D01*
X148163388Y-127477779D01*
X148163390Y-127477781D01*
X148189117Y-127492634D01*
X148208892Y-127504052D01*
X148275973Y-127522026D01*
X148343053Y-127540000D01*
X148343054Y-127540000D01*
X148481946Y-127540000D01*
X148737470Y-127540000D01*
X148823813Y-127559707D01*
X148893054Y-127614926D01*
X148908758Y-127637702D01*
X148931916Y-127676861D01*
X148931920Y-127676866D01*
X149048136Y-127793082D01*
X149189600Y-127876743D01*
X149189602Y-127876744D01*
X149347431Y-127922598D01*
X149384306Y-127925500D01*
X149384311Y-127925500D01*
X150415689Y-127925500D01*
X150415694Y-127925500D01*
X150452569Y-127922598D01*
X150610398Y-127876744D01*
X150751865Y-127793081D01*
X150868081Y-127676865D01*
X150891242Y-127637702D01*
X150952156Y-127573414D01*
X151034932Y-127541923D01*
X151062530Y-127540000D01*
X152836575Y-127540000D01*
X152922918Y-127559707D01*
X152977289Y-127598286D01*
X153351190Y-127972188D01*
X153398309Y-128047177D01*
X153408225Y-128135183D01*
X153405655Y-128151712D01*
X153404451Y-128157765D01*
X153374500Y-128385258D01*
X153374500Y-129614741D01*
X153404451Y-129842235D01*
X153404451Y-129842236D01*
X153463839Y-130063879D01*
X153463843Y-130063889D01*
X153551654Y-130275883D01*
X153551658Y-130275892D01*
X153666382Y-130474603D01*
X153666385Y-130474606D01*
X153666387Y-130474608D01*
X153666389Y-130474612D01*
X153757843Y-130593796D01*
X153806084Y-130656665D01*
X153968334Y-130818915D01*
X153968338Y-130818918D01*
X153968339Y-130818919D01*
X154150388Y-130958611D01*
X154150392Y-130958613D01*
X154150393Y-130958614D01*
X154150396Y-130958617D01*
X154305540Y-131048188D01*
X154349112Y-131073344D01*
X154561113Y-131161158D01*
X154782762Y-131220548D01*
X154920577Y-131238692D01*
X155010258Y-131250499D01*
X155010264Y-131250500D01*
X155010266Y-131250500D01*
X155239736Y-131250500D01*
X155239739Y-131250499D01*
X155467238Y-131220548D01*
X155688887Y-131161158D01*
X155900888Y-131073344D01*
X156000724Y-131015704D01*
X156099603Y-130958617D01*
X156099604Y-130958615D01*
X156099612Y-130958611D01*
X156281661Y-130818919D01*
X156281665Y-130818915D01*
X156281669Y-130818912D01*
X156443912Y-130656669D01*
X156443915Y-130656665D01*
X156443919Y-130656661D01*
X156583611Y-130474612D01*
X156583615Y-130474604D01*
X156583617Y-130474603D01*
X156652325Y-130355596D01*
X156698344Y-130275888D01*
X156786158Y-130063887D01*
X156845548Y-129842238D01*
X156875500Y-129614734D01*
X156875500Y-128385266D01*
X156874571Y-128378212D01*
X157467000Y-128378212D01*
X157467000Y-128746000D01*
X158457891Y-128746000D01*
X158425000Y-128911358D01*
X158425000Y-129088642D01*
X158457891Y-129254000D01*
X157467000Y-129254000D01*
X157467000Y-129621787D01*
X157498789Y-129863248D01*
X157498792Y-129863261D01*
X157561825Y-130098507D01*
X157561829Y-130098519D01*
X157655037Y-130323541D01*
X157776811Y-130534461D01*
X157925087Y-130727697D01*
X158097302Y-130899912D01*
X158290538Y-131048188D01*
X158501458Y-131169962D01*
X158726480Y-131263170D01*
X158726489Y-131263173D01*
X158961732Y-131326206D01*
X159071000Y-131340591D01*
X159071000Y-129867108D01*
X159236358Y-129900000D01*
X159413642Y-129900000D01*
X159579000Y-129867108D01*
X159579000Y-131340591D01*
X159688267Y-131326206D01*
X159923510Y-131263173D01*
X159923519Y-131263170D01*
X160148541Y-131169962D01*
X160359461Y-131048188D01*
X160552697Y-130899912D01*
X160552701Y-130899909D01*
X160724909Y-130727701D01*
X160724912Y-130727697D01*
X160873188Y-130534461D01*
X160994962Y-130323541D01*
X161088170Y-130098519D01*
X161088174Y-130098507D01*
X161151207Y-129863261D01*
X161151210Y-129863248D01*
X161182999Y-129621787D01*
X161183000Y-129621782D01*
X161183000Y-129254000D01*
X160192109Y-129254000D01*
X160225000Y-129088642D01*
X160225000Y-128911358D01*
X160192109Y-128746000D01*
X161183000Y-128746000D01*
X161183000Y-128378217D01*
X161182999Y-128378212D01*
X161667000Y-128378212D01*
X161667000Y-128746000D01*
X162657891Y-128746000D01*
X162625000Y-128911358D01*
X162625000Y-129088642D01*
X162657891Y-129254000D01*
X161667000Y-129254000D01*
X161667000Y-129621787D01*
X161698789Y-129863248D01*
X161698792Y-129863261D01*
X161761825Y-130098507D01*
X161761829Y-130098519D01*
X161855037Y-130323541D01*
X161976811Y-130534461D01*
X162125087Y-130727697D01*
X162297302Y-130899912D01*
X162490538Y-131048188D01*
X162701458Y-131169962D01*
X162926480Y-131263170D01*
X162926489Y-131263173D01*
X163161732Y-131326206D01*
X163271000Y-131340591D01*
X163271000Y-129867108D01*
X163436358Y-129900000D01*
X163613642Y-129900000D01*
X163779000Y-129867108D01*
X163779000Y-131340591D01*
X163888267Y-131326206D01*
X164123510Y-131263173D01*
X164123519Y-131263170D01*
X164348541Y-131169962D01*
X164559461Y-131048188D01*
X164752697Y-130899912D01*
X164752701Y-130899909D01*
X164924909Y-130727701D01*
X164924912Y-130727697D01*
X165073188Y-130534461D01*
X165194962Y-130323541D01*
X165288170Y-130098519D01*
X165288174Y-130098507D01*
X165351207Y-129863261D01*
X165351210Y-129863248D01*
X165382999Y-129621787D01*
X165383000Y-129621782D01*
X165383000Y-129254000D01*
X164392109Y-129254000D01*
X164425000Y-129088642D01*
X164425000Y-128911358D01*
X164392109Y-128746000D01*
X165383000Y-128746000D01*
X165383000Y-128385258D01*
X165974500Y-128385258D01*
X165974500Y-129614741D01*
X166004451Y-129842235D01*
X166004451Y-129842236D01*
X166063839Y-130063879D01*
X166063843Y-130063889D01*
X166151654Y-130275883D01*
X166151658Y-130275892D01*
X166266382Y-130474603D01*
X166266385Y-130474606D01*
X166266387Y-130474608D01*
X166266389Y-130474612D01*
X166357843Y-130593796D01*
X166406084Y-130656665D01*
X166568334Y-130818915D01*
X166568338Y-130818918D01*
X166568339Y-130818919D01*
X166750388Y-130958611D01*
X166750392Y-130958613D01*
X166750393Y-130958614D01*
X166750396Y-130958617D01*
X166905540Y-131048188D01*
X166949112Y-131073344D01*
X167161113Y-131161158D01*
X167382762Y-131220548D01*
X167520577Y-131238692D01*
X167610258Y-131250499D01*
X167610264Y-131250500D01*
X167610266Y-131250500D01*
X167839736Y-131250500D01*
X167839739Y-131250499D01*
X168067238Y-131220548D01*
X168288887Y-131161158D01*
X168500888Y-131073344D01*
X168600724Y-131015704D01*
X168699603Y-130958617D01*
X168699604Y-130958615D01*
X168699612Y-130958611D01*
X168881661Y-130818919D01*
X168881665Y-130818915D01*
X168881669Y-130818912D01*
X169043912Y-130656669D01*
X169043915Y-130656665D01*
X169043919Y-130656661D01*
X169183611Y-130474612D01*
X169183615Y-130474604D01*
X169183617Y-130474603D01*
X169252325Y-130355596D01*
X169298344Y-130275888D01*
X169386158Y-130063887D01*
X169445548Y-129842238D01*
X169475500Y-129614734D01*
X169475500Y-128385266D01*
X169445548Y-128157762D01*
X169386158Y-127936113D01*
X169298344Y-127724112D01*
X169270831Y-127676458D01*
X169183617Y-127525396D01*
X169183614Y-127525393D01*
X169183613Y-127525392D01*
X169183611Y-127525388D01*
X169043919Y-127343339D01*
X169043918Y-127343338D01*
X169043915Y-127343334D01*
X169034892Y-127334311D01*
X170174500Y-127334311D01*
X170174500Y-130665688D01*
X170177402Y-130702569D01*
X170223256Y-130860397D01*
X170306917Y-131001862D01*
X170423137Y-131118082D01*
X170427236Y-131120506D01*
X170564603Y-131201744D01*
X170722431Y-131247598D01*
X170759306Y-131250500D01*
X170759311Y-131250500D01*
X173090689Y-131250500D01*
X173090694Y-131250500D01*
X173127569Y-131247598D01*
X173285397Y-131201744D01*
X173426864Y-131118081D01*
X173543081Y-131001864D01*
X173626744Y-130860397D01*
X173672598Y-130702569D01*
X173675500Y-130665694D01*
X173675500Y-127334306D01*
X173672598Y-127297431D01*
X173626744Y-127139603D01*
X173570799Y-127045004D01*
X173543082Y-126998137D01*
X173426862Y-126881917D01*
X173285397Y-126798256D01*
X173127569Y-126752402D01*
X173090694Y-126749500D01*
X170759306Y-126749500D01*
X170728576Y-126751918D01*
X170722430Y-126752402D01*
X170564602Y-126798256D01*
X170423137Y-126881917D01*
X170306917Y-126998137D01*
X170223256Y-127139602D01*
X170177402Y-127297430D01*
X170174500Y-127334311D01*
X169034892Y-127334311D01*
X168881665Y-127181084D01*
X168862919Y-127166700D01*
X168699612Y-127041389D01*
X168699608Y-127041387D01*
X168699606Y-127041385D01*
X168699603Y-127041382D01*
X168500892Y-126926658D01*
X168500883Y-126926654D01*
X168288887Y-126838842D01*
X168288885Y-126838841D01*
X168288879Y-126838839D01*
X168067235Y-126779451D01*
X167839741Y-126749500D01*
X167839734Y-126749500D01*
X167610266Y-126749500D01*
X167610258Y-126749500D01*
X167382764Y-126779451D01*
X167382763Y-126779451D01*
X167161120Y-126838839D01*
X167161110Y-126838843D01*
X166949116Y-126926654D01*
X166949107Y-126926658D01*
X166750396Y-127041382D01*
X166750393Y-127041385D01*
X166568334Y-127181084D01*
X166568331Y-127181088D01*
X166406088Y-127343331D01*
X166406084Y-127343334D01*
X166266385Y-127525393D01*
X166266382Y-127525396D01*
X166151658Y-127724107D01*
X166151654Y-127724116D01*
X166063843Y-127936110D01*
X166063839Y-127936120D01*
X166004451Y-128157763D01*
X166004451Y-128157764D01*
X165974500Y-128385258D01*
X165383000Y-128385258D01*
X165383000Y-128378217D01*
X165382999Y-128378212D01*
X165351210Y-128136751D01*
X165351207Y-128136738D01*
X165288174Y-127901492D01*
X165288170Y-127901480D01*
X165194962Y-127676458D01*
X165073188Y-127465538D01*
X164924912Y-127272302D01*
X164752697Y-127100087D01*
X164559461Y-126951811D01*
X164348541Y-126830037D01*
X164123519Y-126736829D01*
X164123507Y-126736825D01*
X163888254Y-126673790D01*
X163888255Y-126673790D01*
X163779000Y-126659406D01*
X163779000Y-128132891D01*
X163613642Y-128100000D01*
X163436358Y-128100000D01*
X163271000Y-128132891D01*
X163271000Y-126659406D01*
X163270999Y-126659406D01*
X163161745Y-126673790D01*
X162926492Y-126736825D01*
X162926480Y-126736829D01*
X162701458Y-126830037D01*
X162490538Y-126951811D01*
X162297302Y-127100087D01*
X162297299Y-127100091D01*
X162125091Y-127272299D01*
X162125087Y-127272302D01*
X161976811Y-127465538D01*
X161855037Y-127676458D01*
X161761829Y-127901480D01*
X161761825Y-127901492D01*
X161698792Y-128136738D01*
X161698789Y-128136751D01*
X161667000Y-128378212D01*
X161182999Y-128378212D01*
X161151210Y-128136751D01*
X161151207Y-128136738D01*
X161088174Y-127901492D01*
X161088170Y-127901480D01*
X160994962Y-127676458D01*
X160873188Y-127465538D01*
X160724912Y-127272302D01*
X160552697Y-127100087D01*
X160359461Y-126951811D01*
X160148541Y-126830037D01*
X159923519Y-126736829D01*
X159923507Y-126736825D01*
X159688254Y-126673790D01*
X159688255Y-126673790D01*
X159579000Y-126659406D01*
X159579000Y-128132891D01*
X159413642Y-128100000D01*
X159236358Y-128100000D01*
X159071000Y-128132891D01*
X159071000Y-126659406D01*
X159070999Y-126659406D01*
X158961745Y-126673790D01*
X158726492Y-126736825D01*
X158726480Y-126736829D01*
X158501458Y-126830037D01*
X158290538Y-126951811D01*
X158097302Y-127100087D01*
X158097299Y-127100091D01*
X157925091Y-127272299D01*
X157925087Y-127272302D01*
X157776811Y-127465538D01*
X157655037Y-127676458D01*
X157561829Y-127901480D01*
X157561825Y-127901492D01*
X157498792Y-128136738D01*
X157498789Y-128136751D01*
X157467000Y-128378212D01*
X156874571Y-128378212D01*
X156845548Y-128157764D01*
X156845548Y-128157763D01*
X156839914Y-128136738D01*
X156786158Y-127936113D01*
X156698344Y-127724112D01*
X156670831Y-127676458D01*
X156583617Y-127525396D01*
X156583614Y-127525393D01*
X156583613Y-127525392D01*
X156583611Y-127525388D01*
X156443919Y-127343339D01*
X156443918Y-127343338D01*
X156443915Y-127343334D01*
X156281665Y-127181084D01*
X156262919Y-127166700D01*
X156099612Y-127041389D01*
X156099608Y-127041387D01*
X156099606Y-127041385D01*
X156099603Y-127041382D01*
X155900892Y-126926658D01*
X155900883Y-126926654D01*
X155688887Y-126838842D01*
X155688885Y-126838841D01*
X155688879Y-126838839D01*
X155467235Y-126779451D01*
X155239741Y-126749500D01*
X155239734Y-126749500D01*
X155010266Y-126749500D01*
X155010258Y-126749500D01*
X154782764Y-126779451D01*
X154782763Y-126779451D01*
X154561120Y-126838839D01*
X154561110Y-126838843D01*
X154349116Y-126926654D01*
X154349107Y-126926658D01*
X154150396Y-127041382D01*
X154144978Y-127045004D01*
X154143804Y-127043247D01*
X154073638Y-127075419D01*
X153985090Y-127073745D01*
X153906038Y-127033817D01*
X153892317Y-127021320D01*
X153570950Y-126699953D01*
X153570947Y-126699949D01*
X153570947Y-126699950D01*
X153559605Y-126688608D01*
X153559605Y-126688607D01*
X153461393Y-126590395D01*
X153461390Y-126590393D01*
X153461387Y-126590391D01*
X153401250Y-126555670D01*
X153401250Y-126555671D01*
X153341107Y-126520947D01*
X153341108Y-126520947D01*
X153295292Y-126508671D01*
X153274027Y-126502974D01*
X153206947Y-126485000D01*
X151062530Y-126485000D01*
X150976187Y-126465293D01*
X150912130Y-126416311D01*
X150900379Y-126402748D01*
X150868081Y-126348135D01*
X150755624Y-126235678D01*
X150750974Y-126230311D01*
X150733411Y-126197349D01*
X150713541Y-126165726D01*
X150712730Y-126158534D01*
X150709329Y-126152150D01*
X150707807Y-126114837D01*
X150703625Y-126077719D01*
X150706014Y-126070889D01*
X150705720Y-126063660D01*
X150720541Y-126029374D01*
X150732876Y-125994126D01*
X150739217Y-125986173D01*
X150740863Y-125982368D01*
X150745359Y-125978471D01*
X150760660Y-125959286D01*
X150810872Y-125909074D01*
X150868081Y-125851865D01*
X150891242Y-125812702D01*
X150952156Y-125748414D01*
X151034932Y-125716923D01*
X151062530Y-125715000D01*
X153506947Y-125715000D01*
X153574027Y-125697026D01*
X153641108Y-125679052D01*
X153701250Y-125644328D01*
X153712548Y-125637804D01*
X153712553Y-125637803D01*
X153746143Y-125618409D01*
X153761393Y-125609605D01*
X153859605Y-125511393D01*
X153859605Y-125511391D01*
X153875984Y-125495013D01*
X153875988Y-125495008D01*
X153892318Y-125478677D01*
X153967304Y-125431560D01*
X154055311Y-125421644D01*
X154138904Y-125450895D01*
X154144921Y-125455080D01*
X154144978Y-125454996D01*
X154150396Y-125458617D01*
X154334047Y-125564646D01*
X154349112Y-125573344D01*
X154561113Y-125661158D01*
X154782762Y-125720548D01*
X154971996Y-125745461D01*
X155010258Y-125750499D01*
X155010264Y-125750500D01*
X155010266Y-125750500D01*
X155239736Y-125750500D01*
X155239739Y-125750499D01*
X155467238Y-125720548D01*
X155688887Y-125661158D01*
X155900888Y-125573344D01*
X156008191Y-125511393D01*
X156099603Y-125458617D01*
X156099604Y-125458615D01*
X156099612Y-125458611D01*
X156281661Y-125318919D01*
X156281665Y-125318915D01*
X156281669Y-125318912D01*
X156443912Y-125156669D01*
X156443915Y-125156665D01*
X156443919Y-125156661D01*
X156583611Y-124974612D01*
X156583615Y-124974604D01*
X156583617Y-124974603D01*
X156645326Y-124867717D01*
X156698344Y-124775888D01*
X156786158Y-124563887D01*
X156845548Y-124342238D01*
X156875500Y-124114734D01*
X156875500Y-122885266D01*
X156845548Y-122657762D01*
X156786158Y-122436113D01*
X156698344Y-122224112D01*
X156687238Y-122204875D01*
X156583617Y-122025396D01*
X156583614Y-122025393D01*
X156583613Y-122025392D01*
X156583611Y-122025388D01*
X156443919Y-121843339D01*
X156443918Y-121843338D01*
X156443915Y-121843334D01*
X156281665Y-121681084D01*
X156262919Y-121666700D01*
X156099612Y-121541389D01*
X156099608Y-121541387D01*
X156099606Y-121541385D01*
X156099603Y-121541382D01*
X155900892Y-121426658D01*
X155900883Y-121426654D01*
X155688887Y-121338842D01*
X155688885Y-121338841D01*
X155688879Y-121338839D01*
X155467235Y-121279451D01*
X155239741Y-121249500D01*
X155239734Y-121249500D01*
X155010266Y-121249500D01*
X155010258Y-121249500D01*
X154782764Y-121279451D01*
X154782763Y-121279451D01*
X154561120Y-121338839D01*
X154561110Y-121338843D01*
X154349116Y-121426654D01*
X154349107Y-121426658D01*
X154150396Y-121541382D01*
X154150393Y-121541385D01*
X153968334Y-121681084D01*
X153968331Y-121681088D01*
X153806088Y-121843331D01*
X153806084Y-121843334D01*
X153666385Y-122025393D01*
X153666382Y-122025396D01*
X153551658Y-122224107D01*
X153551654Y-122224116D01*
X153463843Y-122436110D01*
X153463839Y-122436120D01*
X153404451Y-122657763D01*
X153404451Y-122657764D01*
X153374500Y-122885258D01*
X153374500Y-124114741D01*
X153404451Y-124342238D01*
X153405654Y-124348284D01*
X153405415Y-124356785D01*
X153408225Y-124364815D01*
X153404180Y-124400709D01*
X153403166Y-124436813D01*
X153399261Y-124444370D01*
X153398309Y-124452821D01*
X153379096Y-124483398D01*
X153362513Y-124515494D01*
X153351191Y-124527810D01*
X153277289Y-124601713D01*
X153202301Y-124648832D01*
X153136574Y-124660000D01*
X151062530Y-124660000D01*
X150976187Y-124640293D01*
X150906946Y-124585074D01*
X150891242Y-124562298D01*
X150868083Y-124523138D01*
X150868079Y-124523133D01*
X150751863Y-124406917D01*
X150610399Y-124323256D01*
X150452569Y-124277402D01*
X150415694Y-124274500D01*
X149384306Y-124274500D01*
X149353576Y-124276918D01*
X149347430Y-124277402D01*
X149189599Y-124323256D01*
X149127797Y-124359806D01*
X149043446Y-124386794D01*
X148955739Y-124374511D01*
X148882047Y-124325390D01*
X148836965Y-124249159D01*
X148827500Y-124188517D01*
X148827500Y-123200924D01*
X148847207Y-123114581D01*
X148885783Y-123060212D01*
X149203890Y-122742106D01*
X149203893Y-122742105D01*
X149302105Y-122643893D01*
X149341241Y-122576107D01*
X149371552Y-122523608D01*
X149407500Y-122389446D01*
X149407500Y-122307231D01*
X149427207Y-122220888D01*
X149482426Y-122151647D01*
X149562218Y-122113220D01*
X149650782Y-122113220D01*
X149715408Y-122143378D01*
X149715795Y-122142690D01*
X149724878Y-122147797D01*
X149726744Y-122148668D01*
X149727658Y-122149361D01*
X149727663Y-122149363D01*
X149727665Y-122149364D01*
X149741237Y-122154716D01*
X149868436Y-122204877D01*
X149901609Y-122208860D01*
X149956893Y-122215500D01*
X149956898Y-122215500D01*
X150343106Y-122215500D01*
X150387333Y-122210188D01*
X150431564Y-122204877D01*
X150572342Y-122149361D01*
X150692922Y-122057922D01*
X150784361Y-121937342D01*
X150839877Y-121796564D01*
X150847235Y-121735292D01*
X150850500Y-121708107D01*
X150850500Y-121146158D01*
X151299500Y-121146158D01*
X151299500Y-121303841D01*
X151330262Y-121458493D01*
X151330264Y-121458500D01*
X151390603Y-121604174D01*
X151390606Y-121604179D01*
X151478211Y-121735289D01*
X151589711Y-121846789D01*
X151719939Y-121933805D01*
X151720818Y-121934392D01*
X151720825Y-121934396D01*
X151793662Y-121964565D01*
X151866503Y-121994737D01*
X152021158Y-122025500D01*
X152021159Y-122025500D01*
X152178841Y-122025500D01*
X152178842Y-122025500D01*
X152333497Y-121994737D01*
X152479179Y-121934394D01*
X152610289Y-121846789D01*
X152721789Y-121735289D01*
X152809394Y-121604179D01*
X152869737Y-121458497D01*
X152900500Y-121303842D01*
X152900500Y-121250097D01*
X152920207Y-121163754D01*
X152958786Y-121109383D01*
X153459383Y-120608786D01*
X153534371Y-120561667D01*
X153600097Y-120550500D01*
X156737165Y-120550500D01*
X156823508Y-120570207D01*
X156892749Y-120625426D01*
X156895042Y-120628356D01*
X156971718Y-120728282D01*
X157026209Y-120770094D01*
X157097156Y-120824535D01*
X157097159Y-120824536D01*
X157243238Y-120885044D01*
X157360639Y-120900500D01*
X157839360Y-120900499D01*
X157956762Y-120885044D01*
X157956764Y-120885043D01*
X157956765Y-120885043D01*
X157956765Y-120885042D01*
X158102841Y-120824536D01*
X158102841Y-120824535D01*
X158102843Y-120824535D01*
X158131976Y-120802179D01*
X158228282Y-120728282D01*
X158267123Y-120677662D01*
X158335320Y-120621160D01*
X158421279Y-120599842D01*
X158507975Y-120617931D01*
X158561031Y-120653561D01*
X158572943Y-120664717D01*
X158621718Y-120728282D01*
X158727399Y-120809374D01*
X158734531Y-120816053D01*
X158753971Y-120844853D01*
X158776147Y-120871618D01*
X158778533Y-120881241D01*
X158784080Y-120889458D01*
X158789099Y-120923845D01*
X158797465Y-120957577D01*
X158797500Y-120961299D01*
X158797500Y-121190802D01*
X158777793Y-121277145D01*
X158722574Y-121346386D01*
X158674655Y-121374654D01*
X158549111Y-121426656D01*
X158549107Y-121426658D01*
X158350396Y-121541382D01*
X158350393Y-121541385D01*
X158168334Y-121681084D01*
X158168331Y-121681088D01*
X158006088Y-121843331D01*
X158006084Y-121843334D01*
X157866385Y-122025393D01*
X157866382Y-122025396D01*
X157751658Y-122224107D01*
X157751654Y-122224116D01*
X157663843Y-122436110D01*
X157663839Y-122436120D01*
X157604451Y-122657763D01*
X157604451Y-122657764D01*
X157574500Y-122885258D01*
X157574500Y-124114741D01*
X157604451Y-124342235D01*
X157604451Y-124342236D01*
X157663839Y-124563879D01*
X157663841Y-124563885D01*
X157663842Y-124563887D01*
X157751654Y-124775883D01*
X157751658Y-124775892D01*
X157866382Y-124974603D01*
X157866385Y-124974606D01*
X157866387Y-124974608D01*
X157866389Y-124974612D01*
X157991700Y-125137919D01*
X158006084Y-125156665D01*
X158168334Y-125318915D01*
X158168338Y-125318918D01*
X158168339Y-125318919D01*
X158350388Y-125458611D01*
X158350392Y-125458613D01*
X158350393Y-125458614D01*
X158350396Y-125458617D01*
X158534047Y-125564646D01*
X158549112Y-125573344D01*
X158761113Y-125661158D01*
X158982762Y-125720548D01*
X159171996Y-125745461D01*
X159210258Y-125750499D01*
X159210264Y-125750500D01*
X159210266Y-125750500D01*
X159439736Y-125750500D01*
X159439739Y-125750499D01*
X159667238Y-125720548D01*
X159888887Y-125661158D01*
X160100888Y-125573344D01*
X160208191Y-125511393D01*
X160299603Y-125458617D01*
X160299604Y-125458615D01*
X160299612Y-125458611D01*
X160481661Y-125318919D01*
X160481665Y-125318915D01*
X160481669Y-125318912D01*
X160643912Y-125156669D01*
X160643915Y-125156665D01*
X160643919Y-125156661D01*
X160783611Y-124974612D01*
X160783615Y-124974604D01*
X160783617Y-124974603D01*
X160845326Y-124867717D01*
X160898344Y-124775888D01*
X160986158Y-124563887D01*
X161045548Y-124342238D01*
X161075500Y-124114734D01*
X161075500Y-122885266D01*
X161045548Y-122657762D01*
X160986158Y-122436113D01*
X160898344Y-122224112D01*
X160887238Y-122204875D01*
X160783617Y-122025396D01*
X160783614Y-122025393D01*
X160783613Y-122025392D01*
X160783611Y-122025388D01*
X160643919Y-121843339D01*
X160643918Y-121843338D01*
X160643915Y-121843334D01*
X160481665Y-121681084D01*
X160462919Y-121666700D01*
X160299612Y-121541389D01*
X160299608Y-121541387D01*
X160299606Y-121541385D01*
X160299603Y-121541382D01*
X160100892Y-121426658D01*
X160100888Y-121426656D01*
X159975345Y-121374654D01*
X159952575Y-121358497D01*
X159927426Y-121346386D01*
X159916894Y-121333179D01*
X159903117Y-121323404D01*
X159889614Y-121298972D01*
X159872207Y-121277145D01*
X159868447Y-121260675D01*
X159860277Y-121245891D01*
X159852500Y-121190802D01*
X159852500Y-120829432D01*
X159872207Y-120743089D01*
X159893621Y-120708291D01*
X159959709Y-120622164D01*
X159974534Y-120602844D01*
X159974536Y-120602840D01*
X159988053Y-120570207D01*
X160035044Y-120456762D01*
X160050500Y-120339361D01*
X160050499Y-119710640D01*
X160035044Y-119593238D01*
X160035043Y-119593236D01*
X160035043Y-119593234D01*
X159974536Y-119447159D01*
X159974535Y-119447156D01*
X159910011Y-119363068D01*
X159878282Y-119321718D01*
X159836468Y-119289633D01*
X159752843Y-119225464D01*
X159752840Y-119225463D01*
X159606764Y-119164957D01*
X159606762Y-119164956D01*
X159489361Y-119149500D01*
X159489358Y-119149500D01*
X159010642Y-119149500D01*
X158893234Y-119164956D01*
X158893234Y-119164957D01*
X158747159Y-119225463D01*
X158747156Y-119225464D01*
X158621717Y-119321718D01*
X158582876Y-119372337D01*
X158579951Y-119374760D01*
X158578239Y-119378152D01*
X158545989Y-119402898D01*
X158514679Y-119428840D01*
X158510990Y-119429754D01*
X158507977Y-119432067D01*
X158468183Y-119440370D01*
X158428719Y-119450157D01*
X158425000Y-119449380D01*
X158421281Y-119450157D01*
X158381819Y-119440371D01*
X158342023Y-119432067D01*
X158339009Y-119429754D01*
X158335322Y-119428840D01*
X158304019Y-119402905D01*
X158271762Y-119378153D01*
X158267124Y-119372337D01*
X158227842Y-119321145D01*
X158190914Y-119240649D01*
X158192569Y-119152101D01*
X158227841Y-119078856D01*
X158228280Y-119078283D01*
X158228282Y-119078282D01*
X158307608Y-118974902D01*
X158324535Y-118952843D01*
X158324536Y-118952840D01*
X158385044Y-118806762D01*
X158400500Y-118689361D01*
X158400499Y-118060640D01*
X158385044Y-117943238D01*
X158385043Y-117943235D01*
X158385043Y-117943234D01*
X158324536Y-117797159D01*
X158324535Y-117797156D01*
X158256465Y-117708447D01*
X158228282Y-117671718D01*
X158186468Y-117639633D01*
X158102843Y-117575464D01*
X158102840Y-117575463D01*
X157956764Y-117514957D01*
X157956762Y-117514956D01*
X157839361Y-117499500D01*
X157839358Y-117499500D01*
X157360642Y-117499500D01*
X157243234Y-117514956D01*
X157243234Y-117514957D01*
X157097159Y-117575463D01*
X157097156Y-117575464D01*
X156971718Y-117671718D01*
X156875464Y-117797156D01*
X156875463Y-117797159D01*
X156814957Y-117943235D01*
X156814956Y-117943238D01*
X156803302Y-118031764D01*
X156799500Y-118060641D01*
X156799500Y-118689357D01*
X156814956Y-118806765D01*
X156875463Y-118952840D01*
X156875465Y-118952843D01*
X156972158Y-119078856D01*
X156989108Y-119115805D01*
X157007430Y-119152098D01*
X157007501Y-119155899D01*
X157009086Y-119159354D01*
X157008325Y-119200000D01*
X157009086Y-119240646D01*
X157007501Y-119244100D01*
X157007430Y-119247902D01*
X156972159Y-119321143D01*
X156895043Y-119421643D01*
X156826846Y-119478147D01*
X156740887Y-119499465D01*
X156737165Y-119499500D01*
X153230816Y-119499500D01*
X153097165Y-119535311D01*
X153097160Y-119535313D01*
X152977335Y-119604494D01*
X152977334Y-119604495D01*
X152926767Y-119655063D01*
X152879495Y-119702335D01*
X152879493Y-119702337D01*
X152521600Y-120060231D01*
X152215617Y-120366214D01*
X152140629Y-120413333D01*
X152074903Y-120424500D01*
X152021158Y-120424500D01*
X151970072Y-120434661D01*
X151866506Y-120455262D01*
X151866499Y-120455264D01*
X151720825Y-120515603D01*
X151720818Y-120515607D01*
X151589715Y-120603208D01*
X151589707Y-120603214D01*
X151478214Y-120714707D01*
X151478208Y-120714715D01*
X151390607Y-120845818D01*
X151390603Y-120845825D01*
X151330264Y-120991499D01*
X151330262Y-120991506D01*
X151299500Y-121146158D01*
X150850500Y-121146158D01*
X150850500Y-119971892D01*
X150839877Y-119883439D01*
X150839877Y-119883436D01*
X150797552Y-119776108D01*
X150784364Y-119742665D01*
X150784363Y-119742663D01*
X150784361Y-119742658D01*
X150761024Y-119711884D01*
X150717936Y-119655063D01*
X150681467Y-119574357D01*
X150677500Y-119534820D01*
X150677500Y-119030552D01*
X150641552Y-118896394D01*
X150641548Y-118896385D01*
X150572109Y-118776112D01*
X150572106Y-118776108D01*
X150473892Y-118677894D01*
X149683450Y-117887453D01*
X149683447Y-117887449D01*
X149683447Y-117887450D01*
X149672105Y-117876108D01*
X149672105Y-117876107D01*
X149573893Y-117777895D01*
X149573890Y-117777893D01*
X149573887Y-117777891D01*
X149513750Y-117743170D01*
X149513750Y-117743171D01*
X149453607Y-117708447D01*
X149453608Y-117708447D01*
X149407792Y-117696171D01*
X149386527Y-117690474D01*
X149319447Y-117672500D01*
X146750925Y-117672500D01*
X146664582Y-117652793D01*
X146610211Y-117614214D01*
X146570248Y-117574251D01*
X146567183Y-117569373D01*
X146562489Y-117566038D01*
X146543762Y-117532100D01*
X146523129Y-117499263D01*
X146522483Y-117493537D01*
X146519702Y-117488496D01*
X146517555Y-117449794D01*
X146513213Y-117411256D01*
X146515115Y-117405817D01*
X146514797Y-117400069D01*
X146529657Y-117364259D01*
X146542464Y-117327663D01*
X146546535Y-117323591D01*
X146548744Y-117318270D01*
X146563092Y-117307034D01*
X146605088Y-117265039D01*
X146614821Y-117259302D01*
X146626037Y-117253112D01*
X146762342Y-117199361D01*
X146866241Y-117120570D01*
X146878859Y-117113609D01*
X146907911Y-117105260D01*
X146935462Y-117092811D01*
X146950000Y-117093165D01*
X146963978Y-117089149D01*
X146993780Y-117094233D01*
X147023999Y-117094971D01*
X147038208Y-117101813D01*
X147051280Y-117104044D01*
X147069027Y-117116655D01*
X147095240Y-117129278D01*
X147187658Y-117199361D01*
X147187662Y-117199362D01*
X147187665Y-117199364D01*
X147313584Y-117249020D01*
X147328436Y-117254877D01*
X147361609Y-117258860D01*
X147416893Y-117265500D01*
X147416898Y-117265500D01*
X147803106Y-117265500D01*
X147854715Y-117259302D01*
X147891564Y-117254877D01*
X148032342Y-117199361D01*
X148152922Y-117107922D01*
X148244361Y-116987342D01*
X148299877Y-116846564D01*
X148307872Y-116779989D01*
X148310500Y-116758107D01*
X148310500Y-115021892D01*
X148299877Y-114933439D01*
X148299877Y-114933436D01*
X148274374Y-114868767D01*
X148260500Y-114795763D01*
X148260500Y-114476518D01*
X148280207Y-114390175D01*
X148318786Y-114335804D01*
X148355930Y-114298660D01*
X148393170Y-114261420D01*
X148473618Y-114125390D01*
X148517709Y-113973627D01*
X148520500Y-113938163D01*
X148520499Y-113311838D01*
X148517709Y-113276373D01*
X148473618Y-113124610D01*
X148393170Y-112988580D01*
X148382804Y-112978214D01*
X148335685Y-112903226D01*
X148325769Y-112815219D01*
X148355020Y-112731626D01*
X148382804Y-112696786D01*
X148396736Y-112682854D01*
X148418170Y-112661420D01*
X148498618Y-112525390D01*
X148542709Y-112373627D01*
X148545500Y-112338163D01*
X148545499Y-111711838D01*
X148542709Y-111676373D01*
X148498618Y-111524610D01*
X148498616Y-111524608D01*
X148498616Y-111524605D01*
X148493644Y-111513114D01*
X148496004Y-111512092D01*
X148474660Y-111445385D01*
X148486942Y-111357677D01*
X148532223Y-111287722D01*
X149611160Y-110208786D01*
X149686149Y-110161667D01*
X149751874Y-110150500D01*
X156063331Y-110150500D01*
X156149674Y-110170207D01*
X156218915Y-110225426D01*
X156257342Y-110305218D01*
X156257342Y-110393782D01*
X156247185Y-110425647D01*
X156233049Y-110459777D01*
X156230262Y-110466506D01*
X156199500Y-110621158D01*
X156199500Y-110778841D01*
X156230262Y-110933493D01*
X156230264Y-110933500D01*
X156290603Y-111079174D01*
X156290606Y-111079179D01*
X156378211Y-111210289D01*
X156378214Y-111210292D01*
X156414214Y-111246292D01*
X156431977Y-111274561D01*
X156452793Y-111300663D01*
X156455311Y-111311696D01*
X156461333Y-111321280D01*
X156472500Y-111387006D01*
X156472500Y-111649075D01*
X156452793Y-111735418D01*
X156414214Y-111789789D01*
X153812789Y-114391214D01*
X153737801Y-114438333D01*
X153672075Y-114449500D01*
X153621158Y-114449500D01*
X153570072Y-114459661D01*
X153466506Y-114480262D01*
X153466499Y-114480264D01*
X153320825Y-114540603D01*
X153320818Y-114540607D01*
X153189715Y-114628208D01*
X153189707Y-114628214D01*
X153078214Y-114739707D01*
X153078208Y-114739715D01*
X152990607Y-114870818D01*
X152990603Y-114870825D01*
X152930264Y-115016499D01*
X152930262Y-115016506D01*
X152899500Y-115171158D01*
X152899500Y-115173500D01*
X152899093Y-115175278D01*
X152898541Y-115180892D01*
X152897828Y-115180821D01*
X152879793Y-115259843D01*
X152824574Y-115329084D01*
X152744782Y-115367511D01*
X152700500Y-115372500D01*
X151049500Y-115372500D01*
X150963157Y-115352793D01*
X150893916Y-115297574D01*
X150855489Y-115217782D01*
X150850500Y-115173500D01*
X150850500Y-115021892D01*
X150839877Y-114933439D01*
X150839877Y-114933436D01*
X150800500Y-114833583D01*
X150784364Y-114792665D01*
X150784362Y-114792662D01*
X150784361Y-114792658D01*
X150692922Y-114672078D01*
X150572342Y-114580639D01*
X150572334Y-114580635D01*
X150431568Y-114525124D01*
X150431560Y-114525122D01*
X150343107Y-114514500D01*
X150343102Y-114514500D01*
X149956898Y-114514500D01*
X149956893Y-114514500D01*
X149868439Y-114525122D01*
X149868431Y-114525124D01*
X149727665Y-114580635D01*
X149727657Y-114580639D01*
X149607078Y-114672078D01*
X149515639Y-114792657D01*
X149515635Y-114792665D01*
X149460124Y-114933431D01*
X149460122Y-114933439D01*
X149449500Y-115021892D01*
X149449500Y-116758107D01*
X149460122Y-116846560D01*
X149460124Y-116846568D01*
X149515635Y-116987334D01*
X149515639Y-116987342D01*
X149607078Y-117107922D01*
X149727658Y-117199361D01*
X149727662Y-117199362D01*
X149727665Y-117199364D01*
X149853584Y-117249020D01*
X149868436Y-117254877D01*
X149901609Y-117258860D01*
X149956893Y-117265500D01*
X149956898Y-117265500D01*
X150343106Y-117265500D01*
X150394715Y-117259302D01*
X150431564Y-117254877D01*
X150572342Y-117199361D01*
X150692922Y-117107922D01*
X150784361Y-116987342D01*
X150839877Y-116846564D01*
X150847872Y-116779989D01*
X150850500Y-116758107D01*
X150850500Y-116626500D01*
X150870207Y-116540157D01*
X150925426Y-116470916D01*
X151005218Y-116432489D01*
X151049500Y-116427500D01*
X153119446Y-116427500D01*
X153119447Y-116427500D01*
X153202388Y-116405276D01*
X153253608Y-116391552D01*
X153313750Y-116356828D01*
X153373893Y-116322105D01*
X153472105Y-116223893D01*
X153472105Y-116223891D01*
X153488296Y-116207701D01*
X153488384Y-116207611D01*
X153587213Y-116108784D01*
X153662202Y-116061667D01*
X153727926Y-116050500D01*
X153778841Y-116050500D01*
X153778842Y-116050500D01*
X153933497Y-116019737D01*
X154079179Y-115959394D01*
X154210289Y-115871789D01*
X154321789Y-115760289D01*
X154409394Y-115629179D01*
X154469737Y-115483497D01*
X154500500Y-115328842D01*
X154500500Y-115277925D01*
X154520207Y-115191582D01*
X154558786Y-115137211D01*
X155722105Y-113973892D01*
X155938494Y-113757503D01*
X157323890Y-112372106D01*
X157323893Y-112372105D01*
X157422105Y-112273893D01*
X157465407Y-112198892D01*
X157491552Y-112153608D01*
X157527500Y-112019446D01*
X157527500Y-111880554D01*
X157527500Y-111387006D01*
X157547207Y-111300663D01*
X157585786Y-111246292D01*
X157621789Y-111210289D01*
X157709394Y-111079179D01*
X157769737Y-110933497D01*
X157800500Y-110778842D01*
X157800500Y-110621158D01*
X157769737Y-110466503D01*
X157752815Y-110425650D01*
X157737982Y-110338341D01*
X157762500Y-110253239D01*
X157821514Y-110187203D01*
X157903337Y-110153311D01*
X157936669Y-110150500D01*
X168014068Y-110150500D01*
X168014069Y-110150500D01*
X168139744Y-110125501D01*
X168258127Y-110076465D01*
X168364669Y-110005277D01*
X170280277Y-108089669D01*
X170755276Y-107614670D01*
X170826465Y-107508127D01*
X170875501Y-107389744D01*
X170882594Y-107354084D01*
X170887323Y-107330313D01*
X170887323Y-107330312D01*
X170900500Y-107264067D01*
X170900500Y-104104500D01*
X170920207Y-104018157D01*
X170975426Y-103948916D01*
X171055218Y-103910489D01*
X171099500Y-103905500D01*
X172145991Y-103905500D01*
X172146000Y-103905500D01*
X172177814Y-103904250D01*
X172301177Y-103874634D01*
X172353503Y-103852960D01*
X172410200Y-103824071D01*
X172506671Y-103741676D01*
X172572960Y-103633503D01*
X172594634Y-103581177D01*
X172605653Y-103551306D01*
X172625500Y-103426000D01*
X172625500Y-101004500D01*
X172630489Y-100982641D01*
X172630489Y-100960218D01*
X172640217Y-100940016D01*
X172645207Y-100918157D01*
X172659188Y-100900625D01*
X172668916Y-100880426D01*
X172686446Y-100866446D01*
X172700426Y-100848916D01*
X172720625Y-100839188D01*
X172738157Y-100825207D01*
X172760016Y-100820217D01*
X172780218Y-100810489D01*
X172824500Y-100805500D01*
X173050500Y-100805500D01*
X173136843Y-100825207D01*
X173206084Y-100880426D01*
X173244511Y-100960218D01*
X173249500Y-101004500D01*
X173249500Y-101128842D01*
X173264673Y-101205125D01*
X173280262Y-101283493D01*
X173280264Y-101283500D01*
X173340603Y-101429174D01*
X173340606Y-101429179D01*
X173428211Y-101560289D01*
X173539711Y-101671789D01*
X173641612Y-101739877D01*
X173670818Y-101759392D01*
X173670825Y-101759396D01*
X173698408Y-101770821D01*
X173816503Y-101819737D01*
X173971158Y-101850500D01*
X173971159Y-101850500D01*
X174128841Y-101850500D01*
X174128842Y-101850500D01*
X174283497Y-101819737D01*
X174429179Y-101759394D01*
X174560289Y-101671789D01*
X174596292Y-101635786D01*
X174671280Y-101588667D01*
X174737006Y-101577500D01*
X175197703Y-101577500D01*
X175284046Y-101597207D01*
X175353287Y-101652426D01*
X175391714Y-101732218D01*
X175391714Y-101820782D01*
X175363165Y-101887059D01*
X175340607Y-101920818D01*
X175340603Y-101920825D01*
X175280264Y-102066499D01*
X175280262Y-102066506D01*
X175268366Y-102126314D01*
X175249500Y-102221158D01*
X175249500Y-102378842D01*
X175250853Y-102385642D01*
X175280262Y-102533493D01*
X175280264Y-102533500D01*
X175340603Y-102679174D01*
X175340607Y-102679181D01*
X175380413Y-102738754D01*
X175428211Y-102810289D01*
X175428214Y-102810292D01*
X175464214Y-102846292D01*
X175511333Y-102921280D01*
X175522500Y-102987006D01*
X175522500Y-103449074D01*
X175502793Y-103535417D01*
X175464214Y-103589788D01*
X170376108Y-108677895D01*
X166189789Y-112864214D01*
X166114801Y-112911333D01*
X166049075Y-112922500D01*
X165111300Y-112922500D01*
X165024957Y-112902793D01*
X164955716Y-112847574D01*
X164953423Y-112844644D01*
X164878282Y-112746718D01*
X164827090Y-112707437D01*
X164752843Y-112650464D01*
X164752840Y-112650463D01*
X164606764Y-112589957D01*
X164606762Y-112589956D01*
X164489361Y-112574500D01*
X164489358Y-112574500D01*
X164010642Y-112574500D01*
X163893234Y-112589956D01*
X163893234Y-112589957D01*
X163747159Y-112650463D01*
X163747156Y-112650464D01*
X163621717Y-112746718D01*
X163582876Y-112797337D01*
X163514679Y-112853840D01*
X163428719Y-112875157D01*
X163342023Y-112857067D01*
X163271762Y-112803153D01*
X163267124Y-112797337D01*
X163228282Y-112746718D01*
X163102843Y-112650464D01*
X163102840Y-112650463D01*
X162956764Y-112589957D01*
X162956762Y-112589956D01*
X162839361Y-112574500D01*
X162839358Y-112574500D01*
X162360642Y-112574500D01*
X162243234Y-112589956D01*
X162243234Y-112589957D01*
X162097159Y-112650463D01*
X162097156Y-112650464D01*
X161971718Y-112746718D01*
X161875464Y-112872156D01*
X161875463Y-112872159D01*
X161814957Y-113018235D01*
X161814956Y-113018237D01*
X161799500Y-113135641D01*
X161799500Y-113764357D01*
X161814956Y-113881765D01*
X161875463Y-114027840D01*
X161883374Y-114038149D01*
X161891957Y-114056857D01*
X161904793Y-114072953D01*
X161910190Y-114096600D01*
X161920304Y-114118645D01*
X161924500Y-114159296D01*
X161924500Y-114497724D01*
X161904793Y-114584067D01*
X161849574Y-114653308D01*
X161826803Y-114669009D01*
X161813582Y-114676828D01*
X161813580Y-114676829D01*
X161701830Y-114788579D01*
X161621381Y-114924609D01*
X161594684Y-115016506D01*
X161577292Y-115076372D01*
X161577291Y-115076374D01*
X161574500Y-115111842D01*
X161574500Y-115988157D01*
X161577291Y-116023627D01*
X161621382Y-116175391D01*
X161701830Y-116311420D01*
X161813580Y-116423170D01*
X161826798Y-116430987D01*
X161836961Y-116440616D01*
X161849574Y-116446691D01*
X161868752Y-116470739D01*
X161891084Y-116491899D01*
X161896062Y-116504984D01*
X161904793Y-116515932D01*
X161911638Y-116545922D01*
X161922577Y-116574674D01*
X161924500Y-116602275D01*
X161924500Y-116719714D01*
X161904793Y-116806057D01*
X161849574Y-116875298D01*
X161846644Y-116877591D01*
X161821719Y-116896716D01*
X161725464Y-117022156D01*
X161725463Y-117022159D01*
X161664957Y-117168235D01*
X161664956Y-117168238D01*
X161652152Y-117265500D01*
X161649500Y-117285641D01*
X161649500Y-117914357D01*
X161664956Y-118031765D01*
X161725463Y-118177840D01*
X161725464Y-118177843D01*
X161771022Y-118237214D01*
X161821718Y-118303282D01*
X161876209Y-118345094D01*
X161947156Y-118399535D01*
X161947159Y-118399536D01*
X162093238Y-118460044D01*
X162210639Y-118475500D01*
X162689360Y-118475499D01*
X162806762Y-118460044D01*
X162806764Y-118460043D01*
X162806765Y-118460043D01*
X162806765Y-118460042D01*
X162952841Y-118399536D01*
X162952841Y-118399535D01*
X162952843Y-118399535D01*
X162993332Y-118368466D01*
X163078282Y-118303282D01*
X163117123Y-118252662D01*
X163146388Y-118228415D01*
X163174034Y-118202322D01*
X163180277Y-118200337D01*
X163185320Y-118196160D01*
X163222202Y-118187013D01*
X163258437Y-118175497D01*
X163264923Y-118176418D01*
X163271279Y-118174842D01*
X163308483Y-118182604D01*
X163346121Y-118187950D01*
X163350788Y-118191431D01*
X163357975Y-118192931D01*
X163419718Y-118237214D01*
X163426692Y-118244602D01*
X163471718Y-118303282D01*
X163509282Y-118332106D01*
X163520218Y-118343692D01*
X163534804Y-118368466D01*
X163553147Y-118390605D01*
X163557009Y-118406181D01*
X163565152Y-118420010D01*
X163567544Y-118448660D01*
X163574465Y-118476564D01*
X163574500Y-118480285D01*
X163574500Y-119099902D01*
X163554793Y-119186245D01*
X163516214Y-119240616D01*
X163104495Y-119652334D01*
X163104494Y-119652336D01*
X163035312Y-119772162D01*
X163035311Y-119772164D01*
X163034255Y-119776103D01*
X163034256Y-119776104D01*
X162999499Y-119905813D01*
X162999499Y-120060218D01*
X162999500Y-120060231D01*
X162999500Y-121189973D01*
X162979793Y-121276316D01*
X162924574Y-121345557D01*
X162876655Y-121373824D01*
X162749124Y-121426650D01*
X162749107Y-121426658D01*
X162550396Y-121541382D01*
X162550393Y-121541385D01*
X162368334Y-121681084D01*
X162368331Y-121681088D01*
X162206088Y-121843331D01*
X162206084Y-121843334D01*
X162066385Y-122025393D01*
X162066382Y-122025396D01*
X161951658Y-122224107D01*
X161951654Y-122224116D01*
X161863843Y-122436110D01*
X161863839Y-122436120D01*
X161804451Y-122657763D01*
X161804451Y-122657764D01*
X161774500Y-122885258D01*
X161774500Y-124114741D01*
X161804451Y-124342235D01*
X161804451Y-124342236D01*
X161863839Y-124563879D01*
X161863841Y-124563885D01*
X161863842Y-124563887D01*
X161951654Y-124775883D01*
X161951658Y-124775892D01*
X162066382Y-124974603D01*
X162066385Y-124974606D01*
X162066387Y-124974608D01*
X162066389Y-124974612D01*
X162191700Y-125137919D01*
X162206084Y-125156665D01*
X162368334Y-125318915D01*
X162368338Y-125318918D01*
X162368339Y-125318919D01*
X162550388Y-125458611D01*
X162550392Y-125458613D01*
X162550393Y-125458614D01*
X162550396Y-125458617D01*
X162734047Y-125564646D01*
X162749112Y-125573344D01*
X162961113Y-125661158D01*
X163182762Y-125720548D01*
X163371996Y-125745461D01*
X163410258Y-125750499D01*
X163410264Y-125750500D01*
X163410266Y-125750500D01*
X163639736Y-125750500D01*
X163639739Y-125750499D01*
X163867238Y-125720548D01*
X164088887Y-125661158D01*
X164300888Y-125573344D01*
X164408191Y-125511393D01*
X164499603Y-125458617D01*
X164499604Y-125458615D01*
X164499612Y-125458611D01*
X164681661Y-125318919D01*
X164681665Y-125318915D01*
X164681669Y-125318912D01*
X164843912Y-125156669D01*
X164843915Y-125156665D01*
X164843919Y-125156661D01*
X164983611Y-124974612D01*
X164983615Y-124974604D01*
X164983617Y-124974603D01*
X165045326Y-124867717D01*
X165098344Y-124775888D01*
X165186158Y-124563887D01*
X165245548Y-124342238D01*
X165275500Y-124114734D01*
X165275500Y-122885266D01*
X165245548Y-122657762D01*
X165186158Y-122436113D01*
X165098344Y-122224112D01*
X165087238Y-122204875D01*
X164983617Y-122025396D01*
X164983614Y-122025393D01*
X164983613Y-122025392D01*
X164983611Y-122025388D01*
X164843919Y-121843339D01*
X164843918Y-121843338D01*
X164843915Y-121843334D01*
X164681665Y-121681084D01*
X164662919Y-121666700D01*
X164499612Y-121541389D01*
X164499608Y-121541387D01*
X164499606Y-121541385D01*
X164499603Y-121541382D01*
X164300892Y-121426658D01*
X164300875Y-121426650D01*
X164173345Y-121373824D01*
X164101116Y-121322575D01*
X164058277Y-121245062D01*
X164050500Y-121189973D01*
X164050500Y-120275097D01*
X164070207Y-120188754D01*
X164108786Y-120134383D01*
X164271277Y-119971892D01*
X164520505Y-119722665D01*
X164589689Y-119602835D01*
X164625501Y-119469183D01*
X164625501Y-119330817D01*
X164625501Y-119318623D01*
X164625500Y-119318605D01*
X164625500Y-118480285D01*
X164645207Y-118393942D01*
X164700426Y-118324701D01*
X164703356Y-118322408D01*
X164728282Y-118303282D01*
X164807274Y-118200337D01*
X164824535Y-118177843D01*
X164824536Y-118177840D01*
X164825125Y-118176418D01*
X164885044Y-118031762D01*
X164900500Y-117914361D01*
X164900499Y-117285640D01*
X164885044Y-117168238D01*
X164885043Y-117168235D01*
X164885043Y-117168234D01*
X164824536Y-117022159D01*
X164824535Y-117022156D01*
X164767123Y-116947337D01*
X164728282Y-116896718D01*
X164675617Y-116856307D01*
X164602843Y-116800464D01*
X164602840Y-116800463D01*
X164456764Y-116739957D01*
X164456762Y-116739956D01*
X164339361Y-116724500D01*
X164339358Y-116724500D01*
X163860642Y-116724500D01*
X163743234Y-116739956D01*
X163743234Y-116739957D01*
X163597159Y-116800463D01*
X163597156Y-116800464D01*
X163471717Y-116896718D01*
X163432876Y-116947337D01*
X163403609Y-116971584D01*
X163375966Y-116997677D01*
X163369722Y-116999661D01*
X163364679Y-117003840D01*
X163327794Y-117012986D01*
X163291563Y-117024502D01*
X163285075Y-117023580D01*
X163278719Y-117025157D01*
X163241516Y-117017394D01*
X163203879Y-117012049D01*
X163199210Y-117008566D01*
X163192023Y-117007067D01*
X163130282Y-116962785D01*
X163123303Y-116955391D01*
X163078282Y-116896718D01*
X163040719Y-116867894D01*
X163029782Y-116856307D01*
X163015194Y-116831530D01*
X162996853Y-116809393D01*
X162992990Y-116793818D01*
X162984848Y-116779989D01*
X162982455Y-116751337D01*
X162975535Y-116723434D01*
X162975500Y-116719714D01*
X162975500Y-116566518D01*
X162995207Y-116480175D01*
X163033786Y-116425804D01*
X163068038Y-116391552D01*
X163148170Y-116311420D01*
X163228618Y-116175390D01*
X163272709Y-116023627D01*
X163275500Y-115988163D01*
X163275499Y-115111838D01*
X163272709Y-115076373D01*
X163228618Y-114924610D01*
X163196805Y-114870818D01*
X163148171Y-114788582D01*
X163148170Y-114788580D01*
X163036420Y-114676830D01*
X163036419Y-114676829D01*
X163033785Y-114674195D01*
X163016021Y-114645923D01*
X162995207Y-114619824D01*
X162992688Y-114608789D01*
X162986667Y-114599206D01*
X162975500Y-114533481D01*
X162975500Y-114435250D01*
X162995207Y-114348907D01*
X163050426Y-114279666D01*
X163098348Y-114251397D01*
X163102841Y-114249536D01*
X163228282Y-114153282D01*
X163267123Y-114102662D01*
X163335320Y-114046160D01*
X163421279Y-114024842D01*
X163507975Y-114042931D01*
X163578237Y-114096845D01*
X163582871Y-114102655D01*
X163621718Y-114153282D01*
X163676209Y-114195094D01*
X163747156Y-114249535D01*
X163747159Y-114249536D01*
X163893238Y-114310044D01*
X164010639Y-114325500D01*
X164489360Y-114325499D01*
X164606762Y-114310044D01*
X164606764Y-114310043D01*
X164606765Y-114310043D01*
X164606765Y-114310042D01*
X164752841Y-114249536D01*
X164752841Y-114249535D01*
X164752843Y-114249535D01*
X164793332Y-114218466D01*
X164878282Y-114153282D01*
X164953423Y-114055355D01*
X165021620Y-113998853D01*
X165107579Y-113977535D01*
X165111300Y-113977500D01*
X166419447Y-113977500D01*
X166486527Y-113959526D01*
X166553608Y-113941552D01*
X166613750Y-113906828D01*
X166625048Y-113900304D01*
X166625053Y-113900303D01*
X166658643Y-113880909D01*
X166673893Y-113872105D01*
X166772105Y-113773893D01*
X166772105Y-113773891D01*
X166788484Y-113757513D01*
X166788488Y-113757508D01*
X168407786Y-112138210D01*
X168482775Y-112091091D01*
X168570781Y-112081175D01*
X168654374Y-112110426D01*
X168716998Y-112173050D01*
X168746249Y-112256643D01*
X168747500Y-112278924D01*
X168747500Y-112571248D01*
X168727793Y-112657591D01*
X168672574Y-112726832D01*
X168669646Y-112729123D01*
X168646720Y-112746714D01*
X168550464Y-112872156D01*
X168550463Y-112872159D01*
X168489957Y-113018235D01*
X168489956Y-113018237D01*
X168474500Y-113135641D01*
X168474500Y-113764357D01*
X168489956Y-113881765D01*
X168550463Y-114027840D01*
X168550464Y-114027843D01*
X168596022Y-114087214D01*
X168646718Y-114153282D01*
X168701209Y-114195094D01*
X168772156Y-114249535D01*
X168772159Y-114249536D01*
X168918238Y-114310044D01*
X169035639Y-114325500D01*
X169514360Y-114325499D01*
X169631762Y-114310044D01*
X169631764Y-114310043D01*
X169631765Y-114310043D01*
X169631765Y-114310042D01*
X169777841Y-114249536D01*
X169777841Y-114249535D01*
X169777843Y-114249535D01*
X169818332Y-114218466D01*
X169903282Y-114153282D01*
X169942123Y-114102662D01*
X169971388Y-114078415D01*
X169999034Y-114052322D01*
X170005277Y-114050337D01*
X170010320Y-114046160D01*
X170047202Y-114037013D01*
X170083437Y-114025497D01*
X170089923Y-114026418D01*
X170096279Y-114024842D01*
X170133483Y-114032604D01*
X170171121Y-114037950D01*
X170175788Y-114041431D01*
X170182975Y-114042931D01*
X170244718Y-114087214D01*
X170251692Y-114094602D01*
X170296718Y-114153282D01*
X170334282Y-114182106D01*
X170345218Y-114193692D01*
X170359804Y-114218466D01*
X170378147Y-114240605D01*
X170382009Y-114256181D01*
X170390152Y-114270010D01*
X170392544Y-114298660D01*
X170399465Y-114326564D01*
X170399500Y-114330285D01*
X170399500Y-114533481D01*
X170379793Y-114619824D01*
X170341215Y-114674195D01*
X170226828Y-114788582D01*
X170146381Y-114924609D01*
X170119684Y-115016506D01*
X170102292Y-115076372D01*
X170102291Y-115076374D01*
X170099500Y-115111842D01*
X170099500Y-115988157D01*
X170102291Y-116023627D01*
X170146382Y-116175391D01*
X170226830Y-116311420D01*
X170341214Y-116425804D01*
X170358977Y-116454073D01*
X170379793Y-116480175D01*
X170382311Y-116491208D01*
X170388333Y-116500792D01*
X170399500Y-116566518D01*
X170399500Y-116719714D01*
X170379793Y-116806057D01*
X170324574Y-116875298D01*
X170321644Y-116877591D01*
X170296718Y-116896716D01*
X170257876Y-116947337D01*
X170189679Y-117003840D01*
X170103719Y-117025157D01*
X170017023Y-117007067D01*
X169946762Y-116953153D01*
X169942124Y-116947337D01*
X169903282Y-116896718D01*
X169777843Y-116800464D01*
X169777840Y-116800463D01*
X169631764Y-116739957D01*
X169631762Y-116739956D01*
X169514361Y-116724500D01*
X169514358Y-116724500D01*
X169035642Y-116724500D01*
X168918234Y-116739956D01*
X168918234Y-116739957D01*
X168772159Y-116800463D01*
X168772156Y-116800464D01*
X168646718Y-116896718D01*
X168550464Y-117022156D01*
X168550463Y-117022159D01*
X168489957Y-117168235D01*
X168489956Y-117168238D01*
X168477152Y-117265500D01*
X168474500Y-117285641D01*
X168474500Y-117914357D01*
X168489956Y-118031765D01*
X168550463Y-118177840D01*
X168550464Y-118177843D01*
X168596022Y-118237214D01*
X168646718Y-118303282D01*
X168671644Y-118322408D01*
X168728147Y-118390605D01*
X168749465Y-118476564D01*
X168749500Y-118480285D01*
X168749500Y-118974902D01*
X168729793Y-119061245D01*
X168691214Y-119115616D01*
X167304495Y-120502334D01*
X167304494Y-120502336D01*
X167235936Y-120621080D01*
X167235935Y-120621084D01*
X167235312Y-120622164D01*
X167235312Y-120622165D01*
X167199499Y-120755817D01*
X167199499Y-120894183D01*
X167199500Y-120894186D01*
X167199500Y-120922225D01*
X167199500Y-121189973D01*
X167179793Y-121276316D01*
X167124574Y-121345557D01*
X167076655Y-121373824D01*
X166949124Y-121426650D01*
X166949107Y-121426658D01*
X166750396Y-121541382D01*
X166750393Y-121541385D01*
X166568334Y-121681084D01*
X166568331Y-121681088D01*
X166406088Y-121843331D01*
X166406084Y-121843334D01*
X166266385Y-122025393D01*
X166266382Y-122025396D01*
X166151658Y-122224107D01*
X166151654Y-122224116D01*
X166063843Y-122436110D01*
X166063839Y-122436120D01*
X166004451Y-122657763D01*
X166004451Y-122657764D01*
X165974500Y-122885258D01*
X165974500Y-124114741D01*
X166004451Y-124342235D01*
X166004451Y-124342236D01*
X166063839Y-124563879D01*
X166063841Y-124563885D01*
X166063842Y-124563887D01*
X166151654Y-124775883D01*
X166151658Y-124775892D01*
X166266382Y-124974603D01*
X166266385Y-124974606D01*
X166266387Y-124974608D01*
X166266389Y-124974612D01*
X166391700Y-125137919D01*
X166406084Y-125156665D01*
X166568334Y-125318915D01*
X166568338Y-125318918D01*
X166568339Y-125318919D01*
X166750388Y-125458611D01*
X166750392Y-125458613D01*
X166750393Y-125458614D01*
X166750396Y-125458617D01*
X166934047Y-125564646D01*
X166949112Y-125573344D01*
X167161113Y-125661158D01*
X167382762Y-125720548D01*
X167571996Y-125745461D01*
X167610258Y-125750499D01*
X167610264Y-125750500D01*
X167610266Y-125750500D01*
X167839736Y-125750500D01*
X167839739Y-125750499D01*
X168067238Y-125720548D01*
X168288887Y-125661158D01*
X168500888Y-125573344D01*
X168608191Y-125511393D01*
X168699603Y-125458617D01*
X168699604Y-125458615D01*
X168699612Y-125458611D01*
X168881661Y-125318919D01*
X168881665Y-125318915D01*
X168881669Y-125318912D01*
X169043912Y-125156669D01*
X169043915Y-125156665D01*
X169043919Y-125156661D01*
X169183611Y-124974612D01*
X169183615Y-124974604D01*
X169183617Y-124974603D01*
X169245326Y-124867717D01*
X169298344Y-124775888D01*
X169386158Y-124563887D01*
X169445548Y-124342238D01*
X169475500Y-124114734D01*
X169475500Y-122885266D01*
X169475499Y-122885258D01*
X170174500Y-122885258D01*
X170174500Y-124114741D01*
X170204451Y-124342235D01*
X170204451Y-124342236D01*
X170263839Y-124563879D01*
X170263841Y-124563885D01*
X170263842Y-124563887D01*
X170351654Y-124775883D01*
X170351658Y-124775892D01*
X170466382Y-124974603D01*
X170466385Y-124974606D01*
X170466387Y-124974608D01*
X170466389Y-124974612D01*
X170591700Y-125137919D01*
X170606084Y-125156665D01*
X170768334Y-125318915D01*
X170768338Y-125318918D01*
X170768339Y-125318919D01*
X170950388Y-125458611D01*
X170950392Y-125458613D01*
X170950393Y-125458614D01*
X170950396Y-125458617D01*
X171134047Y-125564646D01*
X171149112Y-125573344D01*
X171361113Y-125661158D01*
X171582762Y-125720548D01*
X171771996Y-125745461D01*
X171810258Y-125750499D01*
X171810264Y-125750500D01*
X171810266Y-125750500D01*
X172039736Y-125750500D01*
X172039739Y-125750499D01*
X172267238Y-125720548D01*
X172488887Y-125661158D01*
X172700888Y-125573344D01*
X172808191Y-125511393D01*
X172899603Y-125458617D01*
X172899604Y-125458615D01*
X172899612Y-125458611D01*
X173081661Y-125318919D01*
X173081665Y-125318915D01*
X173081669Y-125318912D01*
X173243912Y-125156669D01*
X173243915Y-125156665D01*
X173243919Y-125156661D01*
X173383611Y-124974612D01*
X173383615Y-124974604D01*
X173383617Y-124974603D01*
X173445326Y-124867717D01*
X173498344Y-124775888D01*
X173586158Y-124563887D01*
X173645548Y-124342238D01*
X173675500Y-124114734D01*
X173675500Y-122885266D01*
X173645548Y-122657762D01*
X173586158Y-122436113D01*
X173498344Y-122224112D01*
X173487238Y-122204875D01*
X173383617Y-122025396D01*
X173383614Y-122025393D01*
X173383613Y-122025392D01*
X173383611Y-122025388D01*
X173243919Y-121843339D01*
X173243918Y-121843338D01*
X173243915Y-121843334D01*
X173081665Y-121681084D01*
X173062919Y-121666700D01*
X172899612Y-121541389D01*
X172899608Y-121541387D01*
X172899606Y-121541385D01*
X172899603Y-121541382D01*
X172700892Y-121426658D01*
X172700883Y-121426654D01*
X172488887Y-121338842D01*
X172488885Y-121338841D01*
X172488879Y-121338839D01*
X172267235Y-121279451D01*
X172039741Y-121249500D01*
X172039734Y-121249500D01*
X171810266Y-121249500D01*
X171810258Y-121249500D01*
X171582764Y-121279451D01*
X171582763Y-121279451D01*
X171361120Y-121338839D01*
X171361110Y-121338843D01*
X171149116Y-121426654D01*
X171149107Y-121426658D01*
X170950396Y-121541382D01*
X170950393Y-121541385D01*
X170768334Y-121681084D01*
X170768331Y-121681088D01*
X170606088Y-121843331D01*
X170606084Y-121843334D01*
X170466385Y-122025393D01*
X170466382Y-122025396D01*
X170351658Y-122224107D01*
X170351654Y-122224116D01*
X170263843Y-122436110D01*
X170263839Y-122436120D01*
X170204451Y-122657763D01*
X170204451Y-122657764D01*
X170174500Y-122885258D01*
X169475499Y-122885258D01*
X169445548Y-122657762D01*
X169386158Y-122436113D01*
X169298344Y-122224112D01*
X169287238Y-122204875D01*
X169183617Y-122025396D01*
X169183614Y-122025393D01*
X169183613Y-122025392D01*
X169183611Y-122025388D01*
X169043919Y-121843339D01*
X169043918Y-121843338D01*
X169043915Y-121843334D01*
X168881665Y-121681084D01*
X168862919Y-121666700D01*
X168699612Y-121541389D01*
X168699608Y-121541387D01*
X168699606Y-121541385D01*
X168699603Y-121541382D01*
X168500892Y-121426658D01*
X168500875Y-121426650D01*
X168373345Y-121373824D01*
X168350577Y-121357669D01*
X168325426Y-121345557D01*
X168314894Y-121332351D01*
X168301116Y-121322575D01*
X168287611Y-121298140D01*
X168270207Y-121276316D01*
X168266448Y-121259846D01*
X168258277Y-121245062D01*
X168250500Y-121189973D01*
X168250500Y-121125096D01*
X168270207Y-121038753D01*
X168308783Y-120984385D01*
X169581280Y-119711887D01*
X169581285Y-119711884D01*
X169597663Y-119695505D01*
X169597665Y-119695505D01*
X169695505Y-119597665D01*
X169764688Y-119477836D01*
X169779142Y-119423892D01*
X169800501Y-119344183D01*
X169800501Y-119205817D01*
X169800500Y-119205813D01*
X169800500Y-118480285D01*
X169820207Y-118393942D01*
X169875426Y-118324701D01*
X169878356Y-118322408D01*
X169903282Y-118303282D01*
X169942123Y-118252662D01*
X170010320Y-118196160D01*
X170096279Y-118174842D01*
X170182975Y-118192931D01*
X170253237Y-118246845D01*
X170257871Y-118252655D01*
X170296718Y-118303282D01*
X170351209Y-118345094D01*
X170422156Y-118399535D01*
X170422159Y-118399536D01*
X170568238Y-118460044D01*
X170685639Y-118475500D01*
X171164360Y-118475499D01*
X171281762Y-118460044D01*
X171281764Y-118460043D01*
X171281765Y-118460043D01*
X171281765Y-118460042D01*
X171427841Y-118399536D01*
X171427841Y-118399535D01*
X171427843Y-118399535D01*
X171468332Y-118368466D01*
X171553282Y-118303282D01*
X171632274Y-118200337D01*
X171649535Y-118177843D01*
X171649536Y-118177840D01*
X171650125Y-118176418D01*
X171710044Y-118031762D01*
X171725500Y-117914361D01*
X171725499Y-117285640D01*
X171710044Y-117168238D01*
X171710043Y-117168235D01*
X171710043Y-117168234D01*
X171649536Y-117022159D01*
X171649535Y-117022156D01*
X171553280Y-116896716D01*
X171528356Y-116877591D01*
X171527140Y-116876123D01*
X171525426Y-116875298D01*
X171498943Y-116842091D01*
X171471853Y-116809393D01*
X171471395Y-116807546D01*
X171470207Y-116806057D01*
X171460751Y-116764628D01*
X171450535Y-116723434D01*
X171450500Y-116719714D01*
X171450500Y-116602275D01*
X171470207Y-116515932D01*
X171525426Y-116446691D01*
X171548195Y-116430990D01*
X171561420Y-116423170D01*
X171673170Y-116311420D01*
X171753618Y-116175390D01*
X171797709Y-116023627D01*
X171800500Y-115988163D01*
X171800499Y-115111838D01*
X171797709Y-115076373D01*
X171753618Y-114924610D01*
X171673170Y-114788580D01*
X171561420Y-114676830D01*
X171561419Y-114676829D01*
X171561417Y-114676828D01*
X171548197Y-114669009D01*
X171538036Y-114659381D01*
X171525426Y-114653308D01*
X171506244Y-114629255D01*
X171483911Y-114608093D01*
X171478934Y-114595010D01*
X171470207Y-114584067D01*
X171463360Y-114554071D01*
X171452422Y-114525316D01*
X171450500Y-114497724D01*
X171450500Y-114330285D01*
X171470207Y-114243942D01*
X171525426Y-114174701D01*
X171528356Y-114172408D01*
X171553282Y-114153282D01*
X171632274Y-114050337D01*
X171649535Y-114027843D01*
X171649536Y-114027840D01*
X171650125Y-114026418D01*
X171710044Y-113881762D01*
X171725500Y-113764361D01*
X171725499Y-113135640D01*
X171710044Y-113018238D01*
X171710043Y-113018235D01*
X171710043Y-113018234D01*
X171649536Y-112872159D01*
X171649535Y-112872156D01*
X171573579Y-112773170D01*
X171553282Y-112746718D01*
X171502090Y-112707437D01*
X171427843Y-112650464D01*
X171427840Y-112650463D01*
X171281764Y-112589957D01*
X171281762Y-112589956D01*
X171164361Y-112574500D01*
X171164358Y-112574500D01*
X170685642Y-112574500D01*
X170568234Y-112589956D01*
X170568234Y-112589957D01*
X170422159Y-112650463D01*
X170422156Y-112650464D01*
X170296717Y-112746718D01*
X170257876Y-112797337D01*
X170228397Y-112821760D01*
X170200487Y-112847957D01*
X170194508Y-112849838D01*
X170189679Y-112853840D01*
X170152519Y-112863055D01*
X170116009Y-112874547D01*
X170109803Y-112873648D01*
X170103719Y-112875157D01*
X170066250Y-112867338D01*
X170028361Y-112861850D01*
X170023879Y-112858497D01*
X170017023Y-112857067D01*
X169954901Y-112812381D01*
X169948137Y-112805175D01*
X169903282Y-112746718D01*
X169867497Y-112719259D01*
X169856401Y-112707437D01*
X169842020Y-112682854D01*
X169823851Y-112660925D01*
X169819922Y-112645081D01*
X169811681Y-112630994D01*
X169809389Y-112602608D01*
X169802535Y-112574965D01*
X169802500Y-112571248D01*
X169802500Y-112175925D01*
X169822207Y-112089582D01*
X169860786Y-112035211D01*
X172066120Y-109829877D01*
X172066123Y-109829872D01*
X177472106Y-104423892D01*
X177541552Y-104303608D01*
X177577501Y-104169446D01*
X177577501Y-104030553D01*
X177577501Y-104018359D01*
X177577500Y-104018341D01*
X177577500Y-102837006D01*
X177597207Y-102750663D01*
X177635786Y-102696292D01*
X177652904Y-102679174D01*
X177671789Y-102660289D01*
X177759394Y-102529179D01*
X177819737Y-102383497D01*
X177819738Y-102383489D01*
X177819740Y-102383485D01*
X177845607Y-102253440D01*
X177850500Y-102228842D01*
X177850500Y-102071158D01*
X177819737Y-101916503D01*
X177797149Y-101861970D01*
X177793290Y-101852653D01*
X177778455Y-101765341D01*
X177802973Y-101680239D01*
X177861987Y-101614203D01*
X177943809Y-101580312D01*
X177977142Y-101577500D01*
X178080553Y-101577500D01*
X179357321Y-101577500D01*
X179367970Y-101579930D01*
X179378818Y-101578665D01*
X179400897Y-101587446D01*
X179443664Y-101597207D01*
X179462527Y-101607584D01*
X179470282Y-101612414D01*
X179565158Y-101684361D01*
X179621424Y-101706549D01*
X179636787Y-101716118D01*
X179655692Y-101734874D01*
X179677677Y-101749915D01*
X179686747Y-101765684D01*
X179699658Y-101778493D01*
X179708553Y-101803594D01*
X179721835Y-101826685D01*
X179723164Y-101844826D01*
X179729240Y-101861970D01*
X179726362Y-101888448D01*
X179728310Y-101915011D01*
X179721638Y-101931930D01*
X179719673Y-101950015D01*
X179705590Y-101972625D01*
X179695821Y-101997400D01*
X179689459Y-102006177D01*
X179600464Y-102122157D01*
X179600463Y-102122159D01*
X179539957Y-102268235D01*
X179539956Y-102268238D01*
X179527152Y-102365500D01*
X179524500Y-102385641D01*
X179524500Y-103014357D01*
X179539956Y-103131765D01*
X179600463Y-103277840D01*
X179600464Y-103277843D01*
X179664633Y-103361468D01*
X179696718Y-103403282D01*
X179751209Y-103445094D01*
X179822156Y-103499535D01*
X179822159Y-103499536D01*
X179968238Y-103560044D01*
X180085639Y-103575500D01*
X180564360Y-103575499D01*
X180681762Y-103560044D01*
X180681764Y-103560043D01*
X180681765Y-103560043D01*
X180681765Y-103560042D01*
X180827841Y-103499536D01*
X180827841Y-103499535D01*
X180827843Y-103499535D01*
X180856976Y-103477179D01*
X180953282Y-103403282D01*
X181047010Y-103281133D01*
X181049535Y-103277843D01*
X181049536Y-103277840D01*
X181110044Y-103131762D01*
X181125500Y-103014361D01*
X181125499Y-102385640D01*
X181110044Y-102268238D01*
X181110043Y-102268235D01*
X181110043Y-102268234D01*
X181067267Y-102164966D01*
X181049536Y-102122159D01*
X180972153Y-102021312D01*
X180935229Y-101940819D01*
X180936884Y-101852272D01*
X180976795Y-101773211D01*
X181047057Y-101719297D01*
X181057029Y-101715047D01*
X181134834Y-101684364D01*
X181134832Y-101684364D01*
X181134842Y-101684361D01*
X181255422Y-101592922D01*
X181346861Y-101472342D01*
X181402377Y-101331564D01*
X181409906Y-101268867D01*
X181413000Y-101243107D01*
X181413000Y-100856892D01*
X181412817Y-100855369D01*
X181412875Y-100854812D01*
X181412645Y-100850956D01*
X181413285Y-100850917D01*
X181422088Y-100767292D01*
X181468657Y-100691960D01*
X181543298Y-100644294D01*
X181631230Y-100633734D01*
X181715035Y-100662372D01*
X181742846Y-100683122D01*
X181778077Y-100714542D01*
X181892715Y-100768889D01*
X181959754Y-100788574D01*
X182073995Y-100804999D01*
X182073998Y-100805000D01*
X182074000Y-100805000D01*
X183175328Y-100805000D01*
X183180655Y-100805071D01*
X183183225Y-100805139D01*
X183196667Y-100805500D01*
X183196676Y-100805500D01*
X187475994Y-100805500D01*
X187476000Y-100805500D01*
X187562199Y-100796232D01*
X187613710Y-100785026D01*
X187685360Y-100762310D01*
X187793057Y-100695250D01*
X187793059Y-100695248D01*
X187793061Y-100695247D01*
X187845856Y-100649499D01*
X187845861Y-100649495D01*
X187915042Y-100571923D01*
X187969389Y-100457285D01*
X187989074Y-100390246D01*
X188005500Y-100276000D01*
X188005500Y-98319453D01*
X188025207Y-98233110D01*
X188080426Y-98163869D01*
X188160218Y-98125442D01*
X188248782Y-98125442D01*
X188266002Y-98130195D01*
X188279687Y-98134641D01*
X188279696Y-98134646D01*
X188373481Y-98149500D01*
X190136518Y-98149499D01*
X190230304Y-98134646D01*
X190343342Y-98077050D01*
X190433050Y-97987342D01*
X190490646Y-97874304D01*
X190505500Y-97780519D01*
X190505499Y-96017482D01*
X190490646Y-95923696D01*
X190433050Y-95810658D01*
X190433049Y-95810657D01*
X190433048Y-95810655D01*
X190343342Y-95720949D01*
X190230307Y-95663355D01*
X190230304Y-95663354D01*
X190230302Y-95663353D01*
X190230300Y-95663353D01*
X190164818Y-95652982D01*
X190136519Y-95648500D01*
X190136518Y-95648500D01*
X188373481Y-95648500D01*
X188279696Y-95663354D01*
X188264796Y-95668195D01*
X188264465Y-95667176D01*
X188193872Y-95684963D01*
X188107109Y-95667196D01*
X188036647Y-95613544D01*
X187996442Y-95534633D01*
X187994456Y-95446092D01*
X188031084Y-95365457D01*
X188048691Y-95345305D01*
X188692211Y-94701784D01*
X188767199Y-94654666D01*
X188832925Y-94643499D01*
X190136518Y-94643499D01*
X190230304Y-94628646D01*
X190343342Y-94571050D01*
X190433050Y-94481342D01*
X190490646Y-94368304D01*
X190505500Y-94274519D01*
X190505499Y-92511482D01*
X190490646Y-92417696D01*
X190433050Y-92304658D01*
X190433049Y-92304657D01*
X190433048Y-92304655D01*
X190343342Y-92214949D01*
X190230307Y-92157355D01*
X190230302Y-92157353D01*
X190174763Y-92148557D01*
X190092567Y-92115585D01*
X190032816Y-92050214D01*
X190007346Y-91965392D01*
X190021201Y-91877919D01*
X190065181Y-91811292D01*
X190069642Y-91806830D01*
X190069646Y-91806828D01*
X190208828Y-91667646D01*
X190324524Y-91508405D01*
X190413884Y-91333025D01*
X190474709Y-91145826D01*
X190505500Y-90951417D01*
X190505500Y-90754583D01*
X190490521Y-90660007D01*
X190474710Y-90560179D01*
X190474708Y-90560171D01*
X190413886Y-90372982D01*
X190413886Y-90372981D01*
X190413885Y-90372980D01*
X190413884Y-90372975D01*
X190324524Y-90197595D01*
X190208828Y-90038354D01*
X190208823Y-90038349D01*
X190208822Y-90038347D01*
X190069652Y-89899177D01*
X190069650Y-89899176D01*
X190069646Y-89899172D01*
X189956794Y-89817180D01*
X189910407Y-89783477D01*
X189805059Y-89729800D01*
X189735025Y-89694116D01*
X189735021Y-89694115D01*
X189735018Y-89694113D01*
X189547828Y-89633291D01*
X189547820Y-89633289D01*
X189353417Y-89602500D01*
X189156583Y-89602500D01*
X188962179Y-89633289D01*
X188962171Y-89633291D01*
X188774982Y-89694113D01*
X188774981Y-89694113D01*
X188599592Y-89783477D01*
X188478156Y-89871706D01*
X188440354Y-89899172D01*
X188440352Y-89899173D01*
X188440349Y-89899176D01*
X188440347Y-89899177D01*
X188301177Y-90038347D01*
X188301176Y-90038349D01*
X188185474Y-90197597D01*
X188162310Y-90243060D01*
X188105552Y-90311045D01*
X188024917Y-90347671D01*
X187936376Y-90345684D01*
X187857466Y-90305477D01*
X187807690Y-90243060D01*
X187784525Y-90197597D01*
X187784524Y-90197595D01*
X187668828Y-90038354D01*
X187668823Y-90038349D01*
X187668822Y-90038347D01*
X187529652Y-89899177D01*
X187529650Y-89899176D01*
X187529646Y-89899172D01*
X187416794Y-89817180D01*
X187370407Y-89783477D01*
X187265059Y-89729800D01*
X187195025Y-89694116D01*
X187195021Y-89694115D01*
X187195018Y-89694113D01*
X187007828Y-89633291D01*
X187007820Y-89633289D01*
X186813417Y-89602500D01*
X186616583Y-89602500D01*
X186422179Y-89633289D01*
X186422171Y-89633291D01*
X186234982Y-89694113D01*
X186234981Y-89694113D01*
X186059592Y-89783477D01*
X185938156Y-89871706D01*
X185900354Y-89899172D01*
X185900352Y-89899173D01*
X185900349Y-89899176D01*
X185900347Y-89899177D01*
X185761177Y-90038347D01*
X185761176Y-90038349D01*
X185645474Y-90197597D01*
X185622310Y-90243060D01*
X185565552Y-90311045D01*
X185484917Y-90347671D01*
X185396376Y-90345684D01*
X185317466Y-90305477D01*
X185267690Y-90243060D01*
X185244525Y-90197597D01*
X185244524Y-90197595D01*
X185128828Y-90038354D01*
X185128823Y-90038349D01*
X185128822Y-90038347D01*
X184989652Y-89899177D01*
X184989650Y-89899176D01*
X184989646Y-89899172D01*
X184876794Y-89817180D01*
X184830407Y-89783477D01*
X184725059Y-89729800D01*
X184655025Y-89694116D01*
X184655021Y-89694115D01*
X184655018Y-89694113D01*
X184467828Y-89633291D01*
X184467820Y-89633289D01*
X184273417Y-89602500D01*
X184076583Y-89602500D01*
X183882179Y-89633289D01*
X183882171Y-89633291D01*
X183694982Y-89694113D01*
X183694981Y-89694113D01*
X183519592Y-89783477D01*
X183398156Y-89871706D01*
X183360354Y-89899172D01*
X183360352Y-89899173D01*
X183360349Y-89899176D01*
X183360347Y-89899177D01*
X183221177Y-90038347D01*
X183221176Y-90038349D01*
X183105474Y-90197597D01*
X183082310Y-90243060D01*
X183025552Y-90311045D01*
X182944917Y-90347671D01*
X182856376Y-90345684D01*
X182777466Y-90305477D01*
X182727690Y-90243060D01*
X182704525Y-90197597D01*
X182704524Y-90197595D01*
X182588828Y-90038354D01*
X182588823Y-90038349D01*
X182588822Y-90038347D01*
X182449652Y-89899177D01*
X182449650Y-89899176D01*
X182449646Y-89899172D01*
X182336794Y-89817180D01*
X182290407Y-89783477D01*
X182185059Y-89729800D01*
X182115025Y-89694116D01*
X182115021Y-89694115D01*
X182115018Y-89694113D01*
X181927828Y-89633291D01*
X181927820Y-89633289D01*
X181733417Y-89602500D01*
X181536583Y-89602500D01*
X181342179Y-89633289D01*
X181342171Y-89633291D01*
X181154982Y-89694113D01*
X181154981Y-89694113D01*
X180979592Y-89783477D01*
X180858156Y-89871706D01*
X180820354Y-89899172D01*
X180820352Y-89899173D01*
X180820349Y-89899176D01*
X180820347Y-89899177D01*
X180681177Y-90038347D01*
X180681176Y-90038349D01*
X180565474Y-90197597D01*
X180542310Y-90243060D01*
X180485552Y-90311045D01*
X180404917Y-90347671D01*
X180316376Y-90345684D01*
X180237466Y-90305477D01*
X180187690Y-90243060D01*
X180164525Y-90197597D01*
X180164524Y-90197595D01*
X180048828Y-90038354D01*
X180048823Y-90038349D01*
X180048822Y-90038347D01*
X179909652Y-89899177D01*
X179909650Y-89899176D01*
X179909646Y-89899172D01*
X179796794Y-89817180D01*
X179750407Y-89783477D01*
X179645059Y-89729800D01*
X179575025Y-89694116D01*
X179575021Y-89694115D01*
X179575018Y-89694113D01*
X179387828Y-89633291D01*
X179387820Y-89633289D01*
X179193417Y-89602500D01*
X178996583Y-89602500D01*
X178802179Y-89633289D01*
X178802171Y-89633291D01*
X178614982Y-89694113D01*
X178614981Y-89694113D01*
X178439592Y-89783477D01*
X178318156Y-89871706D01*
X178280354Y-89899172D01*
X178280352Y-89899173D01*
X178280349Y-89899176D01*
X178280347Y-89899177D01*
X178141177Y-90038347D01*
X178141176Y-90038349D01*
X178025474Y-90197597D01*
X178002310Y-90243060D01*
X177945552Y-90311045D01*
X177864917Y-90347671D01*
X177776376Y-90345684D01*
X177697466Y-90305477D01*
X177647690Y-90243060D01*
X177624525Y-90197597D01*
X177624524Y-90197595D01*
X177508828Y-90038354D01*
X177508823Y-90038349D01*
X177508822Y-90038347D01*
X177369652Y-89899177D01*
X177369650Y-89899176D01*
X177369646Y-89899172D01*
X177256794Y-89817180D01*
X177210407Y-89783477D01*
X177105059Y-89729800D01*
X177035025Y-89694116D01*
X177035021Y-89694115D01*
X177035018Y-89694113D01*
X176847828Y-89633291D01*
X176847820Y-89633289D01*
X176653417Y-89602500D01*
X176456583Y-89602500D01*
X176262179Y-89633289D01*
X176262171Y-89633291D01*
X176074982Y-89694113D01*
X176074981Y-89694113D01*
X175899592Y-89783477D01*
X175778156Y-89871706D01*
X175740354Y-89899172D01*
X175740352Y-89899173D01*
X175740349Y-89899176D01*
X175740347Y-89899177D01*
X175601177Y-90038347D01*
X175601176Y-90038349D01*
X175485474Y-90197597D01*
X175462310Y-90243060D01*
X175405552Y-90311045D01*
X175324917Y-90347671D01*
X175236376Y-90345684D01*
X175157466Y-90305477D01*
X175107690Y-90243060D01*
X175084525Y-90197597D01*
X175084524Y-90197595D01*
X174968828Y-90038354D01*
X174968823Y-90038349D01*
X174968822Y-90038347D01*
X174829652Y-89899177D01*
X174829650Y-89899176D01*
X174829646Y-89899172D01*
X174716794Y-89817180D01*
X174670407Y-89783477D01*
X174565059Y-89729800D01*
X174495025Y-89694116D01*
X174495021Y-89694115D01*
X174495018Y-89694113D01*
X174307828Y-89633291D01*
X174307820Y-89633289D01*
X174113417Y-89602500D01*
X173916583Y-89602500D01*
X173722179Y-89633289D01*
X173722171Y-89633291D01*
X173534982Y-89694113D01*
X173534981Y-89694113D01*
X173359592Y-89783477D01*
X173238156Y-89871706D01*
X173200354Y-89899172D01*
X173200352Y-89899173D01*
X173200349Y-89899176D01*
X173200347Y-89899177D01*
X173061177Y-90038347D01*
X173061176Y-90038349D01*
X172945474Y-90197597D01*
X172922310Y-90243060D01*
X172865552Y-90311045D01*
X172784917Y-90347671D01*
X172696376Y-90345684D01*
X172617466Y-90305477D01*
X172567690Y-90243060D01*
X172544525Y-90197597D01*
X172544524Y-90197595D01*
X172428828Y-90038354D01*
X172428823Y-90038349D01*
X172428822Y-90038347D01*
X172289652Y-89899177D01*
X172289650Y-89899176D01*
X172289646Y-89899172D01*
X172176794Y-89817180D01*
X172130407Y-89783477D01*
X172025059Y-89729800D01*
X171955025Y-89694116D01*
X171955021Y-89694115D01*
X171955018Y-89694113D01*
X171767828Y-89633291D01*
X171767820Y-89633289D01*
X171573417Y-89602500D01*
X171376583Y-89602500D01*
X171182179Y-89633289D01*
X171182171Y-89633291D01*
X170994982Y-89694113D01*
X170994981Y-89694113D01*
X170819592Y-89783477D01*
X170698156Y-89871706D01*
X170660354Y-89899172D01*
X170660352Y-89899173D01*
X170660349Y-89899176D01*
X170660347Y-89899177D01*
X170521173Y-90038351D01*
X170431593Y-90161646D01*
X170364898Y-90219915D01*
X170279526Y-90243475D01*
X170192386Y-90227660D01*
X170120737Y-90175603D01*
X170101596Y-90147285D01*
X170100555Y-90147924D01*
X170096471Y-90141260D01*
X169970819Y-89968318D01*
X169970818Y-89968316D01*
X169819683Y-89817181D01*
X169819681Y-89817180D01*
X169646744Y-89691532D01*
X169456291Y-89594492D01*
X169456285Y-89594490D01*
X169252996Y-89528438D01*
X169252998Y-89528438D01*
X169189000Y-89518302D01*
X169189000Y-90422297D01*
X169127993Y-90387075D01*
X169000826Y-90353000D01*
X168869174Y-90353000D01*
X168742007Y-90387075D01*
X168681000Y-90422297D01*
X168681000Y-89518302D01*
X168617002Y-89528438D01*
X168413714Y-89594490D01*
X168413708Y-89594492D01*
X168223255Y-89691532D01*
X168050318Y-89817180D01*
X168050316Y-89817181D01*
X167899181Y-89968316D01*
X167899180Y-89968318D01*
X167773532Y-90141255D01*
X167676492Y-90331708D01*
X167676490Y-90331714D01*
X167610438Y-90535002D01*
X167600302Y-90599000D01*
X168504297Y-90599000D01*
X168469075Y-90660007D01*
X168435000Y-90787174D01*
X168435000Y-90918826D01*
X168469075Y-91045993D01*
X168504297Y-91107000D01*
X167600302Y-91107000D01*
X167610438Y-91170997D01*
X167676490Y-91374285D01*
X167676492Y-91374291D01*
X167773532Y-91564744D01*
X167899180Y-91737681D01*
X167899181Y-91737683D01*
X168050316Y-91888818D01*
X168050318Y-91888819D01*
X168151049Y-91962006D01*
X168209318Y-92028701D01*
X168232879Y-92114073D01*
X168217065Y-92201213D01*
X168165008Y-92272862D01*
X168151049Y-92283994D01*
X168050318Y-92357180D01*
X168050316Y-92357181D01*
X167899181Y-92508316D01*
X167899180Y-92508318D01*
X167773532Y-92681255D01*
X167676492Y-92871708D01*
X167676490Y-92871714D01*
X167610438Y-93075002D01*
X167600302Y-93139000D01*
X168504297Y-93139000D01*
X168469075Y-93200007D01*
X168435000Y-93327174D01*
X168435000Y-93458826D01*
X168469075Y-93585993D01*
X168504297Y-93647000D01*
X167600302Y-93647000D01*
X167610438Y-93710997D01*
X167676490Y-93914285D01*
X167676492Y-93914291D01*
X167773532Y-94104744D01*
X167899180Y-94277681D01*
X167899181Y-94277683D01*
X168050316Y-94428818D01*
X168050318Y-94428819D01*
X168223255Y-94554467D01*
X168413707Y-94651506D01*
X168473779Y-94671025D01*
X168549807Y-94716449D01*
X168598596Y-94790362D01*
X168610485Y-94878123D01*
X168583118Y-94962352D01*
X168553000Y-95001000D01*
X167112789Y-96441214D01*
X167037801Y-96488333D01*
X166972075Y-96499500D01*
X166921158Y-96499500D01*
X166870072Y-96509661D01*
X166766506Y-96530262D01*
X166766499Y-96530264D01*
X166620825Y-96590603D01*
X166620818Y-96590607D01*
X166489715Y-96678208D01*
X166489707Y-96678214D01*
X166378214Y-96789707D01*
X166378208Y-96789715D01*
X166290607Y-96920818D01*
X166290603Y-96920825D01*
X166230264Y-97066499D01*
X166230262Y-97066506D01*
X166208012Y-97178367D01*
X166199500Y-97221158D01*
X166199500Y-97378842D01*
X166217331Y-97468482D01*
X166227886Y-97521549D01*
X166225401Y-97610078D01*
X166184751Y-97688761D01*
X166143281Y-97725825D01*
X166139716Y-97728207D01*
X166139707Y-97728214D01*
X166028214Y-97839707D01*
X166028208Y-97839715D01*
X165940607Y-97970818D01*
X165940603Y-97970825D01*
X165880264Y-98116499D01*
X165880262Y-98116506D01*
X165871676Y-98159672D01*
X165835503Y-98240511D01*
X165767837Y-98297650D01*
X165682081Y-98319771D01*
X165595220Y-98302493D01*
X165524457Y-98249238D01*
X165483808Y-98170555D01*
X165477500Y-98120849D01*
X165477500Y-86380552D01*
X165452704Y-86288014D01*
X165441552Y-86246393D01*
X165441552Y-86246392D01*
X165406828Y-86186250D01*
X165372105Y-86126107D01*
X165273893Y-86027895D01*
X165273892Y-86027894D01*
X165266943Y-86020945D01*
X165266932Y-86020935D01*
X162158450Y-82912453D01*
X162158447Y-82912449D01*
X162158447Y-82912450D01*
X162147105Y-82901108D01*
X162147105Y-82901107D01*
X162048893Y-82802895D01*
X162048890Y-82802893D01*
X162048887Y-82802891D01*
X161988750Y-82768170D01*
X161988750Y-82768171D01*
X161928607Y-82733447D01*
X161928608Y-82733447D01*
X161871122Y-82718045D01*
X161861527Y-82715474D01*
X161794447Y-82697500D01*
X161745477Y-82697500D01*
X161729528Y-82694892D01*
X161703107Y-82684140D01*
X161675299Y-82677793D01*
X161662573Y-82667644D01*
X161647497Y-82661509D01*
X161628356Y-82640356D01*
X161606058Y-82622574D01*
X161590727Y-82598772D01*
X161588074Y-82595841D01*
X161587428Y-82593651D01*
X161584331Y-82588843D01*
X161574523Y-82569594D01*
X161458828Y-82410354D01*
X161458823Y-82410349D01*
X161458822Y-82410347D01*
X161319652Y-82271177D01*
X161319650Y-82271176D01*
X161319646Y-82271172D01*
X161207049Y-82189365D01*
X161160407Y-82155477D01*
X161123466Y-82136655D01*
X160985025Y-82066116D01*
X160985021Y-82066115D01*
X160985018Y-82066113D01*
X160797828Y-82005291D01*
X160797820Y-82005289D01*
X160603417Y-81974500D01*
X160406583Y-81974500D01*
X160212179Y-82005289D01*
X160212171Y-82005291D01*
X160024982Y-82066113D01*
X160024981Y-82066113D01*
X159849592Y-82155477D01*
X159728156Y-82243706D01*
X159690354Y-82271172D01*
X159690352Y-82271173D01*
X159690349Y-82271176D01*
X159690347Y-82271177D01*
X159551177Y-82410347D01*
X159551176Y-82410349D01*
X159551173Y-82410352D01*
X159551172Y-82410354D01*
X159527742Y-82442603D01*
X159435474Y-82569597D01*
X159412310Y-82615060D01*
X159355552Y-82683045D01*
X159274917Y-82719671D01*
X159186376Y-82717684D01*
X159107466Y-82677477D01*
X159057690Y-82615060D01*
X159034525Y-82569597D01*
X159034523Y-82569594D01*
X158918828Y-82410354D01*
X158918823Y-82410349D01*
X158918822Y-82410347D01*
X158779652Y-82271177D01*
X158779650Y-82271176D01*
X158779646Y-82271172D01*
X158667049Y-82189365D01*
X158620407Y-82155477D01*
X158583466Y-82136655D01*
X158445025Y-82066116D01*
X158445021Y-82066115D01*
X158445018Y-82066113D01*
X158257828Y-82005291D01*
X158257820Y-82005289D01*
X158063417Y-81974500D01*
X157866583Y-81974500D01*
X157672179Y-82005289D01*
X157672171Y-82005291D01*
X157484982Y-82066113D01*
X157484981Y-82066113D01*
X157309592Y-82155477D01*
X157150351Y-82271174D01*
X157006705Y-82414820D01*
X156931716Y-82461938D01*
X156843709Y-82471854D01*
X156760116Y-82442603D01*
X156697493Y-82379979D01*
X156669442Y-82305238D01*
X156660646Y-82249696D01*
X156603050Y-82136658D01*
X156603049Y-82136657D01*
X156603048Y-82136655D01*
X156513342Y-82046949D01*
X156400307Y-81989355D01*
X156400304Y-81989354D01*
X156400302Y-81989353D01*
X156400300Y-81989353D01*
X156334818Y-81978982D01*
X156306519Y-81974500D01*
X156306518Y-81974500D01*
X154543481Y-81974500D01*
X154449696Y-81989354D01*
X154449694Y-81989354D01*
X154336655Y-82046951D01*
X154246949Y-82136657D01*
X154189355Y-82249692D01*
X154189353Y-82249699D01*
X154174500Y-82343481D01*
X154174500Y-84106518D01*
X154189354Y-84200303D01*
X154189354Y-84200305D01*
X154246951Y-84313344D01*
X154336657Y-84403050D01*
X154449692Y-84460644D01*
X154449696Y-84460646D01*
X154505233Y-84469442D01*
X154587431Y-84502413D01*
X154647182Y-84567783D01*
X154672653Y-84652604D01*
X154658799Y-84740077D01*
X154614819Y-84806706D01*
X154471174Y-84950351D01*
X154355477Y-85109592D01*
X154266113Y-85284981D01*
X154266113Y-85284982D01*
X154205291Y-85472171D01*
X154205289Y-85472179D01*
X154174500Y-85666583D01*
X154174500Y-85863416D01*
X154205289Y-86057820D01*
X154205291Y-86057828D01*
X154266113Y-86245017D01*
X154266113Y-86245018D01*
X154266115Y-86245021D01*
X154266116Y-86245025D01*
X154355476Y-86420405D01*
X154471172Y-86579646D01*
X154471176Y-86579650D01*
X154471177Y-86579652D01*
X154610347Y-86718822D01*
X154610349Y-86718823D01*
X154610354Y-86718828D01*
X154769595Y-86834524D01*
X154944975Y-86923884D01*
X154944980Y-86923885D01*
X154944981Y-86923886D01*
X155009335Y-86944796D01*
X155132174Y-86984709D01*
X155132176Y-86984709D01*
X155132179Y-86984710D01*
X155326583Y-87015500D01*
X155523417Y-87015500D01*
X155717820Y-86984710D01*
X155717820Y-86984709D01*
X155717826Y-86984709D01*
X155840665Y-86944796D01*
X155912006Y-86921616D01*
X156000212Y-86913677D01*
X156083129Y-86944796D01*
X156144331Y-87008809D01*
X156171699Y-87093038D01*
X156172500Y-87110876D01*
X156172500Y-95249074D01*
X156165071Y-95281621D01*
X156161333Y-95314800D01*
X156155311Y-95324383D01*
X156152793Y-95335417D01*
X156114214Y-95389788D01*
X156035768Y-95468234D01*
X155926109Y-95577893D01*
X155926107Y-95577895D01*
X155893791Y-95610211D01*
X155827895Y-95676106D01*
X155827894Y-95676107D01*
X155816820Y-95695289D01*
X155810881Y-95705577D01*
X155800568Y-95723440D01*
X155758447Y-95796392D01*
X155751013Y-95824139D01*
X155722500Y-95930551D01*
X155722500Y-96900500D01*
X155702793Y-96986843D01*
X155647574Y-97056084D01*
X155567782Y-97094511D01*
X155523501Y-97099500D01*
X155343481Y-97099500D01*
X155249696Y-97114354D01*
X155249691Y-97114355D01*
X155125156Y-97177810D01*
X155122941Y-97178367D01*
X155121155Y-97179793D01*
X155080095Y-97189164D01*
X155039277Y-97199450D01*
X155034812Y-97199500D01*
X154775098Y-97199500D01*
X154688755Y-97179793D01*
X154634384Y-97141214D01*
X154547664Y-97054494D01*
X154427836Y-96985312D01*
X154397984Y-96977313D01*
X154397979Y-96977311D01*
X154393486Y-96976108D01*
X154294183Y-96949499D01*
X154270589Y-96949499D01*
X154249612Y-96944919D01*
X154228481Y-96934987D01*
X154205717Y-96929792D01*
X154188912Y-96916390D01*
X154169460Y-96907248D01*
X154154728Y-96889129D01*
X154136476Y-96874573D01*
X154120771Y-96851797D01*
X154098170Y-96813580D01*
X153986420Y-96701830D01*
X153948123Y-96679181D01*
X153850390Y-96621381D01*
X153744461Y-96590607D01*
X153698627Y-96577291D01*
X153663163Y-96574500D01*
X153663157Y-96574500D01*
X153036842Y-96574500D01*
X153001372Y-96577291D01*
X152849608Y-96621382D01*
X152713580Y-96701829D01*
X152707153Y-96708257D01*
X152632162Y-96755373D01*
X152544156Y-96765286D01*
X152460563Y-96736033D01*
X152397941Y-96673407D01*
X152368694Y-96589812D01*
X152378612Y-96501806D01*
X152408564Y-96446397D01*
X152499536Y-96327841D01*
X152560044Y-96181762D01*
X152575500Y-96064361D01*
X152575499Y-95585640D01*
X152560044Y-95468238D01*
X152560043Y-95468236D01*
X152560043Y-95468234D01*
X152499536Y-95322159D01*
X152499535Y-95322156D01*
X152472475Y-95286892D01*
X152435547Y-95206395D01*
X152437203Y-95117847D01*
X152446497Y-95089602D01*
X152469737Y-95033497D01*
X152500500Y-94878842D01*
X152500500Y-94721158D01*
X152469737Y-94566503D01*
X152412707Y-94428819D01*
X152409396Y-94420825D01*
X152409392Y-94420818D01*
X152374303Y-94368304D01*
X152321789Y-94289711D01*
X152210289Y-94178211D01*
X152100338Y-94104744D01*
X152079181Y-94090607D01*
X152079174Y-94090603D01*
X151933500Y-94030264D01*
X151933498Y-94030263D01*
X151933497Y-94030263D01*
X151933495Y-94030262D01*
X151933493Y-94030262D01*
X151855125Y-94014673D01*
X151778842Y-93999500D01*
X151621158Y-93999500D01*
X151570072Y-94009661D01*
X151466506Y-94030262D01*
X151466499Y-94030264D01*
X151320825Y-94090603D01*
X151320818Y-94090607D01*
X151189715Y-94178208D01*
X151189707Y-94178214D01*
X151078214Y-94289707D01*
X151078208Y-94289715D01*
X150990607Y-94420818D01*
X150990603Y-94420825D01*
X150930264Y-94566499D01*
X150930262Y-94566506D01*
X150899500Y-94721158D01*
X150899500Y-94878842D01*
X150930895Y-95036678D01*
X150928411Y-95125206D01*
X150887762Y-95203890D01*
X150816999Y-95257144D01*
X150735719Y-95274500D01*
X149302521Y-95274500D01*
X149168960Y-95310288D01*
X149168960Y-95310289D01*
X149163874Y-95311651D01*
X149162511Y-95312017D01*
X149036988Y-95384487D01*
X149036984Y-95384490D01*
X142784489Y-101636985D01*
X142735435Y-101721949D01*
X142735436Y-101721950D01*
X142712016Y-101762513D01*
X142712016Y-101762515D01*
X142674500Y-101902522D01*
X131159600Y-101902522D01*
X131159600Y-73204059D01*
X132394300Y-73204059D01*
X132394300Y-73401140D01*
X132432748Y-73594432D01*
X132432749Y-73594436D01*
X132508165Y-73776509D01*
X132508168Y-73776514D01*
X132617661Y-73940382D01*
X132757018Y-74079739D01*
X132806842Y-74113030D01*
X132920883Y-74189230D01*
X132920890Y-74189234D01*
X133011825Y-74226900D01*
X133102965Y-74264651D01*
X133296259Y-74303100D01*
X133296260Y-74303100D01*
X133493340Y-74303100D01*
X133493341Y-74303100D01*
X133686635Y-74264651D01*
X133868714Y-74189232D01*
X134032582Y-74079739D01*
X134171939Y-73940382D01*
X134281432Y-73776514D01*
X134356851Y-73594435D01*
X134395300Y-73401141D01*
X134395300Y-73204059D01*
X134380143Y-73127859D01*
X188375900Y-73127859D01*
X188375900Y-73324940D01*
X188414348Y-73518232D01*
X188414349Y-73518236D01*
X188489765Y-73700309D01*
X188489769Y-73700316D01*
X188544146Y-73781697D01*
X188599261Y-73864182D01*
X188738618Y-74003539D01*
X188901385Y-74112296D01*
X188902483Y-74113030D01*
X188902490Y-74113034D01*
X189023872Y-74163311D01*
X189084565Y-74188451D01*
X189277859Y-74226900D01*
X189277860Y-74226900D01*
X189474940Y-74226900D01*
X189474941Y-74226900D01*
X189668235Y-74188451D01*
X189850314Y-74113032D01*
X190014182Y-74003539D01*
X190153539Y-73864182D01*
X190263032Y-73700314D01*
X190338451Y-73518235D01*
X190376900Y-73324941D01*
X190376900Y-73127859D01*
X190338451Y-72934565D01*
X190313311Y-72873872D01*
X190263034Y-72752490D01*
X190263030Y-72752483D01*
X190262296Y-72751385D01*
X190153539Y-72588618D01*
X190014182Y-72449261D01*
X189851483Y-72340549D01*
X189850316Y-72339769D01*
X189850309Y-72339765D01*
X189668236Y-72264349D01*
X189668232Y-72264348D01*
X189538789Y-72238600D01*
X189474941Y-72225900D01*
X189277859Y-72225900D01*
X189229864Y-72235446D01*
X189084567Y-72264348D01*
X189084563Y-72264349D01*
X188902490Y-72339765D01*
X188902483Y-72339769D01*
X188738622Y-72449258D01*
X188738614Y-72449264D01*
X188599264Y-72588614D01*
X188599258Y-72588622D01*
X188489769Y-72752483D01*
X188489765Y-72752490D01*
X188414349Y-72934563D01*
X188414348Y-72934567D01*
X188375900Y-73127859D01*
X134380143Y-73127859D01*
X134356851Y-73010765D01*
X134281432Y-72828686D01*
X134171939Y-72664818D01*
X134032582Y-72525461D01*
X133918536Y-72449258D01*
X133868716Y-72415969D01*
X133868709Y-72415965D01*
X133686636Y-72340549D01*
X133686632Y-72340548D01*
X133557189Y-72314800D01*
X133493341Y-72302100D01*
X133296259Y-72302100D01*
X133248264Y-72311646D01*
X133102967Y-72340548D01*
X133102963Y-72340549D01*
X132920890Y-72415965D01*
X132920883Y-72415969D01*
X132757022Y-72525458D01*
X132757014Y-72525464D01*
X132617664Y-72664814D01*
X132617658Y-72664822D01*
X132508169Y-72828683D01*
X132508165Y-72828690D01*
X132432749Y-73010763D01*
X132432748Y-73010767D01*
X132394300Y-73204059D01*
X131159600Y-73204059D01*
X131159600Y-71114000D01*
X131179307Y-71027657D01*
X131234526Y-70958416D01*
X131314318Y-70919989D01*
X131358600Y-70915000D01*
X191768200Y-70915000D01*
X191854543Y-70934707D01*
G37*
G04 #@! TD.AperFunction*
G04 #@! TD*
M02*
