G04 #@! TF.GenerationSoftware,KiCad,Pcbnew,9.0.0-rc2-6-ga1fa0bdb0b*
G04 #@! TF.CreationDate,2025-02-11T11:14:17+02:00*
G04 #@! TF.ProjectId,can_link_r1,63616e5f-6c69-46e6-9b5f-72312e6b6963,Rev 4*
G04 #@! TF.SameCoordinates,Original*
G04 #@! TF.FileFunction,Legend,Top*
G04 #@! TF.FilePolarity,Positive*
%FSLAX46Y46*%
G04 Gerber Fmt 4.6, Leading zero omitted, Abs format (unit mm)*
G04 Created by KiCad (PCBNEW 9.0.0-rc2-6-ga1fa0bdb0b) date 2025-02-11 11:14:17*
%MOMM*%
%LPD*%
G01*
G04 APERTURE LIST*
%ADD10C,0.300000*%
%ADD11C,0.150000*%
%ADD12C,0.120000*%
G04 APERTURE END LIST*
D10*
X173011653Y-76278013D02*
X172940225Y-76349442D01*
X172940225Y-76349442D02*
X172725939Y-76420870D01*
X172725939Y-76420870D02*
X172583082Y-76420870D01*
X172583082Y-76420870D02*
X172368796Y-76349442D01*
X172368796Y-76349442D02*
X172225939Y-76206584D01*
X172225939Y-76206584D02*
X172154510Y-76063727D01*
X172154510Y-76063727D02*
X172083082Y-75778013D01*
X172083082Y-75778013D02*
X172083082Y-75563727D01*
X172083082Y-75563727D02*
X172154510Y-75278013D01*
X172154510Y-75278013D02*
X172225939Y-75135156D01*
X172225939Y-75135156D02*
X172368796Y-74992299D01*
X172368796Y-74992299D02*
X172583082Y-74920870D01*
X172583082Y-74920870D02*
X172725939Y-74920870D01*
X172725939Y-74920870D02*
X172940225Y-74992299D01*
X172940225Y-74992299D02*
X173011653Y-75063727D01*
X173583082Y-75992299D02*
X174297368Y-75992299D01*
X173440225Y-76420870D02*
X173940225Y-74920870D01*
X173940225Y-74920870D02*
X174440225Y-76420870D01*
X174940224Y-76420870D02*
X174940224Y-74920870D01*
X174940224Y-74920870D02*
X175797367Y-76420870D01*
X175797367Y-76420870D02*
X175797367Y-74920870D01*
X177225939Y-76420870D02*
X176511653Y-76420870D01*
X176511653Y-76420870D02*
X176511653Y-74920870D01*
X177725939Y-76420870D02*
X177725939Y-75420870D01*
X177725939Y-74920870D02*
X177654511Y-74992299D01*
X177654511Y-74992299D02*
X177725939Y-75063727D01*
X177725939Y-75063727D02*
X177797368Y-74992299D01*
X177797368Y-74992299D02*
X177725939Y-74920870D01*
X177725939Y-74920870D02*
X177725939Y-75063727D01*
X178440225Y-75420870D02*
X178440225Y-76420870D01*
X178440225Y-75563727D02*
X178511654Y-75492299D01*
X178511654Y-75492299D02*
X178654511Y-75420870D01*
X178654511Y-75420870D02*
X178868797Y-75420870D01*
X178868797Y-75420870D02*
X179011654Y-75492299D01*
X179011654Y-75492299D02*
X179083083Y-75635156D01*
X179083083Y-75635156D02*
X179083083Y-76420870D01*
X179797368Y-76420870D02*
X179797368Y-74920870D01*
X179940226Y-75849442D02*
X180368797Y-76420870D01*
X180368797Y-75420870D02*
X179797368Y-75992299D01*
X183011654Y-76420870D02*
X182511654Y-75706584D01*
X182154511Y-76420870D02*
X182154511Y-74920870D01*
X182154511Y-74920870D02*
X182725940Y-74920870D01*
X182725940Y-74920870D02*
X182868797Y-74992299D01*
X182868797Y-74992299D02*
X182940226Y-75063727D01*
X182940226Y-75063727D02*
X183011654Y-75206584D01*
X183011654Y-75206584D02*
X183011654Y-75420870D01*
X183011654Y-75420870D02*
X182940226Y-75563727D01*
X182940226Y-75563727D02*
X182868797Y-75635156D01*
X182868797Y-75635156D02*
X182725940Y-75706584D01*
X182725940Y-75706584D02*
X182154511Y-75706584D01*
X183654511Y-75635156D02*
X184154511Y-75635156D01*
X184368797Y-76420870D02*
X183654511Y-76420870D01*
X183654511Y-76420870D02*
X183654511Y-74920870D01*
X183654511Y-74920870D02*
X184368797Y-74920870D01*
X184797369Y-74920870D02*
X185297369Y-76420870D01*
X185297369Y-76420870D02*
X185797369Y-74920870D01*
X187083083Y-76420870D02*
X186225940Y-76420870D01*
X186654511Y-76420870D02*
X186654511Y-74920870D01*
X186654511Y-74920870D02*
X186511654Y-75135156D01*
X186511654Y-75135156D02*
X186368797Y-75278013D01*
X186368797Y-75278013D02*
X186225940Y-75349442D01*
X172654510Y-78050072D02*
X172868796Y-78121500D01*
X172868796Y-78121500D02*
X172940225Y-78192929D01*
X172940225Y-78192929D02*
X173011653Y-78335786D01*
X173011653Y-78335786D02*
X173011653Y-78550072D01*
X173011653Y-78550072D02*
X172940225Y-78692929D01*
X172940225Y-78692929D02*
X172868796Y-78764358D01*
X172868796Y-78764358D02*
X172725939Y-78835786D01*
X172725939Y-78835786D02*
X172154510Y-78835786D01*
X172154510Y-78835786D02*
X172154510Y-77335786D01*
X172154510Y-77335786D02*
X172654510Y-77335786D01*
X172654510Y-77335786D02*
X172797368Y-77407215D01*
X172797368Y-77407215D02*
X172868796Y-77478643D01*
X172868796Y-77478643D02*
X172940225Y-77621500D01*
X172940225Y-77621500D02*
X172940225Y-77764358D01*
X172940225Y-77764358D02*
X172868796Y-77907215D01*
X172868796Y-77907215D02*
X172797368Y-77978643D01*
X172797368Y-77978643D02*
X172654510Y-78050072D01*
X172654510Y-78050072D02*
X172154510Y-78050072D01*
X173654510Y-78835786D02*
X173654510Y-77335786D01*
X174511653Y-78835786D02*
X173868796Y-77978643D01*
X174511653Y-77335786D02*
X173654510Y-78192929D01*
X176083082Y-77335786D02*
X176940225Y-77335786D01*
X176511653Y-78835786D02*
X176511653Y-77335786D01*
X177440224Y-78050072D02*
X177940224Y-78050072D01*
X178154510Y-78835786D02*
X177440224Y-78835786D01*
X177440224Y-78835786D02*
X177440224Y-77335786D01*
X177440224Y-77335786D02*
X178154510Y-77335786D01*
X179511653Y-78835786D02*
X178797367Y-78835786D01*
X178797367Y-78835786D02*
X178797367Y-77335786D01*
X180011653Y-78050072D02*
X180511653Y-78050072D01*
X180725939Y-78835786D02*
X180011653Y-78835786D01*
X180011653Y-78835786D02*
X180011653Y-77335786D01*
X180011653Y-77335786D02*
X180725939Y-77335786D01*
X181368796Y-78835786D02*
X181368796Y-77335786D01*
X181368796Y-77335786D02*
X181868796Y-78407215D01*
X181868796Y-78407215D02*
X182368796Y-77335786D01*
X182368796Y-77335786D02*
X182368796Y-78835786D01*
X183011654Y-78407215D02*
X183725940Y-78407215D01*
X182868797Y-78835786D02*
X183368797Y-77335786D01*
X183368797Y-77335786D02*
X183868797Y-78835786D01*
X184154511Y-77335786D02*
X185011654Y-77335786D01*
X184583082Y-78835786D02*
X184583082Y-77335786D01*
X185511653Y-78835786D02*
X185511653Y-77335786D01*
X187083082Y-78692929D02*
X187011654Y-78764358D01*
X187011654Y-78764358D02*
X186797368Y-78835786D01*
X186797368Y-78835786D02*
X186654511Y-78835786D01*
X186654511Y-78835786D02*
X186440225Y-78764358D01*
X186440225Y-78764358D02*
X186297368Y-78621500D01*
X186297368Y-78621500D02*
X186225939Y-78478643D01*
X186225939Y-78478643D02*
X186154511Y-78192929D01*
X186154511Y-78192929D02*
X186154511Y-77978643D01*
X186154511Y-77978643D02*
X186225939Y-77692929D01*
X186225939Y-77692929D02*
X186297368Y-77550072D01*
X186297368Y-77550072D02*
X186440225Y-77407215D01*
X186440225Y-77407215D02*
X186654511Y-77335786D01*
X186654511Y-77335786D02*
X186797368Y-77335786D01*
X186797368Y-77335786D02*
X187011654Y-77407215D01*
X187011654Y-77407215D02*
X187083082Y-77478643D01*
X187654511Y-78764358D02*
X187868797Y-78835786D01*
X187868797Y-78835786D02*
X188225939Y-78835786D01*
X188225939Y-78835786D02*
X188368797Y-78764358D01*
X188368797Y-78764358D02*
X188440225Y-78692929D01*
X188440225Y-78692929D02*
X188511654Y-78550072D01*
X188511654Y-78550072D02*
X188511654Y-78407215D01*
X188511654Y-78407215D02*
X188440225Y-78264358D01*
X188440225Y-78264358D02*
X188368797Y-78192929D01*
X188368797Y-78192929D02*
X188225939Y-78121500D01*
X188225939Y-78121500D02*
X187940225Y-78050072D01*
X187940225Y-78050072D02*
X187797368Y-77978643D01*
X187797368Y-77978643D02*
X187725939Y-77907215D01*
X187725939Y-77907215D02*
X187654511Y-77764358D01*
X187654511Y-77764358D02*
X187654511Y-77621500D01*
X187654511Y-77621500D02*
X187725939Y-77478643D01*
X187725939Y-77478643D02*
X187797368Y-77407215D01*
X187797368Y-77407215D02*
X187940225Y-77335786D01*
X187940225Y-77335786D02*
X188297368Y-77335786D01*
X188297368Y-77335786D02*
X188511654Y-77407215D01*
D11*
X144429819Y-119136904D02*
X145239342Y-119136904D01*
X145239342Y-119136904D02*
X145334580Y-119089285D01*
X145334580Y-119089285D02*
X145382200Y-119041666D01*
X145382200Y-119041666D02*
X145429819Y-118946428D01*
X145429819Y-118946428D02*
X145429819Y-118755952D01*
X145429819Y-118755952D02*
X145382200Y-118660714D01*
X145382200Y-118660714D02*
X145334580Y-118613095D01*
X145334580Y-118613095D02*
X145239342Y-118565476D01*
X145239342Y-118565476D02*
X144429819Y-118565476D01*
X144763152Y-117660714D02*
X145429819Y-117660714D01*
X144382200Y-117898809D02*
X145096485Y-118136904D01*
X145096485Y-118136904D02*
X145096485Y-117517857D01*
X145558333Y-112384580D02*
X145510714Y-112432200D01*
X145510714Y-112432200D02*
X145367857Y-112479819D01*
X145367857Y-112479819D02*
X145272619Y-112479819D01*
X145272619Y-112479819D02*
X145129762Y-112432200D01*
X145129762Y-112432200D02*
X145034524Y-112336961D01*
X145034524Y-112336961D02*
X144986905Y-112241723D01*
X144986905Y-112241723D02*
X144939286Y-112051247D01*
X144939286Y-112051247D02*
X144939286Y-111908390D01*
X144939286Y-111908390D02*
X144986905Y-111717914D01*
X144986905Y-111717914D02*
X145034524Y-111622676D01*
X145034524Y-111622676D02*
X145129762Y-111527438D01*
X145129762Y-111527438D02*
X145272619Y-111479819D01*
X145272619Y-111479819D02*
X145367857Y-111479819D01*
X145367857Y-111479819D02*
X145510714Y-111527438D01*
X145510714Y-111527438D02*
X145558333Y-111575057D01*
X146463095Y-111479819D02*
X145986905Y-111479819D01*
X145986905Y-111479819D02*
X145939286Y-111956009D01*
X145939286Y-111956009D02*
X145986905Y-111908390D01*
X145986905Y-111908390D02*
X146082143Y-111860771D01*
X146082143Y-111860771D02*
X146320238Y-111860771D01*
X146320238Y-111860771D02*
X146415476Y-111908390D01*
X146415476Y-111908390D02*
X146463095Y-111956009D01*
X146463095Y-111956009D02*
X146510714Y-112051247D01*
X146510714Y-112051247D02*
X146510714Y-112289342D01*
X146510714Y-112289342D02*
X146463095Y-112384580D01*
X146463095Y-112384580D02*
X146415476Y-112432200D01*
X146415476Y-112432200D02*
X146320238Y-112479819D01*
X146320238Y-112479819D02*
X146082143Y-112479819D01*
X146082143Y-112479819D02*
X145986905Y-112432200D01*
X145986905Y-112432200D02*
X145939286Y-112384580D01*
X147579819Y-126642857D02*
X147103628Y-126976190D01*
X147579819Y-127214285D02*
X146579819Y-127214285D01*
X146579819Y-127214285D02*
X146579819Y-126833333D01*
X146579819Y-126833333D02*
X146627438Y-126738095D01*
X146627438Y-126738095D02*
X146675057Y-126690476D01*
X146675057Y-126690476D02*
X146770295Y-126642857D01*
X146770295Y-126642857D02*
X146913152Y-126642857D01*
X146913152Y-126642857D02*
X147008390Y-126690476D01*
X147008390Y-126690476D02*
X147056009Y-126738095D01*
X147056009Y-126738095D02*
X147103628Y-126833333D01*
X147103628Y-126833333D02*
X147103628Y-127214285D01*
X147579819Y-125690476D02*
X147579819Y-126261904D01*
X147579819Y-125976190D02*
X146579819Y-125976190D01*
X146579819Y-125976190D02*
X146722676Y-126071428D01*
X146722676Y-126071428D02*
X146817914Y-126166666D01*
X146817914Y-126166666D02*
X146865533Y-126261904D01*
X146913152Y-124833333D02*
X147579819Y-124833333D01*
X146532200Y-125071428D02*
X147246485Y-125309523D01*
X147246485Y-125309523D02*
X147246485Y-124690476D01*
X152368628Y-104166190D02*
X152844819Y-104166190D01*
X151844819Y-104499523D02*
X152368628Y-104166190D01*
X152368628Y-104166190D02*
X151844819Y-103832857D01*
X152844819Y-102975714D02*
X152844819Y-103547142D01*
X152844819Y-103261428D02*
X151844819Y-103261428D01*
X151844819Y-103261428D02*
X151987676Y-103356666D01*
X151987676Y-103356666D02*
X152082914Y-103451904D01*
X152082914Y-103451904D02*
X152130533Y-103547142D01*
X162782142Y-112474819D02*
X162448809Y-111998628D01*
X162210714Y-112474819D02*
X162210714Y-111474819D01*
X162210714Y-111474819D02*
X162591666Y-111474819D01*
X162591666Y-111474819D02*
X162686904Y-111522438D01*
X162686904Y-111522438D02*
X162734523Y-111570057D01*
X162734523Y-111570057D02*
X162782142Y-111665295D01*
X162782142Y-111665295D02*
X162782142Y-111808152D01*
X162782142Y-111808152D02*
X162734523Y-111903390D01*
X162734523Y-111903390D02*
X162686904Y-111951009D01*
X162686904Y-111951009D02*
X162591666Y-111998628D01*
X162591666Y-111998628D02*
X162210714Y-111998628D01*
X163734523Y-112474819D02*
X163163095Y-112474819D01*
X163448809Y-112474819D02*
X163448809Y-111474819D01*
X163448809Y-111474819D02*
X163353571Y-111617676D01*
X163353571Y-111617676D02*
X163258333Y-111712914D01*
X163258333Y-111712914D02*
X163163095Y-111760533D01*
X164067857Y-111474819D02*
X164734523Y-111474819D01*
X164734523Y-111474819D02*
X164305952Y-112474819D01*
X173032142Y-114004819D02*
X172698809Y-113528628D01*
X172460714Y-114004819D02*
X172460714Y-113004819D01*
X172460714Y-113004819D02*
X172841666Y-113004819D01*
X172841666Y-113004819D02*
X172936904Y-113052438D01*
X172936904Y-113052438D02*
X172984523Y-113100057D01*
X172984523Y-113100057D02*
X173032142Y-113195295D01*
X173032142Y-113195295D02*
X173032142Y-113338152D01*
X173032142Y-113338152D02*
X172984523Y-113433390D01*
X172984523Y-113433390D02*
X172936904Y-113481009D01*
X172936904Y-113481009D02*
X172841666Y-113528628D01*
X172841666Y-113528628D02*
X172460714Y-113528628D01*
X173984523Y-114004819D02*
X173413095Y-114004819D01*
X173698809Y-114004819D02*
X173698809Y-113004819D01*
X173698809Y-113004819D02*
X173603571Y-113147676D01*
X173603571Y-113147676D02*
X173508333Y-113242914D01*
X173508333Y-113242914D02*
X173413095Y-113290533D01*
X174841666Y-113004819D02*
X174651190Y-113004819D01*
X174651190Y-113004819D02*
X174555952Y-113052438D01*
X174555952Y-113052438D02*
X174508333Y-113100057D01*
X174508333Y-113100057D02*
X174413095Y-113242914D01*
X174413095Y-113242914D02*
X174365476Y-113433390D01*
X174365476Y-113433390D02*
X174365476Y-113814342D01*
X174365476Y-113814342D02*
X174413095Y-113909580D01*
X174413095Y-113909580D02*
X174460714Y-113957200D01*
X174460714Y-113957200D02*
X174555952Y-114004819D01*
X174555952Y-114004819D02*
X174746428Y-114004819D01*
X174746428Y-114004819D02*
X174841666Y-113957200D01*
X174841666Y-113957200D02*
X174889285Y-113909580D01*
X174889285Y-113909580D02*
X174936904Y-113814342D01*
X174936904Y-113814342D02*
X174936904Y-113576247D01*
X174936904Y-113576247D02*
X174889285Y-113481009D01*
X174889285Y-113481009D02*
X174841666Y-113433390D01*
X174841666Y-113433390D02*
X174746428Y-113385771D01*
X174746428Y-113385771D02*
X174555952Y-113385771D01*
X174555952Y-113385771D02*
X174460714Y-113433390D01*
X174460714Y-113433390D02*
X174413095Y-113481009D01*
X174413095Y-113481009D02*
X174365476Y-113576247D01*
X166934580Y-101091666D02*
X166982200Y-101139285D01*
X166982200Y-101139285D02*
X167029819Y-101282142D01*
X167029819Y-101282142D02*
X167029819Y-101377380D01*
X167029819Y-101377380D02*
X166982200Y-101520237D01*
X166982200Y-101520237D02*
X166886961Y-101615475D01*
X166886961Y-101615475D02*
X166791723Y-101663094D01*
X166791723Y-101663094D02*
X166601247Y-101710713D01*
X166601247Y-101710713D02*
X166458390Y-101710713D01*
X166458390Y-101710713D02*
X166267914Y-101663094D01*
X166267914Y-101663094D02*
X166172676Y-101615475D01*
X166172676Y-101615475D02*
X166077438Y-101520237D01*
X166077438Y-101520237D02*
X166029819Y-101377380D01*
X166029819Y-101377380D02*
X166029819Y-101282142D01*
X166029819Y-101282142D02*
X166077438Y-101139285D01*
X166077438Y-101139285D02*
X166125057Y-101091666D01*
X166029819Y-100758332D02*
X166029819Y-100139285D01*
X166029819Y-100139285D02*
X166410771Y-100472618D01*
X166410771Y-100472618D02*
X166410771Y-100329761D01*
X166410771Y-100329761D02*
X166458390Y-100234523D01*
X166458390Y-100234523D02*
X166506009Y-100186904D01*
X166506009Y-100186904D02*
X166601247Y-100139285D01*
X166601247Y-100139285D02*
X166839342Y-100139285D01*
X166839342Y-100139285D02*
X166934580Y-100186904D01*
X166934580Y-100186904D02*
X166982200Y-100234523D01*
X166982200Y-100234523D02*
X167029819Y-100329761D01*
X167029819Y-100329761D02*
X167029819Y-100615475D01*
X167029819Y-100615475D02*
X166982200Y-100710713D01*
X166982200Y-100710713D02*
X166934580Y-100758332D01*
X159088095Y-95154819D02*
X159088095Y-95964342D01*
X159088095Y-95964342D02*
X159135714Y-96059580D01*
X159135714Y-96059580D02*
X159183333Y-96107200D01*
X159183333Y-96107200D02*
X159278571Y-96154819D01*
X159278571Y-96154819D02*
X159469047Y-96154819D01*
X159469047Y-96154819D02*
X159564285Y-96107200D01*
X159564285Y-96107200D02*
X159611904Y-96059580D01*
X159611904Y-96059580D02*
X159659523Y-95964342D01*
X159659523Y-95964342D02*
X159659523Y-95154819D01*
X160040476Y-95154819D02*
X160659523Y-95154819D01*
X160659523Y-95154819D02*
X160326190Y-95535771D01*
X160326190Y-95535771D02*
X160469047Y-95535771D01*
X160469047Y-95535771D02*
X160564285Y-95583390D01*
X160564285Y-95583390D02*
X160611904Y-95631009D01*
X160611904Y-95631009D02*
X160659523Y-95726247D01*
X160659523Y-95726247D02*
X160659523Y-95964342D01*
X160659523Y-95964342D02*
X160611904Y-96059580D01*
X160611904Y-96059580D02*
X160564285Y-96107200D01*
X160564285Y-96107200D02*
X160469047Y-96154819D01*
X160469047Y-96154819D02*
X160183333Y-96154819D01*
X160183333Y-96154819D02*
X160088095Y-96107200D01*
X160088095Y-96107200D02*
X160040476Y-96059580D01*
X159936905Y-115479819D02*
X159936905Y-114479819D01*
X159936905Y-114479819D02*
X160175000Y-114479819D01*
X160175000Y-114479819D02*
X160317857Y-114527438D01*
X160317857Y-114527438D02*
X160413095Y-114622676D01*
X160413095Y-114622676D02*
X160460714Y-114717914D01*
X160460714Y-114717914D02*
X160508333Y-114908390D01*
X160508333Y-114908390D02*
X160508333Y-115051247D01*
X160508333Y-115051247D02*
X160460714Y-115241723D01*
X160460714Y-115241723D02*
X160413095Y-115336961D01*
X160413095Y-115336961D02*
X160317857Y-115432200D01*
X160317857Y-115432200D02*
X160175000Y-115479819D01*
X160175000Y-115479819D02*
X159936905Y-115479819D01*
X161365476Y-114813152D02*
X161365476Y-115479819D01*
X161127381Y-114432200D02*
X160889286Y-115146485D01*
X160889286Y-115146485D02*
X161508333Y-115146485D01*
X153809580Y-99466666D02*
X153857200Y-99514285D01*
X153857200Y-99514285D02*
X153904819Y-99657142D01*
X153904819Y-99657142D02*
X153904819Y-99752380D01*
X153904819Y-99752380D02*
X153857200Y-99895237D01*
X153857200Y-99895237D02*
X153761961Y-99990475D01*
X153761961Y-99990475D02*
X153666723Y-100038094D01*
X153666723Y-100038094D02*
X153476247Y-100085713D01*
X153476247Y-100085713D02*
X153333390Y-100085713D01*
X153333390Y-100085713D02*
X153142914Y-100038094D01*
X153142914Y-100038094D02*
X153047676Y-99990475D01*
X153047676Y-99990475D02*
X152952438Y-99895237D01*
X152952438Y-99895237D02*
X152904819Y-99752380D01*
X152904819Y-99752380D02*
X152904819Y-99657142D01*
X152904819Y-99657142D02*
X152952438Y-99514285D01*
X152952438Y-99514285D02*
X153000057Y-99466666D01*
X153904819Y-98514285D02*
X153904819Y-99085713D01*
X153904819Y-98799999D02*
X152904819Y-98799999D01*
X152904819Y-98799999D02*
X153047676Y-98895237D01*
X153047676Y-98895237D02*
X153142914Y-98990475D01*
X153142914Y-98990475D02*
X153190533Y-99085713D01*
X188766666Y-87854819D02*
X188766666Y-88569104D01*
X188766666Y-88569104D02*
X188719047Y-88711961D01*
X188719047Y-88711961D02*
X188623809Y-88807200D01*
X188623809Y-88807200D02*
X188480952Y-88854819D01*
X188480952Y-88854819D02*
X188385714Y-88854819D01*
X189766666Y-88854819D02*
X189195238Y-88854819D01*
X189480952Y-88854819D02*
X189480952Y-87854819D01*
X189480952Y-87854819D02*
X189385714Y-87997676D01*
X189385714Y-87997676D02*
X189290476Y-88092914D01*
X189290476Y-88092914D02*
X189195238Y-88140533D01*
X143508333Y-133054819D02*
X143175000Y-132578628D01*
X142936905Y-133054819D02*
X142936905Y-132054819D01*
X142936905Y-132054819D02*
X143317857Y-132054819D01*
X143317857Y-132054819D02*
X143413095Y-132102438D01*
X143413095Y-132102438D02*
X143460714Y-132150057D01*
X143460714Y-132150057D02*
X143508333Y-132245295D01*
X143508333Y-132245295D02*
X143508333Y-132388152D01*
X143508333Y-132388152D02*
X143460714Y-132483390D01*
X143460714Y-132483390D02*
X143413095Y-132531009D01*
X143413095Y-132531009D02*
X143317857Y-132578628D01*
X143317857Y-132578628D02*
X142936905Y-132578628D01*
X143889286Y-132150057D02*
X143936905Y-132102438D01*
X143936905Y-132102438D02*
X144032143Y-132054819D01*
X144032143Y-132054819D02*
X144270238Y-132054819D01*
X144270238Y-132054819D02*
X144365476Y-132102438D01*
X144365476Y-132102438D02*
X144413095Y-132150057D01*
X144413095Y-132150057D02*
X144460714Y-132245295D01*
X144460714Y-132245295D02*
X144460714Y-132340533D01*
X144460714Y-132340533D02*
X144413095Y-132483390D01*
X144413095Y-132483390D02*
X143841667Y-133054819D01*
X143841667Y-133054819D02*
X144460714Y-133054819D01*
X149861905Y-131454819D02*
X149861905Y-130454819D01*
X149861905Y-130454819D02*
X150100000Y-130454819D01*
X150100000Y-130454819D02*
X150242857Y-130502438D01*
X150242857Y-130502438D02*
X150338095Y-130597676D01*
X150338095Y-130597676D02*
X150385714Y-130692914D01*
X150385714Y-130692914D02*
X150433333Y-130883390D01*
X150433333Y-130883390D02*
X150433333Y-131026247D01*
X150433333Y-131026247D02*
X150385714Y-131216723D01*
X150385714Y-131216723D02*
X150338095Y-131311961D01*
X150338095Y-131311961D02*
X150242857Y-131407200D01*
X150242857Y-131407200D02*
X150100000Y-131454819D01*
X150100000Y-131454819D02*
X149861905Y-131454819D01*
X151385714Y-131454819D02*
X150814286Y-131454819D01*
X151100000Y-131454819D02*
X151100000Y-130454819D01*
X151100000Y-130454819D02*
X151004762Y-130597676D01*
X151004762Y-130597676D02*
X150909524Y-130692914D01*
X150909524Y-130692914D02*
X150814286Y-130740533D01*
X180907142Y-104854819D02*
X180573809Y-104378628D01*
X180335714Y-104854819D02*
X180335714Y-103854819D01*
X180335714Y-103854819D02*
X180716666Y-103854819D01*
X180716666Y-103854819D02*
X180811904Y-103902438D01*
X180811904Y-103902438D02*
X180859523Y-103950057D01*
X180859523Y-103950057D02*
X180907142Y-104045295D01*
X180907142Y-104045295D02*
X180907142Y-104188152D01*
X180907142Y-104188152D02*
X180859523Y-104283390D01*
X180859523Y-104283390D02*
X180811904Y-104331009D01*
X180811904Y-104331009D02*
X180716666Y-104378628D01*
X180716666Y-104378628D02*
X180335714Y-104378628D01*
X181288095Y-103950057D02*
X181335714Y-103902438D01*
X181335714Y-103902438D02*
X181430952Y-103854819D01*
X181430952Y-103854819D02*
X181669047Y-103854819D01*
X181669047Y-103854819D02*
X181764285Y-103902438D01*
X181764285Y-103902438D02*
X181811904Y-103950057D01*
X181811904Y-103950057D02*
X181859523Y-104045295D01*
X181859523Y-104045295D02*
X181859523Y-104140533D01*
X181859523Y-104140533D02*
X181811904Y-104283390D01*
X181811904Y-104283390D02*
X181240476Y-104854819D01*
X181240476Y-104854819D02*
X181859523Y-104854819D01*
X182811904Y-104854819D02*
X182240476Y-104854819D01*
X182526190Y-104854819D02*
X182526190Y-103854819D01*
X182526190Y-103854819D02*
X182430952Y-103997676D01*
X182430952Y-103997676D02*
X182335714Y-104092914D01*
X182335714Y-104092914D02*
X182240476Y-104140533D01*
X160732142Y-120954819D02*
X160398809Y-120478628D01*
X160160714Y-120954819D02*
X160160714Y-119954819D01*
X160160714Y-119954819D02*
X160541666Y-119954819D01*
X160541666Y-119954819D02*
X160636904Y-120002438D01*
X160636904Y-120002438D02*
X160684523Y-120050057D01*
X160684523Y-120050057D02*
X160732142Y-120145295D01*
X160732142Y-120145295D02*
X160732142Y-120288152D01*
X160732142Y-120288152D02*
X160684523Y-120383390D01*
X160684523Y-120383390D02*
X160636904Y-120431009D01*
X160636904Y-120431009D02*
X160541666Y-120478628D01*
X160541666Y-120478628D02*
X160160714Y-120478628D01*
X161113095Y-120050057D02*
X161160714Y-120002438D01*
X161160714Y-120002438D02*
X161255952Y-119954819D01*
X161255952Y-119954819D02*
X161494047Y-119954819D01*
X161494047Y-119954819D02*
X161589285Y-120002438D01*
X161589285Y-120002438D02*
X161636904Y-120050057D01*
X161636904Y-120050057D02*
X161684523Y-120145295D01*
X161684523Y-120145295D02*
X161684523Y-120240533D01*
X161684523Y-120240533D02*
X161636904Y-120383390D01*
X161636904Y-120383390D02*
X161065476Y-120954819D01*
X161065476Y-120954819D02*
X161684523Y-120954819D01*
X162303571Y-119954819D02*
X162398809Y-119954819D01*
X162398809Y-119954819D02*
X162494047Y-120002438D01*
X162494047Y-120002438D02*
X162541666Y-120050057D01*
X162541666Y-120050057D02*
X162589285Y-120145295D01*
X162589285Y-120145295D02*
X162636904Y-120335771D01*
X162636904Y-120335771D02*
X162636904Y-120573866D01*
X162636904Y-120573866D02*
X162589285Y-120764342D01*
X162589285Y-120764342D02*
X162541666Y-120859580D01*
X162541666Y-120859580D02*
X162494047Y-120907200D01*
X162494047Y-120907200D02*
X162398809Y-120954819D01*
X162398809Y-120954819D02*
X162303571Y-120954819D01*
X162303571Y-120954819D02*
X162208333Y-120907200D01*
X162208333Y-120907200D02*
X162160714Y-120859580D01*
X162160714Y-120859580D02*
X162113095Y-120764342D01*
X162113095Y-120764342D02*
X162065476Y-120573866D01*
X162065476Y-120573866D02*
X162065476Y-120335771D01*
X162065476Y-120335771D02*
X162113095Y-120145295D01*
X162113095Y-120145295D02*
X162160714Y-120050057D01*
X162160714Y-120050057D02*
X162208333Y-120002438D01*
X162208333Y-120002438D02*
X162303571Y-119954819D01*
X165682142Y-118229819D02*
X165348809Y-117753628D01*
X165110714Y-118229819D02*
X165110714Y-117229819D01*
X165110714Y-117229819D02*
X165491666Y-117229819D01*
X165491666Y-117229819D02*
X165586904Y-117277438D01*
X165586904Y-117277438D02*
X165634523Y-117325057D01*
X165634523Y-117325057D02*
X165682142Y-117420295D01*
X165682142Y-117420295D02*
X165682142Y-117563152D01*
X165682142Y-117563152D02*
X165634523Y-117658390D01*
X165634523Y-117658390D02*
X165586904Y-117706009D01*
X165586904Y-117706009D02*
X165491666Y-117753628D01*
X165491666Y-117753628D02*
X165110714Y-117753628D01*
X166634523Y-118229819D02*
X166063095Y-118229819D01*
X166348809Y-118229819D02*
X166348809Y-117229819D01*
X166348809Y-117229819D02*
X166253571Y-117372676D01*
X166253571Y-117372676D02*
X166158333Y-117467914D01*
X166158333Y-117467914D02*
X166063095Y-117515533D01*
X167205952Y-117658390D02*
X167110714Y-117610771D01*
X167110714Y-117610771D02*
X167063095Y-117563152D01*
X167063095Y-117563152D02*
X167015476Y-117467914D01*
X167015476Y-117467914D02*
X167015476Y-117420295D01*
X167015476Y-117420295D02*
X167063095Y-117325057D01*
X167063095Y-117325057D02*
X167110714Y-117277438D01*
X167110714Y-117277438D02*
X167205952Y-117229819D01*
X167205952Y-117229819D02*
X167396428Y-117229819D01*
X167396428Y-117229819D02*
X167491666Y-117277438D01*
X167491666Y-117277438D02*
X167539285Y-117325057D01*
X167539285Y-117325057D02*
X167586904Y-117420295D01*
X167586904Y-117420295D02*
X167586904Y-117467914D01*
X167586904Y-117467914D02*
X167539285Y-117563152D01*
X167539285Y-117563152D02*
X167491666Y-117610771D01*
X167491666Y-117610771D02*
X167396428Y-117658390D01*
X167396428Y-117658390D02*
X167205952Y-117658390D01*
X167205952Y-117658390D02*
X167110714Y-117706009D01*
X167110714Y-117706009D02*
X167063095Y-117753628D01*
X167063095Y-117753628D02*
X167015476Y-117848866D01*
X167015476Y-117848866D02*
X167015476Y-118039342D01*
X167015476Y-118039342D02*
X167063095Y-118134580D01*
X167063095Y-118134580D02*
X167110714Y-118182200D01*
X167110714Y-118182200D02*
X167205952Y-118229819D01*
X167205952Y-118229819D02*
X167396428Y-118229819D01*
X167396428Y-118229819D02*
X167491666Y-118182200D01*
X167491666Y-118182200D02*
X167539285Y-118134580D01*
X167539285Y-118134580D02*
X167586904Y-118039342D01*
X167586904Y-118039342D02*
X167586904Y-117848866D01*
X167586904Y-117848866D02*
X167539285Y-117753628D01*
X167539285Y-117753628D02*
X167491666Y-117706009D01*
X167491666Y-117706009D02*
X167396428Y-117658390D01*
X145449580Y-102276666D02*
X145497200Y-102324285D01*
X145497200Y-102324285D02*
X145544819Y-102467142D01*
X145544819Y-102467142D02*
X145544819Y-102562380D01*
X145544819Y-102562380D02*
X145497200Y-102705237D01*
X145497200Y-102705237D02*
X145401961Y-102800475D01*
X145401961Y-102800475D02*
X145306723Y-102848094D01*
X145306723Y-102848094D02*
X145116247Y-102895713D01*
X145116247Y-102895713D02*
X144973390Y-102895713D01*
X144973390Y-102895713D02*
X144782914Y-102848094D01*
X144782914Y-102848094D02*
X144687676Y-102800475D01*
X144687676Y-102800475D02*
X144592438Y-102705237D01*
X144592438Y-102705237D02*
X144544819Y-102562380D01*
X144544819Y-102562380D02*
X144544819Y-102467142D01*
X144544819Y-102467142D02*
X144592438Y-102324285D01*
X144592438Y-102324285D02*
X144640057Y-102276666D01*
X144544819Y-101419523D02*
X144544819Y-101609999D01*
X144544819Y-101609999D02*
X144592438Y-101705237D01*
X144592438Y-101705237D02*
X144640057Y-101752856D01*
X144640057Y-101752856D02*
X144782914Y-101848094D01*
X144782914Y-101848094D02*
X144973390Y-101895713D01*
X144973390Y-101895713D02*
X145354342Y-101895713D01*
X145354342Y-101895713D02*
X145449580Y-101848094D01*
X145449580Y-101848094D02*
X145497200Y-101800475D01*
X145497200Y-101800475D02*
X145544819Y-101705237D01*
X145544819Y-101705237D02*
X145544819Y-101514761D01*
X145544819Y-101514761D02*
X145497200Y-101419523D01*
X145497200Y-101419523D02*
X145449580Y-101371904D01*
X145449580Y-101371904D02*
X145354342Y-101324285D01*
X145354342Y-101324285D02*
X145116247Y-101324285D01*
X145116247Y-101324285D02*
X145021009Y-101371904D01*
X145021009Y-101371904D02*
X144973390Y-101419523D01*
X144973390Y-101419523D02*
X144925771Y-101514761D01*
X144925771Y-101514761D02*
X144925771Y-101705237D01*
X144925771Y-101705237D02*
X144973390Y-101800475D01*
X144973390Y-101800475D02*
X145021009Y-101848094D01*
X145021009Y-101848094D02*
X145116247Y-101895713D01*
X188616666Y-99054819D02*
X188616666Y-99769104D01*
X188616666Y-99769104D02*
X188569047Y-99911961D01*
X188569047Y-99911961D02*
X188473809Y-100007200D01*
X188473809Y-100007200D02*
X188330952Y-100054819D01*
X188330952Y-100054819D02*
X188235714Y-100054819D01*
X189045238Y-99150057D02*
X189092857Y-99102438D01*
X189092857Y-99102438D02*
X189188095Y-99054819D01*
X189188095Y-99054819D02*
X189426190Y-99054819D01*
X189426190Y-99054819D02*
X189521428Y-99102438D01*
X189521428Y-99102438D02*
X189569047Y-99150057D01*
X189569047Y-99150057D02*
X189616666Y-99245295D01*
X189616666Y-99245295D02*
X189616666Y-99340533D01*
X189616666Y-99340533D02*
X189569047Y-99483390D01*
X189569047Y-99483390D02*
X188997619Y-100054819D01*
X188997619Y-100054819D02*
X189616666Y-100054819D01*
X145683333Y-114159580D02*
X145635714Y-114207200D01*
X145635714Y-114207200D02*
X145492857Y-114254819D01*
X145492857Y-114254819D02*
X145397619Y-114254819D01*
X145397619Y-114254819D02*
X145254762Y-114207200D01*
X145254762Y-114207200D02*
X145159524Y-114111961D01*
X145159524Y-114111961D02*
X145111905Y-114016723D01*
X145111905Y-114016723D02*
X145064286Y-113826247D01*
X145064286Y-113826247D02*
X145064286Y-113683390D01*
X145064286Y-113683390D02*
X145111905Y-113492914D01*
X145111905Y-113492914D02*
X145159524Y-113397676D01*
X145159524Y-113397676D02*
X145254762Y-113302438D01*
X145254762Y-113302438D02*
X145397619Y-113254819D01*
X145397619Y-113254819D02*
X145492857Y-113254819D01*
X145492857Y-113254819D02*
X145635714Y-113302438D01*
X145635714Y-113302438D02*
X145683333Y-113350057D01*
X146540476Y-113588152D02*
X146540476Y-114254819D01*
X146302381Y-113207200D02*
X146064286Y-113921485D01*
X146064286Y-113921485D02*
X146683333Y-113921485D01*
X145509580Y-105471666D02*
X145557200Y-105519285D01*
X145557200Y-105519285D02*
X145604819Y-105662142D01*
X145604819Y-105662142D02*
X145604819Y-105757380D01*
X145604819Y-105757380D02*
X145557200Y-105900237D01*
X145557200Y-105900237D02*
X145461961Y-105995475D01*
X145461961Y-105995475D02*
X145366723Y-106043094D01*
X145366723Y-106043094D02*
X145176247Y-106090713D01*
X145176247Y-106090713D02*
X145033390Y-106090713D01*
X145033390Y-106090713D02*
X144842914Y-106043094D01*
X144842914Y-106043094D02*
X144747676Y-105995475D01*
X144747676Y-105995475D02*
X144652438Y-105900237D01*
X144652438Y-105900237D02*
X144604819Y-105757380D01*
X144604819Y-105757380D02*
X144604819Y-105662142D01*
X144604819Y-105662142D02*
X144652438Y-105519285D01*
X144652438Y-105519285D02*
X144700057Y-105471666D01*
X144700057Y-105090713D02*
X144652438Y-105043094D01*
X144652438Y-105043094D02*
X144604819Y-104947856D01*
X144604819Y-104947856D02*
X144604819Y-104709761D01*
X144604819Y-104709761D02*
X144652438Y-104614523D01*
X144652438Y-104614523D02*
X144700057Y-104566904D01*
X144700057Y-104566904D02*
X144795295Y-104519285D01*
X144795295Y-104519285D02*
X144890533Y-104519285D01*
X144890533Y-104519285D02*
X145033390Y-104566904D01*
X145033390Y-104566904D02*
X145604819Y-105138332D01*
X145604819Y-105138332D02*
X145604819Y-104519285D01*
X144463095Y-129329819D02*
X144463095Y-130139342D01*
X144463095Y-130139342D02*
X144510714Y-130234580D01*
X144510714Y-130234580D02*
X144558333Y-130282200D01*
X144558333Y-130282200D02*
X144653571Y-130329819D01*
X144653571Y-130329819D02*
X144844047Y-130329819D01*
X144844047Y-130329819D02*
X144939285Y-130282200D01*
X144939285Y-130282200D02*
X144986904Y-130234580D01*
X144986904Y-130234580D02*
X145034523Y-130139342D01*
X145034523Y-130139342D02*
X145034523Y-129329819D01*
X146034523Y-130329819D02*
X145463095Y-130329819D01*
X145748809Y-130329819D02*
X145748809Y-129329819D01*
X145748809Y-129329819D02*
X145653571Y-129472676D01*
X145653571Y-129472676D02*
X145558333Y-129567914D01*
X145558333Y-129567914D02*
X145463095Y-129615533D01*
X176966666Y-130204819D02*
X176966666Y-130919104D01*
X176966666Y-130919104D02*
X176919047Y-131061961D01*
X176919047Y-131061961D02*
X176823809Y-131157200D01*
X176823809Y-131157200D02*
X176680952Y-131204819D01*
X176680952Y-131204819D02*
X176585714Y-131204819D01*
X177347619Y-130204819D02*
X177966666Y-130204819D01*
X177966666Y-130204819D02*
X177633333Y-130585771D01*
X177633333Y-130585771D02*
X177776190Y-130585771D01*
X177776190Y-130585771D02*
X177871428Y-130633390D01*
X177871428Y-130633390D02*
X177919047Y-130681009D01*
X177919047Y-130681009D02*
X177966666Y-130776247D01*
X177966666Y-130776247D02*
X177966666Y-131014342D01*
X177966666Y-131014342D02*
X177919047Y-131109580D01*
X177919047Y-131109580D02*
X177871428Y-131157200D01*
X177871428Y-131157200D02*
X177776190Y-131204819D01*
X177776190Y-131204819D02*
X177490476Y-131204819D01*
X177490476Y-131204819D02*
X177395238Y-131157200D01*
X177395238Y-131157200D02*
X177347619Y-131109580D01*
X172857142Y-118029819D02*
X172523809Y-117553628D01*
X172285714Y-118029819D02*
X172285714Y-117029819D01*
X172285714Y-117029819D02*
X172666666Y-117029819D01*
X172666666Y-117029819D02*
X172761904Y-117077438D01*
X172761904Y-117077438D02*
X172809523Y-117125057D01*
X172809523Y-117125057D02*
X172857142Y-117220295D01*
X172857142Y-117220295D02*
X172857142Y-117363152D01*
X172857142Y-117363152D02*
X172809523Y-117458390D01*
X172809523Y-117458390D02*
X172761904Y-117506009D01*
X172761904Y-117506009D02*
X172666666Y-117553628D01*
X172666666Y-117553628D02*
X172285714Y-117553628D01*
X173809523Y-118029819D02*
X173238095Y-118029819D01*
X173523809Y-118029819D02*
X173523809Y-117029819D01*
X173523809Y-117029819D02*
X173428571Y-117172676D01*
X173428571Y-117172676D02*
X173333333Y-117267914D01*
X173333333Y-117267914D02*
X173238095Y-117315533D01*
X174714285Y-117029819D02*
X174238095Y-117029819D01*
X174238095Y-117029819D02*
X174190476Y-117506009D01*
X174190476Y-117506009D02*
X174238095Y-117458390D01*
X174238095Y-117458390D02*
X174333333Y-117410771D01*
X174333333Y-117410771D02*
X174571428Y-117410771D01*
X174571428Y-117410771D02*
X174666666Y-117458390D01*
X174666666Y-117458390D02*
X174714285Y-117506009D01*
X174714285Y-117506009D02*
X174761904Y-117601247D01*
X174761904Y-117601247D02*
X174761904Y-117839342D01*
X174761904Y-117839342D02*
X174714285Y-117934580D01*
X174714285Y-117934580D02*
X174666666Y-117982200D01*
X174666666Y-117982200D02*
X174571428Y-118029819D01*
X174571428Y-118029819D02*
X174333333Y-118029819D01*
X174333333Y-118029819D02*
X174238095Y-117982200D01*
X174238095Y-117982200D02*
X174190476Y-117934580D01*
X180725595Y-97154819D02*
X180725595Y-97964342D01*
X180725595Y-97964342D02*
X180773214Y-98059580D01*
X180773214Y-98059580D02*
X180820833Y-98107200D01*
X180820833Y-98107200D02*
X180916071Y-98154819D01*
X180916071Y-98154819D02*
X181106547Y-98154819D01*
X181106547Y-98154819D02*
X181201785Y-98107200D01*
X181201785Y-98107200D02*
X181249404Y-98059580D01*
X181249404Y-98059580D02*
X181297023Y-97964342D01*
X181297023Y-97964342D02*
X181297023Y-97154819D01*
X181725595Y-97250057D02*
X181773214Y-97202438D01*
X181773214Y-97202438D02*
X181868452Y-97154819D01*
X181868452Y-97154819D02*
X182106547Y-97154819D01*
X182106547Y-97154819D02*
X182201785Y-97202438D01*
X182201785Y-97202438D02*
X182249404Y-97250057D01*
X182249404Y-97250057D02*
X182297023Y-97345295D01*
X182297023Y-97345295D02*
X182297023Y-97440533D01*
X182297023Y-97440533D02*
X182249404Y-97583390D01*
X182249404Y-97583390D02*
X181677976Y-98154819D01*
X181677976Y-98154819D02*
X182297023Y-98154819D01*
X168809580Y-101142857D02*
X168857200Y-101190476D01*
X168857200Y-101190476D02*
X168904819Y-101333333D01*
X168904819Y-101333333D02*
X168904819Y-101428571D01*
X168904819Y-101428571D02*
X168857200Y-101571428D01*
X168857200Y-101571428D02*
X168761961Y-101666666D01*
X168761961Y-101666666D02*
X168666723Y-101714285D01*
X168666723Y-101714285D02*
X168476247Y-101761904D01*
X168476247Y-101761904D02*
X168333390Y-101761904D01*
X168333390Y-101761904D02*
X168142914Y-101714285D01*
X168142914Y-101714285D02*
X168047676Y-101666666D01*
X168047676Y-101666666D02*
X167952438Y-101571428D01*
X167952438Y-101571428D02*
X167904819Y-101428571D01*
X167904819Y-101428571D02*
X167904819Y-101333333D01*
X167904819Y-101333333D02*
X167952438Y-101190476D01*
X167952438Y-101190476D02*
X168000057Y-101142857D01*
X168904819Y-100190476D02*
X168904819Y-100761904D01*
X168904819Y-100476190D02*
X167904819Y-100476190D01*
X167904819Y-100476190D02*
X168047676Y-100571428D01*
X168047676Y-100571428D02*
X168142914Y-100666666D01*
X168142914Y-100666666D02*
X168190533Y-100761904D01*
X167904819Y-99571428D02*
X167904819Y-99476190D01*
X167904819Y-99476190D02*
X167952438Y-99380952D01*
X167952438Y-99380952D02*
X168000057Y-99333333D01*
X168000057Y-99333333D02*
X168095295Y-99285714D01*
X168095295Y-99285714D02*
X168285771Y-99238095D01*
X168285771Y-99238095D02*
X168523866Y-99238095D01*
X168523866Y-99238095D02*
X168714342Y-99285714D01*
X168714342Y-99285714D02*
X168809580Y-99333333D01*
X168809580Y-99333333D02*
X168857200Y-99380952D01*
X168857200Y-99380952D02*
X168904819Y-99476190D01*
X168904819Y-99476190D02*
X168904819Y-99571428D01*
X168904819Y-99571428D02*
X168857200Y-99666666D01*
X168857200Y-99666666D02*
X168809580Y-99714285D01*
X168809580Y-99714285D02*
X168714342Y-99761904D01*
X168714342Y-99761904D02*
X168523866Y-99809523D01*
X168523866Y-99809523D02*
X168285771Y-99809523D01*
X168285771Y-99809523D02*
X168095295Y-99761904D01*
X168095295Y-99761904D02*
X168000057Y-99714285D01*
X168000057Y-99714285D02*
X167952438Y-99666666D01*
X167952438Y-99666666D02*
X167904819Y-99571428D01*
X152079819Y-99591666D02*
X151603628Y-99924999D01*
X152079819Y-100163094D02*
X151079819Y-100163094D01*
X151079819Y-100163094D02*
X151079819Y-99782142D01*
X151079819Y-99782142D02*
X151127438Y-99686904D01*
X151127438Y-99686904D02*
X151175057Y-99639285D01*
X151175057Y-99639285D02*
X151270295Y-99591666D01*
X151270295Y-99591666D02*
X151413152Y-99591666D01*
X151413152Y-99591666D02*
X151508390Y-99639285D01*
X151508390Y-99639285D02*
X151556009Y-99686904D01*
X151556009Y-99686904D02*
X151603628Y-99782142D01*
X151603628Y-99782142D02*
X151603628Y-100163094D01*
X151413152Y-98734523D02*
X152079819Y-98734523D01*
X151032200Y-98972618D02*
X151746485Y-99210713D01*
X151746485Y-99210713D02*
X151746485Y-98591666D01*
X172411905Y-116204819D02*
X172411905Y-115204819D01*
X172411905Y-115204819D02*
X172650000Y-115204819D01*
X172650000Y-115204819D02*
X172792857Y-115252438D01*
X172792857Y-115252438D02*
X172888095Y-115347676D01*
X172888095Y-115347676D02*
X172935714Y-115442914D01*
X172935714Y-115442914D02*
X172983333Y-115633390D01*
X172983333Y-115633390D02*
X172983333Y-115776247D01*
X172983333Y-115776247D02*
X172935714Y-115966723D01*
X172935714Y-115966723D02*
X172888095Y-116061961D01*
X172888095Y-116061961D02*
X172792857Y-116157200D01*
X172792857Y-116157200D02*
X172650000Y-116204819D01*
X172650000Y-116204819D02*
X172411905Y-116204819D01*
X173316667Y-115204819D02*
X173935714Y-115204819D01*
X173935714Y-115204819D02*
X173602381Y-115585771D01*
X173602381Y-115585771D02*
X173745238Y-115585771D01*
X173745238Y-115585771D02*
X173840476Y-115633390D01*
X173840476Y-115633390D02*
X173888095Y-115681009D01*
X173888095Y-115681009D02*
X173935714Y-115776247D01*
X173935714Y-115776247D02*
X173935714Y-116014342D01*
X173935714Y-116014342D02*
X173888095Y-116109580D01*
X173888095Y-116109580D02*
X173840476Y-116157200D01*
X173840476Y-116157200D02*
X173745238Y-116204819D01*
X173745238Y-116204819D02*
X173459524Y-116204819D01*
X173459524Y-116204819D02*
X173364286Y-116157200D01*
X173364286Y-116157200D02*
X173316667Y-116109580D01*
X157782142Y-117399819D02*
X157448809Y-116923628D01*
X157210714Y-117399819D02*
X157210714Y-116399819D01*
X157210714Y-116399819D02*
X157591666Y-116399819D01*
X157591666Y-116399819D02*
X157686904Y-116447438D01*
X157686904Y-116447438D02*
X157734523Y-116495057D01*
X157734523Y-116495057D02*
X157782142Y-116590295D01*
X157782142Y-116590295D02*
X157782142Y-116733152D01*
X157782142Y-116733152D02*
X157734523Y-116828390D01*
X157734523Y-116828390D02*
X157686904Y-116876009D01*
X157686904Y-116876009D02*
X157591666Y-116923628D01*
X157591666Y-116923628D02*
X157210714Y-116923628D01*
X158734523Y-117399819D02*
X158163095Y-117399819D01*
X158448809Y-117399819D02*
X158448809Y-116399819D01*
X158448809Y-116399819D02*
X158353571Y-116542676D01*
X158353571Y-116542676D02*
X158258333Y-116637914D01*
X158258333Y-116637914D02*
X158163095Y-116685533D01*
X159210714Y-117399819D02*
X159401190Y-117399819D01*
X159401190Y-117399819D02*
X159496428Y-117352200D01*
X159496428Y-117352200D02*
X159544047Y-117304580D01*
X159544047Y-117304580D02*
X159639285Y-117161723D01*
X159639285Y-117161723D02*
X159686904Y-116971247D01*
X159686904Y-116971247D02*
X159686904Y-116590295D01*
X159686904Y-116590295D02*
X159639285Y-116495057D01*
X159639285Y-116495057D02*
X159591666Y-116447438D01*
X159591666Y-116447438D02*
X159496428Y-116399819D01*
X159496428Y-116399819D02*
X159305952Y-116399819D01*
X159305952Y-116399819D02*
X159210714Y-116447438D01*
X159210714Y-116447438D02*
X159163095Y-116495057D01*
X159163095Y-116495057D02*
X159115476Y-116590295D01*
X159115476Y-116590295D02*
X159115476Y-116828390D01*
X159115476Y-116828390D02*
X159163095Y-116923628D01*
X159163095Y-116923628D02*
X159210714Y-116971247D01*
X159210714Y-116971247D02*
X159305952Y-117018866D01*
X159305952Y-117018866D02*
X159496428Y-117018866D01*
X159496428Y-117018866D02*
X159591666Y-116971247D01*
X159591666Y-116971247D02*
X159639285Y-116923628D01*
X159639285Y-116923628D02*
X159686904Y-116828390D01*
X177483333Y-99254819D02*
X177150000Y-98778628D01*
X176911905Y-99254819D02*
X176911905Y-98254819D01*
X176911905Y-98254819D02*
X177292857Y-98254819D01*
X177292857Y-98254819D02*
X177388095Y-98302438D01*
X177388095Y-98302438D02*
X177435714Y-98350057D01*
X177435714Y-98350057D02*
X177483333Y-98445295D01*
X177483333Y-98445295D02*
X177483333Y-98588152D01*
X177483333Y-98588152D02*
X177435714Y-98683390D01*
X177435714Y-98683390D02*
X177388095Y-98731009D01*
X177388095Y-98731009D02*
X177292857Y-98778628D01*
X177292857Y-98778628D02*
X176911905Y-98778628D01*
X178435714Y-99254819D02*
X177864286Y-99254819D01*
X178150000Y-99254819D02*
X178150000Y-98254819D01*
X178150000Y-98254819D02*
X178054762Y-98397676D01*
X178054762Y-98397676D02*
X177959524Y-98492914D01*
X177959524Y-98492914D02*
X177864286Y-98540533D01*
D12*
G04 #@! TO.C,U4*
X145685000Y-118365000D02*
X145685000Y-116415000D01*
X145685000Y-118365000D02*
X145685000Y-120315000D01*
X150805000Y-118365000D02*
X150805000Y-116415000D01*
X150805000Y-118365000D02*
X150805000Y-120315000D01*
X151040000Y-115905000D02*
X150710000Y-115665000D01*
X151040000Y-115425000D01*
X151040000Y-115905000D01*
G36*
X151040000Y-115905000D02*
G01*
X150710000Y-115665000D01*
X151040000Y-115425000D01*
X151040000Y-115905000D01*
G37*
G04 #@! TO.C,C5*
X148329420Y-111515000D02*
X148610580Y-111515000D01*
X148329420Y-112535000D02*
X148610580Y-112535000D01*
G04 #@! TO.C,R14*
X149165000Y-125872936D02*
X149165000Y-126327064D01*
X150635000Y-125872936D02*
X150635000Y-126327064D01*
G04 #@! TO.C,Y1*
X147790000Y-100640000D02*
X147790000Y-106390000D01*
X151390000Y-100640000D02*
X147790000Y-100640000D01*
X151390000Y-106390000D02*
X151390000Y-100640000D01*
G04 #@! TO.C,R17*
X163187742Y-112927500D02*
X163662258Y-112927500D01*
X163187742Y-113972500D02*
X163662258Y-113972500D01*
G04 #@! TO.C,R16*
X170337258Y-112927500D02*
X169862742Y-112927500D01*
X170337258Y-113972500D02*
X169862742Y-113972500D01*
G04 #@! TO.C,C3*
X165840000Y-103584420D02*
X165840000Y-103865580D01*
X166860000Y-103584420D02*
X166860000Y-103865580D01*
D11*
G04 #@! TO.C,U3*
X156975000Y-96625000D02*
X156975000Y-97200000D01*
X156975000Y-96625000D02*
X162725000Y-96625000D01*
X156975000Y-106700000D02*
X156975000Y-107275000D01*
X156975000Y-107275000D02*
X162725000Y-107275000D01*
X162725000Y-96625000D02*
X162725000Y-97200000D01*
X162725000Y-106700000D02*
X162725000Y-107275000D01*
D12*
X156475000Y-97200000D02*
X156235000Y-96870000D01*
X156715000Y-96870000D01*
X156475000Y-97200000D01*
G36*
X156475000Y-97200000D02*
G01*
X156235000Y-96870000D01*
X156715000Y-96870000D01*
X156475000Y-97200000D01*
G37*
G04 #@! TO.C,D4*
X161715000Y-114550000D02*
X161715000Y-116550000D01*
X161715000Y-114550000D02*
X165725000Y-114550000D01*
X161715000Y-116550000D02*
X165725000Y-116550000D01*
G04 #@! TO.C,C1*
X152840000Y-96790580D02*
X152840000Y-96509420D01*
X153860000Y-96790580D02*
X153860000Y-96509420D01*
G04 #@! TO.C,J1*
X167605000Y-89523000D02*
X167605000Y-94723000D01*
X187985000Y-92123000D02*
X187985000Y-94723000D01*
X187985000Y-94723000D02*
X167605000Y-94723000D01*
X190585000Y-89523000D02*
X167605000Y-89523000D01*
X190585000Y-89523000D02*
X190585000Y-92123000D01*
X190585000Y-92123000D02*
X187985000Y-92123000D01*
X190585000Y-93393000D02*
X190585000Y-94723000D01*
X190585000Y-94723000D02*
X189255000Y-94723000D01*
G04 #@! TO.C,R2*
X146062742Y-131912500D02*
X146537258Y-131912500D01*
X146062742Y-132957500D02*
X146537258Y-132957500D01*
G04 #@! TO.C,D1*
X148775000Y-133210000D02*
X151060000Y-133210000D01*
X151060000Y-133210000D02*
X151060000Y-131740000D01*
X151060000Y-131740000D02*
X148775000Y-131740000D01*
G04 #@! TO.C,R21*
X180912742Y-102177500D02*
X181387258Y-102177500D01*
X180912742Y-103222500D02*
X181387258Y-103222500D01*
G04 #@! TO.C,R20*
X158662258Y-120547500D02*
X158187742Y-120547500D01*
X158662258Y-119502500D02*
X158187742Y-119502500D01*
G04 #@! TO.C,R18*
X163512258Y-117077500D02*
X163037742Y-117077500D01*
X163512258Y-118122500D02*
X163037742Y-118122500D01*
G04 #@! TO.C,C6*
X146070000Y-101934420D02*
X146070000Y-102215580D01*
X147090000Y-101934420D02*
X147090000Y-102215580D01*
G04 #@! TO.C,J2*
X185385000Y-95569000D02*
X185385000Y-98229000D01*
X187985000Y-95569000D02*
X185385000Y-95569000D01*
X187985000Y-95569000D02*
X187985000Y-98229000D01*
X187985000Y-98229000D02*
X185385000Y-98229000D01*
X190585000Y-96899000D02*
X190585000Y-98229000D01*
X190585000Y-98229000D02*
X189255000Y-98229000D01*
G04 #@! TO.C,C4*
X148304420Y-113115000D02*
X148585580Y-113115000D01*
X148304420Y-114135000D02*
X148585580Y-114135000D01*
G04 #@! TO.C,C2*
X146070000Y-105445580D02*
X146070000Y-105164420D01*
X147090000Y-105445580D02*
X147090000Y-105164420D01*
G04 #@! TO.C,U1*
X146770000Y-128940000D02*
X146530000Y-128610000D01*
X147010000Y-128610000D01*
X146770000Y-128940000D01*
G36*
X146770000Y-128940000D02*
G01*
X146530000Y-128610000D01*
X147010000Y-128610000D01*
X146770000Y-128940000D01*
G37*
X147150000Y-131210000D02*
X148550000Y-131210000D01*
X147140000Y-128890000D02*
X148550000Y-128890000D01*
G04 #@! TO.C,J3*
X152315000Y-129990000D02*
X152315000Y-143010000D01*
X152315000Y-143010000D02*
X163525000Y-143010000D01*
X153125000Y-129990000D02*
X152315000Y-129990000D01*
X154825000Y-126890000D02*
X154825000Y-125610000D01*
X155425000Y-126890000D02*
X155425000Y-125610000D01*
X157715000Y-130000000D02*
X156735000Y-130000000D01*
X159025000Y-126890000D02*
X159025000Y-125610000D01*
X159625000Y-126890000D02*
X159625000Y-125610000D01*
X161915000Y-130000000D02*
X160935000Y-130000000D01*
X163225000Y-126890000D02*
X163225000Y-125610000D01*
X163825000Y-126890000D02*
X163825000Y-125610000D01*
X166115000Y-130000000D02*
X165135000Y-130000000D01*
X167425000Y-126890000D02*
X167425000Y-125610000D01*
X168025000Y-126890000D02*
X168025000Y-125610000D01*
X170315000Y-130000000D02*
X169335000Y-130000000D01*
X171625000Y-126890000D02*
X171625000Y-125610000D01*
X172225000Y-126890000D02*
X172225000Y-125610000D01*
X173925000Y-129000000D02*
X174525000Y-128700000D01*
X173925000Y-129990000D02*
X174735000Y-129990000D01*
X174525000Y-128700000D02*
X174525000Y-129300000D01*
X174525000Y-129300000D02*
X173925000Y-129000000D01*
X174735000Y-129990000D02*
X174735000Y-143010000D01*
X174735000Y-143010000D02*
X163525000Y-143010000D01*
G04 #@! TO.C,R15*
X169862742Y-117077500D02*
X170337258Y-117077500D01*
X169862742Y-118122500D02*
X170337258Y-118122500D01*
G04 #@! TO.C,U2*
X181487500Y-98540000D02*
X180687500Y-98540000D01*
X181487500Y-98540000D02*
X182287500Y-98540000D01*
X181487500Y-101660000D02*
X180687500Y-101660000D01*
X181487500Y-101660000D02*
X182287500Y-101660000D01*
X180187500Y-98590000D02*
X179947500Y-98260000D01*
X180427500Y-98260000D01*
X180187500Y-98590000D01*
G36*
X180187500Y-98590000D02*
G01*
X179947500Y-98260000D01*
X180427500Y-98260000D01*
X180187500Y-98590000D01*
G37*
G04 #@! TO.C,C10*
X167615000Y-103638748D02*
X167615000Y-104161252D01*
X169085000Y-103638748D02*
X169085000Y-104161252D01*
G04 #@! TO.C,R4*
X151177500Y-96412742D02*
X151177500Y-96887258D01*
X152222500Y-96412742D02*
X152222500Y-96887258D01*
G04 #@! TO.C,D3*
X171660000Y-114550000D02*
X167650000Y-114550000D01*
X171660000Y-116550000D02*
X167650000Y-116550000D01*
X171660000Y-116550000D02*
X171660000Y-114550000D01*
G04 #@! TO.C,R19*
X158187742Y-117852500D02*
X158662258Y-117852500D01*
X158187742Y-118897500D02*
X158662258Y-118897500D01*
G04 #@! TO.C,R1*
X178937064Y-96405000D02*
X178482936Y-96405000D01*
X178937064Y-97875000D02*
X178482936Y-97875000D01*
G04 #@! TD*
M02*
