G04 #@! TF.GenerationSoftware,KiCad,Pcbnew,9.0.0-rc2-6-ga1fa0bdb0b*
G04 #@! TF.CreationDate,2025-02-11T11:14:17+02:00*
G04 #@! TF.ProjectId,can_link_r1,63616e5f-6c69-46e6-9b5f-72312e6b6963,Rev 4*
G04 #@! TF.SameCoordinates,Original*
G04 #@! TF.FileFunction,Legend,Bot*
G04 #@! TF.FilePolarity,Positive*
%FSLAX46Y46*%
G04 Gerber Fmt 4.6, Leading zero omitted, Abs format (unit mm)*
G04 Created by KiCad (PCBNEW 9.0.0-rc2-6-ga1fa0bdb0b) date 2025-02-11 11:14:17*
%MOMM*%
%LPD*%
G01*
G04 APERTURE LIST*
%ADD10C,0.150000*%
%ADD11C,0.300000*%
%ADD12C,0.120000*%
%ADD13C,0.000000*%
G04 APERTURE END LIST*
D10*
X172399999Y-120716033D02*
X172399999Y-120016033D01*
X172399999Y-120016033D02*
X171999999Y-120716033D01*
X171999999Y-120716033D02*
X171999999Y-120016033D01*
X171266666Y-120649366D02*
X171299999Y-120682700D01*
X171299999Y-120682700D02*
X171399999Y-120716033D01*
X171399999Y-120716033D02*
X171466666Y-120716033D01*
X171466666Y-120716033D02*
X171566666Y-120682700D01*
X171566666Y-120682700D02*
X171633333Y-120616033D01*
X171633333Y-120616033D02*
X171666666Y-120549366D01*
X171666666Y-120549366D02*
X171699999Y-120416033D01*
X171699999Y-120416033D02*
X171699999Y-120316033D01*
X171699999Y-120316033D02*
X171666666Y-120182700D01*
X171666666Y-120182700D02*
X171633333Y-120116033D01*
X171633333Y-120116033D02*
X171566666Y-120049366D01*
X171566666Y-120049366D02*
X171466666Y-120016033D01*
X171466666Y-120016033D02*
X171399999Y-120016033D01*
X171399999Y-120016033D02*
X171299999Y-120049366D01*
X171299999Y-120049366D02*
X171266666Y-120082700D01*
D11*
X187038346Y-76228013D02*
X187109774Y-76299442D01*
X187109774Y-76299442D02*
X187324060Y-76370870D01*
X187324060Y-76370870D02*
X187466917Y-76370870D01*
X187466917Y-76370870D02*
X187681203Y-76299442D01*
X187681203Y-76299442D02*
X187824060Y-76156584D01*
X187824060Y-76156584D02*
X187895489Y-76013727D01*
X187895489Y-76013727D02*
X187966917Y-75728013D01*
X187966917Y-75728013D02*
X187966917Y-75513727D01*
X187966917Y-75513727D02*
X187895489Y-75228013D01*
X187895489Y-75228013D02*
X187824060Y-75085156D01*
X187824060Y-75085156D02*
X187681203Y-74942299D01*
X187681203Y-74942299D02*
X187466917Y-74870870D01*
X187466917Y-74870870D02*
X187324060Y-74870870D01*
X187324060Y-74870870D02*
X187109774Y-74942299D01*
X187109774Y-74942299D02*
X187038346Y-75013727D01*
X186466917Y-75942299D02*
X185752632Y-75942299D01*
X186609774Y-76370870D02*
X186109774Y-74870870D01*
X186109774Y-74870870D02*
X185609774Y-76370870D01*
X185109775Y-76370870D02*
X185109775Y-74870870D01*
X185109775Y-74870870D02*
X184252632Y-76370870D01*
X184252632Y-76370870D02*
X184252632Y-74870870D01*
X182824060Y-76370870D02*
X183538346Y-76370870D01*
X183538346Y-76370870D02*
X183538346Y-74870870D01*
X182324060Y-76370870D02*
X182324060Y-75370870D01*
X182324060Y-74870870D02*
X182395488Y-74942299D01*
X182395488Y-74942299D02*
X182324060Y-75013727D01*
X182324060Y-75013727D02*
X182252631Y-74942299D01*
X182252631Y-74942299D02*
X182324060Y-74870870D01*
X182324060Y-74870870D02*
X182324060Y-75013727D01*
X181609774Y-75370870D02*
X181609774Y-76370870D01*
X181609774Y-75513727D02*
X181538345Y-75442299D01*
X181538345Y-75442299D02*
X181395488Y-75370870D01*
X181395488Y-75370870D02*
X181181202Y-75370870D01*
X181181202Y-75370870D02*
X181038345Y-75442299D01*
X181038345Y-75442299D02*
X180966917Y-75585156D01*
X180966917Y-75585156D02*
X180966917Y-76370870D01*
X180252631Y-76370870D02*
X180252631Y-74870870D01*
X180109774Y-75799442D02*
X179681202Y-76370870D01*
X179681202Y-75370870D02*
X180252631Y-75942299D01*
X177038345Y-76370870D02*
X177538345Y-75656584D01*
X177895488Y-76370870D02*
X177895488Y-74870870D01*
X177895488Y-74870870D02*
X177324059Y-74870870D01*
X177324059Y-74870870D02*
X177181202Y-74942299D01*
X177181202Y-74942299D02*
X177109773Y-75013727D01*
X177109773Y-75013727D02*
X177038345Y-75156584D01*
X177038345Y-75156584D02*
X177038345Y-75370870D01*
X177038345Y-75370870D02*
X177109773Y-75513727D01*
X177109773Y-75513727D02*
X177181202Y-75585156D01*
X177181202Y-75585156D02*
X177324059Y-75656584D01*
X177324059Y-75656584D02*
X177895488Y-75656584D01*
X176395488Y-75585156D02*
X175895488Y-75585156D01*
X175681202Y-76370870D02*
X176395488Y-76370870D01*
X176395488Y-76370870D02*
X176395488Y-74870870D01*
X176395488Y-74870870D02*
X175681202Y-74870870D01*
X175252630Y-74870870D02*
X174752630Y-76370870D01*
X174752630Y-76370870D02*
X174252630Y-74870870D01*
X172966916Y-76370870D02*
X173824059Y-76370870D01*
X173395488Y-76370870D02*
X173395488Y-74870870D01*
X173395488Y-74870870D02*
X173538345Y-75085156D01*
X173538345Y-75085156D02*
X173681202Y-75228013D01*
X173681202Y-75228013D02*
X173824059Y-75299442D01*
X187395489Y-78000072D02*
X187181203Y-78071500D01*
X187181203Y-78071500D02*
X187109774Y-78142929D01*
X187109774Y-78142929D02*
X187038346Y-78285786D01*
X187038346Y-78285786D02*
X187038346Y-78500072D01*
X187038346Y-78500072D02*
X187109774Y-78642929D01*
X187109774Y-78642929D02*
X187181203Y-78714358D01*
X187181203Y-78714358D02*
X187324060Y-78785786D01*
X187324060Y-78785786D02*
X187895489Y-78785786D01*
X187895489Y-78785786D02*
X187895489Y-77285786D01*
X187895489Y-77285786D02*
X187395489Y-77285786D01*
X187395489Y-77285786D02*
X187252632Y-77357215D01*
X187252632Y-77357215D02*
X187181203Y-77428643D01*
X187181203Y-77428643D02*
X187109774Y-77571500D01*
X187109774Y-77571500D02*
X187109774Y-77714358D01*
X187109774Y-77714358D02*
X187181203Y-77857215D01*
X187181203Y-77857215D02*
X187252632Y-77928643D01*
X187252632Y-77928643D02*
X187395489Y-78000072D01*
X187395489Y-78000072D02*
X187895489Y-78000072D01*
X186395489Y-78785786D02*
X186395489Y-77285786D01*
X185538346Y-78785786D02*
X186181203Y-77928643D01*
X185538346Y-77285786D02*
X186395489Y-78142929D01*
X183966917Y-77285786D02*
X183109775Y-77285786D01*
X183538346Y-78785786D02*
X183538346Y-77285786D01*
X182609775Y-78000072D02*
X182109775Y-78000072D01*
X181895489Y-78785786D02*
X182609775Y-78785786D01*
X182609775Y-78785786D02*
X182609775Y-77285786D01*
X182609775Y-77285786D02*
X181895489Y-77285786D01*
X180538346Y-78785786D02*
X181252632Y-78785786D01*
X181252632Y-78785786D02*
X181252632Y-77285786D01*
X180038346Y-78000072D02*
X179538346Y-78000072D01*
X179324060Y-78785786D02*
X180038346Y-78785786D01*
X180038346Y-78785786D02*
X180038346Y-77285786D01*
X180038346Y-77285786D02*
X179324060Y-77285786D01*
X178681203Y-78785786D02*
X178681203Y-77285786D01*
X178681203Y-77285786D02*
X178181203Y-78357215D01*
X178181203Y-78357215D02*
X177681203Y-77285786D01*
X177681203Y-77285786D02*
X177681203Y-78785786D01*
X177038345Y-78357215D02*
X176324060Y-78357215D01*
X177181202Y-78785786D02*
X176681202Y-77285786D01*
X176681202Y-77285786D02*
X176181202Y-78785786D01*
X175895488Y-77285786D02*
X175038346Y-77285786D01*
X175466917Y-78785786D02*
X175466917Y-77285786D01*
X174538346Y-78785786D02*
X174538346Y-77285786D01*
X172966917Y-78642929D02*
X173038345Y-78714358D01*
X173038345Y-78714358D02*
X173252631Y-78785786D01*
X173252631Y-78785786D02*
X173395488Y-78785786D01*
X173395488Y-78785786D02*
X173609774Y-78714358D01*
X173609774Y-78714358D02*
X173752631Y-78571500D01*
X173752631Y-78571500D02*
X173824060Y-78428643D01*
X173824060Y-78428643D02*
X173895488Y-78142929D01*
X173895488Y-78142929D02*
X173895488Y-77928643D01*
X173895488Y-77928643D02*
X173824060Y-77642929D01*
X173824060Y-77642929D02*
X173752631Y-77500072D01*
X173752631Y-77500072D02*
X173609774Y-77357215D01*
X173609774Y-77357215D02*
X173395488Y-77285786D01*
X173395488Y-77285786D02*
X173252631Y-77285786D01*
X173252631Y-77285786D02*
X173038345Y-77357215D01*
X173038345Y-77357215D02*
X172966917Y-77428643D01*
X172395488Y-78714358D02*
X172181203Y-78785786D01*
X172181203Y-78785786D02*
X171824060Y-78785786D01*
X171824060Y-78785786D02*
X171681203Y-78714358D01*
X171681203Y-78714358D02*
X171609774Y-78642929D01*
X171609774Y-78642929D02*
X171538345Y-78500072D01*
X171538345Y-78500072D02*
X171538345Y-78357215D01*
X171538345Y-78357215D02*
X171609774Y-78214358D01*
X171609774Y-78214358D02*
X171681203Y-78142929D01*
X171681203Y-78142929D02*
X171824060Y-78071500D01*
X171824060Y-78071500D02*
X172109774Y-78000072D01*
X172109774Y-78000072D02*
X172252631Y-77928643D01*
X172252631Y-77928643D02*
X172324060Y-77857215D01*
X172324060Y-77857215D02*
X172395488Y-77714358D01*
X172395488Y-77714358D02*
X172395488Y-77571500D01*
X172395488Y-77571500D02*
X172324060Y-77428643D01*
X172324060Y-77428643D02*
X172252631Y-77357215D01*
X172252631Y-77357215D02*
X172109774Y-77285786D01*
X172109774Y-77285786D02*
X171752631Y-77285786D01*
X171752631Y-77285786D02*
X171538345Y-77357215D01*
D10*
X159883332Y-131774366D02*
X159949999Y-131741033D01*
X159949999Y-131741033D02*
X160049999Y-131741033D01*
X160049999Y-131741033D02*
X160149999Y-131774366D01*
X160149999Y-131774366D02*
X160216666Y-131841033D01*
X160216666Y-131841033D02*
X160249999Y-131907700D01*
X160249999Y-131907700D02*
X160283332Y-132041033D01*
X160283332Y-132041033D02*
X160283332Y-132141033D01*
X160283332Y-132141033D02*
X160249999Y-132274366D01*
X160249999Y-132274366D02*
X160216666Y-132341033D01*
X160216666Y-132341033D02*
X160149999Y-132407700D01*
X160149999Y-132407700D02*
X160049999Y-132441033D01*
X160049999Y-132441033D02*
X159983332Y-132441033D01*
X159983332Y-132441033D02*
X159883332Y-132407700D01*
X159883332Y-132407700D02*
X159849999Y-132374366D01*
X159849999Y-132374366D02*
X159849999Y-132141033D01*
X159849999Y-132141033D02*
X159983332Y-132141033D01*
X159549999Y-132441033D02*
X159549999Y-131741033D01*
X159549999Y-131741033D02*
X159149999Y-132441033D01*
X159149999Y-132441033D02*
X159149999Y-131741033D01*
X158816666Y-132441033D02*
X158816666Y-131741033D01*
X158816666Y-131741033D02*
X158649999Y-131741033D01*
X158649999Y-131741033D02*
X158549999Y-131774366D01*
X158549999Y-131774366D02*
X158483333Y-131841033D01*
X158483333Y-131841033D02*
X158449999Y-131907700D01*
X158449999Y-131907700D02*
X158416666Y-132041033D01*
X158416666Y-132041033D02*
X158416666Y-132141033D01*
X158416666Y-132141033D02*
X158449999Y-132274366D01*
X158449999Y-132274366D02*
X158483333Y-132341033D01*
X158483333Y-132341033D02*
X158549999Y-132407700D01*
X158549999Y-132407700D02*
X158649999Y-132441033D01*
X158649999Y-132441033D02*
X158816666Y-132441033D01*
X156081666Y-120649366D02*
X156114999Y-120682700D01*
X156114999Y-120682700D02*
X156214999Y-120716033D01*
X156214999Y-120716033D02*
X156281666Y-120716033D01*
X156281666Y-120716033D02*
X156381666Y-120682700D01*
X156381666Y-120682700D02*
X156448333Y-120616033D01*
X156448333Y-120616033D02*
X156481666Y-120549366D01*
X156481666Y-120549366D02*
X156514999Y-120416033D01*
X156514999Y-120416033D02*
X156514999Y-120316033D01*
X156514999Y-120316033D02*
X156481666Y-120182700D01*
X156481666Y-120182700D02*
X156448333Y-120116033D01*
X156448333Y-120116033D02*
X156381666Y-120049366D01*
X156381666Y-120049366D02*
X156281666Y-120016033D01*
X156281666Y-120016033D02*
X156214999Y-120016033D01*
X156214999Y-120016033D02*
X156114999Y-120049366D01*
X156114999Y-120049366D02*
X156081666Y-120082700D01*
X155814999Y-120516033D02*
X155481666Y-120516033D01*
X155881666Y-120716033D02*
X155648333Y-120016033D01*
X155648333Y-120016033D02*
X155414999Y-120716033D01*
X155181666Y-120716033D02*
X155181666Y-120016033D01*
X155181666Y-120016033D02*
X154781666Y-120716033D01*
X154781666Y-120716033D02*
X154781666Y-120016033D01*
X154448333Y-120716033D02*
X154448333Y-120016033D01*
X154448333Y-120349366D02*
X154048333Y-120349366D01*
X154048333Y-120716033D02*
X154048333Y-120016033D01*
X156008333Y-132374366D02*
X156041666Y-132407700D01*
X156041666Y-132407700D02*
X156141666Y-132441033D01*
X156141666Y-132441033D02*
X156208333Y-132441033D01*
X156208333Y-132441033D02*
X156308333Y-132407700D01*
X156308333Y-132407700D02*
X156375000Y-132341033D01*
X156375000Y-132341033D02*
X156408333Y-132274366D01*
X156408333Y-132274366D02*
X156441666Y-132141033D01*
X156441666Y-132141033D02*
X156441666Y-132041033D01*
X156441666Y-132041033D02*
X156408333Y-131907700D01*
X156408333Y-131907700D02*
X156375000Y-131841033D01*
X156375000Y-131841033D02*
X156308333Y-131774366D01*
X156308333Y-131774366D02*
X156208333Y-131741033D01*
X156208333Y-131741033D02*
X156141666Y-131741033D01*
X156141666Y-131741033D02*
X156041666Y-131774366D01*
X156041666Y-131774366D02*
X156008333Y-131807700D01*
X155741666Y-132241033D02*
X155408333Y-132241033D01*
X155808333Y-132441033D02*
X155575000Y-131741033D01*
X155575000Y-131741033D02*
X155341666Y-132441033D01*
X155108333Y-132441033D02*
X155108333Y-131741033D01*
X155108333Y-131741033D02*
X154708333Y-132441033D01*
X154708333Y-132441033D02*
X154708333Y-131741033D01*
X154041667Y-132441033D02*
X154375000Y-132441033D01*
X154375000Y-132441033D02*
X154375000Y-131741033D01*
X164208332Y-131774366D02*
X164274999Y-131741033D01*
X164274999Y-131741033D02*
X164374999Y-131741033D01*
X164374999Y-131741033D02*
X164474999Y-131774366D01*
X164474999Y-131774366D02*
X164541666Y-131841033D01*
X164541666Y-131841033D02*
X164574999Y-131907700D01*
X164574999Y-131907700D02*
X164608332Y-132041033D01*
X164608332Y-132041033D02*
X164608332Y-132141033D01*
X164608332Y-132141033D02*
X164574999Y-132274366D01*
X164574999Y-132274366D02*
X164541666Y-132341033D01*
X164541666Y-132341033D02*
X164474999Y-132407700D01*
X164474999Y-132407700D02*
X164374999Y-132441033D01*
X164374999Y-132441033D02*
X164308332Y-132441033D01*
X164308332Y-132441033D02*
X164208332Y-132407700D01*
X164208332Y-132407700D02*
X164174999Y-132374366D01*
X164174999Y-132374366D02*
X164174999Y-132141033D01*
X164174999Y-132141033D02*
X164308332Y-132141033D01*
X163874999Y-132441033D02*
X163874999Y-131741033D01*
X163874999Y-131741033D02*
X163474999Y-132441033D01*
X163474999Y-132441033D02*
X163474999Y-131741033D01*
X163141666Y-132441033D02*
X163141666Y-131741033D01*
X163141666Y-131741033D02*
X162974999Y-131741033D01*
X162974999Y-131741033D02*
X162874999Y-131774366D01*
X162874999Y-131774366D02*
X162808333Y-131841033D01*
X162808333Y-131841033D02*
X162774999Y-131907700D01*
X162774999Y-131907700D02*
X162741666Y-132041033D01*
X162741666Y-132041033D02*
X162741666Y-132141033D01*
X162741666Y-132141033D02*
X162774999Y-132274366D01*
X162774999Y-132274366D02*
X162808333Y-132341033D01*
X162808333Y-132341033D02*
X162874999Y-132407700D01*
X162874999Y-132407700D02*
X162974999Y-132441033D01*
X162974999Y-132441033D02*
X163141666Y-132441033D01*
X160156666Y-120016033D02*
X159923333Y-120716033D01*
X159923333Y-120716033D02*
X159689999Y-120016033D01*
X159456666Y-120716033D02*
X159456666Y-120016033D01*
X159123333Y-120716033D02*
X159123333Y-120016033D01*
X159123333Y-120016033D02*
X158723333Y-120716033D01*
X158723333Y-120716033D02*
X158723333Y-120016033D01*
X164073333Y-120016033D02*
X163673333Y-120016033D01*
X163873333Y-120716033D02*
X163873333Y-120016033D01*
X163506667Y-120016033D02*
X163040000Y-120716033D01*
X163040000Y-120016033D02*
X163506667Y-120716033D01*
X172524999Y-132441033D02*
X172524999Y-131741033D01*
X172524999Y-131741033D02*
X172124999Y-132441033D01*
X172124999Y-132441033D02*
X172124999Y-131741033D01*
X171391666Y-132374366D02*
X171424999Y-132407700D01*
X171424999Y-132407700D02*
X171524999Y-132441033D01*
X171524999Y-132441033D02*
X171591666Y-132441033D01*
X171591666Y-132441033D02*
X171691666Y-132407700D01*
X171691666Y-132407700D02*
X171758333Y-132341033D01*
X171758333Y-132341033D02*
X171791666Y-132274366D01*
X171791666Y-132274366D02*
X171824999Y-132141033D01*
X171824999Y-132141033D02*
X171824999Y-132041033D01*
X171824999Y-132041033D02*
X171791666Y-131907700D01*
X171791666Y-131907700D02*
X171758333Y-131841033D01*
X171758333Y-131841033D02*
X171691666Y-131774366D01*
X171691666Y-131774366D02*
X171591666Y-131741033D01*
X171591666Y-131741033D02*
X171524999Y-131741033D01*
X171524999Y-131741033D02*
X171424999Y-131774366D01*
X171424999Y-131774366D02*
X171391666Y-131807700D01*
X168229999Y-132441033D02*
X168229999Y-131741033D01*
X168229999Y-131741033D02*
X167829999Y-132441033D01*
X167829999Y-132441033D02*
X167829999Y-131741033D01*
X167096666Y-132374366D02*
X167129999Y-132407700D01*
X167129999Y-132407700D02*
X167229999Y-132441033D01*
X167229999Y-132441033D02*
X167296666Y-132441033D01*
X167296666Y-132441033D02*
X167396666Y-132407700D01*
X167396666Y-132407700D02*
X167463333Y-132341033D01*
X167463333Y-132341033D02*
X167496666Y-132274366D01*
X167496666Y-132274366D02*
X167529999Y-132141033D01*
X167529999Y-132141033D02*
X167529999Y-132041033D01*
X167529999Y-132041033D02*
X167496666Y-131907700D01*
X167496666Y-131907700D02*
X167463333Y-131841033D01*
X167463333Y-131841033D02*
X167396666Y-131774366D01*
X167396666Y-131774366D02*
X167296666Y-131741033D01*
X167296666Y-131741033D02*
X167229999Y-131741033D01*
X167229999Y-131741033D02*
X167129999Y-131774366D01*
X167129999Y-131774366D02*
X167096666Y-131807700D01*
X167916666Y-120716033D02*
X168149999Y-120382700D01*
X168316666Y-120716033D02*
X168316666Y-120016033D01*
X168316666Y-120016033D02*
X168049999Y-120016033D01*
X168049999Y-120016033D02*
X167983333Y-120049366D01*
X167983333Y-120049366D02*
X167949999Y-120082700D01*
X167949999Y-120082700D02*
X167916666Y-120149366D01*
X167916666Y-120149366D02*
X167916666Y-120249366D01*
X167916666Y-120249366D02*
X167949999Y-120316033D01*
X167949999Y-120316033D02*
X167983333Y-120349366D01*
X167983333Y-120349366D02*
X168049999Y-120382700D01*
X168049999Y-120382700D02*
X168316666Y-120382700D01*
X167683333Y-120016033D02*
X167216666Y-120716033D01*
X167216666Y-120016033D02*
X167683333Y-120716033D01*
X171828094Y-102034819D02*
X171209047Y-102034819D01*
X171209047Y-102034819D02*
X171542380Y-102415771D01*
X171542380Y-102415771D02*
X171399523Y-102415771D01*
X171399523Y-102415771D02*
X171304285Y-102463390D01*
X171304285Y-102463390D02*
X171256666Y-102511009D01*
X171256666Y-102511009D02*
X171209047Y-102606247D01*
X171209047Y-102606247D02*
X171209047Y-102844342D01*
X171209047Y-102844342D02*
X171256666Y-102939580D01*
X171256666Y-102939580D02*
X171304285Y-102987200D01*
X171304285Y-102987200D02*
X171399523Y-103034819D01*
X171399523Y-103034819D02*
X171685237Y-103034819D01*
X171685237Y-103034819D02*
X171780475Y-102987200D01*
X171780475Y-102987200D02*
X171828094Y-102939580D01*
X170923332Y-102034819D02*
X170589999Y-103034819D01*
X170589999Y-103034819D02*
X170256666Y-102034819D01*
X170018570Y-102034819D02*
X169399523Y-102034819D01*
X169399523Y-102034819D02*
X169732856Y-102415771D01*
X169732856Y-102415771D02*
X169589999Y-102415771D01*
X169589999Y-102415771D02*
X169494761Y-102463390D01*
X169494761Y-102463390D02*
X169447142Y-102511009D01*
X169447142Y-102511009D02*
X169399523Y-102606247D01*
X169399523Y-102606247D02*
X169399523Y-102844342D01*
X169399523Y-102844342D02*
X169447142Y-102939580D01*
X169447142Y-102939580D02*
X169494761Y-102987200D01*
X169494761Y-102987200D02*
X169589999Y-103034819D01*
X169589999Y-103034819D02*
X169875713Y-103034819D01*
X169875713Y-103034819D02*
X169970951Y-102987200D01*
X169970951Y-102987200D02*
X170018570Y-102939580D01*
X150107619Y-122214580D02*
X150155238Y-122262200D01*
X150155238Y-122262200D02*
X150298095Y-122309819D01*
X150298095Y-122309819D02*
X150393333Y-122309819D01*
X150393333Y-122309819D02*
X150536190Y-122262200D01*
X150536190Y-122262200D02*
X150631428Y-122166961D01*
X150631428Y-122166961D02*
X150679047Y-122071723D01*
X150679047Y-122071723D02*
X150726666Y-121881247D01*
X150726666Y-121881247D02*
X150726666Y-121738390D01*
X150726666Y-121738390D02*
X150679047Y-121547914D01*
X150679047Y-121547914D02*
X150631428Y-121452676D01*
X150631428Y-121452676D02*
X150536190Y-121357438D01*
X150536190Y-121357438D02*
X150393333Y-121309819D01*
X150393333Y-121309819D02*
X150298095Y-121309819D01*
X150298095Y-121309819D02*
X150155238Y-121357438D01*
X150155238Y-121357438D02*
X150107619Y-121405057D01*
X149726666Y-122024104D02*
X149250476Y-122024104D01*
X149821904Y-122309819D02*
X149488571Y-121309819D01*
X149488571Y-121309819D02*
X149155238Y-122309819D01*
X148821904Y-122309819D02*
X148821904Y-121309819D01*
X148821904Y-121309819D02*
X148250476Y-122309819D01*
X148250476Y-122309819D02*
X148250476Y-121309819D01*
X148012381Y-122405057D02*
X147250476Y-122405057D01*
X147012380Y-122309819D02*
X147012380Y-121309819D01*
X147012380Y-121786009D02*
X146440952Y-121786009D01*
X146440952Y-122309819D02*
X146440952Y-121309819D01*
X153083333Y-84104819D02*
X153083333Y-84819104D01*
X153083333Y-84819104D02*
X153130952Y-84961961D01*
X153130952Y-84961961D02*
X153226190Y-85057200D01*
X153226190Y-85057200D02*
X153369047Y-85104819D01*
X153369047Y-85104819D02*
X153464285Y-85104819D01*
X152178571Y-84438152D02*
X152178571Y-85104819D01*
X152416666Y-84057200D02*
X152654761Y-84771485D01*
X152654761Y-84771485D02*
X152035714Y-84771485D01*
X141861904Y-87922438D02*
X141957142Y-87874819D01*
X141957142Y-87874819D02*
X142099999Y-87874819D01*
X142099999Y-87874819D02*
X142242856Y-87922438D01*
X142242856Y-87922438D02*
X142338094Y-88017676D01*
X142338094Y-88017676D02*
X142385713Y-88112914D01*
X142385713Y-88112914D02*
X142433332Y-88303390D01*
X142433332Y-88303390D02*
X142433332Y-88446247D01*
X142433332Y-88446247D02*
X142385713Y-88636723D01*
X142385713Y-88636723D02*
X142338094Y-88731961D01*
X142338094Y-88731961D02*
X142242856Y-88827200D01*
X142242856Y-88827200D02*
X142099999Y-88874819D01*
X142099999Y-88874819D02*
X142004761Y-88874819D01*
X142004761Y-88874819D02*
X141861904Y-88827200D01*
X141861904Y-88827200D02*
X141814285Y-88779580D01*
X141814285Y-88779580D02*
X141814285Y-88446247D01*
X141814285Y-88446247D02*
X142004761Y-88446247D01*
X141385713Y-88874819D02*
X141385713Y-87874819D01*
X141385713Y-87874819D02*
X140814285Y-88874819D01*
X140814285Y-88874819D02*
X140814285Y-87874819D01*
X140338094Y-88874819D02*
X140338094Y-87874819D01*
X140338094Y-87874819D02*
X140099999Y-87874819D01*
X140099999Y-87874819D02*
X139957142Y-87922438D01*
X139957142Y-87922438D02*
X139861904Y-88017676D01*
X139861904Y-88017676D02*
X139814285Y-88112914D01*
X139814285Y-88112914D02*
X139766666Y-88303390D01*
X139766666Y-88303390D02*
X139766666Y-88446247D01*
X139766666Y-88446247D02*
X139814285Y-88636723D01*
X139814285Y-88636723D02*
X139861904Y-88731961D01*
X139861904Y-88731961D02*
X139957142Y-88827200D01*
X139957142Y-88827200D02*
X140099999Y-88874819D01*
X140099999Y-88874819D02*
X140338094Y-88874819D01*
X142255000Y-110094580D02*
X142302619Y-110142200D01*
X142302619Y-110142200D02*
X142445476Y-110189819D01*
X142445476Y-110189819D02*
X142540714Y-110189819D01*
X142540714Y-110189819D02*
X142683571Y-110142200D01*
X142683571Y-110142200D02*
X142778809Y-110046961D01*
X142778809Y-110046961D02*
X142826428Y-109951723D01*
X142826428Y-109951723D02*
X142874047Y-109761247D01*
X142874047Y-109761247D02*
X142874047Y-109618390D01*
X142874047Y-109618390D02*
X142826428Y-109427914D01*
X142826428Y-109427914D02*
X142778809Y-109332676D01*
X142778809Y-109332676D02*
X142683571Y-109237438D01*
X142683571Y-109237438D02*
X142540714Y-109189819D01*
X142540714Y-109189819D02*
X142445476Y-109189819D01*
X142445476Y-109189819D02*
X142302619Y-109237438D01*
X142302619Y-109237438D02*
X142255000Y-109285057D01*
X141874047Y-109904104D02*
X141397857Y-109904104D01*
X141969285Y-110189819D02*
X141635952Y-109189819D01*
X141635952Y-109189819D02*
X141302619Y-110189819D01*
X140969285Y-110189819D02*
X140969285Y-109189819D01*
X140969285Y-109189819D02*
X140397857Y-110189819D01*
X140397857Y-110189819D02*
X140397857Y-109189819D01*
X140159762Y-110285057D02*
X139397857Y-110285057D01*
X138588333Y-110189819D02*
X138921666Y-109713628D01*
X139159761Y-110189819D02*
X139159761Y-109189819D01*
X139159761Y-109189819D02*
X138778809Y-109189819D01*
X138778809Y-109189819D02*
X138683571Y-109237438D01*
X138683571Y-109237438D02*
X138635952Y-109285057D01*
X138635952Y-109285057D02*
X138588333Y-109380295D01*
X138588333Y-109380295D02*
X138588333Y-109523152D01*
X138588333Y-109523152D02*
X138635952Y-109618390D01*
X138635952Y-109618390D02*
X138683571Y-109666009D01*
X138683571Y-109666009D02*
X138778809Y-109713628D01*
X138778809Y-109713628D02*
X139159761Y-109713628D01*
X138254999Y-109189819D02*
X137588333Y-110189819D01*
X137588333Y-109189819D02*
X138254999Y-110189819D01*
X185951904Y-130712438D02*
X186047142Y-130664819D01*
X186047142Y-130664819D02*
X186189999Y-130664819D01*
X186189999Y-130664819D02*
X186332856Y-130712438D01*
X186332856Y-130712438D02*
X186428094Y-130807676D01*
X186428094Y-130807676D02*
X186475713Y-130902914D01*
X186475713Y-130902914D02*
X186523332Y-131093390D01*
X186523332Y-131093390D02*
X186523332Y-131236247D01*
X186523332Y-131236247D02*
X186475713Y-131426723D01*
X186475713Y-131426723D02*
X186428094Y-131521961D01*
X186428094Y-131521961D02*
X186332856Y-131617200D01*
X186332856Y-131617200D02*
X186189999Y-131664819D01*
X186189999Y-131664819D02*
X186094761Y-131664819D01*
X186094761Y-131664819D02*
X185951904Y-131617200D01*
X185951904Y-131617200D02*
X185904285Y-131569580D01*
X185904285Y-131569580D02*
X185904285Y-131236247D01*
X185904285Y-131236247D02*
X186094761Y-131236247D01*
X185475713Y-131664819D02*
X185475713Y-130664819D01*
X185475713Y-130664819D02*
X184904285Y-131664819D01*
X184904285Y-131664819D02*
X184904285Y-130664819D01*
X184428094Y-131664819D02*
X184428094Y-130664819D01*
X184428094Y-130664819D02*
X184189999Y-130664819D01*
X184189999Y-130664819D02*
X184047142Y-130712438D01*
X184047142Y-130712438D02*
X183951904Y-130807676D01*
X183951904Y-130807676D02*
X183904285Y-130902914D01*
X183904285Y-130902914D02*
X183856666Y-131093390D01*
X183856666Y-131093390D02*
X183856666Y-131236247D01*
X183856666Y-131236247D02*
X183904285Y-131426723D01*
X183904285Y-131426723D02*
X183951904Y-131521961D01*
X183951904Y-131521961D02*
X184047142Y-131617200D01*
X184047142Y-131617200D02*
X184189999Y-131664819D01*
X184189999Y-131664819D02*
X184428094Y-131664819D01*
X152430952Y-116909580D02*
X152478571Y-116957200D01*
X152478571Y-116957200D02*
X152621428Y-117004819D01*
X152621428Y-117004819D02*
X152716666Y-117004819D01*
X152716666Y-117004819D02*
X152859523Y-116957200D01*
X152859523Y-116957200D02*
X152954761Y-116861961D01*
X152954761Y-116861961D02*
X153002380Y-116766723D01*
X153002380Y-116766723D02*
X153049999Y-116576247D01*
X153049999Y-116576247D02*
X153049999Y-116433390D01*
X153049999Y-116433390D02*
X153002380Y-116242914D01*
X153002380Y-116242914D02*
X152954761Y-116147676D01*
X152954761Y-116147676D02*
X152859523Y-116052438D01*
X152859523Y-116052438D02*
X152716666Y-116004819D01*
X152716666Y-116004819D02*
X152621428Y-116004819D01*
X152621428Y-116004819D02*
X152478571Y-116052438D01*
X152478571Y-116052438D02*
X152430952Y-116100057D01*
X152049999Y-116719104D02*
X151573809Y-116719104D01*
X152145237Y-117004819D02*
X151811904Y-116004819D01*
X151811904Y-116004819D02*
X151478571Y-117004819D01*
X151145237Y-117004819D02*
X151145237Y-116004819D01*
X151145237Y-116004819D02*
X150573809Y-117004819D01*
X150573809Y-117004819D02*
X150573809Y-116004819D01*
X150335714Y-117100057D02*
X149573809Y-117100057D01*
X149478570Y-116004819D02*
X148907142Y-116004819D01*
X149192856Y-117004819D02*
X149192856Y-116004819D01*
X148669046Y-116004819D02*
X148002380Y-117004819D01*
X148002380Y-116004819D02*
X148669046Y-117004819D01*
X149838571Y-130059580D02*
X149886190Y-130107200D01*
X149886190Y-130107200D02*
X150029047Y-130154819D01*
X150029047Y-130154819D02*
X150124285Y-130154819D01*
X150124285Y-130154819D02*
X150267142Y-130107200D01*
X150267142Y-130107200D02*
X150362380Y-130011961D01*
X150362380Y-130011961D02*
X150409999Y-129916723D01*
X150409999Y-129916723D02*
X150457618Y-129726247D01*
X150457618Y-129726247D02*
X150457618Y-129583390D01*
X150457618Y-129583390D02*
X150409999Y-129392914D01*
X150409999Y-129392914D02*
X150362380Y-129297676D01*
X150362380Y-129297676D02*
X150267142Y-129202438D01*
X150267142Y-129202438D02*
X150124285Y-129154819D01*
X150124285Y-129154819D02*
X150029047Y-129154819D01*
X150029047Y-129154819D02*
X149886190Y-129202438D01*
X149886190Y-129202438D02*
X149838571Y-129250057D01*
X149457618Y-129869104D02*
X148981428Y-129869104D01*
X149552856Y-130154819D02*
X149219523Y-129154819D01*
X149219523Y-129154819D02*
X148886190Y-130154819D01*
X148552856Y-130154819D02*
X148552856Y-129154819D01*
X148552856Y-129154819D02*
X147981428Y-130154819D01*
X147981428Y-130154819D02*
X147981428Y-129154819D01*
X147743333Y-130250057D02*
X146981428Y-130250057D01*
X146267142Y-130154819D02*
X146743332Y-130154819D01*
X146743332Y-130154819D02*
X146743332Y-129154819D01*
D12*
G04 #@! TO.C,TP1*
X171600000Y-100380000D02*
G75*
G02*
X169200000Y-100380000I-1200000J0D01*
G01*
X169200000Y-100380000D02*
G75*
G02*
X171600000Y-100380000I1200000J0D01*
G01*
G04 #@! TO.C,TP4*
X153250000Y-123475000D02*
G75*
G02*
X150850000Y-123475000I-1200000J0D01*
G01*
X150850000Y-123475000D02*
G75*
G02*
X153250000Y-123475000I1200000J0D01*
G01*
G04 #@! TO.C,J4*
X154095000Y-81895000D02*
X154095000Y-83225000D01*
X154095000Y-84495000D02*
X154095000Y-87095000D01*
X154095000Y-87095000D02*
X161835000Y-87095000D01*
X155425000Y-81895000D02*
X154095000Y-81895000D01*
X156695000Y-81895000D02*
X156695000Y-84495000D01*
X156695000Y-81895000D02*
X161835000Y-81895000D01*
X156695000Y-84495000D02*
X154095000Y-84495000D01*
X161835000Y-81895000D02*
X161835000Y-87095000D01*
D13*
G04 #@! TO.C,G\u002A\u002A\u002A*
G36*
X139523283Y-113866841D02*
G01*
X139863832Y-114207087D01*
X139863832Y-116470646D01*
X139863853Y-116624405D01*
X139863987Y-116890779D01*
X139864241Y-117146792D01*
X139864606Y-117390538D01*
X139865074Y-117620114D01*
X139865640Y-117833612D01*
X139866294Y-118029129D01*
X139867030Y-118204758D01*
X139867840Y-118358595D01*
X139868716Y-118488734D01*
X139869652Y-118593270D01*
X139870639Y-118670297D01*
X139871670Y-118717911D01*
X139872737Y-118734205D01*
X139873165Y-118734077D01*
X139890649Y-118721982D01*
X139930286Y-118692056D01*
X139988676Y-118646942D01*
X140062418Y-118589283D01*
X140148112Y-118521723D01*
X140242358Y-118446904D01*
X140326216Y-118380124D01*
X140432767Y-118295299D01*
X140536009Y-118213134D01*
X140630274Y-118138142D01*
X140709893Y-118074832D01*
X140769195Y-118027714D01*
X140774641Y-118023390D01*
X140839430Y-117971901D01*
X140895894Y-117926945D01*
X140938129Y-117893227D01*
X140960235Y-117875451D01*
X140967932Y-117869201D01*
X141003714Y-117840452D01*
X141062870Y-117793170D01*
X141145845Y-117727003D01*
X141253079Y-117641599D01*
X141385015Y-117536605D01*
X141542097Y-117411668D01*
X141724765Y-117266436D01*
X142160586Y-116919989D01*
X142200378Y-116967417D01*
X142218211Y-116988762D01*
X142304633Y-117094873D01*
X142382207Y-117194479D01*
X142448778Y-117284483D01*
X142502189Y-117361790D01*
X142540283Y-117423302D01*
X142560904Y-117465923D01*
X142561895Y-117486556D01*
X142560604Y-117487667D01*
X142539395Y-117504900D01*
X142496247Y-117539485D01*
X142434592Y-117588683D01*
X142357864Y-117649758D01*
X142269497Y-117719974D01*
X142172923Y-117796593D01*
X142102394Y-117852522D01*
X141975716Y-117953027D01*
X141842292Y-118058938D01*
X141710320Y-118163744D01*
X141587996Y-118260936D01*
X141483519Y-118344008D01*
X141466495Y-118357550D01*
X141377042Y-118428710D01*
X141267655Y-118515727D01*
X141143279Y-118614669D01*
X141008858Y-118721600D01*
X140869336Y-118832589D01*
X140729658Y-118943703D01*
X140594768Y-119051007D01*
X140519700Y-119110715D01*
X140400368Y-119205599D01*
X140288620Y-119294415D01*
X140187525Y-119374726D01*
X140100151Y-119444094D01*
X140029568Y-119500084D01*
X139978843Y-119540259D01*
X139951046Y-119562181D01*
X139923464Y-119584815D01*
X139892494Y-119613806D01*
X139880445Y-119630525D01*
X139882399Y-119633971D01*
X139903683Y-119655360D01*
X139944691Y-119691622D01*
X140000786Y-119738735D01*
X140067331Y-119792677D01*
X140089139Y-119810070D01*
X140207105Y-119904111D01*
X140343302Y-120012622D01*
X140494327Y-120132898D01*
X140656781Y-120262232D01*
X140827261Y-120397921D01*
X141002367Y-120537257D01*
X141178698Y-120677536D01*
X141352851Y-120816051D01*
X141521426Y-120950098D01*
X141681021Y-121076970D01*
X141828236Y-121193962D01*
X141959669Y-121298368D01*
X142071918Y-121387483D01*
X142161583Y-121458600D01*
X142212538Y-121499081D01*
X142308864Y-121576149D01*
X142394730Y-121645562D01*
X142467005Y-121704746D01*
X142522557Y-121751125D01*
X142558251Y-121782124D01*
X142570957Y-121795167D01*
X142564949Y-121811008D01*
X142541283Y-121850459D01*
X142502767Y-121907463D01*
X142452720Y-121977400D01*
X142394464Y-122055649D01*
X142331318Y-122137592D01*
X142266605Y-122218607D01*
X142242436Y-122247981D01*
X142202808Y-122294775D01*
X142173947Y-122327028D01*
X142160855Y-122339045D01*
X142151882Y-122333017D01*
X142119557Y-122308629D01*
X142066673Y-122267728D01*
X141996273Y-122212693D01*
X141911400Y-122145907D01*
X141815097Y-122069751D01*
X141710408Y-121986605D01*
X141599245Y-121898137D01*
X141349360Y-121699273D01*
X141123988Y-121519926D01*
X140922082Y-121359262D01*
X140742596Y-121216450D01*
X140584484Y-121090658D01*
X140446699Y-120981053D01*
X140328196Y-120886804D01*
X140227929Y-120807078D01*
X140144851Y-120741044D01*
X140077915Y-120687869D01*
X140026077Y-120646721D01*
X139988289Y-120616769D01*
X139963505Y-120597179D01*
X139872139Y-120525155D01*
X139863549Y-122339045D01*
X139182734Y-122339045D01*
X139182734Y-113526596D01*
X139523283Y-113866841D01*
G37*
G36*
X135529075Y-116452557D02*
G01*
X135582303Y-116504917D01*
X135466299Y-116643596D01*
X135320632Y-116826211D01*
X135099663Y-117143094D01*
X134908391Y-117473230D01*
X134746252Y-117817877D01*
X134612680Y-118178290D01*
X134507110Y-118555728D01*
X134428977Y-118951446D01*
X134426526Y-118966945D01*
X134414873Y-119046037D01*
X134406013Y-119119651D01*
X134399585Y-119194234D01*
X134395230Y-119276237D01*
X134392587Y-119372110D01*
X134391296Y-119488302D01*
X134390997Y-119631262D01*
X134391677Y-119770242D01*
X134394893Y-119930853D01*
X134401522Y-120071511D01*
X134412413Y-120199748D01*
X134428410Y-120323096D01*
X134450362Y-120449088D01*
X134479114Y-120585256D01*
X134515513Y-120739130D01*
X134604266Y-121056876D01*
X134732060Y-121411405D01*
X134886878Y-121749331D01*
X135070293Y-122074030D01*
X135283878Y-122388882D01*
X135420460Y-122565601D01*
X135680070Y-122860155D01*
X135960291Y-123129021D01*
X136260166Y-123371633D01*
X136578739Y-123587425D01*
X136915052Y-123775830D01*
X137268149Y-123936282D01*
X137637073Y-124068215D01*
X138020867Y-124171062D01*
X138418574Y-124244257D01*
X138455198Y-124249064D01*
X138582890Y-124260938D01*
X138732768Y-124269225D01*
X138896942Y-124273929D01*
X139067525Y-124275053D01*
X139236629Y-124272598D01*
X139396365Y-124266569D01*
X139538845Y-124256968D01*
X139656180Y-124243798D01*
X139960264Y-124190136D01*
X140347969Y-124093461D01*
X140720368Y-123967470D01*
X141077067Y-123812356D01*
X141417677Y-123628317D01*
X141741804Y-123415548D01*
X142049057Y-123174243D01*
X142339045Y-122904600D01*
X142596802Y-122622727D01*
X142835152Y-122314648D01*
X143045240Y-121990052D01*
X143226482Y-121650300D01*
X143378296Y-121296754D01*
X143500099Y-120930776D01*
X143591309Y-120553726D01*
X143651342Y-120166968D01*
X143679616Y-119771862D01*
X143679726Y-119444129D01*
X143656268Y-119105588D01*
X143607180Y-118774853D01*
X143531270Y-118444043D01*
X143427344Y-118105278D01*
X143382760Y-117981755D01*
X143265600Y-117701599D01*
X143128777Y-117425343D01*
X142976348Y-117160272D01*
X142812371Y-116913674D01*
X142640902Y-116692836D01*
X142565242Y-116603396D01*
X142619581Y-116554844D01*
X142621070Y-116553512D01*
X142645139Y-116532638D01*
X142664873Y-116521312D01*
X142684399Y-116522309D01*
X142707846Y-116538405D01*
X142739342Y-116572374D01*
X142783015Y-116626991D01*
X142842993Y-116705032D01*
X142916876Y-116803868D01*
X143135179Y-117129989D01*
X143323989Y-117469146D01*
X143483876Y-117822702D01*
X143615412Y-118192019D01*
X143719164Y-118578460D01*
X143795704Y-118983388D01*
X143797659Y-118996785D01*
X143809346Y-119105828D01*
X143818042Y-119239739D01*
X143823747Y-119391345D01*
X143826465Y-119553472D01*
X143826197Y-119718946D01*
X143822946Y-119880593D01*
X143816714Y-120031238D01*
X143807503Y-120163709D01*
X143795315Y-120270831D01*
X143726368Y-120645569D01*
X143623183Y-121039546D01*
X143491058Y-121417594D01*
X143330242Y-121779261D01*
X143140988Y-122124094D01*
X142923545Y-122451638D01*
X142678165Y-122761442D01*
X142405098Y-123053052D01*
X142104596Y-123326015D01*
X141960841Y-123441501D01*
X141649881Y-123660695D01*
X141319430Y-123855543D01*
X140973018Y-124024572D01*
X140614175Y-124166310D01*
X140246431Y-124279285D01*
X139873318Y-124362023D01*
X139498365Y-124413053D01*
X139438518Y-124417794D01*
X139308221Y-124424473D01*
X139161605Y-124428347D01*
X139008554Y-124429390D01*
X138858950Y-124427577D01*
X138722676Y-124422885D01*
X138609614Y-124415287D01*
X138324580Y-124380696D01*
X137934535Y-124305755D01*
X137555691Y-124200738D01*
X137189509Y-124066652D01*
X136837451Y-123904507D01*
X136500977Y-123715313D01*
X136181548Y-123500077D01*
X135880624Y-123259808D01*
X135599667Y-122995516D01*
X135340136Y-122708210D01*
X135103494Y-122398898D01*
X134891200Y-122068589D01*
X134704715Y-121718292D01*
X134626259Y-121547063D01*
X134483745Y-121179853D01*
X134373428Y-120806006D01*
X134295004Y-120424183D01*
X134248172Y-120033048D01*
X134232628Y-119631262D01*
X134245930Y-119264756D01*
X134291216Y-118868536D01*
X134368323Y-118481215D01*
X134476946Y-118103688D01*
X134616785Y-117736848D01*
X134787536Y-117381593D01*
X134988896Y-117038816D01*
X135220563Y-116709412D01*
X135265346Y-116651597D01*
X135321367Y-116580945D01*
X135371738Y-116519103D01*
X135409311Y-116474951D01*
X135475848Y-116400196D01*
X135529075Y-116452557D01*
G37*
G36*
X139000000Y-122339045D02*
G01*
X138302289Y-122339045D01*
X138302289Y-121433682D01*
X138302240Y-121334418D01*
X138301934Y-121170092D01*
X138301371Y-121017901D01*
X138300578Y-120880859D01*
X138299583Y-120761979D01*
X138298413Y-120664272D01*
X138297094Y-120590751D01*
X138295654Y-120544429D01*
X138294121Y-120528319D01*
X138285966Y-120533809D01*
X138254253Y-120557770D01*
X138201189Y-120598842D01*
X138129430Y-120654943D01*
X138041630Y-120723986D01*
X137940446Y-120803889D01*
X137828531Y-120892568D01*
X137708542Y-120987937D01*
X137669238Y-121019222D01*
X137533817Y-121127007D01*
X137396254Y-121236486D01*
X137261237Y-121343929D01*
X137133455Y-121445603D01*
X137017599Y-121537778D01*
X136918357Y-121616722D01*
X136840419Y-121678703D01*
X136804107Y-121707591D01*
X136719768Y-121774808D01*
X136644078Y-121835299D01*
X136581379Y-121885581D01*
X136536017Y-121922175D01*
X136512337Y-121941598D01*
X136499596Y-121952367D01*
X136425829Y-122013005D01*
X136346347Y-122075950D01*
X136265657Y-122137889D01*
X136188268Y-122195510D01*
X136118689Y-122245502D01*
X136061428Y-122284552D01*
X136020995Y-122309347D01*
X136001897Y-122316576D01*
X135981683Y-122300865D01*
X135944792Y-122261421D01*
X135896048Y-122203253D01*
X135839000Y-122130974D01*
X135777200Y-122049197D01*
X135714199Y-121962534D01*
X135653549Y-121875597D01*
X135598801Y-121793000D01*
X135494853Y-121621527D01*
X135332087Y-121304509D01*
X135199372Y-120976605D01*
X135096741Y-120639995D01*
X135024229Y-120296860D01*
X134981870Y-119949381D01*
X134970508Y-119623002D01*
X135675577Y-119623002D01*
X135683080Y-119885703D01*
X135707068Y-120128532D01*
X135749310Y-120361274D01*
X135811578Y-120593717D01*
X135895641Y-120835644D01*
X135903432Y-120855486D01*
X135932164Y-120923626D01*
X135967661Y-121002767D01*
X136006590Y-121085997D01*
X136045618Y-121166402D01*
X136081411Y-121237072D01*
X136110636Y-121291092D01*
X136129958Y-121321550D01*
X136138979Y-121331128D01*
X136157201Y-121341656D01*
X136160033Y-121340375D01*
X136183787Y-121324030D01*
X136226729Y-121291849D01*
X136283905Y-121247592D01*
X136350360Y-121195022D01*
X136374198Y-121175990D01*
X136431880Y-121129977D01*
X136509683Y-121067944D01*
X136604313Y-120992513D01*
X136712477Y-120906308D01*
X136830883Y-120811953D01*
X136956237Y-120712071D01*
X137085247Y-120609286D01*
X137214619Y-120506221D01*
X137341061Y-120405499D01*
X137461279Y-120309744D01*
X137571981Y-120221579D01*
X137669873Y-120143629D01*
X137751662Y-120078515D01*
X137814056Y-120028863D01*
X137853761Y-119997295D01*
X137874144Y-119981100D01*
X138005519Y-119876259D01*
X138111344Y-119790895D01*
X138192361Y-119724392D01*
X138249312Y-119676135D01*
X138282939Y-119645509D01*
X138293983Y-119631896D01*
X138286552Y-119623586D01*
X138256863Y-119597313D01*
X138204211Y-119553093D01*
X138128277Y-119490669D01*
X138028743Y-119409787D01*
X137905290Y-119310189D01*
X137757603Y-119191622D01*
X137585362Y-119053829D01*
X137388249Y-118896554D01*
X137165947Y-118719542D01*
X136918139Y-118522538D01*
X136644505Y-118305285D01*
X136633561Y-118296606D01*
X136524007Y-118210386D01*
X136422613Y-118131732D01*
X136332333Y-118062855D01*
X136256122Y-118005963D01*
X136196936Y-117963265D01*
X136157730Y-117936970D01*
X136141460Y-117929286D01*
X136133587Y-117937123D01*
X136110238Y-117972964D01*
X136078460Y-118031393D01*
X136040796Y-118106931D01*
X135999792Y-118194102D01*
X135957992Y-118287428D01*
X135917941Y-118381432D01*
X135882185Y-118470636D01*
X135853268Y-118549564D01*
X135786608Y-118761220D01*
X135735461Y-118968294D01*
X135701159Y-119172746D01*
X135681824Y-119385874D01*
X135675580Y-119618978D01*
X135675577Y-119623002D01*
X134970508Y-119623002D01*
X134969698Y-119599739D01*
X134987748Y-119250114D01*
X135036054Y-118902688D01*
X135114650Y-118559640D01*
X135223571Y-118223152D01*
X135362850Y-117895404D01*
X135532522Y-117578577D01*
X135533436Y-117577044D01*
X135589386Y-117486716D01*
X135651862Y-117391793D01*
X135717797Y-117296340D01*
X135784124Y-117204421D01*
X135847776Y-117120101D01*
X135905686Y-117047443D01*
X135954789Y-116990513D01*
X135992016Y-116953374D01*
X136014301Y-116940092D01*
X136023872Y-116946326D01*
X136057790Y-116971633D01*
X136114275Y-117015008D01*
X136191425Y-117074956D01*
X136287337Y-117149981D01*
X136400108Y-117238587D01*
X136527837Y-117339280D01*
X136668619Y-117450562D01*
X136820552Y-117570940D01*
X136981734Y-117698916D01*
X137150261Y-117832995D01*
X137282243Y-117938057D01*
X137445274Y-118067702D01*
X137599481Y-118190184D01*
X137742962Y-118303997D01*
X137873808Y-118407635D01*
X137990116Y-118499592D01*
X138089979Y-118578361D01*
X138171492Y-118642437D01*
X138232749Y-118690312D01*
X138271844Y-118720481D01*
X138286873Y-118731437D01*
X138288168Y-118726235D01*
X138290270Y-118691650D01*
X138292229Y-118625610D01*
X138294037Y-118529228D01*
X138295688Y-118403620D01*
X138297173Y-118249900D01*
X138298484Y-118069182D01*
X138299615Y-117862581D01*
X138300557Y-117631211D01*
X138301304Y-117376188D01*
X138301846Y-117098625D01*
X138302177Y-116799638D01*
X138302289Y-116480340D01*
X138302289Y-114223706D01*
X138651145Y-113875147D01*
X139000000Y-113526588D01*
X139000000Y-119631896D01*
X139000000Y-122339045D01*
G37*
G36*
X183973283Y-113866841D02*
G01*
X184313832Y-114207087D01*
X184313832Y-116470646D01*
X184313853Y-116624405D01*
X184313987Y-116890779D01*
X184314241Y-117146792D01*
X184314606Y-117390538D01*
X184315074Y-117620114D01*
X184315640Y-117833612D01*
X184316294Y-118029129D01*
X184317030Y-118204758D01*
X184317840Y-118358595D01*
X184318716Y-118488734D01*
X184319652Y-118593270D01*
X184320639Y-118670297D01*
X184321670Y-118717911D01*
X184322737Y-118734205D01*
X184323165Y-118734077D01*
X184340649Y-118721982D01*
X184380286Y-118692056D01*
X184438676Y-118646942D01*
X184512418Y-118589283D01*
X184598112Y-118521723D01*
X184692358Y-118446904D01*
X184776216Y-118380124D01*
X184882767Y-118295299D01*
X184986009Y-118213134D01*
X185080274Y-118138142D01*
X185159893Y-118074832D01*
X185219195Y-118027714D01*
X185224641Y-118023390D01*
X185289430Y-117971901D01*
X185345894Y-117926945D01*
X185388129Y-117893227D01*
X185410235Y-117875451D01*
X185417932Y-117869201D01*
X185453714Y-117840452D01*
X185512870Y-117793170D01*
X185595845Y-117727003D01*
X185703079Y-117641599D01*
X185835015Y-117536605D01*
X185992097Y-117411668D01*
X186174765Y-117266436D01*
X186610586Y-116919989D01*
X186650378Y-116967417D01*
X186668211Y-116988762D01*
X186754633Y-117094873D01*
X186832207Y-117194479D01*
X186898778Y-117284483D01*
X186952189Y-117361790D01*
X186990283Y-117423302D01*
X187010904Y-117465923D01*
X187011895Y-117486556D01*
X187010604Y-117487667D01*
X186989395Y-117504900D01*
X186946247Y-117539485D01*
X186884592Y-117588683D01*
X186807864Y-117649758D01*
X186719497Y-117719974D01*
X186622923Y-117796593D01*
X186552394Y-117852522D01*
X186425716Y-117953027D01*
X186292292Y-118058938D01*
X186160320Y-118163744D01*
X186037996Y-118260936D01*
X185933519Y-118344008D01*
X185916495Y-118357550D01*
X185827042Y-118428710D01*
X185717655Y-118515727D01*
X185593279Y-118614669D01*
X185458858Y-118721600D01*
X185319336Y-118832589D01*
X185179658Y-118943703D01*
X185044768Y-119051007D01*
X184969700Y-119110715D01*
X184850368Y-119205599D01*
X184738620Y-119294415D01*
X184637525Y-119374726D01*
X184550151Y-119444094D01*
X184479568Y-119500084D01*
X184428843Y-119540259D01*
X184401046Y-119562181D01*
X184373464Y-119584815D01*
X184342494Y-119613806D01*
X184330445Y-119630525D01*
X184332399Y-119633971D01*
X184353683Y-119655360D01*
X184394691Y-119691622D01*
X184450786Y-119738735D01*
X184517331Y-119792677D01*
X184539139Y-119810070D01*
X184657105Y-119904111D01*
X184793302Y-120012622D01*
X184944327Y-120132898D01*
X185106781Y-120262232D01*
X185277261Y-120397921D01*
X185452367Y-120537257D01*
X185628698Y-120677536D01*
X185802851Y-120816051D01*
X185971426Y-120950098D01*
X186131021Y-121076970D01*
X186278236Y-121193962D01*
X186409669Y-121298368D01*
X186521918Y-121387483D01*
X186611583Y-121458600D01*
X186662538Y-121499081D01*
X186758864Y-121576149D01*
X186844730Y-121645562D01*
X186917005Y-121704746D01*
X186972557Y-121751125D01*
X187008251Y-121782124D01*
X187020957Y-121795167D01*
X187014949Y-121811008D01*
X186991283Y-121850459D01*
X186952767Y-121907463D01*
X186902720Y-121977400D01*
X186844464Y-122055649D01*
X186781318Y-122137592D01*
X186716605Y-122218607D01*
X186692436Y-122247981D01*
X186652808Y-122294775D01*
X186623947Y-122327028D01*
X186610855Y-122339045D01*
X186601882Y-122333017D01*
X186569557Y-122308629D01*
X186516673Y-122267728D01*
X186446273Y-122212693D01*
X186361400Y-122145907D01*
X186265097Y-122069751D01*
X186160408Y-121986605D01*
X186049245Y-121898137D01*
X185799360Y-121699273D01*
X185573988Y-121519926D01*
X185372082Y-121359262D01*
X185192596Y-121216450D01*
X185034484Y-121090658D01*
X184896699Y-120981053D01*
X184778196Y-120886804D01*
X184677929Y-120807078D01*
X184594851Y-120741044D01*
X184527915Y-120687869D01*
X184476077Y-120646721D01*
X184438289Y-120616769D01*
X184413505Y-120597179D01*
X184322139Y-120525155D01*
X184313549Y-122339045D01*
X183632734Y-122339045D01*
X183632734Y-113526596D01*
X183973283Y-113866841D01*
G37*
G36*
X179979075Y-116452557D02*
G01*
X180032303Y-116504917D01*
X179916299Y-116643596D01*
X179770632Y-116826211D01*
X179549663Y-117143094D01*
X179358391Y-117473230D01*
X179196252Y-117817877D01*
X179062680Y-118178290D01*
X178957110Y-118555728D01*
X178878977Y-118951446D01*
X178876526Y-118966945D01*
X178864873Y-119046037D01*
X178856013Y-119119651D01*
X178849585Y-119194234D01*
X178845230Y-119276237D01*
X178842587Y-119372110D01*
X178841296Y-119488302D01*
X178840997Y-119631262D01*
X178841677Y-119770242D01*
X178844893Y-119930853D01*
X178851522Y-120071511D01*
X178862413Y-120199748D01*
X178878410Y-120323096D01*
X178900362Y-120449088D01*
X178929114Y-120585256D01*
X178965513Y-120739130D01*
X179054266Y-121056876D01*
X179182060Y-121411405D01*
X179336878Y-121749331D01*
X179520293Y-122074030D01*
X179733878Y-122388882D01*
X179870460Y-122565601D01*
X180130070Y-122860155D01*
X180410291Y-123129021D01*
X180710166Y-123371633D01*
X181028739Y-123587425D01*
X181365052Y-123775830D01*
X181718149Y-123936282D01*
X182087073Y-124068215D01*
X182470867Y-124171062D01*
X182868574Y-124244257D01*
X182905198Y-124249064D01*
X183032890Y-124260938D01*
X183182768Y-124269225D01*
X183346942Y-124273929D01*
X183517525Y-124275053D01*
X183686629Y-124272598D01*
X183846365Y-124266569D01*
X183988845Y-124256968D01*
X184106180Y-124243798D01*
X184410264Y-124190136D01*
X184797969Y-124093461D01*
X185170368Y-123967470D01*
X185527067Y-123812356D01*
X185867677Y-123628317D01*
X186191804Y-123415548D01*
X186499057Y-123174243D01*
X186789045Y-122904600D01*
X187046802Y-122622727D01*
X187285152Y-122314648D01*
X187495240Y-121990052D01*
X187676482Y-121650300D01*
X187828296Y-121296754D01*
X187950099Y-120930776D01*
X188041309Y-120553726D01*
X188101342Y-120166968D01*
X188129616Y-119771862D01*
X188129726Y-119444129D01*
X188106268Y-119105588D01*
X188057180Y-118774853D01*
X187981270Y-118444043D01*
X187877344Y-118105278D01*
X187832760Y-117981755D01*
X187715600Y-117701599D01*
X187578777Y-117425343D01*
X187426348Y-117160272D01*
X187262371Y-116913674D01*
X187090902Y-116692836D01*
X187015242Y-116603396D01*
X187069581Y-116554844D01*
X187071070Y-116553512D01*
X187095139Y-116532638D01*
X187114873Y-116521312D01*
X187134399Y-116522309D01*
X187157846Y-116538405D01*
X187189342Y-116572374D01*
X187233015Y-116626991D01*
X187292993Y-116705032D01*
X187366876Y-116803868D01*
X187585179Y-117129989D01*
X187773989Y-117469146D01*
X187933876Y-117822702D01*
X188065412Y-118192019D01*
X188169164Y-118578460D01*
X188245704Y-118983388D01*
X188247659Y-118996785D01*
X188259346Y-119105828D01*
X188268042Y-119239739D01*
X188273747Y-119391345D01*
X188276465Y-119553472D01*
X188276197Y-119718946D01*
X188272946Y-119880593D01*
X188266714Y-120031238D01*
X188257503Y-120163709D01*
X188245315Y-120270831D01*
X188176368Y-120645569D01*
X188073183Y-121039546D01*
X187941058Y-121417594D01*
X187780242Y-121779261D01*
X187590988Y-122124094D01*
X187373545Y-122451638D01*
X187128165Y-122761442D01*
X186855098Y-123053052D01*
X186554596Y-123326015D01*
X186410841Y-123441501D01*
X186099881Y-123660695D01*
X185769430Y-123855543D01*
X185423018Y-124024572D01*
X185064175Y-124166310D01*
X184696431Y-124279285D01*
X184323318Y-124362023D01*
X183948365Y-124413053D01*
X183888518Y-124417794D01*
X183758221Y-124424473D01*
X183611605Y-124428347D01*
X183458554Y-124429390D01*
X183308950Y-124427577D01*
X183172676Y-124422885D01*
X183059614Y-124415287D01*
X182774580Y-124380696D01*
X182384535Y-124305755D01*
X182005691Y-124200738D01*
X181639509Y-124066652D01*
X181287451Y-123904507D01*
X180950977Y-123715313D01*
X180631548Y-123500077D01*
X180330624Y-123259808D01*
X180049667Y-122995516D01*
X179790136Y-122708210D01*
X179553494Y-122398898D01*
X179341200Y-122068589D01*
X179154715Y-121718292D01*
X179076259Y-121547063D01*
X178933745Y-121179853D01*
X178823428Y-120806006D01*
X178745004Y-120424183D01*
X178698172Y-120033048D01*
X178682628Y-119631262D01*
X178695930Y-119264756D01*
X178741216Y-118868536D01*
X178818323Y-118481215D01*
X178926946Y-118103688D01*
X179066785Y-117736848D01*
X179237536Y-117381593D01*
X179438896Y-117038816D01*
X179670563Y-116709412D01*
X179715346Y-116651597D01*
X179771367Y-116580945D01*
X179821738Y-116519103D01*
X179859311Y-116474951D01*
X179925848Y-116400196D01*
X179979075Y-116452557D01*
G37*
G36*
X183450000Y-122339045D02*
G01*
X182752289Y-122339045D01*
X182752289Y-121433682D01*
X182752240Y-121334418D01*
X182751934Y-121170092D01*
X182751371Y-121017901D01*
X182750578Y-120880859D01*
X182749583Y-120761979D01*
X182748413Y-120664272D01*
X182747094Y-120590751D01*
X182745654Y-120544429D01*
X182744121Y-120528319D01*
X182735966Y-120533809D01*
X182704253Y-120557770D01*
X182651189Y-120598842D01*
X182579430Y-120654943D01*
X182491630Y-120723986D01*
X182390446Y-120803889D01*
X182278531Y-120892568D01*
X182158542Y-120987937D01*
X182119238Y-121019222D01*
X181983817Y-121127007D01*
X181846254Y-121236486D01*
X181711237Y-121343929D01*
X181583455Y-121445603D01*
X181467599Y-121537778D01*
X181368357Y-121616722D01*
X181290419Y-121678703D01*
X181254107Y-121707591D01*
X181169768Y-121774808D01*
X181094078Y-121835299D01*
X181031379Y-121885581D01*
X180986017Y-121922175D01*
X180962337Y-121941598D01*
X180949596Y-121952367D01*
X180875829Y-122013005D01*
X180796347Y-122075950D01*
X180715657Y-122137889D01*
X180638268Y-122195510D01*
X180568689Y-122245502D01*
X180511428Y-122284552D01*
X180470995Y-122309347D01*
X180451897Y-122316576D01*
X180431683Y-122300865D01*
X180394792Y-122261421D01*
X180346048Y-122203253D01*
X180289000Y-122130974D01*
X180227200Y-122049197D01*
X180164199Y-121962534D01*
X180103549Y-121875597D01*
X180048801Y-121793000D01*
X179944853Y-121621527D01*
X179782087Y-121304509D01*
X179649372Y-120976605D01*
X179546741Y-120639995D01*
X179474229Y-120296860D01*
X179431870Y-119949381D01*
X179420508Y-119623002D01*
X180125577Y-119623002D01*
X180133080Y-119885703D01*
X180157068Y-120128532D01*
X180199310Y-120361274D01*
X180261578Y-120593717D01*
X180345641Y-120835644D01*
X180353432Y-120855486D01*
X180382164Y-120923626D01*
X180417661Y-121002767D01*
X180456590Y-121085997D01*
X180495618Y-121166402D01*
X180531411Y-121237072D01*
X180560636Y-121291092D01*
X180579958Y-121321550D01*
X180588979Y-121331128D01*
X180607201Y-121341656D01*
X180610033Y-121340375D01*
X180633787Y-121324030D01*
X180676729Y-121291849D01*
X180733905Y-121247592D01*
X180800360Y-121195022D01*
X180824198Y-121175990D01*
X180881880Y-121129977D01*
X180959683Y-121067944D01*
X181054313Y-120992513D01*
X181162477Y-120906308D01*
X181280883Y-120811953D01*
X181406237Y-120712071D01*
X181535247Y-120609286D01*
X181664619Y-120506221D01*
X181791061Y-120405499D01*
X181911279Y-120309744D01*
X182021981Y-120221579D01*
X182119873Y-120143629D01*
X182201662Y-120078515D01*
X182264056Y-120028863D01*
X182303761Y-119997295D01*
X182324144Y-119981100D01*
X182455519Y-119876259D01*
X182561344Y-119790895D01*
X182642361Y-119724392D01*
X182699312Y-119676135D01*
X182732939Y-119645509D01*
X182743983Y-119631896D01*
X182736552Y-119623586D01*
X182706863Y-119597313D01*
X182654211Y-119553093D01*
X182578277Y-119490669D01*
X182478743Y-119409787D01*
X182355290Y-119310189D01*
X182207603Y-119191622D01*
X182035362Y-119053829D01*
X181838249Y-118896554D01*
X181615947Y-118719542D01*
X181368139Y-118522538D01*
X181094505Y-118305285D01*
X181083561Y-118296606D01*
X180974007Y-118210386D01*
X180872613Y-118131732D01*
X180782333Y-118062855D01*
X180706122Y-118005963D01*
X180646936Y-117963265D01*
X180607730Y-117936970D01*
X180591460Y-117929286D01*
X180583587Y-117937123D01*
X180560238Y-117972964D01*
X180528460Y-118031393D01*
X180490796Y-118106931D01*
X180449792Y-118194102D01*
X180407992Y-118287428D01*
X180367941Y-118381432D01*
X180332185Y-118470636D01*
X180303268Y-118549564D01*
X180236608Y-118761220D01*
X180185461Y-118968294D01*
X180151159Y-119172746D01*
X180131824Y-119385874D01*
X180125580Y-119618978D01*
X180125577Y-119623002D01*
X179420508Y-119623002D01*
X179419698Y-119599739D01*
X179437748Y-119250114D01*
X179486054Y-118902688D01*
X179564650Y-118559640D01*
X179673571Y-118223152D01*
X179812850Y-117895404D01*
X179982522Y-117578577D01*
X179983436Y-117577044D01*
X180039386Y-117486716D01*
X180101862Y-117391793D01*
X180167797Y-117296340D01*
X180234124Y-117204421D01*
X180297776Y-117120101D01*
X180355686Y-117047443D01*
X180404789Y-116990513D01*
X180442016Y-116953374D01*
X180464301Y-116940092D01*
X180473872Y-116946326D01*
X180507790Y-116971633D01*
X180564275Y-117015008D01*
X180641425Y-117074956D01*
X180737337Y-117149981D01*
X180850108Y-117238587D01*
X180977837Y-117339280D01*
X181118619Y-117450562D01*
X181270552Y-117570940D01*
X181431734Y-117698916D01*
X181600261Y-117832995D01*
X181732243Y-117938057D01*
X181895274Y-118067702D01*
X182049481Y-118190184D01*
X182192962Y-118303997D01*
X182323808Y-118407635D01*
X182440116Y-118499592D01*
X182539979Y-118578361D01*
X182621492Y-118642437D01*
X182682749Y-118690312D01*
X182721844Y-118720481D01*
X182736873Y-118731437D01*
X182738168Y-118726235D01*
X182740270Y-118691650D01*
X182742229Y-118625610D01*
X182744037Y-118529228D01*
X182745688Y-118403620D01*
X182747173Y-118249900D01*
X182748484Y-118069182D01*
X182749615Y-117862581D01*
X182750557Y-117631211D01*
X182751304Y-117376188D01*
X182751846Y-117098625D01*
X182752177Y-116799638D01*
X182752289Y-116480340D01*
X182752289Y-114223706D01*
X183101145Y-113875147D01*
X183450000Y-113526588D01*
X183450000Y-119631896D01*
X183450000Y-122339045D01*
G37*
D12*
G04 #@! TO.C,TP6*
X142300000Y-90470000D02*
G75*
G02*
X139900000Y-90470000I-1200000J0D01*
G01*
X139900000Y-90470000D02*
G75*
G02*
X142300000Y-90470000I1200000J0D01*
G01*
G04 #@! TO.C,TP3*
X145625000Y-111075000D02*
G75*
G02*
X143225000Y-111075000I-1200000J0D01*
G01*
X143225000Y-111075000D02*
G75*
G02*
X145625000Y-111075000I1200000J0D01*
G01*
G04 #@! TO.C,TP7*
X186420000Y-128970000D02*
G75*
G02*
X184020000Y-128970000I-1200000J0D01*
G01*
X184020000Y-128970000D02*
G75*
G02*
X186420000Y-128970000I1200000J0D01*
G01*
G04 #@! TO.C,TP2*
X155925000Y-116950000D02*
G75*
G02*
X153525000Y-116950000I-1200000J0D01*
G01*
X153525000Y-116950000D02*
G75*
G02*
X155925000Y-116950000I1200000J0D01*
G01*
G04 #@! TO.C,TP5*
X153250000Y-128840000D02*
G75*
G02*
X150850000Y-128840000I-1200000J0D01*
G01*
X150850000Y-128840000D02*
G75*
G02*
X153250000Y-128840000I1200000J0D01*
G01*
G04 #@! TD*
M02*
