M48
;Layer_Color=9474304
;FILE_FORMAT=2:5
INCH,LZ
;TYPE=PLATED
T1F00S00C0.01181
T2F00S00C0.01575
T3F00S00C0.01772
T4F00S00C0.02559
T5F00S00C0.03937
T6F00S00C0.07087
%
T01
X0033336Y0061289
X0046142Y0060354
T02
X0011811Y000315
Y0009055
Y0014961
Y0020866
X002126Y001811
X0025984Y0012598
X0023622Y000315
X0029528
X0035433
X0041339
X0047244
X005315
X0059055Y000315
X0064961
X0070866
X0076772
X0042913Y0026378
X003937
X0017717Y000315
X0082677Y000315
X0088583
X0094488
X0100394
X0106299
X0112205
X011811
X0124016
X0129921
X0135827
X0141732
X0147638
X0153543Y000315
X0159449
X0165354
X017126
X0177165
X0183071
X0188976
X0194882
X0200787
X0206693
X0212598
X0218504
X022441
X0230315
X0236221
X0235827Y001378
X0223228Y0014961
X0195276Y001811
X0184252Y0013386
X0183858Y0026378
X01737Y0026244
X0242126Y0020866
Y0014961
Y0009055
Y000315
Y0026772
Y0032677
Y0038583
Y0044488
Y0050394
Y0056299
Y0062205
Y006811
Y0074016
Y0079921
Y0085827
Y0091732
Y0097638
Y0103543
Y0109449
Y0115354
Y012126
Y0127165
Y0133071
X0236221
X0230315
X0224409
X0218504
X0212598
X0206693
X0200787
X0194882
X0188976
X0183071
X0177165
X017126
X0165354
X0159449
X0153543
X0147638
X0141732
X0135827
X0129921
X0124016
X011811
X0112205
X0106299
X0100394
X0094488
X0088583
X0082677
X0096063Y0123622
X0093307Y0111024
X0107087Y0113386
X0115276Y0123583
X0120079Y0085433
X0156299Y0083071
X0159843
X0161811Y0099213
X0156417Y0117913
X0185433Y009685
X0194095Y0103543
X0204724Y0090158
X0203543Y0074016
X019252Y0070472
X0190551Y0058661
X0188189Y0045669
X0187008Y0035827
X0174803
X0166142Y0039764
X0169685Y004685
X0172835Y0060236
X0179134Y0083071
X0182454
X020315Y0055905
X0205488Y003974
X0205118Y0034646
X0198425Y0027559
X0234646Y0037008
X023189Y0054724
X0220079Y0064567
X0233071Y007559
X0203819Y0125039
X009248Y0060945
X0050787Y0062598
X0048425Y0053937
X0042913Y0029921
X003937
X002126Y0027165
X0017717Y0032283
X0011811Y0032677
Y0038583
Y0044488
Y0050394
Y0056299
Y0062205
Y006811
Y0074016
Y0079921
Y0085827
Y0091732
Y0097638
Y0103543
Y0109449
Y0115354
Y012126
Y0127165
X0011811Y0133071
X0017717
X0023622
X0029528
X0035433
X0041339
X0047244
X005315
X0059055
X0064961
X0070866
X0076772
X0079528Y0122835
X0071653Y0090158
X0052756Y0090551
X0045669Y0088189
X0040984Y0091811
X003937Y0083465
X0033336Y0082018
X0026772Y0097244
X001811Y0097638
X0030709Y0103661
X0026181Y0108898
Y0117953
X0030906Y0123071
X0041378Y010311
X0017323Y0057087
X0011811Y0026772
T03
X0040984Y0066614
X0041024Y0078268
X0071181Y0059961
X0071378Y0049134
T04
X0223782Y009
Y0095
Y01
X0228782
Y0105
X0223782
Y011
X0228782
Y0095
Y009
X004778Y0041998
Y0036998
X004278
Y0041998
X003778
X003278
X002778
Y0036998
X003278
X003778
T05
X0091349Y0077232
X0101349
X0111349
Y0097232
X0101349
X0091349
X0131349
Y0077232
T06
X0087008Y0023811
X0103543
X0120079
X0136614
X015315
Y0045465
X0136614
X0120079
X0103543
X0087008
M30
