G04*
G04 #@! TF.GenerationSoftware,Altium Limited,CircuitStudio,1.5.2 (30)*
G04*
G04 Layer_Color=32896*
%FSLAX25Y25*%
%MOIN*%
G70*
G01*
G75*
%ADD14C,0.00787*%
%ADD28C,0.01000*%
%ADD31C,0.00984*%
%ADD44C,0.00700*%
%ADD45C,0.00709*%
D14*
X76378Y-29732D02*
X163780D01*
X76378Y57276D02*
X163780D01*
X76378Y-29732D02*
Y57276D01*
X163780Y-29732D02*
Y57276D01*
X161417Y20661D02*
X163780D01*
X76378D02*
X78740D01*
X76378Y12000D02*
X163780D01*
X139507Y79913D02*
X152893D01*
X139507D02*
Y94087D01*
X152893Y79913D02*
Y94087D01*
X139507D02*
X152893D01*
X140784Y111447D02*
X155350D01*
X140784Y98258D02*
Y111447D01*
Y98258D02*
X155390D01*
Y111447D01*
X178381Y29994D02*
X179956D01*
Y33242D01*
X178381Y41805D02*
X179956D01*
Y38557D02*
Y41805D01*
X188733Y49111D02*
X186109D01*
X187421D01*
Y45176D01*
X184797Y49111D02*
Y46488D01*
X183485Y45176D01*
X182174Y46488D01*
Y49111D01*
X178238Y48455D02*
X178894Y49111D01*
X180206D01*
X180862Y48455D01*
Y47799D01*
X180206Y47144D01*
X178894D01*
X178238Y46488D01*
Y45832D01*
X178894Y45176D01*
X180206D01*
X180862Y45832D01*
X176926Y45176D02*
X175614D01*
X176270D01*
Y49111D01*
X176926Y48455D01*
D28*
X61522Y28868D02*
G03*
X61522Y28868I-394J0D01*
G01*
X51887Y72265D02*
G03*
X51887Y72265I-440J0D01*
G01*
X50856Y86741D02*
G03*
X50856Y82804I0J-1969D01*
G01*
X31171Y76792D02*
Y92934D01*
Y76792D02*
X50856D01*
X31171Y92934D02*
X50856D01*
Y76792D02*
Y82804D01*
Y86635D02*
Y92934D01*
X136849Y71232D02*
Y102732D01*
X85349D02*
X136849D01*
X85349Y71232D02*
X136849D01*
X85349D02*
Y102732D01*
D31*
X174050Y28912D02*
G03*
X174050Y28912I-492J0D01*
G01*
X219532Y113000D02*
X233032D01*
Y87000D02*
Y113000D01*
X219589Y87000D02*
X233032D01*
X219589D02*
Y87008D01*
X219532D02*
X219589D01*
X24787Y32748D02*
X50780D01*
Y32805D01*
X50787D01*
Y46248D01*
X24787D02*
X50787D01*
X24787Y32748D02*
Y46248D01*
X219532Y87008D02*
Y113000D01*
D44*
X59947Y27294D02*
X63884D01*
Y15089D02*
Y27294D01*
X48924Y15089D02*
X63884D01*
X48924D02*
Y27294D01*
X59947D01*
D45*
X53689Y43045D02*
X53033Y43701D01*
Y45013D01*
X53689Y45669D01*
X56313D01*
X56968Y45013D01*
Y43701D01*
X56313Y43045D01*
X53033Y39766D02*
Y41078D01*
X53689Y41734D01*
X56313D01*
X56968Y41078D01*
Y39766D01*
X56313Y39110D01*
X53689D01*
X53033Y39766D01*
X56968Y37798D02*
X53033D01*
X56968Y35174D01*
X53033D01*
X56968Y33862D02*
Y32550D01*
Y33206D01*
X53033D01*
X53689Y33862D01*
X230171Y117965D02*
X230827Y118621D01*
X232139D01*
X232795Y117965D01*
Y115341D01*
X232139Y114685D01*
X230827D01*
X230171Y115341D01*
X226892Y118621D02*
X228204D01*
X228859Y117965D01*
Y115341D01*
X228204Y114685D01*
X226892D01*
X226236Y115341D01*
Y117965D01*
X226892Y118621D01*
X224924Y114685D02*
Y118621D01*
X222300Y114685D01*
Y118621D01*
X218364Y114685D02*
X220988D01*
X218364Y117309D01*
Y117965D01*
X219020Y118621D01*
X220332D01*
X220988Y117965D01*
X26969Y115984D02*
Y119920D01*
X25001D01*
X24345Y119264D01*
Y117952D01*
X25001Y117296D01*
X26969D01*
X25657D02*
X24345Y115984D01*
X23033D02*
X21721D01*
X22377D01*
Y119920D01*
X23033Y119264D01*
X17129Y119920D02*
X19753D01*
Y117952D01*
X18441Y118608D01*
X17785D01*
X17129Y117952D01*
Y116640D01*
X17785Y115984D01*
X19097D01*
X19753Y116640D01*
X60827Y120315D02*
Y116379D01*
X62795D01*
X63451Y117035D01*
Y118347D01*
X62795Y119003D01*
X60827D01*
X62139D02*
X63451Y120315D01*
X64763D02*
X66074D01*
X65418D01*
Y116379D01*
X64763Y117035D01*
X68042D02*
X68698Y116379D01*
X70010D01*
X70666Y117035D01*
Y117691D01*
X70010Y118347D01*
X69354D01*
X70010D01*
X70666Y119003D01*
Y119659D01*
X70010Y120315D01*
X68698D01*
X68042Y119659D01*
X23583Y96496D02*
X27518D01*
Y98464D01*
X26862Y99120D01*
X25551D01*
X24895Y98464D01*
Y96496D01*
Y97808D02*
X23583Y99120D01*
Y100432D02*
Y101744D01*
Y101088D01*
X27518D01*
X26862Y100432D01*
X23583Y106335D02*
Y103712D01*
X26206Y106335D01*
X26862D01*
X27518Y105679D01*
Y104367D01*
X26862Y103712D01*
X71653Y79921D02*
X75589D01*
Y81889D01*
X74933Y82545D01*
X73621D01*
X72965Y81889D01*
Y79921D01*
Y81233D02*
X71653Y82545D01*
Y83857D02*
Y85169D01*
Y84513D01*
X75589D01*
X74933Y83857D01*
X71653Y87137D02*
Y88449D01*
Y87793D01*
X75589D01*
X74933Y87137D01*
X25387Y54823D02*
X29323D01*
Y56791D01*
X28667Y57447D01*
X27355D01*
X26699Y56791D01*
Y54823D01*
Y56135D02*
X25387Y57447D01*
Y58759D02*
Y60071D01*
Y59414D01*
X29323D01*
X28667Y58759D01*
Y62038D02*
X29323Y62694D01*
Y64006D01*
X28667Y64662D01*
X26043D01*
X25387Y64006D01*
Y62694D01*
X26043Y62038D01*
X28667D01*
X65159Y55291D02*
X69095D01*
Y57259D01*
X68439Y57915D01*
X67127D01*
X66471Y57259D01*
Y55291D01*
Y56603D02*
X65159Y57915D01*
X65815Y59227D02*
X65159Y59883D01*
Y61195D01*
X65815Y61851D01*
X68439D01*
X69095Y61195D01*
Y59883D01*
X68439Y59227D01*
X67783D01*
X67127Y59883D01*
Y61851D01*
X32390Y55526D02*
X31734Y56182D01*
Y57494D01*
X32390Y58150D01*
X35013D01*
X35669Y57494D01*
Y56182D01*
X35013Y55526D01*
X31734Y51590D02*
Y54214D01*
X33701D01*
X33046Y52902D01*
Y52246D01*
X33701Y51590D01*
X35013D01*
X35669Y52246D01*
Y53558D01*
X35013Y54214D01*
X42127Y88583D02*
Y87271D01*
Y87927D01*
X46063D01*
Y88583D01*
Y87271D01*
X42783Y82679D02*
X42127Y83335D01*
Y84647D01*
X42783Y85303D01*
X45407D01*
X46063Y84647D01*
Y83335D01*
X45407Y82679D01*
X46063Y81367D02*
Y80055D01*
Y80711D01*
X42127D01*
X42783Y81367D01*
X56498Y57653D02*
X60433D01*
Y59621D01*
X59777Y60277D01*
X58465D01*
X57810Y59621D01*
Y57653D01*
Y58965D02*
X56498Y60277D01*
Y61589D02*
Y62901D01*
Y62245D01*
X60433D01*
X59777Y61589D01*
X56377Y95699D02*
X60313D01*
Y97667D01*
X59657Y98323D01*
X58345D01*
X57689Y97667D01*
Y95699D01*
Y97011D02*
X56377Y98323D01*
Y102259D02*
Y99635D01*
X59001Y102259D01*
X59657D01*
X60313Y101603D01*
Y100291D01*
X59657Y99635D01*
X58858Y110079D02*
Y106143D01*
X60826D01*
X61482Y106799D01*
Y108111D01*
X60826Y108767D01*
X58858D01*
X60170D02*
X61482Y110079D01*
X62794Y106799D02*
X63450Y106143D01*
X64762D01*
X65418Y106799D01*
Y107455D01*
X64762Y108111D01*
X64106D01*
X64762D01*
X65418Y108767D01*
Y109423D01*
X64762Y110079D01*
X63450D01*
X62794Y109423D01*
X15151Y59153D02*
X19087D01*
Y61121D01*
X18431Y61777D01*
X17119D01*
X16463Y61121D01*
Y59153D01*
Y60465D02*
X15151Y61777D01*
X19087Y65713D02*
Y63089D01*
X17119D01*
X17775Y64401D01*
Y65057D01*
X17119Y65713D01*
X15807D01*
X15151Y65057D01*
Y63745D01*
X15807Y63089D01*
X24843Y108425D02*
Y112361D01*
X22875D01*
X22219Y111705D01*
Y110393D01*
X22875Y109737D01*
X24843D01*
X23531D02*
X22219Y108425D01*
X18283Y112361D02*
X19595Y111705D01*
X20907Y110393D01*
Y109081D01*
X20251Y108425D01*
X18939D01*
X18283Y109081D01*
Y109737D01*
X18939Y110393D01*
X20907D01*
X14302Y100704D02*
Y96768D01*
X16270D01*
X16926Y97424D01*
Y98736D01*
X16270Y99392D01*
X14302D01*
X15614D02*
X16926Y100704D01*
X18238Y97424D02*
X18894Y96768D01*
X20206D01*
X20862Y97424D01*
Y98080D01*
X20206Y98736D01*
X20862Y99392D01*
Y100048D01*
X20206Y100704D01*
X18894D01*
X18238Y100048D01*
Y99392D01*
X18894Y98736D01*
X18238Y98080D01*
Y97424D01*
X18894Y98736D02*
X20206D01*
X159975Y62729D02*
X160631Y63385D01*
X161943D01*
X162598Y62729D01*
Y60105D01*
X161943Y59449D01*
X160631D01*
X159975Y60105D01*
X156695Y63385D02*
X158007D01*
X158663Y62729D01*
Y60105D01*
X158007Y59449D01*
X156695D01*
X156039Y60105D01*
Y62729D01*
X156695Y63385D01*
X154727Y59449D02*
Y63385D01*
X152103Y59449D01*
Y63385D01*
X150791Y62729D02*
X150135Y63385D01*
X148823D01*
X148167Y62729D01*
Y62073D01*
X148823Y61417D01*
X149479D01*
X148823D01*
X148167Y60761D01*
Y60105D01*
X148823Y59449D01*
X150135D01*
X150791Y60105D01*
X18242Y28870D02*
X18898Y29526D01*
X20210D01*
X20866Y28870D01*
Y26247D01*
X20210Y25591D01*
X18898D01*
X18242Y26247D01*
X16930Y25591D02*
X15619D01*
X16274D01*
Y29526D01*
X16930Y28870D01*
X18742Y19421D02*
X19398Y20077D01*
X20710D01*
X21366Y19421D01*
Y16798D01*
X20710Y16142D01*
X19398D01*
X18742Y16798D01*
X14807Y16142D02*
X17430D01*
X14807Y18766D01*
Y19421D01*
X15462Y20077D01*
X16774D01*
X17430Y19421D01*
X172901Y90360D02*
X172245Y91016D01*
Y92328D01*
X172901Y92984D01*
X175525D01*
X176181Y92328D01*
Y91016D01*
X175525Y90360D01*
X172901Y89048D02*
X172245Y88393D01*
Y87081D01*
X172901Y86425D01*
X173557D01*
X174213Y87081D01*
Y87737D01*
Y87081D01*
X174869Y86425D01*
X175525D01*
X176181Y87081D01*
Y88393D01*
X175525Y89048D01*
X163846Y90754D02*
X163190Y91410D01*
Y92722D01*
X163846Y93378D01*
X166470D01*
X167126Y92722D01*
Y91410D01*
X166470Y90754D01*
X167126Y87474D02*
X163190D01*
X165158Y89442D01*
Y86818D01*
X70572Y38413D02*
X71228Y37757D01*
Y36445D01*
X70572Y35789D01*
X67948D01*
X67292Y36445D01*
Y37757D01*
X67948Y38413D01*
X71228Y39725D02*
Y42349D01*
X70572D01*
X67948Y39725D01*
X67292D01*
X44618Y5773D02*
X45274Y5117D01*
Y3806D01*
X44618Y3150D01*
X41995D01*
X41339Y3806D01*
Y5117D01*
X41995Y5773D01*
X45274Y9709D02*
X44618Y8397D01*
X43306Y7085D01*
X41995D01*
X41339Y7741D01*
Y9053D01*
X41995Y9709D01*
X42650D01*
X43306Y9053D01*
Y7085D01*
X151873Y77985D02*
Y74049D01*
X149905D01*
X149249Y74705D01*
Y77329D01*
X149905Y77985D01*
X151873D01*
X147938Y74049D02*
X146626D01*
X147282D01*
Y77985D01*
X147938Y77329D01*
X64566Y32677D02*
Y33989D01*
Y33333D01*
X60630D01*
Y32677D01*
Y33989D01*
X63910Y38581D02*
X64566Y37925D01*
Y36613D01*
X63910Y35957D01*
X61286D01*
X60630Y36613D01*
Y37925D01*
X61286Y38581D01*
X60630Y42516D02*
Y39893D01*
X63254Y42516D01*
X63910D01*
X64566Y41861D01*
Y40549D01*
X63910Y39893D01*
X171058Y114005D02*
Y117940D01*
X169090D01*
X168434Y117285D01*
Y115973D01*
X169090Y115317D01*
X171058D01*
X169746D02*
X168434Y114005D01*
X167122D02*
X165811D01*
X166467D01*
Y117940D01*
X167122Y117285D01*
X163843D02*
X163187Y117940D01*
X161875D01*
X161219Y117285D01*
Y116629D01*
X161875Y115973D01*
X161219Y115317D01*
Y114661D01*
X161875Y114005D01*
X163187D01*
X163843Y114661D01*
Y115317D01*
X163187Y115973D01*
X163843Y116629D01*
Y117285D01*
X163187Y115973D02*
X161875D01*
X136261Y115342D02*
Y119278D01*
X134293D01*
X133638Y118622D01*
Y117310D01*
X134293Y116654D01*
X136261D01*
X134950D02*
X133638Y115342D01*
X132326D02*
X131014D01*
X131670D01*
Y119278D01*
X132326Y118622D01*
X129046Y115998D02*
X128390Y115342D01*
X127078D01*
X126422Y115998D01*
Y118622D01*
X127078Y119278D01*
X128390D01*
X129046Y118622D01*
Y117966D01*
X128390Y117310D01*
X126422D01*
X74410Y7087D02*
Y11022D01*
X72442D01*
X71786Y10366D01*
Y9054D01*
X72442Y8399D01*
X74410D01*
X73097D02*
X71786Y7087D01*
X70474D02*
X69162D01*
X69818D01*
Y11022D01*
X70474Y10366D01*
X67194Y11022D02*
X64570D01*
Y10366D01*
X67194Y7743D01*
Y7087D01*
X119726Y104712D02*
Y108648D01*
X117758D01*
X117102Y107992D01*
Y106680D01*
X117758Y106024D01*
X119726D01*
X118414D02*
X117102Y104712D01*
X113822D02*
X115134D01*
X115790Y105368D01*
Y106680D01*
X115134Y107336D01*
X113822D01*
X113166Y106680D01*
Y106024D01*
X115790D01*
X111855Y104712D02*
X110543D01*
X111198D01*
Y108648D01*
X111855D01*
X150000Y118109D02*
X147376D01*
X148688D01*
Y114173D01*
X146064D02*
X144752D01*
X145408D01*
Y118109D01*
X146064Y117453D01*
X183040Y18872D02*
X179104D01*
Y16905D01*
X179760Y16249D01*
X181072D01*
X181728Y16905D01*
Y18872D01*
Y17560D02*
X183040Y16249D01*
Y12969D02*
X179104D01*
X181072Y14937D01*
Y12313D01*
X234699Y108425D02*
X237323D01*
X234699Y111049D01*
Y111705D01*
X235355Y112361D01*
X236667D01*
X237323Y111705D01*
X240039Y87559D02*
X238727D01*
X239383D01*
Y91495D01*
X240039Y90839D01*
X236760D02*
X236104Y91495D01*
X234792D01*
X234136Y90839D01*
Y88215D01*
X234792Y87559D01*
X236104D01*
X236760Y88215D01*
Y90839D01*
X217362Y88176D02*
X216706Y87520D01*
X215394D01*
X214738Y88176D01*
Y90799D01*
X215394Y91455D01*
X216706D01*
X217362Y90799D01*
Y90144D01*
X216706Y89488D01*
X214738D01*
X217520Y108465D02*
X216208D01*
X216864D01*
Y112400D01*
X217520Y111744D01*
X49961Y28675D02*
Y31299D01*
X47337Y28675D01*
X46681D01*
X46025Y29331D01*
Y30643D01*
X46681Y31299D01*
X49488Y48858D02*
Y47546D01*
Y48202D01*
X45552D01*
X46208Y48858D01*
X22966Y43819D02*
X23622Y43163D01*
Y41851D01*
X22966Y41195D01*
X20342D01*
X19686Y41851D01*
Y43163D01*
X20342Y43819D01*
X20998D01*
X21654Y43163D01*
Y41195D01*
X22992Y38465D02*
Y37153D01*
Y37809D01*
X19056D01*
X19712Y38465D01*
Y35185D02*
X19056Y34529D01*
Y33217D01*
X19712Y32561D01*
X22336D01*
X22992Y33217D01*
Y34529D01*
X22336Y35185D01*
X19712D01*
M02*
