G04*
G04 #@! TF.GenerationSoftware,Altium Limited,CircuitStudio,1.5.2 (30)*
G04*
G04 Layer_Color=128*
%FSLAX25Y25*%
%MOIN*%
G70*
G01*
G75*
%ADD21R,0.05118X0.05906*%
%ADD22R,0.05906X0.05118*%
%ADD23R,0.04173X0.02559*%
%ADD24R,0.02756X0.03543*%
%ADD25R,0.01378X0.05906*%
%ADD26R,0.03150X0.03150*%
%ADD27R,0.06102X0.02165*%
D21*
X33640Y17800D02*
D03*
X26160D02*
D03*
X33540Y26900D02*
D03*
X26060D02*
D03*
X38632Y109035D02*
D03*
X31152D02*
D03*
Y117635D02*
D03*
X38632D02*
D03*
X128409Y110632D02*
D03*
X135889D02*
D03*
X160985Y108531D02*
D03*
X168465D02*
D03*
X54232Y109035D02*
D03*
X46752D02*
D03*
Y117635D02*
D03*
X54232D02*
D03*
X52954Y9564D02*
D03*
X60435D02*
D03*
D22*
X69100Y23660D02*
D03*
Y31140D02*
D03*
X57828Y83322D02*
D03*
Y90802D02*
D03*
X58028Y67522D02*
D03*
Y75002D02*
D03*
X66580Y74984D02*
D03*
Y67504D02*
D03*
X66528Y90902D02*
D03*
Y83422D02*
D03*
X26103Y92493D02*
D03*
Y85013D02*
D03*
X17603Y85212D02*
D03*
Y92693D02*
D03*
X17401Y70281D02*
D03*
Y77761D02*
D03*
X26003Y77393D02*
D03*
Y69913D02*
D03*
X44000Y21540D02*
D03*
Y14060D02*
D03*
X40400Y61140D02*
D03*
Y53660D02*
D03*
X173745Y75420D02*
D03*
Y82901D02*
D03*
X165445Y75320D02*
D03*
Y82801D02*
D03*
X173700Y13860D02*
D03*
Y21340D02*
D03*
D23*
X52073Y24931D02*
D03*
Y21191D02*
D03*
Y17451D02*
D03*
X60735D02*
D03*
Y21191D02*
D03*
Y24931D02*
D03*
D24*
X149743Y90543D02*
D03*
X142657D02*
D03*
X146200Y83457D02*
D03*
D25*
X33336Y97461D02*
D03*
Y72265D02*
D03*
X35895Y97461D02*
D03*
X38454D02*
D03*
X41013D02*
D03*
X43572D02*
D03*
X46131D02*
D03*
X48691D02*
D03*
X41013Y72265D02*
D03*
X35895D02*
D03*
X38454D02*
D03*
X43572D02*
D03*
X46131D02*
D03*
X48691D02*
D03*
D26*
X152614Y101014D02*
D03*
Y108494D02*
D03*
X143598Y104754D02*
D03*
D27*
X173558Y32160D02*
D03*
Y39640D02*
D03*
X180842Y35900D02*
D03*
M02*
