%TF.GenerationSoftware,KiCad,Pcbnew,8.99.0-1891-ge2bd76bdce*%
%TF.CreationDate,2024-09-02T10:31:20+03:00*%
%TF.ProjectId,diagnostic_tester,64696167-6e6f-4737-9469-635f74657374,rev?*%
%TF.SameCoordinates,Original*%
%TF.FileFunction,Copper,L1,Top*%
%TF.FilePolarity,Positive*%
%FSLAX46Y46*%
G04 Gerber Fmt 4.6, Leading zero omitted, Abs format (unit mm)*
G04 Created by KiCad (PCBNEW 8.99.0-1891-ge2bd76bdce) date 2024-09-02 10:31:20*
%MOMM*%
%LPD*%
G01*
G04 APERTURE LIST*
G04 Aperture macros list*
%AMRoundRect*
0 Rectangle with rounded corners*
0 $1 Rounding radius*
0 $2 $3 $4 $5 $6 $7 $8 $9 X,Y pos of 4 corners*
0 Add a 4 corners polygon primitive as box body*
4,1,4,$2,$3,$4,$5,$6,$7,$8,$9,$2,$3,0*
0 Add four circle primitives for the rounded corners*
1,1,$1+$1,$2,$3*
1,1,$1+$1,$4,$5*
1,1,$1+$1,$6,$7*
1,1,$1+$1,$8,$9*
0 Add four rect primitives between the rounded corners*
20,1,$1+$1,$2,$3,$4,$5,0*
20,1,$1+$1,$4,$5,$6,$7,0*
20,1,$1+$1,$6,$7,$8,$9,0*
20,1,$1+$1,$8,$9,$2,$3,0*%
G04 Aperture macros list end*
%ADD10C,0.200000*%
%TA.AperFunction,NonConductor*%
%ADD11C,0.200000*%
%TD*%
%TA.AperFunction,ComponentPad*%
%ADD12RoundRect,0.250001X-1.599999X1.099999X-1.599999X-1.099999X1.599999X-1.099999X1.599999X1.099999X0*%
%TD*%
%TA.AperFunction,ComponentPad*%
%ADD13O,3.700000X2.700000*%
%TD*%
%TA.AperFunction,ComponentPad*%
%ADD14C,2.000000*%
%TD*%
%TA.AperFunction,SMDPad,CuDef*%
%ADD15RoundRect,0.200000X0.275000X-0.200000X0.275000X0.200000X-0.275000X0.200000X-0.275000X-0.200000X0*%
%TD*%
%TA.AperFunction,ComponentPad*%
%ADD16R,1.700000X1.700000*%
%TD*%
%TA.AperFunction,ComponentPad*%
%ADD17O,1.700000X1.700000*%
%TD*%
%TA.AperFunction,SMDPad,CuDef*%
%ADD18RoundRect,0.225000X-0.225000X-0.250000X0.225000X-0.250000X0.225000X0.250000X-0.225000X0.250000X0*%
%TD*%
%TA.AperFunction,SMDPad,CuDef*%
%ADD19RoundRect,0.225000X0.250000X-0.225000X0.250000X0.225000X-0.250000X0.225000X-0.250000X-0.225000X0*%
%TD*%
%TA.AperFunction,SMDPad,CuDef*%
%ADD20RoundRect,0.200000X0.200000X0.275000X-0.200000X0.275000X-0.200000X-0.275000X0.200000X-0.275000X0*%
%TD*%
%TA.AperFunction,SMDPad,CuDef*%
%ADD21RoundRect,0.200000X-0.200000X-0.275000X0.200000X-0.275000X0.200000X0.275000X-0.200000X0.275000X0*%
%TD*%
%TA.AperFunction,SMDPad,CuDef*%
%ADD22R,0.300000X0.850000*%
%TD*%
%TA.AperFunction,ComponentPad*%
%ADD23R,1.500000X1.500000*%
%TD*%
%TA.AperFunction,ComponentPad*%
%ADD24C,1.500000*%
%TD*%
%TA.AperFunction,SMDPad,CuDef*%
%ADD25RoundRect,0.225000X0.225000X0.250000X-0.225000X0.250000X-0.225000X-0.250000X0.225000X-0.250000X0*%
%TD*%
%TA.AperFunction,SMDPad,CuDef*%
%ADD26R,3.500000X1.700000*%
%TD*%
%TA.AperFunction,SMDPad,CuDef*%
%ADD27R,1.700000X3.500000*%
%TD*%
%TA.AperFunction,ViaPad*%
%ADD28C,0.600000*%
%TD*%
%TA.AperFunction,Conductor*%
%ADD29C,0.254000*%
%TD*%
%TA.AperFunction,Conductor*%
%ADD30C,1.000000*%
%TD*%
%TA.AperFunction,Conductor*%
%ADD31C,0.150000*%
%TD*%
%TA.AperFunction,Conductor*%
%ADD32C,0.400000*%
%TD*%
%TA.AperFunction,Conductor*%
%ADD33C,0.200000*%
%TD*%
G04 APERTURE END LIST*
D10*
D11*
X80143006Y-86243521D02*
X80285863Y-86291140D01*
X80285863Y-86291140D02*
X80333482Y-86338759D01*
X80333482Y-86338759D02*
X80381101Y-86433997D01*
X80381101Y-86433997D02*
X80381101Y-86576854D01*
X80381101Y-86576854D02*
X80333482Y-86672092D01*
X80333482Y-86672092D02*
X80285863Y-86719712D01*
X80285863Y-86719712D02*
X80190625Y-86767331D01*
X80190625Y-86767331D02*
X79809673Y-86767331D01*
X79809673Y-86767331D02*
X79809673Y-85767331D01*
X79809673Y-85767331D02*
X80143006Y-85767331D01*
X80143006Y-85767331D02*
X80238244Y-85814950D01*
X80238244Y-85814950D02*
X80285863Y-85862569D01*
X80285863Y-85862569D02*
X80333482Y-85957807D01*
X80333482Y-85957807D02*
X80333482Y-86053045D01*
X80333482Y-86053045D02*
X80285863Y-86148283D01*
X80285863Y-86148283D02*
X80238244Y-86195902D01*
X80238244Y-86195902D02*
X80143006Y-86243521D01*
X80143006Y-86243521D02*
X79809673Y-86243521D01*
X80809673Y-86767331D02*
X80809673Y-85767331D01*
X81381101Y-86767331D02*
X80952530Y-86195902D01*
X81381101Y-85767331D02*
X80809673Y-86338759D01*
X82428721Y-85767331D02*
X83000149Y-85767331D01*
X82714435Y-86767331D02*
X82714435Y-85767331D01*
X83714435Y-86719712D02*
X83619197Y-86767331D01*
X83619197Y-86767331D02*
X83428721Y-86767331D01*
X83428721Y-86767331D02*
X83333483Y-86719712D01*
X83333483Y-86719712D02*
X83285864Y-86624473D01*
X83285864Y-86624473D02*
X83285864Y-86243521D01*
X83285864Y-86243521D02*
X83333483Y-86148283D01*
X83333483Y-86148283D02*
X83428721Y-86100664D01*
X83428721Y-86100664D02*
X83619197Y-86100664D01*
X83619197Y-86100664D02*
X83714435Y-86148283D01*
X83714435Y-86148283D02*
X83762054Y-86243521D01*
X83762054Y-86243521D02*
X83762054Y-86338759D01*
X83762054Y-86338759D02*
X83285864Y-86433997D01*
X84333483Y-86767331D02*
X84238245Y-86719712D01*
X84238245Y-86719712D02*
X84190626Y-86624473D01*
X84190626Y-86624473D02*
X84190626Y-85767331D01*
X85095388Y-86719712D02*
X85000150Y-86767331D01*
X85000150Y-86767331D02*
X84809674Y-86767331D01*
X84809674Y-86767331D02*
X84714436Y-86719712D01*
X84714436Y-86719712D02*
X84666817Y-86624473D01*
X84666817Y-86624473D02*
X84666817Y-86243521D01*
X84666817Y-86243521D02*
X84714436Y-86148283D01*
X84714436Y-86148283D02*
X84809674Y-86100664D01*
X84809674Y-86100664D02*
X85000150Y-86100664D01*
X85000150Y-86100664D02*
X85095388Y-86148283D01*
X85095388Y-86148283D02*
X85143007Y-86243521D01*
X85143007Y-86243521D02*
X85143007Y-86338759D01*
X85143007Y-86338759D02*
X84666817Y-86433997D01*
X85571579Y-86767331D02*
X85571579Y-86100664D01*
X85571579Y-86195902D02*
X85619198Y-86148283D01*
X85619198Y-86148283D02*
X85714436Y-86100664D01*
X85714436Y-86100664D02*
X85857293Y-86100664D01*
X85857293Y-86100664D02*
X85952531Y-86148283D01*
X85952531Y-86148283D02*
X86000150Y-86243521D01*
X86000150Y-86243521D02*
X86000150Y-86767331D01*
X86000150Y-86243521D02*
X86047769Y-86148283D01*
X86047769Y-86148283D02*
X86143007Y-86100664D01*
X86143007Y-86100664D02*
X86285864Y-86100664D01*
X86285864Y-86100664D02*
X86381103Y-86148283D01*
X86381103Y-86148283D02*
X86428722Y-86243521D01*
X86428722Y-86243521D02*
X86428722Y-86767331D01*
X87333483Y-86767331D02*
X87333483Y-86243521D01*
X87333483Y-86243521D02*
X87285864Y-86148283D01*
X87285864Y-86148283D02*
X87190626Y-86100664D01*
X87190626Y-86100664D02*
X87000150Y-86100664D01*
X87000150Y-86100664D02*
X86904912Y-86148283D01*
X87333483Y-86719712D02*
X87238245Y-86767331D01*
X87238245Y-86767331D02*
X87000150Y-86767331D01*
X87000150Y-86767331D02*
X86904912Y-86719712D01*
X86904912Y-86719712D02*
X86857293Y-86624473D01*
X86857293Y-86624473D02*
X86857293Y-86529235D01*
X86857293Y-86529235D02*
X86904912Y-86433997D01*
X86904912Y-86433997D02*
X87000150Y-86386378D01*
X87000150Y-86386378D02*
X87238245Y-86386378D01*
X87238245Y-86386378D02*
X87333483Y-86338759D01*
X87666817Y-86100664D02*
X88047769Y-86100664D01*
X87809674Y-85767331D02*
X87809674Y-86624473D01*
X87809674Y-86624473D02*
X87857293Y-86719712D01*
X87857293Y-86719712D02*
X87952531Y-86767331D01*
X87952531Y-86767331D02*
X88047769Y-86767331D01*
X88381103Y-86767331D02*
X88381103Y-86100664D01*
X88381103Y-85767331D02*
X88333484Y-85814950D01*
X88333484Y-85814950D02*
X88381103Y-85862569D01*
X88381103Y-85862569D02*
X88428722Y-85814950D01*
X88428722Y-85814950D02*
X88381103Y-85767331D01*
X88381103Y-85767331D02*
X88381103Y-85862569D01*
X89285864Y-86719712D02*
X89190626Y-86767331D01*
X89190626Y-86767331D02*
X89000150Y-86767331D01*
X89000150Y-86767331D02*
X88904912Y-86719712D01*
X88904912Y-86719712D02*
X88857293Y-86672092D01*
X88857293Y-86672092D02*
X88809674Y-86576854D01*
X88809674Y-86576854D02*
X88809674Y-86291140D01*
X88809674Y-86291140D02*
X88857293Y-86195902D01*
X88857293Y-86195902D02*
X88904912Y-86148283D01*
X88904912Y-86148283D02*
X89000150Y-86100664D01*
X89000150Y-86100664D02*
X89190626Y-86100664D01*
X89190626Y-86100664D02*
X89285864Y-86148283D01*
X89666817Y-86719712D02*
X89762055Y-86767331D01*
X89762055Y-86767331D02*
X89952531Y-86767331D01*
X89952531Y-86767331D02*
X90047769Y-86719712D01*
X90047769Y-86719712D02*
X90095388Y-86624473D01*
X90095388Y-86624473D02*
X90095388Y-86576854D01*
X90095388Y-86576854D02*
X90047769Y-86481616D01*
X90047769Y-86481616D02*
X89952531Y-86433997D01*
X89952531Y-86433997D02*
X89809674Y-86433997D01*
X89809674Y-86433997D02*
X89714436Y-86386378D01*
X89714436Y-86386378D02*
X89666817Y-86291140D01*
X89666817Y-86291140D02*
X89666817Y-86243521D01*
X89666817Y-86243521D02*
X89714436Y-86148283D01*
X89714436Y-86148283D02*
X89809674Y-86100664D01*
X89809674Y-86100664D02*
X89952531Y-86100664D01*
X89952531Y-86100664D02*
X90047769Y-86148283D01*
X79809673Y-88377275D02*
X79809673Y-87377275D01*
X79809673Y-87377275D02*
X80047768Y-87377275D01*
X80047768Y-87377275D02*
X80190625Y-87424894D01*
X80190625Y-87424894D02*
X80285863Y-87520132D01*
X80285863Y-87520132D02*
X80333482Y-87615370D01*
X80333482Y-87615370D02*
X80381101Y-87805846D01*
X80381101Y-87805846D02*
X80381101Y-87948703D01*
X80381101Y-87948703D02*
X80333482Y-88139179D01*
X80333482Y-88139179D02*
X80285863Y-88234417D01*
X80285863Y-88234417D02*
X80190625Y-88329656D01*
X80190625Y-88329656D02*
X80047768Y-88377275D01*
X80047768Y-88377275D02*
X79809673Y-88377275D01*
X80809673Y-88377275D02*
X80809673Y-87710608D01*
X80809673Y-87377275D02*
X80762054Y-87424894D01*
X80762054Y-87424894D02*
X80809673Y-87472513D01*
X80809673Y-87472513D02*
X80857292Y-87424894D01*
X80857292Y-87424894D02*
X80809673Y-87377275D01*
X80809673Y-87377275D02*
X80809673Y-87472513D01*
X81714434Y-88377275D02*
X81714434Y-87853465D01*
X81714434Y-87853465D02*
X81666815Y-87758227D01*
X81666815Y-87758227D02*
X81571577Y-87710608D01*
X81571577Y-87710608D02*
X81381101Y-87710608D01*
X81381101Y-87710608D02*
X81285863Y-87758227D01*
X81714434Y-88329656D02*
X81619196Y-88377275D01*
X81619196Y-88377275D02*
X81381101Y-88377275D01*
X81381101Y-88377275D02*
X81285863Y-88329656D01*
X81285863Y-88329656D02*
X81238244Y-88234417D01*
X81238244Y-88234417D02*
X81238244Y-88139179D01*
X81238244Y-88139179D02*
X81285863Y-88043941D01*
X81285863Y-88043941D02*
X81381101Y-87996322D01*
X81381101Y-87996322D02*
X81619196Y-87996322D01*
X81619196Y-87996322D02*
X81714434Y-87948703D01*
X82619196Y-87710608D02*
X82619196Y-88520132D01*
X82619196Y-88520132D02*
X82571577Y-88615370D01*
X82571577Y-88615370D02*
X82523958Y-88662989D01*
X82523958Y-88662989D02*
X82428720Y-88710608D01*
X82428720Y-88710608D02*
X82285863Y-88710608D01*
X82285863Y-88710608D02*
X82190625Y-88662989D01*
X82619196Y-88329656D02*
X82523958Y-88377275D01*
X82523958Y-88377275D02*
X82333482Y-88377275D01*
X82333482Y-88377275D02*
X82238244Y-88329656D01*
X82238244Y-88329656D02*
X82190625Y-88282036D01*
X82190625Y-88282036D02*
X82143006Y-88186798D01*
X82143006Y-88186798D02*
X82143006Y-87901084D01*
X82143006Y-87901084D02*
X82190625Y-87805846D01*
X82190625Y-87805846D02*
X82238244Y-87758227D01*
X82238244Y-87758227D02*
X82333482Y-87710608D01*
X82333482Y-87710608D02*
X82523958Y-87710608D01*
X82523958Y-87710608D02*
X82619196Y-87758227D01*
X83095387Y-87710608D02*
X83095387Y-88377275D01*
X83095387Y-87805846D02*
X83143006Y-87758227D01*
X83143006Y-87758227D02*
X83238244Y-87710608D01*
X83238244Y-87710608D02*
X83381101Y-87710608D01*
X83381101Y-87710608D02*
X83476339Y-87758227D01*
X83476339Y-87758227D02*
X83523958Y-87853465D01*
X83523958Y-87853465D02*
X83523958Y-88377275D01*
X84143006Y-88377275D02*
X84047768Y-88329656D01*
X84047768Y-88329656D02*
X84000149Y-88282036D01*
X84000149Y-88282036D02*
X83952530Y-88186798D01*
X83952530Y-88186798D02*
X83952530Y-87901084D01*
X83952530Y-87901084D02*
X84000149Y-87805846D01*
X84000149Y-87805846D02*
X84047768Y-87758227D01*
X84047768Y-87758227D02*
X84143006Y-87710608D01*
X84143006Y-87710608D02*
X84285863Y-87710608D01*
X84285863Y-87710608D02*
X84381101Y-87758227D01*
X84381101Y-87758227D02*
X84428720Y-87805846D01*
X84428720Y-87805846D02*
X84476339Y-87901084D01*
X84476339Y-87901084D02*
X84476339Y-88186798D01*
X84476339Y-88186798D02*
X84428720Y-88282036D01*
X84428720Y-88282036D02*
X84381101Y-88329656D01*
X84381101Y-88329656D02*
X84285863Y-88377275D01*
X84285863Y-88377275D02*
X84143006Y-88377275D01*
X84857292Y-88329656D02*
X84952530Y-88377275D01*
X84952530Y-88377275D02*
X85143006Y-88377275D01*
X85143006Y-88377275D02*
X85238244Y-88329656D01*
X85238244Y-88329656D02*
X85285863Y-88234417D01*
X85285863Y-88234417D02*
X85285863Y-88186798D01*
X85285863Y-88186798D02*
X85238244Y-88091560D01*
X85238244Y-88091560D02*
X85143006Y-88043941D01*
X85143006Y-88043941D02*
X85000149Y-88043941D01*
X85000149Y-88043941D02*
X84904911Y-87996322D01*
X84904911Y-87996322D02*
X84857292Y-87901084D01*
X84857292Y-87901084D02*
X84857292Y-87853465D01*
X84857292Y-87853465D02*
X84904911Y-87758227D01*
X84904911Y-87758227D02*
X85000149Y-87710608D01*
X85000149Y-87710608D02*
X85143006Y-87710608D01*
X85143006Y-87710608D02*
X85238244Y-87758227D01*
X85571578Y-87710608D02*
X85952530Y-87710608D01*
X85714435Y-87377275D02*
X85714435Y-88234417D01*
X85714435Y-88234417D02*
X85762054Y-88329656D01*
X85762054Y-88329656D02*
X85857292Y-88377275D01*
X85857292Y-88377275D02*
X85952530Y-88377275D01*
X86285864Y-88377275D02*
X86285864Y-87710608D01*
X86285864Y-87377275D02*
X86238245Y-87424894D01*
X86238245Y-87424894D02*
X86285864Y-87472513D01*
X86285864Y-87472513D02*
X86333483Y-87424894D01*
X86333483Y-87424894D02*
X86285864Y-87377275D01*
X86285864Y-87377275D02*
X86285864Y-87472513D01*
X87190625Y-88329656D02*
X87095387Y-88377275D01*
X87095387Y-88377275D02*
X86904911Y-88377275D01*
X86904911Y-88377275D02*
X86809673Y-88329656D01*
X86809673Y-88329656D02*
X86762054Y-88282036D01*
X86762054Y-88282036D02*
X86714435Y-88186798D01*
X86714435Y-88186798D02*
X86714435Y-87901084D01*
X86714435Y-87901084D02*
X86762054Y-87805846D01*
X86762054Y-87805846D02*
X86809673Y-87758227D01*
X86809673Y-87758227D02*
X86904911Y-87710608D01*
X86904911Y-87710608D02*
X87095387Y-87710608D01*
X87095387Y-87710608D02*
X87190625Y-87758227D01*
X88238245Y-87377275D02*
X88809673Y-87377275D01*
X88523959Y-88377275D02*
X88523959Y-87377275D01*
X89523959Y-88329656D02*
X89428721Y-88377275D01*
X89428721Y-88377275D02*
X89238245Y-88377275D01*
X89238245Y-88377275D02*
X89143007Y-88329656D01*
X89143007Y-88329656D02*
X89095388Y-88234417D01*
X89095388Y-88234417D02*
X89095388Y-87853465D01*
X89095388Y-87853465D02*
X89143007Y-87758227D01*
X89143007Y-87758227D02*
X89238245Y-87710608D01*
X89238245Y-87710608D02*
X89428721Y-87710608D01*
X89428721Y-87710608D02*
X89523959Y-87758227D01*
X89523959Y-87758227D02*
X89571578Y-87853465D01*
X89571578Y-87853465D02*
X89571578Y-87948703D01*
X89571578Y-87948703D02*
X89095388Y-88043941D01*
X89952531Y-88329656D02*
X90047769Y-88377275D01*
X90047769Y-88377275D02*
X90238245Y-88377275D01*
X90238245Y-88377275D02*
X90333483Y-88329656D01*
X90333483Y-88329656D02*
X90381102Y-88234417D01*
X90381102Y-88234417D02*
X90381102Y-88186798D01*
X90381102Y-88186798D02*
X90333483Y-88091560D01*
X90333483Y-88091560D02*
X90238245Y-88043941D01*
X90238245Y-88043941D02*
X90095388Y-88043941D01*
X90095388Y-88043941D02*
X90000150Y-87996322D01*
X90000150Y-87996322D02*
X89952531Y-87901084D01*
X89952531Y-87901084D02*
X89952531Y-87853465D01*
X89952531Y-87853465D02*
X90000150Y-87758227D01*
X90000150Y-87758227D02*
X90095388Y-87710608D01*
X90095388Y-87710608D02*
X90238245Y-87710608D01*
X90238245Y-87710608D02*
X90333483Y-87758227D01*
X90666817Y-87710608D02*
X91047769Y-87710608D01*
X90809674Y-87377275D02*
X90809674Y-88234417D01*
X90809674Y-88234417D02*
X90857293Y-88329656D01*
X90857293Y-88329656D02*
X90952531Y-88377275D01*
X90952531Y-88377275D02*
X91047769Y-88377275D01*
X91762055Y-88329656D02*
X91666817Y-88377275D01*
X91666817Y-88377275D02*
X91476341Y-88377275D01*
X91476341Y-88377275D02*
X91381103Y-88329656D01*
X91381103Y-88329656D02*
X91333484Y-88234417D01*
X91333484Y-88234417D02*
X91333484Y-87853465D01*
X91333484Y-87853465D02*
X91381103Y-87758227D01*
X91381103Y-87758227D02*
X91476341Y-87710608D01*
X91476341Y-87710608D02*
X91666817Y-87710608D01*
X91666817Y-87710608D02*
X91762055Y-87758227D01*
X91762055Y-87758227D02*
X91809674Y-87853465D01*
X91809674Y-87853465D02*
X91809674Y-87948703D01*
X91809674Y-87948703D02*
X91333484Y-88043941D01*
X92238246Y-88377275D02*
X92238246Y-87710608D01*
X92238246Y-87901084D02*
X92285865Y-87805846D01*
X92285865Y-87805846D02*
X92333484Y-87758227D01*
X92333484Y-87758227D02*
X92428722Y-87710608D01*
X92428722Y-87710608D02*
X92523960Y-87710608D01*
X79809673Y-89987219D02*
X79809673Y-89320552D01*
X79809673Y-89511028D02*
X79857292Y-89415790D01*
X79857292Y-89415790D02*
X79904911Y-89368171D01*
X79904911Y-89368171D02*
X80000149Y-89320552D01*
X80000149Y-89320552D02*
X80095387Y-89320552D01*
X80809673Y-89939600D02*
X80714435Y-89987219D01*
X80714435Y-89987219D02*
X80523959Y-89987219D01*
X80523959Y-89987219D02*
X80428721Y-89939600D01*
X80428721Y-89939600D02*
X80381102Y-89844361D01*
X80381102Y-89844361D02*
X80381102Y-89463409D01*
X80381102Y-89463409D02*
X80428721Y-89368171D01*
X80428721Y-89368171D02*
X80523959Y-89320552D01*
X80523959Y-89320552D02*
X80714435Y-89320552D01*
X80714435Y-89320552D02*
X80809673Y-89368171D01*
X80809673Y-89368171D02*
X80857292Y-89463409D01*
X80857292Y-89463409D02*
X80857292Y-89558647D01*
X80857292Y-89558647D02*
X80381102Y-89653885D01*
X81190626Y-89320552D02*
X81428721Y-89987219D01*
X81428721Y-89987219D02*
X81666816Y-89320552D01*
X83333483Y-89987219D02*
X82762055Y-89987219D01*
X83047769Y-89987219D02*
X83047769Y-88987219D01*
X83047769Y-88987219D02*
X82952531Y-89130076D01*
X82952531Y-89130076D02*
X82857293Y-89225314D01*
X82857293Y-89225314D02*
X82762055Y-89272933D01*
X83762055Y-89891980D02*
X83809674Y-89939600D01*
X83809674Y-89939600D02*
X83762055Y-89987219D01*
X83762055Y-89987219D02*
X83714436Y-89939600D01*
X83714436Y-89939600D02*
X83762055Y-89891980D01*
X83762055Y-89891980D02*
X83762055Y-89987219D01*
X84428721Y-88987219D02*
X84523959Y-88987219D01*
X84523959Y-88987219D02*
X84619197Y-89034838D01*
X84619197Y-89034838D02*
X84666816Y-89082457D01*
X84666816Y-89082457D02*
X84714435Y-89177695D01*
X84714435Y-89177695D02*
X84762054Y-89368171D01*
X84762054Y-89368171D02*
X84762054Y-89606266D01*
X84762054Y-89606266D02*
X84714435Y-89796742D01*
X84714435Y-89796742D02*
X84666816Y-89891980D01*
X84666816Y-89891980D02*
X84619197Y-89939600D01*
X84619197Y-89939600D02*
X84523959Y-89987219D01*
X84523959Y-89987219D02*
X84428721Y-89987219D01*
X84428721Y-89987219D02*
X84333483Y-89939600D01*
X84333483Y-89939600D02*
X84285864Y-89891980D01*
X84285864Y-89891980D02*
X84238245Y-89796742D01*
X84238245Y-89796742D02*
X84190626Y-89606266D01*
X84190626Y-89606266D02*
X84190626Y-89368171D01*
X84190626Y-89368171D02*
X84238245Y-89177695D01*
X84238245Y-89177695D02*
X84285864Y-89082457D01*
X84285864Y-89082457D02*
X84333483Y-89034838D01*
X84333483Y-89034838D02*
X84428721Y-88987219D01*
D12*
%TO.P,J4,1,Pin_1*%
%TO.N,unconnected-(J4-Pin_1-Pad1)*%
X105285000Y-63790000D03*
D13*
%TO.P,J4,2,Pin_2*%
%TO.N,unconnected-(J4-Pin_2-Pad2)*%
X105285000Y-67990000D03*
%TO.P,J4,3,Pin_3*%
%TO.N,unconnected-(J4-Pin_3-Pad3)*%
X105285000Y-72190000D03*
%TO.P,J4,4,Pin_4*%
%TO.N,unconnected-(J4-Pin_4-Pad4)*%
X105285000Y-76390000D03*
%TO.P,J4,5,Pin_5*%
%TO.N,GND*%
X105285000Y-80590000D03*
%TO.P,J4,6,Pin_6*%
%TO.N,unconnected-(J4-Pin_6-Pad6)*%
X99785000Y-63790000D03*
%TO.P,J4,7,Pin_7*%
%TO.N,/TX_MASTER*%
X99785000Y-67990000D03*
%TO.P,J4,8,Pin_8*%
%TO.N,unconnected-(J4-Pin_8-Pad8)*%
X99785000Y-72190000D03*
%TO.P,J4,9,Pin_9*%
%TO.N,GND*%
X99785000Y-76390000D03*
%TO.P,J4,10,Pin_10*%
%TO.N,unconnected-(J4-Pin_10-Pad10)*%
X99785000Y-80590000D03*
%TD*%
D14*
%TO.P,SW1,1,1*%
%TO.N,Net-(U3-GPIO26_ADC0)*%
X89500000Y-81500000D03*
X83000000Y-81500000D03*
%TO.P,SW1,2,2*%
%TO.N,GND*%
X89500000Y-77000000D03*
X83000000Y-77000000D03*
%TD*%
D15*
%TO.P,R6,1*%
%TO.N,/PICO_SCL*%
X79700000Y-61950000D03*
%TO.P,R6,2*%
%TO.N,+3V3*%
X79700000Y-60300000D03*
%TD*%
D16*
%TO.P,J1,1,Pin_1*%
%TO.N,GND*%
X93000000Y-63400000D03*
D17*
%TO.P,J1,2,Pin_2*%
%TO.N,+5V*%
X90460000Y-63400000D03*
%TO.P,J1,3,Pin_3*%
%TO.N,/LCD_SDA*%
X87920000Y-63400000D03*
%TO.P,J1,4,Pin_4*%
%TO.N,/LCD_SCL*%
X85380000Y-63400000D03*
%TD*%
D18*
%TO.P,C3,1*%
%TO.N,+3V3*%
X81325000Y-60420000D03*
%TO.P,C3,2*%
%TO.N,GND*%
X82875000Y-60420000D03*
%TD*%
D19*
%TO.P,C1,1*%
%TO.N,Net-(U3-GPIO26_ADC0)*%
X80540000Y-81495000D03*
%TO.P,C1,2*%
%TO.N,GND*%
X80540000Y-79945000D03*
%TD*%
D20*
%TO.P,R4,1*%
%TO.N,/TX_SNIFFER*%
X82620000Y-71600000D03*
%TO.P,R4,2*%
%TO.N,/RX1*%
X80970000Y-71600000D03*
%TD*%
D15*
%TO.P,R5,1*%
%TO.N,/PICO_SDA*%
X80200000Y-65350000D03*
%TO.P,R5,2*%
%TO.N,+3V3*%
X80200000Y-63700000D03*
%TD*%
D21*
%TO.P,R8,1*%
%TO.N,/LCD_SCL*%
X88170000Y-58910000D03*
%TO.P,R8,2*%
%TO.N,+5V*%
X89820000Y-58910000D03*
%TD*%
D22*
%TO.P,U1,1,B2*%
%TO.N,/LCD_SCL*%
X83090000Y-62170000D03*
%TO.P,U1,2,GND*%
%TO.N,GND*%
X82590000Y-62170000D03*
%TO.P,U1,3,VCCA*%
%TO.N,+3V3*%
X82090000Y-62170000D03*
%TO.P,U1,4,A2*%
%TO.N,/PICO_SCL*%
X81590000Y-62170000D03*
%TO.P,U1,5,A1*%
%TO.N,/PICO_SDA*%
X81590000Y-65270000D03*
%TO.P,U1,6,OE*%
%TO.N,+3V3*%
X82090000Y-65270000D03*
%TO.P,U1,7,VCCB*%
%TO.N,+5V*%
X82590000Y-65270000D03*
%TO.P,U1,8,B1*%
%TO.N,/LCD_SDA*%
X83090000Y-65270000D03*
%TD*%
D23*
%TO.P,U2,1,Vin*%
%TO.N,+24V*%
X89580000Y-51500000D03*
D24*
%TO.P,U2,2,GND*%
%TO.N,GND*%
X87040000Y-51500000D03*
%TO.P,U2,3,Vout*%
%TO.N,+5V*%
X84500000Y-51500000D03*
%TD*%
D16*
%TO.P,J2,1,Pin_1*%
%TO.N,GND*%
X92970000Y-69320000D03*
D17*
%TO.P,J2,2,Pin_2*%
%TO.N,+24V*%
X90430000Y-69320000D03*
%TO.P,J2,3,Pin_3*%
%TO.N,/RX_SNIFFER*%
X87890000Y-69320000D03*
%TO.P,J2,4,Pin_4*%
%TO.N,/TX_SNIFFER*%
X85350000Y-69320000D03*
%TD*%
D12*
%TO.P,J3,1,Pin_1*%
%TO.N,unconnected-(J3-Pin_1-Pad1)*%
X105285000Y-47250000D03*
D13*
%TO.P,J3,2,Pin_2*%
%TO.N,unconnected-(J3-Pin_2-Pad2)*%
X105285000Y-51450000D03*
%TO.P,J3,3,Pin_3*%
%TO.N,GND*%
X105285000Y-55650000D03*
%TO.P,J3,4,Pin_4*%
%TO.N,unconnected-(J3-Pin_4-Pad4)*%
X99785000Y-47250000D03*
%TO.P,J3,5,Pin_5*%
%TO.N,/RX_MASTER*%
X99785000Y-51450000D03*
%TO.P,J3,6,Pin_6*%
%TO.N,+24V*%
X99785000Y-55650000D03*
%TD*%
D20*
%TO.P,R1,1*%
%TO.N,/RX_MASTER*%
X85885000Y-44100000D03*
%TO.P,R1,2*%
%TO.N,/TX0*%
X84235000Y-44100000D03*
%TD*%
%TO.P,R2,1*%
%TO.N,/TX_MASTER*%
X83430000Y-47600000D03*
%TO.P,R2,2*%
%TO.N,/RX0*%
X81780000Y-47600000D03*
%TD*%
D25*
%TO.P,C2,1*%
%TO.N,+5V*%
X82610000Y-66960000D03*
%TO.P,C2,2*%
%TO.N,GND*%
X81060000Y-66960000D03*
%TD*%
D21*
%TO.P,R7,1*%
%TO.N,/LCD_SDA*%
X88175000Y-60600000D03*
%TO.P,R7,2*%
%TO.N,+5V*%
X89825000Y-60600000D03*
%TD*%
D20*
%TO.P,R3,1*%
%TO.N,/RX_SNIFFER*%
X82620000Y-69900000D03*
%TO.P,R3,2*%
%TO.N,/TX1*%
X80970000Y-69900000D03*
%TD*%
D17*
%TO.P,U3,1,GPIO0*%
%TO.N,/TX0*%
X55085000Y-39440000D03*
D26*
X54185000Y-39440000D03*
D17*
%TO.P,U3,2,GPIO1*%
%TO.N,/RX0*%
X55085000Y-41980000D03*
D26*
X54185000Y-41980000D03*
D16*
%TO.P,U3,3,GND*%
%TO.N,GND*%
X55085000Y-44520000D03*
D26*
X54185000Y-44520000D03*
D17*
%TO.P,U3,4,GPIO2*%
%TO.N,unconnected-(U3-GPIO2-Pad4)*%
X55085000Y-47060000D03*
D26*
%TO.N,unconnected-(U3-GPIO2-Pad4)_1*%
X54185000Y-47060000D03*
D17*
%TO.P,U3,5,GPIO3*%
%TO.N,unconnected-(U3-GPIO3-Pad5)*%
X55085000Y-49600000D03*
D26*
%TO.N,unconnected-(U3-GPIO3-Pad5)_1*%
X54185000Y-49600000D03*
D17*
%TO.P,U3,6,GPIO4*%
%TO.N,/PICO_SDA*%
X55085000Y-52140000D03*
D26*
X54185000Y-52140000D03*
D17*
%TO.P,U3,7,GPIO5*%
%TO.N,/PICO_SCL*%
X55085000Y-54680000D03*
D26*
X54185000Y-54680000D03*
D16*
%TO.P,U3,8,GND*%
%TO.N,GND*%
X55085000Y-57220000D03*
D26*
X54185000Y-57220000D03*
D17*
%TO.P,U3,9,GPIO6*%
%TO.N,unconnected-(U3-GPIO6-Pad9)_1*%
X55085000Y-59760000D03*
D26*
%TO.N,unconnected-(U3-GPIO6-Pad9)*%
X54185000Y-59760000D03*
D17*
%TO.P,U3,10,GPIO7*%
%TO.N,unconnected-(U3-GPIO7-Pad10)_1*%
X55085000Y-62300000D03*
D26*
%TO.N,unconnected-(U3-GPIO7-Pad10)*%
X54185000Y-62300000D03*
D17*
%TO.P,U3,11,GPIO8*%
%TO.N,unconnected-(U3-GPIO8-Pad11)_1*%
X55085000Y-64840000D03*
D26*
%TO.N,unconnected-(U3-GPIO8-Pad11)*%
X54185000Y-64840000D03*
D17*
%TO.P,U3,12,GPIO9*%
%TO.N,unconnected-(U3-GPIO9-Pad12)_1*%
X55085000Y-67380000D03*
D26*
%TO.N,unconnected-(U3-GPIO9-Pad12)*%
X54185000Y-67380000D03*
D16*
%TO.P,U3,13,GND*%
%TO.N,GND*%
X55085000Y-69920000D03*
D26*
X54185000Y-69920000D03*
D17*
%TO.P,U3,14,GPIO10*%
%TO.N,unconnected-(U3-GPIO10-Pad14)*%
X55085000Y-72460000D03*
D26*
%TO.N,unconnected-(U3-GPIO10-Pad14)_1*%
X54185000Y-72460000D03*
D17*
%TO.P,U3,15,GPIO11*%
%TO.N,/TX1*%
X55085000Y-75000000D03*
D26*
X54185000Y-75000000D03*
D17*
%TO.P,U3,16,GPIO12*%
%TO.N,/RX1*%
X55085000Y-77540000D03*
D26*
X54185000Y-77540000D03*
D17*
%TO.P,U3,17,GPIO13*%
%TO.N,unconnected-(U3-GPIO13-Pad17)*%
X55085000Y-80080000D03*
D26*
%TO.N,unconnected-(U3-GPIO13-Pad17)_1*%
X54185000Y-80080000D03*
D16*
%TO.P,U3,18,GND*%
%TO.N,GND*%
X55085000Y-82620000D03*
D26*
X54185000Y-82620000D03*
D17*
%TO.P,U3,19,GPIO14*%
%TO.N,unconnected-(U3-GPIO14-Pad19)*%
X55085000Y-85160000D03*
D26*
%TO.N,unconnected-(U3-GPIO14-Pad19)_1*%
X54185000Y-85160000D03*
D17*
%TO.P,U3,20,GPIO15*%
%TO.N,unconnected-(U3-GPIO15-Pad20)_1*%
X55085000Y-87700000D03*
D26*
%TO.N,unconnected-(U3-GPIO15-Pad20)*%
X54185000Y-87700000D03*
D17*
%TO.P,U3,21,GPIO16*%
%TO.N,unconnected-(U3-GPIO16-Pad21)*%
X72865000Y-87700000D03*
D26*
%TO.N,unconnected-(U3-GPIO16-Pad21)_1*%
X73765000Y-87700000D03*
D17*
%TO.P,U3,22,GPIO17*%
%TO.N,unconnected-(U3-GPIO17-Pad22)*%
X72865000Y-85160000D03*
D26*
%TO.N,unconnected-(U3-GPIO17-Pad22)_1*%
X73765000Y-85160000D03*
D16*
%TO.P,U3,23,GND*%
%TO.N,GND*%
X72865000Y-82620000D03*
D26*
X73765000Y-82620000D03*
D17*
%TO.P,U3,24,GPIO18*%
%TO.N,unconnected-(U3-GPIO18-Pad24)*%
X72865000Y-80080000D03*
D26*
%TO.N,unconnected-(U3-GPIO18-Pad24)_1*%
X73765000Y-80080000D03*
D17*
%TO.P,U3,25,GPIO19*%
%TO.N,unconnected-(U3-GPIO19-Pad25)_1*%
X72865000Y-77540000D03*
D26*
%TO.N,unconnected-(U3-GPIO19-Pad25)*%
X73765000Y-77540000D03*
D17*
%TO.P,U3,26,GPIO20*%
%TO.N,unconnected-(U3-GPIO20-Pad26)*%
X72865000Y-75000000D03*
D26*
%TO.N,unconnected-(U3-GPIO20-Pad26)_1*%
X73765000Y-75000000D03*
D17*
%TO.P,U3,27,GPIO21*%
%TO.N,unconnected-(U3-GPIO21-Pad27)_1*%
X72865000Y-72460000D03*
D26*
%TO.N,unconnected-(U3-GPIO21-Pad27)*%
X73765000Y-72460000D03*
D16*
%TO.P,U3,28,GND*%
%TO.N,GND*%
X72865000Y-69920000D03*
D26*
X73765000Y-69920000D03*
D17*
%TO.P,U3,29,GPIO22*%
%TO.N,unconnected-(U3-GPIO22-Pad29)*%
X72865000Y-67380000D03*
D26*
%TO.N,unconnected-(U3-GPIO22-Pad29)_1*%
X73765000Y-67380000D03*
D17*
%TO.P,U3,30,RUN*%
%TO.N,unconnected-(U3-RUN-Pad30)_1*%
X72865000Y-64840000D03*
D26*
%TO.N,unconnected-(U3-RUN-Pad30)*%
X73765000Y-64840000D03*
D17*
%TO.P,U3,31,GPIO26_ADC0*%
%TO.N,Net-(U3-GPIO26_ADC0)*%
X72865000Y-62300000D03*
D26*
X73765000Y-62300000D03*
D17*
%TO.P,U3,32,GPIO27_ADC1*%
%TO.N,unconnected-(U3-GPIO27_ADC1-Pad32)*%
X72865000Y-59760000D03*
D26*
%TO.N,unconnected-(U3-GPIO27_ADC1-Pad32)_1*%
X73765000Y-59760000D03*
D16*
%TO.P,U3,33,AGND*%
%TO.N,GND*%
X72865000Y-57220000D03*
D26*
X73765000Y-57220000D03*
D17*
%TO.P,U3,34,GPIO28_ADC2*%
%TO.N,unconnected-(U3-GPIO28_ADC2-Pad34)*%
X72865000Y-54680000D03*
D26*
%TO.N,unconnected-(U3-GPIO28_ADC2-Pad34)_1*%
X73765000Y-54680000D03*
D17*
%TO.P,U3,35,ADC_VREF*%
%TO.N,unconnected-(U3-ADC_VREF-Pad35)_1*%
X72865000Y-52140000D03*
D26*
%TO.N,unconnected-(U3-ADC_VREF-Pad35)*%
X73765000Y-52140000D03*
D17*
%TO.P,U3,36,3V3*%
%TO.N,+3V3*%
X72865000Y-49600000D03*
D26*
X73765000Y-49600000D03*
D17*
%TO.P,U3,37,3V3_EN*%
%TO.N,unconnected-(U3-3V3_EN-Pad37)*%
X72865000Y-47060000D03*
D26*
%TO.N,unconnected-(U3-3V3_EN-Pad37)_1*%
X73765000Y-47060000D03*
D16*
%TO.P,U3,38,GND*%
%TO.N,GND*%
X72865000Y-44520000D03*
D26*
X73765000Y-44520000D03*
D17*
%TO.P,U3,39,VSYS*%
%TO.N,unconnected-(U3-VSYS-Pad39)_1*%
X72865000Y-41980000D03*
D26*
%TO.N,unconnected-(U3-VSYS-Pad39)*%
X73765000Y-41980000D03*
D17*
%TO.P,U3,40,VBUS*%
%TO.N,+5V*%
X72865000Y-39440000D03*
D26*
X73765000Y-39440000D03*
D17*
%TO.P,U3,41,SWCLK*%
%TO.N,unconnected-(U3-SWCLK-Pad41)*%
X61435000Y-87470000D03*
D27*
%TO.N,unconnected-(U3-SWCLK-Pad41)_1*%
X61435000Y-88370000D03*
D16*
%TO.P,U3,42,GND*%
%TO.N,GND*%
X63975000Y-87470000D03*
D27*
X63975000Y-88370000D03*
D17*
%TO.P,U3,43,SWDIO*%
%TO.N,unconnected-(U3-SWDIO-Pad43)_1*%
X66515000Y-87470000D03*
D27*
%TO.N,unconnected-(U3-SWDIO-Pad43)*%
X66515000Y-88370000D03*
%TD*%
D28*
%TO.N,Net-(U3-GPIO26_ADC0)*%
X78800000Y-67600000D03*
X78800000Y-72150000D03*
%TO.N,/TX_MASTER*%
X96970000Y-56300000D03*
%TO.N,/TX0*%
X77900000Y-43200000D03*
X71200000Y-43200000D03*
%TO.N,/RX0*%
X78700000Y-47500000D03*
X71300000Y-45300000D03*
%TO.N,GND*%
X82990000Y-59525000D03*
X79800000Y-66900000D03*
X80560000Y-78990000D03*
%TO.N,/PICO_SCL*%
X78100000Y-60600000D03*
X70500000Y-56800000D03*
%TD*%
D29*
%TO.N,Net-(U3-GPIO26_ADC0)*%
X82940000Y-81560000D02*
X83000000Y-81500000D01*
X78800000Y-67500000D02*
X78800000Y-66300000D01*
X89500000Y-81500000D02*
X83000000Y-81500000D01*
X78800000Y-72150000D02*
X78800000Y-80750000D01*
X78800000Y-80750000D02*
X79610000Y-81560000D01*
X74800000Y-62300000D02*
X72865000Y-62300000D01*
X79610000Y-81560000D02*
X82940000Y-81560000D01*
X78800000Y-66300000D02*
X74800000Y-62300000D01*
D30*
%TO.N,+5V*%
X76900000Y-41100000D02*
X75240000Y-39440000D01*
D31*
X82540000Y-65075000D02*
X82590000Y-65125000D01*
D30*
X90460000Y-63140000D02*
X90460000Y-63400000D01*
D32*
X86860000Y-67000000D02*
X90460000Y-63400000D01*
D33*
X89825000Y-62765000D02*
X89825000Y-58900000D01*
D29*
X82590000Y-66800000D02*
X82590000Y-65125000D01*
D30*
X92500000Y-58400000D02*
X92500000Y-61100000D01*
X83300000Y-52700000D02*
X87000000Y-56400000D01*
X87000000Y-56400000D02*
X90500000Y-56400000D01*
X90500000Y-56400000D02*
X92500000Y-58400000D01*
X84500000Y-51500000D02*
X83300000Y-52700000D01*
X76900000Y-48100000D02*
X76900000Y-41100000D01*
D29*
X82465000Y-66925000D02*
X82590000Y-66800000D01*
D30*
X75240000Y-39440000D02*
X72865000Y-39440000D01*
D33*
X90460000Y-63400000D02*
X89825000Y-62765000D01*
D32*
X82770000Y-67000000D02*
X86860000Y-67000000D01*
D30*
X83300000Y-52700000D02*
X81500000Y-52700000D01*
X81500000Y-52700000D02*
X76900000Y-48100000D01*
X92500000Y-61100000D02*
X90460000Y-63140000D01*
D29*
%TO.N,/RX_SNIFFER*%
X86370000Y-67800000D02*
X84725000Y-67800000D01*
X84725000Y-67800000D02*
X82625000Y-69900000D01*
X87890000Y-69320000D02*
X86370000Y-67800000D01*
D30*
%TO.N,+24V*%
X97125000Y-57580000D02*
X99055000Y-55650000D01*
X95170000Y-57580000D02*
X97125000Y-57580000D01*
X95110000Y-49110000D02*
X95110000Y-57520000D01*
X95110000Y-57520000D02*
X95170000Y-57580000D01*
X89580000Y-51500000D02*
X89580000Y-47900000D01*
X93900000Y-47900000D02*
X95110000Y-49110000D01*
X99055000Y-55650000D02*
X99930000Y-55650000D01*
X90430000Y-69070000D02*
X90430000Y-69320000D01*
X95170000Y-64330000D02*
X90430000Y-69070000D01*
X89580000Y-47900000D02*
X93900000Y-47900000D01*
X89655000Y-51425000D02*
X89580000Y-51500000D01*
X95170000Y-57580000D02*
X95170000Y-64330000D01*
D29*
%TO.N,+3V3*%
X74379000Y-49600000D02*
X72865000Y-49600000D01*
X78700000Y-59000000D02*
X78700000Y-53900000D01*
X82090000Y-63700000D02*
X82090000Y-65125000D01*
X81415000Y-60650000D02*
X81990000Y-61225000D01*
X82090000Y-61325000D02*
X81990000Y-61225000D01*
X81415000Y-60325000D02*
X81415000Y-60650000D01*
X80200000Y-63700000D02*
X82090000Y-63700000D01*
X82090000Y-62325000D02*
X82090000Y-61325000D01*
X79650000Y-59950000D02*
X78700000Y-59000000D01*
D33*
X80290000Y-63702818D02*
X80340000Y-63652818D01*
D29*
X82090000Y-62325000D02*
X82090000Y-63700000D01*
D31*
X72865000Y-49600000D02*
X74275000Y-49600000D01*
D29*
X78679000Y-53900000D02*
X74379000Y-49600000D01*
X81390000Y-60300000D02*
X81415000Y-60325000D01*
X79700000Y-60300000D02*
X81390000Y-60300000D01*
X78700000Y-53900000D02*
X78679000Y-53900000D01*
D31*
X81415000Y-60700000D02*
X81390000Y-60725000D01*
D29*
%TO.N,/TX_SNIFFER*%
X83425000Y-71600000D02*
X82625000Y-71600000D01*
X85225000Y-69800000D02*
X83425000Y-71600000D01*
%TO.N,/LCD_SCL*%
X87475000Y-58900000D02*
X88175000Y-58900000D01*
X86355000Y-63400000D02*
X86355000Y-60020000D01*
X86355000Y-60020000D02*
X87475000Y-58900000D01*
X84165000Y-63400000D02*
X86355000Y-63400000D01*
X83090000Y-62325000D02*
X84165000Y-63400000D01*
D33*
%TO.N,/LCD_SDA*%
X88175000Y-60600000D02*
X87920000Y-60855000D01*
D29*
X87170000Y-65125000D02*
X87170000Y-64150000D01*
X83090000Y-65125000D02*
X87170000Y-65125000D01*
X88175000Y-60600000D02*
X88175000Y-63145000D01*
X87170000Y-64150000D02*
X87920000Y-63400000D01*
X88175000Y-63145000D02*
X87920000Y-63400000D01*
%TO.N,/RX_MASTER*%
X99930000Y-51450000D02*
X99930000Y-50365000D01*
X93595000Y-44030000D02*
X85955000Y-44030000D01*
X99930000Y-50365000D02*
X93595000Y-44030000D01*
X85955000Y-44030000D02*
X85885000Y-44100000D01*
%TO.N,/TX_MASTER*%
X83970000Y-46710000D02*
X95320000Y-46710000D01*
X95320000Y-46710000D02*
X97143000Y-48533000D01*
X97143000Y-48533000D02*
X97143000Y-56127000D01*
X97143000Y-56127000D02*
X96970000Y-56300000D01*
X83430000Y-47600000D02*
X83430000Y-47250000D01*
X83430000Y-47250000D02*
X83970000Y-46710000D01*
%TO.N,/TX0*%
X69160000Y-41160000D02*
X56805000Y-41160000D01*
X71200000Y-43200000D02*
X69160000Y-41160000D01*
X78800000Y-44100000D02*
X84235000Y-44100000D01*
X77900000Y-43200000D02*
X78800000Y-44100000D01*
X56805000Y-41160000D02*
X55085000Y-39440000D01*
%TO.N,/RX0*%
X58405000Y-45300000D02*
X55085000Y-41980000D01*
X71300000Y-45300000D02*
X58405000Y-45300000D01*
X78800000Y-47600000D02*
X81780000Y-47600000D01*
X78700000Y-47500000D02*
X78800000Y-47600000D01*
%TO.N,/TX1*%
X55085000Y-75000000D02*
X55085000Y-74615000D01*
X55085000Y-75000000D02*
X61465000Y-68620000D01*
X80500000Y-69900000D02*
X80975000Y-69900000D01*
X79220000Y-68620000D02*
X80500000Y-69900000D01*
X61465000Y-68620000D02*
X79220000Y-68620000D01*
%TO.N,GND*%
X82990000Y-60300000D02*
X82965000Y-60325000D01*
D33*
X82590000Y-61125000D02*
X82590000Y-62225000D01*
X82965000Y-60750000D02*
X82965000Y-60325000D01*
D29*
X82990000Y-59525000D02*
X82990000Y-60300000D01*
X80915000Y-66925000D02*
X79825000Y-66925000D01*
X80560000Y-78990000D02*
X80560000Y-79800000D01*
X79825000Y-66925000D02*
X79800000Y-66900000D01*
D33*
X82590000Y-61125000D02*
X82965000Y-60750000D01*
D29*
%TO.N,/RX1*%
X70291000Y-69600000D02*
X63025000Y-69600000D01*
X79350000Y-71150000D02*
X71841000Y-71150000D01*
X63025000Y-69600000D02*
X55085000Y-77540000D01*
X79800000Y-71600000D02*
X79350000Y-71150000D01*
X71841000Y-71150000D02*
X70291000Y-69600000D01*
X80975000Y-71600000D02*
X79800000Y-71600000D01*
%TO.N,/PICO_SDA*%
X75699000Y-56000000D02*
X76200000Y-56501000D01*
D33*
X81290000Y-65425000D02*
X80290000Y-65425000D01*
X81590000Y-65125000D02*
X81290000Y-65425000D01*
D29*
X55085000Y-52140000D02*
X57160000Y-52140000D01*
X76200000Y-56501000D02*
X76200000Y-61350000D01*
X76200000Y-61350000D02*
X80200000Y-65350000D01*
X57160000Y-52140000D02*
X61020000Y-56000000D01*
X61020000Y-56000000D02*
X75699000Y-56000000D01*
%TO.N,/PICO_SCL*%
X58500000Y-56800000D02*
X70400000Y-56800000D01*
D31*
X78100000Y-60600000D02*
X79450000Y-61950000D01*
D29*
X56380000Y-54680000D02*
X58500000Y-56800000D01*
X56380000Y-54680000D02*
X55085000Y-54680000D01*
X79650000Y-61900000D02*
X79700000Y-61950000D01*
X81215000Y-61950000D02*
X81590000Y-62325000D01*
X79700000Y-61950000D02*
X81215000Y-61950000D01*
D31*
X79450000Y-61950000D02*
X79700000Y-61950000D01*
%TD*%
M02*
