%TF.GenerationSoftware,KiCad,Pcbnew,8.99.0-1891-ge2bd76bdce*%
%TF.CreationDate,2024-09-02T10:31:20+03:00*%
%TF.ProjectId,diagnostic_tester,64696167-6e6f-4737-9469-635f74657374,rev?*%
%TF.SameCoordinates,Original*%
%TF.FileFunction,Soldermask,Top*%
%TF.FilePolarity,Negative*%
%FSLAX46Y46*%
G04 Gerber Fmt 4.6, Leading zero omitted, Abs format (unit mm)*
G04 Created by KiCad (PCBNEW 8.99.0-1891-ge2bd76bdce) date 2024-09-02 10:31:20*
%MOMM*%
%LPD*%
G01*
G04 APERTURE LIST*
G04 Aperture macros list*
%AMRoundRect*
0 Rectangle with rounded corners*
0 $1 Rounding radius*
0 $2 $3 $4 $5 $6 $7 $8 $9 X,Y pos of 4 corners*
0 Add a 4 corners polygon primitive as box body*
4,1,4,$2,$3,$4,$5,$6,$7,$8,$9,$2,$3,0*
0 Add four circle primitives for the rounded corners*
1,1,$1+$1,$2,$3*
1,1,$1+$1,$4,$5*
1,1,$1+$1,$6,$7*
1,1,$1+$1,$8,$9*
0 Add four rect primitives between the rounded corners*
20,1,$1+$1,$2,$3,$4,$5,0*
20,1,$1+$1,$4,$5,$6,$7,0*
20,1,$1+$1,$6,$7,$8,$9,0*
20,1,$1+$1,$8,$9,$2,$3,0*%
G04 Aperture macros list end*
%ADD10C,3.000000*%
%ADD11RoundRect,0.250001X-1.599999X1.099999X-1.599999X-1.099999X1.599999X-1.099999X1.599999X1.099999X0*%
%ADD12O,3.700000X2.700000*%
%ADD13C,2.000000*%
%ADD14RoundRect,0.200000X0.275000X-0.200000X0.275000X0.200000X-0.275000X0.200000X-0.275000X-0.200000X0*%
%ADD15C,3.200000*%
%ADD16R,1.700000X1.700000*%
%ADD17O,1.700000X1.700000*%
%ADD18RoundRect,0.225000X-0.225000X-0.250000X0.225000X-0.250000X0.225000X0.250000X-0.225000X0.250000X0*%
%ADD19RoundRect,0.225000X0.250000X-0.225000X0.250000X0.225000X-0.250000X0.225000X-0.250000X-0.225000X0*%
%ADD20RoundRect,0.200000X0.200000X0.275000X-0.200000X0.275000X-0.200000X-0.275000X0.200000X-0.275000X0*%
%ADD21RoundRect,0.200000X-0.200000X-0.275000X0.200000X-0.275000X0.200000X0.275000X-0.200000X0.275000X0*%
%ADD22R,0.300000X0.850000*%
%ADD23R,1.500000X1.500000*%
%ADD24C,1.500000*%
%ADD25RoundRect,0.225000X0.225000X0.250000X-0.225000X0.250000X-0.225000X-0.250000X0.225000X-0.250000X0*%
%ADD26O,1.800000X1.800000*%
%ADD27O,1.500000X1.500000*%
%ADD28R,3.500000X1.700000*%
%ADD29R,1.700000X3.500000*%
G04 APERTURE END LIST*
D10*
%TO.C,J4*%
X112585000Y-63790000D03*
X112585000Y-80590000D03*
D11*
X105285000Y-63790000D03*
D12*
X105285000Y-67990000D03*
X105285000Y-72190000D03*
X105285000Y-76390000D03*
X105285000Y-80590000D03*
X99785000Y-63790000D03*
X99785000Y-67990000D03*
X99785000Y-72190000D03*
X99785000Y-76390000D03*
X99785000Y-80590000D03*
%TD*%
D13*
%TO.C,SW1*%
X89500000Y-81500000D03*
X83000000Y-81500000D03*
X89500000Y-77000000D03*
X83000000Y-77000000D03*
%TD*%
D14*
%TO.C,R6*%
X79700000Y-61950000D03*
X79700000Y-60300000D03*
%TD*%
D15*
%TO.C,H1*%
X104940000Y-39450000D03*
%TD*%
%TO.C,H3*%
X46590000Y-87630000D03*
%TD*%
D16*
%TO.C,J1*%
X93000000Y-63400000D03*
D17*
X90460000Y-63400000D03*
X87920000Y-63400000D03*
X85380000Y-63400000D03*
%TD*%
D18*
%TO.C,C3*%
X81325000Y-60420000D03*
X82875000Y-60420000D03*
%TD*%
D19*
%TO.C,C1*%
X80540000Y-81495000D03*
X80540000Y-79945000D03*
%TD*%
D20*
%TO.C,R4*%
X82620000Y-71600000D03*
X80970000Y-71600000D03*
%TD*%
D14*
%TO.C,R5*%
X80200000Y-65350000D03*
X80200000Y-63700000D03*
%TD*%
D21*
%TO.C,R8*%
X88170000Y-58910000D03*
X89820000Y-58910000D03*
%TD*%
D22*
%TO.C,U1*%
X83090000Y-62170000D03*
X82590000Y-62170000D03*
X82090000Y-62170000D03*
X81590000Y-62170000D03*
X81590000Y-65270000D03*
X82090000Y-65270000D03*
X82590000Y-65270000D03*
X83090000Y-65270000D03*
%TD*%
D23*
%TO.C,U2*%
X89580000Y-51500000D03*
D24*
X87040000Y-51500000D03*
X84500000Y-51500000D03*
%TD*%
D16*
%TO.C,J2*%
X92970000Y-69320000D03*
D17*
X90430000Y-69320000D03*
X87890000Y-69320000D03*
X85350000Y-69320000D03*
%TD*%
D10*
%TO.C,J3*%
X112585000Y-47250000D03*
X112585000Y-55650000D03*
D11*
X105285000Y-47250000D03*
D12*
X105285000Y-51450000D03*
X105285000Y-55650000D03*
X99785000Y-47250000D03*
X99785000Y-51450000D03*
X99785000Y-55650000D03*
%TD*%
D20*
%TO.C,R1*%
X85885000Y-44100000D03*
X84235000Y-44100000D03*
%TD*%
%TO.C,R2*%
X83430000Y-47600000D03*
X81780000Y-47600000D03*
%TD*%
D25*
%TO.C,C2*%
X82610000Y-66960000D03*
X81060000Y-66960000D03*
%TD*%
D15*
%TO.C,H4*%
X104960000Y-87660000D03*
%TD*%
D21*
%TO.C,R7*%
X88175000Y-60600000D03*
X89825000Y-60600000D03*
%TD*%
D20*
%TO.C,R3*%
X82620000Y-69900000D03*
X80970000Y-69900000D03*
%TD*%
D26*
%TO.C,U3*%
X61250000Y-39570000D03*
D27*
X61550000Y-42600000D03*
X66400000Y-42600000D03*
D26*
X66700000Y-39570000D03*
D17*
X55085000Y-39440000D03*
D28*
X54185000Y-39440000D03*
D17*
X55085000Y-41980000D03*
D28*
X54185000Y-41980000D03*
D16*
X55085000Y-44520000D03*
D28*
X54185000Y-44520000D03*
D17*
X55085000Y-47060000D03*
D28*
X54185000Y-47060000D03*
D17*
X55085000Y-49600000D03*
D28*
X54185000Y-49600000D03*
D17*
X55085000Y-52140000D03*
D28*
X54185000Y-52140000D03*
D17*
X55085000Y-54680000D03*
D28*
X54185000Y-54680000D03*
D16*
X55085000Y-57220000D03*
D28*
X54185000Y-57220000D03*
D17*
X55085000Y-59760000D03*
D28*
X54185000Y-59760000D03*
D17*
X55085000Y-62300000D03*
D28*
X54185000Y-62300000D03*
D17*
X55085000Y-64840000D03*
D28*
X54185000Y-64840000D03*
D17*
X55085000Y-67380000D03*
D28*
X54185000Y-67380000D03*
D16*
X55085000Y-69920000D03*
D28*
X54185000Y-69920000D03*
D17*
X55085000Y-72460000D03*
D28*
X54185000Y-72460000D03*
D17*
X55085000Y-75000000D03*
D28*
X54185000Y-75000000D03*
D17*
X55085000Y-77540000D03*
D28*
X54185000Y-77540000D03*
D17*
X55085000Y-80080000D03*
D28*
X54185000Y-80080000D03*
D16*
X55085000Y-82620000D03*
D28*
X54185000Y-82620000D03*
D17*
X55085000Y-85160000D03*
D28*
X54185000Y-85160000D03*
D17*
X55085000Y-87700000D03*
D28*
X54185000Y-87700000D03*
D17*
X72865000Y-87700000D03*
D28*
X73765000Y-87700000D03*
D17*
X72865000Y-85160000D03*
D28*
X73765000Y-85160000D03*
D16*
X72865000Y-82620000D03*
D28*
X73765000Y-82620000D03*
D17*
X72865000Y-80080000D03*
D28*
X73765000Y-80080000D03*
D17*
X72865000Y-77540000D03*
D28*
X73765000Y-77540000D03*
D17*
X72865000Y-75000000D03*
D28*
X73765000Y-75000000D03*
D17*
X72865000Y-72460000D03*
D28*
X73765000Y-72460000D03*
D16*
X72865000Y-69920000D03*
D28*
X73765000Y-69920000D03*
D17*
X72865000Y-67380000D03*
D28*
X73765000Y-67380000D03*
D17*
X72865000Y-64840000D03*
D28*
X73765000Y-64840000D03*
D17*
X72865000Y-62300000D03*
D28*
X73765000Y-62300000D03*
D17*
X72865000Y-59760000D03*
D28*
X73765000Y-59760000D03*
D16*
X72865000Y-57220000D03*
D28*
X73765000Y-57220000D03*
D17*
X72865000Y-54680000D03*
D28*
X73765000Y-54680000D03*
D17*
X72865000Y-52140000D03*
D28*
X73765000Y-52140000D03*
D17*
X72865000Y-49600000D03*
D28*
X73765000Y-49600000D03*
D17*
X72865000Y-47060000D03*
D28*
X73765000Y-47060000D03*
D16*
X72865000Y-44520000D03*
D28*
X73765000Y-44520000D03*
D17*
X72865000Y-41980000D03*
D28*
X73765000Y-41980000D03*
D17*
X72865000Y-39440000D03*
D28*
X73765000Y-39440000D03*
D17*
X61435000Y-87470000D03*
D29*
X61435000Y-88370000D03*
D16*
X63975000Y-87470000D03*
D29*
X63975000Y-88370000D03*
D17*
X66515000Y-87470000D03*
D29*
X66515000Y-88370000D03*
%TD*%
D15*
%TO.C,H2*%
X46560000Y-39440000D03*
%TD*%
M02*
