%TF.GenerationSoftware,KiCad,Pcbnew,8.99.0-1891-ge2bd76bdce*%
%TF.CreationDate,2024-09-02T10:31:20+03:00*%
%TF.ProjectId,diagnostic_tester,64696167-6e6f-4737-9469-635f74657374,rev?*%
%TF.SameCoordinates,Original*%
%TF.FileFunction,Legend,Top*%
%TF.FilePolarity,Positive*%
%FSLAX46Y46*%
G04 Gerber Fmt 4.6, Leading zero omitted, Abs format (unit mm)*
G04 Created by KiCad (PCBNEW 8.99.0-1891-ge2bd76bdce) date 2024-09-02 10:31:20*
%MOMM*%
%LPD*%
G01*
G04 APERTURE LIST*
%ADD10C,0.200000*%
%ADD11C,0.150000*%
%ADD12C,0.120000*%
G04 APERTURE END LIST*
D10*
X90503006Y-64951695D02*
X90122054Y-64951695D01*
X90122054Y-64951695D02*
X90083958Y-65332647D01*
X90083958Y-65332647D02*
X90122054Y-65294552D01*
X90122054Y-65294552D02*
X90198244Y-65256457D01*
X90198244Y-65256457D02*
X90388720Y-65256457D01*
X90388720Y-65256457D02*
X90464911Y-65294552D01*
X90464911Y-65294552D02*
X90503006Y-65332647D01*
X90503006Y-65332647D02*
X90541101Y-65408838D01*
X90541101Y-65408838D02*
X90541101Y-65599314D01*
X90541101Y-65599314D02*
X90503006Y-65675504D01*
X90503006Y-65675504D02*
X90464911Y-65713600D01*
X90464911Y-65713600D02*
X90388720Y-65751695D01*
X90388720Y-65751695D02*
X90198244Y-65751695D01*
X90198244Y-65751695D02*
X90122054Y-65713600D01*
X90122054Y-65713600D02*
X90083958Y-65675504D01*
X90769673Y-64951695D02*
X91036340Y-65751695D01*
X91036340Y-65751695D02*
X91303006Y-64951695D01*
X92401101Y-64989790D02*
X92324911Y-64951695D01*
X92324911Y-64951695D02*
X92210625Y-64951695D01*
X92210625Y-64951695D02*
X92096339Y-64989790D01*
X92096339Y-64989790D02*
X92020149Y-65065980D01*
X92020149Y-65065980D02*
X91982054Y-65142171D01*
X91982054Y-65142171D02*
X91943958Y-65294552D01*
X91943958Y-65294552D02*
X91943958Y-65408838D01*
X91943958Y-65408838D02*
X91982054Y-65561219D01*
X91982054Y-65561219D02*
X92020149Y-65637409D01*
X92020149Y-65637409D02*
X92096339Y-65713600D01*
X92096339Y-65713600D02*
X92210625Y-65751695D01*
X92210625Y-65751695D02*
X92286816Y-65751695D01*
X92286816Y-65751695D02*
X92401101Y-65713600D01*
X92401101Y-65713600D02*
X92439197Y-65675504D01*
X92439197Y-65675504D02*
X92439197Y-65408838D01*
X92439197Y-65408838D02*
X92286816Y-65408838D01*
X92782054Y-65751695D02*
X92782054Y-64951695D01*
X92782054Y-64951695D02*
X93239197Y-65751695D01*
X93239197Y-65751695D02*
X93239197Y-64951695D01*
X93620149Y-65751695D02*
X93620149Y-64951695D01*
X93620149Y-64951695D02*
X93810625Y-64951695D01*
X93810625Y-64951695D02*
X93924911Y-64989790D01*
X93924911Y-64989790D02*
X94001101Y-65065980D01*
X94001101Y-65065980D02*
X94039196Y-65142171D01*
X94039196Y-65142171D02*
X94077292Y-65294552D01*
X94077292Y-65294552D02*
X94077292Y-65408838D01*
X94077292Y-65408838D02*
X94039196Y-65561219D01*
X94039196Y-65561219D02*
X94001101Y-65637409D01*
X94001101Y-65637409D02*
X93924911Y-65713600D01*
X93924911Y-65713600D02*
X93810625Y-65751695D01*
X93810625Y-65751695D02*
X93620149Y-65751695D01*
X89533958Y-71037885D02*
X89572054Y-70999790D01*
X89572054Y-70999790D02*
X89648244Y-70961695D01*
X89648244Y-70961695D02*
X89838720Y-70961695D01*
X89838720Y-70961695D02*
X89914911Y-70999790D01*
X89914911Y-70999790D02*
X89953006Y-71037885D01*
X89953006Y-71037885D02*
X89991101Y-71114076D01*
X89991101Y-71114076D02*
X89991101Y-71190266D01*
X89991101Y-71190266D02*
X89953006Y-71304552D01*
X89953006Y-71304552D02*
X89495863Y-71761695D01*
X89495863Y-71761695D02*
X89991101Y-71761695D01*
X90676816Y-71228361D02*
X90676816Y-71761695D01*
X90486340Y-70923600D02*
X90295863Y-71495028D01*
X90295863Y-71495028D02*
X90791102Y-71495028D01*
X90981578Y-70961695D02*
X91248245Y-71761695D01*
X91248245Y-71761695D02*
X91514911Y-70961695D01*
X92431101Y-71009790D02*
X92354911Y-70971695D01*
X92354911Y-70971695D02*
X92240625Y-70971695D01*
X92240625Y-70971695D02*
X92126339Y-71009790D01*
X92126339Y-71009790D02*
X92050149Y-71085980D01*
X92050149Y-71085980D02*
X92012054Y-71162171D01*
X92012054Y-71162171D02*
X91973958Y-71314552D01*
X91973958Y-71314552D02*
X91973958Y-71428838D01*
X91973958Y-71428838D02*
X92012054Y-71581219D01*
X92012054Y-71581219D02*
X92050149Y-71657409D01*
X92050149Y-71657409D02*
X92126339Y-71733600D01*
X92126339Y-71733600D02*
X92240625Y-71771695D01*
X92240625Y-71771695D02*
X92316816Y-71771695D01*
X92316816Y-71771695D02*
X92431101Y-71733600D01*
X92431101Y-71733600D02*
X92469197Y-71695504D01*
X92469197Y-71695504D02*
X92469197Y-71428838D01*
X92469197Y-71428838D02*
X92316816Y-71428838D01*
X92812054Y-71771695D02*
X92812054Y-70971695D01*
X92812054Y-70971695D02*
X93269197Y-71771695D01*
X93269197Y-71771695D02*
X93269197Y-70971695D01*
X93650149Y-71771695D02*
X93650149Y-70971695D01*
X93650149Y-70971695D02*
X93840625Y-70971695D01*
X93840625Y-70971695D02*
X93954911Y-71009790D01*
X93954911Y-71009790D02*
X94031101Y-71085980D01*
X94031101Y-71085980D02*
X94069196Y-71162171D01*
X94069196Y-71162171D02*
X94107292Y-71314552D01*
X94107292Y-71314552D02*
X94107292Y-71428838D01*
X94107292Y-71428838D02*
X94069196Y-71581219D01*
X94069196Y-71581219D02*
X94031101Y-71657409D01*
X94031101Y-71657409D02*
X93954911Y-71733600D01*
X93954911Y-71733600D02*
X93840625Y-71771695D01*
X93840625Y-71771695D02*
X93650149Y-71771695D01*
X87749197Y-71771695D02*
X87482530Y-71390742D01*
X87292054Y-71771695D02*
X87292054Y-70971695D01*
X87292054Y-70971695D02*
X87596816Y-70971695D01*
X87596816Y-70971695D02*
X87673006Y-71009790D01*
X87673006Y-71009790D02*
X87711101Y-71047885D01*
X87711101Y-71047885D02*
X87749197Y-71124076D01*
X87749197Y-71124076D02*
X87749197Y-71238361D01*
X87749197Y-71238361D02*
X87711101Y-71314552D01*
X87711101Y-71314552D02*
X87673006Y-71352647D01*
X87673006Y-71352647D02*
X87596816Y-71390742D01*
X87596816Y-71390742D02*
X87292054Y-71390742D01*
X88015863Y-70971695D02*
X88549197Y-71771695D01*
X88549197Y-70971695D02*
X88015863Y-71771695D01*
X84483958Y-65713600D02*
X84598244Y-65751695D01*
X84598244Y-65751695D02*
X84788720Y-65751695D01*
X84788720Y-65751695D02*
X84864911Y-65713600D01*
X84864911Y-65713600D02*
X84903006Y-65675504D01*
X84903006Y-65675504D02*
X84941101Y-65599314D01*
X84941101Y-65599314D02*
X84941101Y-65523123D01*
X84941101Y-65523123D02*
X84903006Y-65446933D01*
X84903006Y-65446933D02*
X84864911Y-65408838D01*
X84864911Y-65408838D02*
X84788720Y-65370742D01*
X84788720Y-65370742D02*
X84636339Y-65332647D01*
X84636339Y-65332647D02*
X84560149Y-65294552D01*
X84560149Y-65294552D02*
X84522054Y-65256457D01*
X84522054Y-65256457D02*
X84483958Y-65180266D01*
X84483958Y-65180266D02*
X84483958Y-65104076D01*
X84483958Y-65104076D02*
X84522054Y-65027885D01*
X84522054Y-65027885D02*
X84560149Y-64989790D01*
X84560149Y-64989790D02*
X84636339Y-64951695D01*
X84636339Y-64951695D02*
X84826816Y-64951695D01*
X84826816Y-64951695D02*
X84941101Y-64989790D01*
X85741102Y-65675504D02*
X85703006Y-65713600D01*
X85703006Y-65713600D02*
X85588721Y-65751695D01*
X85588721Y-65751695D02*
X85512530Y-65751695D01*
X85512530Y-65751695D02*
X85398244Y-65713600D01*
X85398244Y-65713600D02*
X85322054Y-65637409D01*
X85322054Y-65637409D02*
X85283959Y-65561219D01*
X85283959Y-65561219D02*
X85245863Y-65408838D01*
X85245863Y-65408838D02*
X85245863Y-65294552D01*
X85245863Y-65294552D02*
X85283959Y-65142171D01*
X85283959Y-65142171D02*
X85322054Y-65065980D01*
X85322054Y-65065980D02*
X85398244Y-64989790D01*
X85398244Y-64989790D02*
X85512530Y-64951695D01*
X85512530Y-64951695D02*
X85588721Y-64951695D01*
X85588721Y-64951695D02*
X85703006Y-64989790D01*
X85703006Y-64989790D02*
X85741102Y-65027885D01*
X86464911Y-65751695D02*
X86083959Y-65751695D01*
X86083959Y-65751695D02*
X86083959Y-64951695D01*
X86272054Y-73119600D02*
X86414911Y-73167219D01*
X86414911Y-73167219D02*
X86653006Y-73167219D01*
X86653006Y-73167219D02*
X86748244Y-73119600D01*
X86748244Y-73119600D02*
X86795863Y-73071980D01*
X86795863Y-73071980D02*
X86843482Y-72976742D01*
X86843482Y-72976742D02*
X86843482Y-72881504D01*
X86843482Y-72881504D02*
X86795863Y-72786266D01*
X86795863Y-72786266D02*
X86748244Y-72738647D01*
X86748244Y-72738647D02*
X86653006Y-72691028D01*
X86653006Y-72691028D02*
X86462530Y-72643409D01*
X86462530Y-72643409D02*
X86367292Y-72595790D01*
X86367292Y-72595790D02*
X86319673Y-72548171D01*
X86319673Y-72548171D02*
X86272054Y-72452933D01*
X86272054Y-72452933D02*
X86272054Y-72357695D01*
X86272054Y-72357695D02*
X86319673Y-72262457D01*
X86319673Y-72262457D02*
X86367292Y-72214838D01*
X86367292Y-72214838D02*
X86462530Y-72167219D01*
X86462530Y-72167219D02*
X86700625Y-72167219D01*
X86700625Y-72167219D02*
X86843482Y-72214838D01*
X87272054Y-73167219D02*
X87272054Y-72167219D01*
X87272054Y-72167219D02*
X87843482Y-73167219D01*
X87843482Y-73167219D02*
X87843482Y-72167219D01*
X88319673Y-73167219D02*
X88319673Y-72167219D01*
X89129196Y-72643409D02*
X88795863Y-72643409D01*
X88795863Y-73167219D02*
X88795863Y-72167219D01*
X88795863Y-72167219D02*
X89272053Y-72167219D01*
X89986339Y-72643409D02*
X89653006Y-72643409D01*
X89653006Y-73167219D02*
X89653006Y-72167219D01*
X89653006Y-72167219D02*
X90129196Y-72167219D01*
X90510149Y-72643409D02*
X90843482Y-72643409D01*
X90986339Y-73167219D02*
X90510149Y-73167219D01*
X90510149Y-73167219D02*
X90510149Y-72167219D01*
X90510149Y-72167219D02*
X90986339Y-72167219D01*
X91986339Y-73167219D02*
X91653006Y-72691028D01*
X91414911Y-73167219D02*
X91414911Y-72167219D01*
X91414911Y-72167219D02*
X91795863Y-72167219D01*
X91795863Y-72167219D02*
X91891101Y-72214838D01*
X91891101Y-72214838D02*
X91938720Y-72262457D01*
X91938720Y-72262457D02*
X91986339Y-72357695D01*
X91986339Y-72357695D02*
X91986339Y-72500552D01*
X91986339Y-72500552D02*
X91938720Y-72595790D01*
X91938720Y-72595790D02*
X91891101Y-72643409D01*
X91891101Y-72643409D02*
X91795863Y-72691028D01*
X91795863Y-72691028D02*
X91414911Y-72691028D01*
X88425863Y-67357219D02*
X87949673Y-67357219D01*
X87949673Y-67357219D02*
X87949673Y-66357219D01*
X89330625Y-67261980D02*
X89283006Y-67309600D01*
X89283006Y-67309600D02*
X89140149Y-67357219D01*
X89140149Y-67357219D02*
X89044911Y-67357219D01*
X89044911Y-67357219D02*
X88902054Y-67309600D01*
X88902054Y-67309600D02*
X88806816Y-67214361D01*
X88806816Y-67214361D02*
X88759197Y-67119123D01*
X88759197Y-67119123D02*
X88711578Y-66928647D01*
X88711578Y-66928647D02*
X88711578Y-66785790D01*
X88711578Y-66785790D02*
X88759197Y-66595314D01*
X88759197Y-66595314D02*
X88806816Y-66500076D01*
X88806816Y-66500076D02*
X88902054Y-66404838D01*
X88902054Y-66404838D02*
X89044911Y-66357219D01*
X89044911Y-66357219D02*
X89140149Y-66357219D01*
X89140149Y-66357219D02*
X89283006Y-66404838D01*
X89283006Y-66404838D02*
X89330625Y-66452457D01*
X89759197Y-67357219D02*
X89759197Y-66357219D01*
X89759197Y-66357219D02*
X89997292Y-66357219D01*
X89997292Y-66357219D02*
X90140149Y-66404838D01*
X90140149Y-66404838D02*
X90235387Y-66500076D01*
X90235387Y-66500076D02*
X90283006Y-66595314D01*
X90283006Y-66595314D02*
X90330625Y-66785790D01*
X90330625Y-66785790D02*
X90330625Y-66928647D01*
X90330625Y-66928647D02*
X90283006Y-67119123D01*
X90283006Y-67119123D02*
X90235387Y-67214361D01*
X90235387Y-67214361D02*
X90140149Y-67309600D01*
X90140149Y-67309600D02*
X89997292Y-67357219D01*
X89997292Y-67357219D02*
X89759197Y-67357219D01*
X87083958Y-65713600D02*
X87198244Y-65751695D01*
X87198244Y-65751695D02*
X87388720Y-65751695D01*
X87388720Y-65751695D02*
X87464911Y-65713600D01*
X87464911Y-65713600D02*
X87503006Y-65675504D01*
X87503006Y-65675504D02*
X87541101Y-65599314D01*
X87541101Y-65599314D02*
X87541101Y-65523123D01*
X87541101Y-65523123D02*
X87503006Y-65446933D01*
X87503006Y-65446933D02*
X87464911Y-65408838D01*
X87464911Y-65408838D02*
X87388720Y-65370742D01*
X87388720Y-65370742D02*
X87236339Y-65332647D01*
X87236339Y-65332647D02*
X87160149Y-65294552D01*
X87160149Y-65294552D02*
X87122054Y-65256457D01*
X87122054Y-65256457D02*
X87083958Y-65180266D01*
X87083958Y-65180266D02*
X87083958Y-65104076D01*
X87083958Y-65104076D02*
X87122054Y-65027885D01*
X87122054Y-65027885D02*
X87160149Y-64989790D01*
X87160149Y-64989790D02*
X87236339Y-64951695D01*
X87236339Y-64951695D02*
X87426816Y-64951695D01*
X87426816Y-64951695D02*
X87541101Y-64989790D01*
X87883959Y-65751695D02*
X87883959Y-64951695D01*
X87883959Y-64951695D02*
X88074435Y-64951695D01*
X88074435Y-64951695D02*
X88188721Y-64989790D01*
X88188721Y-64989790D02*
X88264911Y-65065980D01*
X88264911Y-65065980D02*
X88303006Y-65142171D01*
X88303006Y-65142171D02*
X88341102Y-65294552D01*
X88341102Y-65294552D02*
X88341102Y-65408838D01*
X88341102Y-65408838D02*
X88303006Y-65561219D01*
X88303006Y-65561219D02*
X88264911Y-65637409D01*
X88264911Y-65637409D02*
X88188721Y-65713600D01*
X88188721Y-65713600D02*
X88074435Y-65751695D01*
X88074435Y-65751695D02*
X87883959Y-65751695D01*
X88645863Y-65523123D02*
X89026816Y-65523123D01*
X88569673Y-65751695D02*
X88836340Y-64951695D01*
X88836340Y-64951695D02*
X89103006Y-65751695D01*
X84887768Y-70971695D02*
X85344911Y-70971695D01*
X85116339Y-71771695D02*
X85116339Y-70971695D01*
X85535387Y-70971695D02*
X86068721Y-71771695D01*
X86068721Y-70971695D02*
X85535387Y-71771695D01*
D11*
X106796666Y-59804819D02*
X106796666Y-60519104D01*
X106796666Y-60519104D02*
X106749047Y-60661961D01*
X106749047Y-60661961D02*
X106653809Y-60757200D01*
X106653809Y-60757200D02*
X106510952Y-60804819D01*
X106510952Y-60804819D02*
X106415714Y-60804819D01*
X107701428Y-60138152D02*
X107701428Y-60804819D01*
X107463333Y-59757200D02*
X107225238Y-60471485D01*
X107225238Y-60471485D02*
X107844285Y-60471485D01*
X92147200Y-80293332D02*
X92194819Y-80150475D01*
X92194819Y-80150475D02*
X92194819Y-79912380D01*
X92194819Y-79912380D02*
X92147200Y-79817142D01*
X92147200Y-79817142D02*
X92099580Y-79769523D01*
X92099580Y-79769523D02*
X92004342Y-79721904D01*
X92004342Y-79721904D02*
X91909104Y-79721904D01*
X91909104Y-79721904D02*
X91813866Y-79769523D01*
X91813866Y-79769523D02*
X91766247Y-79817142D01*
X91766247Y-79817142D02*
X91718628Y-79912380D01*
X91718628Y-79912380D02*
X91671009Y-80102856D01*
X91671009Y-80102856D02*
X91623390Y-80198094D01*
X91623390Y-80198094D02*
X91575771Y-80245713D01*
X91575771Y-80245713D02*
X91480533Y-80293332D01*
X91480533Y-80293332D02*
X91385295Y-80293332D01*
X91385295Y-80293332D02*
X91290057Y-80245713D01*
X91290057Y-80245713D02*
X91242438Y-80198094D01*
X91242438Y-80198094D02*
X91194819Y-80102856D01*
X91194819Y-80102856D02*
X91194819Y-79864761D01*
X91194819Y-79864761D02*
X91242438Y-79721904D01*
X91194819Y-79388570D02*
X92194819Y-79150475D01*
X92194819Y-79150475D02*
X91480533Y-78959999D01*
X91480533Y-78959999D02*
X92194819Y-78769523D01*
X92194819Y-78769523D02*
X91194819Y-78531428D01*
X92194819Y-77626666D02*
X92194819Y-78198094D01*
X92194819Y-77912380D02*
X91194819Y-77912380D01*
X91194819Y-77912380D02*
X91337676Y-78007618D01*
X91337676Y-78007618D02*
X91432914Y-78102856D01*
X91432914Y-78102856D02*
X91480533Y-78198094D01*
X80114819Y-58856666D02*
X79638628Y-59189999D01*
X80114819Y-59428094D02*
X79114819Y-59428094D01*
X79114819Y-59428094D02*
X79114819Y-59047142D01*
X79114819Y-59047142D02*
X79162438Y-58951904D01*
X79162438Y-58951904D02*
X79210057Y-58904285D01*
X79210057Y-58904285D02*
X79305295Y-58856666D01*
X79305295Y-58856666D02*
X79448152Y-58856666D01*
X79448152Y-58856666D02*
X79543390Y-58904285D01*
X79543390Y-58904285D02*
X79591009Y-58951904D01*
X79591009Y-58951904D02*
X79638628Y-59047142D01*
X79638628Y-59047142D02*
X79638628Y-59428094D01*
X79114819Y-57999523D02*
X79114819Y-58189999D01*
X79114819Y-58189999D02*
X79162438Y-58285237D01*
X79162438Y-58285237D02*
X79210057Y-58332856D01*
X79210057Y-58332856D02*
X79352914Y-58428094D01*
X79352914Y-58428094D02*
X79543390Y-58475713D01*
X79543390Y-58475713D02*
X79924342Y-58475713D01*
X79924342Y-58475713D02*
X80019580Y-58428094D01*
X80019580Y-58428094D02*
X80067200Y-58380475D01*
X80067200Y-58380475D02*
X80114819Y-58285237D01*
X80114819Y-58285237D02*
X80114819Y-58094761D01*
X80114819Y-58094761D02*
X80067200Y-57999523D01*
X80067200Y-57999523D02*
X80019580Y-57951904D01*
X80019580Y-57951904D02*
X79924342Y-57904285D01*
X79924342Y-57904285D02*
X79686247Y-57904285D01*
X79686247Y-57904285D02*
X79591009Y-57951904D01*
X79591009Y-57951904D02*
X79543390Y-57999523D01*
X79543390Y-57999523D02*
X79495771Y-58094761D01*
X79495771Y-58094761D02*
X79495771Y-58285237D01*
X79495771Y-58285237D02*
X79543390Y-58380475D01*
X79543390Y-58380475D02*
X79591009Y-58428094D01*
X79591009Y-58428094D02*
X79686247Y-58475713D01*
X100118095Y-39844819D02*
X100118095Y-38844819D01*
X100118095Y-39321009D02*
X100689523Y-39321009D01*
X100689523Y-39844819D02*
X100689523Y-38844819D01*
X101689523Y-39844819D02*
X101118095Y-39844819D01*
X101403809Y-39844819D02*
X101403809Y-38844819D01*
X101403809Y-38844819D02*
X101308571Y-38987676D01*
X101308571Y-38987676D02*
X101213333Y-39082914D01*
X101213333Y-39082914D02*
X101118095Y-39130533D01*
X45828095Y-84334819D02*
X45828095Y-83334819D01*
X45828095Y-83811009D02*
X46399523Y-83811009D01*
X46399523Y-84334819D02*
X46399523Y-83334819D01*
X46780476Y-83334819D02*
X47399523Y-83334819D01*
X47399523Y-83334819D02*
X47066190Y-83715771D01*
X47066190Y-83715771D02*
X47209047Y-83715771D01*
X47209047Y-83715771D02*
X47304285Y-83763390D01*
X47304285Y-83763390D02*
X47351904Y-83811009D01*
X47351904Y-83811009D02*
X47399523Y-83906247D01*
X47399523Y-83906247D02*
X47399523Y-84144342D01*
X47399523Y-84144342D02*
X47351904Y-84239580D01*
X47351904Y-84239580D02*
X47304285Y-84287200D01*
X47304285Y-84287200D02*
X47209047Y-84334819D01*
X47209047Y-84334819D02*
X46923333Y-84334819D01*
X46923333Y-84334819D02*
X46828095Y-84287200D01*
X46828095Y-84287200D02*
X46780476Y-84239580D01*
X95054819Y-63723333D02*
X95769104Y-63723333D01*
X95769104Y-63723333D02*
X95911961Y-63770952D01*
X95911961Y-63770952D02*
X96007200Y-63866190D01*
X96007200Y-63866190D02*
X96054819Y-64009047D01*
X96054819Y-64009047D02*
X96054819Y-64104285D01*
X96054819Y-62723333D02*
X96054819Y-63294761D01*
X96054819Y-63009047D02*
X95054819Y-63009047D01*
X95054819Y-63009047D02*
X95197676Y-63104285D01*
X95197676Y-63104285D02*
X95292914Y-63199523D01*
X95292914Y-63199523D02*
X95340533Y-63294761D01*
X84493333Y-60799580D02*
X84445714Y-60847200D01*
X84445714Y-60847200D02*
X84302857Y-60894819D01*
X84302857Y-60894819D02*
X84207619Y-60894819D01*
X84207619Y-60894819D02*
X84064762Y-60847200D01*
X84064762Y-60847200D02*
X83969524Y-60751961D01*
X83969524Y-60751961D02*
X83921905Y-60656723D01*
X83921905Y-60656723D02*
X83874286Y-60466247D01*
X83874286Y-60466247D02*
X83874286Y-60323390D01*
X83874286Y-60323390D02*
X83921905Y-60132914D01*
X83921905Y-60132914D02*
X83969524Y-60037676D01*
X83969524Y-60037676D02*
X84064762Y-59942438D01*
X84064762Y-59942438D02*
X84207619Y-59894819D01*
X84207619Y-59894819D02*
X84302857Y-59894819D01*
X84302857Y-59894819D02*
X84445714Y-59942438D01*
X84445714Y-59942438D02*
X84493333Y-59990057D01*
X84826667Y-59894819D02*
X85445714Y-59894819D01*
X85445714Y-59894819D02*
X85112381Y-60275771D01*
X85112381Y-60275771D02*
X85255238Y-60275771D01*
X85255238Y-60275771D02*
X85350476Y-60323390D01*
X85350476Y-60323390D02*
X85398095Y-60371009D01*
X85398095Y-60371009D02*
X85445714Y-60466247D01*
X85445714Y-60466247D02*
X85445714Y-60704342D01*
X85445714Y-60704342D02*
X85398095Y-60799580D01*
X85398095Y-60799580D02*
X85350476Y-60847200D01*
X85350476Y-60847200D02*
X85255238Y-60894819D01*
X85255238Y-60894819D02*
X84969524Y-60894819D01*
X84969524Y-60894819D02*
X84874286Y-60847200D01*
X84874286Y-60847200D02*
X84826667Y-60799580D01*
X80899580Y-83321666D02*
X80947200Y-83369285D01*
X80947200Y-83369285D02*
X80994819Y-83512142D01*
X80994819Y-83512142D02*
X80994819Y-83607380D01*
X80994819Y-83607380D02*
X80947200Y-83750237D01*
X80947200Y-83750237D02*
X80851961Y-83845475D01*
X80851961Y-83845475D02*
X80756723Y-83893094D01*
X80756723Y-83893094D02*
X80566247Y-83940713D01*
X80566247Y-83940713D02*
X80423390Y-83940713D01*
X80423390Y-83940713D02*
X80232914Y-83893094D01*
X80232914Y-83893094D02*
X80137676Y-83845475D01*
X80137676Y-83845475D02*
X80042438Y-83750237D01*
X80042438Y-83750237D02*
X79994819Y-83607380D01*
X79994819Y-83607380D02*
X79994819Y-83512142D01*
X79994819Y-83512142D02*
X80042438Y-83369285D01*
X80042438Y-83369285D02*
X80090057Y-83321666D01*
X80994819Y-82369285D02*
X80994819Y-82940713D01*
X80994819Y-82654999D02*
X79994819Y-82654999D01*
X79994819Y-82654999D02*
X80137676Y-82750237D01*
X80137676Y-82750237D02*
X80232914Y-82845475D01*
X80232914Y-82845475D02*
X80280533Y-82940713D01*
X81633333Y-74744819D02*
X81300000Y-74268628D01*
X81061905Y-74744819D02*
X81061905Y-73744819D01*
X81061905Y-73744819D02*
X81442857Y-73744819D01*
X81442857Y-73744819D02*
X81538095Y-73792438D01*
X81538095Y-73792438D02*
X81585714Y-73840057D01*
X81585714Y-73840057D02*
X81633333Y-73935295D01*
X81633333Y-73935295D02*
X81633333Y-74078152D01*
X81633333Y-74078152D02*
X81585714Y-74173390D01*
X81585714Y-74173390D02*
X81538095Y-74221009D01*
X81538095Y-74221009D02*
X81442857Y-74268628D01*
X81442857Y-74268628D02*
X81061905Y-74268628D01*
X82490476Y-74078152D02*
X82490476Y-74744819D01*
X82252381Y-73697200D02*
X82014286Y-74411485D01*
X82014286Y-74411485D02*
X82633333Y-74411485D01*
X79224819Y-64691666D02*
X78748628Y-65024999D01*
X79224819Y-65263094D02*
X78224819Y-65263094D01*
X78224819Y-65263094D02*
X78224819Y-64882142D01*
X78224819Y-64882142D02*
X78272438Y-64786904D01*
X78272438Y-64786904D02*
X78320057Y-64739285D01*
X78320057Y-64739285D02*
X78415295Y-64691666D01*
X78415295Y-64691666D02*
X78558152Y-64691666D01*
X78558152Y-64691666D02*
X78653390Y-64739285D01*
X78653390Y-64739285D02*
X78701009Y-64786904D01*
X78701009Y-64786904D02*
X78748628Y-64882142D01*
X78748628Y-64882142D02*
X78748628Y-65263094D01*
X78224819Y-63786904D02*
X78224819Y-64263094D01*
X78224819Y-64263094D02*
X78701009Y-64310713D01*
X78701009Y-64310713D02*
X78653390Y-64263094D01*
X78653390Y-64263094D02*
X78605771Y-64167856D01*
X78605771Y-64167856D02*
X78605771Y-63929761D01*
X78605771Y-63929761D02*
X78653390Y-63834523D01*
X78653390Y-63834523D02*
X78701009Y-63786904D01*
X78701009Y-63786904D02*
X78796247Y-63739285D01*
X78796247Y-63739285D02*
X79034342Y-63739285D01*
X79034342Y-63739285D02*
X79129580Y-63786904D01*
X79129580Y-63786904D02*
X79177200Y-63834523D01*
X79177200Y-63834523D02*
X79224819Y-63929761D01*
X79224819Y-63929761D02*
X79224819Y-64167856D01*
X79224819Y-64167856D02*
X79177200Y-64263094D01*
X79177200Y-64263094D02*
X79129580Y-64310713D01*
X91283333Y-59364819D02*
X90950000Y-58888628D01*
X90711905Y-59364819D02*
X90711905Y-58364819D01*
X90711905Y-58364819D02*
X91092857Y-58364819D01*
X91092857Y-58364819D02*
X91188095Y-58412438D01*
X91188095Y-58412438D02*
X91235714Y-58460057D01*
X91235714Y-58460057D02*
X91283333Y-58555295D01*
X91283333Y-58555295D02*
X91283333Y-58698152D01*
X91283333Y-58698152D02*
X91235714Y-58793390D01*
X91235714Y-58793390D02*
X91188095Y-58841009D01*
X91188095Y-58841009D02*
X91092857Y-58888628D01*
X91092857Y-58888628D02*
X90711905Y-58888628D01*
X91854762Y-58793390D02*
X91759524Y-58745771D01*
X91759524Y-58745771D02*
X91711905Y-58698152D01*
X91711905Y-58698152D02*
X91664286Y-58602914D01*
X91664286Y-58602914D02*
X91664286Y-58555295D01*
X91664286Y-58555295D02*
X91711905Y-58460057D01*
X91711905Y-58460057D02*
X91759524Y-58412438D01*
X91759524Y-58412438D02*
X91854762Y-58364819D01*
X91854762Y-58364819D02*
X92045238Y-58364819D01*
X92045238Y-58364819D02*
X92140476Y-58412438D01*
X92140476Y-58412438D02*
X92188095Y-58460057D01*
X92188095Y-58460057D02*
X92235714Y-58555295D01*
X92235714Y-58555295D02*
X92235714Y-58602914D01*
X92235714Y-58602914D02*
X92188095Y-58698152D01*
X92188095Y-58698152D02*
X92140476Y-58745771D01*
X92140476Y-58745771D02*
X92045238Y-58793390D01*
X92045238Y-58793390D02*
X91854762Y-58793390D01*
X91854762Y-58793390D02*
X91759524Y-58841009D01*
X91759524Y-58841009D02*
X91711905Y-58888628D01*
X91711905Y-58888628D02*
X91664286Y-58983866D01*
X91664286Y-58983866D02*
X91664286Y-59174342D01*
X91664286Y-59174342D02*
X91711905Y-59269580D01*
X91711905Y-59269580D02*
X91759524Y-59317200D01*
X91759524Y-59317200D02*
X91854762Y-59364819D01*
X91854762Y-59364819D02*
X92045238Y-59364819D01*
X92045238Y-59364819D02*
X92140476Y-59317200D01*
X92140476Y-59317200D02*
X92188095Y-59269580D01*
X92188095Y-59269580D02*
X92235714Y-59174342D01*
X92235714Y-59174342D02*
X92235714Y-58983866D01*
X92235714Y-58983866D02*
X92188095Y-58888628D01*
X92188095Y-58888628D02*
X92140476Y-58841009D01*
X92140476Y-58841009D02*
X92045238Y-58793390D01*
X83874819Y-67561904D02*
X84684342Y-67561904D01*
X84684342Y-67561904D02*
X84779580Y-67514285D01*
X84779580Y-67514285D02*
X84827200Y-67466666D01*
X84827200Y-67466666D02*
X84874819Y-67371428D01*
X84874819Y-67371428D02*
X84874819Y-67180952D01*
X84874819Y-67180952D02*
X84827200Y-67085714D01*
X84827200Y-67085714D02*
X84779580Y-67038095D01*
X84779580Y-67038095D02*
X84684342Y-66990476D01*
X84684342Y-66990476D02*
X83874819Y-66990476D01*
X84874819Y-65990476D02*
X84874819Y-66561904D01*
X84874819Y-66276190D02*
X83874819Y-66276190D01*
X83874819Y-66276190D02*
X84017676Y-66371428D01*
X84017676Y-66371428D02*
X84112914Y-66466666D01*
X84112914Y-66466666D02*
X84160533Y-66561904D01*
X79744819Y-57211904D02*
X80554342Y-57211904D01*
X80554342Y-57211904D02*
X80649580Y-57164285D01*
X80649580Y-57164285D02*
X80697200Y-57116666D01*
X80697200Y-57116666D02*
X80744819Y-57021428D01*
X80744819Y-57021428D02*
X80744819Y-56830952D01*
X80744819Y-56830952D02*
X80697200Y-56735714D01*
X80697200Y-56735714D02*
X80649580Y-56688095D01*
X80649580Y-56688095D02*
X80554342Y-56640476D01*
X80554342Y-56640476D02*
X79744819Y-56640476D01*
X79840057Y-56211904D02*
X79792438Y-56164285D01*
X79792438Y-56164285D02*
X79744819Y-56069047D01*
X79744819Y-56069047D02*
X79744819Y-55830952D01*
X79744819Y-55830952D02*
X79792438Y-55735714D01*
X79792438Y-55735714D02*
X79840057Y-55688095D01*
X79840057Y-55688095D02*
X79935295Y-55640476D01*
X79935295Y-55640476D02*
X80030533Y-55640476D01*
X80030533Y-55640476D02*
X80173390Y-55688095D01*
X80173390Y-55688095D02*
X80744819Y-56259523D01*
X80744819Y-56259523D02*
X80744819Y-55640476D01*
X95024819Y-69743333D02*
X95739104Y-69743333D01*
X95739104Y-69743333D02*
X95881961Y-69790952D01*
X95881961Y-69790952D02*
X95977200Y-69886190D01*
X95977200Y-69886190D02*
X96024819Y-70029047D01*
X96024819Y-70029047D02*
X96024819Y-70124285D01*
X95120057Y-69314761D02*
X95072438Y-69267142D01*
X95072438Y-69267142D02*
X95024819Y-69171904D01*
X95024819Y-69171904D02*
X95024819Y-68933809D01*
X95024819Y-68933809D02*
X95072438Y-68838571D01*
X95072438Y-68838571D02*
X95120057Y-68790952D01*
X95120057Y-68790952D02*
X95215295Y-68743333D01*
X95215295Y-68743333D02*
X95310533Y-68743333D01*
X95310533Y-68743333D02*
X95453390Y-68790952D01*
X95453390Y-68790952D02*
X96024819Y-69362380D01*
X96024819Y-69362380D02*
X96024819Y-68743333D01*
X106776666Y-43284819D02*
X106776666Y-43999104D01*
X106776666Y-43999104D02*
X106729047Y-44141961D01*
X106729047Y-44141961D02*
X106633809Y-44237200D01*
X106633809Y-44237200D02*
X106490952Y-44284819D01*
X106490952Y-44284819D02*
X106395714Y-44284819D01*
X107157619Y-43284819D02*
X107776666Y-43284819D01*
X107776666Y-43284819D02*
X107443333Y-43665771D01*
X107443333Y-43665771D02*
X107586190Y-43665771D01*
X107586190Y-43665771D02*
X107681428Y-43713390D01*
X107681428Y-43713390D02*
X107729047Y-43761009D01*
X107729047Y-43761009D02*
X107776666Y-43856247D01*
X107776666Y-43856247D02*
X107776666Y-44094342D01*
X107776666Y-44094342D02*
X107729047Y-44189580D01*
X107729047Y-44189580D02*
X107681428Y-44237200D01*
X107681428Y-44237200D02*
X107586190Y-44284819D01*
X107586190Y-44284819D02*
X107300476Y-44284819D01*
X107300476Y-44284819D02*
X107205238Y-44237200D01*
X107205238Y-44237200D02*
X107157619Y-44189580D01*
X87283333Y-44564819D02*
X86950000Y-44088628D01*
X86711905Y-44564819D02*
X86711905Y-43564819D01*
X86711905Y-43564819D02*
X87092857Y-43564819D01*
X87092857Y-43564819D02*
X87188095Y-43612438D01*
X87188095Y-43612438D02*
X87235714Y-43660057D01*
X87235714Y-43660057D02*
X87283333Y-43755295D01*
X87283333Y-43755295D02*
X87283333Y-43898152D01*
X87283333Y-43898152D02*
X87235714Y-43993390D01*
X87235714Y-43993390D02*
X87188095Y-44041009D01*
X87188095Y-44041009D02*
X87092857Y-44088628D01*
X87092857Y-44088628D02*
X86711905Y-44088628D01*
X88235714Y-44564819D02*
X87664286Y-44564819D01*
X87950000Y-44564819D02*
X87950000Y-43564819D01*
X87950000Y-43564819D02*
X87854762Y-43707676D01*
X87854762Y-43707676D02*
X87759524Y-43802914D01*
X87759524Y-43802914D02*
X87664286Y-43850533D01*
X81733333Y-46664819D02*
X81400000Y-46188628D01*
X81161905Y-46664819D02*
X81161905Y-45664819D01*
X81161905Y-45664819D02*
X81542857Y-45664819D01*
X81542857Y-45664819D02*
X81638095Y-45712438D01*
X81638095Y-45712438D02*
X81685714Y-45760057D01*
X81685714Y-45760057D02*
X81733333Y-45855295D01*
X81733333Y-45855295D02*
X81733333Y-45998152D01*
X81733333Y-45998152D02*
X81685714Y-46093390D01*
X81685714Y-46093390D02*
X81638095Y-46141009D01*
X81638095Y-46141009D02*
X81542857Y-46188628D01*
X81542857Y-46188628D02*
X81161905Y-46188628D01*
X82114286Y-45760057D02*
X82161905Y-45712438D01*
X82161905Y-45712438D02*
X82257143Y-45664819D01*
X82257143Y-45664819D02*
X82495238Y-45664819D01*
X82495238Y-45664819D02*
X82590476Y-45712438D01*
X82590476Y-45712438D02*
X82638095Y-45760057D01*
X82638095Y-45760057D02*
X82685714Y-45855295D01*
X82685714Y-45855295D02*
X82685714Y-45950533D01*
X82685714Y-45950533D02*
X82638095Y-46093390D01*
X82638095Y-46093390D02*
X82066667Y-46664819D01*
X82066667Y-46664819D02*
X82685714Y-46664819D01*
X81653333Y-68699580D02*
X81605714Y-68747200D01*
X81605714Y-68747200D02*
X81462857Y-68794819D01*
X81462857Y-68794819D02*
X81367619Y-68794819D01*
X81367619Y-68794819D02*
X81224762Y-68747200D01*
X81224762Y-68747200D02*
X81129524Y-68651961D01*
X81129524Y-68651961D02*
X81081905Y-68556723D01*
X81081905Y-68556723D02*
X81034286Y-68366247D01*
X81034286Y-68366247D02*
X81034286Y-68223390D01*
X81034286Y-68223390D02*
X81081905Y-68032914D01*
X81081905Y-68032914D02*
X81129524Y-67937676D01*
X81129524Y-67937676D02*
X81224762Y-67842438D01*
X81224762Y-67842438D02*
X81367619Y-67794819D01*
X81367619Y-67794819D02*
X81462857Y-67794819D01*
X81462857Y-67794819D02*
X81605714Y-67842438D01*
X81605714Y-67842438D02*
X81653333Y-67890057D01*
X82034286Y-67890057D02*
X82081905Y-67842438D01*
X82081905Y-67842438D02*
X82177143Y-67794819D01*
X82177143Y-67794819D02*
X82415238Y-67794819D01*
X82415238Y-67794819D02*
X82510476Y-67842438D01*
X82510476Y-67842438D02*
X82558095Y-67890057D01*
X82558095Y-67890057D02*
X82605714Y-67985295D01*
X82605714Y-67985295D02*
X82605714Y-68080533D01*
X82605714Y-68080533D02*
X82558095Y-68223390D01*
X82558095Y-68223390D02*
X81986667Y-68794819D01*
X81986667Y-68794819D02*
X82605714Y-68794819D01*
X99468095Y-88164819D02*
X99468095Y-87164819D01*
X99468095Y-87641009D02*
X100039523Y-87641009D01*
X100039523Y-88164819D02*
X100039523Y-87164819D01*
X100944285Y-87498152D02*
X100944285Y-88164819D01*
X100706190Y-87117200D02*
X100468095Y-87831485D01*
X100468095Y-87831485D02*
X101087142Y-87831485D01*
X91263333Y-61044819D02*
X90930000Y-60568628D01*
X90691905Y-61044819D02*
X90691905Y-60044819D01*
X90691905Y-60044819D02*
X91072857Y-60044819D01*
X91072857Y-60044819D02*
X91168095Y-60092438D01*
X91168095Y-60092438D02*
X91215714Y-60140057D01*
X91215714Y-60140057D02*
X91263333Y-60235295D01*
X91263333Y-60235295D02*
X91263333Y-60378152D01*
X91263333Y-60378152D02*
X91215714Y-60473390D01*
X91215714Y-60473390D02*
X91168095Y-60521009D01*
X91168095Y-60521009D02*
X91072857Y-60568628D01*
X91072857Y-60568628D02*
X90691905Y-60568628D01*
X91596667Y-60044819D02*
X92263333Y-60044819D01*
X92263333Y-60044819D02*
X91834762Y-61044819D01*
X81628333Y-73514819D02*
X81295000Y-73038628D01*
X81056905Y-73514819D02*
X81056905Y-72514819D01*
X81056905Y-72514819D02*
X81437857Y-72514819D01*
X81437857Y-72514819D02*
X81533095Y-72562438D01*
X81533095Y-72562438D02*
X81580714Y-72610057D01*
X81580714Y-72610057D02*
X81628333Y-72705295D01*
X81628333Y-72705295D02*
X81628333Y-72848152D01*
X81628333Y-72848152D02*
X81580714Y-72943390D01*
X81580714Y-72943390D02*
X81533095Y-72991009D01*
X81533095Y-72991009D02*
X81437857Y-73038628D01*
X81437857Y-73038628D02*
X81056905Y-73038628D01*
X81961667Y-72514819D02*
X82580714Y-72514819D01*
X82580714Y-72514819D02*
X82247381Y-72895771D01*
X82247381Y-72895771D02*
X82390238Y-72895771D01*
X82390238Y-72895771D02*
X82485476Y-72943390D01*
X82485476Y-72943390D02*
X82533095Y-72991009D01*
X82533095Y-72991009D02*
X82580714Y-73086247D01*
X82580714Y-73086247D02*
X82580714Y-73324342D01*
X82580714Y-73324342D02*
X82533095Y-73419580D01*
X82533095Y-73419580D02*
X82485476Y-73467200D01*
X82485476Y-73467200D02*
X82390238Y-73514819D01*
X82390238Y-73514819D02*
X82104524Y-73514819D01*
X82104524Y-73514819D02*
X82009286Y-73467200D01*
X82009286Y-73467200D02*
X81961667Y-73419580D01*
X63213095Y-63024819D02*
X63213095Y-63834342D01*
X63213095Y-63834342D02*
X63260714Y-63929580D01*
X63260714Y-63929580D02*
X63308333Y-63977200D01*
X63308333Y-63977200D02*
X63403571Y-64024819D01*
X63403571Y-64024819D02*
X63594047Y-64024819D01*
X63594047Y-64024819D02*
X63689285Y-63977200D01*
X63689285Y-63977200D02*
X63736904Y-63929580D01*
X63736904Y-63929580D02*
X63784523Y-63834342D01*
X63784523Y-63834342D02*
X63784523Y-63024819D01*
X64165476Y-63024819D02*
X64784523Y-63024819D01*
X64784523Y-63024819D02*
X64451190Y-63405771D01*
X64451190Y-63405771D02*
X64594047Y-63405771D01*
X64594047Y-63405771D02*
X64689285Y-63453390D01*
X64689285Y-63453390D02*
X64736904Y-63501009D01*
X64736904Y-63501009D02*
X64784523Y-63596247D01*
X64784523Y-63596247D02*
X64784523Y-63834342D01*
X64784523Y-63834342D02*
X64736904Y-63929580D01*
X64736904Y-63929580D02*
X64689285Y-63977200D01*
X64689285Y-63977200D02*
X64594047Y-64024819D01*
X64594047Y-64024819D02*
X64308333Y-64024819D01*
X64308333Y-64024819D02*
X64213095Y-63977200D01*
X64213095Y-63977200D02*
X64165476Y-63929580D01*
X75895749Y-42640242D02*
X76649996Y-43017366D01*
X76649996Y-43017366D02*
X76272873Y-42263118D01*
X76973245Y-42640242D02*
X77080995Y-42586367D01*
X77080995Y-42586367D02*
X77215682Y-42451680D01*
X77215682Y-42451680D02*
X77242619Y-42370868D01*
X77242619Y-42370868D02*
X77242619Y-42316993D01*
X77242619Y-42316993D02*
X77215682Y-42236181D01*
X77215682Y-42236181D02*
X77161807Y-42182306D01*
X77161807Y-42182306D02*
X77080995Y-42155369D01*
X77080995Y-42155369D02*
X77027120Y-42155369D01*
X77027120Y-42155369D02*
X76946308Y-42182306D01*
X76946308Y-42182306D02*
X76811621Y-42263118D01*
X76811621Y-42263118D02*
X76730808Y-42290056D01*
X76730808Y-42290056D02*
X76676934Y-42290056D01*
X76676934Y-42290056D02*
X76596121Y-42263118D01*
X76596121Y-42263118D02*
X76542247Y-42209244D01*
X76542247Y-42209244D02*
X76515309Y-42128431D01*
X76515309Y-42128431D02*
X76515309Y-42074557D01*
X76515309Y-42074557D02*
X76542247Y-41993744D01*
X76542247Y-41993744D02*
X76676934Y-41859057D01*
X76676934Y-41859057D02*
X76784683Y-41805183D01*
X77404244Y-41724370D02*
X77673618Y-41993744D01*
X76919370Y-41616621D02*
X77404244Y-41724370D01*
X77404244Y-41724370D02*
X77296494Y-41239497D01*
X77996866Y-41616621D02*
X78104616Y-41562746D01*
X78104616Y-41562746D02*
X78239303Y-41428059D01*
X78239303Y-41428059D02*
X78266240Y-41347247D01*
X78266240Y-41347247D02*
X78266240Y-41293372D01*
X78266240Y-41293372D02*
X78239303Y-41212560D01*
X78239303Y-41212560D02*
X78185428Y-41158685D01*
X78185428Y-41158685D02*
X78104616Y-41131748D01*
X78104616Y-41131748D02*
X78050741Y-41131748D01*
X78050741Y-41131748D02*
X77969929Y-41158685D01*
X77969929Y-41158685D02*
X77835242Y-41239497D01*
X77835242Y-41239497D02*
X77754430Y-41266435D01*
X77754430Y-41266435D02*
X77700555Y-41266435D01*
X77700555Y-41266435D02*
X77619743Y-41239497D01*
X77619743Y-41239497D02*
X77565868Y-41185622D01*
X77565868Y-41185622D02*
X77538930Y-41104810D01*
X77538930Y-41104810D02*
X77538930Y-41050935D01*
X77538930Y-41050935D02*
X77565868Y-40970123D01*
X77565868Y-40970123D02*
X77700555Y-40835436D01*
X77700555Y-40835436D02*
X77808304Y-40781561D01*
X56465475Y-90094200D02*
X56579761Y-90132295D01*
X56579761Y-90132295D02*
X56770237Y-90132295D01*
X56770237Y-90132295D02*
X56846428Y-90094200D01*
X56846428Y-90094200D02*
X56884523Y-90056104D01*
X56884523Y-90056104D02*
X56922618Y-89979914D01*
X56922618Y-89979914D02*
X56922618Y-89903723D01*
X56922618Y-89903723D02*
X56884523Y-89827533D01*
X56884523Y-89827533D02*
X56846428Y-89789438D01*
X56846428Y-89789438D02*
X56770237Y-89751342D01*
X56770237Y-89751342D02*
X56617856Y-89713247D01*
X56617856Y-89713247D02*
X56541666Y-89675152D01*
X56541666Y-89675152D02*
X56503571Y-89637057D01*
X56503571Y-89637057D02*
X56465475Y-89560866D01*
X56465475Y-89560866D02*
X56465475Y-89484676D01*
X56465475Y-89484676D02*
X56503571Y-89408485D01*
X56503571Y-89408485D02*
X56541666Y-89370390D01*
X56541666Y-89370390D02*
X56617856Y-89332295D01*
X56617856Y-89332295D02*
X56808333Y-89332295D01*
X56808333Y-89332295D02*
X56922618Y-89370390D01*
X57189285Y-89332295D02*
X57379761Y-90132295D01*
X57379761Y-90132295D02*
X57532142Y-89560866D01*
X57532142Y-89560866D02*
X57684523Y-90132295D01*
X57684523Y-90132295D02*
X57875000Y-89332295D01*
X58636905Y-90056104D02*
X58598809Y-90094200D01*
X58598809Y-90094200D02*
X58484524Y-90132295D01*
X58484524Y-90132295D02*
X58408333Y-90132295D01*
X58408333Y-90132295D02*
X58294047Y-90094200D01*
X58294047Y-90094200D02*
X58217857Y-90018009D01*
X58217857Y-90018009D02*
X58179762Y-89941819D01*
X58179762Y-89941819D02*
X58141666Y-89789438D01*
X58141666Y-89789438D02*
X58141666Y-89675152D01*
X58141666Y-89675152D02*
X58179762Y-89522771D01*
X58179762Y-89522771D02*
X58217857Y-89446580D01*
X58217857Y-89446580D02*
X58294047Y-89370390D01*
X58294047Y-89370390D02*
X58408333Y-89332295D01*
X58408333Y-89332295D02*
X58484524Y-89332295D01*
X58484524Y-89332295D02*
X58598809Y-89370390D01*
X58598809Y-89370390D02*
X58636905Y-89408485D01*
X59360714Y-90132295D02*
X58979762Y-90132295D01*
X58979762Y-90132295D02*
X58979762Y-89332295D01*
X59627381Y-90132295D02*
X59627381Y-89332295D01*
X60084524Y-90132295D02*
X59741666Y-89675152D01*
X60084524Y-89332295D02*
X59627381Y-89789438D01*
X76072998Y-88090868D02*
X75992185Y-88117805D01*
X75992185Y-88117805D02*
X75911373Y-88198618D01*
X75911373Y-88198618D02*
X75857498Y-88306367D01*
X75857498Y-88306367D02*
X75857498Y-88414117D01*
X75857498Y-88414117D02*
X75884436Y-88494929D01*
X75884436Y-88494929D02*
X75965248Y-88629616D01*
X75965248Y-88629616D02*
X76046060Y-88710428D01*
X76046060Y-88710428D02*
X76180747Y-88791241D01*
X76180747Y-88791241D02*
X76261560Y-88818178D01*
X76261560Y-88818178D02*
X76369309Y-88818178D01*
X76369309Y-88818178D02*
X76477059Y-88764303D01*
X76477059Y-88764303D02*
X76530934Y-88710428D01*
X76530934Y-88710428D02*
X76584808Y-88602679D01*
X76584808Y-88602679D02*
X76584808Y-88548804D01*
X76584808Y-88548804D02*
X76396247Y-88360242D01*
X76396247Y-88360242D02*
X76288497Y-88467992D01*
X76881120Y-88360242D02*
X76315434Y-87794557D01*
X76315434Y-87794557D02*
X76530934Y-87579057D01*
X76530934Y-87579057D02*
X76611746Y-87552120D01*
X76611746Y-87552120D02*
X76665621Y-87552120D01*
X76665621Y-87552120D02*
X76746433Y-87579057D01*
X76746433Y-87579057D02*
X76827245Y-87659870D01*
X76827245Y-87659870D02*
X76854182Y-87740682D01*
X76854182Y-87740682D02*
X76854182Y-87794557D01*
X76854182Y-87794557D02*
X76827245Y-87875369D01*
X76827245Y-87875369D02*
X76611746Y-88090868D01*
X77743117Y-87498245D02*
X77419868Y-87821494D01*
X77581492Y-87659870D02*
X77015807Y-87094184D01*
X77015807Y-87094184D02*
X77042744Y-87228871D01*
X77042744Y-87228871D02*
X77042744Y-87336621D01*
X77042744Y-87336621D02*
X77015807Y-87417433D01*
X77662305Y-86447686D02*
X77554555Y-86555436D01*
X77554555Y-86555436D02*
X77527618Y-86636248D01*
X77527618Y-86636248D02*
X77527618Y-86690123D01*
X77527618Y-86690123D02*
X77554555Y-86824810D01*
X77554555Y-86824810D02*
X77635367Y-86959497D01*
X77635367Y-86959497D02*
X77850866Y-87174996D01*
X77850866Y-87174996D02*
X77931679Y-87201934D01*
X77931679Y-87201934D02*
X77985553Y-87201934D01*
X77985553Y-87201934D02*
X78066366Y-87174996D01*
X78066366Y-87174996D02*
X78174115Y-87067247D01*
X78174115Y-87067247D02*
X78201053Y-86986434D01*
X78201053Y-86986434D02*
X78201053Y-86932560D01*
X78201053Y-86932560D02*
X78174115Y-86851747D01*
X78174115Y-86851747D02*
X78039428Y-86717060D01*
X78039428Y-86717060D02*
X77958616Y-86690123D01*
X77958616Y-86690123D02*
X77904741Y-86690123D01*
X77904741Y-86690123D02*
X77823929Y-86717060D01*
X77823929Y-86717060D02*
X77716179Y-86824810D01*
X77716179Y-86824810D02*
X77689242Y-86905622D01*
X77689242Y-86905622D02*
X77689242Y-86959497D01*
X77689242Y-86959497D02*
X77716179Y-87040309D01*
X50461435Y-82768431D02*
X50380623Y-82795368D01*
X50380623Y-82795368D02*
X50299811Y-82876180D01*
X50299811Y-82876180D02*
X50245936Y-82983930D01*
X50245936Y-82983930D02*
X50245936Y-83091680D01*
X50245936Y-83091680D02*
X50272873Y-83172492D01*
X50272873Y-83172492D02*
X50353685Y-83307179D01*
X50353685Y-83307179D02*
X50434498Y-83387991D01*
X50434498Y-83387991D02*
X50569185Y-83468803D01*
X50569185Y-83468803D02*
X50649997Y-83495741D01*
X50649997Y-83495741D02*
X50757746Y-83495741D01*
X50757746Y-83495741D02*
X50865496Y-83441866D01*
X50865496Y-83441866D02*
X50919371Y-83387991D01*
X50919371Y-83387991D02*
X50973246Y-83280241D01*
X50973246Y-83280241D02*
X50973246Y-83226367D01*
X50973246Y-83226367D02*
X50784684Y-83037805D01*
X50784684Y-83037805D02*
X50676934Y-83145554D01*
X51269557Y-83037805D02*
X50703872Y-82472119D01*
X50703872Y-82472119D02*
X51592806Y-82714556D01*
X51592806Y-82714556D02*
X51027120Y-82148871D01*
X51862180Y-82445182D02*
X51296494Y-81879497D01*
X51296494Y-81879497D02*
X51431181Y-81744810D01*
X51431181Y-81744810D02*
X51538931Y-81690935D01*
X51538931Y-81690935D02*
X51646680Y-81690935D01*
X51646680Y-81690935D02*
X51727493Y-81717872D01*
X51727493Y-81717872D02*
X51862180Y-81798685D01*
X51862180Y-81798685D02*
X51942992Y-81879497D01*
X51942992Y-81879497D02*
X52023804Y-82014184D01*
X52023804Y-82014184D02*
X52050741Y-82094996D01*
X52050741Y-82094996D02*
X52050741Y-82202746D01*
X52050741Y-82202746D02*
X51996867Y-82310495D01*
X51996867Y-82310495D02*
X51862180Y-82445182D01*
X50461435Y-57368431D02*
X50380623Y-57395368D01*
X50380623Y-57395368D02*
X50299811Y-57476180D01*
X50299811Y-57476180D02*
X50245936Y-57583930D01*
X50245936Y-57583930D02*
X50245936Y-57691680D01*
X50245936Y-57691680D02*
X50272873Y-57772492D01*
X50272873Y-57772492D02*
X50353685Y-57907179D01*
X50353685Y-57907179D02*
X50434498Y-57987991D01*
X50434498Y-57987991D02*
X50569185Y-58068803D01*
X50569185Y-58068803D02*
X50649997Y-58095741D01*
X50649997Y-58095741D02*
X50757746Y-58095741D01*
X50757746Y-58095741D02*
X50865496Y-58041866D01*
X50865496Y-58041866D02*
X50919371Y-57987991D01*
X50919371Y-57987991D02*
X50973246Y-57880241D01*
X50973246Y-57880241D02*
X50973246Y-57826367D01*
X50973246Y-57826367D02*
X50784684Y-57637805D01*
X50784684Y-57637805D02*
X50676934Y-57745554D01*
X51269557Y-57637805D02*
X50703872Y-57072119D01*
X50703872Y-57072119D02*
X51592806Y-57314556D01*
X51592806Y-57314556D02*
X51027120Y-56748871D01*
X51862180Y-57045182D02*
X51296494Y-56479497D01*
X51296494Y-56479497D02*
X51431181Y-56344810D01*
X51431181Y-56344810D02*
X51538931Y-56290935D01*
X51538931Y-56290935D02*
X51646680Y-56290935D01*
X51646680Y-56290935D02*
X51727493Y-56317872D01*
X51727493Y-56317872D02*
X51862180Y-56398685D01*
X51862180Y-56398685D02*
X51942992Y-56479497D01*
X51942992Y-56479497D02*
X52023804Y-56614184D01*
X52023804Y-56614184D02*
X52050741Y-56694996D01*
X52050741Y-56694996D02*
X52050741Y-56802746D01*
X52050741Y-56802746D02*
X51996867Y-56910495D01*
X51996867Y-56910495D02*
X51862180Y-57045182D01*
X50488372Y-52261494D02*
X50407560Y-52288431D01*
X50407560Y-52288431D02*
X50326748Y-52369243D01*
X50326748Y-52369243D02*
X50272873Y-52476993D01*
X50272873Y-52476993D02*
X50272873Y-52584742D01*
X50272873Y-52584742D02*
X50299810Y-52665555D01*
X50299810Y-52665555D02*
X50380623Y-52800242D01*
X50380623Y-52800242D02*
X50461435Y-52881054D01*
X50461435Y-52881054D02*
X50596122Y-52961866D01*
X50596122Y-52961866D02*
X50676934Y-52988803D01*
X50676934Y-52988803D02*
X50784684Y-52988803D01*
X50784684Y-52988803D02*
X50892433Y-52934929D01*
X50892433Y-52934929D02*
X50946308Y-52881054D01*
X50946308Y-52881054D02*
X51000183Y-52773304D01*
X51000183Y-52773304D02*
X51000183Y-52719429D01*
X51000183Y-52719429D02*
X50811621Y-52530868D01*
X50811621Y-52530868D02*
X50703871Y-52638617D01*
X51296494Y-52530868D02*
X50730809Y-51965182D01*
X50730809Y-51965182D02*
X50946308Y-51749683D01*
X50946308Y-51749683D02*
X51027120Y-51722746D01*
X51027120Y-51722746D02*
X51080995Y-51722746D01*
X51080995Y-51722746D02*
X51161807Y-51749683D01*
X51161807Y-51749683D02*
X51242619Y-51830495D01*
X51242619Y-51830495D02*
X51269557Y-51911307D01*
X51269557Y-51911307D02*
X51269557Y-51965182D01*
X51269557Y-51965182D02*
X51242619Y-52045994D01*
X51242619Y-52045994D02*
X51027120Y-52261494D01*
X51727493Y-51345622D02*
X52104616Y-51722746D01*
X51377306Y-51264810D02*
X51646680Y-51803558D01*
X51646680Y-51803558D02*
X51996867Y-51453372D01*
X76061435Y-44668431D02*
X75980623Y-44695368D01*
X75980623Y-44695368D02*
X75899811Y-44776180D01*
X75899811Y-44776180D02*
X75845936Y-44883930D01*
X75845936Y-44883930D02*
X75845936Y-44991680D01*
X75845936Y-44991680D02*
X75872873Y-45072492D01*
X75872873Y-45072492D02*
X75953685Y-45207179D01*
X75953685Y-45207179D02*
X76034498Y-45287991D01*
X76034498Y-45287991D02*
X76169185Y-45368803D01*
X76169185Y-45368803D02*
X76249997Y-45395741D01*
X76249997Y-45395741D02*
X76357746Y-45395741D01*
X76357746Y-45395741D02*
X76465496Y-45341866D01*
X76465496Y-45341866D02*
X76519371Y-45287991D01*
X76519371Y-45287991D02*
X76573246Y-45180241D01*
X76573246Y-45180241D02*
X76573246Y-45126367D01*
X76573246Y-45126367D02*
X76384684Y-44937805D01*
X76384684Y-44937805D02*
X76276934Y-45045554D01*
X76869557Y-44937805D02*
X76303872Y-44372119D01*
X76303872Y-44372119D02*
X77192806Y-44614556D01*
X77192806Y-44614556D02*
X76627120Y-44048871D01*
X77462180Y-44345182D02*
X76896494Y-43779497D01*
X76896494Y-43779497D02*
X77031181Y-43644810D01*
X77031181Y-43644810D02*
X77138931Y-43590935D01*
X77138931Y-43590935D02*
X77246680Y-43590935D01*
X77246680Y-43590935D02*
X77327493Y-43617872D01*
X77327493Y-43617872D02*
X77462180Y-43698685D01*
X77462180Y-43698685D02*
X77542992Y-43779497D01*
X77542992Y-43779497D02*
X77623804Y-43914184D01*
X77623804Y-43914184D02*
X77650741Y-43994996D01*
X77650741Y-43994996D02*
X77650741Y-44102746D01*
X77650741Y-44102746D02*
X77596867Y-44210495D01*
X77596867Y-44210495D02*
X77462180Y-44345182D01*
X50588372Y-62391494D02*
X50507560Y-62418431D01*
X50507560Y-62418431D02*
X50426748Y-62499243D01*
X50426748Y-62499243D02*
X50372873Y-62606993D01*
X50372873Y-62606993D02*
X50372873Y-62714742D01*
X50372873Y-62714742D02*
X50399810Y-62795555D01*
X50399810Y-62795555D02*
X50480623Y-62930242D01*
X50480623Y-62930242D02*
X50561435Y-63011054D01*
X50561435Y-63011054D02*
X50696122Y-63091866D01*
X50696122Y-63091866D02*
X50776934Y-63118803D01*
X50776934Y-63118803D02*
X50884684Y-63118803D01*
X50884684Y-63118803D02*
X50992433Y-63064929D01*
X50992433Y-63064929D02*
X51046308Y-63011054D01*
X51046308Y-63011054D02*
X51100183Y-62903304D01*
X51100183Y-62903304D02*
X51100183Y-62849429D01*
X51100183Y-62849429D02*
X50911621Y-62660868D01*
X50911621Y-62660868D02*
X50803871Y-62768617D01*
X51396494Y-62660868D02*
X50830809Y-62095182D01*
X50830809Y-62095182D02*
X51046308Y-61879683D01*
X51046308Y-61879683D02*
X51127120Y-61852746D01*
X51127120Y-61852746D02*
X51180995Y-61852746D01*
X51180995Y-61852746D02*
X51261807Y-61879683D01*
X51261807Y-61879683D02*
X51342619Y-61960495D01*
X51342619Y-61960495D02*
X51369557Y-62041307D01*
X51369557Y-62041307D02*
X51369557Y-62095182D01*
X51369557Y-62095182D02*
X51342619Y-62175994D01*
X51342619Y-62175994D02*
X51127120Y-62391494D01*
X51342619Y-61583372D02*
X51719743Y-61206248D01*
X51719743Y-61206248D02*
X52042992Y-62014370D01*
X76072998Y-72860868D02*
X75992185Y-72887805D01*
X75992185Y-72887805D02*
X75911373Y-72968618D01*
X75911373Y-72968618D02*
X75857498Y-73076367D01*
X75857498Y-73076367D02*
X75857498Y-73184117D01*
X75857498Y-73184117D02*
X75884436Y-73264929D01*
X75884436Y-73264929D02*
X75965248Y-73399616D01*
X75965248Y-73399616D02*
X76046060Y-73480428D01*
X76046060Y-73480428D02*
X76180747Y-73561241D01*
X76180747Y-73561241D02*
X76261560Y-73588178D01*
X76261560Y-73588178D02*
X76369309Y-73588178D01*
X76369309Y-73588178D02*
X76477059Y-73534303D01*
X76477059Y-73534303D02*
X76530934Y-73480428D01*
X76530934Y-73480428D02*
X76584808Y-73372679D01*
X76584808Y-73372679D02*
X76584808Y-73318804D01*
X76584808Y-73318804D02*
X76396247Y-73130242D01*
X76396247Y-73130242D02*
X76288497Y-73237992D01*
X76881120Y-73130242D02*
X76315434Y-72564557D01*
X76315434Y-72564557D02*
X76530934Y-72349057D01*
X76530934Y-72349057D02*
X76611746Y-72322120D01*
X76611746Y-72322120D02*
X76665621Y-72322120D01*
X76665621Y-72322120D02*
X76746433Y-72349057D01*
X76746433Y-72349057D02*
X76827245Y-72429870D01*
X76827245Y-72429870D02*
X76854182Y-72510682D01*
X76854182Y-72510682D02*
X76854182Y-72564557D01*
X76854182Y-72564557D02*
X76827245Y-72645369D01*
X76827245Y-72645369D02*
X76611746Y-72860868D01*
X76908057Y-72079683D02*
X76908057Y-72025809D01*
X76908057Y-72025809D02*
X76934995Y-71944996D01*
X76934995Y-71944996D02*
X77069682Y-71810309D01*
X77069682Y-71810309D02*
X77150494Y-71783372D01*
X77150494Y-71783372D02*
X77204369Y-71783372D01*
X77204369Y-71783372D02*
X77285181Y-71810309D01*
X77285181Y-71810309D02*
X77339056Y-71864184D01*
X77339056Y-71864184D02*
X77392930Y-71971934D01*
X77392930Y-71971934D02*
X77392930Y-72618431D01*
X77392930Y-72618431D02*
X77743117Y-72268245D01*
X78281865Y-71729497D02*
X77958616Y-72052746D01*
X78120240Y-71891121D02*
X77554555Y-71325436D01*
X77554555Y-71325436D02*
X77581492Y-71460123D01*
X77581492Y-71460123D02*
X77581492Y-71567873D01*
X77581492Y-71567873D02*
X77554555Y-71648685D01*
X50488372Y-64961494D02*
X50407560Y-64988431D01*
X50407560Y-64988431D02*
X50326748Y-65069243D01*
X50326748Y-65069243D02*
X50272873Y-65176993D01*
X50272873Y-65176993D02*
X50272873Y-65284742D01*
X50272873Y-65284742D02*
X50299810Y-65365555D01*
X50299810Y-65365555D02*
X50380623Y-65500242D01*
X50380623Y-65500242D02*
X50461435Y-65581054D01*
X50461435Y-65581054D02*
X50596122Y-65661866D01*
X50596122Y-65661866D02*
X50676934Y-65688803D01*
X50676934Y-65688803D02*
X50784684Y-65688803D01*
X50784684Y-65688803D02*
X50892433Y-65634929D01*
X50892433Y-65634929D02*
X50946308Y-65581054D01*
X50946308Y-65581054D02*
X51000183Y-65473304D01*
X51000183Y-65473304D02*
X51000183Y-65419429D01*
X51000183Y-65419429D02*
X50811621Y-65230868D01*
X50811621Y-65230868D02*
X50703871Y-65338617D01*
X51296494Y-65230868D02*
X50730809Y-64665182D01*
X50730809Y-64665182D02*
X50946308Y-64449683D01*
X50946308Y-64449683D02*
X51027120Y-64422746D01*
X51027120Y-64422746D02*
X51080995Y-64422746D01*
X51080995Y-64422746D02*
X51161807Y-64449683D01*
X51161807Y-64449683D02*
X51242619Y-64530495D01*
X51242619Y-64530495D02*
X51269557Y-64611307D01*
X51269557Y-64611307D02*
X51269557Y-64665182D01*
X51269557Y-64665182D02*
X51242619Y-64745994D01*
X51242619Y-64745994D02*
X51027120Y-64961494D01*
X51619743Y-64261121D02*
X51538931Y-64288059D01*
X51538931Y-64288059D02*
X51485056Y-64288059D01*
X51485056Y-64288059D02*
X51404244Y-64261121D01*
X51404244Y-64261121D02*
X51377306Y-64234184D01*
X51377306Y-64234184D02*
X51350369Y-64153372D01*
X51350369Y-64153372D02*
X51350369Y-64099497D01*
X51350369Y-64099497D02*
X51377306Y-64018685D01*
X51377306Y-64018685D02*
X51485056Y-63910935D01*
X51485056Y-63910935D02*
X51565868Y-63883998D01*
X51565868Y-63883998D02*
X51619743Y-63883998D01*
X51619743Y-63883998D02*
X51700555Y-63910935D01*
X51700555Y-63910935D02*
X51727493Y-63937872D01*
X51727493Y-63937872D02*
X51754430Y-64018685D01*
X51754430Y-64018685D02*
X51754430Y-64072559D01*
X51754430Y-64072559D02*
X51727493Y-64153372D01*
X51727493Y-64153372D02*
X51619743Y-64261121D01*
X51619743Y-64261121D02*
X51592806Y-64341933D01*
X51592806Y-64341933D02*
X51592806Y-64395808D01*
X51592806Y-64395808D02*
X51619743Y-64476620D01*
X51619743Y-64476620D02*
X51727493Y-64584370D01*
X51727493Y-64584370D02*
X51808305Y-64611307D01*
X51808305Y-64611307D02*
X51862180Y-64611307D01*
X51862180Y-64611307D02*
X51942992Y-64584370D01*
X51942992Y-64584370D02*
X52050741Y-64476620D01*
X52050741Y-64476620D02*
X52077679Y-64395808D01*
X52077679Y-64395808D02*
X52077679Y-64341933D01*
X52077679Y-64341933D02*
X52050741Y-64261121D01*
X52050741Y-64261121D02*
X51942992Y-64153372D01*
X51942992Y-64153372D02*
X51862180Y-64126434D01*
X51862180Y-64126434D02*
X51808305Y-64126434D01*
X51808305Y-64126434D02*
X51727493Y-64153372D01*
X50388372Y-42091494D02*
X50307560Y-42118431D01*
X50307560Y-42118431D02*
X50226748Y-42199243D01*
X50226748Y-42199243D02*
X50172873Y-42306993D01*
X50172873Y-42306993D02*
X50172873Y-42414742D01*
X50172873Y-42414742D02*
X50199810Y-42495555D01*
X50199810Y-42495555D02*
X50280623Y-42630242D01*
X50280623Y-42630242D02*
X50361435Y-42711054D01*
X50361435Y-42711054D02*
X50496122Y-42791866D01*
X50496122Y-42791866D02*
X50576934Y-42818803D01*
X50576934Y-42818803D02*
X50684684Y-42818803D01*
X50684684Y-42818803D02*
X50792433Y-42764929D01*
X50792433Y-42764929D02*
X50846308Y-42711054D01*
X50846308Y-42711054D02*
X50900183Y-42603304D01*
X50900183Y-42603304D02*
X50900183Y-42549429D01*
X50900183Y-42549429D02*
X50711621Y-42360868D01*
X50711621Y-42360868D02*
X50603871Y-42468617D01*
X51196494Y-42360868D02*
X50630809Y-41795182D01*
X50630809Y-41795182D02*
X50846308Y-41579683D01*
X50846308Y-41579683D02*
X50927120Y-41552746D01*
X50927120Y-41552746D02*
X50980995Y-41552746D01*
X50980995Y-41552746D02*
X51061807Y-41579683D01*
X51061807Y-41579683D02*
X51142619Y-41660495D01*
X51142619Y-41660495D02*
X51169557Y-41741307D01*
X51169557Y-41741307D02*
X51169557Y-41795182D01*
X51169557Y-41795182D02*
X51142619Y-41875994D01*
X51142619Y-41875994D02*
X50927120Y-42091494D01*
X52058491Y-41498871D02*
X51735242Y-41822120D01*
X51896867Y-41660495D02*
X51331181Y-41094810D01*
X51331181Y-41094810D02*
X51358119Y-41229497D01*
X51358119Y-41229497D02*
X51358119Y-41337246D01*
X51358119Y-41337246D02*
X51331181Y-41418059D01*
X76126873Y-58311240D02*
X76396247Y-58041866D01*
X76234623Y-58526739D02*
X75857499Y-57772492D01*
X75857499Y-57772492D02*
X76611746Y-58149615D01*
X76557871Y-57125994D02*
X76477059Y-57152932D01*
X76477059Y-57152932D02*
X76396247Y-57233744D01*
X76396247Y-57233744D02*
X76342372Y-57341494D01*
X76342372Y-57341494D02*
X76342372Y-57449243D01*
X76342372Y-57449243D02*
X76369310Y-57530055D01*
X76369310Y-57530055D02*
X76450122Y-57664742D01*
X76450122Y-57664742D02*
X76530934Y-57745555D01*
X76530934Y-57745555D02*
X76665621Y-57826367D01*
X76665621Y-57826367D02*
X76746433Y-57853304D01*
X76746433Y-57853304D02*
X76854183Y-57853304D01*
X76854183Y-57853304D02*
X76961932Y-57799429D01*
X76961932Y-57799429D02*
X77015807Y-57745555D01*
X77015807Y-57745555D02*
X77069682Y-57637805D01*
X77069682Y-57637805D02*
X77069682Y-57583930D01*
X77069682Y-57583930D02*
X76881120Y-57395368D01*
X76881120Y-57395368D02*
X76773371Y-57503118D01*
X77365993Y-57395368D02*
X76800308Y-56829683D01*
X76800308Y-56829683D02*
X77689242Y-57072120D01*
X77689242Y-57072120D02*
X77123557Y-56506434D01*
X77958616Y-56802746D02*
X77392931Y-56237060D01*
X77392931Y-56237060D02*
X77527618Y-56102373D01*
X77527618Y-56102373D02*
X77635367Y-56048498D01*
X77635367Y-56048498D02*
X77743117Y-56048498D01*
X77743117Y-56048498D02*
X77823929Y-56075436D01*
X77823929Y-56075436D02*
X77958616Y-56156248D01*
X77958616Y-56156248D02*
X78039428Y-56237060D01*
X78039428Y-56237060D02*
X78120241Y-56371747D01*
X78120241Y-56371747D02*
X78147178Y-56452560D01*
X78147178Y-56452560D02*
X78147178Y-56560309D01*
X78147178Y-56560309D02*
X78093303Y-56668059D01*
X78093303Y-56668059D02*
X77958616Y-56802746D01*
X76061435Y-70068431D02*
X75980623Y-70095368D01*
X75980623Y-70095368D02*
X75899811Y-70176180D01*
X75899811Y-70176180D02*
X75845936Y-70283930D01*
X75845936Y-70283930D02*
X75845936Y-70391680D01*
X75845936Y-70391680D02*
X75872873Y-70472492D01*
X75872873Y-70472492D02*
X75953685Y-70607179D01*
X75953685Y-70607179D02*
X76034498Y-70687991D01*
X76034498Y-70687991D02*
X76169185Y-70768803D01*
X76169185Y-70768803D02*
X76249997Y-70795741D01*
X76249997Y-70795741D02*
X76357746Y-70795741D01*
X76357746Y-70795741D02*
X76465496Y-70741866D01*
X76465496Y-70741866D02*
X76519371Y-70687991D01*
X76519371Y-70687991D02*
X76573246Y-70580241D01*
X76573246Y-70580241D02*
X76573246Y-70526367D01*
X76573246Y-70526367D02*
X76384684Y-70337805D01*
X76384684Y-70337805D02*
X76276934Y-70445554D01*
X76869557Y-70337805D02*
X76303872Y-69772119D01*
X76303872Y-69772119D02*
X77192806Y-70014556D01*
X77192806Y-70014556D02*
X76627120Y-69448871D01*
X77462180Y-69745182D02*
X76896494Y-69179497D01*
X76896494Y-69179497D02*
X77031181Y-69044810D01*
X77031181Y-69044810D02*
X77138931Y-68990935D01*
X77138931Y-68990935D02*
X77246680Y-68990935D01*
X77246680Y-68990935D02*
X77327493Y-69017872D01*
X77327493Y-69017872D02*
X77462180Y-69098685D01*
X77462180Y-69098685D02*
X77542992Y-69179497D01*
X77542992Y-69179497D02*
X77623804Y-69314184D01*
X77623804Y-69314184D02*
X77650741Y-69394996D01*
X77650741Y-69394996D02*
X77650741Y-69502746D01*
X77650741Y-69502746D02*
X77596867Y-69610495D01*
X77596867Y-69610495D02*
X77462180Y-69745182D01*
X75928406Y-40097585D02*
X76682653Y-40474709D01*
X76682653Y-40474709D02*
X76305529Y-39720462D01*
X76952027Y-39612712D02*
X77059776Y-39558838D01*
X77059776Y-39558838D02*
X77113651Y-39558838D01*
X77113651Y-39558838D02*
X77194463Y-39585775D01*
X77194463Y-39585775D02*
X77275276Y-39666587D01*
X77275276Y-39666587D02*
X77302213Y-39747399D01*
X77302213Y-39747399D02*
X77302213Y-39801274D01*
X77302213Y-39801274D02*
X77275276Y-39882086D01*
X77275276Y-39882086D02*
X77059776Y-40097586D01*
X77059776Y-40097586D02*
X76494091Y-39531900D01*
X76494091Y-39531900D02*
X76682653Y-39343338D01*
X76682653Y-39343338D02*
X76763465Y-39316401D01*
X76763465Y-39316401D02*
X76817340Y-39316401D01*
X76817340Y-39316401D02*
X76898152Y-39343338D01*
X76898152Y-39343338D02*
X76952027Y-39397213D01*
X76952027Y-39397213D02*
X76978964Y-39478025D01*
X76978964Y-39478025D02*
X76978964Y-39531900D01*
X76978964Y-39531900D02*
X76952027Y-39612712D01*
X76952027Y-39612712D02*
X76763465Y-39801274D01*
X77059776Y-38966215D02*
X77517712Y-39424151D01*
X77517712Y-39424151D02*
X77598524Y-39451088D01*
X77598524Y-39451088D02*
X77652399Y-39451088D01*
X77652399Y-39451088D02*
X77733211Y-39424151D01*
X77733211Y-39424151D02*
X77840961Y-39316401D01*
X77840961Y-39316401D02*
X77867898Y-39235589D01*
X77867898Y-39235589D02*
X77867898Y-39181714D01*
X77867898Y-39181714D02*
X77840961Y-39100902D01*
X77840961Y-39100902D02*
X77383025Y-38642966D01*
X78164210Y-38939277D02*
X78271959Y-38885403D01*
X78271959Y-38885403D02*
X78406646Y-38750716D01*
X78406646Y-38750716D02*
X78433584Y-38669903D01*
X78433584Y-38669903D02*
X78433584Y-38616029D01*
X78433584Y-38616029D02*
X78406646Y-38535216D01*
X78406646Y-38535216D02*
X78352771Y-38481342D01*
X78352771Y-38481342D02*
X78271959Y-38454404D01*
X78271959Y-38454404D02*
X78218084Y-38454404D01*
X78218084Y-38454404D02*
X78137272Y-38481342D01*
X78137272Y-38481342D02*
X78002585Y-38562154D01*
X78002585Y-38562154D02*
X77921773Y-38589091D01*
X77921773Y-38589091D02*
X77867898Y-38589091D01*
X77867898Y-38589091D02*
X77787086Y-38562154D01*
X77787086Y-38562154D02*
X77733211Y-38508279D01*
X77733211Y-38508279D02*
X77706274Y-38427467D01*
X77706274Y-38427467D02*
X77706274Y-38373592D01*
X77706274Y-38373592D02*
X77733211Y-38292780D01*
X77733211Y-38292780D02*
X77867898Y-38158093D01*
X77867898Y-38158093D02*
X77975648Y-38104218D01*
X49818998Y-75390868D02*
X49738185Y-75417805D01*
X49738185Y-75417805D02*
X49657373Y-75498618D01*
X49657373Y-75498618D02*
X49603498Y-75606367D01*
X49603498Y-75606367D02*
X49603498Y-75714117D01*
X49603498Y-75714117D02*
X49630436Y-75794929D01*
X49630436Y-75794929D02*
X49711248Y-75929616D01*
X49711248Y-75929616D02*
X49792060Y-76010428D01*
X49792060Y-76010428D02*
X49926747Y-76091241D01*
X49926747Y-76091241D02*
X50007560Y-76118178D01*
X50007560Y-76118178D02*
X50115309Y-76118178D01*
X50115309Y-76118178D02*
X50223059Y-76064303D01*
X50223059Y-76064303D02*
X50276934Y-76010428D01*
X50276934Y-76010428D02*
X50330808Y-75902679D01*
X50330808Y-75902679D02*
X50330808Y-75848804D01*
X50330808Y-75848804D02*
X50142247Y-75660242D01*
X50142247Y-75660242D02*
X50034497Y-75767992D01*
X50627120Y-75660242D02*
X50061434Y-75094557D01*
X50061434Y-75094557D02*
X50276934Y-74879057D01*
X50276934Y-74879057D02*
X50357746Y-74852120D01*
X50357746Y-74852120D02*
X50411621Y-74852120D01*
X50411621Y-74852120D02*
X50492433Y-74879057D01*
X50492433Y-74879057D02*
X50573245Y-74959870D01*
X50573245Y-74959870D02*
X50600182Y-75040682D01*
X50600182Y-75040682D02*
X50600182Y-75094557D01*
X50600182Y-75094557D02*
X50573245Y-75175369D01*
X50573245Y-75175369D02*
X50357746Y-75390868D01*
X51489117Y-74798245D02*
X51165868Y-75121494D01*
X51327492Y-74959870D02*
X50761807Y-74394184D01*
X50761807Y-74394184D02*
X50788744Y-74528871D01*
X50788744Y-74528871D02*
X50788744Y-74636621D01*
X50788744Y-74636621D02*
X50761807Y-74717433D01*
X52027865Y-74259497D02*
X51704616Y-74582746D01*
X51866240Y-74421121D02*
X51300555Y-73855436D01*
X51300555Y-73855436D02*
X51327492Y-73990123D01*
X51327492Y-73990123D02*
X51327492Y-74097873D01*
X51327492Y-74097873D02*
X51300555Y-74178685D01*
X76130064Y-53104049D02*
X76399438Y-52834675D01*
X76237813Y-53319549D02*
X75860690Y-52565301D01*
X75860690Y-52565301D02*
X76614937Y-52942425D01*
X76803499Y-52753863D02*
X76237813Y-52188178D01*
X76237813Y-52188178D02*
X76372500Y-52053491D01*
X76372500Y-52053491D02*
X76480250Y-51999616D01*
X76480250Y-51999616D02*
X76587999Y-51999616D01*
X76587999Y-51999616D02*
X76668812Y-52026553D01*
X76668812Y-52026553D02*
X76803499Y-52107366D01*
X76803499Y-52107366D02*
X76884311Y-52188178D01*
X76884311Y-52188178D02*
X76965123Y-52322865D01*
X76965123Y-52322865D02*
X76992060Y-52403677D01*
X76992060Y-52403677D02*
X76992060Y-52511427D01*
X76992060Y-52511427D02*
X76938186Y-52619176D01*
X76938186Y-52619176D02*
X76803499Y-52753863D01*
X77638558Y-51811054D02*
X77638558Y-51864929D01*
X77638558Y-51864929D02*
X77584683Y-51972679D01*
X77584683Y-51972679D02*
X77530808Y-52026553D01*
X77530808Y-52026553D02*
X77423059Y-52080428D01*
X77423059Y-52080428D02*
X77315309Y-52080428D01*
X77315309Y-52080428D02*
X77234497Y-52053491D01*
X77234497Y-52053491D02*
X77099810Y-51972679D01*
X77099810Y-51972679D02*
X77018998Y-51891866D01*
X77018998Y-51891866D02*
X76938186Y-51757179D01*
X76938186Y-51757179D02*
X76911248Y-51676367D01*
X76911248Y-51676367D02*
X76911248Y-51568618D01*
X76911248Y-51568618D02*
X76965123Y-51460868D01*
X76965123Y-51460868D02*
X77018998Y-51406993D01*
X77018998Y-51406993D02*
X77126747Y-51353118D01*
X77126747Y-51353118D02*
X77180622Y-51353118D01*
X77854057Y-51811054D02*
X78285056Y-51380056D01*
X77719370Y-50706621D02*
X78473618Y-51083744D01*
X78473618Y-51083744D02*
X78096494Y-50329497D01*
X79173990Y-50383372D02*
X78716054Y-50302560D01*
X78850741Y-50706621D02*
X78285056Y-50140935D01*
X78285056Y-50140935D02*
X78500555Y-49925436D01*
X78500555Y-49925436D02*
X78581367Y-49898499D01*
X78581367Y-49898499D02*
X78635242Y-49898499D01*
X78635242Y-49898499D02*
X78716054Y-49925436D01*
X78716054Y-49925436D02*
X78796866Y-50006248D01*
X78796866Y-50006248D02*
X78823804Y-50087061D01*
X78823804Y-50087061D02*
X78823804Y-50140935D01*
X78823804Y-50140935D02*
X78796866Y-50221748D01*
X78796866Y-50221748D02*
X78581367Y-50437247D01*
X79120115Y-49844624D02*
X79308677Y-49656062D01*
X79685800Y-49871561D02*
X79416426Y-50140935D01*
X79416426Y-50140935D02*
X78850741Y-49575250D01*
X78850741Y-49575250D02*
X79120115Y-49305876D01*
X79820488Y-49144251D02*
X79631926Y-49332813D01*
X79928237Y-49629125D02*
X79362552Y-49063439D01*
X79362552Y-49063439D02*
X79631926Y-48794065D01*
X49964998Y-88090868D02*
X49884185Y-88117805D01*
X49884185Y-88117805D02*
X49803373Y-88198618D01*
X49803373Y-88198618D02*
X49749498Y-88306367D01*
X49749498Y-88306367D02*
X49749498Y-88414117D01*
X49749498Y-88414117D02*
X49776436Y-88494929D01*
X49776436Y-88494929D02*
X49857248Y-88629616D01*
X49857248Y-88629616D02*
X49938060Y-88710428D01*
X49938060Y-88710428D02*
X50072747Y-88791241D01*
X50072747Y-88791241D02*
X50153560Y-88818178D01*
X50153560Y-88818178D02*
X50261309Y-88818178D01*
X50261309Y-88818178D02*
X50369059Y-88764303D01*
X50369059Y-88764303D02*
X50422934Y-88710428D01*
X50422934Y-88710428D02*
X50476808Y-88602679D01*
X50476808Y-88602679D02*
X50476808Y-88548804D01*
X50476808Y-88548804D02*
X50288247Y-88360242D01*
X50288247Y-88360242D02*
X50180497Y-88467992D01*
X50773120Y-88360242D02*
X50207434Y-87794557D01*
X50207434Y-87794557D02*
X50422934Y-87579057D01*
X50422934Y-87579057D02*
X50503746Y-87552120D01*
X50503746Y-87552120D02*
X50557621Y-87552120D01*
X50557621Y-87552120D02*
X50638433Y-87579057D01*
X50638433Y-87579057D02*
X50719245Y-87659870D01*
X50719245Y-87659870D02*
X50746182Y-87740682D01*
X50746182Y-87740682D02*
X50746182Y-87794557D01*
X50746182Y-87794557D02*
X50719245Y-87875369D01*
X50719245Y-87875369D02*
X50503746Y-88090868D01*
X51635117Y-87498245D02*
X51311868Y-87821494D01*
X51473492Y-87659870D02*
X50907807Y-87094184D01*
X50907807Y-87094184D02*
X50934744Y-87228871D01*
X50934744Y-87228871D02*
X50934744Y-87336621D01*
X50934744Y-87336621D02*
X50907807Y-87417433D01*
X51581242Y-86420749D02*
X51311868Y-86690123D01*
X51311868Y-86690123D02*
X51554305Y-86986434D01*
X51554305Y-86986434D02*
X51554305Y-86932560D01*
X51554305Y-86932560D02*
X51581242Y-86851747D01*
X51581242Y-86851747D02*
X51715929Y-86717060D01*
X51715929Y-86717060D02*
X51796741Y-86690123D01*
X51796741Y-86690123D02*
X51850616Y-86690123D01*
X51850616Y-86690123D02*
X51931428Y-86717060D01*
X51931428Y-86717060D02*
X52066115Y-86851747D01*
X52066115Y-86851747D02*
X52093053Y-86932560D01*
X52093053Y-86932560D02*
X52093053Y-86986434D01*
X52093053Y-86986434D02*
X52066115Y-87067247D01*
X52066115Y-87067247D02*
X51931428Y-87201934D01*
X51931428Y-87201934D02*
X51850616Y-87228871D01*
X51850616Y-87228871D02*
X51796741Y-87228871D01*
X50388372Y-47181494D02*
X50307560Y-47208431D01*
X50307560Y-47208431D02*
X50226748Y-47289243D01*
X50226748Y-47289243D02*
X50172873Y-47396993D01*
X50172873Y-47396993D02*
X50172873Y-47504742D01*
X50172873Y-47504742D02*
X50199810Y-47585555D01*
X50199810Y-47585555D02*
X50280623Y-47720242D01*
X50280623Y-47720242D02*
X50361435Y-47801054D01*
X50361435Y-47801054D02*
X50496122Y-47881866D01*
X50496122Y-47881866D02*
X50576934Y-47908803D01*
X50576934Y-47908803D02*
X50684684Y-47908803D01*
X50684684Y-47908803D02*
X50792433Y-47854929D01*
X50792433Y-47854929D02*
X50846308Y-47801054D01*
X50846308Y-47801054D02*
X50900183Y-47693304D01*
X50900183Y-47693304D02*
X50900183Y-47639429D01*
X50900183Y-47639429D02*
X50711621Y-47450868D01*
X50711621Y-47450868D02*
X50603871Y-47558617D01*
X51196494Y-47450868D02*
X50630809Y-46885182D01*
X50630809Y-46885182D02*
X50846308Y-46669683D01*
X50846308Y-46669683D02*
X50927120Y-46642746D01*
X50927120Y-46642746D02*
X50980995Y-46642746D01*
X50980995Y-46642746D02*
X51061807Y-46669683D01*
X51061807Y-46669683D02*
X51142619Y-46750495D01*
X51142619Y-46750495D02*
X51169557Y-46831307D01*
X51169557Y-46831307D02*
X51169557Y-46885182D01*
X51169557Y-46885182D02*
X51142619Y-46965994D01*
X51142619Y-46965994D02*
X50927120Y-47181494D01*
X51223432Y-46400309D02*
X51223432Y-46346434D01*
X51223432Y-46346434D02*
X51250369Y-46265622D01*
X51250369Y-46265622D02*
X51385056Y-46130935D01*
X51385056Y-46130935D02*
X51465868Y-46103998D01*
X51465868Y-46103998D02*
X51519743Y-46103998D01*
X51519743Y-46103998D02*
X51600555Y-46130935D01*
X51600555Y-46130935D02*
X51654430Y-46184810D01*
X51654430Y-46184810D02*
X51708305Y-46292559D01*
X51708305Y-46292559D02*
X51708305Y-46939057D01*
X51708305Y-46939057D02*
X52058491Y-46588871D01*
X76813651Y-65513710D02*
X76355716Y-65432898D01*
X76490403Y-65836959D02*
X75924717Y-65271274D01*
X75924717Y-65271274D02*
X76140216Y-65055775D01*
X76140216Y-65055775D02*
X76221029Y-65028837D01*
X76221029Y-65028837D02*
X76274903Y-65028837D01*
X76274903Y-65028837D02*
X76355716Y-65055775D01*
X76355716Y-65055775D02*
X76436528Y-65136587D01*
X76436528Y-65136587D02*
X76463465Y-65217399D01*
X76463465Y-65217399D02*
X76463465Y-65271274D01*
X76463465Y-65271274D02*
X76436528Y-65352086D01*
X76436528Y-65352086D02*
X76221029Y-65567585D01*
X76490403Y-64705588D02*
X76948338Y-65163524D01*
X76948338Y-65163524D02*
X77029151Y-65190462D01*
X77029151Y-65190462D02*
X77083025Y-65190462D01*
X77083025Y-65190462D02*
X77163838Y-65163524D01*
X77163838Y-65163524D02*
X77271587Y-65055775D01*
X77271587Y-65055775D02*
X77298525Y-64974962D01*
X77298525Y-64974962D02*
X77298525Y-64921088D01*
X77298525Y-64921088D02*
X77271587Y-64840275D01*
X77271587Y-64840275D02*
X76813651Y-64382340D01*
X77648711Y-64678651D02*
X77083025Y-64112966D01*
X77083025Y-64112966D02*
X77971959Y-64355402D01*
X77971959Y-64355402D02*
X77406274Y-63789717D01*
X76072998Y-67770868D02*
X75992185Y-67797805D01*
X75992185Y-67797805D02*
X75911373Y-67878618D01*
X75911373Y-67878618D02*
X75857498Y-67986367D01*
X75857498Y-67986367D02*
X75857498Y-68094117D01*
X75857498Y-68094117D02*
X75884436Y-68174929D01*
X75884436Y-68174929D02*
X75965248Y-68309616D01*
X75965248Y-68309616D02*
X76046060Y-68390428D01*
X76046060Y-68390428D02*
X76180747Y-68471241D01*
X76180747Y-68471241D02*
X76261560Y-68498178D01*
X76261560Y-68498178D02*
X76369309Y-68498178D01*
X76369309Y-68498178D02*
X76477059Y-68444303D01*
X76477059Y-68444303D02*
X76530934Y-68390428D01*
X76530934Y-68390428D02*
X76584808Y-68282679D01*
X76584808Y-68282679D02*
X76584808Y-68228804D01*
X76584808Y-68228804D02*
X76396247Y-68040242D01*
X76396247Y-68040242D02*
X76288497Y-68147992D01*
X76881120Y-68040242D02*
X76315434Y-67474557D01*
X76315434Y-67474557D02*
X76530934Y-67259057D01*
X76530934Y-67259057D02*
X76611746Y-67232120D01*
X76611746Y-67232120D02*
X76665621Y-67232120D01*
X76665621Y-67232120D02*
X76746433Y-67259057D01*
X76746433Y-67259057D02*
X76827245Y-67339870D01*
X76827245Y-67339870D02*
X76854182Y-67420682D01*
X76854182Y-67420682D02*
X76854182Y-67474557D01*
X76854182Y-67474557D02*
X76827245Y-67555369D01*
X76827245Y-67555369D02*
X76611746Y-67770868D01*
X76908057Y-66989683D02*
X76908057Y-66935809D01*
X76908057Y-66935809D02*
X76934995Y-66854996D01*
X76934995Y-66854996D02*
X77069682Y-66720309D01*
X77069682Y-66720309D02*
X77150494Y-66693372D01*
X77150494Y-66693372D02*
X77204369Y-66693372D01*
X77204369Y-66693372D02*
X77285181Y-66720309D01*
X77285181Y-66720309D02*
X77339056Y-66774184D01*
X77339056Y-66774184D02*
X77392930Y-66881934D01*
X77392930Y-66881934D02*
X77392930Y-67528431D01*
X77392930Y-67528431D02*
X77743117Y-67178245D01*
X77446805Y-66450935D02*
X77446805Y-66397060D01*
X77446805Y-66397060D02*
X77473743Y-66316248D01*
X77473743Y-66316248D02*
X77608430Y-66181561D01*
X77608430Y-66181561D02*
X77689242Y-66154624D01*
X77689242Y-66154624D02*
X77743117Y-66154624D01*
X77743117Y-66154624D02*
X77823929Y-66181561D01*
X77823929Y-66181561D02*
X77877804Y-66235436D01*
X77877804Y-66235436D02*
X77931679Y-66343186D01*
X77931679Y-66343186D02*
X77931679Y-66989683D01*
X77931679Y-66989683D02*
X78281865Y-66639497D01*
X50488372Y-39561494D02*
X50407560Y-39588431D01*
X50407560Y-39588431D02*
X50326748Y-39669243D01*
X50326748Y-39669243D02*
X50272873Y-39776993D01*
X50272873Y-39776993D02*
X50272873Y-39884742D01*
X50272873Y-39884742D02*
X50299810Y-39965555D01*
X50299810Y-39965555D02*
X50380623Y-40100242D01*
X50380623Y-40100242D02*
X50461435Y-40181054D01*
X50461435Y-40181054D02*
X50596122Y-40261866D01*
X50596122Y-40261866D02*
X50676934Y-40288803D01*
X50676934Y-40288803D02*
X50784684Y-40288803D01*
X50784684Y-40288803D02*
X50892433Y-40234929D01*
X50892433Y-40234929D02*
X50946308Y-40181054D01*
X50946308Y-40181054D02*
X51000183Y-40073304D01*
X51000183Y-40073304D02*
X51000183Y-40019429D01*
X51000183Y-40019429D02*
X50811621Y-39830868D01*
X50811621Y-39830868D02*
X50703871Y-39938617D01*
X51296494Y-39830868D02*
X50730809Y-39265182D01*
X50730809Y-39265182D02*
X50946308Y-39049683D01*
X50946308Y-39049683D02*
X51027120Y-39022746D01*
X51027120Y-39022746D02*
X51080995Y-39022746D01*
X51080995Y-39022746D02*
X51161807Y-39049683D01*
X51161807Y-39049683D02*
X51242619Y-39130495D01*
X51242619Y-39130495D02*
X51269557Y-39211307D01*
X51269557Y-39211307D02*
X51269557Y-39265182D01*
X51269557Y-39265182D02*
X51242619Y-39345994D01*
X51242619Y-39345994D02*
X51027120Y-39561494D01*
X51404244Y-38591747D02*
X51458119Y-38537872D01*
X51458119Y-38537872D02*
X51538931Y-38510935D01*
X51538931Y-38510935D02*
X51592806Y-38510935D01*
X51592806Y-38510935D02*
X51673618Y-38537872D01*
X51673618Y-38537872D02*
X51808305Y-38618685D01*
X51808305Y-38618685D02*
X51942992Y-38753372D01*
X51942992Y-38753372D02*
X52023804Y-38888059D01*
X52023804Y-38888059D02*
X52050741Y-38968871D01*
X52050741Y-38968871D02*
X52050741Y-39022746D01*
X52050741Y-39022746D02*
X52023804Y-39103558D01*
X52023804Y-39103558D02*
X51969929Y-39157433D01*
X51969929Y-39157433D02*
X51889117Y-39184370D01*
X51889117Y-39184370D02*
X51835242Y-39184370D01*
X51835242Y-39184370D02*
X51754430Y-39157433D01*
X51754430Y-39157433D02*
X51619743Y-39076620D01*
X51619743Y-39076620D02*
X51485056Y-38941933D01*
X51485056Y-38941933D02*
X51404244Y-38807246D01*
X51404244Y-38807246D02*
X51377306Y-38726434D01*
X51377306Y-38726434D02*
X51377306Y-38672559D01*
X51377306Y-38672559D02*
X51404244Y-38591747D01*
X76072998Y-80470868D02*
X75992185Y-80497805D01*
X75992185Y-80497805D02*
X75911373Y-80578618D01*
X75911373Y-80578618D02*
X75857498Y-80686367D01*
X75857498Y-80686367D02*
X75857498Y-80794117D01*
X75857498Y-80794117D02*
X75884436Y-80874929D01*
X75884436Y-80874929D02*
X75965248Y-81009616D01*
X75965248Y-81009616D02*
X76046060Y-81090428D01*
X76046060Y-81090428D02*
X76180747Y-81171241D01*
X76180747Y-81171241D02*
X76261560Y-81198178D01*
X76261560Y-81198178D02*
X76369309Y-81198178D01*
X76369309Y-81198178D02*
X76477059Y-81144303D01*
X76477059Y-81144303D02*
X76530934Y-81090428D01*
X76530934Y-81090428D02*
X76584808Y-80982679D01*
X76584808Y-80982679D02*
X76584808Y-80928804D01*
X76584808Y-80928804D02*
X76396247Y-80740242D01*
X76396247Y-80740242D02*
X76288497Y-80847992D01*
X76881120Y-80740242D02*
X76315434Y-80174557D01*
X76315434Y-80174557D02*
X76530934Y-79959057D01*
X76530934Y-79959057D02*
X76611746Y-79932120D01*
X76611746Y-79932120D02*
X76665621Y-79932120D01*
X76665621Y-79932120D02*
X76746433Y-79959057D01*
X76746433Y-79959057D02*
X76827245Y-80039870D01*
X76827245Y-80039870D02*
X76854182Y-80120682D01*
X76854182Y-80120682D02*
X76854182Y-80174557D01*
X76854182Y-80174557D02*
X76827245Y-80255369D01*
X76827245Y-80255369D02*
X76611746Y-80470868D01*
X77743117Y-79878245D02*
X77419868Y-80201494D01*
X77581492Y-80039870D02*
X77015807Y-79474184D01*
X77015807Y-79474184D02*
X77042744Y-79608871D01*
X77042744Y-79608871D02*
X77042744Y-79716621D01*
X77042744Y-79716621D02*
X77015807Y-79797433D01*
X77743117Y-79231747D02*
X77662305Y-79258685D01*
X77662305Y-79258685D02*
X77608430Y-79258685D01*
X77608430Y-79258685D02*
X77527618Y-79231747D01*
X77527618Y-79231747D02*
X77500680Y-79204810D01*
X77500680Y-79204810D02*
X77473743Y-79123998D01*
X77473743Y-79123998D02*
X77473743Y-79070123D01*
X77473743Y-79070123D02*
X77500680Y-78989311D01*
X77500680Y-78989311D02*
X77608430Y-78881561D01*
X77608430Y-78881561D02*
X77689242Y-78854624D01*
X77689242Y-78854624D02*
X77743117Y-78854624D01*
X77743117Y-78854624D02*
X77823929Y-78881561D01*
X77823929Y-78881561D02*
X77850866Y-78908499D01*
X77850866Y-78908499D02*
X77877804Y-78989311D01*
X77877804Y-78989311D02*
X77877804Y-79043186D01*
X77877804Y-79043186D02*
X77850866Y-79123998D01*
X77850866Y-79123998D02*
X77743117Y-79231747D01*
X77743117Y-79231747D02*
X77716179Y-79312560D01*
X77716179Y-79312560D02*
X77716179Y-79366434D01*
X77716179Y-79366434D02*
X77743117Y-79447247D01*
X77743117Y-79447247D02*
X77850866Y-79554996D01*
X77850866Y-79554996D02*
X77931679Y-79581934D01*
X77931679Y-79581934D02*
X77985553Y-79581934D01*
X77985553Y-79581934D02*
X78066366Y-79554996D01*
X78066366Y-79554996D02*
X78174115Y-79447247D01*
X78174115Y-79447247D02*
X78201053Y-79366434D01*
X78201053Y-79366434D02*
X78201053Y-79312560D01*
X78201053Y-79312560D02*
X78174115Y-79231747D01*
X78174115Y-79231747D02*
X78066366Y-79123998D01*
X78066366Y-79123998D02*
X77985553Y-79097060D01*
X77985553Y-79097060D02*
X77931679Y-79097060D01*
X77931679Y-79097060D02*
X77850866Y-79123998D01*
X50488372Y-54801494D02*
X50407560Y-54828431D01*
X50407560Y-54828431D02*
X50326748Y-54909243D01*
X50326748Y-54909243D02*
X50272873Y-55016993D01*
X50272873Y-55016993D02*
X50272873Y-55124742D01*
X50272873Y-55124742D02*
X50299810Y-55205555D01*
X50299810Y-55205555D02*
X50380623Y-55340242D01*
X50380623Y-55340242D02*
X50461435Y-55421054D01*
X50461435Y-55421054D02*
X50596122Y-55501866D01*
X50596122Y-55501866D02*
X50676934Y-55528803D01*
X50676934Y-55528803D02*
X50784684Y-55528803D01*
X50784684Y-55528803D02*
X50892433Y-55474929D01*
X50892433Y-55474929D02*
X50946308Y-55421054D01*
X50946308Y-55421054D02*
X51000183Y-55313304D01*
X51000183Y-55313304D02*
X51000183Y-55259429D01*
X51000183Y-55259429D02*
X50811621Y-55070868D01*
X50811621Y-55070868D02*
X50703871Y-55178617D01*
X51296494Y-55070868D02*
X50730809Y-54505182D01*
X50730809Y-54505182D02*
X50946308Y-54289683D01*
X50946308Y-54289683D02*
X51027120Y-54262746D01*
X51027120Y-54262746D02*
X51080995Y-54262746D01*
X51080995Y-54262746D02*
X51161807Y-54289683D01*
X51161807Y-54289683D02*
X51242619Y-54370495D01*
X51242619Y-54370495D02*
X51269557Y-54451307D01*
X51269557Y-54451307D02*
X51269557Y-54505182D01*
X51269557Y-54505182D02*
X51242619Y-54585994D01*
X51242619Y-54585994D02*
X51027120Y-54801494D01*
X51565868Y-53670123D02*
X51296494Y-53939497D01*
X51296494Y-53939497D02*
X51538931Y-54235808D01*
X51538931Y-54235808D02*
X51538931Y-54181933D01*
X51538931Y-54181933D02*
X51565868Y-54101121D01*
X51565868Y-54101121D02*
X51700555Y-53966434D01*
X51700555Y-53966434D02*
X51781367Y-53939497D01*
X51781367Y-53939497D02*
X51835242Y-53939497D01*
X51835242Y-53939497D02*
X51916054Y-53966434D01*
X51916054Y-53966434D02*
X52050741Y-54101121D01*
X52050741Y-54101121D02*
X52077679Y-54181933D01*
X52077679Y-54181933D02*
X52077679Y-54235808D01*
X52077679Y-54235808D02*
X52050741Y-54316620D01*
X52050741Y-54316620D02*
X51916054Y-54451307D01*
X51916054Y-54451307D02*
X51835242Y-54478245D01*
X51835242Y-54478245D02*
X51781367Y-54478245D01*
X49818998Y-77930868D02*
X49738185Y-77957805D01*
X49738185Y-77957805D02*
X49657373Y-78038618D01*
X49657373Y-78038618D02*
X49603498Y-78146367D01*
X49603498Y-78146367D02*
X49603498Y-78254117D01*
X49603498Y-78254117D02*
X49630436Y-78334929D01*
X49630436Y-78334929D02*
X49711248Y-78469616D01*
X49711248Y-78469616D02*
X49792060Y-78550428D01*
X49792060Y-78550428D02*
X49926747Y-78631241D01*
X49926747Y-78631241D02*
X50007560Y-78658178D01*
X50007560Y-78658178D02*
X50115309Y-78658178D01*
X50115309Y-78658178D02*
X50223059Y-78604303D01*
X50223059Y-78604303D02*
X50276934Y-78550428D01*
X50276934Y-78550428D02*
X50330808Y-78442679D01*
X50330808Y-78442679D02*
X50330808Y-78388804D01*
X50330808Y-78388804D02*
X50142247Y-78200242D01*
X50142247Y-78200242D02*
X50034497Y-78307992D01*
X50627120Y-78200242D02*
X50061434Y-77634557D01*
X50061434Y-77634557D02*
X50276934Y-77419057D01*
X50276934Y-77419057D02*
X50357746Y-77392120D01*
X50357746Y-77392120D02*
X50411621Y-77392120D01*
X50411621Y-77392120D02*
X50492433Y-77419057D01*
X50492433Y-77419057D02*
X50573245Y-77499870D01*
X50573245Y-77499870D02*
X50600182Y-77580682D01*
X50600182Y-77580682D02*
X50600182Y-77634557D01*
X50600182Y-77634557D02*
X50573245Y-77715369D01*
X50573245Y-77715369D02*
X50357746Y-77930868D01*
X51489117Y-77338245D02*
X51165868Y-77661494D01*
X51327492Y-77499870D02*
X50761807Y-76934184D01*
X50761807Y-76934184D02*
X50788744Y-77068871D01*
X50788744Y-77068871D02*
X50788744Y-77176621D01*
X50788744Y-77176621D02*
X50761807Y-77257433D01*
X51192805Y-76610935D02*
X51192805Y-76557060D01*
X51192805Y-76557060D02*
X51219743Y-76476248D01*
X51219743Y-76476248D02*
X51354430Y-76341561D01*
X51354430Y-76341561D02*
X51435242Y-76314624D01*
X51435242Y-76314624D02*
X51489117Y-76314624D01*
X51489117Y-76314624D02*
X51569929Y-76341561D01*
X51569929Y-76341561D02*
X51623804Y-76395436D01*
X51623804Y-76395436D02*
X51677679Y-76503186D01*
X51677679Y-76503186D02*
X51677679Y-77149683D01*
X51677679Y-77149683D02*
X52027865Y-76799497D01*
X76072998Y-77930868D02*
X75992185Y-77957805D01*
X75992185Y-77957805D02*
X75911373Y-78038618D01*
X75911373Y-78038618D02*
X75857498Y-78146367D01*
X75857498Y-78146367D02*
X75857498Y-78254117D01*
X75857498Y-78254117D02*
X75884436Y-78334929D01*
X75884436Y-78334929D02*
X75965248Y-78469616D01*
X75965248Y-78469616D02*
X76046060Y-78550428D01*
X76046060Y-78550428D02*
X76180747Y-78631241D01*
X76180747Y-78631241D02*
X76261560Y-78658178D01*
X76261560Y-78658178D02*
X76369309Y-78658178D01*
X76369309Y-78658178D02*
X76477059Y-78604303D01*
X76477059Y-78604303D02*
X76530934Y-78550428D01*
X76530934Y-78550428D02*
X76584808Y-78442679D01*
X76584808Y-78442679D02*
X76584808Y-78388804D01*
X76584808Y-78388804D02*
X76396247Y-78200242D01*
X76396247Y-78200242D02*
X76288497Y-78307992D01*
X76881120Y-78200242D02*
X76315434Y-77634557D01*
X76315434Y-77634557D02*
X76530934Y-77419057D01*
X76530934Y-77419057D02*
X76611746Y-77392120D01*
X76611746Y-77392120D02*
X76665621Y-77392120D01*
X76665621Y-77392120D02*
X76746433Y-77419057D01*
X76746433Y-77419057D02*
X76827245Y-77499870D01*
X76827245Y-77499870D02*
X76854182Y-77580682D01*
X76854182Y-77580682D02*
X76854182Y-77634557D01*
X76854182Y-77634557D02*
X76827245Y-77715369D01*
X76827245Y-77715369D02*
X76611746Y-77930868D01*
X77743117Y-77338245D02*
X77419868Y-77661494D01*
X77581492Y-77499870D02*
X77015807Y-76934184D01*
X77015807Y-76934184D02*
X77042744Y-77068871D01*
X77042744Y-77068871D02*
X77042744Y-77176621D01*
X77042744Y-77176621D02*
X77015807Y-77257433D01*
X78012491Y-77068871D02*
X78120240Y-76961121D01*
X78120240Y-76961121D02*
X78147178Y-76880309D01*
X78147178Y-76880309D02*
X78147178Y-76826434D01*
X78147178Y-76826434D02*
X78120240Y-76691747D01*
X78120240Y-76691747D02*
X78039428Y-76557060D01*
X78039428Y-76557060D02*
X77823929Y-76341561D01*
X77823929Y-76341561D02*
X77743117Y-76314624D01*
X77743117Y-76314624D02*
X77689242Y-76314624D01*
X77689242Y-76314624D02*
X77608430Y-76341561D01*
X77608430Y-76341561D02*
X77500680Y-76449311D01*
X77500680Y-76449311D02*
X77473743Y-76530123D01*
X77473743Y-76530123D02*
X77473743Y-76583998D01*
X77473743Y-76583998D02*
X77500680Y-76664810D01*
X77500680Y-76664810D02*
X77635367Y-76799497D01*
X77635367Y-76799497D02*
X77716179Y-76826434D01*
X77716179Y-76826434D02*
X77770054Y-76826434D01*
X77770054Y-76826434D02*
X77850866Y-76799497D01*
X77850866Y-76799497D02*
X77958616Y-76691747D01*
X77958616Y-76691747D02*
X77985553Y-76610935D01*
X77985553Y-76610935D02*
X77985553Y-76557060D01*
X77985553Y-76557060D02*
X77958616Y-76476248D01*
X50488372Y-67501494D02*
X50407560Y-67528431D01*
X50407560Y-67528431D02*
X50326748Y-67609243D01*
X50326748Y-67609243D02*
X50272873Y-67716993D01*
X50272873Y-67716993D02*
X50272873Y-67824742D01*
X50272873Y-67824742D02*
X50299810Y-67905555D01*
X50299810Y-67905555D02*
X50380623Y-68040242D01*
X50380623Y-68040242D02*
X50461435Y-68121054D01*
X50461435Y-68121054D02*
X50596122Y-68201866D01*
X50596122Y-68201866D02*
X50676934Y-68228803D01*
X50676934Y-68228803D02*
X50784684Y-68228803D01*
X50784684Y-68228803D02*
X50892433Y-68174929D01*
X50892433Y-68174929D02*
X50946308Y-68121054D01*
X50946308Y-68121054D02*
X51000183Y-68013304D01*
X51000183Y-68013304D02*
X51000183Y-67959429D01*
X51000183Y-67959429D02*
X50811621Y-67770868D01*
X50811621Y-67770868D02*
X50703871Y-67878617D01*
X51296494Y-67770868D02*
X50730809Y-67205182D01*
X50730809Y-67205182D02*
X50946308Y-66989683D01*
X50946308Y-66989683D02*
X51027120Y-66962746D01*
X51027120Y-66962746D02*
X51080995Y-66962746D01*
X51080995Y-66962746D02*
X51161807Y-66989683D01*
X51161807Y-66989683D02*
X51242619Y-67070495D01*
X51242619Y-67070495D02*
X51269557Y-67151307D01*
X51269557Y-67151307D02*
X51269557Y-67205182D01*
X51269557Y-67205182D02*
X51242619Y-67285994D01*
X51242619Y-67285994D02*
X51027120Y-67501494D01*
X51889117Y-67178245D02*
X51996867Y-67070495D01*
X51996867Y-67070495D02*
X52023804Y-66989683D01*
X52023804Y-66989683D02*
X52023804Y-66935808D01*
X52023804Y-66935808D02*
X51996867Y-66801121D01*
X51996867Y-66801121D02*
X51916054Y-66666434D01*
X51916054Y-66666434D02*
X51700555Y-66450935D01*
X51700555Y-66450935D02*
X51619743Y-66423998D01*
X51619743Y-66423998D02*
X51565868Y-66423998D01*
X51565868Y-66423998D02*
X51485056Y-66450935D01*
X51485056Y-66450935D02*
X51377306Y-66558685D01*
X51377306Y-66558685D02*
X51350369Y-66639497D01*
X51350369Y-66639497D02*
X51350369Y-66693372D01*
X51350369Y-66693372D02*
X51377306Y-66774184D01*
X51377306Y-66774184D02*
X51511993Y-66908871D01*
X51511993Y-66908871D02*
X51592806Y-66935808D01*
X51592806Y-66935808D02*
X51646680Y-66935808D01*
X51646680Y-66935808D02*
X51727493Y-66908871D01*
X51727493Y-66908871D02*
X51835242Y-66801121D01*
X51835242Y-66801121D02*
X51862180Y-66720309D01*
X51862180Y-66720309D02*
X51862180Y-66666434D01*
X51862180Y-66666434D02*
X51835242Y-66585622D01*
X76061435Y-82768431D02*
X75980623Y-82795368D01*
X75980623Y-82795368D02*
X75899811Y-82876180D01*
X75899811Y-82876180D02*
X75845936Y-82983930D01*
X75845936Y-82983930D02*
X75845936Y-83091680D01*
X75845936Y-83091680D02*
X75872873Y-83172492D01*
X75872873Y-83172492D02*
X75953685Y-83307179D01*
X75953685Y-83307179D02*
X76034498Y-83387991D01*
X76034498Y-83387991D02*
X76169185Y-83468803D01*
X76169185Y-83468803D02*
X76249997Y-83495741D01*
X76249997Y-83495741D02*
X76357746Y-83495741D01*
X76357746Y-83495741D02*
X76465496Y-83441866D01*
X76465496Y-83441866D02*
X76519371Y-83387991D01*
X76519371Y-83387991D02*
X76573246Y-83280241D01*
X76573246Y-83280241D02*
X76573246Y-83226367D01*
X76573246Y-83226367D02*
X76384684Y-83037805D01*
X76384684Y-83037805D02*
X76276934Y-83145554D01*
X76869557Y-83037805D02*
X76303872Y-82472119D01*
X76303872Y-82472119D02*
X77192806Y-82714556D01*
X77192806Y-82714556D02*
X76627120Y-82148871D01*
X77462180Y-82445182D02*
X76896494Y-81879497D01*
X76896494Y-81879497D02*
X77031181Y-81744810D01*
X77031181Y-81744810D02*
X77138931Y-81690935D01*
X77138931Y-81690935D02*
X77246680Y-81690935D01*
X77246680Y-81690935D02*
X77327493Y-81717872D01*
X77327493Y-81717872D02*
X77462180Y-81798685D01*
X77462180Y-81798685D02*
X77542992Y-81879497D01*
X77542992Y-81879497D02*
X77623804Y-82014184D01*
X77623804Y-82014184D02*
X77650741Y-82094996D01*
X77650741Y-82094996D02*
X77650741Y-82202746D01*
X77650741Y-82202746D02*
X77596867Y-82310495D01*
X77596867Y-82310495D02*
X77462180Y-82445182D01*
X76072998Y-62690868D02*
X75992185Y-62717805D01*
X75992185Y-62717805D02*
X75911373Y-62798618D01*
X75911373Y-62798618D02*
X75857498Y-62906367D01*
X75857498Y-62906367D02*
X75857498Y-63014117D01*
X75857498Y-63014117D02*
X75884436Y-63094929D01*
X75884436Y-63094929D02*
X75965248Y-63229616D01*
X75965248Y-63229616D02*
X76046060Y-63310428D01*
X76046060Y-63310428D02*
X76180747Y-63391241D01*
X76180747Y-63391241D02*
X76261560Y-63418178D01*
X76261560Y-63418178D02*
X76369309Y-63418178D01*
X76369309Y-63418178D02*
X76477059Y-63364303D01*
X76477059Y-63364303D02*
X76530934Y-63310428D01*
X76530934Y-63310428D02*
X76584808Y-63202679D01*
X76584808Y-63202679D02*
X76584808Y-63148804D01*
X76584808Y-63148804D02*
X76396247Y-62960242D01*
X76396247Y-62960242D02*
X76288497Y-63067992D01*
X76881120Y-62960242D02*
X76315434Y-62394557D01*
X76315434Y-62394557D02*
X76530934Y-62179057D01*
X76530934Y-62179057D02*
X76611746Y-62152120D01*
X76611746Y-62152120D02*
X76665621Y-62152120D01*
X76665621Y-62152120D02*
X76746433Y-62179057D01*
X76746433Y-62179057D02*
X76827245Y-62259870D01*
X76827245Y-62259870D02*
X76854182Y-62340682D01*
X76854182Y-62340682D02*
X76854182Y-62394557D01*
X76854182Y-62394557D02*
X76827245Y-62475369D01*
X76827245Y-62475369D02*
X76611746Y-62690868D01*
X76908057Y-61909683D02*
X76908057Y-61855809D01*
X76908057Y-61855809D02*
X76934995Y-61774996D01*
X76934995Y-61774996D02*
X77069682Y-61640309D01*
X77069682Y-61640309D02*
X77150494Y-61613372D01*
X77150494Y-61613372D02*
X77204369Y-61613372D01*
X77204369Y-61613372D02*
X77285181Y-61640309D01*
X77285181Y-61640309D02*
X77339056Y-61694184D01*
X77339056Y-61694184D02*
X77392930Y-61801934D01*
X77392930Y-61801934D02*
X77392930Y-62448431D01*
X77392930Y-62448431D02*
X77743117Y-62098245D01*
X77662305Y-61047686D02*
X77554555Y-61155436D01*
X77554555Y-61155436D02*
X77527618Y-61236248D01*
X77527618Y-61236248D02*
X77527618Y-61290123D01*
X77527618Y-61290123D02*
X77554555Y-61424810D01*
X77554555Y-61424810D02*
X77635367Y-61559497D01*
X77635367Y-61559497D02*
X77850866Y-61774996D01*
X77850866Y-61774996D02*
X77931679Y-61801934D01*
X77931679Y-61801934D02*
X77985553Y-61801934D01*
X77985553Y-61801934D02*
X78066366Y-61774996D01*
X78066366Y-61774996D02*
X78174115Y-61667247D01*
X78174115Y-61667247D02*
X78201053Y-61586434D01*
X78201053Y-61586434D02*
X78201053Y-61532560D01*
X78201053Y-61532560D02*
X78174115Y-61451747D01*
X78174115Y-61451747D02*
X78039428Y-61317060D01*
X78039428Y-61317060D02*
X77958616Y-61290123D01*
X77958616Y-61290123D02*
X77904741Y-61290123D01*
X77904741Y-61290123D02*
X77823929Y-61317060D01*
X77823929Y-61317060D02*
X77716179Y-61424810D01*
X77716179Y-61424810D02*
X77689242Y-61505622D01*
X77689242Y-61505622D02*
X77689242Y-61559497D01*
X77689242Y-61559497D02*
X77716179Y-61640309D01*
X76072998Y-85550868D02*
X75992185Y-85577805D01*
X75992185Y-85577805D02*
X75911373Y-85658618D01*
X75911373Y-85658618D02*
X75857498Y-85766367D01*
X75857498Y-85766367D02*
X75857498Y-85874117D01*
X75857498Y-85874117D02*
X75884436Y-85954929D01*
X75884436Y-85954929D02*
X75965248Y-86089616D01*
X75965248Y-86089616D02*
X76046060Y-86170428D01*
X76046060Y-86170428D02*
X76180747Y-86251241D01*
X76180747Y-86251241D02*
X76261560Y-86278178D01*
X76261560Y-86278178D02*
X76369309Y-86278178D01*
X76369309Y-86278178D02*
X76477059Y-86224303D01*
X76477059Y-86224303D02*
X76530934Y-86170428D01*
X76530934Y-86170428D02*
X76584808Y-86062679D01*
X76584808Y-86062679D02*
X76584808Y-86008804D01*
X76584808Y-86008804D02*
X76396247Y-85820242D01*
X76396247Y-85820242D02*
X76288497Y-85927992D01*
X76881120Y-85820242D02*
X76315434Y-85254557D01*
X76315434Y-85254557D02*
X76530934Y-85039057D01*
X76530934Y-85039057D02*
X76611746Y-85012120D01*
X76611746Y-85012120D02*
X76665621Y-85012120D01*
X76665621Y-85012120D02*
X76746433Y-85039057D01*
X76746433Y-85039057D02*
X76827245Y-85119870D01*
X76827245Y-85119870D02*
X76854182Y-85200682D01*
X76854182Y-85200682D02*
X76854182Y-85254557D01*
X76854182Y-85254557D02*
X76827245Y-85335369D01*
X76827245Y-85335369D02*
X76611746Y-85550868D01*
X77743117Y-84958245D02*
X77419868Y-85281494D01*
X77581492Y-85119870D02*
X77015807Y-84554184D01*
X77015807Y-84554184D02*
X77042744Y-84688871D01*
X77042744Y-84688871D02*
X77042744Y-84796621D01*
X77042744Y-84796621D02*
X77015807Y-84877433D01*
X77365993Y-84203998D02*
X77743117Y-83826874D01*
X77743117Y-83826874D02*
X78066366Y-84634996D01*
X76072998Y-75390868D02*
X75992185Y-75417805D01*
X75992185Y-75417805D02*
X75911373Y-75498618D01*
X75911373Y-75498618D02*
X75857498Y-75606367D01*
X75857498Y-75606367D02*
X75857498Y-75714117D01*
X75857498Y-75714117D02*
X75884436Y-75794929D01*
X75884436Y-75794929D02*
X75965248Y-75929616D01*
X75965248Y-75929616D02*
X76046060Y-76010428D01*
X76046060Y-76010428D02*
X76180747Y-76091241D01*
X76180747Y-76091241D02*
X76261560Y-76118178D01*
X76261560Y-76118178D02*
X76369309Y-76118178D01*
X76369309Y-76118178D02*
X76477059Y-76064303D01*
X76477059Y-76064303D02*
X76530934Y-76010428D01*
X76530934Y-76010428D02*
X76584808Y-75902679D01*
X76584808Y-75902679D02*
X76584808Y-75848804D01*
X76584808Y-75848804D02*
X76396247Y-75660242D01*
X76396247Y-75660242D02*
X76288497Y-75767992D01*
X76881120Y-75660242D02*
X76315434Y-75094557D01*
X76315434Y-75094557D02*
X76530934Y-74879057D01*
X76530934Y-74879057D02*
X76611746Y-74852120D01*
X76611746Y-74852120D02*
X76665621Y-74852120D01*
X76665621Y-74852120D02*
X76746433Y-74879057D01*
X76746433Y-74879057D02*
X76827245Y-74959870D01*
X76827245Y-74959870D02*
X76854182Y-75040682D01*
X76854182Y-75040682D02*
X76854182Y-75094557D01*
X76854182Y-75094557D02*
X76827245Y-75175369D01*
X76827245Y-75175369D02*
X76611746Y-75390868D01*
X76908057Y-74609683D02*
X76908057Y-74555809D01*
X76908057Y-74555809D02*
X76934995Y-74474996D01*
X76934995Y-74474996D02*
X77069682Y-74340309D01*
X77069682Y-74340309D02*
X77150494Y-74313372D01*
X77150494Y-74313372D02*
X77204369Y-74313372D01*
X77204369Y-74313372D02*
X77285181Y-74340309D01*
X77285181Y-74340309D02*
X77339056Y-74394184D01*
X77339056Y-74394184D02*
X77392930Y-74501934D01*
X77392930Y-74501934D02*
X77392930Y-75148431D01*
X77392930Y-75148431D02*
X77743117Y-74798245D01*
X77527618Y-73882373D02*
X77581492Y-73828499D01*
X77581492Y-73828499D02*
X77662305Y-73801561D01*
X77662305Y-73801561D02*
X77716179Y-73801561D01*
X77716179Y-73801561D02*
X77796992Y-73828499D01*
X77796992Y-73828499D02*
X77931679Y-73909311D01*
X77931679Y-73909311D02*
X78066366Y-74043998D01*
X78066366Y-74043998D02*
X78147178Y-74178685D01*
X78147178Y-74178685D02*
X78174115Y-74259497D01*
X78174115Y-74259497D02*
X78174115Y-74313372D01*
X78174115Y-74313372D02*
X78147178Y-74394184D01*
X78147178Y-74394184D02*
X78093303Y-74448059D01*
X78093303Y-74448059D02*
X78012491Y-74474996D01*
X78012491Y-74474996D02*
X77958616Y-74474996D01*
X77958616Y-74474996D02*
X77877804Y-74448059D01*
X77877804Y-74448059D02*
X77743117Y-74367247D01*
X77743117Y-74367247D02*
X77608430Y-74232560D01*
X77608430Y-74232560D02*
X77527618Y-74097873D01*
X77527618Y-74097873D02*
X77500680Y-74017060D01*
X77500680Y-74017060D02*
X77500680Y-73963186D01*
X77500680Y-73963186D02*
X77527618Y-73882373D01*
X50461435Y-44668431D02*
X50380623Y-44695368D01*
X50380623Y-44695368D02*
X50299811Y-44776180D01*
X50299811Y-44776180D02*
X50245936Y-44883930D01*
X50245936Y-44883930D02*
X50245936Y-44991680D01*
X50245936Y-44991680D02*
X50272873Y-45072492D01*
X50272873Y-45072492D02*
X50353685Y-45207179D01*
X50353685Y-45207179D02*
X50434498Y-45287991D01*
X50434498Y-45287991D02*
X50569185Y-45368803D01*
X50569185Y-45368803D02*
X50649997Y-45395741D01*
X50649997Y-45395741D02*
X50757746Y-45395741D01*
X50757746Y-45395741D02*
X50865496Y-45341866D01*
X50865496Y-45341866D02*
X50919371Y-45287991D01*
X50919371Y-45287991D02*
X50973246Y-45180241D01*
X50973246Y-45180241D02*
X50973246Y-45126367D01*
X50973246Y-45126367D02*
X50784684Y-44937805D01*
X50784684Y-44937805D02*
X50676934Y-45045554D01*
X51269557Y-44937805D02*
X50703872Y-44372119D01*
X50703872Y-44372119D02*
X51592806Y-44614556D01*
X51592806Y-44614556D02*
X51027120Y-44048871D01*
X51862180Y-44345182D02*
X51296494Y-43779497D01*
X51296494Y-43779497D02*
X51431181Y-43644810D01*
X51431181Y-43644810D02*
X51538931Y-43590935D01*
X51538931Y-43590935D02*
X51646680Y-43590935D01*
X51646680Y-43590935D02*
X51727493Y-43617872D01*
X51727493Y-43617872D02*
X51862180Y-43698685D01*
X51862180Y-43698685D02*
X51942992Y-43779497D01*
X51942992Y-43779497D02*
X52023804Y-43914184D01*
X52023804Y-43914184D02*
X52050741Y-43994996D01*
X52050741Y-43994996D02*
X52050741Y-44102746D01*
X52050741Y-44102746D02*
X51996867Y-44210495D01*
X51996867Y-44210495D02*
X51862180Y-44345182D01*
X50488372Y-49721494D02*
X50407560Y-49748431D01*
X50407560Y-49748431D02*
X50326748Y-49829243D01*
X50326748Y-49829243D02*
X50272873Y-49936993D01*
X50272873Y-49936993D02*
X50272873Y-50044742D01*
X50272873Y-50044742D02*
X50299810Y-50125555D01*
X50299810Y-50125555D02*
X50380623Y-50260242D01*
X50380623Y-50260242D02*
X50461435Y-50341054D01*
X50461435Y-50341054D02*
X50596122Y-50421866D01*
X50596122Y-50421866D02*
X50676934Y-50448803D01*
X50676934Y-50448803D02*
X50784684Y-50448803D01*
X50784684Y-50448803D02*
X50892433Y-50394929D01*
X50892433Y-50394929D02*
X50946308Y-50341054D01*
X50946308Y-50341054D02*
X51000183Y-50233304D01*
X51000183Y-50233304D02*
X51000183Y-50179429D01*
X51000183Y-50179429D02*
X50811621Y-49990868D01*
X50811621Y-49990868D02*
X50703871Y-50098617D01*
X51296494Y-49990868D02*
X50730809Y-49425182D01*
X50730809Y-49425182D02*
X50946308Y-49209683D01*
X50946308Y-49209683D02*
X51027120Y-49182746D01*
X51027120Y-49182746D02*
X51080995Y-49182746D01*
X51080995Y-49182746D02*
X51161807Y-49209683D01*
X51161807Y-49209683D02*
X51242619Y-49290495D01*
X51242619Y-49290495D02*
X51269557Y-49371307D01*
X51269557Y-49371307D02*
X51269557Y-49425182D01*
X51269557Y-49425182D02*
X51242619Y-49505994D01*
X51242619Y-49505994D02*
X51027120Y-49721494D01*
X51242619Y-48913372D02*
X51592806Y-48563185D01*
X51592806Y-48563185D02*
X51619743Y-48967246D01*
X51619743Y-48967246D02*
X51700555Y-48886434D01*
X51700555Y-48886434D02*
X51781367Y-48859497D01*
X51781367Y-48859497D02*
X51835242Y-48859497D01*
X51835242Y-48859497D02*
X51916054Y-48886434D01*
X51916054Y-48886434D02*
X52050741Y-49021121D01*
X52050741Y-49021121D02*
X52077679Y-49101933D01*
X52077679Y-49101933D02*
X52077679Y-49155808D01*
X52077679Y-49155808D02*
X52050741Y-49236620D01*
X52050741Y-49236620D02*
X51889117Y-49398245D01*
X51889117Y-49398245D02*
X51808305Y-49425182D01*
X51808305Y-49425182D02*
X51754430Y-49425182D01*
X50461435Y-70068431D02*
X50380623Y-70095368D01*
X50380623Y-70095368D02*
X50299811Y-70176180D01*
X50299811Y-70176180D02*
X50245936Y-70283930D01*
X50245936Y-70283930D02*
X50245936Y-70391680D01*
X50245936Y-70391680D02*
X50272873Y-70472492D01*
X50272873Y-70472492D02*
X50353685Y-70607179D01*
X50353685Y-70607179D02*
X50434498Y-70687991D01*
X50434498Y-70687991D02*
X50569185Y-70768803D01*
X50569185Y-70768803D02*
X50649997Y-70795741D01*
X50649997Y-70795741D02*
X50757746Y-70795741D01*
X50757746Y-70795741D02*
X50865496Y-70741866D01*
X50865496Y-70741866D02*
X50919371Y-70687991D01*
X50919371Y-70687991D02*
X50973246Y-70580241D01*
X50973246Y-70580241D02*
X50973246Y-70526367D01*
X50973246Y-70526367D02*
X50784684Y-70337805D01*
X50784684Y-70337805D02*
X50676934Y-70445554D01*
X51269557Y-70337805D02*
X50703872Y-69772119D01*
X50703872Y-69772119D02*
X51592806Y-70014556D01*
X51592806Y-70014556D02*
X51027120Y-69448871D01*
X51862180Y-69745182D02*
X51296494Y-69179497D01*
X51296494Y-69179497D02*
X51431181Y-69044810D01*
X51431181Y-69044810D02*
X51538931Y-68990935D01*
X51538931Y-68990935D02*
X51646680Y-68990935D01*
X51646680Y-68990935D02*
X51727493Y-69017872D01*
X51727493Y-69017872D02*
X51862180Y-69098685D01*
X51862180Y-69098685D02*
X51942992Y-69179497D01*
X51942992Y-69179497D02*
X52023804Y-69314184D01*
X52023804Y-69314184D02*
X52050741Y-69394996D01*
X52050741Y-69394996D02*
X52050741Y-69502746D01*
X52050741Y-69502746D02*
X51996867Y-69610495D01*
X51996867Y-69610495D02*
X51862180Y-69745182D01*
X75865123Y-50060868D02*
X76215309Y-49710682D01*
X76215309Y-49710682D02*
X76242247Y-50114743D01*
X76242247Y-50114743D02*
X76323059Y-50033931D01*
X76323059Y-50033931D02*
X76403871Y-50006993D01*
X76403871Y-50006993D02*
X76457746Y-50006993D01*
X76457746Y-50006993D02*
X76538558Y-50033931D01*
X76538558Y-50033931D02*
X76673245Y-50168618D01*
X76673245Y-50168618D02*
X76700182Y-50249430D01*
X76700182Y-50249430D02*
X76700182Y-50303305D01*
X76700182Y-50303305D02*
X76673245Y-50384117D01*
X76673245Y-50384117D02*
X76511621Y-50545741D01*
X76511621Y-50545741D02*
X76430808Y-50572679D01*
X76430808Y-50572679D02*
X76376934Y-50572679D01*
X76376934Y-49549057D02*
X77131181Y-49926181D01*
X77131181Y-49926181D02*
X76754057Y-49171934D01*
X76888744Y-49037247D02*
X77238930Y-48687061D01*
X77238930Y-48687061D02*
X77265868Y-49091122D01*
X77265868Y-49091122D02*
X77346680Y-49010309D01*
X77346680Y-49010309D02*
X77427492Y-48983372D01*
X77427492Y-48983372D02*
X77481367Y-48983372D01*
X77481367Y-48983372D02*
X77562179Y-49010309D01*
X77562179Y-49010309D02*
X77696866Y-49144996D01*
X77696866Y-49144996D02*
X77723804Y-49225809D01*
X77723804Y-49225809D02*
X77723804Y-49279683D01*
X77723804Y-49279683D02*
X77696866Y-49360496D01*
X77696866Y-49360496D02*
X77535242Y-49522120D01*
X77535242Y-49522120D02*
X77454430Y-49549057D01*
X77454430Y-49549057D02*
X77400555Y-49549057D01*
X76072998Y-60160868D02*
X75992185Y-60187805D01*
X75992185Y-60187805D02*
X75911373Y-60268618D01*
X75911373Y-60268618D02*
X75857498Y-60376367D01*
X75857498Y-60376367D02*
X75857498Y-60484117D01*
X75857498Y-60484117D02*
X75884436Y-60564929D01*
X75884436Y-60564929D02*
X75965248Y-60699616D01*
X75965248Y-60699616D02*
X76046060Y-60780428D01*
X76046060Y-60780428D02*
X76180747Y-60861241D01*
X76180747Y-60861241D02*
X76261560Y-60888178D01*
X76261560Y-60888178D02*
X76369309Y-60888178D01*
X76369309Y-60888178D02*
X76477059Y-60834303D01*
X76477059Y-60834303D02*
X76530934Y-60780428D01*
X76530934Y-60780428D02*
X76584808Y-60672679D01*
X76584808Y-60672679D02*
X76584808Y-60618804D01*
X76584808Y-60618804D02*
X76396247Y-60430242D01*
X76396247Y-60430242D02*
X76288497Y-60537992D01*
X76881120Y-60430242D02*
X76315434Y-59864557D01*
X76315434Y-59864557D02*
X76530934Y-59649057D01*
X76530934Y-59649057D02*
X76611746Y-59622120D01*
X76611746Y-59622120D02*
X76665621Y-59622120D01*
X76665621Y-59622120D02*
X76746433Y-59649057D01*
X76746433Y-59649057D02*
X76827245Y-59729870D01*
X76827245Y-59729870D02*
X76854182Y-59810682D01*
X76854182Y-59810682D02*
X76854182Y-59864557D01*
X76854182Y-59864557D02*
X76827245Y-59945369D01*
X76827245Y-59945369D02*
X76611746Y-60160868D01*
X76908057Y-59379683D02*
X76908057Y-59325809D01*
X76908057Y-59325809D02*
X76934995Y-59244996D01*
X76934995Y-59244996D02*
X77069682Y-59110309D01*
X77069682Y-59110309D02*
X77150494Y-59083372D01*
X77150494Y-59083372D02*
X77204369Y-59083372D01*
X77204369Y-59083372D02*
X77285181Y-59110309D01*
X77285181Y-59110309D02*
X77339056Y-59164184D01*
X77339056Y-59164184D02*
X77392930Y-59271934D01*
X77392930Y-59271934D02*
X77392930Y-59918431D01*
X77392930Y-59918431D02*
X77743117Y-59568245D01*
X77365993Y-58813998D02*
X77743117Y-58436874D01*
X77743117Y-58436874D02*
X78066366Y-59244996D01*
X67879761Y-90094200D02*
X67994047Y-90132295D01*
X67994047Y-90132295D02*
X68184523Y-90132295D01*
X68184523Y-90132295D02*
X68260714Y-90094200D01*
X68260714Y-90094200D02*
X68298809Y-90056104D01*
X68298809Y-90056104D02*
X68336904Y-89979914D01*
X68336904Y-89979914D02*
X68336904Y-89903723D01*
X68336904Y-89903723D02*
X68298809Y-89827533D01*
X68298809Y-89827533D02*
X68260714Y-89789438D01*
X68260714Y-89789438D02*
X68184523Y-89751342D01*
X68184523Y-89751342D02*
X68032142Y-89713247D01*
X68032142Y-89713247D02*
X67955952Y-89675152D01*
X67955952Y-89675152D02*
X67917857Y-89637057D01*
X67917857Y-89637057D02*
X67879761Y-89560866D01*
X67879761Y-89560866D02*
X67879761Y-89484676D01*
X67879761Y-89484676D02*
X67917857Y-89408485D01*
X67917857Y-89408485D02*
X67955952Y-89370390D01*
X67955952Y-89370390D02*
X68032142Y-89332295D01*
X68032142Y-89332295D02*
X68222619Y-89332295D01*
X68222619Y-89332295D02*
X68336904Y-89370390D01*
X68603571Y-89332295D02*
X68794047Y-90132295D01*
X68794047Y-90132295D02*
X68946428Y-89560866D01*
X68946428Y-89560866D02*
X69098809Y-90132295D01*
X69098809Y-90132295D02*
X69289286Y-89332295D01*
X69594048Y-90132295D02*
X69594048Y-89332295D01*
X69594048Y-89332295D02*
X69784524Y-89332295D01*
X69784524Y-89332295D02*
X69898810Y-89370390D01*
X69898810Y-89370390D02*
X69975000Y-89446580D01*
X69975000Y-89446580D02*
X70013095Y-89522771D01*
X70013095Y-89522771D02*
X70051191Y-89675152D01*
X70051191Y-89675152D02*
X70051191Y-89789438D01*
X70051191Y-89789438D02*
X70013095Y-89941819D01*
X70013095Y-89941819D02*
X69975000Y-90018009D01*
X69975000Y-90018009D02*
X69898810Y-90094200D01*
X69898810Y-90094200D02*
X69784524Y-90132295D01*
X69784524Y-90132295D02*
X69594048Y-90132295D01*
X70394048Y-90132295D02*
X70394048Y-89332295D01*
X70927381Y-89332295D02*
X71079762Y-89332295D01*
X71079762Y-89332295D02*
X71155952Y-89370390D01*
X71155952Y-89370390D02*
X71232143Y-89446580D01*
X71232143Y-89446580D02*
X71270238Y-89598961D01*
X71270238Y-89598961D02*
X71270238Y-89865628D01*
X71270238Y-89865628D02*
X71232143Y-90018009D01*
X71232143Y-90018009D02*
X71155952Y-90094200D01*
X71155952Y-90094200D02*
X71079762Y-90132295D01*
X71079762Y-90132295D02*
X70927381Y-90132295D01*
X70927381Y-90132295D02*
X70851190Y-90094200D01*
X70851190Y-90094200D02*
X70775000Y-90018009D01*
X70775000Y-90018009D02*
X70736904Y-89865628D01*
X70736904Y-89865628D02*
X70736904Y-89598961D01*
X70736904Y-89598961D02*
X70775000Y-89446580D01*
X70775000Y-89446580D02*
X70851190Y-89370390D01*
X70851190Y-89370390D02*
X70927381Y-89332295D01*
X49918998Y-85550868D02*
X49838185Y-85577805D01*
X49838185Y-85577805D02*
X49757373Y-85658618D01*
X49757373Y-85658618D02*
X49703498Y-85766367D01*
X49703498Y-85766367D02*
X49703498Y-85874117D01*
X49703498Y-85874117D02*
X49730436Y-85954929D01*
X49730436Y-85954929D02*
X49811248Y-86089616D01*
X49811248Y-86089616D02*
X49892060Y-86170428D01*
X49892060Y-86170428D02*
X50026747Y-86251241D01*
X50026747Y-86251241D02*
X50107560Y-86278178D01*
X50107560Y-86278178D02*
X50215309Y-86278178D01*
X50215309Y-86278178D02*
X50323059Y-86224303D01*
X50323059Y-86224303D02*
X50376934Y-86170428D01*
X50376934Y-86170428D02*
X50430808Y-86062679D01*
X50430808Y-86062679D02*
X50430808Y-86008804D01*
X50430808Y-86008804D02*
X50242247Y-85820242D01*
X50242247Y-85820242D02*
X50134497Y-85927992D01*
X50727120Y-85820242D02*
X50161434Y-85254557D01*
X50161434Y-85254557D02*
X50376934Y-85039057D01*
X50376934Y-85039057D02*
X50457746Y-85012120D01*
X50457746Y-85012120D02*
X50511621Y-85012120D01*
X50511621Y-85012120D02*
X50592433Y-85039057D01*
X50592433Y-85039057D02*
X50673245Y-85119870D01*
X50673245Y-85119870D02*
X50700182Y-85200682D01*
X50700182Y-85200682D02*
X50700182Y-85254557D01*
X50700182Y-85254557D02*
X50673245Y-85335369D01*
X50673245Y-85335369D02*
X50457746Y-85550868D01*
X51589117Y-84958245D02*
X51265868Y-85281494D01*
X51427492Y-85119870D02*
X50861807Y-84554184D01*
X50861807Y-84554184D02*
X50888744Y-84688871D01*
X50888744Y-84688871D02*
X50888744Y-84796621D01*
X50888744Y-84796621D02*
X50861807Y-84877433D01*
X51696866Y-84096248D02*
X52073990Y-84473372D01*
X51346680Y-84015436D02*
X51616054Y-84554184D01*
X51616054Y-84554184D02*
X51966240Y-84203998D01*
X49964998Y-72850868D02*
X49884185Y-72877805D01*
X49884185Y-72877805D02*
X49803373Y-72958618D01*
X49803373Y-72958618D02*
X49749498Y-73066367D01*
X49749498Y-73066367D02*
X49749498Y-73174117D01*
X49749498Y-73174117D02*
X49776436Y-73254929D01*
X49776436Y-73254929D02*
X49857248Y-73389616D01*
X49857248Y-73389616D02*
X49938060Y-73470428D01*
X49938060Y-73470428D02*
X50072747Y-73551241D01*
X50072747Y-73551241D02*
X50153560Y-73578178D01*
X50153560Y-73578178D02*
X50261309Y-73578178D01*
X50261309Y-73578178D02*
X50369059Y-73524303D01*
X50369059Y-73524303D02*
X50422934Y-73470428D01*
X50422934Y-73470428D02*
X50476808Y-73362679D01*
X50476808Y-73362679D02*
X50476808Y-73308804D01*
X50476808Y-73308804D02*
X50288247Y-73120242D01*
X50288247Y-73120242D02*
X50180497Y-73227992D01*
X50773120Y-73120242D02*
X50207434Y-72554557D01*
X50207434Y-72554557D02*
X50422934Y-72339057D01*
X50422934Y-72339057D02*
X50503746Y-72312120D01*
X50503746Y-72312120D02*
X50557621Y-72312120D01*
X50557621Y-72312120D02*
X50638433Y-72339057D01*
X50638433Y-72339057D02*
X50719245Y-72419870D01*
X50719245Y-72419870D02*
X50746182Y-72500682D01*
X50746182Y-72500682D02*
X50746182Y-72554557D01*
X50746182Y-72554557D02*
X50719245Y-72635369D01*
X50719245Y-72635369D02*
X50503746Y-72850868D01*
X51635117Y-72258245D02*
X51311868Y-72581494D01*
X51473492Y-72419870D02*
X50907807Y-71854184D01*
X50907807Y-71854184D02*
X50934744Y-71988871D01*
X50934744Y-71988871D02*
X50934744Y-72096621D01*
X50934744Y-72096621D02*
X50907807Y-72177433D01*
X51419618Y-71342373D02*
X51473492Y-71288499D01*
X51473492Y-71288499D02*
X51554305Y-71261561D01*
X51554305Y-71261561D02*
X51608179Y-71261561D01*
X51608179Y-71261561D02*
X51688992Y-71288499D01*
X51688992Y-71288499D02*
X51823679Y-71369311D01*
X51823679Y-71369311D02*
X51958366Y-71503998D01*
X51958366Y-71503998D02*
X52039178Y-71638685D01*
X52039178Y-71638685D02*
X52066115Y-71719497D01*
X52066115Y-71719497D02*
X52066115Y-71773372D01*
X52066115Y-71773372D02*
X52039178Y-71854184D01*
X52039178Y-71854184D02*
X51985303Y-71908059D01*
X51985303Y-71908059D02*
X51904491Y-71934996D01*
X51904491Y-71934996D02*
X51850616Y-71934996D01*
X51850616Y-71934996D02*
X51769804Y-71908059D01*
X51769804Y-71908059D02*
X51635117Y-71827247D01*
X51635117Y-71827247D02*
X51500430Y-71692560D01*
X51500430Y-71692560D02*
X51419618Y-71557873D01*
X51419618Y-71557873D02*
X51392680Y-71477060D01*
X51392680Y-71477060D02*
X51392680Y-71423186D01*
X51392680Y-71423186D02*
X51419618Y-71342373D01*
X76072998Y-54816868D02*
X75992185Y-54843805D01*
X75992185Y-54843805D02*
X75911373Y-54924618D01*
X75911373Y-54924618D02*
X75857498Y-55032367D01*
X75857498Y-55032367D02*
X75857498Y-55140117D01*
X75857498Y-55140117D02*
X75884436Y-55220929D01*
X75884436Y-55220929D02*
X75965248Y-55355616D01*
X75965248Y-55355616D02*
X76046060Y-55436428D01*
X76046060Y-55436428D02*
X76180747Y-55517241D01*
X76180747Y-55517241D02*
X76261560Y-55544178D01*
X76261560Y-55544178D02*
X76369309Y-55544178D01*
X76369309Y-55544178D02*
X76477059Y-55490303D01*
X76477059Y-55490303D02*
X76530934Y-55436428D01*
X76530934Y-55436428D02*
X76584808Y-55328679D01*
X76584808Y-55328679D02*
X76584808Y-55274804D01*
X76584808Y-55274804D02*
X76396247Y-55086242D01*
X76396247Y-55086242D02*
X76288497Y-55193992D01*
X76881120Y-55086242D02*
X76315434Y-54520557D01*
X76315434Y-54520557D02*
X76530934Y-54305057D01*
X76530934Y-54305057D02*
X76611746Y-54278120D01*
X76611746Y-54278120D02*
X76665621Y-54278120D01*
X76665621Y-54278120D02*
X76746433Y-54305057D01*
X76746433Y-54305057D02*
X76827245Y-54385870D01*
X76827245Y-54385870D02*
X76854182Y-54466682D01*
X76854182Y-54466682D02*
X76854182Y-54520557D01*
X76854182Y-54520557D02*
X76827245Y-54601369D01*
X76827245Y-54601369D02*
X76611746Y-54816868D01*
X76908057Y-54035683D02*
X76908057Y-53981809D01*
X76908057Y-53981809D02*
X76934995Y-53900996D01*
X76934995Y-53900996D02*
X77069682Y-53766309D01*
X77069682Y-53766309D02*
X77150494Y-53739372D01*
X77150494Y-53739372D02*
X77204369Y-53739372D01*
X77204369Y-53739372D02*
X77285181Y-53766309D01*
X77285181Y-53766309D02*
X77339056Y-53820184D01*
X77339056Y-53820184D02*
X77392930Y-53927934D01*
X77392930Y-53927934D02*
X77392930Y-54574431D01*
X77392930Y-54574431D02*
X77743117Y-54224245D01*
X77743117Y-53577747D02*
X77662305Y-53604685D01*
X77662305Y-53604685D02*
X77608430Y-53604685D01*
X77608430Y-53604685D02*
X77527618Y-53577747D01*
X77527618Y-53577747D02*
X77500680Y-53550810D01*
X77500680Y-53550810D02*
X77473743Y-53469998D01*
X77473743Y-53469998D02*
X77473743Y-53416123D01*
X77473743Y-53416123D02*
X77500680Y-53335311D01*
X77500680Y-53335311D02*
X77608430Y-53227561D01*
X77608430Y-53227561D02*
X77689242Y-53200624D01*
X77689242Y-53200624D02*
X77743117Y-53200624D01*
X77743117Y-53200624D02*
X77823929Y-53227561D01*
X77823929Y-53227561D02*
X77850866Y-53254499D01*
X77850866Y-53254499D02*
X77877804Y-53335311D01*
X77877804Y-53335311D02*
X77877804Y-53389186D01*
X77877804Y-53389186D02*
X77850866Y-53469998D01*
X77850866Y-53469998D02*
X77743117Y-53577747D01*
X77743117Y-53577747D02*
X77716179Y-53658560D01*
X77716179Y-53658560D02*
X77716179Y-53712434D01*
X77716179Y-53712434D02*
X77743117Y-53793247D01*
X77743117Y-53793247D02*
X77850866Y-53900996D01*
X77850866Y-53900996D02*
X77931679Y-53927934D01*
X77931679Y-53927934D02*
X77985553Y-53927934D01*
X77985553Y-53927934D02*
X78066366Y-53900996D01*
X78066366Y-53900996D02*
X78174115Y-53793247D01*
X78174115Y-53793247D02*
X78201053Y-53712434D01*
X78201053Y-53712434D02*
X78201053Y-53658560D01*
X78201053Y-53658560D02*
X78174115Y-53577747D01*
X78174115Y-53577747D02*
X78066366Y-53469998D01*
X78066366Y-53469998D02*
X77985553Y-53443060D01*
X77985553Y-53443060D02*
X77931679Y-53443060D01*
X77931679Y-53443060D02*
X77850866Y-53469998D01*
X50488372Y-59881494D02*
X50407560Y-59908431D01*
X50407560Y-59908431D02*
X50326748Y-59989243D01*
X50326748Y-59989243D02*
X50272873Y-60096993D01*
X50272873Y-60096993D02*
X50272873Y-60204742D01*
X50272873Y-60204742D02*
X50299810Y-60285555D01*
X50299810Y-60285555D02*
X50380623Y-60420242D01*
X50380623Y-60420242D02*
X50461435Y-60501054D01*
X50461435Y-60501054D02*
X50596122Y-60581866D01*
X50596122Y-60581866D02*
X50676934Y-60608803D01*
X50676934Y-60608803D02*
X50784684Y-60608803D01*
X50784684Y-60608803D02*
X50892433Y-60554929D01*
X50892433Y-60554929D02*
X50946308Y-60501054D01*
X50946308Y-60501054D02*
X51000183Y-60393304D01*
X51000183Y-60393304D02*
X51000183Y-60339429D01*
X51000183Y-60339429D02*
X50811621Y-60150868D01*
X50811621Y-60150868D02*
X50703871Y-60258617D01*
X51296494Y-60150868D02*
X50730809Y-59585182D01*
X50730809Y-59585182D02*
X50946308Y-59369683D01*
X50946308Y-59369683D02*
X51027120Y-59342746D01*
X51027120Y-59342746D02*
X51080995Y-59342746D01*
X51080995Y-59342746D02*
X51161807Y-59369683D01*
X51161807Y-59369683D02*
X51242619Y-59450495D01*
X51242619Y-59450495D02*
X51269557Y-59531307D01*
X51269557Y-59531307D02*
X51269557Y-59585182D01*
X51269557Y-59585182D02*
X51242619Y-59665994D01*
X51242619Y-59665994D02*
X51027120Y-59881494D01*
X51538931Y-58777060D02*
X51431181Y-58884810D01*
X51431181Y-58884810D02*
X51404244Y-58965622D01*
X51404244Y-58965622D02*
X51404244Y-59019497D01*
X51404244Y-59019497D02*
X51431181Y-59154184D01*
X51431181Y-59154184D02*
X51511993Y-59288871D01*
X51511993Y-59288871D02*
X51727493Y-59504370D01*
X51727493Y-59504370D02*
X51808305Y-59531307D01*
X51808305Y-59531307D02*
X51862180Y-59531307D01*
X51862180Y-59531307D02*
X51942992Y-59504370D01*
X51942992Y-59504370D02*
X52050741Y-59396620D01*
X52050741Y-59396620D02*
X52077679Y-59315808D01*
X52077679Y-59315808D02*
X52077679Y-59261933D01*
X52077679Y-59261933D02*
X52050741Y-59181121D01*
X52050741Y-59181121D02*
X51916054Y-59046434D01*
X51916054Y-59046434D02*
X51835242Y-59019497D01*
X51835242Y-59019497D02*
X51781367Y-59019497D01*
X51781367Y-59019497D02*
X51700555Y-59046434D01*
X51700555Y-59046434D02*
X51592806Y-59154184D01*
X51592806Y-59154184D02*
X51565868Y-59234996D01*
X51565868Y-59234996D02*
X51565868Y-59288871D01*
X51565868Y-59288871D02*
X51592806Y-59369683D01*
X75897407Y-47528584D02*
X76247593Y-47178398D01*
X76247593Y-47178398D02*
X76274531Y-47582459D01*
X76274531Y-47582459D02*
X76355343Y-47501646D01*
X76355343Y-47501646D02*
X76436155Y-47474709D01*
X76436155Y-47474709D02*
X76490030Y-47474709D01*
X76490030Y-47474709D02*
X76570842Y-47501646D01*
X76570842Y-47501646D02*
X76705529Y-47636333D01*
X76705529Y-47636333D02*
X76732467Y-47717146D01*
X76732467Y-47717146D02*
X76732467Y-47771020D01*
X76732467Y-47771020D02*
X76705529Y-47851833D01*
X76705529Y-47851833D02*
X76543905Y-48013457D01*
X76543905Y-48013457D02*
X76463093Y-48040394D01*
X76463093Y-48040394D02*
X76409218Y-48040394D01*
X76409218Y-47016773D02*
X77163465Y-47393897D01*
X77163465Y-47393897D02*
X76786342Y-46639649D01*
X76921028Y-46504963D02*
X77271215Y-46154776D01*
X77271215Y-46154776D02*
X77298152Y-46558837D01*
X77298152Y-46558837D02*
X77378964Y-46478025D01*
X77378964Y-46478025D02*
X77459776Y-46451088D01*
X77459776Y-46451088D02*
X77513651Y-46451088D01*
X77513651Y-46451088D02*
X77594464Y-46478025D01*
X77594464Y-46478025D02*
X77729151Y-46612712D01*
X77729151Y-46612712D02*
X77756088Y-46693524D01*
X77756088Y-46693524D02*
X77756088Y-46747399D01*
X77756088Y-46747399D02*
X77729151Y-46828211D01*
X77729151Y-46828211D02*
X77567526Y-46989836D01*
X77567526Y-46989836D02*
X77486714Y-47016773D01*
X77486714Y-47016773D02*
X77432839Y-47016773D01*
X77998525Y-46666587D02*
X78429523Y-46235588D01*
X78214024Y-45750715D02*
X78402586Y-45562153D01*
X78779709Y-45777652D02*
X78510335Y-46047026D01*
X78510335Y-46047026D02*
X77944650Y-45481341D01*
X77944650Y-45481341D02*
X78214024Y-45211967D01*
X79022146Y-45535215D02*
X78456461Y-44969530D01*
X78456461Y-44969530D02*
X79345395Y-45211967D01*
X79345395Y-45211967D02*
X78779710Y-44646281D01*
X49964998Y-80470868D02*
X49884185Y-80497805D01*
X49884185Y-80497805D02*
X49803373Y-80578618D01*
X49803373Y-80578618D02*
X49749498Y-80686367D01*
X49749498Y-80686367D02*
X49749498Y-80794117D01*
X49749498Y-80794117D02*
X49776436Y-80874929D01*
X49776436Y-80874929D02*
X49857248Y-81009616D01*
X49857248Y-81009616D02*
X49938060Y-81090428D01*
X49938060Y-81090428D02*
X50072747Y-81171241D01*
X50072747Y-81171241D02*
X50153560Y-81198178D01*
X50153560Y-81198178D02*
X50261309Y-81198178D01*
X50261309Y-81198178D02*
X50369059Y-81144303D01*
X50369059Y-81144303D02*
X50422934Y-81090428D01*
X50422934Y-81090428D02*
X50476808Y-80982679D01*
X50476808Y-80982679D02*
X50476808Y-80928804D01*
X50476808Y-80928804D02*
X50288247Y-80740242D01*
X50288247Y-80740242D02*
X50180497Y-80847992D01*
X50773120Y-80740242D02*
X50207434Y-80174557D01*
X50207434Y-80174557D02*
X50422934Y-79959057D01*
X50422934Y-79959057D02*
X50503746Y-79932120D01*
X50503746Y-79932120D02*
X50557621Y-79932120D01*
X50557621Y-79932120D02*
X50638433Y-79959057D01*
X50638433Y-79959057D02*
X50719245Y-80039870D01*
X50719245Y-80039870D02*
X50746182Y-80120682D01*
X50746182Y-80120682D02*
X50746182Y-80174557D01*
X50746182Y-80174557D02*
X50719245Y-80255369D01*
X50719245Y-80255369D02*
X50503746Y-80470868D01*
X51635117Y-79878245D02*
X51311868Y-80201494D01*
X51473492Y-80039870D02*
X50907807Y-79474184D01*
X50907807Y-79474184D02*
X50934744Y-79608871D01*
X50934744Y-79608871D02*
X50934744Y-79716621D01*
X50934744Y-79716621D02*
X50907807Y-79797433D01*
X51257993Y-79123998D02*
X51608179Y-78773812D01*
X51608179Y-78773812D02*
X51635117Y-79177873D01*
X51635117Y-79177873D02*
X51715929Y-79097060D01*
X51715929Y-79097060D02*
X51796741Y-79070123D01*
X51796741Y-79070123D02*
X51850616Y-79070123D01*
X51850616Y-79070123D02*
X51931428Y-79097060D01*
X51931428Y-79097060D02*
X52066115Y-79231747D01*
X52066115Y-79231747D02*
X52093053Y-79312560D01*
X52093053Y-79312560D02*
X52093053Y-79366434D01*
X52093053Y-79366434D02*
X52066115Y-79447247D01*
X52066115Y-79447247D02*
X51904491Y-79608871D01*
X51904491Y-79608871D02*
X51823679Y-79635808D01*
X51823679Y-79635808D02*
X51769804Y-79635808D01*
X45798095Y-43744819D02*
X45798095Y-42744819D01*
X45798095Y-43221009D02*
X46369523Y-43221009D01*
X46369523Y-43744819D02*
X46369523Y-42744819D01*
X46798095Y-42840057D02*
X46845714Y-42792438D01*
X46845714Y-42792438D02*
X46940952Y-42744819D01*
X46940952Y-42744819D02*
X47179047Y-42744819D01*
X47179047Y-42744819D02*
X47274285Y-42792438D01*
X47274285Y-42792438D02*
X47321904Y-42840057D01*
X47321904Y-42840057D02*
X47369523Y-42935295D01*
X47369523Y-42935295D02*
X47369523Y-43030533D01*
X47369523Y-43030533D02*
X47321904Y-43173390D01*
X47321904Y-43173390D02*
X46750476Y-43744819D01*
X46750476Y-43744819D02*
X47369523Y-43744819D01*
D12*
%TO.C,J4*%
X103175000Y-63490000D02*
X101895000Y-63490000D01*
X103175000Y-64090000D02*
X101895000Y-64090000D01*
X103175000Y-67690000D02*
X101895000Y-67690000D01*
X103175000Y-68290000D02*
X101895000Y-68290000D01*
X103175000Y-71890000D02*
X101895000Y-71890000D01*
X103175000Y-72490000D02*
X101895000Y-72490000D01*
X103175000Y-76090000D02*
X101895000Y-76090000D01*
X103175000Y-76690000D02*
X101895000Y-76690000D01*
X103175000Y-80290000D02*
X101895000Y-80290000D01*
X103175000Y-80890000D02*
X101895000Y-80890000D01*
X104985000Y-61190000D02*
X105585000Y-61190000D01*
X105285000Y-61790000D02*
X104985000Y-61190000D01*
X105585000Y-61190000D02*
X105285000Y-61790000D01*
X106275000Y-60980000D02*
X119295000Y-60980000D01*
X106275000Y-61790000D02*
X106275000Y-60980000D01*
X106275000Y-82590000D02*
X106275000Y-83400000D01*
X106275000Y-83400000D02*
X119295000Y-83400000D01*
X106285000Y-65400000D02*
X106285000Y-66380000D01*
X106285000Y-69600000D02*
X106285000Y-70580000D01*
X106285000Y-73800000D02*
X106285000Y-74780000D01*
X106285000Y-78000000D02*
X106285000Y-78980000D01*
X119295000Y-60980000D02*
X119295000Y-72190000D01*
X119295000Y-83400000D02*
X119295000Y-72190000D01*
%TO.C,SW1*%
X82750000Y-78500000D02*
X82750000Y-80000000D01*
X84000000Y-82500000D02*
X88500000Y-82500000D01*
X88500000Y-76000000D02*
X84000000Y-76000000D01*
X89750000Y-80000000D02*
X89750000Y-78500000D01*
%TO.C,R6*%
X79177500Y-61362258D02*
X79177500Y-60887742D01*
X80222500Y-61362258D02*
X80222500Y-60887742D01*
%TO.C,J1*%
X84050000Y-62070000D02*
X84050000Y-64730000D01*
X91730000Y-62070000D02*
X84050000Y-62070000D01*
X91730000Y-62070000D02*
X91730000Y-64730000D01*
X91730000Y-64730000D02*
X84050000Y-64730000D01*
X93000000Y-62070000D02*
X94330000Y-62070000D01*
X94330000Y-62070000D02*
X94330000Y-63400000D01*
%TO.C,C3*%
X81959420Y-59910000D02*
X82240580Y-59910000D01*
X81959420Y-60930000D02*
X82240580Y-60930000D01*
%TO.C,C1*%
X80030000Y-80860580D02*
X80030000Y-80579420D01*
X81050000Y-80860580D02*
X81050000Y-80579420D01*
%TO.C,R4*%
X82032258Y-71077500D02*
X81557742Y-71077500D01*
X82032258Y-72122500D02*
X81557742Y-72122500D01*
%TO.C,R5*%
X79677500Y-64762258D02*
X79677500Y-64287742D01*
X80722500Y-64762258D02*
X80722500Y-64287742D01*
%TO.C,R8*%
X88757742Y-58387500D02*
X89232258Y-58387500D01*
X88757742Y-59432500D02*
X89232258Y-59432500D01*
%TO.C,U1*%
X80940000Y-61245000D02*
X82940000Y-61245000D01*
X80940000Y-66195000D02*
X80940000Y-61245000D01*
X82940000Y-61245000D02*
X83740000Y-62045000D01*
X83740000Y-62045000D02*
X83740000Y-66195000D01*
X83740000Y-66195000D02*
X80940000Y-66195000D01*
%TO.C,U2*%
X81120000Y-49330000D02*
X81120000Y-57070000D01*
X90840000Y-48950000D02*
X93340000Y-48950000D01*
X92960000Y-49330000D02*
X81120000Y-49330000D01*
X92960000Y-49330000D02*
X92960000Y-57070000D01*
X92960000Y-57070000D02*
X81120000Y-57070000D01*
X93340000Y-48950000D02*
X93340000Y-51450000D01*
%TO.C,J2*%
X84020000Y-67990000D02*
X84020000Y-70650000D01*
X91700000Y-67990000D02*
X84020000Y-67990000D01*
X91700000Y-67990000D02*
X91700000Y-70650000D01*
X91700000Y-70650000D02*
X84020000Y-70650000D01*
X92970000Y-67990000D02*
X94300000Y-67990000D01*
X94300000Y-67990000D02*
X94300000Y-69320000D01*
%TO.C,J3*%
X103175000Y-46950000D02*
X101895000Y-46950000D01*
X103175000Y-47550000D02*
X101895000Y-47550000D01*
X103175000Y-51150000D02*
X101895000Y-51150000D01*
X103175000Y-51750000D02*
X101895000Y-51750000D01*
X103175000Y-55350000D02*
X101895000Y-55350000D01*
X103175000Y-55950000D02*
X101895000Y-55950000D01*
X104985000Y-44650000D02*
X105585000Y-44650000D01*
X105285000Y-45250000D02*
X104985000Y-44650000D01*
X105585000Y-44650000D02*
X105285000Y-45250000D01*
X106275000Y-44440000D02*
X119295000Y-44440000D01*
X106275000Y-45250000D02*
X106275000Y-44440000D01*
X106275000Y-57650000D02*
X106275000Y-58460000D01*
X106275000Y-58460000D02*
X119295000Y-58460000D01*
X106285000Y-48860000D02*
X106285000Y-49840000D01*
X106285000Y-53060000D02*
X106285000Y-54040000D01*
X119295000Y-44440000D02*
X119295000Y-51450000D01*
X119295000Y-58460000D02*
X119295000Y-51450000D01*
%TO.C,R1*%
X85297258Y-43577500D02*
X84822742Y-43577500D01*
X85297258Y-44622500D02*
X84822742Y-44622500D01*
%TO.C,R2*%
X82842258Y-47077500D02*
X82367742Y-47077500D01*
X82842258Y-48122500D02*
X82367742Y-48122500D01*
%TO.C,C2*%
X81975580Y-66450000D02*
X81694420Y-66450000D01*
X81975580Y-67470000D02*
X81694420Y-67470000D01*
%TO.C,R7*%
X88762742Y-60077500D02*
X89237258Y-60077500D01*
X88762742Y-61122500D02*
X89237258Y-61122500D01*
%TO.C,R3*%
X82032258Y-69377500D02*
X81557742Y-69377500D01*
X82032258Y-70422500D02*
X81557742Y-70422500D01*
%TO.C,U3*%
X53475000Y-38070000D02*
X53475000Y-38370000D01*
X53475000Y-38070000D02*
X74475000Y-38070000D01*
X53475000Y-40470000D02*
X53475000Y-40870000D01*
X53475000Y-40737000D02*
X56482000Y-40737000D01*
X53475000Y-43070000D02*
X53475000Y-43470000D01*
X53475000Y-45570000D02*
X53475000Y-45970000D01*
X53475000Y-48170000D02*
X53475000Y-48570000D01*
X53475000Y-50670000D02*
X53475000Y-51070000D01*
X53475000Y-53170000D02*
X53475000Y-53570000D01*
X53475000Y-55770000D02*
X53475000Y-56170000D01*
X53475000Y-58270000D02*
X53475000Y-58670000D01*
X53475000Y-60870000D02*
X53475000Y-61270000D01*
X53475000Y-63370000D02*
X53475000Y-63770000D01*
X53475000Y-65870000D02*
X53475000Y-66270000D01*
X53475000Y-68470000D02*
X53475000Y-68870000D01*
X53475000Y-70970000D02*
X53475000Y-71370000D01*
X53475000Y-73570000D02*
X53475000Y-73970000D01*
X53475000Y-76070000D02*
X53475000Y-76470000D01*
X53475000Y-78670000D02*
X53475000Y-79070000D01*
X53475000Y-81170000D02*
X53475000Y-81570000D01*
X53475000Y-83670000D02*
X53475000Y-84070000D01*
X53475000Y-86270000D02*
X53475000Y-86670000D01*
X56482000Y-40737000D02*
X56482000Y-38070000D01*
X60275000Y-89070000D02*
X53475000Y-89070000D01*
X62475000Y-89070000D02*
X62875000Y-89070000D01*
X65075000Y-89070000D02*
X65475000Y-89070000D01*
X74475000Y-38070000D02*
X74475000Y-38370000D01*
X74475000Y-40470000D02*
X74475000Y-40870000D01*
X74475000Y-43070000D02*
X74475000Y-43470000D01*
X74475000Y-45570000D02*
X74475000Y-45970000D01*
X74475000Y-48170000D02*
X74475000Y-48570000D01*
X74475000Y-50670000D02*
X74475000Y-51070000D01*
X74475000Y-53170000D02*
X74475000Y-53570000D01*
X74475000Y-55770000D02*
X74475000Y-56170000D01*
X74475000Y-58270000D02*
X74475000Y-58670000D01*
X74475000Y-60870000D02*
X74475000Y-61270000D01*
X74475000Y-63370000D02*
X74475000Y-63770000D01*
X74475000Y-65870000D02*
X74475000Y-66270000D01*
X74475000Y-68470000D02*
X74475000Y-68870000D01*
X74475000Y-70970000D02*
X74475000Y-71370000D01*
X74475000Y-73570000D02*
X74475000Y-73970000D01*
X74475000Y-76070000D02*
X74475000Y-76470000D01*
X74475000Y-78670000D02*
X74475000Y-79070000D01*
X74475000Y-81170000D02*
X74475000Y-81570000D01*
X74475000Y-83670000D02*
X74475000Y-84070000D01*
X74475000Y-86270000D02*
X74475000Y-86670000D01*
X74475000Y-89070000D02*
X67675000Y-89070000D01*
%TD*%
M02*
