M48
; DRILL file {KiCad 8.99.0-1891-ge2bd76bdce} date 2024-09-02T10:31:25+0300
; FORMAT={-:-/ absolute / metric / decimal}
; #@! TF.CreationDate,2024-09-02T10:31:25+03:00
; #@! TF.GenerationSoftware,Kicad,Pcbnew,8.99.0-1891-ge2bd76bdce
; #@! TF.FileFunction,Plated,1,2,PTH
FMAT,2
METRIC
; #@! TA.AperFunction,Plated,PTH,ViaDrill
T1C0.300
; #@! TA.AperFunction,Plated,PTH,ComponentDrill
T2C1.000
; #@! TA.AperFunction,Plated,PTH,ComponentDrill
T3C1.020
; #@! TA.AperFunction,Plated,PTH,ComponentDrill
T4C1.100
; #@! TA.AperFunction,Plated,PTH,ComponentDrill
T5C1.800
%
G90
G05
T1
X70.5Y-56.8
X71.2Y-43.2
X71.3Y-45.3
X77.9Y-43.2
X78.1Y-60.6
X78.7Y-47.5
X78.8Y-67.6
X78.8Y-72.15
X79.8Y-66.9
X80.56Y-78.99
X82.99Y-59.525
X96.97Y-56.3
T2
X84.5Y-51.5
X85.35Y-69.32
X85.38Y-63.4
X87.04Y-51.5
X87.89Y-69.32
X87.92Y-63.4
X89.58Y-51.5
X90.43Y-69.32
X90.46Y-63.4
X92.97Y-69.32
X93.0Y-63.4
T3
X55.085Y-39.44
X55.085Y-41.98
X55.085Y-44.52
X55.085Y-47.06
X55.085Y-49.6
X55.085Y-52.14
X55.085Y-54.68
X55.085Y-57.22
X55.085Y-59.76
X55.085Y-62.3
X55.085Y-64.84
X55.085Y-67.38
X55.085Y-69.92
X55.085Y-72.46
X55.085Y-75.0
X55.085Y-77.54
X55.085Y-80.08
X55.085Y-82.62
X55.085Y-85.16
X55.085Y-87.7
X61.435Y-87.47
X63.975Y-87.47
X66.515Y-87.47
X72.865Y-39.44
X72.865Y-41.98
X72.865Y-44.52
X72.865Y-47.06
X72.865Y-49.6
X72.865Y-52.14
X72.865Y-54.68
X72.865Y-57.22
X72.865Y-59.76
X72.865Y-62.3
X72.865Y-64.84
X72.865Y-67.38
X72.865Y-69.92
X72.865Y-72.46
X72.865Y-75.0
X72.865Y-77.54
X72.865Y-80.08
X72.865Y-82.62
X72.865Y-85.16
X72.865Y-87.7
T4
X83.0Y-77.0
X83.0Y-81.5
X89.5Y-77.0
X89.5Y-81.5
T5
X99.785Y-47.25
X99.785Y-51.45
X99.785Y-55.65
X99.785Y-63.79
X99.785Y-67.99
X99.785Y-72.19
X99.785Y-76.39
X99.785Y-80.59
X105.285Y-47.25
X105.285Y-51.45
X105.285Y-55.65
X105.285Y-63.79
X105.285Y-67.99
X105.285Y-72.19
X105.285Y-76.39
X105.285Y-80.59
M30
