%TF.GenerationSoftware,KiCad,Pcbnew,8.99.0-1891-ge2bd76bdce*%
%TF.CreationDate,2024-07-24T16:24:11+03:00*%
%TF.ProjectId,DS18B20_Protection,44533138-4232-4305-9f50-726f74656374,rev?*%
%TF.SameCoordinates,Original*%
%TF.FileFunction,Legend,Bot*%
%TF.FilePolarity,Positive*%
%FSLAX46Y46*%
G04 Gerber Fmt 4.6, Leading zero omitted, Abs format (unit mm)*
G04 Created by KiCad (PCBNEW 8.99.0-1891-ge2bd76bdce) date 2024-07-24 16:24:11*
%MOMM*%
%LPD*%
G01*
G04 APERTURE LIST*
%ADD10C,0.300000*%
%ADD11C,0.150000*%
G04 APERTURE END LIST*
D10*
X163184774Y-93775828D02*
X162684774Y-95275828D01*
X162684774Y-95275828D02*
X162184774Y-93775828D01*
X161113346Y-95204400D02*
X161256203Y-95275828D01*
X161256203Y-95275828D02*
X161541918Y-95275828D01*
X161541918Y-95275828D02*
X161684775Y-95204400D01*
X161684775Y-95204400D02*
X161756203Y-95061542D01*
X161756203Y-95061542D02*
X161756203Y-94490114D01*
X161756203Y-94490114D02*
X161684775Y-94347257D01*
X161684775Y-94347257D02*
X161541918Y-94275828D01*
X161541918Y-94275828D02*
X161256203Y-94275828D01*
X161256203Y-94275828D02*
X161113346Y-94347257D01*
X161113346Y-94347257D02*
X161041918Y-94490114D01*
X161041918Y-94490114D02*
X161041918Y-94632971D01*
X161041918Y-94632971D02*
X161756203Y-94775828D01*
X160399061Y-95275828D02*
X160399061Y-94275828D01*
X160399061Y-94561542D02*
X160327632Y-94418685D01*
X160327632Y-94418685D02*
X160256204Y-94347257D01*
X160256204Y-94347257D02*
X160113346Y-94275828D01*
X160113346Y-94275828D02*
X159970489Y-94275828D01*
X157541918Y-95275828D02*
X158399061Y-95275828D01*
X157970490Y-95275828D02*
X157970490Y-93775828D01*
X157970490Y-93775828D02*
X158113347Y-93990114D01*
X158113347Y-93990114D02*
X158256204Y-94132971D01*
X158256204Y-94132971D02*
X158399061Y-94204400D01*
X156899062Y-95132971D02*
X156827633Y-95204400D01*
X156827633Y-95204400D02*
X156899062Y-95275828D01*
X156899062Y-95275828D02*
X156970490Y-95204400D01*
X156970490Y-95204400D02*
X156899062Y-95132971D01*
X156899062Y-95132971D02*
X156899062Y-95275828D01*
X155399061Y-95275828D02*
X156256204Y-95275828D01*
X155827633Y-95275828D02*
X155827633Y-93775828D01*
X155827633Y-93775828D02*
X155970490Y-93990114D01*
X155970490Y-93990114D02*
X156113347Y-94132971D01*
X156113347Y-94132971D02*
X156256204Y-94204400D01*
D11*
X152229761Y-94599200D02*
X152115475Y-94637295D01*
X152115475Y-94637295D02*
X151924999Y-94637295D01*
X151924999Y-94637295D02*
X151848808Y-94599200D01*
X151848808Y-94599200D02*
X151810713Y-94561104D01*
X151810713Y-94561104D02*
X151772618Y-94484914D01*
X151772618Y-94484914D02*
X151772618Y-94408723D01*
X151772618Y-94408723D02*
X151810713Y-94332533D01*
X151810713Y-94332533D02*
X151848808Y-94294438D01*
X151848808Y-94294438D02*
X151924999Y-94256342D01*
X151924999Y-94256342D02*
X152077380Y-94218247D01*
X152077380Y-94218247D02*
X152153570Y-94180152D01*
X152153570Y-94180152D02*
X152191665Y-94142057D01*
X152191665Y-94142057D02*
X152229761Y-94065866D01*
X152229761Y-94065866D02*
X152229761Y-93989676D01*
X152229761Y-93989676D02*
X152191665Y-93913485D01*
X152191665Y-93913485D02*
X152153570Y-93875390D01*
X152153570Y-93875390D02*
X152077380Y-93837295D01*
X152077380Y-93837295D02*
X151886903Y-93837295D01*
X151886903Y-93837295D02*
X151772618Y-93875390D01*
X151429760Y-94637295D02*
X151429760Y-93837295D01*
X150629761Y-93875390D02*
X150705951Y-93837295D01*
X150705951Y-93837295D02*
X150820237Y-93837295D01*
X150820237Y-93837295D02*
X150934523Y-93875390D01*
X150934523Y-93875390D02*
X151010713Y-93951580D01*
X151010713Y-93951580D02*
X151048808Y-94027771D01*
X151048808Y-94027771D02*
X151086904Y-94180152D01*
X151086904Y-94180152D02*
X151086904Y-94294438D01*
X151086904Y-94294438D02*
X151048808Y-94446819D01*
X151048808Y-94446819D02*
X151010713Y-94523009D01*
X151010713Y-94523009D02*
X150934523Y-94599200D01*
X150934523Y-94599200D02*
X150820237Y-94637295D01*
X150820237Y-94637295D02*
X150744046Y-94637295D01*
X150744046Y-94637295D02*
X150629761Y-94599200D01*
X150629761Y-94599200D02*
X150591665Y-94561104D01*
X150591665Y-94561104D02*
X150591665Y-94294438D01*
X150591665Y-94294438D02*
X150744046Y-94294438D01*
X150248808Y-94637295D02*
X150248808Y-93837295D01*
X150248808Y-93837295D02*
X149791665Y-94637295D01*
X149791665Y-94637295D02*
X149791665Y-93837295D01*
X149448809Y-94408723D02*
X149067856Y-94408723D01*
X149524999Y-94637295D02*
X149258332Y-93837295D01*
X149258332Y-93837295D02*
X148991666Y-94637295D01*
X148344047Y-94637295D02*
X148724999Y-94637295D01*
X148724999Y-94637295D02*
X148724999Y-93837295D01*
X166309523Y-96150390D02*
X166385713Y-96112295D01*
X166385713Y-96112295D02*
X166499999Y-96112295D01*
X166499999Y-96112295D02*
X166614285Y-96150390D01*
X166614285Y-96150390D02*
X166690475Y-96226580D01*
X166690475Y-96226580D02*
X166728570Y-96302771D01*
X166728570Y-96302771D02*
X166766666Y-96455152D01*
X166766666Y-96455152D02*
X166766666Y-96569438D01*
X166766666Y-96569438D02*
X166728570Y-96721819D01*
X166728570Y-96721819D02*
X166690475Y-96798009D01*
X166690475Y-96798009D02*
X166614285Y-96874200D01*
X166614285Y-96874200D02*
X166499999Y-96912295D01*
X166499999Y-96912295D02*
X166423808Y-96912295D01*
X166423808Y-96912295D02*
X166309523Y-96874200D01*
X166309523Y-96874200D02*
X166271427Y-96836104D01*
X166271427Y-96836104D02*
X166271427Y-96569438D01*
X166271427Y-96569438D02*
X166423808Y-96569438D01*
X165928570Y-96912295D02*
X165928570Y-96112295D01*
X165928570Y-96112295D02*
X165471427Y-96912295D01*
X165471427Y-96912295D02*
X165471427Y-96112295D01*
X165090475Y-96912295D02*
X165090475Y-96112295D01*
X165090475Y-96112295D02*
X164899999Y-96112295D01*
X164899999Y-96112295D02*
X164785713Y-96150390D01*
X164785713Y-96150390D02*
X164709523Y-96226580D01*
X164709523Y-96226580D02*
X164671428Y-96302771D01*
X164671428Y-96302771D02*
X164633332Y-96455152D01*
X164633332Y-96455152D02*
X164633332Y-96569438D01*
X164633332Y-96569438D02*
X164671428Y-96721819D01*
X164671428Y-96721819D02*
X164709523Y-96798009D01*
X164709523Y-96798009D02*
X164785713Y-96874200D01*
X164785713Y-96874200D02*
X164899999Y-96912295D01*
X164899999Y-96912295D02*
X165090475Y-96912295D01*
X151291666Y-92587295D02*
X151291666Y-91787295D01*
X151291666Y-91787295D02*
X150986904Y-91787295D01*
X150986904Y-91787295D02*
X150910714Y-91825390D01*
X150910714Y-91825390D02*
X150872619Y-91863485D01*
X150872619Y-91863485D02*
X150834523Y-91939676D01*
X150834523Y-91939676D02*
X150834523Y-92053961D01*
X150834523Y-92053961D02*
X150872619Y-92130152D01*
X150872619Y-92130152D02*
X150910714Y-92168247D01*
X150910714Y-92168247D02*
X150986904Y-92206342D01*
X150986904Y-92206342D02*
X151291666Y-92206342D01*
X150567857Y-91787295D02*
X150377381Y-92587295D01*
X150377381Y-92587295D02*
X150225000Y-92015866D01*
X150225000Y-92015866D02*
X150072619Y-92587295D01*
X150072619Y-92587295D02*
X149882143Y-91787295D01*
X149120237Y-92587295D02*
X149386904Y-92206342D01*
X149577380Y-92587295D02*
X149577380Y-91787295D01*
X149577380Y-91787295D02*
X149272618Y-91787295D01*
X149272618Y-91787295D02*
X149196428Y-91825390D01*
X149196428Y-91825390D02*
X149158333Y-91863485D01*
X149158333Y-91863485D02*
X149120237Y-91939676D01*
X149120237Y-91939676D02*
X149120237Y-92053961D01*
X149120237Y-92053961D02*
X149158333Y-92130152D01*
X149158333Y-92130152D02*
X149196428Y-92168247D01*
X149196428Y-92168247D02*
X149272618Y-92206342D01*
X149272618Y-92206342D02*
X149577380Y-92206342D01*
X167091666Y-92587295D02*
X167091666Y-91787295D01*
X167091666Y-91787295D02*
X166786904Y-91787295D01*
X166786904Y-91787295D02*
X166710714Y-91825390D01*
X166710714Y-91825390D02*
X166672619Y-91863485D01*
X166672619Y-91863485D02*
X166634523Y-91939676D01*
X166634523Y-91939676D02*
X166634523Y-92053961D01*
X166634523Y-92053961D02*
X166672619Y-92130152D01*
X166672619Y-92130152D02*
X166710714Y-92168247D01*
X166710714Y-92168247D02*
X166786904Y-92206342D01*
X166786904Y-92206342D02*
X167091666Y-92206342D01*
X166367857Y-91787295D02*
X166177381Y-92587295D01*
X166177381Y-92587295D02*
X166025000Y-92015866D01*
X166025000Y-92015866D02*
X165872619Y-92587295D01*
X165872619Y-92587295D02*
X165682143Y-91787295D01*
X164920237Y-92587295D02*
X165186904Y-92206342D01*
X165377380Y-92587295D02*
X165377380Y-91787295D01*
X165377380Y-91787295D02*
X165072618Y-91787295D01*
X165072618Y-91787295D02*
X164996428Y-91825390D01*
X164996428Y-91825390D02*
X164958333Y-91863485D01*
X164958333Y-91863485D02*
X164920237Y-91939676D01*
X164920237Y-91939676D02*
X164920237Y-92053961D01*
X164920237Y-92053961D02*
X164958333Y-92130152D01*
X164958333Y-92130152D02*
X164996428Y-92168247D01*
X164996428Y-92168247D02*
X165072618Y-92206342D01*
X165072618Y-92206342D02*
X165377380Y-92206342D01*
X150234523Y-95925390D02*
X150310713Y-95887295D01*
X150310713Y-95887295D02*
X150424999Y-95887295D01*
X150424999Y-95887295D02*
X150539285Y-95925390D01*
X150539285Y-95925390D02*
X150615475Y-96001580D01*
X150615475Y-96001580D02*
X150653570Y-96077771D01*
X150653570Y-96077771D02*
X150691666Y-96230152D01*
X150691666Y-96230152D02*
X150691666Y-96344438D01*
X150691666Y-96344438D02*
X150653570Y-96496819D01*
X150653570Y-96496819D02*
X150615475Y-96573009D01*
X150615475Y-96573009D02*
X150539285Y-96649200D01*
X150539285Y-96649200D02*
X150424999Y-96687295D01*
X150424999Y-96687295D02*
X150348808Y-96687295D01*
X150348808Y-96687295D02*
X150234523Y-96649200D01*
X150234523Y-96649200D02*
X150196427Y-96611104D01*
X150196427Y-96611104D02*
X150196427Y-96344438D01*
X150196427Y-96344438D02*
X150348808Y-96344438D01*
X149853570Y-96687295D02*
X149853570Y-95887295D01*
X149853570Y-95887295D02*
X149396427Y-96687295D01*
X149396427Y-96687295D02*
X149396427Y-95887295D01*
X149015475Y-96687295D02*
X149015475Y-95887295D01*
X149015475Y-95887295D02*
X148824999Y-95887295D01*
X148824999Y-95887295D02*
X148710713Y-95925390D01*
X148710713Y-95925390D02*
X148634523Y-96001580D01*
X148634523Y-96001580D02*
X148596428Y-96077771D01*
X148596428Y-96077771D02*
X148558332Y-96230152D01*
X148558332Y-96230152D02*
X148558332Y-96344438D01*
X148558332Y-96344438D02*
X148596428Y-96496819D01*
X148596428Y-96496819D02*
X148634523Y-96573009D01*
X148634523Y-96573009D02*
X148710713Y-96649200D01*
X148710713Y-96649200D02*
X148824999Y-96687295D01*
X148824999Y-96687295D02*
X149015475Y-96687295D01*
X167554761Y-94574200D02*
X167440475Y-94612295D01*
X167440475Y-94612295D02*
X167249999Y-94612295D01*
X167249999Y-94612295D02*
X167173808Y-94574200D01*
X167173808Y-94574200D02*
X167135713Y-94536104D01*
X167135713Y-94536104D02*
X167097618Y-94459914D01*
X167097618Y-94459914D02*
X167097618Y-94383723D01*
X167097618Y-94383723D02*
X167135713Y-94307533D01*
X167135713Y-94307533D02*
X167173808Y-94269438D01*
X167173808Y-94269438D02*
X167249999Y-94231342D01*
X167249999Y-94231342D02*
X167402380Y-94193247D01*
X167402380Y-94193247D02*
X167478570Y-94155152D01*
X167478570Y-94155152D02*
X167516665Y-94117057D01*
X167516665Y-94117057D02*
X167554761Y-94040866D01*
X167554761Y-94040866D02*
X167554761Y-93964676D01*
X167554761Y-93964676D02*
X167516665Y-93888485D01*
X167516665Y-93888485D02*
X167478570Y-93850390D01*
X167478570Y-93850390D02*
X167402380Y-93812295D01*
X167402380Y-93812295D02*
X167211903Y-93812295D01*
X167211903Y-93812295D02*
X167097618Y-93850390D01*
X166754760Y-94612295D02*
X166754760Y-93812295D01*
X165954761Y-93850390D02*
X166030951Y-93812295D01*
X166030951Y-93812295D02*
X166145237Y-93812295D01*
X166145237Y-93812295D02*
X166259523Y-93850390D01*
X166259523Y-93850390D02*
X166335713Y-93926580D01*
X166335713Y-93926580D02*
X166373808Y-94002771D01*
X166373808Y-94002771D02*
X166411904Y-94155152D01*
X166411904Y-94155152D02*
X166411904Y-94269438D01*
X166411904Y-94269438D02*
X166373808Y-94421819D01*
X166373808Y-94421819D02*
X166335713Y-94498009D01*
X166335713Y-94498009D02*
X166259523Y-94574200D01*
X166259523Y-94574200D02*
X166145237Y-94612295D01*
X166145237Y-94612295D02*
X166069046Y-94612295D01*
X166069046Y-94612295D02*
X165954761Y-94574200D01*
X165954761Y-94574200D02*
X165916665Y-94536104D01*
X165916665Y-94536104D02*
X165916665Y-94269438D01*
X165916665Y-94269438D02*
X166069046Y-94269438D01*
X165573808Y-94612295D02*
X165573808Y-93812295D01*
X165573808Y-93812295D02*
X165116665Y-94612295D01*
X165116665Y-94612295D02*
X165116665Y-93812295D01*
X164773809Y-94383723D02*
X164392856Y-94383723D01*
X164849999Y-94612295D02*
X164583332Y-93812295D01*
X164583332Y-93812295D02*
X164316666Y-94612295D01*
X163669047Y-94612295D02*
X164049999Y-94612295D01*
X164049999Y-94612295D02*
X164049999Y-93812295D01*
M02*
