%TF.GenerationSoftware,KiCad,Pcbnew,8.99.0-1891-ge2bd76bdce*%
%TF.CreationDate,2024-07-24T16:24:11+03:00*%
%TF.ProjectId,DS18B20_Protection,44533138-4232-4305-9f50-726f74656374,rev?*%
%TF.SameCoordinates,Original*%
%TF.FileFunction,Legend,Top*%
%TF.FilePolarity,Positive*%
%FSLAX46Y46*%
G04 Gerber Fmt 4.6, Leading zero omitted, Abs format (unit mm)*
G04 Created by KiCad (PCBNEW 8.99.0-1891-ge2bd76bdce) date 2024-07-24 16:24:11*
%MOMM*%
%LPD*%
G01*
G04 APERTURE LIST*
%ADD10C,0.150000*%
%ADD11C,0.120000*%
G04 APERTURE END LIST*
D10*
X143733217Y-95932142D02*
X143761788Y-95846428D01*
X143761788Y-95846428D02*
X143761788Y-95703570D01*
X143761788Y-95703570D02*
X143733217Y-95646428D01*
X143733217Y-95646428D02*
X143704645Y-95617856D01*
X143704645Y-95617856D02*
X143647502Y-95589285D01*
X143647502Y-95589285D02*
X143590359Y-95589285D01*
X143590359Y-95589285D02*
X143533217Y-95617856D01*
X143533217Y-95617856D02*
X143504645Y-95646428D01*
X143504645Y-95646428D02*
X143476074Y-95703570D01*
X143476074Y-95703570D02*
X143447502Y-95817856D01*
X143447502Y-95817856D02*
X143418931Y-95874999D01*
X143418931Y-95874999D02*
X143390359Y-95903570D01*
X143390359Y-95903570D02*
X143333217Y-95932142D01*
X143333217Y-95932142D02*
X143276074Y-95932142D01*
X143276074Y-95932142D02*
X143218931Y-95903570D01*
X143218931Y-95903570D02*
X143190359Y-95874999D01*
X143190359Y-95874999D02*
X143161788Y-95817856D01*
X143161788Y-95817856D02*
X143161788Y-95674999D01*
X143161788Y-95674999D02*
X143190359Y-95589285D01*
X143447502Y-95332141D02*
X143447502Y-95132141D01*
X143761788Y-95046427D02*
X143761788Y-95332141D01*
X143761788Y-95332141D02*
X143161788Y-95332141D01*
X143161788Y-95332141D02*
X143161788Y-95046427D01*
X143761788Y-94789284D02*
X143161788Y-94789284D01*
X143161788Y-94789284D02*
X143761788Y-94446427D01*
X143761788Y-94446427D02*
X143161788Y-94446427D01*
X143733217Y-94189285D02*
X143761788Y-94103571D01*
X143761788Y-94103571D02*
X143761788Y-93960713D01*
X143761788Y-93960713D02*
X143733217Y-93903571D01*
X143733217Y-93903571D02*
X143704645Y-93874999D01*
X143704645Y-93874999D02*
X143647502Y-93846428D01*
X143647502Y-93846428D02*
X143590359Y-93846428D01*
X143590359Y-93846428D02*
X143533217Y-93874999D01*
X143533217Y-93874999D02*
X143504645Y-93903571D01*
X143504645Y-93903571D02*
X143476074Y-93960713D01*
X143476074Y-93960713D02*
X143447502Y-94074999D01*
X143447502Y-94074999D02*
X143418931Y-94132142D01*
X143418931Y-94132142D02*
X143390359Y-94160713D01*
X143390359Y-94160713D02*
X143333217Y-94189285D01*
X143333217Y-94189285D02*
X143276074Y-94189285D01*
X143276074Y-94189285D02*
X143218931Y-94160713D01*
X143218931Y-94160713D02*
X143190359Y-94132142D01*
X143190359Y-94132142D02*
X143161788Y-94074999D01*
X143161788Y-94074999D02*
X143161788Y-93932142D01*
X143161788Y-93932142D02*
X143190359Y-93846428D01*
X143161788Y-93474999D02*
X143161788Y-93360713D01*
X143161788Y-93360713D02*
X143190359Y-93303570D01*
X143190359Y-93303570D02*
X143247502Y-93246427D01*
X143247502Y-93246427D02*
X143361788Y-93217856D01*
X143361788Y-93217856D02*
X143561788Y-93217856D01*
X143561788Y-93217856D02*
X143676074Y-93246427D01*
X143676074Y-93246427D02*
X143733217Y-93303570D01*
X143733217Y-93303570D02*
X143761788Y-93360713D01*
X143761788Y-93360713D02*
X143761788Y-93474999D01*
X143761788Y-93474999D02*
X143733217Y-93532142D01*
X143733217Y-93532142D02*
X143676074Y-93589284D01*
X143676074Y-93589284D02*
X143561788Y-93617856D01*
X143561788Y-93617856D02*
X143361788Y-93617856D01*
X143361788Y-93617856D02*
X143247502Y-93589284D01*
X143247502Y-93589284D02*
X143190359Y-93532142D01*
X143190359Y-93532142D02*
X143161788Y-93474999D01*
X143761788Y-92617856D02*
X143476074Y-92817856D01*
X143761788Y-92960713D02*
X143161788Y-92960713D01*
X143161788Y-92960713D02*
X143161788Y-92732142D01*
X143161788Y-92732142D02*
X143190359Y-92674999D01*
X143190359Y-92674999D02*
X143218931Y-92646428D01*
X143218931Y-92646428D02*
X143276074Y-92617856D01*
X143276074Y-92617856D02*
X143361788Y-92617856D01*
X143361788Y-92617856D02*
X143418931Y-92646428D01*
X143418931Y-92646428D02*
X143447502Y-92674999D01*
X143447502Y-92674999D02*
X143476074Y-92732142D01*
X143476074Y-92732142D02*
X143476074Y-92960713D01*
X144699183Y-95160714D02*
X144727754Y-95075000D01*
X144727754Y-95075000D02*
X144727754Y-94932142D01*
X144727754Y-94932142D02*
X144699183Y-94875000D01*
X144699183Y-94875000D02*
X144670611Y-94846428D01*
X144670611Y-94846428D02*
X144613468Y-94817857D01*
X144613468Y-94817857D02*
X144556325Y-94817857D01*
X144556325Y-94817857D02*
X144499183Y-94846428D01*
X144499183Y-94846428D02*
X144470611Y-94875000D01*
X144470611Y-94875000D02*
X144442040Y-94932142D01*
X144442040Y-94932142D02*
X144413468Y-95046428D01*
X144413468Y-95046428D02*
X144384897Y-95103571D01*
X144384897Y-95103571D02*
X144356325Y-95132142D01*
X144356325Y-95132142D02*
X144299183Y-95160714D01*
X144299183Y-95160714D02*
X144242040Y-95160714D01*
X144242040Y-95160714D02*
X144184897Y-95132142D01*
X144184897Y-95132142D02*
X144156325Y-95103571D01*
X144156325Y-95103571D02*
X144127754Y-95046428D01*
X144127754Y-95046428D02*
X144127754Y-94903571D01*
X144127754Y-94903571D02*
X144156325Y-94817857D01*
X144727754Y-94560713D02*
X144127754Y-94560713D01*
X144727754Y-94274999D02*
X144127754Y-94274999D01*
X144127754Y-94274999D02*
X144127754Y-94132142D01*
X144127754Y-94132142D02*
X144156325Y-94046428D01*
X144156325Y-94046428D02*
X144213468Y-93989285D01*
X144213468Y-93989285D02*
X144270611Y-93960714D01*
X144270611Y-93960714D02*
X144384897Y-93932142D01*
X144384897Y-93932142D02*
X144470611Y-93932142D01*
X144470611Y-93932142D02*
X144584897Y-93960714D01*
X144584897Y-93960714D02*
X144642040Y-93989285D01*
X144642040Y-93989285D02*
X144699183Y-94046428D01*
X144699183Y-94046428D02*
X144727754Y-94132142D01*
X144727754Y-94132142D02*
X144727754Y-94274999D01*
X144413468Y-93674999D02*
X144413468Y-93474999D01*
X144727754Y-93389285D02*
X144727754Y-93674999D01*
X144727754Y-93674999D02*
X144127754Y-93674999D01*
X144127754Y-93674999D02*
X144127754Y-93389285D01*
X168396428Y-94616200D02*
X168482143Y-94644771D01*
X168482143Y-94644771D02*
X168625000Y-94644771D01*
X168625000Y-94644771D02*
X168682143Y-94616200D01*
X168682143Y-94616200D02*
X168710714Y-94587628D01*
X168710714Y-94587628D02*
X168739285Y-94530485D01*
X168739285Y-94530485D02*
X168739285Y-94473342D01*
X168739285Y-94473342D02*
X168710714Y-94416200D01*
X168710714Y-94416200D02*
X168682143Y-94387628D01*
X168682143Y-94387628D02*
X168625000Y-94359057D01*
X168625000Y-94359057D02*
X168510714Y-94330485D01*
X168510714Y-94330485D02*
X168453571Y-94301914D01*
X168453571Y-94301914D02*
X168425000Y-94273342D01*
X168425000Y-94273342D02*
X168396428Y-94216200D01*
X168396428Y-94216200D02*
X168396428Y-94159057D01*
X168396428Y-94159057D02*
X168425000Y-94101914D01*
X168425000Y-94101914D02*
X168453571Y-94073342D01*
X168453571Y-94073342D02*
X168510714Y-94044771D01*
X168510714Y-94044771D02*
X168653571Y-94044771D01*
X168653571Y-94044771D02*
X168739285Y-94073342D01*
X168996429Y-94644771D02*
X168996429Y-94044771D01*
X169596428Y-94073342D02*
X169539286Y-94044771D01*
X169539286Y-94044771D02*
X169453571Y-94044771D01*
X169453571Y-94044771D02*
X169367857Y-94073342D01*
X169367857Y-94073342D02*
X169310714Y-94130485D01*
X169310714Y-94130485D02*
X169282143Y-94187628D01*
X169282143Y-94187628D02*
X169253571Y-94301914D01*
X169253571Y-94301914D02*
X169253571Y-94387628D01*
X169253571Y-94387628D02*
X169282143Y-94501914D01*
X169282143Y-94501914D02*
X169310714Y-94559057D01*
X169310714Y-94559057D02*
X169367857Y-94616200D01*
X169367857Y-94616200D02*
X169453571Y-94644771D01*
X169453571Y-94644771D02*
X169510714Y-94644771D01*
X169510714Y-94644771D02*
X169596428Y-94616200D01*
X169596428Y-94616200D02*
X169625000Y-94587628D01*
X169625000Y-94587628D02*
X169625000Y-94387628D01*
X169625000Y-94387628D02*
X169510714Y-94387628D01*
X168367857Y-96048342D02*
X168310715Y-96019771D01*
X168310715Y-96019771D02*
X168225000Y-96019771D01*
X168225000Y-96019771D02*
X168139286Y-96048342D01*
X168139286Y-96048342D02*
X168082143Y-96105485D01*
X168082143Y-96105485D02*
X168053572Y-96162628D01*
X168053572Y-96162628D02*
X168025000Y-96276914D01*
X168025000Y-96276914D02*
X168025000Y-96362628D01*
X168025000Y-96362628D02*
X168053572Y-96476914D01*
X168053572Y-96476914D02*
X168082143Y-96534057D01*
X168082143Y-96534057D02*
X168139286Y-96591200D01*
X168139286Y-96591200D02*
X168225000Y-96619771D01*
X168225000Y-96619771D02*
X168282143Y-96619771D01*
X168282143Y-96619771D02*
X168367857Y-96591200D01*
X168367857Y-96591200D02*
X168396429Y-96562628D01*
X168396429Y-96562628D02*
X168396429Y-96362628D01*
X168396429Y-96362628D02*
X168282143Y-96362628D01*
X168653572Y-96619771D02*
X168653572Y-96019771D01*
X168653572Y-96019771D02*
X168996429Y-96619771D01*
X168996429Y-96619771D02*
X168996429Y-96019771D01*
X169282143Y-96619771D02*
X169282143Y-96019771D01*
X169282143Y-96019771D02*
X169425000Y-96019771D01*
X169425000Y-96019771D02*
X169510714Y-96048342D01*
X169510714Y-96048342D02*
X169567857Y-96105485D01*
X169567857Y-96105485D02*
X169596428Y-96162628D01*
X169596428Y-96162628D02*
X169625000Y-96276914D01*
X169625000Y-96276914D02*
X169625000Y-96362628D01*
X169625000Y-96362628D02*
X169596428Y-96476914D01*
X169596428Y-96476914D02*
X169567857Y-96534057D01*
X169567857Y-96534057D02*
X169510714Y-96591200D01*
X169510714Y-96591200D02*
X169425000Y-96619771D01*
X169425000Y-96619771D02*
X169282143Y-96619771D01*
X146300000Y-94666200D02*
X146385715Y-94694771D01*
X146385715Y-94694771D02*
X146528572Y-94694771D01*
X146528572Y-94694771D02*
X146585715Y-94666200D01*
X146585715Y-94666200D02*
X146614286Y-94637628D01*
X146614286Y-94637628D02*
X146642857Y-94580485D01*
X146642857Y-94580485D02*
X146642857Y-94523342D01*
X146642857Y-94523342D02*
X146614286Y-94466200D01*
X146614286Y-94466200D02*
X146585715Y-94437628D01*
X146585715Y-94437628D02*
X146528572Y-94409057D01*
X146528572Y-94409057D02*
X146414286Y-94380485D01*
X146414286Y-94380485D02*
X146357143Y-94351914D01*
X146357143Y-94351914D02*
X146328572Y-94323342D01*
X146328572Y-94323342D02*
X146300000Y-94266200D01*
X146300000Y-94266200D02*
X146300000Y-94209057D01*
X146300000Y-94209057D02*
X146328572Y-94151914D01*
X146328572Y-94151914D02*
X146357143Y-94123342D01*
X146357143Y-94123342D02*
X146414286Y-94094771D01*
X146414286Y-94094771D02*
X146557143Y-94094771D01*
X146557143Y-94094771D02*
X146642857Y-94123342D01*
X146900001Y-94694771D02*
X146900001Y-94094771D01*
X147500000Y-94123342D02*
X147442858Y-94094771D01*
X147442858Y-94094771D02*
X147357143Y-94094771D01*
X147357143Y-94094771D02*
X147271429Y-94123342D01*
X147271429Y-94123342D02*
X147214286Y-94180485D01*
X147214286Y-94180485D02*
X147185715Y-94237628D01*
X147185715Y-94237628D02*
X147157143Y-94351914D01*
X147157143Y-94351914D02*
X147157143Y-94437628D01*
X147157143Y-94437628D02*
X147185715Y-94551914D01*
X147185715Y-94551914D02*
X147214286Y-94609057D01*
X147214286Y-94609057D02*
X147271429Y-94666200D01*
X147271429Y-94666200D02*
X147357143Y-94694771D01*
X147357143Y-94694771D02*
X147414286Y-94694771D01*
X147414286Y-94694771D02*
X147500000Y-94666200D01*
X147500000Y-94666200D02*
X147528572Y-94637628D01*
X147528572Y-94637628D02*
X147528572Y-94437628D01*
X147528572Y-94437628D02*
X147414286Y-94437628D01*
X146328572Y-92469771D02*
X146328572Y-91869771D01*
X146328572Y-91869771D02*
X146557143Y-91869771D01*
X146557143Y-91869771D02*
X146614286Y-91898342D01*
X146614286Y-91898342D02*
X146642857Y-91926914D01*
X146642857Y-91926914D02*
X146671429Y-91984057D01*
X146671429Y-91984057D02*
X146671429Y-92069771D01*
X146671429Y-92069771D02*
X146642857Y-92126914D01*
X146642857Y-92126914D02*
X146614286Y-92155485D01*
X146614286Y-92155485D02*
X146557143Y-92184057D01*
X146557143Y-92184057D02*
X146328572Y-92184057D01*
X146871429Y-91869771D02*
X147014286Y-92469771D01*
X147014286Y-92469771D02*
X147128572Y-92041200D01*
X147128572Y-92041200D02*
X147242857Y-92469771D01*
X147242857Y-92469771D02*
X147385715Y-91869771D01*
X147957143Y-92469771D02*
X147757143Y-92184057D01*
X147614286Y-92469771D02*
X147614286Y-91869771D01*
X147614286Y-91869771D02*
X147842857Y-91869771D01*
X147842857Y-91869771D02*
X147900000Y-91898342D01*
X147900000Y-91898342D02*
X147928571Y-91926914D01*
X147928571Y-91926914D02*
X147957143Y-91984057D01*
X147957143Y-91984057D02*
X147957143Y-92069771D01*
X147957143Y-92069771D02*
X147928571Y-92126914D01*
X147928571Y-92126914D02*
X147900000Y-92155485D01*
X147900000Y-92155485D02*
X147842857Y-92184057D01*
X147842857Y-92184057D02*
X147614286Y-92184057D01*
X167996429Y-92394771D02*
X167996429Y-91794771D01*
X167996429Y-91794771D02*
X168225000Y-91794771D01*
X168225000Y-91794771D02*
X168282143Y-91823342D01*
X168282143Y-91823342D02*
X168310714Y-91851914D01*
X168310714Y-91851914D02*
X168339286Y-91909057D01*
X168339286Y-91909057D02*
X168339286Y-91994771D01*
X168339286Y-91994771D02*
X168310714Y-92051914D01*
X168310714Y-92051914D02*
X168282143Y-92080485D01*
X168282143Y-92080485D02*
X168225000Y-92109057D01*
X168225000Y-92109057D02*
X167996429Y-92109057D01*
X168539286Y-91794771D02*
X168682143Y-92394771D01*
X168682143Y-92394771D02*
X168796429Y-91966200D01*
X168796429Y-91966200D02*
X168910714Y-92394771D01*
X168910714Y-92394771D02*
X169053572Y-91794771D01*
X169625000Y-92394771D02*
X169425000Y-92109057D01*
X169282143Y-92394771D02*
X169282143Y-91794771D01*
X169282143Y-91794771D02*
X169510714Y-91794771D01*
X169510714Y-91794771D02*
X169567857Y-91823342D01*
X169567857Y-91823342D02*
X169596428Y-91851914D01*
X169596428Y-91851914D02*
X169625000Y-91909057D01*
X169625000Y-91909057D02*
X169625000Y-91994771D01*
X169625000Y-91994771D02*
X169596428Y-92051914D01*
X169596428Y-92051914D02*
X169567857Y-92080485D01*
X169567857Y-92080485D02*
X169510714Y-92109057D01*
X169510714Y-92109057D02*
X169282143Y-92109057D01*
X146642857Y-96098342D02*
X146585715Y-96069771D01*
X146585715Y-96069771D02*
X146500000Y-96069771D01*
X146500000Y-96069771D02*
X146414286Y-96098342D01*
X146414286Y-96098342D02*
X146357143Y-96155485D01*
X146357143Y-96155485D02*
X146328572Y-96212628D01*
X146328572Y-96212628D02*
X146300000Y-96326914D01*
X146300000Y-96326914D02*
X146300000Y-96412628D01*
X146300000Y-96412628D02*
X146328572Y-96526914D01*
X146328572Y-96526914D02*
X146357143Y-96584057D01*
X146357143Y-96584057D02*
X146414286Y-96641200D01*
X146414286Y-96641200D02*
X146500000Y-96669771D01*
X146500000Y-96669771D02*
X146557143Y-96669771D01*
X146557143Y-96669771D02*
X146642857Y-96641200D01*
X146642857Y-96641200D02*
X146671429Y-96612628D01*
X146671429Y-96612628D02*
X146671429Y-96412628D01*
X146671429Y-96412628D02*
X146557143Y-96412628D01*
X146928572Y-96669771D02*
X146928572Y-96069771D01*
X146928572Y-96069771D02*
X147271429Y-96669771D01*
X147271429Y-96669771D02*
X147271429Y-96069771D01*
X147557143Y-96669771D02*
X147557143Y-96069771D01*
X147557143Y-96069771D02*
X147700000Y-96069771D01*
X147700000Y-96069771D02*
X147785714Y-96098342D01*
X147785714Y-96098342D02*
X147842857Y-96155485D01*
X147842857Y-96155485D02*
X147871428Y-96212628D01*
X147871428Y-96212628D02*
X147900000Y-96326914D01*
X147900000Y-96326914D02*
X147900000Y-96412628D01*
X147900000Y-96412628D02*
X147871428Y-96526914D01*
X147871428Y-96526914D02*
X147842857Y-96584057D01*
X147842857Y-96584057D02*
X147785714Y-96641200D01*
X147785714Y-96641200D02*
X147700000Y-96669771D01*
X147700000Y-96669771D02*
X147557143Y-96669771D01*
X161708333Y-96841033D02*
X161475000Y-96507700D01*
X161308333Y-96841033D02*
X161308333Y-96141033D01*
X161308333Y-96141033D02*
X161575000Y-96141033D01*
X161575000Y-96141033D02*
X161641667Y-96174366D01*
X161641667Y-96174366D02*
X161675000Y-96207700D01*
X161675000Y-96207700D02*
X161708333Y-96274366D01*
X161708333Y-96274366D02*
X161708333Y-96374366D01*
X161708333Y-96374366D02*
X161675000Y-96441033D01*
X161675000Y-96441033D02*
X161641667Y-96474366D01*
X161641667Y-96474366D02*
X161575000Y-96507700D01*
X161575000Y-96507700D02*
X161308333Y-96507700D01*
X162375000Y-96841033D02*
X161975000Y-96841033D01*
X162175000Y-96841033D02*
X162175000Y-96141033D01*
X162175000Y-96141033D02*
X162108333Y-96241033D01*
X162108333Y-96241033D02*
X162041667Y-96307700D01*
X162041667Y-96307700D02*
X161975000Y-96341033D01*
X160158333Y-96891033D02*
X159925000Y-96557700D01*
X159758333Y-96891033D02*
X159758333Y-96191033D01*
X159758333Y-96191033D02*
X160025000Y-96191033D01*
X160025000Y-96191033D02*
X160091667Y-96224366D01*
X160091667Y-96224366D02*
X160125000Y-96257700D01*
X160125000Y-96257700D02*
X160158333Y-96324366D01*
X160158333Y-96324366D02*
X160158333Y-96424366D01*
X160158333Y-96424366D02*
X160125000Y-96491033D01*
X160125000Y-96491033D02*
X160091667Y-96524366D01*
X160091667Y-96524366D02*
X160025000Y-96557700D01*
X160025000Y-96557700D02*
X159758333Y-96557700D01*
X160425000Y-96257700D02*
X160458333Y-96224366D01*
X160458333Y-96224366D02*
X160525000Y-96191033D01*
X160525000Y-96191033D02*
X160691667Y-96191033D01*
X160691667Y-96191033D02*
X160758333Y-96224366D01*
X160758333Y-96224366D02*
X160791667Y-96257700D01*
X160791667Y-96257700D02*
X160825000Y-96324366D01*
X160825000Y-96324366D02*
X160825000Y-96391033D01*
X160825000Y-96391033D02*
X160791667Y-96491033D01*
X160791667Y-96491033D02*
X160391667Y-96891033D01*
X160391667Y-96891033D02*
X160825000Y-96891033D01*
X157558333Y-96774366D02*
X157525000Y-96807700D01*
X157525000Y-96807700D02*
X157425000Y-96841033D01*
X157425000Y-96841033D02*
X157358333Y-96841033D01*
X157358333Y-96841033D02*
X157258333Y-96807700D01*
X157258333Y-96807700D02*
X157191667Y-96741033D01*
X157191667Y-96741033D02*
X157158333Y-96674366D01*
X157158333Y-96674366D02*
X157125000Y-96541033D01*
X157125000Y-96541033D02*
X157125000Y-96441033D01*
X157125000Y-96441033D02*
X157158333Y-96307700D01*
X157158333Y-96307700D02*
X157191667Y-96241033D01*
X157191667Y-96241033D02*
X157258333Y-96174366D01*
X157258333Y-96174366D02*
X157358333Y-96141033D01*
X157358333Y-96141033D02*
X157425000Y-96141033D01*
X157425000Y-96141033D02*
X157525000Y-96174366D01*
X157525000Y-96174366D02*
X157558333Y-96207700D01*
X158225000Y-96841033D02*
X157825000Y-96841033D01*
X158025000Y-96841033D02*
X158025000Y-96141033D01*
X158025000Y-96141033D02*
X157958333Y-96241033D01*
X157958333Y-96241033D02*
X157891667Y-96307700D01*
X157891667Y-96307700D02*
X157825000Y-96341033D01*
D11*
%TO.C,R1*%
X160897936Y-91890000D02*
X161352064Y-91890000D01*
X160897936Y-93360000D02*
X161352064Y-93360000D01*
%TO.C,R2*%
X160897936Y-94040000D02*
X161352064Y-94040000D01*
X160897936Y-95510000D02*
X161352064Y-95510000D01*
%TO.C,D1*%
X153540000Y-94850000D02*
X153540000Y-94200000D01*
X153540000Y-94850000D02*
X153540000Y-95500000D01*
X156660000Y-94850000D02*
X156660000Y-93175000D01*
X156660000Y-94850000D02*
X156660000Y-95500000D01*
%TO.C,C1*%
X157390000Y-93813748D02*
X157390000Y-94336252D01*
X158860000Y-93813748D02*
X158860000Y-94336252D01*
%TD*%
M02*
