%TF.GenerationSoftware,KiCad,Pcbnew,8.99.0-1891-ge2bd76bdce*%
%TF.CreationDate,2024-07-24T16:24:11+03:00*%
%TF.ProjectId,DS18B20_Protection,44533138-4232-4305-9f50-726f74656374,rev?*%
%TF.SameCoordinates,Original*%
%TF.FileFunction,Soldermask,Top*%
%TF.FilePolarity,Negative*%
%FSLAX46Y46*%
G04 Gerber Fmt 4.6, Leading zero omitted, Abs format (unit mm)*
G04 Created by KiCad (PCBNEW 8.99.0-1891-ge2bd76bdce) date 2024-07-24 16:24:11*
%MOMM*%
%LPD*%
G01*
G04 APERTURE LIST*
G04 Aperture macros list*
%AMRoundRect*
0 Rectangle with rounded corners*
0 $1 Rounding radius*
0 $2 $3 $4 $5 $6 $7 $8 $9 X,Y pos of 4 corners*
0 Add a 4 corners polygon primitive as box body*
4,1,4,$2,$3,$4,$5,$6,$7,$8,$9,$2,$3,0*
0 Add four circle primitives for the rounded corners*
1,1,$1+$1,$2,$3*
1,1,$1+$1,$4,$5*
1,1,$1+$1,$6,$7*
1,1,$1+$1,$8,$9*
0 Add four rect primitives between the rounded corners*
20,1,$1+$1,$2,$3,$4,$5,0*
20,1,$1+$1,$4,$5,$6,$7,0*
20,1,$1+$1,$6,$7,$8,$9,0*
20,1,$1+$1,$8,$9,$2,$3,0*%
G04 Aperture macros list end*
%ADD10C,0.200000*%
%ADD11RoundRect,0.250000X-0.262500X-0.450000X0.262500X-0.450000X0.262500X0.450000X-0.262500X0.450000X0*%
%ADD12RoundRect,0.150000X-0.150000X0.587500X-0.150000X-0.587500X0.150000X-0.587500X0.150000X0.587500X0*%
%ADD13RoundRect,0.250000X-0.475000X0.250000X-0.475000X-0.250000X0.475000X-0.250000X0.475000X0.250000X0*%
G04 APERTURE END LIST*
D10*
X163475000Y-91575000D02*
X167475000Y-91575000D01*
X167475000Y-92775000D01*
X163475000Y-92775000D01*
X163475000Y-91575000D01*
G36*
X163475000Y-91575000D02*
G01*
X167475000Y-91575000D01*
X167475000Y-92775000D01*
X163475000Y-92775000D01*
X163475000Y-91575000D01*
G37*
X163500000Y-93650000D02*
X167500000Y-93650000D01*
X167500000Y-94850000D01*
X163500000Y-94850000D01*
X163500000Y-93650000D01*
G36*
X163500000Y-93650000D02*
G01*
X167500000Y-93650000D01*
X167500000Y-94850000D01*
X163500000Y-94850000D01*
X163500000Y-93650000D01*
G37*
X163475000Y-95775000D02*
X167475000Y-95775000D01*
X167475000Y-96975000D01*
X163475000Y-96975000D01*
X163475000Y-95775000D01*
G36*
X163475000Y-95775000D02*
G01*
X167475000Y-95775000D01*
X167475000Y-96975000D01*
X163475000Y-96975000D01*
X163475000Y-95775000D01*
G37*
X148425000Y-95725000D02*
X152425000Y-95725000D01*
X152425000Y-96925000D01*
X148425000Y-96925000D01*
X148425000Y-95725000D01*
G36*
X148425000Y-95725000D02*
G01*
X152425000Y-95725000D01*
X152425000Y-96925000D01*
X148425000Y-96925000D01*
X148425000Y-95725000D01*
G37*
X148400000Y-93700000D02*
X152400000Y-93700000D01*
X152400000Y-94900000D01*
X148400000Y-94900000D01*
X148400000Y-93700000D01*
G36*
X148400000Y-93700000D02*
G01*
X152400000Y-93700000D01*
X152400000Y-94900000D01*
X148400000Y-94900000D01*
X148400000Y-93700000D01*
G37*
X148425000Y-91600000D02*
X152425000Y-91600000D01*
X152425000Y-92800000D01*
X148425000Y-92800000D01*
X148425000Y-91600000D01*
G36*
X148425000Y-91600000D02*
G01*
X152425000Y-91600000D01*
X152425000Y-92800000D01*
X148425000Y-92800000D01*
X148425000Y-91600000D01*
G37*
D11*
%TO.C,R1*%
X160212500Y-92625000D03*
X162037500Y-92625000D03*
%TD*%
%TO.C,R2*%
X160212500Y-94775000D03*
X162037500Y-94775000D03*
%TD*%
D12*
%TO.C,D1*%
X156050000Y-93912500D03*
X154150000Y-93912500D03*
X155100000Y-95787500D03*
%TD*%
D13*
%TO.C,C1*%
X158125000Y-93125000D03*
X158125000Y-95025000D03*
%TD*%
M02*
