M48
; DRILL file {KiCad 7.0.6-rc1-28-g32930319ea} date Fri Jun 30 09:32:55 2023
; FORMAT={-:-/ absolute / inch / decimal}
; #@! TF.CreationDate,2023-06-30T09:32:55+03:00
; #@! TF.GenerationSoftware,Kicad,Pcbnew,7.0.6-rc1-28-g32930319ea
; #@! TF.FileFunction,Plated,1,4,PTH
FMAT,2
INCH
; #@! TA.AperFunction,Plated,PTH,ViaDrill
T1C0.0118
; #@! TA.AperFunction,Plated,PTH,ComponentDrill
T2C0.0197
; #@! TA.AperFunction,Plated,PTH,ComponentDrill
T3C0.0354
; #@! TA.AperFunction,Plated,PTH,ComponentDrill
T4C0.0394
; #@! TA.AperFunction,Plated,PTH,ComponentDrill
T5C0.0531
; #@! TA.AperFunction,Plated,PTH,ComponentDrill
T6C0.0669
%
G90
G05
T1
X2.6445Y-4.4409
X2.6528Y-2.84
X2.6528Y-2.9384
X2.6528Y-3.0368
X2.6528Y-3.1352
X2.6528Y-3.2337
X2.6528Y-3.3321
X2.6528Y-3.4305
X2.6528Y-3.5289
X2.6528Y-3.6274
X2.6528Y-3.7258
X2.6528Y-3.8242
X2.6528Y-3.9226
X2.6596Y-4.8537
X2.6596Y-4.9522
X2.6596Y-5.0506
X2.6596Y-5.149
X2.6596Y-5.2474
X2.6596Y-5.3459
X2.6596Y-5.4443
X2.6646Y-5.5535
X2.6984Y-4.6949
X2.7059Y-4.5976
X2.7161Y-4.3803
X2.7492Y-2.8281
X2.7541Y-5.5693
X2.7547Y-4.6957
X2.7555Y-4.5972
X2.7646Y-3.1799
X2.8012Y-4.6957
X2.8067Y-4.5972
X2.8071Y-4.3799
X2.8161Y-3.1035
X2.8181Y-3.2041
X2.8457Y-3.3272
X2.8476Y-2.8281
X2.8526Y-5.5693
X2.8634Y-4.7917
X2.8673Y-4.9
X2.8909Y-4.589
X2.8917Y-4.7
X2.9028Y-4.7937
X2.9028Y-4.9
X2.9083Y-4.4551
X2.9091Y-4.3854
X2.9098Y-4.4181
X2.9289Y-4.589
X2.9297Y-4.7
X2.9362Y-4.8094
X2.9402Y-4.8547
X2.9402Y-4.9
X2.9411Y-3.9285
X2.9461Y-2.8281
X2.951Y-5.5693
X2.9638Y-3.2563
X2.9669Y-4.589
X2.9677Y-4.7
X2.9874Y-4.2437
X2.9941Y-4.0531
X3.026Y-4.2441
X3.0285Y-4.0531
X3.0323Y-3.1768
X3.0445Y-2.8281
X3.0494Y-5.5693
X3.0622Y-2.9886
X3.063Y-4.0531
X3.0652Y-3.5988
X3.0709Y-4.2449
X3.0858Y-3.4541
X3.0965Y-4.324
X3.0969Y-4.2894
X3.1075Y-4.4283
X3.1079Y-4.3949
X3.1079Y-4.4681
X3.1094Y-3.0736
X3.1181Y-4.5955
X3.1244Y-4.2457
X3.1319Y-4.0531
X3.1409Y-3.9177
X3.1429Y-2.8281
X3.1478Y-5.5693
X3.165Y-4.2453
X3.1663Y-4.0531
X3.1902Y-3.2307
X3.2008Y-4.0531
X3.2055Y-4.2457
X3.2197Y-5.3951
X3.2413Y-2.8281
X3.2461Y-4.6024
X3.2463Y-5.5693
X3.2547Y-3.178
X3.2626Y-4.4429
X3.2764Y-4.2051
X3.2795Y-4.0709
X3.2906Y-4.426
X3.2955Y-3.8006
X3.2994Y-3.9246
X3.2994Y-4.3006
X3.3028Y-3.1059
X3.3063Y-3.3272
X3.3181Y-5.3951
X3.3211Y-3.2051
X3.3398Y-2.8281
X3.3427Y-5.5683
X3.3929Y-3.9
X3.4057Y-3.6638
X3.4157Y-4.1961
X3.4165Y-5.3951
X3.4205Y-4.5791
X3.4213Y-4.7421
X3.4222Y-4.6841
X3.4283Y-4.4984
X3.4293Y-3.7563
X3.4382Y-2.8281
X3.4411Y-5.5683
X3.447Y-3.8272
X3.4555Y-4.274
X3.4628Y-4.4177
X3.4913Y-4.0181
X3.5031Y-3.5585
X3.515Y-5.3951
X3.5205Y-3.1764
X3.5307Y-4.3242
X3.5366Y-2.8281
X3.5396Y-5.5683
X3.5524Y-2.9886
X3.5583Y-3.8705
X3.5622Y-4.5801
X3.563Y-4.6841
X3.563Y-4.7421
X3.5693Y-4.4988
X3.574Y-3.3291
X3.5868Y-4.2317
X3.5984Y-3.0724
X3.6104Y-3.9374
X3.6104Y-4.087
X3.6134Y-4.4187
X3.6134Y-5.3951
X3.6242Y-3.4561
X3.6262Y-3.7583
X3.6262Y-4.0309
X3.635Y-2.8281
X3.638Y-5.5683
X3.6409Y-4.3242
X3.6537Y-3.2179
X3.6567Y-3.9886
X3.6862Y-3.1323
X3.6941Y-4.1077
X3.699Y-3.8459
X3.703Y-4.5791
X3.7037Y-4.7441
X3.7047Y-4.685
X3.7098Y-5.3941
X3.7106Y-4.4988
X3.7312Y-3.4896
X3.7335Y-2.8281
X3.7364Y-5.5683
X3.7423Y-3.9364
X3.7423Y-4.1687
X3.7445Y-3.1835
X3.7551Y-3.6923
X3.762Y-4.3242
X3.762Y-4.4276
X3.7787Y-3.2888
X3.7797Y-3.9915
X3.7866Y-3.7612
X3.7913Y-3.1106
X3.8083Y-5.3941
X3.8319Y-2.8281
X3.8348Y-5.5683
X3.8427Y-4.1018
X3.8445Y-4.6831
X3.8445Y-4.7431
X3.8457Y-4.5791
X3.8524Y-4.4984
X3.8634Y-4.4266
X3.8791Y-4.2248
X3.887Y-3.9374
X3.9067Y-5.3941
X3.9102Y-3.639
X3.9165Y-4.0132
X3.9234Y-4.336
X3.9236Y-3.5268
X3.9293Y-3.8006
X3.9303Y-2.8281
X3.9333Y-5.5683
X3.9439Y-3.6033
X3.947Y-3.2878
X3.9488Y-3.6969
X3.9488Y-4.5138
X3.9744Y-3.8012
X3.9766Y-3.8843
X3.9844Y-4.1215
X3.9854Y-4.5772
X3.9862Y-4.6831
X3.9862Y-4.7451
X3.9878Y-4.0449
X3.9933Y-4.0063
X3.9937Y-4.498
X4.0002Y-4.4246
X4.0049Y-3.6634
X4.0051Y-5.3941
X4.0087Y-3.1752
X4.014Y-3.4305
X4.0287Y-2.8281
X4.0317Y-5.5683
X4.0386Y-2.9866
X4.0445Y-4.0535
X4.0494Y-3.9984
X4.0632Y-4.2091
X4.065Y-4.2844
X4.0709Y-3.6644
X4.0894Y-3.072
X4.0906Y-4.5138
X4.1035Y-5.3941
X4.1112Y-4.3219
X4.1114Y-3.3213
X4.1128Y-4.1724
X4.127Y-4.7461
X4.1272Y-2.8281
X4.1272Y-4.5772
X4.128Y-4.6831
X4.1301Y-5.5683
X4.1343Y-4.498
X4.1429Y-3.7937
X4.1626Y-3.2071
X4.1656Y-4.4246
X4.1921Y-3.8449
X4.1947Y-4.1732
X4.1949Y-4.3238
X4.202Y-5.3941
X4.2079Y-3.9108
X4.2207Y-3.4413
X4.2256Y-2.8281
X4.2285Y-5.5683
X4.2303Y-4.5118
X4.2392Y-4.2884
X4.2443Y-4.211
X4.2472Y-3.1819
X4.2472Y-3.8311
X4.2476Y-3.7075
X4.2496Y-3.9811
X4.2687Y-4.6811
X4.2687Y-4.7451
X4.2709Y-4.5781
X4.276Y-4.498
X4.2988Y-3.1094
X4.3004Y-5.3941
X4.3142Y-3.3439
X4.3191Y-4.4226
X4.324Y-2.8281
X4.327Y-5.5683
X4.3331Y-4.1681
X4.3555Y-3.2602
X4.3683Y-3.9
X4.372Y-4.5098
X4.3799Y-3.9697
X4.3815Y-3.527
X4.3988Y-5.3941
X4.4094Y-4.7461
X4.4096Y-4.5791
X4.4098Y-4.1531
X4.4104Y-4.6791
X4.4161Y-4.4972
X4.4205Y-2.8272
X4.4254Y-5.5683
X4.4274Y-3.4837
X4.4409Y-4.0287
X4.4638Y-3.3616
X4.4667Y-4.4226
X4.4833Y-3.7087
X4.4854Y-4.1224
X4.4882Y-3.9071
X4.4902Y-3.5913
X4.4904Y-3.7848
X4.4923Y-3.523
X4.4941Y-3.6681
X4.4972Y-5.3941
X4.4984Y-3.828
X4.5067Y-3.6303
X4.5114Y-3.1815
X4.512Y-3.2563
X4.5138Y-4.5079
X4.5189Y-2.8272
X4.5209Y-4.0114
X4.5238Y-5.5683
X4.5287Y-4.1303
X4.5406Y-2.9886
X4.5504Y-4.5791
X4.5512Y-4.6841
X4.5512Y-4.7441
X4.5531Y-4.0043
X4.5553Y-3.7248
X4.5575Y-4.4972
X4.5632Y-3.7967
X4.5886Y-3.0732
X4.5953Y-4.0087
X4.5957Y-5.3941
X4.598Y-3.5181
X4.6124Y-3.9541
X4.6134Y-3.274
X4.6134Y-3.4102
X4.6154Y-4.3941
X4.6173Y-2.8272
X4.6222Y-5.5683
X4.6343Y-4.0047
X4.635Y-3.8734
X4.6524Y-4.2665
X4.6535Y-4.5098
X4.6598Y-4.128
X4.6764Y-3.524
X4.6774Y-3.7238
X4.6811Y-4.0098
X4.6823Y-3.2484
X4.6919Y-4.6811
X4.6919Y-4.747
X4.6941Y-3.0929
X4.6941Y-4.5801
X4.6941Y-5.3941
X4.6984Y-4.4972
X4.7098Y-3.9443
X4.7157Y-2.8272
X4.7187Y-4.4197
X4.7207Y-5.5683
X4.7234Y-3.9783
X4.7246Y-3.6392
X4.7276Y-4.2815
X4.7305Y-3.8803
X4.7323Y-3.1799
X4.7524Y-3.9634
X4.7717Y-3.5187
X4.7748Y-3.9898
X4.7831Y-3.1083
X4.7925Y-5.3941
X4.7933Y-3.5719
X4.7945Y-3.1953
X4.7965Y-4.5098
X4.8Y-4.2657
X4.8071Y-4.0108
X4.8112Y-3.7238
X4.8142Y-2.8272
X4.8191Y-5.5683
X4.8327Y-4.6831
X4.8329Y-4.5801
X4.8346Y-4.7451
X4.8394Y-4.4972
X4.8571Y-3.9531
X4.8618Y-4.2642
X4.865Y-3.9862
X4.874Y-3.5187
X4.8742Y-3.5762
X4.8909Y-5.3941
X4.8919Y-4.4197
X4.8978Y-3.8045
X4.9008Y-2.9728
X4.9035Y-3.9799
X4.9075Y-4.0122
X4.9087Y-3.3252
X4.9087Y-3.8774
X4.9126Y-2.8272
X4.9146Y-3.4039
X4.9175Y-3.7238
X4.9175Y-5.5683
X4.9264Y-3.6362
X4.935Y-4.5157
X4.9392Y-4.276
X4.9402Y-3.3154
X4.9402Y-3.3823
X4.962Y-3.4021
X4.9657Y-3.9453
X4.9667Y-3.5781
X4.9697Y-3.8626
X4.9713Y-3.5197
X4.9734Y-4.7461
X4.9736Y-4.5791
X4.9744Y-4.6841
X4.9803Y-3.7283
X4.9803Y-3.8071
X4.9811Y-4.4972
X4.9831Y-4.0
X4.985Y-3.6291
X4.9894Y-5.3941
X5.0Y-3.178
X5.0031Y-3.401
X5.0031Y-4.1402
X5.011Y-2.8272
X5.0238Y-5.5693
X5.0297Y-4.0781
X5.0382Y-3.5035
X5.0386Y-4.4236
X5.0642Y-4.2366
X5.072Y-3.3311
X5.0776Y-3.0732
X5.0858Y-3.3803
X5.0878Y-4.0358
X5.0878Y-5.3941
X5.0917Y-3.9843
X5.0984Y-3.9075
X5.1031Y-3.7087
X5.1043Y-3.6437
X5.1075Y-3.7484
X5.1094Y-2.8272
X5.1114Y-3.211
X5.1122Y-3.8642
X5.1142Y-4.7461
X5.1152Y-4.6831
X5.1154Y-4.5801
X5.122Y-4.4976
X5.1222Y-5.5693
X5.1301Y-4.1116
X5.1508Y-2.9827
X5.1508Y-4.2858
X5.1634Y-3.5846
X5.1783Y-3.9128
X5.1862Y-5.3941
X5.2079Y-2.8272
X5.2079Y-3.4226
X5.2207Y-5.5693
X5.2217Y-4.3823
X5.2335Y-3.1799
X5.2386Y-3.3165
X5.2402Y-3.5283
X5.2429Y-3.787
X5.2541Y-4.5791
X5.2559Y-4.6811
X5.2559Y-4.7451
X5.2642Y-4.4972
X5.2659Y-3.8409
X5.2748Y-4.1579
X5.2772Y-3.6453
X5.2846Y-3.1055
X5.2846Y-5.3941
X5.2896Y-3.211
X5.3063Y-2.8272
X5.3083Y-4.4177
X5.3093Y-3.7402
X5.3132Y-3.4679
X5.3191Y-5.5693
X5.3339Y-4.0634
X5.3604Y-3.7638
X5.3654Y-4.2898
X5.3654Y-4.3685
X5.3693Y-3.9807
X5.387Y-3.7888
X5.3909Y-5.3951
X5.3919Y-3.3104
X5.3967Y-4.7441
X5.3969Y-4.5801
X5.3976Y-4.6841
X5.4047Y-2.8272
X5.4047Y-4.4972
X5.4057Y-3.2071
X5.4096Y-3.7106
X5.4175Y-5.5693
X5.453Y-3.4669
X5.4539Y-4.4079
X5.4618Y-4.085
X5.4772Y-3.574
X5.4894Y-5.3951
X5.4898Y-3.8634
X5.4972Y-4.2091
X5.5031Y-2.8272
X5.5075Y-3.1756
X5.515Y-2.9866
X5.5159Y-5.5693
X5.5228Y-4.3528
X5.5356Y-4.5801
X5.5374Y-4.6821
X5.5384Y-4.7431
X5.5461Y-4.498
X5.5626Y-3.8004
X5.572Y-3.8685
X5.5819Y-3.5693
X5.5819Y-3.65
X5.5831Y-3.0713
X5.5878Y-5.3951
X5.6016Y-2.8272
X5.6016Y-4.4098
X5.6144Y-5.5693
X5.6281Y-3.0093
X5.6301Y-3.3193
X5.637Y-3.2012
X5.6459Y-3.4709
X5.6518Y-4.2957
X5.6665Y-3.9591
X5.6724Y-3.8252
X5.6764Y-4.5801
X5.6791Y-4.6841
X5.6791Y-4.7441
X5.6843Y-4.1894
X5.6862Y-5.3951
X5.6866Y-3.0453
X5.6882Y-4.4988
X5.7Y-2.8272
X5.702Y-4.089
X5.7128Y-5.5693
X5.7187Y-4.4276
X5.7335Y-2.9374
X5.7364Y-3.2041
X5.7384Y-3.0122
X5.7622Y-2.937
X5.7709Y-3.652
X5.7846Y-5.3951
X5.7866Y-3.4669
X5.7915Y-4.2937
X5.7984Y-2.8272
X5.8112Y-5.5693
X5.815Y-3.9299
X5.8199Y-4.6811
X5.8199Y-4.7441
X5.8201Y-4.5801
X5.8276Y-4.4988
X5.8339Y-2.962
X5.8457Y-3.7888
X5.8516Y-3.1008
X5.8545Y-4.4098
X5.8799Y-3.9536
X5.8819Y-3.6394
X5.8831Y-5.3951
X5.886Y-3.7868
X5.89Y-3.2071
X5.8909Y-3.3134
X5.8939Y-4.272
X5.8969Y-2.8272
X5.8969Y-4.0752
X5.9067Y-4.212
X5.9142Y-3.8504
X5.9264Y-3.2681
X5.9362Y-3.4669
X5.9409Y-3.5933
X5.9524Y-3.9744
X5.9598Y-3.2917
X5.9616Y-4.6811
X5.9616Y-4.7451
X5.9618Y-4.5801
X5.9693Y-4.4996
X5.9815Y-5.3951
X5.9819Y-4.0744
X5.9866Y-3.6724
X5.9884Y-3.0004
X5.9884Y-3.1411
X5.9953Y-2.8272
X6.0012Y-4.4217
X6.0071Y-3.2839
X6.0157Y-3.95
X6.0162Y-3.8305
X6.017Y-3.8982
X6.0197Y-3.4531
X6.0209Y-4.1736
X6.0287Y-3.4118
X6.0394Y-3.8702
X6.0573Y-4.339
X6.0587Y-3.6272
X6.0598Y-3.9535
X6.0729Y-3.7267
X6.0748Y-4.0799
X6.0969Y-3.7567
X6.1016Y-2.8281
X6.1024Y-4.6821
X6.1033Y-4.7441
X6.1035Y-4.5791
X6.111Y-4.4996
X6.1252Y-3.9461
X6.1268Y-3.7906
X6.1272Y-3.8281
X6.1276Y-3.7303
X6.1543Y-3.7614
X6.1589Y-3.6281
X6.1642Y-3.4827
X6.1768Y-4.1961
X6.1795Y-3.7421
X6.1807Y-3.8874
X6.1819Y-3.848
X6.1862Y-3.9291
X6.1862Y-4.2533
X6.1862Y-4.3488
X6.187Y-3.798
X6.199Y-3.1185
X6.2Y-2.8281
X6.2154Y-3.7343
X6.222Y-3.6126
X6.2256Y-2.9354
X6.226Y-3.485
X6.2434Y-3.8968
X6.2482Y-4.1874
X6.2482Y-4.3026
X6.2502Y-3.3104
X6.2502Y-4.4039
X6.2541Y-3.4512
X6.2609Y-4.1401
X6.263Y-3.6126
X6.2669Y-4.0358
X6.2689Y-4.0998
X6.2856Y-3.4856
X6.287Y-3.4193
X6.2984Y-2.8281
X6.3161Y-4.215
X6.3161Y-4.2957
X6.3191Y-4.3862
X6.3309Y-4.4915
X6.3402Y-3.9524
X6.3469Y-3.415
X6.3701Y-3.978
X6.3713Y-4.0575
X6.3969Y-2.8281
X6.3988Y-3.6504
X6.4126Y-4.0171
X6.4126Y-4.152
X6.4156Y-4.3163
X6.4185Y-3.4457
X6.4894Y-3.4394
X6.4917Y-4.5252
X6.4953Y-2.8281
X6.5022Y-3.0742
X6.5071Y-3.3183
X6.513Y-3.1136
X6.5287Y-3.7598
X6.5378Y-3.9323
X6.5378Y-3.9681
X6.5528Y-4.4091
X6.5553Y-4.2789
X6.5563Y-4.0949
X6.573Y-2.9659
X6.578Y-3.589
X6.5937Y-2.8281
X6.5984Y-3.8398
X6.5988Y-3.8744
X6.6134Y-2.9758
X6.6516Y-3.5823
X6.6862Y-3.5447
X6.6921Y-2.8281
X6.6961Y-4.0555
X6.698Y-4.3016
X6.7089Y-3.3065
X6.7453Y-3.6864
X6.7665Y-4.3732
X6.7906Y-2.8281
X6.7935Y-3.8163
X6.7955Y-3.9994
X6.8295Y-3.952
X6.8303Y-3.8626
X6.8476Y-4.1047
X6.8526Y-4.274
X6.8693Y-4.4807
X6.889Y-2.8281
X6.9657Y-2.8557
X6.9736Y-2.9591
X6.9736Y-3.0575
X6.9736Y-3.1559
X6.9736Y-3.2543
X6.9736Y-3.3528
X6.9736Y-3.4512
X6.9736Y-3.5496
X6.9736Y-3.648
X6.9736Y-3.7465
X6.9736Y-3.8449
X6.9736Y-3.9433
X6.9736Y-4.0417
X6.9736Y-4.1402
X6.9736Y-4.2386
X6.9736Y-4.337
X6.9736Y-4.4354
T2
X5.1437Y-3.3858
X5.1437Y-3.4606
T3
X6.3189Y-5.152
X6.4067Y-4.7421
X6.4189Y-5.152
X6.4567Y-4.6421
X6.5067Y-4.7421
X6.5567Y-4.6421
X6.6067Y-4.7421
X6.6567Y-4.6421
X6.7067Y-4.7421
X6.7445Y-5.152
X6.7567Y-4.6421
X6.8445Y-5.152
T4
X2.8852Y-3.4358
X2.8852Y-3.5358
X2.8852Y-3.6358
X2.8852Y-3.7358
X2.8852Y-3.8358
X2.9852Y-3.4358
X2.9852Y-3.5358
X2.9852Y-3.6358
X2.9852Y-3.7358
X2.9852Y-3.8358
X3.2323Y-3.4512
X3.2323Y-3.5512
X3.2323Y-3.6512
X3.2323Y-3.7512
X3.2323Y-3.8512
X3.2323Y-3.9512
X5.9331Y-2.9272
X6.0331Y-2.9272
X6.1331Y-2.9272
X6.8335Y-2.9512
X6.8335Y-3.0512
X6.8335Y-3.1512
X6.8335Y-3.2512
X6.8335Y-3.3512
X6.8335Y-3.4512
T5
X2.8868Y-5.0433
X3.0246Y-5.248
X3.1624Y-5.0433
X3.3002Y-5.248
X3.438Y-5.0433
X3.5758Y-5.248
X3.7136Y-5.0433
X3.8514Y-5.248
X3.9892Y-5.0433
X4.127Y-5.248
X4.2648Y-5.0433
X4.4026Y-5.248
X4.5404Y-5.0433
X4.6781Y-5.248
X4.8159Y-5.0433
X4.9537Y-5.248
X5.0915Y-5.0433
X5.2293Y-5.248
X5.3671Y-5.0433
X5.5049Y-5.248
X5.6427Y-5.0433
X5.7805Y-5.248
X5.9183Y-5.0433
X6.0561Y-5.248
T6
X6.2726Y-4.872
X6.8907Y-4.872
T0
M30
