%TF.GenerationSoftware,KiCad,Pcbnew,8.99.0-1896-g1e663268ac*%
%TF.CreationDate,2024-10-16T09:53:04+03:00*%
%TF.ProjectId,diagnostic_tester,64696167-6e6f-4737-9469-635f74657374,rev?*%
%TF.SameCoordinates,Original*%
%TF.FileFunction,Copper,L1,Top*%
%TF.FilePolarity,Positive*%
%FSLAX46Y46*%
G04 Gerber Fmt 4.6, Leading zero omitted, Abs format (unit mm)*
G04 Created by KiCad (PCBNEW 8.99.0-1896-g1e663268ac) date 2024-10-16 09:53:04*
%MOMM*%
%LPD*%
G01*
G04 APERTURE LIST*
G04 Aperture macros list*
%AMRoundRect*
0 Rectangle with rounded corners*
0 $1 Rounding radius*
0 $2 $3 $4 $5 $6 $7 $8 $9 X,Y pos of 4 corners*
0 Add a 4 corners polygon primitive as box body*
4,1,4,$2,$3,$4,$5,$6,$7,$8,$9,$2,$3,0*
0 Add four circle primitives for the rounded corners*
1,1,$1+$1,$2,$3*
1,1,$1+$1,$4,$5*
1,1,$1+$1,$6,$7*
1,1,$1+$1,$8,$9*
0 Add four rect primitives between the rounded corners*
20,1,$1+$1,$2,$3,$4,$5,0*
20,1,$1+$1,$4,$5,$6,$7,0*
20,1,$1+$1,$6,$7,$8,$9,0*
20,1,$1+$1,$8,$9,$2,$3,0*%
G04 Aperture macros list end*
%ADD10C,0.200000*%
%TA.AperFunction,NonConductor*%
%ADD11C,0.200000*%
%TD*%
%TA.AperFunction,ComponentPad*%
%ADD12RoundRect,0.250001X-1.599999X1.099999X-1.599999X-1.099999X1.599999X-1.099999X1.599999X1.099999X0*%
%TD*%
%TA.AperFunction,ComponentPad*%
%ADD13O,3.700000X2.700000*%
%TD*%
%TA.AperFunction,SMDPad,CuDef*%
%ADD14RoundRect,0.250000X0.475000X-0.250000X0.475000X0.250000X-0.475000X0.250000X-0.475000X-0.250000X0*%
%TD*%
%TA.AperFunction,SMDPad,CuDef*%
%ADD15RoundRect,0.225000X-0.250000X0.225000X-0.250000X-0.225000X0.250000X-0.225000X0.250000X0.225000X0*%
%TD*%
%TA.AperFunction,SMDPad,CuDef*%
%ADD16RoundRect,0.200000X0.200000X0.275000X-0.200000X0.275000X-0.200000X-0.275000X0.200000X-0.275000X0*%
%TD*%
%TA.AperFunction,SMDPad,CuDef*%
%ADD17RoundRect,0.225000X0.250000X-0.225000X0.250000X0.225000X-0.250000X0.225000X-0.250000X-0.225000X0*%
%TD*%
%TA.AperFunction,SMDPad,CuDef*%
%ADD18RoundRect,0.200000X-0.275000X0.200000X-0.275000X-0.200000X0.275000X-0.200000X0.275000X0.200000X0*%
%TD*%
%TA.AperFunction,SMDPad,CuDef*%
%ADD19RoundRect,0.250000X-0.250000X-0.475000X0.250000X-0.475000X0.250000X0.475000X-0.250000X0.475000X0*%
%TD*%
%TA.AperFunction,SMDPad,CuDef*%
%ADD20RoundRect,0.150000X0.512500X0.150000X-0.512500X0.150000X-0.512500X-0.150000X0.512500X-0.150000X0*%
%TD*%
%TA.AperFunction,ComponentPad*%
%ADD21R,1.700000X1.700000*%
%TD*%
%TA.AperFunction,ComponentPad*%
%ADD22O,1.700000X1.700000*%
%TD*%
%TA.AperFunction,SMDPad,CuDef*%
%ADD23RoundRect,0.200000X0.275000X-0.200000X0.275000X0.200000X-0.275000X0.200000X-0.275000X-0.200000X0*%
%TD*%
%TA.AperFunction,SMDPad,CuDef*%
%ADD24R,0.850000X0.300000*%
%TD*%
%TA.AperFunction,ComponentPad*%
%ADD25R,1.500000X1.500000*%
%TD*%
%TA.AperFunction,ComponentPad*%
%ADD26C,1.500000*%
%TD*%
%TA.AperFunction,SMDPad,CuDef*%
%ADD27RoundRect,0.250000X-1.100000X0.325000X-1.100000X-0.325000X1.100000X-0.325000X1.100000X0.325000X0*%
%TD*%
%TA.AperFunction,SMDPad,CuDef*%
%ADD28R,5.100000X2.350000*%
%TD*%
%TA.AperFunction,SMDPad,CuDef*%
%ADD29RoundRect,0.250000X-0.475000X0.250000X-0.475000X-0.250000X0.475000X-0.250000X0.475000X0.250000X0*%
%TD*%
%TA.AperFunction,SMDPad,CuDef*%
%ADD30R,3.500000X1.700000*%
%TD*%
%TA.AperFunction,SMDPad,CuDef*%
%ADD31R,1.700000X3.500000*%
%TD*%
%TA.AperFunction,SMDPad,CuDef*%
%ADD32RoundRect,0.250000X1.000000X0.650000X-1.000000X0.650000X-1.000000X-0.650000X1.000000X-0.650000X0*%
%TD*%
%TA.AperFunction,SMDPad,CuDef*%
%ADD33RoundRect,0.225000X-0.375000X0.225000X-0.375000X-0.225000X0.375000X-0.225000X0.375000X0.225000X0*%
%TD*%
%TA.AperFunction,ViaPad*%
%ADD34C,0.600000*%
%TD*%
%TA.AperFunction,Conductor*%
%ADD35C,0.150000*%
%TD*%
%TA.AperFunction,Conductor*%
%ADD36C,0.254000*%
%TD*%
%TA.AperFunction,Conductor*%
%ADD37C,1.200000*%
%TD*%
%TA.AperFunction,Conductor*%
%ADD38C,0.300000*%
%TD*%
%TA.AperFunction,Conductor*%
%ADD39C,0.200000*%
%TD*%
G04 APERTURE END LIST*
D10*
D11*
X48176478Y-71273006D02*
X48128859Y-71415863D01*
X48128859Y-71415863D02*
X48081240Y-71463482D01*
X48081240Y-71463482D02*
X47986002Y-71511101D01*
X47986002Y-71511101D02*
X47843145Y-71511101D01*
X47843145Y-71511101D02*
X47747907Y-71463482D01*
X47747907Y-71463482D02*
X47700288Y-71415863D01*
X47700288Y-71415863D02*
X47652668Y-71320625D01*
X47652668Y-71320625D02*
X47652668Y-70939673D01*
X47652668Y-70939673D02*
X48652668Y-70939673D01*
X48652668Y-70939673D02*
X48652668Y-71273006D01*
X48652668Y-71273006D02*
X48605049Y-71368244D01*
X48605049Y-71368244D02*
X48557430Y-71415863D01*
X48557430Y-71415863D02*
X48462192Y-71463482D01*
X48462192Y-71463482D02*
X48366954Y-71463482D01*
X48366954Y-71463482D02*
X48271716Y-71415863D01*
X48271716Y-71415863D02*
X48224097Y-71368244D01*
X48224097Y-71368244D02*
X48176478Y-71273006D01*
X48176478Y-71273006D02*
X48176478Y-70939673D01*
X47652668Y-71939673D02*
X48652668Y-71939673D01*
X47652668Y-72511101D02*
X48224097Y-72082530D01*
X48652668Y-72511101D02*
X48081240Y-71939673D01*
X48652668Y-73558721D02*
X48652668Y-74130149D01*
X47652668Y-73844435D02*
X48652668Y-73844435D01*
X47700288Y-74844435D02*
X47652668Y-74749197D01*
X47652668Y-74749197D02*
X47652668Y-74558721D01*
X47652668Y-74558721D02*
X47700288Y-74463483D01*
X47700288Y-74463483D02*
X47795526Y-74415864D01*
X47795526Y-74415864D02*
X48176478Y-74415864D01*
X48176478Y-74415864D02*
X48271716Y-74463483D01*
X48271716Y-74463483D02*
X48319335Y-74558721D01*
X48319335Y-74558721D02*
X48319335Y-74749197D01*
X48319335Y-74749197D02*
X48271716Y-74844435D01*
X48271716Y-74844435D02*
X48176478Y-74892054D01*
X48176478Y-74892054D02*
X48081240Y-74892054D01*
X48081240Y-74892054D02*
X47986002Y-74415864D01*
X47652668Y-75463483D02*
X47700288Y-75368245D01*
X47700288Y-75368245D02*
X47795526Y-75320626D01*
X47795526Y-75320626D02*
X48652668Y-75320626D01*
X47700288Y-76225388D02*
X47652668Y-76130150D01*
X47652668Y-76130150D02*
X47652668Y-75939674D01*
X47652668Y-75939674D02*
X47700288Y-75844436D01*
X47700288Y-75844436D02*
X47795526Y-75796817D01*
X47795526Y-75796817D02*
X48176478Y-75796817D01*
X48176478Y-75796817D02*
X48271716Y-75844436D01*
X48271716Y-75844436D02*
X48319335Y-75939674D01*
X48319335Y-75939674D02*
X48319335Y-76130150D01*
X48319335Y-76130150D02*
X48271716Y-76225388D01*
X48271716Y-76225388D02*
X48176478Y-76273007D01*
X48176478Y-76273007D02*
X48081240Y-76273007D01*
X48081240Y-76273007D02*
X47986002Y-75796817D01*
X47652668Y-76701579D02*
X48319335Y-76701579D01*
X48224097Y-76701579D02*
X48271716Y-76749198D01*
X48271716Y-76749198D02*
X48319335Y-76844436D01*
X48319335Y-76844436D02*
X48319335Y-76987293D01*
X48319335Y-76987293D02*
X48271716Y-77082531D01*
X48271716Y-77082531D02*
X48176478Y-77130150D01*
X48176478Y-77130150D02*
X47652668Y-77130150D01*
X48176478Y-77130150D02*
X48271716Y-77177769D01*
X48271716Y-77177769D02*
X48319335Y-77273007D01*
X48319335Y-77273007D02*
X48319335Y-77415864D01*
X48319335Y-77415864D02*
X48271716Y-77511103D01*
X48271716Y-77511103D02*
X48176478Y-77558722D01*
X48176478Y-77558722D02*
X47652668Y-77558722D01*
X47652668Y-78463483D02*
X48176478Y-78463483D01*
X48176478Y-78463483D02*
X48271716Y-78415864D01*
X48271716Y-78415864D02*
X48319335Y-78320626D01*
X48319335Y-78320626D02*
X48319335Y-78130150D01*
X48319335Y-78130150D02*
X48271716Y-78034912D01*
X47700288Y-78463483D02*
X47652668Y-78368245D01*
X47652668Y-78368245D02*
X47652668Y-78130150D01*
X47652668Y-78130150D02*
X47700288Y-78034912D01*
X47700288Y-78034912D02*
X47795526Y-77987293D01*
X47795526Y-77987293D02*
X47890764Y-77987293D01*
X47890764Y-77987293D02*
X47986002Y-78034912D01*
X47986002Y-78034912D02*
X48033621Y-78130150D01*
X48033621Y-78130150D02*
X48033621Y-78368245D01*
X48033621Y-78368245D02*
X48081240Y-78463483D01*
X48319335Y-78796817D02*
X48319335Y-79177769D01*
X48652668Y-78939674D02*
X47795526Y-78939674D01*
X47795526Y-78939674D02*
X47700288Y-78987293D01*
X47700288Y-78987293D02*
X47652668Y-79082531D01*
X47652668Y-79082531D02*
X47652668Y-79177769D01*
X47652668Y-79511103D02*
X48319335Y-79511103D01*
X48652668Y-79511103D02*
X48605049Y-79463484D01*
X48605049Y-79463484D02*
X48557430Y-79511103D01*
X48557430Y-79511103D02*
X48605049Y-79558722D01*
X48605049Y-79558722D02*
X48652668Y-79511103D01*
X48652668Y-79511103D02*
X48557430Y-79511103D01*
X47700288Y-80415864D02*
X47652668Y-80320626D01*
X47652668Y-80320626D02*
X47652668Y-80130150D01*
X47652668Y-80130150D02*
X47700288Y-80034912D01*
X47700288Y-80034912D02*
X47747907Y-79987293D01*
X47747907Y-79987293D02*
X47843145Y-79939674D01*
X47843145Y-79939674D02*
X48128859Y-79939674D01*
X48128859Y-79939674D02*
X48224097Y-79987293D01*
X48224097Y-79987293D02*
X48271716Y-80034912D01*
X48271716Y-80034912D02*
X48319335Y-80130150D01*
X48319335Y-80130150D02*
X48319335Y-80320626D01*
X48319335Y-80320626D02*
X48271716Y-80415864D01*
X47700288Y-80796817D02*
X47652668Y-80892055D01*
X47652668Y-80892055D02*
X47652668Y-81082531D01*
X47652668Y-81082531D02*
X47700288Y-81177769D01*
X47700288Y-81177769D02*
X47795526Y-81225388D01*
X47795526Y-81225388D02*
X47843145Y-81225388D01*
X47843145Y-81225388D02*
X47938383Y-81177769D01*
X47938383Y-81177769D02*
X47986002Y-81082531D01*
X47986002Y-81082531D02*
X47986002Y-80939674D01*
X47986002Y-80939674D02*
X48033621Y-80844436D01*
X48033621Y-80844436D02*
X48128859Y-80796817D01*
X48128859Y-80796817D02*
X48176478Y-80796817D01*
X48176478Y-80796817D02*
X48271716Y-80844436D01*
X48271716Y-80844436D02*
X48319335Y-80939674D01*
X48319335Y-80939674D02*
X48319335Y-81082531D01*
X48319335Y-81082531D02*
X48271716Y-81177769D01*
X46042724Y-70939673D02*
X47042724Y-70939673D01*
X47042724Y-70939673D02*
X47042724Y-71177768D01*
X47042724Y-71177768D02*
X46995105Y-71320625D01*
X46995105Y-71320625D02*
X46899867Y-71415863D01*
X46899867Y-71415863D02*
X46804629Y-71463482D01*
X46804629Y-71463482D02*
X46614153Y-71511101D01*
X46614153Y-71511101D02*
X46471296Y-71511101D01*
X46471296Y-71511101D02*
X46280820Y-71463482D01*
X46280820Y-71463482D02*
X46185582Y-71415863D01*
X46185582Y-71415863D02*
X46090344Y-71320625D01*
X46090344Y-71320625D02*
X46042724Y-71177768D01*
X46042724Y-71177768D02*
X46042724Y-70939673D01*
X46042724Y-71939673D02*
X46709391Y-71939673D01*
X47042724Y-71939673D02*
X46995105Y-71892054D01*
X46995105Y-71892054D02*
X46947486Y-71939673D01*
X46947486Y-71939673D02*
X46995105Y-71987292D01*
X46995105Y-71987292D02*
X47042724Y-71939673D01*
X47042724Y-71939673D02*
X46947486Y-71939673D01*
X46042724Y-72844434D02*
X46566534Y-72844434D01*
X46566534Y-72844434D02*
X46661772Y-72796815D01*
X46661772Y-72796815D02*
X46709391Y-72701577D01*
X46709391Y-72701577D02*
X46709391Y-72511101D01*
X46709391Y-72511101D02*
X46661772Y-72415863D01*
X46090344Y-72844434D02*
X46042724Y-72749196D01*
X46042724Y-72749196D02*
X46042724Y-72511101D01*
X46042724Y-72511101D02*
X46090344Y-72415863D01*
X46090344Y-72415863D02*
X46185582Y-72368244D01*
X46185582Y-72368244D02*
X46280820Y-72368244D01*
X46280820Y-72368244D02*
X46376058Y-72415863D01*
X46376058Y-72415863D02*
X46423677Y-72511101D01*
X46423677Y-72511101D02*
X46423677Y-72749196D01*
X46423677Y-72749196D02*
X46471296Y-72844434D01*
X46709391Y-73749196D02*
X45899867Y-73749196D01*
X45899867Y-73749196D02*
X45804629Y-73701577D01*
X45804629Y-73701577D02*
X45757010Y-73653958D01*
X45757010Y-73653958D02*
X45709391Y-73558720D01*
X45709391Y-73558720D02*
X45709391Y-73415863D01*
X45709391Y-73415863D02*
X45757010Y-73320625D01*
X46090344Y-73749196D02*
X46042724Y-73653958D01*
X46042724Y-73653958D02*
X46042724Y-73463482D01*
X46042724Y-73463482D02*
X46090344Y-73368244D01*
X46090344Y-73368244D02*
X46137963Y-73320625D01*
X46137963Y-73320625D02*
X46233201Y-73273006D01*
X46233201Y-73273006D02*
X46518915Y-73273006D01*
X46518915Y-73273006D02*
X46614153Y-73320625D01*
X46614153Y-73320625D02*
X46661772Y-73368244D01*
X46661772Y-73368244D02*
X46709391Y-73463482D01*
X46709391Y-73463482D02*
X46709391Y-73653958D01*
X46709391Y-73653958D02*
X46661772Y-73749196D01*
X46709391Y-74225387D02*
X46042724Y-74225387D01*
X46614153Y-74225387D02*
X46661772Y-74273006D01*
X46661772Y-74273006D02*
X46709391Y-74368244D01*
X46709391Y-74368244D02*
X46709391Y-74511101D01*
X46709391Y-74511101D02*
X46661772Y-74606339D01*
X46661772Y-74606339D02*
X46566534Y-74653958D01*
X46566534Y-74653958D02*
X46042724Y-74653958D01*
X46042724Y-75273006D02*
X46090344Y-75177768D01*
X46090344Y-75177768D02*
X46137963Y-75130149D01*
X46137963Y-75130149D02*
X46233201Y-75082530D01*
X46233201Y-75082530D02*
X46518915Y-75082530D01*
X46518915Y-75082530D02*
X46614153Y-75130149D01*
X46614153Y-75130149D02*
X46661772Y-75177768D01*
X46661772Y-75177768D02*
X46709391Y-75273006D01*
X46709391Y-75273006D02*
X46709391Y-75415863D01*
X46709391Y-75415863D02*
X46661772Y-75511101D01*
X46661772Y-75511101D02*
X46614153Y-75558720D01*
X46614153Y-75558720D02*
X46518915Y-75606339D01*
X46518915Y-75606339D02*
X46233201Y-75606339D01*
X46233201Y-75606339D02*
X46137963Y-75558720D01*
X46137963Y-75558720D02*
X46090344Y-75511101D01*
X46090344Y-75511101D02*
X46042724Y-75415863D01*
X46042724Y-75415863D02*
X46042724Y-75273006D01*
X46090344Y-75987292D02*
X46042724Y-76082530D01*
X46042724Y-76082530D02*
X46042724Y-76273006D01*
X46042724Y-76273006D02*
X46090344Y-76368244D01*
X46090344Y-76368244D02*
X46185582Y-76415863D01*
X46185582Y-76415863D02*
X46233201Y-76415863D01*
X46233201Y-76415863D02*
X46328439Y-76368244D01*
X46328439Y-76368244D02*
X46376058Y-76273006D01*
X46376058Y-76273006D02*
X46376058Y-76130149D01*
X46376058Y-76130149D02*
X46423677Y-76034911D01*
X46423677Y-76034911D02*
X46518915Y-75987292D01*
X46518915Y-75987292D02*
X46566534Y-75987292D01*
X46566534Y-75987292D02*
X46661772Y-76034911D01*
X46661772Y-76034911D02*
X46709391Y-76130149D01*
X46709391Y-76130149D02*
X46709391Y-76273006D01*
X46709391Y-76273006D02*
X46661772Y-76368244D01*
X46709391Y-76701578D02*
X46709391Y-77082530D01*
X47042724Y-76844435D02*
X46185582Y-76844435D01*
X46185582Y-76844435D02*
X46090344Y-76892054D01*
X46090344Y-76892054D02*
X46042724Y-76987292D01*
X46042724Y-76987292D02*
X46042724Y-77082530D01*
X46042724Y-77415864D02*
X46709391Y-77415864D01*
X47042724Y-77415864D02*
X46995105Y-77368245D01*
X46995105Y-77368245D02*
X46947486Y-77415864D01*
X46947486Y-77415864D02*
X46995105Y-77463483D01*
X46995105Y-77463483D02*
X47042724Y-77415864D01*
X47042724Y-77415864D02*
X46947486Y-77415864D01*
X46090344Y-78320625D02*
X46042724Y-78225387D01*
X46042724Y-78225387D02*
X46042724Y-78034911D01*
X46042724Y-78034911D02*
X46090344Y-77939673D01*
X46090344Y-77939673D02*
X46137963Y-77892054D01*
X46137963Y-77892054D02*
X46233201Y-77844435D01*
X46233201Y-77844435D02*
X46518915Y-77844435D01*
X46518915Y-77844435D02*
X46614153Y-77892054D01*
X46614153Y-77892054D02*
X46661772Y-77939673D01*
X46661772Y-77939673D02*
X46709391Y-78034911D01*
X46709391Y-78034911D02*
X46709391Y-78225387D01*
X46709391Y-78225387D02*
X46661772Y-78320625D01*
X47042724Y-79368245D02*
X47042724Y-79939673D01*
X46042724Y-79653959D02*
X47042724Y-79653959D01*
X46090344Y-80653959D02*
X46042724Y-80558721D01*
X46042724Y-80558721D02*
X46042724Y-80368245D01*
X46042724Y-80368245D02*
X46090344Y-80273007D01*
X46090344Y-80273007D02*
X46185582Y-80225388D01*
X46185582Y-80225388D02*
X46566534Y-80225388D01*
X46566534Y-80225388D02*
X46661772Y-80273007D01*
X46661772Y-80273007D02*
X46709391Y-80368245D01*
X46709391Y-80368245D02*
X46709391Y-80558721D01*
X46709391Y-80558721D02*
X46661772Y-80653959D01*
X46661772Y-80653959D02*
X46566534Y-80701578D01*
X46566534Y-80701578D02*
X46471296Y-80701578D01*
X46471296Y-80701578D02*
X46376058Y-80225388D01*
X46090344Y-81082531D02*
X46042724Y-81177769D01*
X46042724Y-81177769D02*
X46042724Y-81368245D01*
X46042724Y-81368245D02*
X46090344Y-81463483D01*
X46090344Y-81463483D02*
X46185582Y-81511102D01*
X46185582Y-81511102D02*
X46233201Y-81511102D01*
X46233201Y-81511102D02*
X46328439Y-81463483D01*
X46328439Y-81463483D02*
X46376058Y-81368245D01*
X46376058Y-81368245D02*
X46376058Y-81225388D01*
X46376058Y-81225388D02*
X46423677Y-81130150D01*
X46423677Y-81130150D02*
X46518915Y-81082531D01*
X46518915Y-81082531D02*
X46566534Y-81082531D01*
X46566534Y-81082531D02*
X46661772Y-81130150D01*
X46661772Y-81130150D02*
X46709391Y-81225388D01*
X46709391Y-81225388D02*
X46709391Y-81368245D01*
X46709391Y-81368245D02*
X46661772Y-81463483D01*
X46709391Y-81796817D02*
X46709391Y-82177769D01*
X47042724Y-81939674D02*
X46185582Y-81939674D01*
X46185582Y-81939674D02*
X46090344Y-81987293D01*
X46090344Y-81987293D02*
X46042724Y-82082531D01*
X46042724Y-82082531D02*
X46042724Y-82177769D01*
X46090344Y-82892055D02*
X46042724Y-82796817D01*
X46042724Y-82796817D02*
X46042724Y-82606341D01*
X46042724Y-82606341D02*
X46090344Y-82511103D01*
X46090344Y-82511103D02*
X46185582Y-82463484D01*
X46185582Y-82463484D02*
X46566534Y-82463484D01*
X46566534Y-82463484D02*
X46661772Y-82511103D01*
X46661772Y-82511103D02*
X46709391Y-82606341D01*
X46709391Y-82606341D02*
X46709391Y-82796817D01*
X46709391Y-82796817D02*
X46661772Y-82892055D01*
X46661772Y-82892055D02*
X46566534Y-82939674D01*
X46566534Y-82939674D02*
X46471296Y-82939674D01*
X46471296Y-82939674D02*
X46376058Y-82463484D01*
X46042724Y-83368246D02*
X46709391Y-83368246D01*
X46518915Y-83368246D02*
X46614153Y-83415865D01*
X46614153Y-83415865D02*
X46661772Y-83463484D01*
X46661772Y-83463484D02*
X46709391Y-83558722D01*
X46709391Y-83558722D02*
X46709391Y-83653960D01*
X44432780Y-70939673D02*
X45099447Y-70939673D01*
X44908971Y-70939673D02*
X45004209Y-70987292D01*
X45004209Y-70987292D02*
X45051828Y-71034911D01*
X45051828Y-71034911D02*
X45099447Y-71130149D01*
X45099447Y-71130149D02*
X45099447Y-71225387D01*
X44480400Y-71939673D02*
X44432780Y-71844435D01*
X44432780Y-71844435D02*
X44432780Y-71653959D01*
X44432780Y-71653959D02*
X44480400Y-71558721D01*
X44480400Y-71558721D02*
X44575638Y-71511102D01*
X44575638Y-71511102D02*
X44956590Y-71511102D01*
X44956590Y-71511102D02*
X45051828Y-71558721D01*
X45051828Y-71558721D02*
X45099447Y-71653959D01*
X45099447Y-71653959D02*
X45099447Y-71844435D01*
X45099447Y-71844435D02*
X45051828Y-71939673D01*
X45051828Y-71939673D02*
X44956590Y-71987292D01*
X44956590Y-71987292D02*
X44861352Y-71987292D01*
X44861352Y-71987292D02*
X44766114Y-71511102D01*
X45099447Y-72320626D02*
X44432780Y-72558721D01*
X44432780Y-72558721D02*
X45099447Y-72796816D01*
X45337542Y-73892055D02*
X45385161Y-73939674D01*
X45385161Y-73939674D02*
X45432780Y-74034912D01*
X45432780Y-74034912D02*
X45432780Y-74273007D01*
X45432780Y-74273007D02*
X45385161Y-74368245D01*
X45385161Y-74368245D02*
X45337542Y-74415864D01*
X45337542Y-74415864D02*
X45242304Y-74463483D01*
X45242304Y-74463483D02*
X45147066Y-74463483D01*
X45147066Y-74463483D02*
X45004209Y-74415864D01*
X45004209Y-74415864D02*
X44432780Y-73844436D01*
X44432780Y-73844436D02*
X44432780Y-74463483D01*
X44528019Y-74892055D02*
X44480400Y-74939674D01*
X44480400Y-74939674D02*
X44432780Y-74892055D01*
X44432780Y-74892055D02*
X44480400Y-74844436D01*
X44480400Y-74844436D02*
X44528019Y-74892055D01*
X44528019Y-74892055D02*
X44432780Y-74892055D01*
X45432780Y-75558721D02*
X45432780Y-75653959D01*
X45432780Y-75653959D02*
X45385161Y-75749197D01*
X45385161Y-75749197D02*
X45337542Y-75796816D01*
X45337542Y-75796816D02*
X45242304Y-75844435D01*
X45242304Y-75844435D02*
X45051828Y-75892054D01*
X45051828Y-75892054D02*
X44813733Y-75892054D01*
X44813733Y-75892054D02*
X44623257Y-75844435D01*
X44623257Y-75844435D02*
X44528019Y-75796816D01*
X44528019Y-75796816D02*
X44480400Y-75749197D01*
X44480400Y-75749197D02*
X44432780Y-75653959D01*
X44432780Y-75653959D02*
X44432780Y-75558721D01*
X44432780Y-75558721D02*
X44480400Y-75463483D01*
X44480400Y-75463483D02*
X44528019Y-75415864D01*
X44528019Y-75415864D02*
X44623257Y-75368245D01*
X44623257Y-75368245D02*
X44813733Y-75320626D01*
X44813733Y-75320626D02*
X45051828Y-75320626D01*
X45051828Y-75320626D02*
X45242304Y-75368245D01*
X45242304Y-75368245D02*
X45337542Y-75415864D01*
X45337542Y-75415864D02*
X45385161Y-75463483D01*
X45385161Y-75463483D02*
X45432780Y-75558721D01*
D12*
%TO.P,J5,1,Pin_1*%
%TO.N,unconnected-(J5-Pin_1-Pad1)*%
X109760000Y-63950000D03*
D13*
%TO.P,J5,2,Pin_2*%
%TO.N,GND*%
X109760000Y-68150000D03*
%TO.P,J5,3,Pin_3*%
%TO.N,unconnected-(J5-Pin_3-Pad3)*%
X109760000Y-72350000D03*
%TO.P,J5,4,Pin_4*%
%TO.N,/TX_MASTER*%
X109760000Y-76550000D03*
%TO.P,J5,5,Pin_5*%
%TO.N,unconnected-(J5-Pin_5-Pad5)*%
X109760000Y-80750000D03*
%TO.P,J5,6,Pin_6*%
%TO.N,GND*%
X104260000Y-63950000D03*
%TO.P,J5,7,Pin_7*%
%TO.N,unconnected-(J5-Pin_7-Pad7)*%
X104260000Y-68150000D03*
%TO.P,J5,8,Pin_8*%
%TO.N,unconnected-(J5-Pin_8-Pad8)*%
X104260000Y-72350000D03*
%TO.P,J5,9,Pin_9*%
%TO.N,unconnected-(J5-Pin_9-Pad9)*%
X104260000Y-76550000D03*
%TO.P,J5,10,Pin_10*%
%TO.N,unconnected-(J5-Pin_10-Pad10)*%
X104260000Y-80750000D03*
%TD*%
D14*
%TO.P,C12,1*%
%TO.N,+3V3*%
X79600000Y-50725000D03*
%TO.P,C12,2*%
%TO.N,GND*%
X79600000Y-48825000D03*
%TD*%
D15*
%TO.P,C8,1*%
%TO.N,+5V*%
X79500000Y-38840000D03*
%TO.P,C8,2*%
%TO.N,GND*%
X79500000Y-40390000D03*
%TD*%
D16*
%TO.P,R5,1*%
%TO.N,/RX_SNIFFER*%
X83565000Y-66940000D03*
%TO.P,R5,2*%
%TO.N,/TX1*%
X81915000Y-66940000D03*
%TD*%
D17*
%TO.P,C2,1*%
%TO.N,/RX0*%
X93055000Y-72275000D03*
%TO.P,C2,2*%
%TO.N,GND*%
X93055000Y-70725000D03*
%TD*%
D18*
%TO.P,R10,1*%
%TO.N,+3V3*%
X84385000Y-71755000D03*
%TO.P,R10,2*%
%TO.N,/Button2*%
X84385000Y-73405000D03*
%TD*%
D16*
%TO.P,R8,1*%
%TO.N,/PICO_SCL*%
X88360000Y-61835000D03*
%TO.P,R8,2*%
%TO.N,+3V3*%
X86710000Y-61835000D03*
%TD*%
D18*
%TO.P,R9,1*%
%TO.N,+3V3*%
X86960000Y-71755000D03*
%TO.P,R9,2*%
%TO.N,/Button1*%
X86960000Y-73405000D03*
%TD*%
D19*
%TO.P,C9,1*%
%TO.N,/Button1*%
X89135000Y-77175000D03*
%TO.P,C9,2*%
%TO.N,GND*%
X91035000Y-77175000D03*
%TD*%
D20*
%TO.P,D1,1,A*%
%TO.N,GND*%
X90987500Y-72890000D03*
%TO.P,D1,2,K*%
%TO.N,+3V3*%
X90987500Y-70990000D03*
%TO.P,D1,3,COM*%
%TO.N,/RX0*%
X88712500Y-71940000D03*
%TD*%
D21*
%TO.P,J7,1,Pin_1*%
%TO.N,GND*%
X88300000Y-48010000D03*
D22*
%TO.P,J7,2,Pin_2*%
%TO.N,+5V*%
X88300000Y-50550000D03*
%TO.P,J7,3,Pin_3*%
%TO.N,/LCD_SDA*%
X88300000Y-53090000D03*
%TO.P,J7,4,Pin_4*%
%TO.N,/LCD_SCL*%
X88300000Y-55630000D03*
%TD*%
D21*
%TO.P,J2,1,Pin_1*%
%TO.N,/Button2*%
X85785000Y-80235000D03*
D22*
%TO.P,J2,2,Pin_2*%
%TO.N,GND*%
X85785000Y-82775000D03*
%TD*%
D17*
%TO.P,C4,1*%
%TO.N,+3V3*%
X86830000Y-60210000D03*
%TO.P,C4,2*%
%TO.N,GND*%
X86830000Y-58660000D03*
%TD*%
D21*
%TO.P,J6,1,Pin_1*%
%TO.N,+3V3*%
X82650000Y-51175000D03*
D22*
%TO.P,J6,2,Pin_2*%
%TO.N,GND*%
X82650000Y-48635000D03*
%TD*%
D20*
%TO.P,D2,1,A*%
%TO.N,GND*%
X90987500Y-69050000D03*
%TO.P,D2,2,K*%
%TO.N,+3V3*%
X90987500Y-67150000D03*
%TO.P,D2,3,COM*%
%TO.N,/TX0*%
X88712500Y-68100000D03*
%TD*%
D16*
%TO.P,R7,1*%
%TO.N,/PICO_SDA*%
X91760000Y-61335000D03*
%TO.P,R7,2*%
%TO.N,+3V3*%
X90110000Y-61335000D03*
%TD*%
D23*
%TO.P,R1,1*%
%TO.N,/LCD_SCL*%
X85525000Y-55650000D03*
%TO.P,R1,2*%
%TO.N,+5V*%
X85525000Y-54000000D03*
%TD*%
D17*
%TO.P,C3,1*%
%TO.N,/TX0*%
X93660000Y-68590000D03*
%TO.P,C3,2*%
%TO.N,GND*%
X93660000Y-67040000D03*
%TD*%
D24*
%TO.P,U1,1,B2*%
%TO.N,/LCD_SCL*%
X88580000Y-58445000D03*
%TO.P,U1,2,GND*%
%TO.N,GND*%
X88580000Y-58945000D03*
%TO.P,U1,3,VCCA*%
%TO.N,+3V3*%
X88580000Y-59445000D03*
%TO.P,U1,4,A2*%
%TO.N,/PICO_SCL*%
X88580000Y-59945000D03*
%TO.P,U1,5,A1*%
%TO.N,/PICO_SDA*%
X91680000Y-59945000D03*
%TO.P,U1,6,OE*%
%TO.N,+3V3*%
X91680000Y-59445000D03*
%TO.P,U1,7,VCCB*%
%TO.N,+5V*%
X91680000Y-58945000D03*
%TO.P,U1,8,B1*%
%TO.N,/LCD_SDA*%
X91680000Y-58445000D03*
%TD*%
D25*
%TO.P,U3,1,Vin*%
%TO.N,/+VIN_PROTECTED*%
X91190000Y-40330000D03*
D26*
%TO.P,U3,2,GND*%
%TO.N,GND*%
X88650000Y-40330000D03*
%TO.P,U3,3,Vout*%
%TO.N,+5V*%
X86110000Y-40330000D03*
%TD*%
D21*
%TO.P,J8,1,Pin_1*%
%TO.N,GND*%
X96980000Y-56800000D03*
D22*
%TO.P,J8,2,Pin_2*%
%TO.N,+24V*%
X96980000Y-59340000D03*
%TO.P,J8,3,Pin_3*%
%TO.N,/RX_SNIFFER*%
X96980000Y-61880000D03*
%TO.P,J8,4,Pin_4*%
%TO.N,/TX_SNIFFER*%
X96980000Y-64420000D03*
%TD*%
D12*
%TO.P,J4,1,Pin_1*%
%TO.N,unconnected-(J4-Pin_1-Pad1)*%
X109760000Y-47430000D03*
D13*
%TO.P,J4,2,Pin_2*%
%TO.N,unconnected-(J4-Pin_2-Pad2)*%
X109760000Y-51630000D03*
%TO.P,J4,3,Pin_3*%
%TO.N,GND*%
X109760000Y-55830000D03*
%TO.P,J4,4,Pin_4*%
%TO.N,unconnected-(J4-Pin_4-Pad4)*%
X104260000Y-47430000D03*
%TO.P,J4,5,Pin_5*%
%TO.N,/RX_MASTER*%
X104260000Y-51630000D03*
%TO.P,J4,6,Pin_6*%
%TO.N,+24V*%
X104260000Y-55830000D03*
%TD*%
D18*
%TO.P,R4,1*%
%TO.N,/RX_MASTER*%
X95400000Y-66950000D03*
%TO.P,R4,2*%
%TO.N,/TX0*%
X95400000Y-68600000D03*
%TD*%
%TO.P,R11,1*%
%TO.N,+3V3*%
X81810000Y-71755000D03*
%TO.P,R11,2*%
%TO.N,/Button3*%
X81810000Y-73405000D03*
%TD*%
D16*
%TO.P,R3,1*%
%TO.N,/TX_MASTER*%
X96375000Y-72350000D03*
%TO.P,R3,2*%
%TO.N,/RX0*%
X94725000Y-72350000D03*
%TD*%
D27*
%TO.P,C5,1*%
%TO.N,/+VIN_PROTECTED*%
X96650000Y-38925000D03*
%TO.P,C5,2*%
%TO.N,GND*%
X96650000Y-41875000D03*
%TD*%
D15*
%TO.P,C1,1*%
%TO.N,+5V*%
X93750000Y-58865000D03*
%TO.P,C1,2*%
%TO.N,GND*%
X93750000Y-60415000D03*
%TD*%
D23*
%TO.P,R2,1*%
%TO.N,/LCD_SDA*%
X90930000Y-52335000D03*
%TO.P,R2,2*%
%TO.N,+5V*%
X90930000Y-50685000D03*
%TD*%
D17*
%TO.P,C6,1*%
%TO.N,+3V3*%
X77290000Y-49395000D03*
%TO.P,C6,2*%
%TO.N,GND*%
X77290000Y-47845000D03*
%TD*%
D21*
%TO.P,J3,1,Pin_1*%
%TO.N,/Button3*%
X81485000Y-80235000D03*
D22*
%TO.P,J3,2,Pin_2*%
%TO.N,GND*%
X81485000Y-82775000D03*
%TD*%
D19*
%TO.P,C11,1*%
%TO.N,/Button3*%
X80665000Y-77145000D03*
%TO.P,C11,2*%
%TO.N,GND*%
X82565000Y-77145000D03*
%TD*%
D28*
%TO.P,L1,1,1*%
%TO.N,Net-(D3-K)*%
X98075000Y-49275000D03*
%TO.P,L1,2,2*%
%TO.N,/+VIN_PROTECTED*%
X98075000Y-45125000D03*
%TD*%
D29*
%TO.P,C7,1*%
%TO.N,+5V*%
X81370000Y-38850000D03*
%TO.P,C7,2*%
%TO.N,GND*%
X81370000Y-40750000D03*
%TD*%
D22*
%TO.P,U2,1,GPIO0*%
%TO.N,unconnected-(U2-GPIO0-Pad1)_1*%
X55085000Y-39440000D03*
D30*
%TO.N,unconnected-(U2-GPIO0-Pad1)*%
X54185000Y-39440000D03*
D22*
%TO.P,U2,2,GPIO1*%
%TO.N,unconnected-(U2-GPIO1-Pad2)_1*%
X55085000Y-41980000D03*
D30*
%TO.N,unconnected-(U2-GPIO1-Pad2)*%
X54185000Y-41980000D03*
D21*
%TO.P,U2,3,GND*%
%TO.N,GND*%
X55085000Y-44520000D03*
D30*
X54185000Y-44520000D03*
D22*
%TO.P,U2,4,GPIO2*%
%TO.N,unconnected-(U2-GPIO2-Pad4)*%
X55085000Y-47060000D03*
D30*
%TO.N,unconnected-(U2-GPIO2-Pad4)_1*%
X54185000Y-47060000D03*
D22*
%TO.P,U2,5,GPIO3*%
%TO.N,unconnected-(U2-GPIO3-Pad5)*%
X55085000Y-49600000D03*
D30*
%TO.N,unconnected-(U2-GPIO3-Pad5)_1*%
X54185000Y-49600000D03*
D22*
%TO.P,U2,6,GPIO4*%
%TO.N,unconnected-(U2-GPIO4-Pad6)*%
X55085000Y-52140000D03*
D30*
%TO.N,unconnected-(U2-GPIO4-Pad6)_1*%
X54185000Y-52140000D03*
D22*
%TO.P,U2,7,GPIO5*%
%TO.N,unconnected-(U2-GPIO5-Pad7)_1*%
X55085000Y-54680000D03*
D30*
%TO.N,unconnected-(U2-GPIO5-Pad7)*%
X54185000Y-54680000D03*
D21*
%TO.P,U2,8,GND*%
%TO.N,GND*%
X55085000Y-57220000D03*
D30*
X54185000Y-57220000D03*
D22*
%TO.P,U2,9,GPIO6*%
%TO.N,unconnected-(U2-GPIO6-Pad9)_1*%
X55085000Y-59760000D03*
D30*
%TO.N,unconnected-(U2-GPIO6-Pad9)*%
X54185000Y-59760000D03*
D22*
%TO.P,U2,10,GPIO7*%
%TO.N,unconnected-(U2-GPIO7-Pad10)_1*%
X55085000Y-62300000D03*
D30*
%TO.N,unconnected-(U2-GPIO7-Pad10)*%
X54185000Y-62300000D03*
D22*
%TO.P,U2,11,GPIO8*%
%TO.N,/TX1*%
X55085000Y-64840000D03*
D30*
X54185000Y-64840000D03*
D22*
%TO.P,U2,12,GPIO9*%
%TO.N,/RX1*%
X55085000Y-67380000D03*
D30*
X54185000Y-67380000D03*
D21*
%TO.P,U2,13,GND*%
%TO.N,GND*%
X55085000Y-69920000D03*
D30*
X54185000Y-69920000D03*
D22*
%TO.P,U2,14,GPIO10*%
%TO.N,unconnected-(U2-GPIO10-Pad14)*%
X55085000Y-72460000D03*
D30*
%TO.N,unconnected-(U2-GPIO10-Pad14)_1*%
X54185000Y-72460000D03*
D22*
%TO.P,U2,15,GPIO11*%
%TO.N,unconnected-(U2-GPIO11-Pad15)_1*%
X55085000Y-75000000D03*
D30*
%TO.N,unconnected-(U2-GPIO11-Pad15)*%
X54185000Y-75000000D03*
D22*
%TO.P,U2,16,GPIO12*%
%TO.N,unconnected-(U2-GPIO12-Pad16)_1*%
X55085000Y-77540000D03*
D30*
%TO.N,unconnected-(U2-GPIO12-Pad16)*%
X54185000Y-77540000D03*
D22*
%TO.P,U2,17,GPIO13*%
%TO.N,unconnected-(U2-GPIO13-Pad17)*%
X55085000Y-80080000D03*
D30*
%TO.N,unconnected-(U2-GPIO13-Pad17)_1*%
X54185000Y-80080000D03*
D21*
%TO.P,U2,18,GND*%
%TO.N,GND*%
X55085000Y-82620000D03*
D30*
X54185000Y-82620000D03*
D22*
%TO.P,U2,19,GPIO14*%
%TO.N,unconnected-(U2-GPIO14-Pad19)*%
X55085000Y-85160000D03*
D30*
%TO.N,unconnected-(U2-GPIO14-Pad19)_1*%
X54185000Y-85160000D03*
D22*
%TO.P,U2,20,GPIO15*%
%TO.N,unconnected-(U2-GPIO15-Pad20)_1*%
X55085000Y-87700000D03*
D30*
%TO.N,unconnected-(U2-GPIO15-Pad20)*%
X54185000Y-87700000D03*
D22*
%TO.P,U2,21,GPIO16*%
%TO.N,/TX0*%
X72865000Y-87700000D03*
D30*
X73765000Y-87700000D03*
D22*
%TO.P,U2,22,GPIO17*%
%TO.N,/RX0*%
X72865000Y-85160000D03*
D30*
X73765000Y-85160000D03*
D21*
%TO.P,U2,23,GND*%
%TO.N,GND*%
X72865000Y-82620000D03*
D30*
X73765000Y-82620000D03*
D22*
%TO.P,U2,24,GPIO18*%
%TO.N,/Button3*%
X72865000Y-80080000D03*
D30*
X73765000Y-80080000D03*
D22*
%TO.P,U2,25,GPIO19*%
%TO.N,/Button2*%
X72865000Y-77540000D03*
D30*
X73765000Y-77540000D03*
D22*
%TO.P,U2,26,GPIO20*%
%TO.N,/Button1*%
X72865000Y-75000000D03*
D30*
X73765000Y-75000000D03*
D22*
%TO.P,U2,27,GPIO21*%
%TO.N,unconnected-(U2-GPIO21-Pad27)_1*%
X72865000Y-72460000D03*
D30*
%TO.N,unconnected-(U2-GPIO21-Pad27)*%
X73765000Y-72460000D03*
D21*
%TO.P,U2,28,GND*%
%TO.N,GND*%
X72865000Y-69920000D03*
D30*
X73765000Y-69920000D03*
D22*
%TO.P,U2,29,GPIO22*%
%TO.N,unconnected-(U2-GPIO22-Pad29)*%
X72865000Y-67380000D03*
D30*
%TO.N,unconnected-(U2-GPIO22-Pad29)_1*%
X73765000Y-67380000D03*
D22*
%TO.P,U2,30,RUN*%
%TO.N,unconnected-(U2-RUN-Pad30)_1*%
X72865000Y-64840000D03*
D30*
%TO.N,unconnected-(U2-RUN-Pad30)*%
X73765000Y-64840000D03*
D22*
%TO.P,U2,31,GPIO26_ADC0*%
%TO.N,/PICO_SDA*%
X72865000Y-62300000D03*
D30*
X73765000Y-62300000D03*
D22*
%TO.P,U2,32,GPIO27_ADC1*%
%TO.N,/PICO_SCL*%
X72865000Y-59760000D03*
D30*
X73765000Y-59760000D03*
D21*
%TO.P,U2,33,AGND*%
%TO.N,GND*%
X72865000Y-57220000D03*
D30*
X73765000Y-57220000D03*
D22*
%TO.P,U2,34,GPIO28_ADC2*%
%TO.N,unconnected-(U2-GPIO28_ADC2-Pad34)*%
X72865000Y-54680000D03*
D30*
%TO.N,unconnected-(U2-GPIO28_ADC2-Pad34)_1*%
X73765000Y-54680000D03*
D22*
%TO.P,U2,35,ADC_VREF*%
%TO.N,unconnected-(U2-ADC_VREF-Pad35)_1*%
X72865000Y-52140000D03*
D30*
%TO.N,unconnected-(U2-ADC_VREF-Pad35)*%
X73765000Y-52140000D03*
D22*
%TO.P,U2,36,3V3*%
%TO.N,+3V3*%
X72865000Y-49600000D03*
D30*
X73765000Y-49600000D03*
D22*
%TO.P,U2,37,3V3_EN*%
%TO.N,unconnected-(U2-3V3_EN-Pad37)*%
X72865000Y-47060000D03*
D30*
%TO.N,unconnected-(U2-3V3_EN-Pad37)_1*%
X73765000Y-47060000D03*
D21*
%TO.P,U2,38,GND*%
%TO.N,GND*%
X72865000Y-44520000D03*
D30*
X73765000Y-44520000D03*
D22*
%TO.P,U2,39,VSYS*%
%TO.N,unconnected-(U2-VSYS-Pad39)_1*%
X72865000Y-41980000D03*
D30*
%TO.N,unconnected-(U2-VSYS-Pad39)*%
X73765000Y-41980000D03*
D22*
%TO.P,U2,40,VBUS*%
%TO.N,+5V*%
X72865000Y-39440000D03*
D30*
X73765000Y-39440000D03*
D22*
%TO.P,U2,41,SWCLK*%
%TO.N,unconnected-(U2-SWCLK-Pad41)*%
X61435000Y-87470000D03*
D31*
%TO.N,unconnected-(U2-SWCLK-Pad41)_1*%
X61435000Y-88370000D03*
D21*
%TO.P,U2,42,GND*%
%TO.N,GND*%
X63975000Y-87470000D03*
D31*
X63975000Y-88370000D03*
D22*
%TO.P,U2,43,SWDIO*%
%TO.N,unconnected-(U2-SWDIO-Pad43)_1*%
X66515000Y-87470000D03*
D31*
%TO.N,unconnected-(U2-SWDIO-Pad43)*%
X66515000Y-88370000D03*
%TD*%
D32*
%TO.P,D4,1,A1*%
%TO.N,Net-(D3-K)*%
X99825000Y-52800000D03*
%TO.P,D4,2,A2*%
%TO.N,GND*%
X95825000Y-52800000D03*
%TD*%
D33*
%TO.P,D3,1,K*%
%TO.N,Net-(D3-K)*%
X100425000Y-55425000D03*
%TO.P,D3,2,A*%
%TO.N,+24V*%
X100425000Y-58725000D03*
%TD*%
D21*
%TO.P,J1,1,Pin_1*%
%TO.N,/Button1*%
X90125000Y-80235000D03*
D22*
%TO.P,J1,2,Pin_2*%
%TO.N,GND*%
X90125000Y-82775000D03*
%TD*%
D19*
%TO.P,C10,1*%
%TO.N,/Button2*%
X84715000Y-77235000D03*
%TO.P,C10,2*%
%TO.N,GND*%
X86615000Y-77235000D03*
%TD*%
D16*
%TO.P,R6,1*%
%TO.N,/TX_SNIFFER*%
X83545000Y-68770000D03*
%TO.P,R6,2*%
%TO.N,/RX1*%
X81895000Y-68770000D03*
%TD*%
D34*
%TO.N,/RX_SNIFFER*%
X84667000Y-66920000D03*
%TO.N,/TX_SNIFFER*%
X84700000Y-68780000D03*
%TO.N,GND*%
X90970000Y-69850000D03*
X96600000Y-42875000D03*
X88430000Y-42950000D03*
X79640000Y-47920000D03*
X96630000Y-54060000D03*
X83410000Y-77170000D03*
X86240000Y-42920000D03*
X85970000Y-58570000D03*
X95060000Y-54060000D03*
X93090000Y-69870000D03*
X92180000Y-42950000D03*
X93770000Y-61210000D03*
X93650000Y-66160000D03*
X87480000Y-77240000D03*
X91900000Y-77180000D03*
X97375000Y-42875000D03*
X79470000Y-41175000D03*
X77300000Y-47025000D03*
X91020000Y-73910000D03*
X80950000Y-41600000D03*
X90340000Y-42970000D03*
X79610000Y-42790000D03*
X95845000Y-54060000D03*
X81625000Y-41625000D03*
X95825000Y-42875000D03*
%TO.N,/PICO_SDA*%
X91625000Y-62415000D03*
X76080000Y-62300000D03*
%TO.N,/PICO_SCL*%
X87910000Y-63060000D03*
X75970000Y-59760000D03*
%TO.N,/Button2*%
X84910000Y-75690000D03*
X84380000Y-74340000D03*
%TO.N,/Button3*%
X79640000Y-76447031D03*
X81790000Y-74330000D03*
%TD*%
D35*
%TO.N,+5V*%
X91485000Y-58995000D02*
X91535000Y-58945000D01*
D36*
X93750000Y-58865000D02*
X93360000Y-58475000D01*
D37*
X84630000Y-38850000D02*
X86110000Y-40330000D01*
X86350000Y-50550000D02*
X85525000Y-49725000D01*
D36*
X93360000Y-58475000D02*
X93360000Y-52510000D01*
D37*
X86350000Y-50550000D02*
X85525000Y-51375000D01*
X81370000Y-38850000D02*
X84630000Y-38850000D01*
X85525000Y-49725000D02*
X85525000Y-44650000D01*
X78800000Y-43900000D02*
X76825000Y-41925000D01*
X85525000Y-51375000D02*
X85525000Y-54000000D01*
D36*
X90795000Y-50550000D02*
X90930000Y-50685000D01*
D37*
X84775000Y-43900000D02*
X78800000Y-43900000D01*
X76825000Y-39440000D02*
X77460000Y-39440000D01*
X76825000Y-41925000D02*
X76825000Y-39440000D01*
D36*
X93670000Y-58945000D02*
X91680000Y-58945000D01*
X88300000Y-50550000D02*
X90795000Y-50550000D01*
D37*
X88300000Y-50550000D02*
X86350000Y-50550000D01*
X77460000Y-39440000D02*
X78050000Y-38850000D01*
D36*
X93360000Y-52510000D02*
X91535000Y-50685000D01*
D37*
X78050000Y-38850000D02*
X81370000Y-38850000D01*
D36*
X91535000Y-50685000D02*
X90930000Y-50685000D01*
D37*
X85525000Y-44650000D02*
X84775000Y-43900000D01*
X72865000Y-39440000D02*
X76825000Y-39440000D01*
D36*
%TO.N,/RX_SNIFFER*%
X84667000Y-66920000D02*
X83585000Y-66920000D01*
X83585000Y-66920000D02*
X83565000Y-66940000D01*
D37*
%TO.N,+24V*%
X104260000Y-57715000D02*
X103250000Y-58725000D01*
X96980000Y-59340000D02*
X99810000Y-59340000D01*
X104260000Y-55830000D02*
X104260000Y-57715000D01*
X96980000Y-59340000D02*
X97200000Y-59560000D01*
X99810000Y-59340000D02*
X100425000Y-58725000D01*
X103250000Y-58725000D02*
X100425000Y-58725000D01*
D36*
%TO.N,+3V3*%
X90110000Y-59445000D02*
X91535000Y-59445000D01*
X87060000Y-60120000D02*
X87635000Y-59545000D01*
X72865000Y-49600000D02*
X74479000Y-49600000D01*
X79600000Y-50725000D02*
X82200000Y-50725000D01*
X77210000Y-49475000D02*
X72990000Y-49475000D01*
X87735000Y-59445000D02*
X87635000Y-59545000D01*
X86735000Y-60120000D02*
X87060000Y-60120000D01*
X78270000Y-49395000D02*
X79600000Y-50725000D01*
X90110000Y-61335000D02*
X90110000Y-59445000D01*
D38*
X90125000Y-66287500D02*
X90125000Y-65650000D01*
D36*
X88735000Y-59445000D02*
X87735000Y-59445000D01*
D38*
X90987500Y-70990000D02*
X88100000Y-70990000D01*
D36*
X82200000Y-50725000D02*
X82650000Y-51175000D01*
D38*
X90987500Y-67150000D02*
X90125000Y-66287500D01*
D39*
X90112818Y-61245000D02*
X90062818Y-61195000D01*
D36*
X88735000Y-59445000D02*
X90110000Y-59445000D01*
X77290000Y-49395000D02*
X77210000Y-49475000D01*
D38*
X88100000Y-70990000D02*
X87700000Y-70590000D01*
D36*
X86710000Y-60145000D02*
X86735000Y-60120000D01*
X86710000Y-61835000D02*
X86710000Y-60145000D01*
X77290000Y-49395000D02*
X78270000Y-49395000D01*
X72990000Y-49475000D02*
X72865000Y-49600000D01*
D35*
X87110000Y-60120000D02*
X87135000Y-60145000D01*
D36*
%TO.N,/TX_SNIFFER*%
X83825000Y-69050000D02*
X83545000Y-68770000D01*
X84430000Y-69050000D02*
X83825000Y-69050000D01*
X84700000Y-68780000D02*
X84430000Y-69050000D01*
%TO.N,/LCD_SCL*%
X88580000Y-58445000D02*
X88580000Y-55910000D01*
D39*
X88280000Y-55650000D02*
X88300000Y-55630000D01*
X85525000Y-55650000D02*
X88280000Y-55650000D01*
D36*
X88580000Y-55910000D02*
X88300000Y-55630000D01*
%TO.N,/LCD_SDA*%
X89055000Y-52335000D02*
X88300000Y-53090000D01*
X91680000Y-58445000D02*
X91680000Y-53085000D01*
X91680000Y-53085000D02*
X90930000Y-52335000D01*
X90930000Y-52335000D02*
X89055000Y-52335000D01*
%TO.N,/RX_MASTER*%
X106437000Y-53807000D02*
X104260000Y-51630000D01*
D39*
X105820000Y-51630000D02*
X104260000Y-51630000D01*
D36*
X98220000Y-66950000D02*
X106437000Y-58733000D01*
X106437000Y-58733000D02*
X106437000Y-53807000D01*
X95380000Y-66970000D02*
X95400000Y-66950000D01*
X95400000Y-66950000D02*
X98220000Y-66950000D01*
%TO.N,/TX_MASTER*%
X100690000Y-72350000D02*
X102950000Y-74610000D01*
X96375000Y-72350000D02*
X100690000Y-72350000D01*
X107970000Y-74610000D02*
X109910000Y-76550000D01*
X102950000Y-74610000D02*
X107970000Y-74610000D01*
%TO.N,/TX0*%
X89830000Y-87700000D02*
X95452000Y-82078000D01*
X93660000Y-68590000D02*
X95390000Y-68590000D01*
X95452000Y-82078000D02*
X95452000Y-68652000D01*
X72865000Y-87700000D02*
X89830000Y-87700000D01*
X88850000Y-68100000D02*
X91820000Y-68100000D01*
X95452000Y-68652000D02*
X95400000Y-68600000D01*
X95390000Y-68590000D02*
X95400000Y-68600000D01*
X91820000Y-68100000D02*
X92310000Y-68590000D01*
X92310000Y-68590000D02*
X93660000Y-68590000D01*
%TO.N,/RX0*%
X92720000Y-71940000D02*
X93055000Y-72275000D01*
X93055000Y-83385000D02*
X93055000Y-72275000D01*
X88850000Y-71940000D02*
X92720000Y-71940000D01*
X93055000Y-72275000D02*
X94650000Y-72275000D01*
X94650000Y-72275000D02*
X94725000Y-72350000D01*
X91280000Y-85160000D02*
X93055000Y-83385000D01*
X72865000Y-85160000D02*
X91280000Y-85160000D01*
%TO.N,/TX1*%
X61300000Y-66990000D02*
X70121000Y-66990000D01*
X59140000Y-64830000D02*
X61300000Y-66990000D01*
X71741000Y-68610000D02*
X78270000Y-68610000D01*
X55085000Y-64840000D02*
X58720000Y-64840000D01*
X58730000Y-64830000D02*
X59140000Y-64830000D01*
X70121000Y-66990000D02*
X71741000Y-68610000D01*
D39*
X58720000Y-64840000D02*
X58730000Y-64830000D01*
D36*
X79940000Y-66940000D02*
X81915000Y-66940000D01*
X78270000Y-68610000D02*
X79940000Y-66940000D01*
%TO.N,GND*%
X90970000Y-69850000D02*
X90970000Y-69067500D01*
D39*
X97375000Y-42600000D02*
X96650000Y-41875000D01*
D36*
X95060000Y-53565000D02*
X95825000Y-52800000D01*
D39*
X72865000Y-44520000D02*
X75370000Y-44520000D01*
X95825000Y-42700000D02*
X96650000Y-41875000D01*
D36*
X78270000Y-48825000D02*
X77290000Y-47845000D01*
X91035000Y-77175000D02*
X91895000Y-77175000D01*
X85970000Y-58570000D02*
X86735000Y-58570000D01*
X93090000Y-70690000D02*
X93055000Y-70725000D01*
D39*
X81010000Y-40390000D02*
X81370000Y-40750000D01*
D36*
X86615000Y-77235000D02*
X87475000Y-77235000D01*
X93770000Y-60435000D02*
X93750000Y-60415000D01*
X82650000Y-48635000D02*
X79790000Y-48635000D01*
D39*
X87535000Y-58945000D02*
X88635000Y-58945000D01*
X87160000Y-58570000D02*
X86735000Y-58570000D01*
D36*
X79790000Y-48635000D02*
X79600000Y-48825000D01*
X83385000Y-77145000D02*
X83410000Y-77170000D01*
D39*
X80950000Y-41600000D02*
X80950000Y-41170000D01*
X79640000Y-48785000D02*
X79600000Y-48825000D01*
D36*
X77300000Y-47025000D02*
X77300000Y-47835000D01*
D39*
X95825000Y-42875000D02*
X95825000Y-42700000D01*
D36*
X77300000Y-47835000D02*
X77290000Y-47845000D01*
D39*
X96600000Y-42875000D02*
X96600000Y-41925000D01*
D36*
X93090000Y-69870000D02*
X93090000Y-70690000D01*
X91020000Y-73910000D02*
X90987500Y-73877500D01*
D39*
X79470000Y-41175000D02*
X79470000Y-40420000D01*
D36*
X82565000Y-77145000D02*
X83385000Y-77145000D01*
D39*
X97375000Y-42875000D02*
X97375000Y-42600000D01*
D36*
X93660000Y-66170000D02*
X93660000Y-67040000D01*
X90987500Y-73877500D02*
X90987500Y-72890000D01*
D39*
X81625000Y-41625000D02*
X81625000Y-41005000D01*
D36*
X90970000Y-69067500D02*
X90987500Y-69050000D01*
D39*
X80950000Y-41170000D02*
X81370000Y-40750000D01*
X96600000Y-41925000D02*
X96650000Y-41875000D01*
D36*
X96630000Y-54060000D02*
X96630000Y-53605000D01*
D39*
X79470000Y-40420000D02*
X79500000Y-40390000D01*
D36*
X95845000Y-54060000D02*
X95845000Y-52820000D01*
X95845000Y-52820000D02*
X95825000Y-52800000D01*
X87475000Y-77235000D02*
X87480000Y-77240000D01*
X95060000Y-54060000D02*
X95060000Y-53565000D01*
D39*
X81625000Y-41005000D02*
X81370000Y-40750000D01*
X87535000Y-58945000D02*
X87160000Y-58570000D01*
D36*
X96630000Y-53605000D02*
X95825000Y-52800000D01*
D39*
X79640000Y-47920000D02*
X79640000Y-48785000D01*
D36*
X91895000Y-77175000D02*
X91900000Y-77180000D01*
X93650000Y-66160000D02*
X93660000Y-66170000D01*
X79600000Y-48825000D02*
X78270000Y-48825000D01*
X93770000Y-61210000D02*
X93770000Y-60435000D01*
%TO.N,/RX1*%
X77190000Y-71150000D02*
X79570000Y-68770000D01*
X69541000Y-68950000D02*
X71741000Y-71150000D01*
X79570000Y-68770000D02*
X81895000Y-68770000D01*
X71741000Y-71150000D02*
X77190000Y-71150000D01*
X55085000Y-67380000D02*
X58200000Y-67380000D01*
X59770000Y-68950000D02*
X69541000Y-68950000D01*
X58200000Y-67380000D02*
X59770000Y-68950000D01*
D39*
%TO.N,/PICO_SDA*%
X91835000Y-60245000D02*
X91835000Y-61245000D01*
D36*
X91625000Y-61470000D02*
X91760000Y-61335000D01*
X91625000Y-62415000D02*
X91625000Y-61455000D01*
D39*
X91535000Y-59945000D02*
X91835000Y-60245000D01*
D36*
X91640000Y-62430000D02*
X91625000Y-62415000D01*
X91625000Y-61455000D02*
X91835000Y-61245000D01*
X76080000Y-62300000D02*
X72865000Y-62300000D01*
%TO.N,/PICO_SCL*%
X88360000Y-61010000D02*
X88360000Y-60320000D01*
X88360000Y-61010000D02*
X88360000Y-62660000D01*
X88360000Y-62660000D02*
X87935000Y-63085000D01*
X88360000Y-60320000D02*
X88735000Y-59945000D01*
X88360000Y-61835000D02*
X88360000Y-61010000D01*
X75970000Y-59760000D02*
X72865000Y-59760000D01*
D39*
%TO.N,/Button1*%
X86960000Y-73405000D02*
X86960000Y-73750000D01*
D36*
X89135000Y-79245000D02*
X90125000Y-80235000D01*
X86970000Y-75000000D02*
X72865000Y-75000000D01*
X88210000Y-75000000D02*
X86970000Y-75000000D01*
X89135000Y-77175000D02*
X89135000Y-79245000D01*
X89135000Y-75925000D02*
X88210000Y-75000000D01*
D39*
X86960000Y-73750000D02*
X88210000Y-75000000D01*
D36*
X89135000Y-77175000D02*
X89135000Y-75925000D01*
%TO.N,/Button2*%
X84715000Y-79165000D02*
X85785000Y-80235000D01*
X84715000Y-77235000D02*
X84715000Y-76480062D01*
X77250000Y-77540000D02*
X72865000Y-77540000D01*
D39*
X84385000Y-74335000D02*
X84380000Y-74340000D01*
D36*
X84592469Y-76357531D02*
X84054969Y-75820031D01*
D39*
X84385000Y-73405000D02*
X84385000Y-74335000D01*
D36*
X84715000Y-77235000D02*
X84715000Y-79165000D01*
X84715000Y-76480062D02*
X84592469Y-76357531D01*
X78969969Y-75820031D02*
X77250000Y-77540000D01*
D39*
X84910000Y-75690000D02*
X84592469Y-76007531D01*
D36*
X80900000Y-75820031D02*
X78969969Y-75820031D01*
X84054969Y-75820031D02*
X80900000Y-75820031D01*
D39*
X84592469Y-76007531D02*
X84592469Y-76357531D01*
D36*
%TO.N,/Button3*%
X76970000Y-80080000D02*
X72865000Y-80080000D01*
X80665000Y-78280062D02*
X80665000Y-77145000D01*
D39*
X79640000Y-76447031D02*
X79640000Y-76880000D01*
D36*
X79905000Y-77145000D02*
X76970000Y-80080000D01*
X81485000Y-79100062D02*
X80665000Y-78280062D01*
D39*
X79640000Y-76880000D02*
X79905000Y-77145000D01*
D36*
X80665000Y-77145000D02*
X79905000Y-77145000D01*
D39*
X81810000Y-73405000D02*
X81810000Y-74310000D01*
D36*
X81485000Y-80235000D02*
X81485000Y-79100062D01*
D39*
X81810000Y-74310000D02*
X81790000Y-74330000D01*
D37*
%TO.N,Net-(D3-K)*%
X99810000Y-52785000D02*
X99825000Y-52800000D01*
X98075000Y-49275000D02*
X99810000Y-51010000D01*
X99825000Y-54825000D02*
X100425000Y-55425000D01*
X98100000Y-48895000D02*
X98100000Y-49045000D01*
X99810000Y-51010000D02*
X99810000Y-52785000D01*
X99825000Y-52800000D02*
X99825000Y-54825000D01*
X99920000Y-52580000D02*
X99860000Y-52640000D01*
%TO.N,/+VIN_PROTECTED*%
X92595000Y-38925000D02*
X91190000Y-40330000D01*
X98075000Y-45125000D02*
X99550000Y-45125000D01*
X96650000Y-38925000D02*
X92595000Y-38925000D01*
X98175000Y-38925000D02*
X96650000Y-38925000D01*
X99550000Y-40300000D02*
X98175000Y-38925000D01*
X99550000Y-45125000D02*
X99550000Y-40300000D01*
%TD*%
%TA.AperFunction,Conductor*%
%TO.N,GND*%
G36*
X97975978Y-37529902D02*
G01*
X98043002Y-37549640D01*
X98088715Y-37602480D01*
X98099880Y-37654022D01*
X98099545Y-38000620D01*
X98079796Y-38067640D01*
X98026947Y-38113344D01*
X97975545Y-38124500D01*
X92516155Y-38124500D01*
X92361510Y-38155261D01*
X92361498Y-38155264D01*
X92215827Y-38215602D01*
X92215814Y-38215609D01*
X92084711Y-38303210D01*
X92084707Y-38303213D01*
X91044741Y-39343181D01*
X90983418Y-39376666D01*
X90957060Y-39379500D01*
X90420247Y-39379500D01*
X90361770Y-39391131D01*
X90361769Y-39391132D01*
X90295447Y-39435447D01*
X90251132Y-39501769D01*
X90251131Y-39501770D01*
X90239500Y-39560247D01*
X90239500Y-41099752D01*
X90251131Y-41158229D01*
X90251132Y-41158230D01*
X90295447Y-41224552D01*
X90361769Y-41268867D01*
X90361770Y-41268868D01*
X90420247Y-41280499D01*
X90420250Y-41280500D01*
X90420252Y-41280500D01*
X91959750Y-41280500D01*
X91959751Y-41280499D01*
X91974568Y-41277552D01*
X92018229Y-41268868D01*
X92018229Y-41268867D01*
X92018231Y-41268867D01*
X92084552Y-41224552D01*
X92128867Y-41158231D01*
X92128867Y-41158229D01*
X92128868Y-41158229D01*
X92140499Y-41099752D01*
X92140500Y-41099750D01*
X92140500Y-40562940D01*
X92160185Y-40495901D01*
X92176819Y-40475259D01*
X92890259Y-39761819D01*
X92951582Y-39728334D01*
X92977940Y-39725500D01*
X96571158Y-39725500D01*
X97792060Y-39725500D01*
X97859099Y-39745185D01*
X97879741Y-39761819D01*
X98061262Y-39943340D01*
X98094747Y-40004663D01*
X98097581Y-40031141D01*
X98094831Y-42876634D01*
X98094434Y-43288681D01*
X98094108Y-43625620D01*
X98074359Y-43692640D01*
X98021510Y-43738344D01*
X97970108Y-43749500D01*
X95505247Y-43749500D01*
X95446770Y-43761131D01*
X95446769Y-43761132D01*
X95380447Y-43805447D01*
X95336132Y-43871769D01*
X95336131Y-43871770D01*
X95324500Y-43930247D01*
X95324500Y-46319752D01*
X95336131Y-46378229D01*
X95336132Y-46378230D01*
X95380447Y-46444552D01*
X95446769Y-46488867D01*
X95446770Y-46488868D01*
X95505247Y-46500499D01*
X95505250Y-46500500D01*
X97967209Y-46500500D01*
X98034248Y-46520185D01*
X98080003Y-46572989D01*
X98091209Y-46624620D01*
X98090096Y-47775620D01*
X98070347Y-47842640D01*
X98017498Y-47888344D01*
X97966096Y-47899500D01*
X95505247Y-47899500D01*
X95446770Y-47911131D01*
X95446769Y-47911132D01*
X95380447Y-47955447D01*
X95336132Y-48021769D01*
X95336131Y-48021770D01*
X95324500Y-48080247D01*
X95324500Y-50469752D01*
X95336131Y-50528229D01*
X95336132Y-50528230D01*
X95380447Y-50594552D01*
X95446769Y-50638867D01*
X95446770Y-50638868D01*
X95505247Y-50650499D01*
X95505250Y-50650500D01*
X95505252Y-50650500D01*
X97963197Y-50650500D01*
X98030236Y-50670185D01*
X98075991Y-50722989D01*
X98087197Y-50774620D01*
X98080120Y-58095769D01*
X98060371Y-58162789D01*
X98007522Y-58208493D01*
X97955770Y-58219649D01*
X94663983Y-58210350D01*
X94596999Y-58190476D01*
X94551394Y-58137543D01*
X94540333Y-58086017D01*
X94560262Y-50670185D01*
X94580000Y-43325000D01*
X85383441Y-43325000D01*
X85316402Y-43305315D01*
X85295760Y-43288681D01*
X85285292Y-43278213D01*
X85285288Y-43278210D01*
X85154185Y-43190609D01*
X85154172Y-43190602D01*
X85008501Y-43130264D01*
X85008489Y-43130261D01*
X84853845Y-43099500D01*
X84853842Y-43099500D01*
X79224000Y-43099500D01*
X79156961Y-43079815D01*
X79111206Y-43027011D01*
X79100000Y-42975500D01*
X79100000Y-39774500D01*
X79119685Y-39707461D01*
X79172489Y-39661706D01*
X79224000Y-39650500D01*
X81291158Y-39650500D01*
X84247060Y-39650500D01*
X84314099Y-39670185D01*
X84334741Y-39686819D01*
X85155208Y-40507286D01*
X85186187Y-40558971D01*
X85227604Y-40695502D01*
X85315862Y-40860623D01*
X85315864Y-40860626D01*
X85434642Y-41005357D01*
X85579373Y-41124135D01*
X85579376Y-41124137D01*
X85744497Y-41212395D01*
X85744499Y-41212396D01*
X85923666Y-41266746D01*
X85923668Y-41266747D01*
X85940374Y-41268392D01*
X86110000Y-41285099D01*
X86296331Y-41266747D01*
X86475501Y-41212396D01*
X86640625Y-41124136D01*
X86785357Y-41005357D01*
X86904136Y-40860625D01*
X86992396Y-40695501D01*
X87046747Y-40516331D01*
X87065099Y-40330000D01*
X87046747Y-40143669D01*
X86992396Y-39964499D01*
X86969050Y-39920821D01*
X86904137Y-39799376D01*
X86904135Y-39799373D01*
X86785357Y-39654642D01*
X86640626Y-39535864D01*
X86640623Y-39535862D01*
X86475502Y-39447604D01*
X86338971Y-39406187D01*
X86287286Y-39375208D01*
X85140292Y-38228213D01*
X85140288Y-38228210D01*
X85009185Y-38140609D01*
X85009172Y-38140602D01*
X84863501Y-38080264D01*
X84863489Y-38080261D01*
X84708845Y-38049500D01*
X84708842Y-38049500D01*
X81448842Y-38049500D01*
X79224000Y-38049500D01*
X79156961Y-38029815D01*
X79111206Y-37977011D01*
X79100000Y-37925500D01*
X79100000Y-37639097D01*
X79119685Y-37572058D01*
X79172489Y-37526303D01*
X79224093Y-37515097D01*
X97975978Y-37529902D01*
G37*
%TD.AperFunction*%
%TD*%
%TA.AperFunction,Conductor*%
%TO.N,+3V3*%
G36*
X77799028Y-48818907D02*
G01*
X77810841Y-48828996D01*
X78007935Y-49026090D01*
X78007934Y-49026090D01*
X78042345Y-49060500D01*
X78068910Y-49087065D01*
X78143590Y-49130181D01*
X78143592Y-49130181D01*
X78143593Y-49130182D01*
X78185237Y-49141340D01*
X78226881Y-49152499D01*
X78226883Y-49152500D01*
X78226884Y-49152500D01*
X78604591Y-49152500D01*
X78662782Y-49171407D01*
X78698034Y-49218801D01*
X78711368Y-49256905D01*
X78722208Y-49287885D01*
X78802845Y-49397144D01*
X78802847Y-49397146D01*
X78802850Y-49397150D01*
X78802853Y-49397152D01*
X78802855Y-49397154D01*
X78912116Y-49477792D01*
X78912117Y-49477792D01*
X78912118Y-49477793D01*
X79040301Y-49522646D01*
X79070725Y-49525499D01*
X79070727Y-49525500D01*
X79070734Y-49525500D01*
X80129273Y-49525500D01*
X80129273Y-49525499D01*
X80159699Y-49522646D01*
X80287882Y-49477793D01*
X80397150Y-49397150D01*
X80477793Y-49287882D01*
X80522646Y-49159699D01*
X80525499Y-49129273D01*
X80525500Y-49129273D01*
X80525500Y-49061500D01*
X80544407Y-49003309D01*
X80593907Y-48967345D01*
X80624500Y-48962500D01*
X81578153Y-48962500D01*
X81636344Y-48981407D01*
X81672308Y-49030907D01*
X81672890Y-49032763D01*
X81674767Y-49038952D01*
X81674768Y-49038954D01*
X81772316Y-49221452D01*
X81826836Y-49287885D01*
X81903590Y-49381410D01*
X81903595Y-49381414D01*
X82063547Y-49512683D01*
X82063548Y-49512683D01*
X82063550Y-49512685D01*
X82246046Y-49610232D01*
X82364480Y-49646158D01*
X82444065Y-49670300D01*
X82444070Y-49670301D01*
X82649997Y-49690583D01*
X82650000Y-49690583D01*
X82650003Y-49690583D01*
X82855929Y-49670301D01*
X82855934Y-49670300D01*
X83053954Y-49610232D01*
X83236450Y-49512685D01*
X83396410Y-49381410D01*
X83474473Y-49286289D01*
X83526003Y-49253303D01*
X83587082Y-49256905D01*
X83634379Y-49295720D01*
X83650000Y-49349095D01*
X83650000Y-49926193D01*
X83631093Y-49984384D01*
X83581593Y-50020348D01*
X83547652Y-50024725D01*
X83547652Y-50025000D01*
X83545527Y-50025000D01*
X83545302Y-50025029D01*
X83544799Y-50025000D01*
X82900001Y-50025000D01*
X82900000Y-50025001D01*
X82900000Y-50741988D01*
X82842993Y-50709075D01*
X82715826Y-50675000D01*
X82584174Y-50675000D01*
X82457007Y-50709075D01*
X82400000Y-50741988D01*
X82400000Y-50025001D01*
X82399999Y-50025000D01*
X81755210Y-50025000D01*
X81755207Y-50025001D01*
X81730125Y-50027909D01*
X81627522Y-50073213D01*
X81548213Y-50152522D01*
X81502909Y-50255127D01*
X81500000Y-50280202D01*
X81500000Y-50924999D01*
X81500001Y-50925000D01*
X82216988Y-50925000D01*
X82184075Y-50982007D01*
X82150000Y-51109174D01*
X82150000Y-51240826D01*
X82184075Y-51367993D01*
X82216988Y-51425000D01*
X81500002Y-51425000D01*
X81500001Y-51425001D01*
X81500001Y-52069791D01*
X81502909Y-52094874D01*
X81548213Y-52197477D01*
X81627522Y-52276786D01*
X81730127Y-52322090D01*
X81755203Y-52324999D01*
X82399998Y-52324999D01*
X82400000Y-52324998D01*
X82400000Y-51608012D01*
X82457007Y-51640925D01*
X82584174Y-51675000D01*
X82715826Y-51675000D01*
X82842993Y-51640925D01*
X82900000Y-51608012D01*
X82900000Y-52324998D01*
X82900001Y-52324999D01*
X83544792Y-52324999D01*
X83545276Y-52324971D01*
X83545383Y-52324999D01*
X83547650Y-52324999D01*
X83547650Y-52325593D01*
X83604463Y-52340482D01*
X83643228Y-52387820D01*
X83650000Y-52423805D01*
X83650000Y-59777915D01*
X83650000Y-59777917D01*
X86900177Y-59750831D01*
X86958521Y-59769253D01*
X86994896Y-59818452D01*
X87000000Y-59849828D01*
X87000000Y-63600000D01*
X90501000Y-63600000D01*
X90559191Y-63618907D01*
X90595155Y-63668407D01*
X90600000Y-63699000D01*
X90600000Y-65900297D01*
X90581093Y-65958488D01*
X90531593Y-65994452D01*
X90500300Y-65999295D01*
X87770000Y-65980000D01*
X87789698Y-72470553D01*
X87770967Y-72528800D01*
X87721576Y-72564914D01*
X87690552Y-72569853D01*
X81100137Y-72560147D01*
X81041974Y-72541154D01*
X81006083Y-72491601D01*
X81001291Y-72459876D01*
X81018742Y-71107492D01*
X81038398Y-71049554D01*
X81088358Y-71014232D01*
X81117497Y-71009773D01*
X85330000Y-71000000D01*
X85290000Y-66010000D01*
X85269021Y-66009975D01*
X76898883Y-66000116D01*
X76840715Y-65981140D01*
X76804809Y-65931598D01*
X76800000Y-65901116D01*
X76800000Y-50450001D01*
X76800000Y-50450000D01*
X76799999Y-50450000D01*
X73861582Y-50450000D01*
X73803391Y-50431093D01*
X73767427Y-50381593D01*
X73762612Y-50353447D01*
X73754490Y-50025029D01*
X73740958Y-49477792D01*
X73726705Y-48901447D01*
X73744168Y-48842807D01*
X73792764Y-48805630D01*
X73825675Y-48800000D01*
X77740837Y-48800000D01*
X77799028Y-48818907D01*
G37*
%TD.AperFunction*%
%TD*%
%TA.AperFunction,Conductor*%
%TO.N,+5V*%
G36*
X78801492Y-37492022D02*
G01*
X78859662Y-37510986D01*
X78895578Y-37560520D01*
X78899386Y-37605109D01*
X78894500Y-37639097D01*
X78894500Y-37925500D01*
X78898526Y-37962943D01*
X78899197Y-37969185D01*
X78910404Y-38020699D01*
X78912889Y-38030871D01*
X78912889Y-38030872D01*
X78912890Y-38030873D01*
X78955900Y-38111585D01*
X79001655Y-38164389D01*
X79001667Y-38164401D01*
X79019247Y-38182344D01*
X79019249Y-38182346D01*
X79099058Y-38226988D01*
X79099062Y-38226990D01*
X79166095Y-38246673D01*
X79166102Y-38246675D01*
X79224000Y-38255000D01*
X84678854Y-38255000D01*
X84698167Y-38256901D01*
X84793994Y-38275963D01*
X84812564Y-38281597D01*
X84902827Y-38318984D01*
X84919944Y-38328133D01*
X85001182Y-38382415D01*
X85016184Y-38394726D01*
X85796949Y-39175492D01*
X85824726Y-39230009D01*
X85815155Y-39290441D01*
X85771890Y-39333706D01*
X85755684Y-39340233D01*
X85706234Y-39355233D01*
X85706232Y-39355234D01*
X85564528Y-39430975D01*
X85980590Y-39847037D01*
X85917007Y-39864075D01*
X85802993Y-39929901D01*
X85709901Y-40022993D01*
X85644075Y-40137007D01*
X85627037Y-40200590D01*
X85210975Y-39784528D01*
X85135234Y-39926232D01*
X85135230Y-39926241D01*
X85120231Y-39975685D01*
X85085245Y-40025881D01*
X85027437Y-40045926D01*
X84968886Y-40028164D01*
X84955491Y-40016949D01*
X84480045Y-39541503D01*
X84463699Y-39526820D01*
X84463692Y-39526814D01*
X84463684Y-39526807D01*
X84443042Y-39510173D01*
X84443041Y-39510172D01*
X84371998Y-39473010D01*
X84371993Y-39473008D01*
X84304964Y-39453326D01*
X84304955Y-39453324D01*
X84258744Y-39446680D01*
X84247060Y-39445000D01*
X79224000Y-39445000D01*
X79192797Y-39448355D01*
X79180314Y-39449697D01*
X79128800Y-39460904D01*
X79118628Y-39463389D01*
X79037914Y-39506400D01*
X78985113Y-39552153D01*
X78985098Y-39552167D01*
X78967155Y-39569747D01*
X78967153Y-39569749D01*
X78922511Y-39649558D01*
X78922509Y-39649562D01*
X78902826Y-39716595D01*
X78902824Y-39716604D01*
X78894500Y-39774500D01*
X78894500Y-39901694D01*
X78883710Y-39946639D01*
X78840281Y-40031872D01*
X78840281Y-40031874D01*
X78824500Y-40131510D01*
X78824500Y-40648490D01*
X78840281Y-40748127D01*
X78840282Y-40748129D01*
X78883709Y-40833359D01*
X78894500Y-40878304D01*
X78894500Y-42975500D01*
X78898526Y-43012943D01*
X78899197Y-43019185D01*
X78910404Y-43070699D01*
X78912889Y-43080871D01*
X78912889Y-43080872D01*
X78912890Y-43080873D01*
X78955900Y-43161585D01*
X79001655Y-43214389D01*
X79001667Y-43214401D01*
X79019247Y-43232344D01*
X79019249Y-43232346D01*
X79099058Y-43276988D01*
X79099062Y-43276990D01*
X79139552Y-43288879D01*
X79166102Y-43296675D01*
X79224000Y-43305000D01*
X84823854Y-43305000D01*
X84843167Y-43306901D01*
X84938994Y-43325963D01*
X84957564Y-43331597D01*
X85047827Y-43368984D01*
X85064944Y-43378133D01*
X85150106Y-43435037D01*
X85161255Y-43443697D01*
X85166817Y-43448693D01*
X85187459Y-43465327D01*
X85258504Y-43502490D01*
X85325543Y-43522175D01*
X85383441Y-43530500D01*
X94086710Y-43530500D01*
X94144901Y-43549407D01*
X94180865Y-43598907D01*
X94185708Y-43629088D01*
X94195371Y-45963135D01*
X94249589Y-59060821D01*
X94230923Y-59119090D01*
X94181572Y-59155258D01*
X94150821Y-59160231D01*
X92300907Y-59164542D01*
X92245674Y-59147857D01*
X92183233Y-59106134D01*
X92183231Y-59106133D01*
X92183228Y-59106132D01*
X92183227Y-59106132D01*
X92124758Y-59094501D01*
X92124748Y-59094500D01*
X91235252Y-59094500D01*
X91235251Y-59094500D01*
X91235241Y-59094501D01*
X91176772Y-59106132D01*
X91176770Y-59106132D01*
X91176769Y-59106133D01*
X91176768Y-59106133D01*
X91167757Y-59109866D01*
X91166328Y-59106417D01*
X91129725Y-59117500D01*
X90057366Y-59117500D01*
X89999175Y-59098593D01*
X89963211Y-59049093D01*
X89958372Y-59019571D01*
X89953991Y-58614746D01*
X89910000Y-54550000D01*
X89909999Y-54550000D01*
X84649705Y-54608883D01*
X84591306Y-54590628D01*
X84554791Y-54541534D01*
X84549598Y-54510288D01*
X84548129Y-54145583D01*
X84543877Y-53089996D01*
X87244417Y-53089996D01*
X87244417Y-53090003D01*
X87264698Y-53295929D01*
X87264699Y-53295934D01*
X87324768Y-53493954D01*
X87422316Y-53676452D01*
X87429699Y-53685448D01*
X87553590Y-53836410D01*
X87553595Y-53836414D01*
X87713547Y-53967683D01*
X87713548Y-53967683D01*
X87713550Y-53967685D01*
X87896046Y-54065232D01*
X88033997Y-54107078D01*
X88094065Y-54125300D01*
X88094070Y-54125301D01*
X88299997Y-54145583D01*
X88300000Y-54145583D01*
X88300003Y-54145583D01*
X88505929Y-54125301D01*
X88505934Y-54125300D01*
X88703954Y-54065232D01*
X88886450Y-53967685D01*
X89046410Y-53836410D01*
X89177685Y-53676450D01*
X89275232Y-53493954D01*
X89335300Y-53295934D01*
X89335301Y-53295929D01*
X89355583Y-53090003D01*
X89355583Y-53089996D01*
X89335301Y-52884070D01*
X89335300Y-52884065D01*
X89306838Y-52790238D01*
X89308039Y-52729064D01*
X89344968Y-52680280D01*
X89401575Y-52662500D01*
X90209806Y-52662500D01*
X90267997Y-52681407D01*
X90298014Y-52716553D01*
X90326950Y-52773342D01*
X90416658Y-52863050D01*
X90529696Y-52920646D01*
X90623481Y-52935500D01*
X91026336Y-52935499D01*
X91084527Y-52954406D01*
X91096340Y-52964495D01*
X91323504Y-53191659D01*
X91351281Y-53246176D01*
X91352500Y-53261663D01*
X91352500Y-57995500D01*
X91333593Y-58053691D01*
X91284093Y-58089655D01*
X91253500Y-58094500D01*
X91235252Y-58094500D01*
X91235251Y-58094500D01*
X91235241Y-58094501D01*
X91176772Y-58106132D01*
X91176766Y-58106134D01*
X91110451Y-58150445D01*
X91110445Y-58150451D01*
X91066134Y-58216766D01*
X91066132Y-58216772D01*
X91054501Y-58275241D01*
X91054500Y-58275253D01*
X91054500Y-58614746D01*
X91054501Y-58614758D01*
X91066132Y-58673227D01*
X91066134Y-58673233D01*
X91110445Y-58739548D01*
X91110448Y-58739552D01*
X91176769Y-58783867D01*
X91221231Y-58792711D01*
X91235241Y-58795498D01*
X91235246Y-58795498D01*
X91235252Y-58795500D01*
X91235253Y-58795500D01*
X92124747Y-58795500D01*
X92124748Y-58795500D01*
X92183231Y-58783867D01*
X92249552Y-58739552D01*
X92293867Y-58673231D01*
X92305500Y-58614748D01*
X92305500Y-58275252D01*
X92293867Y-58216769D01*
X92249552Y-58150448D01*
X92249548Y-58150445D01*
X92183233Y-58106134D01*
X92183231Y-58106133D01*
X92183228Y-58106132D01*
X92183227Y-58106132D01*
X92124758Y-58094501D01*
X92124748Y-58094500D01*
X92124747Y-58094500D01*
X92106500Y-58094500D01*
X92048309Y-58075593D01*
X92012345Y-58026093D01*
X92007500Y-57995500D01*
X92007500Y-53041883D01*
X92007499Y-53041881D01*
X91985182Y-52958593D01*
X91985182Y-52958592D01*
X91971850Y-52935500D01*
X91942065Y-52883910D01*
X91921205Y-52863050D01*
X91881090Y-52822934D01*
X91881090Y-52822935D01*
X91634495Y-52576340D01*
X91606718Y-52521823D01*
X91605499Y-52506336D01*
X91605499Y-52103478D01*
X91605498Y-52103476D01*
X91590647Y-52009700D01*
X91590646Y-52009698D01*
X91590646Y-52009696D01*
X91533050Y-51896658D01*
X91443342Y-51806950D01*
X91330304Y-51749354D01*
X91330305Y-51749354D01*
X91236522Y-51734500D01*
X90623479Y-51734500D01*
X90623476Y-51734501D01*
X90529700Y-51749352D01*
X90529695Y-51749354D01*
X90416659Y-51806949D01*
X90326949Y-51896659D01*
X90298015Y-51953446D01*
X90254751Y-51996710D01*
X90209806Y-52007500D01*
X89011881Y-52007500D01*
X88928593Y-52029817D01*
X88928592Y-52029817D01*
X88853907Y-52072937D01*
X88826331Y-52100513D01*
X88771814Y-52128289D01*
X88711383Y-52118717D01*
X88709661Y-52117818D01*
X88703959Y-52114770D01*
X88703954Y-52114768D01*
X88505934Y-52054699D01*
X88505929Y-52054698D01*
X88300003Y-52034417D01*
X88299997Y-52034417D01*
X88094070Y-52054698D01*
X88094065Y-52054699D01*
X87896045Y-52114768D01*
X87713547Y-52212316D01*
X87553595Y-52343585D01*
X87553585Y-52343595D01*
X87422316Y-52503547D01*
X87324768Y-52686045D01*
X87264699Y-52884065D01*
X87264698Y-52884070D01*
X87244417Y-53089996D01*
X84543877Y-53089996D01*
X84532638Y-50300000D01*
X87175489Y-50300000D01*
X87866988Y-50300000D01*
X87834075Y-50357007D01*
X87800000Y-50484174D01*
X87800000Y-50615826D01*
X87834075Y-50742993D01*
X87866988Y-50800000D01*
X87175489Y-50800000D01*
X87223064Y-50967210D01*
X87318057Y-51157983D01*
X87318062Y-51157992D01*
X87446496Y-51328064D01*
X87446506Y-51328075D01*
X87603995Y-51471647D01*
X87603994Y-51471647D01*
X87785206Y-51583847D01*
X87983941Y-51660838D01*
X88050000Y-51673185D01*
X88050000Y-50983012D01*
X88107007Y-51015925D01*
X88234174Y-51050000D01*
X88365826Y-51050000D01*
X88492993Y-51015925D01*
X88550000Y-50983012D01*
X88550000Y-51673184D01*
X88616058Y-51660838D01*
X88814793Y-51583847D01*
X88996004Y-51471647D01*
X89153493Y-51328075D01*
X89153503Y-51328064D01*
X89281937Y-51157992D01*
X89281942Y-51157983D01*
X89376935Y-50967210D01*
X89424511Y-50800000D01*
X88733012Y-50800000D01*
X88765925Y-50742993D01*
X88800000Y-50615826D01*
X88800000Y-50484174D01*
X88765925Y-50357007D01*
X88733012Y-50300000D01*
X89424511Y-50300000D01*
X89376935Y-50132789D01*
X89281942Y-49942016D01*
X89281937Y-49942007D01*
X89153503Y-49771935D01*
X89153493Y-49771924D01*
X88996004Y-49628352D01*
X88996005Y-49628352D01*
X88814793Y-49516152D01*
X88616059Y-49439161D01*
X88550000Y-49426812D01*
X88550000Y-50116988D01*
X88492993Y-50084075D01*
X88365826Y-50050000D01*
X88234174Y-50050000D01*
X88107007Y-50084075D01*
X88050000Y-50116988D01*
X88050000Y-49426813D01*
X88049999Y-49426812D01*
X87983940Y-49439161D01*
X87785206Y-49516152D01*
X87603995Y-49628352D01*
X87446506Y-49771924D01*
X87446496Y-49771935D01*
X87318062Y-49942007D01*
X87318057Y-49942016D01*
X87223064Y-50132789D01*
X87175489Y-50300000D01*
X84532638Y-50300000D01*
X84519910Y-47140253D01*
X87249500Y-47140253D01*
X87249500Y-48879746D01*
X87249501Y-48879758D01*
X87256866Y-48916780D01*
X87261133Y-48938231D01*
X87305448Y-49004552D01*
X87305451Y-49004554D01*
X87353820Y-49036874D01*
X87371769Y-49048867D01*
X87416231Y-49057711D01*
X87430241Y-49060498D01*
X87430246Y-49060498D01*
X87430252Y-49060500D01*
X87430253Y-49060500D01*
X89169747Y-49060500D01*
X89169748Y-49060500D01*
X89228231Y-49048867D01*
X89294552Y-49004552D01*
X89338867Y-48938231D01*
X89350500Y-48879748D01*
X89350500Y-47140252D01*
X89338867Y-47081769D01*
X89294552Y-47015448D01*
X89294548Y-47015445D01*
X89228233Y-46971134D01*
X89228231Y-46971133D01*
X89228228Y-46971132D01*
X89228227Y-46971132D01*
X89169758Y-46959501D01*
X89169748Y-46959500D01*
X87430252Y-46959500D01*
X87430251Y-46959500D01*
X87430241Y-46959501D01*
X87371772Y-46971132D01*
X87371766Y-46971134D01*
X87305451Y-47015445D01*
X87305445Y-47015451D01*
X87261134Y-47081766D01*
X87261132Y-47081772D01*
X87249501Y-47140241D01*
X87249500Y-47140253D01*
X84519910Y-47140253D01*
X84514663Y-45837648D01*
X84514662Y-45837648D01*
X84514662Y-45837647D01*
X76148366Y-45981042D01*
X76089859Y-45963135D01*
X76053052Y-45914259D01*
X76047669Y-45881842D01*
X76060000Y-40290000D01*
X76059999Y-40289999D01*
X73856396Y-40299297D01*
X73798126Y-40280635D01*
X73761953Y-40231288D01*
X73761695Y-40170103D01*
X73776975Y-40140636D01*
X73846936Y-40047993D01*
X73846942Y-40047983D01*
X73941935Y-39857210D01*
X73989511Y-39690000D01*
X73675731Y-39690000D01*
X73664035Y-39190000D01*
X73989511Y-39190000D01*
X73941935Y-39022789D01*
X73846942Y-38832016D01*
X73846932Y-38832000D01*
X73783997Y-38748661D01*
X73764017Y-38690830D01*
X73781845Y-38632300D01*
X73830672Y-38595427D01*
X73863000Y-38590000D01*
X76709999Y-38590000D01*
X76710000Y-38590000D01*
X76710000Y-37589095D01*
X76728907Y-37530904D01*
X76778407Y-37494940D01*
X76809090Y-37490095D01*
X78801492Y-37492022D01*
G37*
%TD.AperFunction*%
%TD*%
M02*
