M48
; DRILL file {KiCad 8.99.0-1896-g1e663268ac} date 2024-10-16T10:03:05+0300
; FORMAT={-:-/ absolute / inch / decimal}
; #@! TF.CreationDate,2024-10-16T10:03:05+03:00
; #@! TF.GenerationSoftware,Kicad,Pcbnew,8.99.0-1896-g1e663268ac
; #@! TF.FileFunction,Plated,1,2,PTH
FMAT,2
INCH
; #@! TA.AperFunction,Plated,PTH,ViaDrill
T1C0.0118
; #@! TA.AperFunction,Plated,PTH,ComponentDrill
T2C0.0394
; #@! TA.AperFunction,Plated,PTH,ComponentDrill
T3C0.0402
; #@! TA.AperFunction,Plated,PTH,ComponentDrill
T4C0.0709
%
G90
G05
T1
X2.9909Y-2.3528
X2.9953Y-2.4528
X3.0433Y-1.8514
X3.1287Y-1.6211
X3.1343Y-1.6846
X3.1354Y-1.8866
X3.1354Y-3.0097
X3.187Y-1.6378
X3.2136Y-1.6388
X3.2201Y-2.9264
X3.2839Y-3.0382
X3.322Y-2.9268
X3.3333Y-2.6346
X3.3346Y-2.7079
X3.3429Y-2.9799
X3.3846Y-2.3059
X3.3953Y-1.6898
X3.4441Y-3.0409
X3.461Y-2.4827
X3.4815Y-1.6909
X3.5567Y-1.6917
X3.5815Y-2.75
X3.5835Y-2.9098
X3.6073Y-2.4573
X3.6181Y-3.0386
X3.6291Y-1.6909
X3.665Y-2.7508
X3.687Y-2.6047
X3.6917Y-2.4098
X3.7425Y-2.1283
X3.7726Y-1.688
X3.7734Y-2.1283
X3.8031Y-1.688
X3.8043Y-2.1283
X3.8337Y-1.688
T2
X3.2081Y-3.1589
X3.2081Y-3.2589
X3.2539Y-1.9148
X3.2539Y-2.0148
X3.3774Y-3.1589
X3.3774Y-3.2589
X3.3902Y-1.5878
X3.4764Y-1.8902
X3.4764Y-1.9902
X3.4764Y-2.0902
X3.4764Y-2.1902
X3.4902Y-1.5878
X3.5482Y-3.1589
X3.5482Y-3.2589
X3.5902Y-1.5878
X3.8181Y-2.2362
X3.8181Y-2.3362
X3.8181Y-2.4362
X3.8181Y-2.5362
T3
X2.1687Y-1.5528
X2.1687Y-1.6528
X2.1687Y-1.7528
X2.1687Y-1.8528
X2.1687Y-1.9528
X2.1687Y-2.0528
X2.1687Y-2.1528
X2.1687Y-2.2528
X2.1687Y-2.3528
X2.1687Y-2.4528
X2.1687Y-2.5528
X2.1687Y-2.6528
X2.1687Y-2.7528
X2.1687Y-2.8528
X2.1687Y-2.9528
X2.1687Y-3.0528
X2.1687Y-3.1528
X2.1687Y-3.2528
X2.1687Y-3.3528
X2.1687Y-3.4528
X2.4187Y-3.4437
X2.5187Y-3.4437
X2.6187Y-3.4437
X2.8687Y-1.5528
X2.8687Y-1.6528
X2.8687Y-1.7528
X2.8687Y-1.8528
X2.8687Y-1.9528
X2.8687Y-2.0528
X2.8687Y-2.1528
X2.8687Y-2.2528
X2.8687Y-2.3528
X2.8687Y-2.4528
X2.8687Y-2.5528
X2.8687Y-2.6528
X2.8687Y-2.7528
X2.8687Y-2.8528
X2.8687Y-2.9528
X2.8687Y-3.0528
X2.8687Y-3.1528
X2.8687Y-3.2528
X2.8687Y-3.3528
X2.8687Y-3.4528
T4
X4.1047Y-1.8673
X4.1047Y-2.0327
X4.1047Y-2.198
X4.1047Y-2.5177
X4.1047Y-2.6831
X4.1047Y-2.8484
X4.1047Y-3.0138
X4.1047Y-3.1791
X4.3213Y-1.8673
X4.3213Y-2.0327
X4.3213Y-2.198
X4.3213Y-2.5177
X4.3213Y-2.6831
X4.3213Y-2.8484
X4.3213Y-3.0138
X4.3213Y-3.1791
M30
