%TF.GenerationSoftware,KiCad,Pcbnew,8.99.0-1896-g1e663268ac*%
%TF.CreationDate,2024-10-16T09:53:04+03:00*%
%TF.ProjectId,diagnostic_tester,64696167-6e6f-4737-9469-635f74657374,rev?*%
%TF.SameCoordinates,Original*%
%TF.FileFunction,Paste,Top*%
%TF.FilePolarity,Positive*%
%FSLAX46Y46*%
G04 Gerber Fmt 4.6, Leading zero omitted, Abs format (unit mm)*
G04 Created by KiCad (PCBNEW 8.99.0-1896-g1e663268ac) date 2024-10-16 09:53:04*
%MOMM*%
%LPD*%
G01*
G04 APERTURE LIST*
G04 Aperture macros list*
%AMRoundRect*
0 Rectangle with rounded corners*
0 $1 Rounding radius*
0 $2 $3 $4 $5 $6 $7 $8 $9 X,Y pos of 4 corners*
0 Add a 4 corners polygon primitive as box body*
4,1,4,$2,$3,$4,$5,$6,$7,$8,$9,$2,$3,0*
0 Add four circle primitives for the rounded corners*
1,1,$1+$1,$2,$3*
1,1,$1+$1,$4,$5*
1,1,$1+$1,$6,$7*
1,1,$1+$1,$8,$9*
0 Add four rect primitives between the rounded corners*
20,1,$1+$1,$2,$3,$4,$5,0*
20,1,$1+$1,$4,$5,$6,$7,0*
20,1,$1+$1,$6,$7,$8,$9,0*
20,1,$1+$1,$8,$9,$2,$3,0*%
G04 Aperture macros list end*
%ADD10RoundRect,0.250000X0.475000X-0.250000X0.475000X0.250000X-0.475000X0.250000X-0.475000X-0.250000X0*%
%ADD11RoundRect,0.225000X-0.250000X0.225000X-0.250000X-0.225000X0.250000X-0.225000X0.250000X0.225000X0*%
%ADD12RoundRect,0.200000X0.200000X0.275000X-0.200000X0.275000X-0.200000X-0.275000X0.200000X-0.275000X0*%
%ADD13RoundRect,0.225000X0.250000X-0.225000X0.250000X0.225000X-0.250000X0.225000X-0.250000X-0.225000X0*%
%ADD14RoundRect,0.200000X-0.275000X0.200000X-0.275000X-0.200000X0.275000X-0.200000X0.275000X0.200000X0*%
%ADD15RoundRect,0.250000X-0.250000X-0.475000X0.250000X-0.475000X0.250000X0.475000X-0.250000X0.475000X0*%
%ADD16RoundRect,0.150000X0.512500X0.150000X-0.512500X0.150000X-0.512500X-0.150000X0.512500X-0.150000X0*%
%ADD17RoundRect,0.200000X0.275000X-0.200000X0.275000X0.200000X-0.275000X0.200000X-0.275000X-0.200000X0*%
%ADD18R,0.850000X0.300000*%
%ADD19RoundRect,0.250000X-1.100000X0.325000X-1.100000X-0.325000X1.100000X-0.325000X1.100000X0.325000X0*%
%ADD20R,5.100000X2.350000*%
%ADD21RoundRect,0.250000X-0.475000X0.250000X-0.475000X-0.250000X0.475000X-0.250000X0.475000X0.250000X0*%
%ADD22RoundRect,0.250000X1.000000X0.650000X-1.000000X0.650000X-1.000000X-0.650000X1.000000X-0.650000X0*%
%ADD23RoundRect,0.225000X-0.375000X0.225000X-0.375000X-0.225000X0.375000X-0.225000X0.375000X0.225000X0*%
G04 APERTURE END LIST*
D10*
%TO.C,C12*%
X79600000Y-50725000D03*
X79600000Y-48825000D03*
%TD*%
D11*
%TO.C,C8*%
X79500000Y-38840000D03*
X79500000Y-40390000D03*
%TD*%
D12*
%TO.C,R5*%
X83565000Y-66940000D03*
X81915000Y-66940000D03*
%TD*%
D13*
%TO.C,C2*%
X93055000Y-72275000D03*
X93055000Y-70725000D03*
%TD*%
D14*
%TO.C,R10*%
X84385000Y-71755000D03*
X84385000Y-73405000D03*
%TD*%
D12*
%TO.C,R8*%
X88360000Y-61835000D03*
X86710000Y-61835000D03*
%TD*%
D14*
%TO.C,R9*%
X86960000Y-71755000D03*
X86960000Y-73405000D03*
%TD*%
D15*
%TO.C,C9*%
X89135000Y-77175000D03*
X91035000Y-77175000D03*
%TD*%
D16*
%TO.C,D1*%
X90987500Y-72890000D03*
X90987500Y-70990000D03*
X88712500Y-71940000D03*
%TD*%
D13*
%TO.C,C4*%
X86830000Y-60210000D03*
X86830000Y-58660000D03*
%TD*%
D16*
%TO.C,D2*%
X90987500Y-69050000D03*
X90987500Y-67150000D03*
X88712500Y-68100000D03*
%TD*%
D12*
%TO.C,R7*%
X91760000Y-61335000D03*
X90110000Y-61335000D03*
%TD*%
D17*
%TO.C,R1*%
X85525000Y-55650000D03*
X85525000Y-54000000D03*
%TD*%
D13*
%TO.C,C3*%
X93660000Y-68590000D03*
X93660000Y-67040000D03*
%TD*%
D18*
%TO.C,U1*%
X88580000Y-58445000D03*
X88580000Y-58945000D03*
X88580000Y-59445000D03*
X88580000Y-59945000D03*
X91680000Y-59945000D03*
X91680000Y-59445000D03*
X91680000Y-58945000D03*
X91680000Y-58445000D03*
%TD*%
D14*
%TO.C,R4*%
X95400000Y-66950000D03*
X95400000Y-68600000D03*
%TD*%
%TO.C,R11*%
X81810000Y-71755000D03*
X81810000Y-73405000D03*
%TD*%
D12*
%TO.C,R3*%
X96375000Y-72350000D03*
X94725000Y-72350000D03*
%TD*%
D19*
%TO.C,C5*%
X96650000Y-38925000D03*
X96650000Y-41875000D03*
%TD*%
D11*
%TO.C,C1*%
X93750000Y-58865000D03*
X93750000Y-60415000D03*
%TD*%
D17*
%TO.C,R2*%
X90930000Y-52335000D03*
X90930000Y-50685000D03*
%TD*%
D13*
%TO.C,C6*%
X77290000Y-49395000D03*
X77290000Y-47845000D03*
%TD*%
D15*
%TO.C,C11*%
X80665000Y-77145000D03*
X82565000Y-77145000D03*
%TD*%
D20*
%TO.C,L1*%
X98075000Y-49275000D03*
X98075000Y-45125000D03*
%TD*%
D21*
%TO.C,C7*%
X81370000Y-38850000D03*
X81370000Y-40750000D03*
%TD*%
D22*
%TO.C,D4*%
X99825000Y-52800000D03*
X95825000Y-52800000D03*
%TD*%
D23*
%TO.C,D3*%
X100425000Y-55425000D03*
X100425000Y-58725000D03*
%TD*%
D15*
%TO.C,C10*%
X84715000Y-77235000D03*
X86615000Y-77235000D03*
%TD*%
D12*
%TO.C,R6*%
X83545000Y-68770000D03*
X81895000Y-68770000D03*
%TD*%
M02*
