%TF.GenerationSoftware,KiCad,Pcbnew,8.99.0-1896-g1e663268ac*%
%TF.CreationDate,2024-10-16T09:53:04+03:00*%
%TF.ProjectId,diagnostic_tester,64696167-6e6f-4737-9469-635f74657374,rev?*%
%TF.SameCoordinates,Original*%
%TF.FileFunction,Legend,Top*%
%TF.FilePolarity,Positive*%
%FSLAX46Y46*%
G04 Gerber Fmt 4.6, Leading zero omitted, Abs format (unit mm)*
G04 Created by KiCad (PCBNEW 8.99.0-1896-g1e663268ac) date 2024-10-16 09:53:04*
%MOMM*%
%LPD*%
G01*
G04 APERTURE LIST*
%ADD10C,0.200000*%
%ADD11C,0.150000*%
%ADD12C,0.120000*%
%ADD13C,0.000000*%
G04 APERTURE END LIST*
D10*
X91801695Y-50786993D02*
X91801695Y-51167945D01*
X91801695Y-51167945D02*
X92182647Y-51206041D01*
X92182647Y-51206041D02*
X92144552Y-51167945D01*
X92144552Y-51167945D02*
X92106457Y-51091755D01*
X92106457Y-51091755D02*
X92106457Y-50901279D01*
X92106457Y-50901279D02*
X92144552Y-50825088D01*
X92144552Y-50825088D02*
X92182647Y-50786993D01*
X92182647Y-50786993D02*
X92258838Y-50748898D01*
X92258838Y-50748898D02*
X92449314Y-50748898D01*
X92449314Y-50748898D02*
X92525504Y-50786993D01*
X92525504Y-50786993D02*
X92563600Y-50825088D01*
X92563600Y-50825088D02*
X92601695Y-50901279D01*
X92601695Y-50901279D02*
X92601695Y-51091755D01*
X92601695Y-51091755D02*
X92563600Y-51167945D01*
X92563600Y-51167945D02*
X92525504Y-51206041D01*
X91801695Y-50520326D02*
X92601695Y-50253659D01*
X92601695Y-50253659D02*
X91801695Y-49986993D01*
X84249790Y-49038898D02*
X84211695Y-49115088D01*
X84211695Y-49115088D02*
X84211695Y-49229374D01*
X84211695Y-49229374D02*
X84249790Y-49343660D01*
X84249790Y-49343660D02*
X84325980Y-49419850D01*
X84325980Y-49419850D02*
X84402171Y-49457945D01*
X84402171Y-49457945D02*
X84554552Y-49496041D01*
X84554552Y-49496041D02*
X84668838Y-49496041D01*
X84668838Y-49496041D02*
X84821219Y-49457945D01*
X84821219Y-49457945D02*
X84897409Y-49419850D01*
X84897409Y-49419850D02*
X84973600Y-49343660D01*
X84973600Y-49343660D02*
X85011695Y-49229374D01*
X85011695Y-49229374D02*
X85011695Y-49153183D01*
X85011695Y-49153183D02*
X84973600Y-49038898D01*
X84973600Y-49038898D02*
X84935504Y-49000802D01*
X84935504Y-49000802D02*
X84668838Y-49000802D01*
X84668838Y-49000802D02*
X84668838Y-49153183D01*
X85011695Y-48657945D02*
X84211695Y-48657945D01*
X84211695Y-48657945D02*
X85011695Y-48200802D01*
X85011695Y-48200802D02*
X84211695Y-48200802D01*
X85011695Y-47819850D02*
X84211695Y-47819850D01*
X84211695Y-47819850D02*
X84211695Y-47629374D01*
X84211695Y-47629374D02*
X84249790Y-47515088D01*
X84249790Y-47515088D02*
X84325980Y-47438898D01*
X84325980Y-47438898D02*
X84402171Y-47400803D01*
X84402171Y-47400803D02*
X84554552Y-47362707D01*
X84554552Y-47362707D02*
X84668838Y-47362707D01*
X84668838Y-47362707D02*
X84821219Y-47400803D01*
X84821219Y-47400803D02*
X84897409Y-47438898D01*
X84897409Y-47438898D02*
X84973600Y-47515088D01*
X84973600Y-47515088D02*
X85011695Y-47629374D01*
X85011695Y-47629374D02*
X85011695Y-47819850D01*
X91839790Y-48888898D02*
X91801695Y-48965088D01*
X91801695Y-48965088D02*
X91801695Y-49079374D01*
X91801695Y-49079374D02*
X91839790Y-49193660D01*
X91839790Y-49193660D02*
X91915980Y-49269850D01*
X91915980Y-49269850D02*
X91992171Y-49307945D01*
X91992171Y-49307945D02*
X92144552Y-49346041D01*
X92144552Y-49346041D02*
X92258838Y-49346041D01*
X92258838Y-49346041D02*
X92411219Y-49307945D01*
X92411219Y-49307945D02*
X92487409Y-49269850D01*
X92487409Y-49269850D02*
X92563600Y-49193660D01*
X92563600Y-49193660D02*
X92601695Y-49079374D01*
X92601695Y-49079374D02*
X92601695Y-49003183D01*
X92601695Y-49003183D02*
X92563600Y-48888898D01*
X92563600Y-48888898D02*
X92525504Y-48850802D01*
X92525504Y-48850802D02*
X92258838Y-48850802D01*
X92258838Y-48850802D02*
X92258838Y-49003183D01*
X92601695Y-48507945D02*
X91801695Y-48507945D01*
X91801695Y-48507945D02*
X92601695Y-48050802D01*
X92601695Y-48050802D02*
X91801695Y-48050802D01*
X92601695Y-47669850D02*
X91801695Y-47669850D01*
X91801695Y-47669850D02*
X91801695Y-47479374D01*
X91801695Y-47479374D02*
X91839790Y-47365088D01*
X91839790Y-47365088D02*
X91915980Y-47288898D01*
X91915980Y-47288898D02*
X91992171Y-47250803D01*
X91992171Y-47250803D02*
X92144552Y-47212707D01*
X92144552Y-47212707D02*
X92258838Y-47212707D01*
X92258838Y-47212707D02*
X92411219Y-47250803D01*
X92411219Y-47250803D02*
X92487409Y-47288898D01*
X92487409Y-47288898D02*
X92563600Y-47365088D01*
X92563600Y-47365088D02*
X92601695Y-47479374D01*
X92601695Y-47479374D02*
X92601695Y-47669850D01*
X94627885Y-60166041D02*
X94589790Y-60127945D01*
X94589790Y-60127945D02*
X94551695Y-60051755D01*
X94551695Y-60051755D02*
X94551695Y-59861279D01*
X94551695Y-59861279D02*
X94589790Y-59785088D01*
X94589790Y-59785088D02*
X94627885Y-59746993D01*
X94627885Y-59746993D02*
X94704076Y-59708898D01*
X94704076Y-59708898D02*
X94780266Y-59708898D01*
X94780266Y-59708898D02*
X94894552Y-59746993D01*
X94894552Y-59746993D02*
X95351695Y-60204136D01*
X95351695Y-60204136D02*
X95351695Y-59708898D01*
X94818361Y-59023183D02*
X95351695Y-59023183D01*
X94513600Y-59213659D02*
X95085028Y-59404136D01*
X95085028Y-59404136D02*
X95085028Y-58908897D01*
X94551695Y-58718421D02*
X95351695Y-58451754D01*
X95351695Y-58451754D02*
X94551695Y-58185088D01*
X94599790Y-57268898D02*
X94561695Y-57345088D01*
X94561695Y-57345088D02*
X94561695Y-57459374D01*
X94561695Y-57459374D02*
X94599790Y-57573660D01*
X94599790Y-57573660D02*
X94675980Y-57649850D01*
X94675980Y-57649850D02*
X94752171Y-57687945D01*
X94752171Y-57687945D02*
X94904552Y-57726041D01*
X94904552Y-57726041D02*
X95018838Y-57726041D01*
X95018838Y-57726041D02*
X95171219Y-57687945D01*
X95171219Y-57687945D02*
X95247409Y-57649850D01*
X95247409Y-57649850D02*
X95323600Y-57573660D01*
X95323600Y-57573660D02*
X95361695Y-57459374D01*
X95361695Y-57459374D02*
X95361695Y-57383183D01*
X95361695Y-57383183D02*
X95323600Y-57268898D01*
X95323600Y-57268898D02*
X95285504Y-57230802D01*
X95285504Y-57230802D02*
X95018838Y-57230802D01*
X95018838Y-57230802D02*
X95018838Y-57383183D01*
X95361695Y-56887945D02*
X94561695Y-56887945D01*
X94561695Y-56887945D02*
X95361695Y-56430802D01*
X95361695Y-56430802D02*
X94561695Y-56430802D01*
X95361695Y-56049850D02*
X94561695Y-56049850D01*
X94561695Y-56049850D02*
X94561695Y-55859374D01*
X94561695Y-55859374D02*
X94599790Y-55745088D01*
X94599790Y-55745088D02*
X94675980Y-55668898D01*
X94675980Y-55668898D02*
X94752171Y-55630803D01*
X94752171Y-55630803D02*
X94904552Y-55592707D01*
X94904552Y-55592707D02*
X95018838Y-55592707D01*
X95018838Y-55592707D02*
X95171219Y-55630803D01*
X95171219Y-55630803D02*
X95247409Y-55668898D01*
X95247409Y-55668898D02*
X95323600Y-55745088D01*
X95323600Y-55745088D02*
X95361695Y-55859374D01*
X95361695Y-55859374D02*
X95361695Y-56049850D01*
X95361695Y-61950802D02*
X94980742Y-62217469D01*
X95361695Y-62407945D02*
X94561695Y-62407945D01*
X94561695Y-62407945D02*
X94561695Y-62103183D01*
X94561695Y-62103183D02*
X94599790Y-62026993D01*
X94599790Y-62026993D02*
X94637885Y-61988898D01*
X94637885Y-61988898D02*
X94714076Y-61950802D01*
X94714076Y-61950802D02*
X94828361Y-61950802D01*
X94828361Y-61950802D02*
X94904552Y-61988898D01*
X94904552Y-61988898D02*
X94942647Y-62026993D01*
X94942647Y-62026993D02*
X94980742Y-62103183D01*
X94980742Y-62103183D02*
X94980742Y-62407945D01*
X94561695Y-61684136D02*
X95361695Y-61150802D01*
X94561695Y-61150802D02*
X95361695Y-61684136D01*
X92563600Y-56806041D02*
X92601695Y-56691755D01*
X92601695Y-56691755D02*
X92601695Y-56501279D01*
X92601695Y-56501279D02*
X92563600Y-56425088D01*
X92563600Y-56425088D02*
X92525504Y-56386993D01*
X92525504Y-56386993D02*
X92449314Y-56348898D01*
X92449314Y-56348898D02*
X92373123Y-56348898D01*
X92373123Y-56348898D02*
X92296933Y-56386993D01*
X92296933Y-56386993D02*
X92258838Y-56425088D01*
X92258838Y-56425088D02*
X92220742Y-56501279D01*
X92220742Y-56501279D02*
X92182647Y-56653660D01*
X92182647Y-56653660D02*
X92144552Y-56729850D01*
X92144552Y-56729850D02*
X92106457Y-56767945D01*
X92106457Y-56767945D02*
X92030266Y-56806041D01*
X92030266Y-56806041D02*
X91954076Y-56806041D01*
X91954076Y-56806041D02*
X91877885Y-56767945D01*
X91877885Y-56767945D02*
X91839790Y-56729850D01*
X91839790Y-56729850D02*
X91801695Y-56653660D01*
X91801695Y-56653660D02*
X91801695Y-56463183D01*
X91801695Y-56463183D02*
X91839790Y-56348898D01*
X92525504Y-55548897D02*
X92563600Y-55586993D01*
X92563600Y-55586993D02*
X92601695Y-55701278D01*
X92601695Y-55701278D02*
X92601695Y-55777469D01*
X92601695Y-55777469D02*
X92563600Y-55891755D01*
X92563600Y-55891755D02*
X92487409Y-55967945D01*
X92487409Y-55967945D02*
X92411219Y-56006040D01*
X92411219Y-56006040D02*
X92258838Y-56044136D01*
X92258838Y-56044136D02*
X92144552Y-56044136D01*
X92144552Y-56044136D02*
X91992171Y-56006040D01*
X91992171Y-56006040D02*
X91915980Y-55967945D01*
X91915980Y-55967945D02*
X91839790Y-55891755D01*
X91839790Y-55891755D02*
X91801695Y-55777469D01*
X91801695Y-55777469D02*
X91801695Y-55701278D01*
X91801695Y-55701278D02*
X91839790Y-55586993D01*
X91839790Y-55586993D02*
X91877885Y-55548897D01*
X92601695Y-54825088D02*
X92601695Y-55206040D01*
X92601695Y-55206040D02*
X91801695Y-55206040D01*
X99589600Y-65837945D02*
X99637219Y-65695088D01*
X99637219Y-65695088D02*
X99637219Y-65456993D01*
X99637219Y-65456993D02*
X99589600Y-65361755D01*
X99589600Y-65361755D02*
X99541980Y-65314136D01*
X99541980Y-65314136D02*
X99446742Y-65266517D01*
X99446742Y-65266517D02*
X99351504Y-65266517D01*
X99351504Y-65266517D02*
X99256266Y-65314136D01*
X99256266Y-65314136D02*
X99208647Y-65361755D01*
X99208647Y-65361755D02*
X99161028Y-65456993D01*
X99161028Y-65456993D02*
X99113409Y-65647469D01*
X99113409Y-65647469D02*
X99065790Y-65742707D01*
X99065790Y-65742707D02*
X99018171Y-65790326D01*
X99018171Y-65790326D02*
X98922933Y-65837945D01*
X98922933Y-65837945D02*
X98827695Y-65837945D01*
X98827695Y-65837945D02*
X98732457Y-65790326D01*
X98732457Y-65790326D02*
X98684838Y-65742707D01*
X98684838Y-65742707D02*
X98637219Y-65647469D01*
X98637219Y-65647469D02*
X98637219Y-65409374D01*
X98637219Y-65409374D02*
X98684838Y-65266517D01*
X99637219Y-64837945D02*
X98637219Y-64837945D01*
X98637219Y-64837945D02*
X99637219Y-64266517D01*
X99637219Y-64266517D02*
X98637219Y-64266517D01*
X99637219Y-63790326D02*
X98637219Y-63790326D01*
X99113409Y-62980803D02*
X99113409Y-63314136D01*
X99637219Y-63314136D02*
X98637219Y-63314136D01*
X98637219Y-63314136D02*
X98637219Y-62837946D01*
X99113409Y-62123660D02*
X99113409Y-62456993D01*
X99637219Y-62456993D02*
X98637219Y-62456993D01*
X98637219Y-62456993D02*
X98637219Y-61980803D01*
X99113409Y-61599850D02*
X99113409Y-61266517D01*
X99637219Y-61123660D02*
X99637219Y-61599850D01*
X99637219Y-61599850D02*
X98637219Y-61599850D01*
X98637219Y-61599850D02*
X98637219Y-61123660D01*
X99637219Y-60123660D02*
X99161028Y-60456993D01*
X99637219Y-60695088D02*
X98637219Y-60695088D01*
X98637219Y-60695088D02*
X98637219Y-60314136D01*
X98637219Y-60314136D02*
X98684838Y-60218898D01*
X98684838Y-60218898D02*
X98732457Y-60171279D01*
X98732457Y-60171279D02*
X98827695Y-60123660D01*
X98827695Y-60123660D02*
X98970552Y-60123660D01*
X98970552Y-60123660D02*
X99065790Y-60171279D01*
X99065790Y-60171279D02*
X99113409Y-60218898D01*
X99113409Y-60218898D02*
X99161028Y-60314136D01*
X99161028Y-60314136D02*
X99161028Y-60695088D01*
X86177219Y-52174136D02*
X86177219Y-52650326D01*
X86177219Y-52650326D02*
X85177219Y-52650326D01*
X86081980Y-51269374D02*
X86129600Y-51316993D01*
X86129600Y-51316993D02*
X86177219Y-51459850D01*
X86177219Y-51459850D02*
X86177219Y-51555088D01*
X86177219Y-51555088D02*
X86129600Y-51697945D01*
X86129600Y-51697945D02*
X86034361Y-51793183D01*
X86034361Y-51793183D02*
X85939123Y-51840802D01*
X85939123Y-51840802D02*
X85748647Y-51888421D01*
X85748647Y-51888421D02*
X85605790Y-51888421D01*
X85605790Y-51888421D02*
X85415314Y-51840802D01*
X85415314Y-51840802D02*
X85320076Y-51793183D01*
X85320076Y-51793183D02*
X85224838Y-51697945D01*
X85224838Y-51697945D02*
X85177219Y-51555088D01*
X85177219Y-51555088D02*
X85177219Y-51459850D01*
X85177219Y-51459850D02*
X85224838Y-51316993D01*
X85224838Y-51316993D02*
X85272457Y-51269374D01*
X86177219Y-50840802D02*
X85177219Y-50840802D01*
X85177219Y-50840802D02*
X85177219Y-50602707D01*
X85177219Y-50602707D02*
X85224838Y-50459850D01*
X85224838Y-50459850D02*
X85320076Y-50364612D01*
X85320076Y-50364612D02*
X85415314Y-50316993D01*
X85415314Y-50316993D02*
X85605790Y-50269374D01*
X85605790Y-50269374D02*
X85748647Y-50269374D01*
X85748647Y-50269374D02*
X85939123Y-50316993D01*
X85939123Y-50316993D02*
X86034361Y-50364612D01*
X86034361Y-50364612D02*
X86129600Y-50459850D01*
X86129600Y-50459850D02*
X86177219Y-50602707D01*
X86177219Y-50602707D02*
X86177219Y-50840802D01*
X92563600Y-54206041D02*
X92601695Y-54091755D01*
X92601695Y-54091755D02*
X92601695Y-53901279D01*
X92601695Y-53901279D02*
X92563600Y-53825088D01*
X92563600Y-53825088D02*
X92525504Y-53786993D01*
X92525504Y-53786993D02*
X92449314Y-53748898D01*
X92449314Y-53748898D02*
X92373123Y-53748898D01*
X92373123Y-53748898D02*
X92296933Y-53786993D01*
X92296933Y-53786993D02*
X92258838Y-53825088D01*
X92258838Y-53825088D02*
X92220742Y-53901279D01*
X92220742Y-53901279D02*
X92182647Y-54053660D01*
X92182647Y-54053660D02*
X92144552Y-54129850D01*
X92144552Y-54129850D02*
X92106457Y-54167945D01*
X92106457Y-54167945D02*
X92030266Y-54206041D01*
X92030266Y-54206041D02*
X91954076Y-54206041D01*
X91954076Y-54206041D02*
X91877885Y-54167945D01*
X91877885Y-54167945D02*
X91839790Y-54129850D01*
X91839790Y-54129850D02*
X91801695Y-54053660D01*
X91801695Y-54053660D02*
X91801695Y-53863183D01*
X91801695Y-53863183D02*
X91839790Y-53748898D01*
X92601695Y-53406040D02*
X91801695Y-53406040D01*
X91801695Y-53406040D02*
X91801695Y-53215564D01*
X91801695Y-53215564D02*
X91839790Y-53101278D01*
X91839790Y-53101278D02*
X91915980Y-53025088D01*
X91915980Y-53025088D02*
X91992171Y-52986993D01*
X91992171Y-52986993D02*
X92144552Y-52948897D01*
X92144552Y-52948897D02*
X92258838Y-52948897D01*
X92258838Y-52948897D02*
X92411219Y-52986993D01*
X92411219Y-52986993D02*
X92487409Y-53025088D01*
X92487409Y-53025088D02*
X92563600Y-53101278D01*
X92563600Y-53101278D02*
X92601695Y-53215564D01*
X92601695Y-53215564D02*
X92601695Y-53406040D01*
X92373123Y-52644136D02*
X92373123Y-52263183D01*
X92601695Y-52720326D02*
X91801695Y-52453659D01*
X91801695Y-52453659D02*
X92601695Y-52186993D01*
X94561695Y-64812231D02*
X94561695Y-64355088D01*
X95361695Y-64583660D02*
X94561695Y-64583660D01*
X94561695Y-64164612D02*
X95361695Y-63631278D01*
X94561695Y-63631278D02*
X95361695Y-64164612D01*
D11*
X110766666Y-59934819D02*
X110766666Y-60649104D01*
X110766666Y-60649104D02*
X110719047Y-60791961D01*
X110719047Y-60791961D02*
X110623809Y-60887200D01*
X110623809Y-60887200D02*
X110480952Y-60934819D01*
X110480952Y-60934819D02*
X110385714Y-60934819D01*
X111719047Y-59934819D02*
X111242857Y-59934819D01*
X111242857Y-59934819D02*
X111195238Y-60411009D01*
X111195238Y-60411009D02*
X111242857Y-60363390D01*
X111242857Y-60363390D02*
X111338095Y-60315771D01*
X111338095Y-60315771D02*
X111576190Y-60315771D01*
X111576190Y-60315771D02*
X111671428Y-60363390D01*
X111671428Y-60363390D02*
X111719047Y-60411009D01*
X111719047Y-60411009D02*
X111766666Y-60506247D01*
X111766666Y-60506247D02*
X111766666Y-60744342D01*
X111766666Y-60744342D02*
X111719047Y-60839580D01*
X111719047Y-60839580D02*
X111671428Y-60887200D01*
X111671428Y-60887200D02*
X111576190Y-60934819D01*
X111576190Y-60934819D02*
X111338095Y-60934819D01*
X111338095Y-60934819D02*
X111242857Y-60887200D01*
X111242857Y-60887200D02*
X111195238Y-60839580D01*
X80459580Y-47332857D02*
X80507200Y-47380476D01*
X80507200Y-47380476D02*
X80554819Y-47523333D01*
X80554819Y-47523333D02*
X80554819Y-47618571D01*
X80554819Y-47618571D02*
X80507200Y-47761428D01*
X80507200Y-47761428D02*
X80411961Y-47856666D01*
X80411961Y-47856666D02*
X80316723Y-47904285D01*
X80316723Y-47904285D02*
X80126247Y-47951904D01*
X80126247Y-47951904D02*
X79983390Y-47951904D01*
X79983390Y-47951904D02*
X79792914Y-47904285D01*
X79792914Y-47904285D02*
X79697676Y-47856666D01*
X79697676Y-47856666D02*
X79602438Y-47761428D01*
X79602438Y-47761428D02*
X79554819Y-47618571D01*
X79554819Y-47618571D02*
X79554819Y-47523333D01*
X79554819Y-47523333D02*
X79602438Y-47380476D01*
X79602438Y-47380476D02*
X79650057Y-47332857D01*
X80554819Y-46380476D02*
X80554819Y-46951904D01*
X80554819Y-46666190D02*
X79554819Y-46666190D01*
X79554819Y-46666190D02*
X79697676Y-46761428D01*
X79697676Y-46761428D02*
X79792914Y-46856666D01*
X79792914Y-46856666D02*
X79840533Y-46951904D01*
X79650057Y-45999523D02*
X79602438Y-45951904D01*
X79602438Y-45951904D02*
X79554819Y-45856666D01*
X79554819Y-45856666D02*
X79554819Y-45618571D01*
X79554819Y-45618571D02*
X79602438Y-45523333D01*
X79602438Y-45523333D02*
X79650057Y-45475714D01*
X79650057Y-45475714D02*
X79745295Y-45428095D01*
X79745295Y-45428095D02*
X79840533Y-45428095D01*
X79840533Y-45428095D02*
X79983390Y-45475714D01*
X79983390Y-45475714D02*
X80554819Y-46047142D01*
X80554819Y-46047142D02*
X80554819Y-45428095D01*
X79313333Y-42149580D02*
X79265714Y-42197200D01*
X79265714Y-42197200D02*
X79122857Y-42244819D01*
X79122857Y-42244819D02*
X79027619Y-42244819D01*
X79027619Y-42244819D02*
X78884762Y-42197200D01*
X78884762Y-42197200D02*
X78789524Y-42101961D01*
X78789524Y-42101961D02*
X78741905Y-42006723D01*
X78741905Y-42006723D02*
X78694286Y-41816247D01*
X78694286Y-41816247D02*
X78694286Y-41673390D01*
X78694286Y-41673390D02*
X78741905Y-41482914D01*
X78741905Y-41482914D02*
X78789524Y-41387676D01*
X78789524Y-41387676D02*
X78884762Y-41292438D01*
X78884762Y-41292438D02*
X79027619Y-41244819D01*
X79027619Y-41244819D02*
X79122857Y-41244819D01*
X79122857Y-41244819D02*
X79265714Y-41292438D01*
X79265714Y-41292438D02*
X79313333Y-41340057D01*
X79884762Y-41673390D02*
X79789524Y-41625771D01*
X79789524Y-41625771D02*
X79741905Y-41578152D01*
X79741905Y-41578152D02*
X79694286Y-41482914D01*
X79694286Y-41482914D02*
X79694286Y-41435295D01*
X79694286Y-41435295D02*
X79741905Y-41340057D01*
X79741905Y-41340057D02*
X79789524Y-41292438D01*
X79789524Y-41292438D02*
X79884762Y-41244819D01*
X79884762Y-41244819D02*
X80075238Y-41244819D01*
X80075238Y-41244819D02*
X80170476Y-41292438D01*
X80170476Y-41292438D02*
X80218095Y-41340057D01*
X80218095Y-41340057D02*
X80265714Y-41435295D01*
X80265714Y-41435295D02*
X80265714Y-41482914D01*
X80265714Y-41482914D02*
X80218095Y-41578152D01*
X80218095Y-41578152D02*
X80170476Y-41625771D01*
X80170476Y-41625771D02*
X80075238Y-41673390D01*
X80075238Y-41673390D02*
X79884762Y-41673390D01*
X79884762Y-41673390D02*
X79789524Y-41721009D01*
X79789524Y-41721009D02*
X79741905Y-41768628D01*
X79741905Y-41768628D02*
X79694286Y-41863866D01*
X79694286Y-41863866D02*
X79694286Y-42054342D01*
X79694286Y-42054342D02*
X79741905Y-42149580D01*
X79741905Y-42149580D02*
X79789524Y-42197200D01*
X79789524Y-42197200D02*
X79884762Y-42244819D01*
X79884762Y-42244819D02*
X80075238Y-42244819D01*
X80075238Y-42244819D02*
X80170476Y-42197200D01*
X80170476Y-42197200D02*
X80218095Y-42149580D01*
X80218095Y-42149580D02*
X80265714Y-42054342D01*
X80265714Y-42054342D02*
X80265714Y-41863866D01*
X80265714Y-41863866D02*
X80218095Y-41768628D01*
X80218095Y-41768628D02*
X80170476Y-41721009D01*
X80170476Y-41721009D02*
X80075238Y-41673390D01*
X82603333Y-66084819D02*
X82270000Y-65608628D01*
X82031905Y-66084819D02*
X82031905Y-65084819D01*
X82031905Y-65084819D02*
X82412857Y-65084819D01*
X82412857Y-65084819D02*
X82508095Y-65132438D01*
X82508095Y-65132438D02*
X82555714Y-65180057D01*
X82555714Y-65180057D02*
X82603333Y-65275295D01*
X82603333Y-65275295D02*
X82603333Y-65418152D01*
X82603333Y-65418152D02*
X82555714Y-65513390D01*
X82555714Y-65513390D02*
X82508095Y-65561009D01*
X82508095Y-65561009D02*
X82412857Y-65608628D01*
X82412857Y-65608628D02*
X82031905Y-65608628D01*
X83508095Y-65084819D02*
X83031905Y-65084819D01*
X83031905Y-65084819D02*
X82984286Y-65561009D01*
X82984286Y-65561009D02*
X83031905Y-65513390D01*
X83031905Y-65513390D02*
X83127143Y-65465771D01*
X83127143Y-65465771D02*
X83365238Y-65465771D01*
X83365238Y-65465771D02*
X83460476Y-65513390D01*
X83460476Y-65513390D02*
X83508095Y-65561009D01*
X83508095Y-65561009D02*
X83555714Y-65656247D01*
X83555714Y-65656247D02*
X83555714Y-65894342D01*
X83555714Y-65894342D02*
X83508095Y-65989580D01*
X83508095Y-65989580D02*
X83460476Y-66037200D01*
X83460476Y-66037200D02*
X83365238Y-66084819D01*
X83365238Y-66084819D02*
X83127143Y-66084819D01*
X83127143Y-66084819D02*
X83031905Y-66037200D01*
X83031905Y-66037200D02*
X82984286Y-65989580D01*
X94583333Y-71219580D02*
X94535714Y-71267200D01*
X94535714Y-71267200D02*
X94392857Y-71314819D01*
X94392857Y-71314819D02*
X94297619Y-71314819D01*
X94297619Y-71314819D02*
X94154762Y-71267200D01*
X94154762Y-71267200D02*
X94059524Y-71171961D01*
X94059524Y-71171961D02*
X94011905Y-71076723D01*
X94011905Y-71076723D02*
X93964286Y-70886247D01*
X93964286Y-70886247D02*
X93964286Y-70743390D01*
X93964286Y-70743390D02*
X94011905Y-70552914D01*
X94011905Y-70552914D02*
X94059524Y-70457676D01*
X94059524Y-70457676D02*
X94154762Y-70362438D01*
X94154762Y-70362438D02*
X94297619Y-70314819D01*
X94297619Y-70314819D02*
X94392857Y-70314819D01*
X94392857Y-70314819D02*
X94535714Y-70362438D01*
X94535714Y-70362438D02*
X94583333Y-70410057D01*
X94964286Y-70410057D02*
X95011905Y-70362438D01*
X95011905Y-70362438D02*
X95107143Y-70314819D01*
X95107143Y-70314819D02*
X95345238Y-70314819D01*
X95345238Y-70314819D02*
X95440476Y-70362438D01*
X95440476Y-70362438D02*
X95488095Y-70410057D01*
X95488095Y-70410057D02*
X95535714Y-70505295D01*
X95535714Y-70505295D02*
X95535714Y-70600533D01*
X95535714Y-70600533D02*
X95488095Y-70743390D01*
X95488095Y-70743390D02*
X94916667Y-71314819D01*
X94916667Y-71314819D02*
X95535714Y-71314819D01*
X83469819Y-73232857D02*
X82993628Y-73566190D01*
X83469819Y-73804285D02*
X82469819Y-73804285D01*
X82469819Y-73804285D02*
X82469819Y-73423333D01*
X82469819Y-73423333D02*
X82517438Y-73328095D01*
X82517438Y-73328095D02*
X82565057Y-73280476D01*
X82565057Y-73280476D02*
X82660295Y-73232857D01*
X82660295Y-73232857D02*
X82803152Y-73232857D01*
X82803152Y-73232857D02*
X82898390Y-73280476D01*
X82898390Y-73280476D02*
X82946009Y-73328095D01*
X82946009Y-73328095D02*
X82993628Y-73423333D01*
X82993628Y-73423333D02*
X82993628Y-73804285D01*
X83469819Y-72280476D02*
X83469819Y-72851904D01*
X83469819Y-72566190D02*
X82469819Y-72566190D01*
X82469819Y-72566190D02*
X82612676Y-72661428D01*
X82612676Y-72661428D02*
X82707914Y-72756666D01*
X82707914Y-72756666D02*
X82755533Y-72851904D01*
X82469819Y-71661428D02*
X82469819Y-71566190D01*
X82469819Y-71566190D02*
X82517438Y-71470952D01*
X82517438Y-71470952D02*
X82565057Y-71423333D01*
X82565057Y-71423333D02*
X82660295Y-71375714D01*
X82660295Y-71375714D02*
X82850771Y-71328095D01*
X82850771Y-71328095D02*
X83088866Y-71328095D01*
X83088866Y-71328095D02*
X83279342Y-71375714D01*
X83279342Y-71375714D02*
X83374580Y-71423333D01*
X83374580Y-71423333D02*
X83422200Y-71470952D01*
X83422200Y-71470952D02*
X83469819Y-71566190D01*
X83469819Y-71566190D02*
X83469819Y-71661428D01*
X83469819Y-71661428D02*
X83422200Y-71756666D01*
X83422200Y-71756666D02*
X83374580Y-71804285D01*
X83374580Y-71804285D02*
X83279342Y-71851904D01*
X83279342Y-71851904D02*
X83088866Y-71899523D01*
X83088866Y-71899523D02*
X82850771Y-71899523D01*
X82850771Y-71899523D02*
X82660295Y-71851904D01*
X82660295Y-71851904D02*
X82565057Y-71804285D01*
X82565057Y-71804285D02*
X82517438Y-71756666D01*
X82517438Y-71756666D02*
X82469819Y-71661428D01*
X86553333Y-63704819D02*
X86220000Y-63228628D01*
X85981905Y-63704819D02*
X85981905Y-62704819D01*
X85981905Y-62704819D02*
X86362857Y-62704819D01*
X86362857Y-62704819D02*
X86458095Y-62752438D01*
X86458095Y-62752438D02*
X86505714Y-62800057D01*
X86505714Y-62800057D02*
X86553333Y-62895295D01*
X86553333Y-62895295D02*
X86553333Y-63038152D01*
X86553333Y-63038152D02*
X86505714Y-63133390D01*
X86505714Y-63133390D02*
X86458095Y-63181009D01*
X86458095Y-63181009D02*
X86362857Y-63228628D01*
X86362857Y-63228628D02*
X85981905Y-63228628D01*
X87124762Y-63133390D02*
X87029524Y-63085771D01*
X87029524Y-63085771D02*
X86981905Y-63038152D01*
X86981905Y-63038152D02*
X86934286Y-62942914D01*
X86934286Y-62942914D02*
X86934286Y-62895295D01*
X86934286Y-62895295D02*
X86981905Y-62800057D01*
X86981905Y-62800057D02*
X87029524Y-62752438D01*
X87029524Y-62752438D02*
X87124762Y-62704819D01*
X87124762Y-62704819D02*
X87315238Y-62704819D01*
X87315238Y-62704819D02*
X87410476Y-62752438D01*
X87410476Y-62752438D02*
X87458095Y-62800057D01*
X87458095Y-62800057D02*
X87505714Y-62895295D01*
X87505714Y-62895295D02*
X87505714Y-62942914D01*
X87505714Y-62942914D02*
X87458095Y-63038152D01*
X87458095Y-63038152D02*
X87410476Y-63085771D01*
X87410476Y-63085771D02*
X87315238Y-63133390D01*
X87315238Y-63133390D02*
X87124762Y-63133390D01*
X87124762Y-63133390D02*
X87029524Y-63181009D01*
X87029524Y-63181009D02*
X86981905Y-63228628D01*
X86981905Y-63228628D02*
X86934286Y-63323866D01*
X86934286Y-63323866D02*
X86934286Y-63514342D01*
X86934286Y-63514342D02*
X86981905Y-63609580D01*
X86981905Y-63609580D02*
X87029524Y-63657200D01*
X87029524Y-63657200D02*
X87124762Y-63704819D01*
X87124762Y-63704819D02*
X87315238Y-63704819D01*
X87315238Y-63704819D02*
X87410476Y-63657200D01*
X87410476Y-63657200D02*
X87458095Y-63609580D01*
X87458095Y-63609580D02*
X87505714Y-63514342D01*
X87505714Y-63514342D02*
X87505714Y-63323866D01*
X87505714Y-63323866D02*
X87458095Y-63228628D01*
X87458095Y-63228628D02*
X87410476Y-63181009D01*
X87410476Y-63181009D02*
X87315238Y-63133390D01*
X86154819Y-72756667D02*
X85678628Y-73090000D01*
X86154819Y-73328095D02*
X85154819Y-73328095D01*
X85154819Y-73328095D02*
X85154819Y-72947143D01*
X85154819Y-72947143D02*
X85202438Y-72851905D01*
X85202438Y-72851905D02*
X85250057Y-72804286D01*
X85250057Y-72804286D02*
X85345295Y-72756667D01*
X85345295Y-72756667D02*
X85488152Y-72756667D01*
X85488152Y-72756667D02*
X85583390Y-72804286D01*
X85583390Y-72804286D02*
X85631009Y-72851905D01*
X85631009Y-72851905D02*
X85678628Y-72947143D01*
X85678628Y-72947143D02*
X85678628Y-73328095D01*
X86154819Y-72280476D02*
X86154819Y-72090000D01*
X86154819Y-72090000D02*
X86107200Y-71994762D01*
X86107200Y-71994762D02*
X86059580Y-71947143D01*
X86059580Y-71947143D02*
X85916723Y-71851905D01*
X85916723Y-71851905D02*
X85726247Y-71804286D01*
X85726247Y-71804286D02*
X85345295Y-71804286D01*
X85345295Y-71804286D02*
X85250057Y-71851905D01*
X85250057Y-71851905D02*
X85202438Y-71899524D01*
X85202438Y-71899524D02*
X85154819Y-71994762D01*
X85154819Y-71994762D02*
X85154819Y-72185238D01*
X85154819Y-72185238D02*
X85202438Y-72280476D01*
X85202438Y-72280476D02*
X85250057Y-72328095D01*
X85250057Y-72328095D02*
X85345295Y-72375714D01*
X85345295Y-72375714D02*
X85583390Y-72375714D01*
X85583390Y-72375714D02*
X85678628Y-72328095D01*
X85678628Y-72328095D02*
X85726247Y-72280476D01*
X85726247Y-72280476D02*
X85773866Y-72185238D01*
X85773866Y-72185238D02*
X85773866Y-71994762D01*
X85773866Y-71994762D02*
X85726247Y-71899524D01*
X85726247Y-71899524D02*
X85678628Y-71851905D01*
X85678628Y-71851905D02*
X85583390Y-71804286D01*
X89888333Y-75924580D02*
X89840714Y-75972200D01*
X89840714Y-75972200D02*
X89697857Y-76019819D01*
X89697857Y-76019819D02*
X89602619Y-76019819D01*
X89602619Y-76019819D02*
X89459762Y-75972200D01*
X89459762Y-75972200D02*
X89364524Y-75876961D01*
X89364524Y-75876961D02*
X89316905Y-75781723D01*
X89316905Y-75781723D02*
X89269286Y-75591247D01*
X89269286Y-75591247D02*
X89269286Y-75448390D01*
X89269286Y-75448390D02*
X89316905Y-75257914D01*
X89316905Y-75257914D02*
X89364524Y-75162676D01*
X89364524Y-75162676D02*
X89459762Y-75067438D01*
X89459762Y-75067438D02*
X89602619Y-75019819D01*
X89602619Y-75019819D02*
X89697857Y-75019819D01*
X89697857Y-75019819D02*
X89840714Y-75067438D01*
X89840714Y-75067438D02*
X89888333Y-75115057D01*
X90364524Y-76019819D02*
X90555000Y-76019819D01*
X90555000Y-76019819D02*
X90650238Y-75972200D01*
X90650238Y-75972200D02*
X90697857Y-75924580D01*
X90697857Y-75924580D02*
X90793095Y-75781723D01*
X90793095Y-75781723D02*
X90840714Y-75591247D01*
X90840714Y-75591247D02*
X90840714Y-75210295D01*
X90840714Y-75210295D02*
X90793095Y-75115057D01*
X90793095Y-75115057D02*
X90745476Y-75067438D01*
X90745476Y-75067438D02*
X90650238Y-75019819D01*
X90650238Y-75019819D02*
X90459762Y-75019819D01*
X90459762Y-75019819D02*
X90364524Y-75067438D01*
X90364524Y-75067438D02*
X90316905Y-75115057D01*
X90316905Y-75115057D02*
X90269286Y-75210295D01*
X90269286Y-75210295D02*
X90269286Y-75448390D01*
X90269286Y-75448390D02*
X90316905Y-75543628D01*
X90316905Y-75543628D02*
X90364524Y-75591247D01*
X90364524Y-75591247D02*
X90459762Y-75638866D01*
X90459762Y-75638866D02*
X90650238Y-75638866D01*
X90650238Y-75638866D02*
X90745476Y-75591247D01*
X90745476Y-75591247D02*
X90793095Y-75543628D01*
X90793095Y-75543628D02*
X90840714Y-75448390D01*
X87881905Y-74784819D02*
X87881905Y-73784819D01*
X87881905Y-73784819D02*
X88120000Y-73784819D01*
X88120000Y-73784819D02*
X88262857Y-73832438D01*
X88262857Y-73832438D02*
X88358095Y-73927676D01*
X88358095Y-73927676D02*
X88405714Y-74022914D01*
X88405714Y-74022914D02*
X88453333Y-74213390D01*
X88453333Y-74213390D02*
X88453333Y-74356247D01*
X88453333Y-74356247D02*
X88405714Y-74546723D01*
X88405714Y-74546723D02*
X88358095Y-74641961D01*
X88358095Y-74641961D02*
X88262857Y-74737200D01*
X88262857Y-74737200D02*
X88120000Y-74784819D01*
X88120000Y-74784819D02*
X87881905Y-74784819D01*
X89405714Y-74784819D02*
X88834286Y-74784819D01*
X89120000Y-74784819D02*
X89120000Y-73784819D01*
X89120000Y-73784819D02*
X89024762Y-73927676D01*
X89024762Y-73927676D02*
X88929524Y-74022914D01*
X88929524Y-74022914D02*
X88834286Y-74070533D01*
X90596666Y-46244819D02*
X90596666Y-46959104D01*
X90596666Y-46959104D02*
X90549047Y-47101961D01*
X90549047Y-47101961D02*
X90453809Y-47197200D01*
X90453809Y-47197200D02*
X90310952Y-47244819D01*
X90310952Y-47244819D02*
X90215714Y-47244819D01*
X90977619Y-46244819D02*
X91644285Y-46244819D01*
X91644285Y-46244819D02*
X91215714Y-47244819D01*
X85461666Y-84879819D02*
X85461666Y-85594104D01*
X85461666Y-85594104D02*
X85414047Y-85736961D01*
X85414047Y-85736961D02*
X85318809Y-85832200D01*
X85318809Y-85832200D02*
X85175952Y-85879819D01*
X85175952Y-85879819D02*
X85080714Y-85879819D01*
X85890238Y-84975057D02*
X85937857Y-84927438D01*
X85937857Y-84927438D02*
X86033095Y-84879819D01*
X86033095Y-84879819D02*
X86271190Y-84879819D01*
X86271190Y-84879819D02*
X86366428Y-84927438D01*
X86366428Y-84927438D02*
X86414047Y-84975057D01*
X86414047Y-84975057D02*
X86461666Y-85070295D01*
X86461666Y-85070295D02*
X86461666Y-85165533D01*
X86461666Y-85165533D02*
X86414047Y-85308390D01*
X86414047Y-85308390D02*
X85842619Y-85879819D01*
X85842619Y-85879819D02*
X86461666Y-85879819D01*
X85909580Y-60226666D02*
X85957200Y-60274285D01*
X85957200Y-60274285D02*
X86004819Y-60417142D01*
X86004819Y-60417142D02*
X86004819Y-60512380D01*
X86004819Y-60512380D02*
X85957200Y-60655237D01*
X85957200Y-60655237D02*
X85861961Y-60750475D01*
X85861961Y-60750475D02*
X85766723Y-60798094D01*
X85766723Y-60798094D02*
X85576247Y-60845713D01*
X85576247Y-60845713D02*
X85433390Y-60845713D01*
X85433390Y-60845713D02*
X85242914Y-60798094D01*
X85242914Y-60798094D02*
X85147676Y-60750475D01*
X85147676Y-60750475D02*
X85052438Y-60655237D01*
X85052438Y-60655237D02*
X85004819Y-60512380D01*
X85004819Y-60512380D02*
X85004819Y-60417142D01*
X85004819Y-60417142D02*
X85052438Y-60274285D01*
X85052438Y-60274285D02*
X85100057Y-60226666D01*
X85338152Y-59369523D02*
X86004819Y-59369523D01*
X84957200Y-59607618D02*
X85671485Y-59845713D01*
X85671485Y-59845713D02*
X85671485Y-59226666D01*
X81346666Y-45674819D02*
X81346666Y-46389104D01*
X81346666Y-46389104D02*
X81299047Y-46531961D01*
X81299047Y-46531961D02*
X81203809Y-46627200D01*
X81203809Y-46627200D02*
X81060952Y-46674819D01*
X81060952Y-46674819D02*
X80965714Y-46674819D01*
X82251428Y-45674819D02*
X82060952Y-45674819D01*
X82060952Y-45674819D02*
X81965714Y-45722438D01*
X81965714Y-45722438D02*
X81918095Y-45770057D01*
X81918095Y-45770057D02*
X81822857Y-45912914D01*
X81822857Y-45912914D02*
X81775238Y-46103390D01*
X81775238Y-46103390D02*
X81775238Y-46484342D01*
X81775238Y-46484342D02*
X81822857Y-46579580D01*
X81822857Y-46579580D02*
X81870476Y-46627200D01*
X81870476Y-46627200D02*
X81965714Y-46674819D01*
X81965714Y-46674819D02*
X82156190Y-46674819D01*
X82156190Y-46674819D02*
X82251428Y-46627200D01*
X82251428Y-46627200D02*
X82299047Y-46579580D01*
X82299047Y-46579580D02*
X82346666Y-46484342D01*
X82346666Y-46484342D02*
X82346666Y-46246247D01*
X82346666Y-46246247D02*
X82299047Y-46151009D01*
X82299047Y-46151009D02*
X82251428Y-46103390D01*
X82251428Y-46103390D02*
X82156190Y-46055771D01*
X82156190Y-46055771D02*
X81965714Y-46055771D01*
X81965714Y-46055771D02*
X81870476Y-46103390D01*
X81870476Y-46103390D02*
X81822857Y-46151009D01*
X81822857Y-46151009D02*
X81775238Y-46246247D01*
X87851905Y-66244819D02*
X87851905Y-65244819D01*
X87851905Y-65244819D02*
X88090000Y-65244819D01*
X88090000Y-65244819D02*
X88232857Y-65292438D01*
X88232857Y-65292438D02*
X88328095Y-65387676D01*
X88328095Y-65387676D02*
X88375714Y-65482914D01*
X88375714Y-65482914D02*
X88423333Y-65673390D01*
X88423333Y-65673390D02*
X88423333Y-65816247D01*
X88423333Y-65816247D02*
X88375714Y-66006723D01*
X88375714Y-66006723D02*
X88328095Y-66101961D01*
X88328095Y-66101961D02*
X88232857Y-66197200D01*
X88232857Y-66197200D02*
X88090000Y-66244819D01*
X88090000Y-66244819D02*
X87851905Y-66244819D01*
X88804286Y-65340057D02*
X88851905Y-65292438D01*
X88851905Y-65292438D02*
X88947143Y-65244819D01*
X88947143Y-65244819D02*
X89185238Y-65244819D01*
X89185238Y-65244819D02*
X89280476Y-65292438D01*
X89280476Y-65292438D02*
X89328095Y-65340057D01*
X89328095Y-65340057D02*
X89375714Y-65435295D01*
X89375714Y-65435295D02*
X89375714Y-65530533D01*
X89375714Y-65530533D02*
X89328095Y-65673390D01*
X89328095Y-65673390D02*
X88756667Y-66244819D01*
X88756667Y-66244819D02*
X89375714Y-66244819D01*
X90163333Y-63194819D02*
X89830000Y-62718628D01*
X89591905Y-63194819D02*
X89591905Y-62194819D01*
X89591905Y-62194819D02*
X89972857Y-62194819D01*
X89972857Y-62194819D02*
X90068095Y-62242438D01*
X90068095Y-62242438D02*
X90115714Y-62290057D01*
X90115714Y-62290057D02*
X90163333Y-62385295D01*
X90163333Y-62385295D02*
X90163333Y-62528152D01*
X90163333Y-62528152D02*
X90115714Y-62623390D01*
X90115714Y-62623390D02*
X90068095Y-62671009D01*
X90068095Y-62671009D02*
X89972857Y-62718628D01*
X89972857Y-62718628D02*
X89591905Y-62718628D01*
X90496667Y-62194819D02*
X91163333Y-62194819D01*
X91163333Y-62194819D02*
X90734762Y-63194819D01*
X85458333Y-57579819D02*
X85125000Y-57103628D01*
X84886905Y-57579819D02*
X84886905Y-56579819D01*
X84886905Y-56579819D02*
X85267857Y-56579819D01*
X85267857Y-56579819D02*
X85363095Y-56627438D01*
X85363095Y-56627438D02*
X85410714Y-56675057D01*
X85410714Y-56675057D02*
X85458333Y-56770295D01*
X85458333Y-56770295D02*
X85458333Y-56913152D01*
X85458333Y-56913152D02*
X85410714Y-57008390D01*
X85410714Y-57008390D02*
X85363095Y-57056009D01*
X85363095Y-57056009D02*
X85267857Y-57103628D01*
X85267857Y-57103628D02*
X84886905Y-57103628D01*
X86410714Y-57579819D02*
X85839286Y-57579819D01*
X86125000Y-57579819D02*
X86125000Y-56579819D01*
X86125000Y-56579819D02*
X86029762Y-56722676D01*
X86029762Y-56722676D02*
X85934524Y-56817914D01*
X85934524Y-56817914D02*
X85839286Y-56865533D01*
X93443333Y-66129580D02*
X93395714Y-66177200D01*
X93395714Y-66177200D02*
X93252857Y-66224819D01*
X93252857Y-66224819D02*
X93157619Y-66224819D01*
X93157619Y-66224819D02*
X93014762Y-66177200D01*
X93014762Y-66177200D02*
X92919524Y-66081961D01*
X92919524Y-66081961D02*
X92871905Y-65986723D01*
X92871905Y-65986723D02*
X92824286Y-65796247D01*
X92824286Y-65796247D02*
X92824286Y-65653390D01*
X92824286Y-65653390D02*
X92871905Y-65462914D01*
X92871905Y-65462914D02*
X92919524Y-65367676D01*
X92919524Y-65367676D02*
X93014762Y-65272438D01*
X93014762Y-65272438D02*
X93157619Y-65224819D01*
X93157619Y-65224819D02*
X93252857Y-65224819D01*
X93252857Y-65224819D02*
X93395714Y-65272438D01*
X93395714Y-65272438D02*
X93443333Y-65320057D01*
X93776667Y-65224819D02*
X94395714Y-65224819D01*
X94395714Y-65224819D02*
X94062381Y-65605771D01*
X94062381Y-65605771D02*
X94205238Y-65605771D01*
X94205238Y-65605771D02*
X94300476Y-65653390D01*
X94300476Y-65653390D02*
X94348095Y-65701009D01*
X94348095Y-65701009D02*
X94395714Y-65796247D01*
X94395714Y-65796247D02*
X94395714Y-66034342D01*
X94395714Y-66034342D02*
X94348095Y-66129580D01*
X94348095Y-66129580D02*
X94300476Y-66177200D01*
X94300476Y-66177200D02*
X94205238Y-66224819D01*
X94205238Y-66224819D02*
X93919524Y-66224819D01*
X93919524Y-66224819D02*
X93824286Y-66177200D01*
X93824286Y-66177200D02*
X93776667Y-66129580D01*
X90308095Y-56584819D02*
X90308095Y-57394342D01*
X90308095Y-57394342D02*
X90355714Y-57489580D01*
X90355714Y-57489580D02*
X90403333Y-57537200D01*
X90403333Y-57537200D02*
X90498571Y-57584819D01*
X90498571Y-57584819D02*
X90689047Y-57584819D01*
X90689047Y-57584819D02*
X90784285Y-57537200D01*
X90784285Y-57537200D02*
X90831904Y-57489580D01*
X90831904Y-57489580D02*
X90879523Y-57394342D01*
X90879523Y-57394342D02*
X90879523Y-56584819D01*
X91879523Y-57584819D02*
X91308095Y-57584819D01*
X91593809Y-57584819D02*
X91593809Y-56584819D01*
X91593809Y-56584819D02*
X91498571Y-56727676D01*
X91498571Y-56727676D02*
X91403333Y-56822914D01*
X91403333Y-56822914D02*
X91308095Y-56870533D01*
X93340595Y-36612319D02*
X93340595Y-37421842D01*
X93340595Y-37421842D02*
X93388214Y-37517080D01*
X93388214Y-37517080D02*
X93435833Y-37564700D01*
X93435833Y-37564700D02*
X93531071Y-37612319D01*
X93531071Y-37612319D02*
X93721547Y-37612319D01*
X93721547Y-37612319D02*
X93816785Y-37564700D01*
X93816785Y-37564700D02*
X93864404Y-37517080D01*
X93864404Y-37517080D02*
X93912023Y-37421842D01*
X93912023Y-37421842D02*
X93912023Y-36612319D01*
X94292976Y-36612319D02*
X94912023Y-36612319D01*
X94912023Y-36612319D02*
X94578690Y-36993271D01*
X94578690Y-36993271D02*
X94721547Y-36993271D01*
X94721547Y-36993271D02*
X94816785Y-37040890D01*
X94816785Y-37040890D02*
X94864404Y-37088509D01*
X94864404Y-37088509D02*
X94912023Y-37183747D01*
X94912023Y-37183747D02*
X94912023Y-37421842D01*
X94912023Y-37421842D02*
X94864404Y-37517080D01*
X94864404Y-37517080D02*
X94816785Y-37564700D01*
X94816785Y-37564700D02*
X94721547Y-37612319D01*
X94721547Y-37612319D02*
X94435833Y-37612319D01*
X94435833Y-37612319D02*
X94340595Y-37564700D01*
X94340595Y-37564700D02*
X94292976Y-37517080D01*
X97414819Y-67093333D02*
X98129104Y-67093333D01*
X98129104Y-67093333D02*
X98271961Y-67140952D01*
X98271961Y-67140952D02*
X98367200Y-67236190D01*
X98367200Y-67236190D02*
X98414819Y-67379047D01*
X98414819Y-67379047D02*
X98414819Y-67474285D01*
X97843390Y-66474285D02*
X97795771Y-66569523D01*
X97795771Y-66569523D02*
X97748152Y-66617142D01*
X97748152Y-66617142D02*
X97652914Y-66664761D01*
X97652914Y-66664761D02*
X97605295Y-66664761D01*
X97605295Y-66664761D02*
X97510057Y-66617142D01*
X97510057Y-66617142D02*
X97462438Y-66569523D01*
X97462438Y-66569523D02*
X97414819Y-66474285D01*
X97414819Y-66474285D02*
X97414819Y-66283809D01*
X97414819Y-66283809D02*
X97462438Y-66188571D01*
X97462438Y-66188571D02*
X97510057Y-66140952D01*
X97510057Y-66140952D02*
X97605295Y-66093333D01*
X97605295Y-66093333D02*
X97652914Y-66093333D01*
X97652914Y-66093333D02*
X97748152Y-66140952D01*
X97748152Y-66140952D02*
X97795771Y-66188571D01*
X97795771Y-66188571D02*
X97843390Y-66283809D01*
X97843390Y-66283809D02*
X97843390Y-66474285D01*
X97843390Y-66474285D02*
X97891009Y-66569523D01*
X97891009Y-66569523D02*
X97938628Y-66617142D01*
X97938628Y-66617142D02*
X98033866Y-66664761D01*
X98033866Y-66664761D02*
X98224342Y-66664761D01*
X98224342Y-66664761D02*
X98319580Y-66617142D01*
X98319580Y-66617142D02*
X98367200Y-66569523D01*
X98367200Y-66569523D02*
X98414819Y-66474285D01*
X98414819Y-66474285D02*
X98414819Y-66283809D01*
X98414819Y-66283809D02*
X98367200Y-66188571D01*
X98367200Y-66188571D02*
X98319580Y-66140952D01*
X98319580Y-66140952D02*
X98224342Y-66093333D01*
X98224342Y-66093333D02*
X98033866Y-66093333D01*
X98033866Y-66093333D02*
X97938628Y-66140952D01*
X97938628Y-66140952D02*
X97891009Y-66188571D01*
X97891009Y-66188571D02*
X97843390Y-66283809D01*
X110706666Y-43434819D02*
X110706666Y-44149104D01*
X110706666Y-44149104D02*
X110659047Y-44291961D01*
X110659047Y-44291961D02*
X110563809Y-44387200D01*
X110563809Y-44387200D02*
X110420952Y-44434819D01*
X110420952Y-44434819D02*
X110325714Y-44434819D01*
X111611428Y-43768152D02*
X111611428Y-44434819D01*
X111373333Y-43387200D02*
X111135238Y-44101485D01*
X111135238Y-44101485D02*
X111754285Y-44101485D01*
X96923333Y-69184819D02*
X96590000Y-68708628D01*
X96351905Y-69184819D02*
X96351905Y-68184819D01*
X96351905Y-68184819D02*
X96732857Y-68184819D01*
X96732857Y-68184819D02*
X96828095Y-68232438D01*
X96828095Y-68232438D02*
X96875714Y-68280057D01*
X96875714Y-68280057D02*
X96923333Y-68375295D01*
X96923333Y-68375295D02*
X96923333Y-68518152D01*
X96923333Y-68518152D02*
X96875714Y-68613390D01*
X96875714Y-68613390D02*
X96828095Y-68661009D01*
X96828095Y-68661009D02*
X96732857Y-68708628D01*
X96732857Y-68708628D02*
X96351905Y-68708628D01*
X97780476Y-68518152D02*
X97780476Y-69184819D01*
X97542381Y-68137200D02*
X97304286Y-68851485D01*
X97304286Y-68851485D02*
X97923333Y-68851485D01*
X80784819Y-73232857D02*
X80308628Y-73566190D01*
X80784819Y-73804285D02*
X79784819Y-73804285D01*
X79784819Y-73804285D02*
X79784819Y-73423333D01*
X79784819Y-73423333D02*
X79832438Y-73328095D01*
X79832438Y-73328095D02*
X79880057Y-73280476D01*
X79880057Y-73280476D02*
X79975295Y-73232857D01*
X79975295Y-73232857D02*
X80118152Y-73232857D01*
X80118152Y-73232857D02*
X80213390Y-73280476D01*
X80213390Y-73280476D02*
X80261009Y-73328095D01*
X80261009Y-73328095D02*
X80308628Y-73423333D01*
X80308628Y-73423333D02*
X80308628Y-73804285D01*
X80784819Y-72280476D02*
X80784819Y-72851904D01*
X80784819Y-72566190D02*
X79784819Y-72566190D01*
X79784819Y-72566190D02*
X79927676Y-72661428D01*
X79927676Y-72661428D02*
X80022914Y-72756666D01*
X80022914Y-72756666D02*
X80070533Y-72851904D01*
X80784819Y-71328095D02*
X80784819Y-71899523D01*
X80784819Y-71613809D02*
X79784819Y-71613809D01*
X79784819Y-71613809D02*
X79927676Y-71709047D01*
X79927676Y-71709047D02*
X80022914Y-71804285D01*
X80022914Y-71804285D02*
X80070533Y-71899523D01*
X94663333Y-74284819D02*
X94330000Y-73808628D01*
X94091905Y-74284819D02*
X94091905Y-73284819D01*
X94091905Y-73284819D02*
X94472857Y-73284819D01*
X94472857Y-73284819D02*
X94568095Y-73332438D01*
X94568095Y-73332438D02*
X94615714Y-73380057D01*
X94615714Y-73380057D02*
X94663333Y-73475295D01*
X94663333Y-73475295D02*
X94663333Y-73618152D01*
X94663333Y-73618152D02*
X94615714Y-73713390D01*
X94615714Y-73713390D02*
X94568095Y-73761009D01*
X94568095Y-73761009D02*
X94472857Y-73808628D01*
X94472857Y-73808628D02*
X94091905Y-73808628D01*
X94996667Y-73284819D02*
X95615714Y-73284819D01*
X95615714Y-73284819D02*
X95282381Y-73665771D01*
X95282381Y-73665771D02*
X95425238Y-73665771D01*
X95425238Y-73665771D02*
X95520476Y-73713390D01*
X95520476Y-73713390D02*
X95568095Y-73761009D01*
X95568095Y-73761009D02*
X95615714Y-73856247D01*
X95615714Y-73856247D02*
X95615714Y-74094342D01*
X95615714Y-74094342D02*
X95568095Y-74189580D01*
X95568095Y-74189580D02*
X95520476Y-74237200D01*
X95520476Y-74237200D02*
X95425238Y-74284819D01*
X95425238Y-74284819D02*
X95139524Y-74284819D01*
X95139524Y-74284819D02*
X95044286Y-74237200D01*
X95044286Y-74237200D02*
X94996667Y-74189580D01*
X96533333Y-37799580D02*
X96485714Y-37847200D01*
X96485714Y-37847200D02*
X96342857Y-37894819D01*
X96342857Y-37894819D02*
X96247619Y-37894819D01*
X96247619Y-37894819D02*
X96104762Y-37847200D01*
X96104762Y-37847200D02*
X96009524Y-37751961D01*
X96009524Y-37751961D02*
X95961905Y-37656723D01*
X95961905Y-37656723D02*
X95914286Y-37466247D01*
X95914286Y-37466247D02*
X95914286Y-37323390D01*
X95914286Y-37323390D02*
X95961905Y-37132914D01*
X95961905Y-37132914D02*
X96009524Y-37037676D01*
X96009524Y-37037676D02*
X96104762Y-36942438D01*
X96104762Y-36942438D02*
X96247619Y-36894819D01*
X96247619Y-36894819D02*
X96342857Y-36894819D01*
X96342857Y-36894819D02*
X96485714Y-36942438D01*
X96485714Y-36942438D02*
X96533333Y-36990057D01*
X97438095Y-36894819D02*
X96961905Y-36894819D01*
X96961905Y-36894819D02*
X96914286Y-37371009D01*
X96914286Y-37371009D02*
X96961905Y-37323390D01*
X96961905Y-37323390D02*
X97057143Y-37275771D01*
X97057143Y-37275771D02*
X97295238Y-37275771D01*
X97295238Y-37275771D02*
X97390476Y-37323390D01*
X97390476Y-37323390D02*
X97438095Y-37371009D01*
X97438095Y-37371009D02*
X97485714Y-37466247D01*
X97485714Y-37466247D02*
X97485714Y-37704342D01*
X97485714Y-37704342D02*
X97438095Y-37799580D01*
X97438095Y-37799580D02*
X97390476Y-37847200D01*
X97390476Y-37847200D02*
X97295238Y-37894819D01*
X97295238Y-37894819D02*
X97057143Y-37894819D01*
X97057143Y-37894819D02*
X96961905Y-37847200D01*
X96961905Y-37847200D02*
X96914286Y-37799580D01*
X94139580Y-62216666D02*
X94187200Y-62264285D01*
X94187200Y-62264285D02*
X94234819Y-62407142D01*
X94234819Y-62407142D02*
X94234819Y-62502380D01*
X94234819Y-62502380D02*
X94187200Y-62645237D01*
X94187200Y-62645237D02*
X94091961Y-62740475D01*
X94091961Y-62740475D02*
X93996723Y-62788094D01*
X93996723Y-62788094D02*
X93806247Y-62835713D01*
X93806247Y-62835713D02*
X93663390Y-62835713D01*
X93663390Y-62835713D02*
X93472914Y-62788094D01*
X93472914Y-62788094D02*
X93377676Y-62740475D01*
X93377676Y-62740475D02*
X93282438Y-62645237D01*
X93282438Y-62645237D02*
X93234819Y-62502380D01*
X93234819Y-62502380D02*
X93234819Y-62407142D01*
X93234819Y-62407142D02*
X93282438Y-62264285D01*
X93282438Y-62264285D02*
X93330057Y-62216666D01*
X94234819Y-61264285D02*
X94234819Y-61835713D01*
X94234819Y-61549999D02*
X93234819Y-61549999D01*
X93234819Y-61549999D02*
X93377676Y-61645237D01*
X93377676Y-61645237D02*
X93472914Y-61740475D01*
X93472914Y-61740475D02*
X93520533Y-61835713D01*
X91374819Y-49246666D02*
X90898628Y-49579999D01*
X91374819Y-49818094D02*
X90374819Y-49818094D01*
X90374819Y-49818094D02*
X90374819Y-49437142D01*
X90374819Y-49437142D02*
X90422438Y-49341904D01*
X90422438Y-49341904D02*
X90470057Y-49294285D01*
X90470057Y-49294285D02*
X90565295Y-49246666D01*
X90565295Y-49246666D02*
X90708152Y-49246666D01*
X90708152Y-49246666D02*
X90803390Y-49294285D01*
X90803390Y-49294285D02*
X90851009Y-49341904D01*
X90851009Y-49341904D02*
X90898628Y-49437142D01*
X90898628Y-49437142D02*
X90898628Y-49818094D01*
X90470057Y-48865713D02*
X90422438Y-48818094D01*
X90422438Y-48818094D02*
X90374819Y-48722856D01*
X90374819Y-48722856D02*
X90374819Y-48484761D01*
X90374819Y-48484761D02*
X90422438Y-48389523D01*
X90422438Y-48389523D02*
X90470057Y-48341904D01*
X90470057Y-48341904D02*
X90565295Y-48294285D01*
X90565295Y-48294285D02*
X90660533Y-48294285D01*
X90660533Y-48294285D02*
X90803390Y-48341904D01*
X90803390Y-48341904D02*
X91374819Y-48913332D01*
X91374819Y-48913332D02*
X91374819Y-48294285D01*
X79099580Y-47296666D02*
X79147200Y-47344285D01*
X79147200Y-47344285D02*
X79194819Y-47487142D01*
X79194819Y-47487142D02*
X79194819Y-47582380D01*
X79194819Y-47582380D02*
X79147200Y-47725237D01*
X79147200Y-47725237D02*
X79051961Y-47820475D01*
X79051961Y-47820475D02*
X78956723Y-47868094D01*
X78956723Y-47868094D02*
X78766247Y-47915713D01*
X78766247Y-47915713D02*
X78623390Y-47915713D01*
X78623390Y-47915713D02*
X78432914Y-47868094D01*
X78432914Y-47868094D02*
X78337676Y-47820475D01*
X78337676Y-47820475D02*
X78242438Y-47725237D01*
X78242438Y-47725237D02*
X78194819Y-47582380D01*
X78194819Y-47582380D02*
X78194819Y-47487142D01*
X78194819Y-47487142D02*
X78242438Y-47344285D01*
X78242438Y-47344285D02*
X78290057Y-47296666D01*
X78194819Y-46439523D02*
X78194819Y-46629999D01*
X78194819Y-46629999D02*
X78242438Y-46725237D01*
X78242438Y-46725237D02*
X78290057Y-46772856D01*
X78290057Y-46772856D02*
X78432914Y-46868094D01*
X78432914Y-46868094D02*
X78623390Y-46915713D01*
X78623390Y-46915713D02*
X79004342Y-46915713D01*
X79004342Y-46915713D02*
X79099580Y-46868094D01*
X79099580Y-46868094D02*
X79147200Y-46820475D01*
X79147200Y-46820475D02*
X79194819Y-46725237D01*
X79194819Y-46725237D02*
X79194819Y-46534761D01*
X79194819Y-46534761D02*
X79147200Y-46439523D01*
X79147200Y-46439523D02*
X79099580Y-46391904D01*
X79099580Y-46391904D02*
X79004342Y-46344285D01*
X79004342Y-46344285D02*
X78766247Y-46344285D01*
X78766247Y-46344285D02*
X78671009Y-46391904D01*
X78671009Y-46391904D02*
X78623390Y-46439523D01*
X78623390Y-46439523D02*
X78575771Y-46534761D01*
X78575771Y-46534761D02*
X78575771Y-46725237D01*
X78575771Y-46725237D02*
X78623390Y-46820475D01*
X78623390Y-46820475D02*
X78671009Y-46868094D01*
X78671009Y-46868094D02*
X78766247Y-46915713D01*
X81151666Y-84839819D02*
X81151666Y-85554104D01*
X81151666Y-85554104D02*
X81104047Y-85696961D01*
X81104047Y-85696961D02*
X81008809Y-85792200D01*
X81008809Y-85792200D02*
X80865952Y-85839819D01*
X80865952Y-85839819D02*
X80770714Y-85839819D01*
X81532619Y-84839819D02*
X82151666Y-84839819D01*
X82151666Y-84839819D02*
X81818333Y-85220771D01*
X81818333Y-85220771D02*
X81961190Y-85220771D01*
X81961190Y-85220771D02*
X82056428Y-85268390D01*
X82056428Y-85268390D02*
X82104047Y-85316009D01*
X82104047Y-85316009D02*
X82151666Y-85411247D01*
X82151666Y-85411247D02*
X82151666Y-85649342D01*
X82151666Y-85649342D02*
X82104047Y-85744580D01*
X82104047Y-85744580D02*
X82056428Y-85792200D01*
X82056428Y-85792200D02*
X81961190Y-85839819D01*
X81961190Y-85839819D02*
X81675476Y-85839819D01*
X81675476Y-85839819D02*
X81580238Y-85792200D01*
X81580238Y-85792200D02*
X81532619Y-85744580D01*
X80942142Y-75804580D02*
X80894523Y-75852200D01*
X80894523Y-75852200D02*
X80751666Y-75899819D01*
X80751666Y-75899819D02*
X80656428Y-75899819D01*
X80656428Y-75899819D02*
X80513571Y-75852200D01*
X80513571Y-75852200D02*
X80418333Y-75756961D01*
X80418333Y-75756961D02*
X80370714Y-75661723D01*
X80370714Y-75661723D02*
X80323095Y-75471247D01*
X80323095Y-75471247D02*
X80323095Y-75328390D01*
X80323095Y-75328390D02*
X80370714Y-75137914D01*
X80370714Y-75137914D02*
X80418333Y-75042676D01*
X80418333Y-75042676D02*
X80513571Y-74947438D01*
X80513571Y-74947438D02*
X80656428Y-74899819D01*
X80656428Y-74899819D02*
X80751666Y-74899819D01*
X80751666Y-74899819D02*
X80894523Y-74947438D01*
X80894523Y-74947438D02*
X80942142Y-74995057D01*
X81894523Y-75899819D02*
X81323095Y-75899819D01*
X81608809Y-75899819D02*
X81608809Y-74899819D01*
X81608809Y-74899819D02*
X81513571Y-75042676D01*
X81513571Y-75042676D02*
X81418333Y-75137914D01*
X81418333Y-75137914D02*
X81323095Y-75185533D01*
X82846904Y-75899819D02*
X82275476Y-75899819D01*
X82561190Y-75899819D02*
X82561190Y-74899819D01*
X82561190Y-74899819D02*
X82465952Y-75042676D01*
X82465952Y-75042676D02*
X82370714Y-75137914D01*
X82370714Y-75137914D02*
X82275476Y-75185533D01*
X100558333Y-43474819D02*
X100082143Y-43474819D01*
X100082143Y-43474819D02*
X100082143Y-42474819D01*
X101415476Y-43474819D02*
X100844048Y-43474819D01*
X101129762Y-43474819D02*
X101129762Y-42474819D01*
X101129762Y-42474819D02*
X101034524Y-42617676D01*
X101034524Y-42617676D02*
X100939286Y-42712914D01*
X100939286Y-42712914D02*
X100844048Y-42760533D01*
X81163333Y-42699580D02*
X81115714Y-42747200D01*
X81115714Y-42747200D02*
X80972857Y-42794819D01*
X80972857Y-42794819D02*
X80877619Y-42794819D01*
X80877619Y-42794819D02*
X80734762Y-42747200D01*
X80734762Y-42747200D02*
X80639524Y-42651961D01*
X80639524Y-42651961D02*
X80591905Y-42556723D01*
X80591905Y-42556723D02*
X80544286Y-42366247D01*
X80544286Y-42366247D02*
X80544286Y-42223390D01*
X80544286Y-42223390D02*
X80591905Y-42032914D01*
X80591905Y-42032914D02*
X80639524Y-41937676D01*
X80639524Y-41937676D02*
X80734762Y-41842438D01*
X80734762Y-41842438D02*
X80877619Y-41794819D01*
X80877619Y-41794819D02*
X80972857Y-41794819D01*
X80972857Y-41794819D02*
X81115714Y-41842438D01*
X81115714Y-41842438D02*
X81163333Y-41890057D01*
X81496667Y-41794819D02*
X82163333Y-41794819D01*
X82163333Y-41794819D02*
X81734762Y-42794819D01*
X63213095Y-63024819D02*
X63213095Y-63834342D01*
X63213095Y-63834342D02*
X63260714Y-63929580D01*
X63260714Y-63929580D02*
X63308333Y-63977200D01*
X63308333Y-63977200D02*
X63403571Y-64024819D01*
X63403571Y-64024819D02*
X63594047Y-64024819D01*
X63594047Y-64024819D02*
X63689285Y-63977200D01*
X63689285Y-63977200D02*
X63736904Y-63929580D01*
X63736904Y-63929580D02*
X63784523Y-63834342D01*
X63784523Y-63834342D02*
X63784523Y-63024819D01*
X64213095Y-63120057D02*
X64260714Y-63072438D01*
X64260714Y-63072438D02*
X64355952Y-63024819D01*
X64355952Y-63024819D02*
X64594047Y-63024819D01*
X64594047Y-63024819D02*
X64689285Y-63072438D01*
X64689285Y-63072438D02*
X64736904Y-63120057D01*
X64736904Y-63120057D02*
X64784523Y-63215295D01*
X64784523Y-63215295D02*
X64784523Y-63310533D01*
X64784523Y-63310533D02*
X64736904Y-63453390D01*
X64736904Y-63453390D02*
X64165476Y-64024819D01*
X64165476Y-64024819D02*
X64784523Y-64024819D01*
X75895749Y-42640242D02*
X76649996Y-43017366D01*
X76649996Y-43017366D02*
X76272873Y-42263118D01*
X76973245Y-42640242D02*
X77080995Y-42586367D01*
X77080995Y-42586367D02*
X77215682Y-42451680D01*
X77215682Y-42451680D02*
X77242619Y-42370868D01*
X77242619Y-42370868D02*
X77242619Y-42316993D01*
X77242619Y-42316993D02*
X77215682Y-42236181D01*
X77215682Y-42236181D02*
X77161807Y-42182306D01*
X77161807Y-42182306D02*
X77080995Y-42155369D01*
X77080995Y-42155369D02*
X77027120Y-42155369D01*
X77027120Y-42155369D02*
X76946308Y-42182306D01*
X76946308Y-42182306D02*
X76811621Y-42263118D01*
X76811621Y-42263118D02*
X76730808Y-42290056D01*
X76730808Y-42290056D02*
X76676934Y-42290056D01*
X76676934Y-42290056D02*
X76596121Y-42263118D01*
X76596121Y-42263118D02*
X76542247Y-42209244D01*
X76542247Y-42209244D02*
X76515309Y-42128431D01*
X76515309Y-42128431D02*
X76515309Y-42074557D01*
X76515309Y-42074557D02*
X76542247Y-41993744D01*
X76542247Y-41993744D02*
X76676934Y-41859057D01*
X76676934Y-41859057D02*
X76784683Y-41805183D01*
X77404244Y-41724370D02*
X77673618Y-41993744D01*
X76919370Y-41616621D02*
X77404244Y-41724370D01*
X77404244Y-41724370D02*
X77296494Y-41239497D01*
X77996866Y-41616621D02*
X78104616Y-41562746D01*
X78104616Y-41562746D02*
X78239303Y-41428059D01*
X78239303Y-41428059D02*
X78266240Y-41347247D01*
X78266240Y-41347247D02*
X78266240Y-41293372D01*
X78266240Y-41293372D02*
X78239303Y-41212560D01*
X78239303Y-41212560D02*
X78185428Y-41158685D01*
X78185428Y-41158685D02*
X78104616Y-41131748D01*
X78104616Y-41131748D02*
X78050741Y-41131748D01*
X78050741Y-41131748D02*
X77969929Y-41158685D01*
X77969929Y-41158685D02*
X77835242Y-41239497D01*
X77835242Y-41239497D02*
X77754430Y-41266435D01*
X77754430Y-41266435D02*
X77700555Y-41266435D01*
X77700555Y-41266435D02*
X77619743Y-41239497D01*
X77619743Y-41239497D02*
X77565868Y-41185622D01*
X77565868Y-41185622D02*
X77538930Y-41104810D01*
X77538930Y-41104810D02*
X77538930Y-41050935D01*
X77538930Y-41050935D02*
X77565868Y-40970123D01*
X77565868Y-40970123D02*
X77700555Y-40835436D01*
X77700555Y-40835436D02*
X77808304Y-40781561D01*
X56465475Y-90094200D02*
X56579761Y-90132295D01*
X56579761Y-90132295D02*
X56770237Y-90132295D01*
X56770237Y-90132295D02*
X56846428Y-90094200D01*
X56846428Y-90094200D02*
X56884523Y-90056104D01*
X56884523Y-90056104D02*
X56922618Y-89979914D01*
X56922618Y-89979914D02*
X56922618Y-89903723D01*
X56922618Y-89903723D02*
X56884523Y-89827533D01*
X56884523Y-89827533D02*
X56846428Y-89789438D01*
X56846428Y-89789438D02*
X56770237Y-89751342D01*
X56770237Y-89751342D02*
X56617856Y-89713247D01*
X56617856Y-89713247D02*
X56541666Y-89675152D01*
X56541666Y-89675152D02*
X56503571Y-89637057D01*
X56503571Y-89637057D02*
X56465475Y-89560866D01*
X56465475Y-89560866D02*
X56465475Y-89484676D01*
X56465475Y-89484676D02*
X56503571Y-89408485D01*
X56503571Y-89408485D02*
X56541666Y-89370390D01*
X56541666Y-89370390D02*
X56617856Y-89332295D01*
X56617856Y-89332295D02*
X56808333Y-89332295D01*
X56808333Y-89332295D02*
X56922618Y-89370390D01*
X57189285Y-89332295D02*
X57379761Y-90132295D01*
X57379761Y-90132295D02*
X57532142Y-89560866D01*
X57532142Y-89560866D02*
X57684523Y-90132295D01*
X57684523Y-90132295D02*
X57875000Y-89332295D01*
X58636905Y-90056104D02*
X58598809Y-90094200D01*
X58598809Y-90094200D02*
X58484524Y-90132295D01*
X58484524Y-90132295D02*
X58408333Y-90132295D01*
X58408333Y-90132295D02*
X58294047Y-90094200D01*
X58294047Y-90094200D02*
X58217857Y-90018009D01*
X58217857Y-90018009D02*
X58179762Y-89941819D01*
X58179762Y-89941819D02*
X58141666Y-89789438D01*
X58141666Y-89789438D02*
X58141666Y-89675152D01*
X58141666Y-89675152D02*
X58179762Y-89522771D01*
X58179762Y-89522771D02*
X58217857Y-89446580D01*
X58217857Y-89446580D02*
X58294047Y-89370390D01*
X58294047Y-89370390D02*
X58408333Y-89332295D01*
X58408333Y-89332295D02*
X58484524Y-89332295D01*
X58484524Y-89332295D02*
X58598809Y-89370390D01*
X58598809Y-89370390D02*
X58636905Y-89408485D01*
X59360714Y-90132295D02*
X58979762Y-90132295D01*
X58979762Y-90132295D02*
X58979762Y-89332295D01*
X59627381Y-90132295D02*
X59627381Y-89332295D01*
X60084524Y-90132295D02*
X59741666Y-89675152D01*
X60084524Y-89332295D02*
X59627381Y-89789438D01*
X76072998Y-88090868D02*
X75992185Y-88117805D01*
X75992185Y-88117805D02*
X75911373Y-88198618D01*
X75911373Y-88198618D02*
X75857498Y-88306367D01*
X75857498Y-88306367D02*
X75857498Y-88414117D01*
X75857498Y-88414117D02*
X75884436Y-88494929D01*
X75884436Y-88494929D02*
X75965248Y-88629616D01*
X75965248Y-88629616D02*
X76046060Y-88710428D01*
X76046060Y-88710428D02*
X76180747Y-88791241D01*
X76180747Y-88791241D02*
X76261560Y-88818178D01*
X76261560Y-88818178D02*
X76369309Y-88818178D01*
X76369309Y-88818178D02*
X76477059Y-88764303D01*
X76477059Y-88764303D02*
X76530934Y-88710428D01*
X76530934Y-88710428D02*
X76584808Y-88602679D01*
X76584808Y-88602679D02*
X76584808Y-88548804D01*
X76584808Y-88548804D02*
X76396247Y-88360242D01*
X76396247Y-88360242D02*
X76288497Y-88467992D01*
X76881120Y-88360242D02*
X76315434Y-87794557D01*
X76315434Y-87794557D02*
X76530934Y-87579057D01*
X76530934Y-87579057D02*
X76611746Y-87552120D01*
X76611746Y-87552120D02*
X76665621Y-87552120D01*
X76665621Y-87552120D02*
X76746433Y-87579057D01*
X76746433Y-87579057D02*
X76827245Y-87659870D01*
X76827245Y-87659870D02*
X76854182Y-87740682D01*
X76854182Y-87740682D02*
X76854182Y-87794557D01*
X76854182Y-87794557D02*
X76827245Y-87875369D01*
X76827245Y-87875369D02*
X76611746Y-88090868D01*
X77743117Y-87498245D02*
X77419868Y-87821494D01*
X77581492Y-87659870D02*
X77015807Y-87094184D01*
X77015807Y-87094184D02*
X77042744Y-87228871D01*
X77042744Y-87228871D02*
X77042744Y-87336621D01*
X77042744Y-87336621D02*
X77015807Y-87417433D01*
X77662305Y-86447686D02*
X77554555Y-86555436D01*
X77554555Y-86555436D02*
X77527618Y-86636248D01*
X77527618Y-86636248D02*
X77527618Y-86690123D01*
X77527618Y-86690123D02*
X77554555Y-86824810D01*
X77554555Y-86824810D02*
X77635367Y-86959497D01*
X77635367Y-86959497D02*
X77850866Y-87174996D01*
X77850866Y-87174996D02*
X77931679Y-87201934D01*
X77931679Y-87201934D02*
X77985553Y-87201934D01*
X77985553Y-87201934D02*
X78066366Y-87174996D01*
X78066366Y-87174996D02*
X78174115Y-87067247D01*
X78174115Y-87067247D02*
X78201053Y-86986434D01*
X78201053Y-86986434D02*
X78201053Y-86932560D01*
X78201053Y-86932560D02*
X78174115Y-86851747D01*
X78174115Y-86851747D02*
X78039428Y-86717060D01*
X78039428Y-86717060D02*
X77958616Y-86690123D01*
X77958616Y-86690123D02*
X77904741Y-86690123D01*
X77904741Y-86690123D02*
X77823929Y-86717060D01*
X77823929Y-86717060D02*
X77716179Y-86824810D01*
X77716179Y-86824810D02*
X77689242Y-86905622D01*
X77689242Y-86905622D02*
X77689242Y-86959497D01*
X77689242Y-86959497D02*
X77716179Y-87040309D01*
X50461435Y-82768431D02*
X50380623Y-82795368D01*
X50380623Y-82795368D02*
X50299811Y-82876180D01*
X50299811Y-82876180D02*
X50245936Y-82983930D01*
X50245936Y-82983930D02*
X50245936Y-83091680D01*
X50245936Y-83091680D02*
X50272873Y-83172492D01*
X50272873Y-83172492D02*
X50353685Y-83307179D01*
X50353685Y-83307179D02*
X50434498Y-83387991D01*
X50434498Y-83387991D02*
X50569185Y-83468803D01*
X50569185Y-83468803D02*
X50649997Y-83495741D01*
X50649997Y-83495741D02*
X50757746Y-83495741D01*
X50757746Y-83495741D02*
X50865496Y-83441866D01*
X50865496Y-83441866D02*
X50919371Y-83387991D01*
X50919371Y-83387991D02*
X50973246Y-83280241D01*
X50973246Y-83280241D02*
X50973246Y-83226367D01*
X50973246Y-83226367D02*
X50784684Y-83037805D01*
X50784684Y-83037805D02*
X50676934Y-83145554D01*
X51269557Y-83037805D02*
X50703872Y-82472119D01*
X50703872Y-82472119D02*
X51592806Y-82714556D01*
X51592806Y-82714556D02*
X51027120Y-82148871D01*
X51862180Y-82445182D02*
X51296494Y-81879497D01*
X51296494Y-81879497D02*
X51431181Y-81744810D01*
X51431181Y-81744810D02*
X51538931Y-81690935D01*
X51538931Y-81690935D02*
X51646680Y-81690935D01*
X51646680Y-81690935D02*
X51727493Y-81717872D01*
X51727493Y-81717872D02*
X51862180Y-81798685D01*
X51862180Y-81798685D02*
X51942992Y-81879497D01*
X51942992Y-81879497D02*
X52023804Y-82014184D01*
X52023804Y-82014184D02*
X52050741Y-82094996D01*
X52050741Y-82094996D02*
X52050741Y-82202746D01*
X52050741Y-82202746D02*
X51996867Y-82310495D01*
X51996867Y-82310495D02*
X51862180Y-82445182D01*
X50461435Y-57368431D02*
X50380623Y-57395368D01*
X50380623Y-57395368D02*
X50299811Y-57476180D01*
X50299811Y-57476180D02*
X50245936Y-57583930D01*
X50245936Y-57583930D02*
X50245936Y-57691680D01*
X50245936Y-57691680D02*
X50272873Y-57772492D01*
X50272873Y-57772492D02*
X50353685Y-57907179D01*
X50353685Y-57907179D02*
X50434498Y-57987991D01*
X50434498Y-57987991D02*
X50569185Y-58068803D01*
X50569185Y-58068803D02*
X50649997Y-58095741D01*
X50649997Y-58095741D02*
X50757746Y-58095741D01*
X50757746Y-58095741D02*
X50865496Y-58041866D01*
X50865496Y-58041866D02*
X50919371Y-57987991D01*
X50919371Y-57987991D02*
X50973246Y-57880241D01*
X50973246Y-57880241D02*
X50973246Y-57826367D01*
X50973246Y-57826367D02*
X50784684Y-57637805D01*
X50784684Y-57637805D02*
X50676934Y-57745554D01*
X51269557Y-57637805D02*
X50703872Y-57072119D01*
X50703872Y-57072119D02*
X51592806Y-57314556D01*
X51592806Y-57314556D02*
X51027120Y-56748871D01*
X51862180Y-57045182D02*
X51296494Y-56479497D01*
X51296494Y-56479497D02*
X51431181Y-56344810D01*
X51431181Y-56344810D02*
X51538931Y-56290935D01*
X51538931Y-56290935D02*
X51646680Y-56290935D01*
X51646680Y-56290935D02*
X51727493Y-56317872D01*
X51727493Y-56317872D02*
X51862180Y-56398685D01*
X51862180Y-56398685D02*
X51942992Y-56479497D01*
X51942992Y-56479497D02*
X52023804Y-56614184D01*
X52023804Y-56614184D02*
X52050741Y-56694996D01*
X52050741Y-56694996D02*
X52050741Y-56802746D01*
X52050741Y-56802746D02*
X51996867Y-56910495D01*
X51996867Y-56910495D02*
X51862180Y-57045182D01*
X50488372Y-52261494D02*
X50407560Y-52288431D01*
X50407560Y-52288431D02*
X50326748Y-52369243D01*
X50326748Y-52369243D02*
X50272873Y-52476993D01*
X50272873Y-52476993D02*
X50272873Y-52584742D01*
X50272873Y-52584742D02*
X50299810Y-52665555D01*
X50299810Y-52665555D02*
X50380623Y-52800242D01*
X50380623Y-52800242D02*
X50461435Y-52881054D01*
X50461435Y-52881054D02*
X50596122Y-52961866D01*
X50596122Y-52961866D02*
X50676934Y-52988803D01*
X50676934Y-52988803D02*
X50784684Y-52988803D01*
X50784684Y-52988803D02*
X50892433Y-52934929D01*
X50892433Y-52934929D02*
X50946308Y-52881054D01*
X50946308Y-52881054D02*
X51000183Y-52773304D01*
X51000183Y-52773304D02*
X51000183Y-52719429D01*
X51000183Y-52719429D02*
X50811621Y-52530868D01*
X50811621Y-52530868D02*
X50703871Y-52638617D01*
X51296494Y-52530868D02*
X50730809Y-51965182D01*
X50730809Y-51965182D02*
X50946308Y-51749683D01*
X50946308Y-51749683D02*
X51027120Y-51722746D01*
X51027120Y-51722746D02*
X51080995Y-51722746D01*
X51080995Y-51722746D02*
X51161807Y-51749683D01*
X51161807Y-51749683D02*
X51242619Y-51830495D01*
X51242619Y-51830495D02*
X51269557Y-51911307D01*
X51269557Y-51911307D02*
X51269557Y-51965182D01*
X51269557Y-51965182D02*
X51242619Y-52045994D01*
X51242619Y-52045994D02*
X51027120Y-52261494D01*
X51727493Y-51345622D02*
X52104616Y-51722746D01*
X51377306Y-51264810D02*
X51646680Y-51803558D01*
X51646680Y-51803558D02*
X51996867Y-51453372D01*
X76061435Y-44668431D02*
X75980623Y-44695368D01*
X75980623Y-44695368D02*
X75899811Y-44776180D01*
X75899811Y-44776180D02*
X75845936Y-44883930D01*
X75845936Y-44883930D02*
X75845936Y-44991680D01*
X75845936Y-44991680D02*
X75872873Y-45072492D01*
X75872873Y-45072492D02*
X75953685Y-45207179D01*
X75953685Y-45207179D02*
X76034498Y-45287991D01*
X76034498Y-45287991D02*
X76169185Y-45368803D01*
X76169185Y-45368803D02*
X76249997Y-45395741D01*
X76249997Y-45395741D02*
X76357746Y-45395741D01*
X76357746Y-45395741D02*
X76465496Y-45341866D01*
X76465496Y-45341866D02*
X76519371Y-45287991D01*
X76519371Y-45287991D02*
X76573246Y-45180241D01*
X76573246Y-45180241D02*
X76573246Y-45126367D01*
X76573246Y-45126367D02*
X76384684Y-44937805D01*
X76384684Y-44937805D02*
X76276934Y-45045554D01*
X76869557Y-44937805D02*
X76303872Y-44372119D01*
X76303872Y-44372119D02*
X77192806Y-44614556D01*
X77192806Y-44614556D02*
X76627120Y-44048871D01*
X77462180Y-44345182D02*
X76896494Y-43779497D01*
X76896494Y-43779497D02*
X77031181Y-43644810D01*
X77031181Y-43644810D02*
X77138931Y-43590935D01*
X77138931Y-43590935D02*
X77246680Y-43590935D01*
X77246680Y-43590935D02*
X77327493Y-43617872D01*
X77327493Y-43617872D02*
X77462180Y-43698685D01*
X77462180Y-43698685D02*
X77542992Y-43779497D01*
X77542992Y-43779497D02*
X77623804Y-43914184D01*
X77623804Y-43914184D02*
X77650741Y-43994996D01*
X77650741Y-43994996D02*
X77650741Y-44102746D01*
X77650741Y-44102746D02*
X77596867Y-44210495D01*
X77596867Y-44210495D02*
X77462180Y-44345182D01*
X50588372Y-62391494D02*
X50507560Y-62418431D01*
X50507560Y-62418431D02*
X50426748Y-62499243D01*
X50426748Y-62499243D02*
X50372873Y-62606993D01*
X50372873Y-62606993D02*
X50372873Y-62714742D01*
X50372873Y-62714742D02*
X50399810Y-62795555D01*
X50399810Y-62795555D02*
X50480623Y-62930242D01*
X50480623Y-62930242D02*
X50561435Y-63011054D01*
X50561435Y-63011054D02*
X50696122Y-63091866D01*
X50696122Y-63091866D02*
X50776934Y-63118803D01*
X50776934Y-63118803D02*
X50884684Y-63118803D01*
X50884684Y-63118803D02*
X50992433Y-63064929D01*
X50992433Y-63064929D02*
X51046308Y-63011054D01*
X51046308Y-63011054D02*
X51100183Y-62903304D01*
X51100183Y-62903304D02*
X51100183Y-62849429D01*
X51100183Y-62849429D02*
X50911621Y-62660868D01*
X50911621Y-62660868D02*
X50803871Y-62768617D01*
X51396494Y-62660868D02*
X50830809Y-62095182D01*
X50830809Y-62095182D02*
X51046308Y-61879683D01*
X51046308Y-61879683D02*
X51127120Y-61852746D01*
X51127120Y-61852746D02*
X51180995Y-61852746D01*
X51180995Y-61852746D02*
X51261807Y-61879683D01*
X51261807Y-61879683D02*
X51342619Y-61960495D01*
X51342619Y-61960495D02*
X51369557Y-62041307D01*
X51369557Y-62041307D02*
X51369557Y-62095182D01*
X51369557Y-62095182D02*
X51342619Y-62175994D01*
X51342619Y-62175994D02*
X51127120Y-62391494D01*
X51342619Y-61583372D02*
X51719743Y-61206248D01*
X51719743Y-61206248D02*
X52042992Y-62014370D01*
X76072998Y-72860868D02*
X75992185Y-72887805D01*
X75992185Y-72887805D02*
X75911373Y-72968618D01*
X75911373Y-72968618D02*
X75857498Y-73076367D01*
X75857498Y-73076367D02*
X75857498Y-73184117D01*
X75857498Y-73184117D02*
X75884436Y-73264929D01*
X75884436Y-73264929D02*
X75965248Y-73399616D01*
X75965248Y-73399616D02*
X76046060Y-73480428D01*
X76046060Y-73480428D02*
X76180747Y-73561241D01*
X76180747Y-73561241D02*
X76261560Y-73588178D01*
X76261560Y-73588178D02*
X76369309Y-73588178D01*
X76369309Y-73588178D02*
X76477059Y-73534303D01*
X76477059Y-73534303D02*
X76530934Y-73480428D01*
X76530934Y-73480428D02*
X76584808Y-73372679D01*
X76584808Y-73372679D02*
X76584808Y-73318804D01*
X76584808Y-73318804D02*
X76396247Y-73130242D01*
X76396247Y-73130242D02*
X76288497Y-73237992D01*
X76881120Y-73130242D02*
X76315434Y-72564557D01*
X76315434Y-72564557D02*
X76530934Y-72349057D01*
X76530934Y-72349057D02*
X76611746Y-72322120D01*
X76611746Y-72322120D02*
X76665621Y-72322120D01*
X76665621Y-72322120D02*
X76746433Y-72349057D01*
X76746433Y-72349057D02*
X76827245Y-72429870D01*
X76827245Y-72429870D02*
X76854182Y-72510682D01*
X76854182Y-72510682D02*
X76854182Y-72564557D01*
X76854182Y-72564557D02*
X76827245Y-72645369D01*
X76827245Y-72645369D02*
X76611746Y-72860868D01*
X76908057Y-72079683D02*
X76908057Y-72025809D01*
X76908057Y-72025809D02*
X76934995Y-71944996D01*
X76934995Y-71944996D02*
X77069682Y-71810309D01*
X77069682Y-71810309D02*
X77150494Y-71783372D01*
X77150494Y-71783372D02*
X77204369Y-71783372D01*
X77204369Y-71783372D02*
X77285181Y-71810309D01*
X77285181Y-71810309D02*
X77339056Y-71864184D01*
X77339056Y-71864184D02*
X77392930Y-71971934D01*
X77392930Y-71971934D02*
X77392930Y-72618431D01*
X77392930Y-72618431D02*
X77743117Y-72268245D01*
X78281865Y-71729497D02*
X77958616Y-72052746D01*
X78120240Y-71891121D02*
X77554555Y-71325436D01*
X77554555Y-71325436D02*
X77581492Y-71460123D01*
X77581492Y-71460123D02*
X77581492Y-71567873D01*
X77581492Y-71567873D02*
X77554555Y-71648685D01*
X50488372Y-64961494D02*
X50407560Y-64988431D01*
X50407560Y-64988431D02*
X50326748Y-65069243D01*
X50326748Y-65069243D02*
X50272873Y-65176993D01*
X50272873Y-65176993D02*
X50272873Y-65284742D01*
X50272873Y-65284742D02*
X50299810Y-65365555D01*
X50299810Y-65365555D02*
X50380623Y-65500242D01*
X50380623Y-65500242D02*
X50461435Y-65581054D01*
X50461435Y-65581054D02*
X50596122Y-65661866D01*
X50596122Y-65661866D02*
X50676934Y-65688803D01*
X50676934Y-65688803D02*
X50784684Y-65688803D01*
X50784684Y-65688803D02*
X50892433Y-65634929D01*
X50892433Y-65634929D02*
X50946308Y-65581054D01*
X50946308Y-65581054D02*
X51000183Y-65473304D01*
X51000183Y-65473304D02*
X51000183Y-65419429D01*
X51000183Y-65419429D02*
X50811621Y-65230868D01*
X50811621Y-65230868D02*
X50703871Y-65338617D01*
X51296494Y-65230868D02*
X50730809Y-64665182D01*
X50730809Y-64665182D02*
X50946308Y-64449683D01*
X50946308Y-64449683D02*
X51027120Y-64422746D01*
X51027120Y-64422746D02*
X51080995Y-64422746D01*
X51080995Y-64422746D02*
X51161807Y-64449683D01*
X51161807Y-64449683D02*
X51242619Y-64530495D01*
X51242619Y-64530495D02*
X51269557Y-64611307D01*
X51269557Y-64611307D02*
X51269557Y-64665182D01*
X51269557Y-64665182D02*
X51242619Y-64745994D01*
X51242619Y-64745994D02*
X51027120Y-64961494D01*
X51619743Y-64261121D02*
X51538931Y-64288059D01*
X51538931Y-64288059D02*
X51485056Y-64288059D01*
X51485056Y-64288059D02*
X51404244Y-64261121D01*
X51404244Y-64261121D02*
X51377306Y-64234184D01*
X51377306Y-64234184D02*
X51350369Y-64153372D01*
X51350369Y-64153372D02*
X51350369Y-64099497D01*
X51350369Y-64099497D02*
X51377306Y-64018685D01*
X51377306Y-64018685D02*
X51485056Y-63910935D01*
X51485056Y-63910935D02*
X51565868Y-63883998D01*
X51565868Y-63883998D02*
X51619743Y-63883998D01*
X51619743Y-63883998D02*
X51700555Y-63910935D01*
X51700555Y-63910935D02*
X51727493Y-63937872D01*
X51727493Y-63937872D02*
X51754430Y-64018685D01*
X51754430Y-64018685D02*
X51754430Y-64072559D01*
X51754430Y-64072559D02*
X51727493Y-64153372D01*
X51727493Y-64153372D02*
X51619743Y-64261121D01*
X51619743Y-64261121D02*
X51592806Y-64341933D01*
X51592806Y-64341933D02*
X51592806Y-64395808D01*
X51592806Y-64395808D02*
X51619743Y-64476620D01*
X51619743Y-64476620D02*
X51727493Y-64584370D01*
X51727493Y-64584370D02*
X51808305Y-64611307D01*
X51808305Y-64611307D02*
X51862180Y-64611307D01*
X51862180Y-64611307D02*
X51942992Y-64584370D01*
X51942992Y-64584370D02*
X52050741Y-64476620D01*
X52050741Y-64476620D02*
X52077679Y-64395808D01*
X52077679Y-64395808D02*
X52077679Y-64341933D01*
X52077679Y-64341933D02*
X52050741Y-64261121D01*
X52050741Y-64261121D02*
X51942992Y-64153372D01*
X51942992Y-64153372D02*
X51862180Y-64126434D01*
X51862180Y-64126434D02*
X51808305Y-64126434D01*
X51808305Y-64126434D02*
X51727493Y-64153372D01*
X50388372Y-42091494D02*
X50307560Y-42118431D01*
X50307560Y-42118431D02*
X50226748Y-42199243D01*
X50226748Y-42199243D02*
X50172873Y-42306993D01*
X50172873Y-42306993D02*
X50172873Y-42414742D01*
X50172873Y-42414742D02*
X50199810Y-42495555D01*
X50199810Y-42495555D02*
X50280623Y-42630242D01*
X50280623Y-42630242D02*
X50361435Y-42711054D01*
X50361435Y-42711054D02*
X50496122Y-42791866D01*
X50496122Y-42791866D02*
X50576934Y-42818803D01*
X50576934Y-42818803D02*
X50684684Y-42818803D01*
X50684684Y-42818803D02*
X50792433Y-42764929D01*
X50792433Y-42764929D02*
X50846308Y-42711054D01*
X50846308Y-42711054D02*
X50900183Y-42603304D01*
X50900183Y-42603304D02*
X50900183Y-42549429D01*
X50900183Y-42549429D02*
X50711621Y-42360868D01*
X50711621Y-42360868D02*
X50603871Y-42468617D01*
X51196494Y-42360868D02*
X50630809Y-41795182D01*
X50630809Y-41795182D02*
X50846308Y-41579683D01*
X50846308Y-41579683D02*
X50927120Y-41552746D01*
X50927120Y-41552746D02*
X50980995Y-41552746D01*
X50980995Y-41552746D02*
X51061807Y-41579683D01*
X51061807Y-41579683D02*
X51142619Y-41660495D01*
X51142619Y-41660495D02*
X51169557Y-41741307D01*
X51169557Y-41741307D02*
X51169557Y-41795182D01*
X51169557Y-41795182D02*
X51142619Y-41875994D01*
X51142619Y-41875994D02*
X50927120Y-42091494D01*
X52058491Y-41498871D02*
X51735242Y-41822120D01*
X51896867Y-41660495D02*
X51331181Y-41094810D01*
X51331181Y-41094810D02*
X51358119Y-41229497D01*
X51358119Y-41229497D02*
X51358119Y-41337246D01*
X51358119Y-41337246D02*
X51331181Y-41418059D01*
X76126873Y-58311240D02*
X76396247Y-58041866D01*
X76234623Y-58526739D02*
X75857499Y-57772492D01*
X75857499Y-57772492D02*
X76611746Y-58149615D01*
X76557871Y-57125994D02*
X76477059Y-57152932D01*
X76477059Y-57152932D02*
X76396247Y-57233744D01*
X76396247Y-57233744D02*
X76342372Y-57341494D01*
X76342372Y-57341494D02*
X76342372Y-57449243D01*
X76342372Y-57449243D02*
X76369310Y-57530055D01*
X76369310Y-57530055D02*
X76450122Y-57664742D01*
X76450122Y-57664742D02*
X76530934Y-57745555D01*
X76530934Y-57745555D02*
X76665621Y-57826367D01*
X76665621Y-57826367D02*
X76746433Y-57853304D01*
X76746433Y-57853304D02*
X76854183Y-57853304D01*
X76854183Y-57853304D02*
X76961932Y-57799429D01*
X76961932Y-57799429D02*
X77015807Y-57745555D01*
X77015807Y-57745555D02*
X77069682Y-57637805D01*
X77069682Y-57637805D02*
X77069682Y-57583930D01*
X77069682Y-57583930D02*
X76881120Y-57395368D01*
X76881120Y-57395368D02*
X76773371Y-57503118D01*
X77365993Y-57395368D02*
X76800308Y-56829683D01*
X76800308Y-56829683D02*
X77689242Y-57072120D01*
X77689242Y-57072120D02*
X77123557Y-56506434D01*
X77958616Y-56802746D02*
X77392931Y-56237060D01*
X77392931Y-56237060D02*
X77527618Y-56102373D01*
X77527618Y-56102373D02*
X77635367Y-56048498D01*
X77635367Y-56048498D02*
X77743117Y-56048498D01*
X77743117Y-56048498D02*
X77823929Y-56075436D01*
X77823929Y-56075436D02*
X77958616Y-56156248D01*
X77958616Y-56156248D02*
X78039428Y-56237060D01*
X78039428Y-56237060D02*
X78120241Y-56371747D01*
X78120241Y-56371747D02*
X78147178Y-56452560D01*
X78147178Y-56452560D02*
X78147178Y-56560309D01*
X78147178Y-56560309D02*
X78093303Y-56668059D01*
X78093303Y-56668059D02*
X77958616Y-56802746D01*
X76061435Y-70068431D02*
X75980623Y-70095368D01*
X75980623Y-70095368D02*
X75899811Y-70176180D01*
X75899811Y-70176180D02*
X75845936Y-70283930D01*
X75845936Y-70283930D02*
X75845936Y-70391680D01*
X75845936Y-70391680D02*
X75872873Y-70472492D01*
X75872873Y-70472492D02*
X75953685Y-70607179D01*
X75953685Y-70607179D02*
X76034498Y-70687991D01*
X76034498Y-70687991D02*
X76169185Y-70768803D01*
X76169185Y-70768803D02*
X76249997Y-70795741D01*
X76249997Y-70795741D02*
X76357746Y-70795741D01*
X76357746Y-70795741D02*
X76465496Y-70741866D01*
X76465496Y-70741866D02*
X76519371Y-70687991D01*
X76519371Y-70687991D02*
X76573246Y-70580241D01*
X76573246Y-70580241D02*
X76573246Y-70526367D01*
X76573246Y-70526367D02*
X76384684Y-70337805D01*
X76384684Y-70337805D02*
X76276934Y-70445554D01*
X76869557Y-70337805D02*
X76303872Y-69772119D01*
X76303872Y-69772119D02*
X77192806Y-70014556D01*
X77192806Y-70014556D02*
X76627120Y-69448871D01*
X77462180Y-69745182D02*
X76896494Y-69179497D01*
X76896494Y-69179497D02*
X77031181Y-69044810D01*
X77031181Y-69044810D02*
X77138931Y-68990935D01*
X77138931Y-68990935D02*
X77246680Y-68990935D01*
X77246680Y-68990935D02*
X77327493Y-69017872D01*
X77327493Y-69017872D02*
X77462180Y-69098685D01*
X77462180Y-69098685D02*
X77542992Y-69179497D01*
X77542992Y-69179497D02*
X77623804Y-69314184D01*
X77623804Y-69314184D02*
X77650741Y-69394996D01*
X77650741Y-69394996D02*
X77650741Y-69502746D01*
X77650741Y-69502746D02*
X77596867Y-69610495D01*
X77596867Y-69610495D02*
X77462180Y-69745182D01*
X75928406Y-40097585D02*
X76682653Y-40474709D01*
X76682653Y-40474709D02*
X76305529Y-39720462D01*
X76952027Y-39612712D02*
X77059776Y-39558838D01*
X77059776Y-39558838D02*
X77113651Y-39558838D01*
X77113651Y-39558838D02*
X77194463Y-39585775D01*
X77194463Y-39585775D02*
X77275276Y-39666587D01*
X77275276Y-39666587D02*
X77302213Y-39747399D01*
X77302213Y-39747399D02*
X77302213Y-39801274D01*
X77302213Y-39801274D02*
X77275276Y-39882086D01*
X77275276Y-39882086D02*
X77059776Y-40097586D01*
X77059776Y-40097586D02*
X76494091Y-39531900D01*
X76494091Y-39531900D02*
X76682653Y-39343338D01*
X76682653Y-39343338D02*
X76763465Y-39316401D01*
X76763465Y-39316401D02*
X76817340Y-39316401D01*
X76817340Y-39316401D02*
X76898152Y-39343338D01*
X76898152Y-39343338D02*
X76952027Y-39397213D01*
X76952027Y-39397213D02*
X76978964Y-39478025D01*
X76978964Y-39478025D02*
X76978964Y-39531900D01*
X76978964Y-39531900D02*
X76952027Y-39612712D01*
X76952027Y-39612712D02*
X76763465Y-39801274D01*
X77059776Y-38966215D02*
X77517712Y-39424151D01*
X77517712Y-39424151D02*
X77598524Y-39451088D01*
X77598524Y-39451088D02*
X77652399Y-39451088D01*
X77652399Y-39451088D02*
X77733211Y-39424151D01*
X77733211Y-39424151D02*
X77840961Y-39316401D01*
X77840961Y-39316401D02*
X77867898Y-39235589D01*
X77867898Y-39235589D02*
X77867898Y-39181714D01*
X77867898Y-39181714D02*
X77840961Y-39100902D01*
X77840961Y-39100902D02*
X77383025Y-38642966D01*
X78164210Y-38939277D02*
X78271959Y-38885403D01*
X78271959Y-38885403D02*
X78406646Y-38750716D01*
X78406646Y-38750716D02*
X78433584Y-38669903D01*
X78433584Y-38669903D02*
X78433584Y-38616029D01*
X78433584Y-38616029D02*
X78406646Y-38535216D01*
X78406646Y-38535216D02*
X78352771Y-38481342D01*
X78352771Y-38481342D02*
X78271959Y-38454404D01*
X78271959Y-38454404D02*
X78218084Y-38454404D01*
X78218084Y-38454404D02*
X78137272Y-38481342D01*
X78137272Y-38481342D02*
X78002585Y-38562154D01*
X78002585Y-38562154D02*
X77921773Y-38589091D01*
X77921773Y-38589091D02*
X77867898Y-38589091D01*
X77867898Y-38589091D02*
X77787086Y-38562154D01*
X77787086Y-38562154D02*
X77733211Y-38508279D01*
X77733211Y-38508279D02*
X77706274Y-38427467D01*
X77706274Y-38427467D02*
X77706274Y-38373592D01*
X77706274Y-38373592D02*
X77733211Y-38292780D01*
X77733211Y-38292780D02*
X77867898Y-38158093D01*
X77867898Y-38158093D02*
X77975648Y-38104218D01*
X49818998Y-75390868D02*
X49738185Y-75417805D01*
X49738185Y-75417805D02*
X49657373Y-75498618D01*
X49657373Y-75498618D02*
X49603498Y-75606367D01*
X49603498Y-75606367D02*
X49603498Y-75714117D01*
X49603498Y-75714117D02*
X49630436Y-75794929D01*
X49630436Y-75794929D02*
X49711248Y-75929616D01*
X49711248Y-75929616D02*
X49792060Y-76010428D01*
X49792060Y-76010428D02*
X49926747Y-76091241D01*
X49926747Y-76091241D02*
X50007560Y-76118178D01*
X50007560Y-76118178D02*
X50115309Y-76118178D01*
X50115309Y-76118178D02*
X50223059Y-76064303D01*
X50223059Y-76064303D02*
X50276934Y-76010428D01*
X50276934Y-76010428D02*
X50330808Y-75902679D01*
X50330808Y-75902679D02*
X50330808Y-75848804D01*
X50330808Y-75848804D02*
X50142247Y-75660242D01*
X50142247Y-75660242D02*
X50034497Y-75767992D01*
X50627120Y-75660242D02*
X50061434Y-75094557D01*
X50061434Y-75094557D02*
X50276934Y-74879057D01*
X50276934Y-74879057D02*
X50357746Y-74852120D01*
X50357746Y-74852120D02*
X50411621Y-74852120D01*
X50411621Y-74852120D02*
X50492433Y-74879057D01*
X50492433Y-74879057D02*
X50573245Y-74959870D01*
X50573245Y-74959870D02*
X50600182Y-75040682D01*
X50600182Y-75040682D02*
X50600182Y-75094557D01*
X50600182Y-75094557D02*
X50573245Y-75175369D01*
X50573245Y-75175369D02*
X50357746Y-75390868D01*
X51489117Y-74798245D02*
X51165868Y-75121494D01*
X51327492Y-74959870D02*
X50761807Y-74394184D01*
X50761807Y-74394184D02*
X50788744Y-74528871D01*
X50788744Y-74528871D02*
X50788744Y-74636621D01*
X50788744Y-74636621D02*
X50761807Y-74717433D01*
X52027865Y-74259497D02*
X51704616Y-74582746D01*
X51866240Y-74421121D02*
X51300555Y-73855436D01*
X51300555Y-73855436D02*
X51327492Y-73990123D01*
X51327492Y-73990123D02*
X51327492Y-74097873D01*
X51327492Y-74097873D02*
X51300555Y-74178685D01*
X75677142Y-52653723D02*
X76058095Y-52653723D01*
X75600952Y-52882295D02*
X75867619Y-52082295D01*
X75867619Y-52082295D02*
X76134285Y-52882295D01*
X76400952Y-52882295D02*
X76400952Y-52082295D01*
X76400952Y-52082295D02*
X76591428Y-52082295D01*
X76591428Y-52082295D02*
X76705714Y-52120390D01*
X76705714Y-52120390D02*
X76781904Y-52196580D01*
X76781904Y-52196580D02*
X76819999Y-52272771D01*
X76819999Y-52272771D02*
X76858095Y-52425152D01*
X76858095Y-52425152D02*
X76858095Y-52539438D01*
X76858095Y-52539438D02*
X76819999Y-52691819D01*
X76819999Y-52691819D02*
X76781904Y-52768009D01*
X76781904Y-52768009D02*
X76705714Y-52844200D01*
X76705714Y-52844200D02*
X76591428Y-52882295D01*
X76591428Y-52882295D02*
X76400952Y-52882295D01*
X77658095Y-52806104D02*
X77619999Y-52844200D01*
X77619999Y-52844200D02*
X77505714Y-52882295D01*
X77505714Y-52882295D02*
X77429523Y-52882295D01*
X77429523Y-52882295D02*
X77315237Y-52844200D01*
X77315237Y-52844200D02*
X77239047Y-52768009D01*
X77239047Y-52768009D02*
X77200952Y-52691819D01*
X77200952Y-52691819D02*
X77162856Y-52539438D01*
X77162856Y-52539438D02*
X77162856Y-52425152D01*
X77162856Y-52425152D02*
X77200952Y-52272771D01*
X77200952Y-52272771D02*
X77239047Y-52196580D01*
X77239047Y-52196580D02*
X77315237Y-52120390D01*
X77315237Y-52120390D02*
X77429523Y-52082295D01*
X77429523Y-52082295D02*
X77505714Y-52082295D01*
X77505714Y-52082295D02*
X77619999Y-52120390D01*
X77619999Y-52120390D02*
X77658095Y-52158485D01*
X77810476Y-52958485D02*
X78419999Y-52958485D01*
X78496190Y-52082295D02*
X78762857Y-52882295D01*
X78762857Y-52882295D02*
X79029523Y-52082295D01*
X79753333Y-52882295D02*
X79486666Y-52501342D01*
X79296190Y-52882295D02*
X79296190Y-52082295D01*
X79296190Y-52082295D02*
X79600952Y-52082295D01*
X79600952Y-52082295D02*
X79677142Y-52120390D01*
X79677142Y-52120390D02*
X79715237Y-52158485D01*
X79715237Y-52158485D02*
X79753333Y-52234676D01*
X79753333Y-52234676D02*
X79753333Y-52348961D01*
X79753333Y-52348961D02*
X79715237Y-52425152D01*
X79715237Y-52425152D02*
X79677142Y-52463247D01*
X79677142Y-52463247D02*
X79600952Y-52501342D01*
X79600952Y-52501342D02*
X79296190Y-52501342D01*
X80096190Y-52463247D02*
X80362856Y-52463247D01*
X80477142Y-52882295D02*
X80096190Y-52882295D01*
X80096190Y-52882295D02*
X80096190Y-52082295D01*
X80096190Y-52082295D02*
X80477142Y-52082295D01*
X81086666Y-52463247D02*
X80820000Y-52463247D01*
X80820000Y-52882295D02*
X80820000Y-52082295D01*
X80820000Y-52082295D02*
X81200952Y-52082295D01*
X49964998Y-88090868D02*
X49884185Y-88117805D01*
X49884185Y-88117805D02*
X49803373Y-88198618D01*
X49803373Y-88198618D02*
X49749498Y-88306367D01*
X49749498Y-88306367D02*
X49749498Y-88414117D01*
X49749498Y-88414117D02*
X49776436Y-88494929D01*
X49776436Y-88494929D02*
X49857248Y-88629616D01*
X49857248Y-88629616D02*
X49938060Y-88710428D01*
X49938060Y-88710428D02*
X50072747Y-88791241D01*
X50072747Y-88791241D02*
X50153560Y-88818178D01*
X50153560Y-88818178D02*
X50261309Y-88818178D01*
X50261309Y-88818178D02*
X50369059Y-88764303D01*
X50369059Y-88764303D02*
X50422934Y-88710428D01*
X50422934Y-88710428D02*
X50476808Y-88602679D01*
X50476808Y-88602679D02*
X50476808Y-88548804D01*
X50476808Y-88548804D02*
X50288247Y-88360242D01*
X50288247Y-88360242D02*
X50180497Y-88467992D01*
X50773120Y-88360242D02*
X50207434Y-87794557D01*
X50207434Y-87794557D02*
X50422934Y-87579057D01*
X50422934Y-87579057D02*
X50503746Y-87552120D01*
X50503746Y-87552120D02*
X50557621Y-87552120D01*
X50557621Y-87552120D02*
X50638433Y-87579057D01*
X50638433Y-87579057D02*
X50719245Y-87659870D01*
X50719245Y-87659870D02*
X50746182Y-87740682D01*
X50746182Y-87740682D02*
X50746182Y-87794557D01*
X50746182Y-87794557D02*
X50719245Y-87875369D01*
X50719245Y-87875369D02*
X50503746Y-88090868D01*
X51635117Y-87498245D02*
X51311868Y-87821494D01*
X51473492Y-87659870D02*
X50907807Y-87094184D01*
X50907807Y-87094184D02*
X50934744Y-87228871D01*
X50934744Y-87228871D02*
X50934744Y-87336621D01*
X50934744Y-87336621D02*
X50907807Y-87417433D01*
X51581242Y-86420749D02*
X51311868Y-86690123D01*
X51311868Y-86690123D02*
X51554305Y-86986434D01*
X51554305Y-86986434D02*
X51554305Y-86932560D01*
X51554305Y-86932560D02*
X51581242Y-86851747D01*
X51581242Y-86851747D02*
X51715929Y-86717060D01*
X51715929Y-86717060D02*
X51796741Y-86690123D01*
X51796741Y-86690123D02*
X51850616Y-86690123D01*
X51850616Y-86690123D02*
X51931428Y-86717060D01*
X51931428Y-86717060D02*
X52066115Y-86851747D01*
X52066115Y-86851747D02*
X52093053Y-86932560D01*
X52093053Y-86932560D02*
X52093053Y-86986434D01*
X52093053Y-86986434D02*
X52066115Y-87067247D01*
X52066115Y-87067247D02*
X51931428Y-87201934D01*
X51931428Y-87201934D02*
X51850616Y-87228871D01*
X51850616Y-87228871D02*
X51796741Y-87228871D01*
X50388372Y-47181494D02*
X50307560Y-47208431D01*
X50307560Y-47208431D02*
X50226748Y-47289243D01*
X50226748Y-47289243D02*
X50172873Y-47396993D01*
X50172873Y-47396993D02*
X50172873Y-47504742D01*
X50172873Y-47504742D02*
X50199810Y-47585555D01*
X50199810Y-47585555D02*
X50280623Y-47720242D01*
X50280623Y-47720242D02*
X50361435Y-47801054D01*
X50361435Y-47801054D02*
X50496122Y-47881866D01*
X50496122Y-47881866D02*
X50576934Y-47908803D01*
X50576934Y-47908803D02*
X50684684Y-47908803D01*
X50684684Y-47908803D02*
X50792433Y-47854929D01*
X50792433Y-47854929D02*
X50846308Y-47801054D01*
X50846308Y-47801054D02*
X50900183Y-47693304D01*
X50900183Y-47693304D02*
X50900183Y-47639429D01*
X50900183Y-47639429D02*
X50711621Y-47450868D01*
X50711621Y-47450868D02*
X50603871Y-47558617D01*
X51196494Y-47450868D02*
X50630809Y-46885182D01*
X50630809Y-46885182D02*
X50846308Y-46669683D01*
X50846308Y-46669683D02*
X50927120Y-46642746D01*
X50927120Y-46642746D02*
X50980995Y-46642746D01*
X50980995Y-46642746D02*
X51061807Y-46669683D01*
X51061807Y-46669683D02*
X51142619Y-46750495D01*
X51142619Y-46750495D02*
X51169557Y-46831307D01*
X51169557Y-46831307D02*
X51169557Y-46885182D01*
X51169557Y-46885182D02*
X51142619Y-46965994D01*
X51142619Y-46965994D02*
X50927120Y-47181494D01*
X51223432Y-46400309D02*
X51223432Y-46346434D01*
X51223432Y-46346434D02*
X51250369Y-46265622D01*
X51250369Y-46265622D02*
X51385056Y-46130935D01*
X51385056Y-46130935D02*
X51465868Y-46103998D01*
X51465868Y-46103998D02*
X51519743Y-46103998D01*
X51519743Y-46103998D02*
X51600555Y-46130935D01*
X51600555Y-46130935D02*
X51654430Y-46184810D01*
X51654430Y-46184810D02*
X51708305Y-46292559D01*
X51708305Y-46292559D02*
X51708305Y-46939057D01*
X51708305Y-46939057D02*
X52058491Y-46588871D01*
X76813651Y-65513710D02*
X76355716Y-65432898D01*
X76490403Y-65836959D02*
X75924717Y-65271274D01*
X75924717Y-65271274D02*
X76140216Y-65055775D01*
X76140216Y-65055775D02*
X76221029Y-65028837D01*
X76221029Y-65028837D02*
X76274903Y-65028837D01*
X76274903Y-65028837D02*
X76355716Y-65055775D01*
X76355716Y-65055775D02*
X76436528Y-65136587D01*
X76436528Y-65136587D02*
X76463465Y-65217399D01*
X76463465Y-65217399D02*
X76463465Y-65271274D01*
X76463465Y-65271274D02*
X76436528Y-65352086D01*
X76436528Y-65352086D02*
X76221029Y-65567585D01*
X76490403Y-64705588D02*
X76948338Y-65163524D01*
X76948338Y-65163524D02*
X77029151Y-65190462D01*
X77029151Y-65190462D02*
X77083025Y-65190462D01*
X77083025Y-65190462D02*
X77163838Y-65163524D01*
X77163838Y-65163524D02*
X77271587Y-65055775D01*
X77271587Y-65055775D02*
X77298525Y-64974962D01*
X77298525Y-64974962D02*
X77298525Y-64921088D01*
X77298525Y-64921088D02*
X77271587Y-64840275D01*
X77271587Y-64840275D02*
X76813651Y-64382340D01*
X77648711Y-64678651D02*
X77083025Y-64112966D01*
X77083025Y-64112966D02*
X77971959Y-64355402D01*
X77971959Y-64355402D02*
X77406274Y-63789717D01*
X76072998Y-67770868D02*
X75992185Y-67797805D01*
X75992185Y-67797805D02*
X75911373Y-67878618D01*
X75911373Y-67878618D02*
X75857498Y-67986367D01*
X75857498Y-67986367D02*
X75857498Y-68094117D01*
X75857498Y-68094117D02*
X75884436Y-68174929D01*
X75884436Y-68174929D02*
X75965248Y-68309616D01*
X75965248Y-68309616D02*
X76046060Y-68390428D01*
X76046060Y-68390428D02*
X76180747Y-68471241D01*
X76180747Y-68471241D02*
X76261560Y-68498178D01*
X76261560Y-68498178D02*
X76369309Y-68498178D01*
X76369309Y-68498178D02*
X76477059Y-68444303D01*
X76477059Y-68444303D02*
X76530934Y-68390428D01*
X76530934Y-68390428D02*
X76584808Y-68282679D01*
X76584808Y-68282679D02*
X76584808Y-68228804D01*
X76584808Y-68228804D02*
X76396247Y-68040242D01*
X76396247Y-68040242D02*
X76288497Y-68147992D01*
X76881120Y-68040242D02*
X76315434Y-67474557D01*
X76315434Y-67474557D02*
X76530934Y-67259057D01*
X76530934Y-67259057D02*
X76611746Y-67232120D01*
X76611746Y-67232120D02*
X76665621Y-67232120D01*
X76665621Y-67232120D02*
X76746433Y-67259057D01*
X76746433Y-67259057D02*
X76827245Y-67339870D01*
X76827245Y-67339870D02*
X76854182Y-67420682D01*
X76854182Y-67420682D02*
X76854182Y-67474557D01*
X76854182Y-67474557D02*
X76827245Y-67555369D01*
X76827245Y-67555369D02*
X76611746Y-67770868D01*
X76908057Y-66989683D02*
X76908057Y-66935809D01*
X76908057Y-66935809D02*
X76934995Y-66854996D01*
X76934995Y-66854996D02*
X77069682Y-66720309D01*
X77069682Y-66720309D02*
X77150494Y-66693372D01*
X77150494Y-66693372D02*
X77204369Y-66693372D01*
X77204369Y-66693372D02*
X77285181Y-66720309D01*
X77285181Y-66720309D02*
X77339056Y-66774184D01*
X77339056Y-66774184D02*
X77392930Y-66881934D01*
X77392930Y-66881934D02*
X77392930Y-67528431D01*
X77392930Y-67528431D02*
X77743117Y-67178245D01*
X77446805Y-66450935D02*
X77446805Y-66397060D01*
X77446805Y-66397060D02*
X77473743Y-66316248D01*
X77473743Y-66316248D02*
X77608430Y-66181561D01*
X77608430Y-66181561D02*
X77689242Y-66154624D01*
X77689242Y-66154624D02*
X77743117Y-66154624D01*
X77743117Y-66154624D02*
X77823929Y-66181561D01*
X77823929Y-66181561D02*
X77877804Y-66235436D01*
X77877804Y-66235436D02*
X77931679Y-66343186D01*
X77931679Y-66343186D02*
X77931679Y-66989683D01*
X77931679Y-66989683D02*
X78281865Y-66639497D01*
X50488372Y-39561494D02*
X50407560Y-39588431D01*
X50407560Y-39588431D02*
X50326748Y-39669243D01*
X50326748Y-39669243D02*
X50272873Y-39776993D01*
X50272873Y-39776993D02*
X50272873Y-39884742D01*
X50272873Y-39884742D02*
X50299810Y-39965555D01*
X50299810Y-39965555D02*
X50380623Y-40100242D01*
X50380623Y-40100242D02*
X50461435Y-40181054D01*
X50461435Y-40181054D02*
X50596122Y-40261866D01*
X50596122Y-40261866D02*
X50676934Y-40288803D01*
X50676934Y-40288803D02*
X50784684Y-40288803D01*
X50784684Y-40288803D02*
X50892433Y-40234929D01*
X50892433Y-40234929D02*
X50946308Y-40181054D01*
X50946308Y-40181054D02*
X51000183Y-40073304D01*
X51000183Y-40073304D02*
X51000183Y-40019429D01*
X51000183Y-40019429D02*
X50811621Y-39830868D01*
X50811621Y-39830868D02*
X50703871Y-39938617D01*
X51296494Y-39830868D02*
X50730809Y-39265182D01*
X50730809Y-39265182D02*
X50946308Y-39049683D01*
X50946308Y-39049683D02*
X51027120Y-39022746D01*
X51027120Y-39022746D02*
X51080995Y-39022746D01*
X51080995Y-39022746D02*
X51161807Y-39049683D01*
X51161807Y-39049683D02*
X51242619Y-39130495D01*
X51242619Y-39130495D02*
X51269557Y-39211307D01*
X51269557Y-39211307D02*
X51269557Y-39265182D01*
X51269557Y-39265182D02*
X51242619Y-39345994D01*
X51242619Y-39345994D02*
X51027120Y-39561494D01*
X51404244Y-38591747D02*
X51458119Y-38537872D01*
X51458119Y-38537872D02*
X51538931Y-38510935D01*
X51538931Y-38510935D02*
X51592806Y-38510935D01*
X51592806Y-38510935D02*
X51673618Y-38537872D01*
X51673618Y-38537872D02*
X51808305Y-38618685D01*
X51808305Y-38618685D02*
X51942992Y-38753372D01*
X51942992Y-38753372D02*
X52023804Y-38888059D01*
X52023804Y-38888059D02*
X52050741Y-38968871D01*
X52050741Y-38968871D02*
X52050741Y-39022746D01*
X52050741Y-39022746D02*
X52023804Y-39103558D01*
X52023804Y-39103558D02*
X51969929Y-39157433D01*
X51969929Y-39157433D02*
X51889117Y-39184370D01*
X51889117Y-39184370D02*
X51835242Y-39184370D01*
X51835242Y-39184370D02*
X51754430Y-39157433D01*
X51754430Y-39157433D02*
X51619743Y-39076620D01*
X51619743Y-39076620D02*
X51485056Y-38941933D01*
X51485056Y-38941933D02*
X51404244Y-38807246D01*
X51404244Y-38807246D02*
X51377306Y-38726434D01*
X51377306Y-38726434D02*
X51377306Y-38672559D01*
X51377306Y-38672559D02*
X51404244Y-38591747D01*
X76072998Y-80470868D02*
X75992185Y-80497805D01*
X75992185Y-80497805D02*
X75911373Y-80578618D01*
X75911373Y-80578618D02*
X75857498Y-80686367D01*
X75857498Y-80686367D02*
X75857498Y-80794117D01*
X75857498Y-80794117D02*
X75884436Y-80874929D01*
X75884436Y-80874929D02*
X75965248Y-81009616D01*
X75965248Y-81009616D02*
X76046060Y-81090428D01*
X76046060Y-81090428D02*
X76180747Y-81171241D01*
X76180747Y-81171241D02*
X76261560Y-81198178D01*
X76261560Y-81198178D02*
X76369309Y-81198178D01*
X76369309Y-81198178D02*
X76477059Y-81144303D01*
X76477059Y-81144303D02*
X76530934Y-81090428D01*
X76530934Y-81090428D02*
X76584808Y-80982679D01*
X76584808Y-80982679D02*
X76584808Y-80928804D01*
X76584808Y-80928804D02*
X76396247Y-80740242D01*
X76396247Y-80740242D02*
X76288497Y-80847992D01*
X76881120Y-80740242D02*
X76315434Y-80174557D01*
X76315434Y-80174557D02*
X76530934Y-79959057D01*
X76530934Y-79959057D02*
X76611746Y-79932120D01*
X76611746Y-79932120D02*
X76665621Y-79932120D01*
X76665621Y-79932120D02*
X76746433Y-79959057D01*
X76746433Y-79959057D02*
X76827245Y-80039870D01*
X76827245Y-80039870D02*
X76854182Y-80120682D01*
X76854182Y-80120682D02*
X76854182Y-80174557D01*
X76854182Y-80174557D02*
X76827245Y-80255369D01*
X76827245Y-80255369D02*
X76611746Y-80470868D01*
X77743117Y-79878245D02*
X77419868Y-80201494D01*
X77581492Y-80039870D02*
X77015807Y-79474184D01*
X77015807Y-79474184D02*
X77042744Y-79608871D01*
X77042744Y-79608871D02*
X77042744Y-79716621D01*
X77042744Y-79716621D02*
X77015807Y-79797433D01*
X77743117Y-79231747D02*
X77662305Y-79258685D01*
X77662305Y-79258685D02*
X77608430Y-79258685D01*
X77608430Y-79258685D02*
X77527618Y-79231747D01*
X77527618Y-79231747D02*
X77500680Y-79204810D01*
X77500680Y-79204810D02*
X77473743Y-79123998D01*
X77473743Y-79123998D02*
X77473743Y-79070123D01*
X77473743Y-79070123D02*
X77500680Y-78989311D01*
X77500680Y-78989311D02*
X77608430Y-78881561D01*
X77608430Y-78881561D02*
X77689242Y-78854624D01*
X77689242Y-78854624D02*
X77743117Y-78854624D01*
X77743117Y-78854624D02*
X77823929Y-78881561D01*
X77823929Y-78881561D02*
X77850866Y-78908499D01*
X77850866Y-78908499D02*
X77877804Y-78989311D01*
X77877804Y-78989311D02*
X77877804Y-79043186D01*
X77877804Y-79043186D02*
X77850866Y-79123998D01*
X77850866Y-79123998D02*
X77743117Y-79231747D01*
X77743117Y-79231747D02*
X77716179Y-79312560D01*
X77716179Y-79312560D02*
X77716179Y-79366434D01*
X77716179Y-79366434D02*
X77743117Y-79447247D01*
X77743117Y-79447247D02*
X77850866Y-79554996D01*
X77850866Y-79554996D02*
X77931679Y-79581934D01*
X77931679Y-79581934D02*
X77985553Y-79581934D01*
X77985553Y-79581934D02*
X78066366Y-79554996D01*
X78066366Y-79554996D02*
X78174115Y-79447247D01*
X78174115Y-79447247D02*
X78201053Y-79366434D01*
X78201053Y-79366434D02*
X78201053Y-79312560D01*
X78201053Y-79312560D02*
X78174115Y-79231747D01*
X78174115Y-79231747D02*
X78066366Y-79123998D01*
X78066366Y-79123998D02*
X77985553Y-79097060D01*
X77985553Y-79097060D02*
X77931679Y-79097060D01*
X77931679Y-79097060D02*
X77850866Y-79123998D01*
X50488372Y-54801494D02*
X50407560Y-54828431D01*
X50407560Y-54828431D02*
X50326748Y-54909243D01*
X50326748Y-54909243D02*
X50272873Y-55016993D01*
X50272873Y-55016993D02*
X50272873Y-55124742D01*
X50272873Y-55124742D02*
X50299810Y-55205555D01*
X50299810Y-55205555D02*
X50380623Y-55340242D01*
X50380623Y-55340242D02*
X50461435Y-55421054D01*
X50461435Y-55421054D02*
X50596122Y-55501866D01*
X50596122Y-55501866D02*
X50676934Y-55528803D01*
X50676934Y-55528803D02*
X50784684Y-55528803D01*
X50784684Y-55528803D02*
X50892433Y-55474929D01*
X50892433Y-55474929D02*
X50946308Y-55421054D01*
X50946308Y-55421054D02*
X51000183Y-55313304D01*
X51000183Y-55313304D02*
X51000183Y-55259429D01*
X51000183Y-55259429D02*
X50811621Y-55070868D01*
X50811621Y-55070868D02*
X50703871Y-55178617D01*
X51296494Y-55070868D02*
X50730809Y-54505182D01*
X50730809Y-54505182D02*
X50946308Y-54289683D01*
X50946308Y-54289683D02*
X51027120Y-54262746D01*
X51027120Y-54262746D02*
X51080995Y-54262746D01*
X51080995Y-54262746D02*
X51161807Y-54289683D01*
X51161807Y-54289683D02*
X51242619Y-54370495D01*
X51242619Y-54370495D02*
X51269557Y-54451307D01*
X51269557Y-54451307D02*
X51269557Y-54505182D01*
X51269557Y-54505182D02*
X51242619Y-54585994D01*
X51242619Y-54585994D02*
X51027120Y-54801494D01*
X51565868Y-53670123D02*
X51296494Y-53939497D01*
X51296494Y-53939497D02*
X51538931Y-54235808D01*
X51538931Y-54235808D02*
X51538931Y-54181933D01*
X51538931Y-54181933D02*
X51565868Y-54101121D01*
X51565868Y-54101121D02*
X51700555Y-53966434D01*
X51700555Y-53966434D02*
X51781367Y-53939497D01*
X51781367Y-53939497D02*
X51835242Y-53939497D01*
X51835242Y-53939497D02*
X51916054Y-53966434D01*
X51916054Y-53966434D02*
X52050741Y-54101121D01*
X52050741Y-54101121D02*
X52077679Y-54181933D01*
X52077679Y-54181933D02*
X52077679Y-54235808D01*
X52077679Y-54235808D02*
X52050741Y-54316620D01*
X52050741Y-54316620D02*
X51916054Y-54451307D01*
X51916054Y-54451307D02*
X51835242Y-54478245D01*
X51835242Y-54478245D02*
X51781367Y-54478245D01*
X49818998Y-77930868D02*
X49738185Y-77957805D01*
X49738185Y-77957805D02*
X49657373Y-78038618D01*
X49657373Y-78038618D02*
X49603498Y-78146367D01*
X49603498Y-78146367D02*
X49603498Y-78254117D01*
X49603498Y-78254117D02*
X49630436Y-78334929D01*
X49630436Y-78334929D02*
X49711248Y-78469616D01*
X49711248Y-78469616D02*
X49792060Y-78550428D01*
X49792060Y-78550428D02*
X49926747Y-78631241D01*
X49926747Y-78631241D02*
X50007560Y-78658178D01*
X50007560Y-78658178D02*
X50115309Y-78658178D01*
X50115309Y-78658178D02*
X50223059Y-78604303D01*
X50223059Y-78604303D02*
X50276934Y-78550428D01*
X50276934Y-78550428D02*
X50330808Y-78442679D01*
X50330808Y-78442679D02*
X50330808Y-78388804D01*
X50330808Y-78388804D02*
X50142247Y-78200242D01*
X50142247Y-78200242D02*
X50034497Y-78307992D01*
X50627120Y-78200242D02*
X50061434Y-77634557D01*
X50061434Y-77634557D02*
X50276934Y-77419057D01*
X50276934Y-77419057D02*
X50357746Y-77392120D01*
X50357746Y-77392120D02*
X50411621Y-77392120D01*
X50411621Y-77392120D02*
X50492433Y-77419057D01*
X50492433Y-77419057D02*
X50573245Y-77499870D01*
X50573245Y-77499870D02*
X50600182Y-77580682D01*
X50600182Y-77580682D02*
X50600182Y-77634557D01*
X50600182Y-77634557D02*
X50573245Y-77715369D01*
X50573245Y-77715369D02*
X50357746Y-77930868D01*
X51489117Y-77338245D02*
X51165868Y-77661494D01*
X51327492Y-77499870D02*
X50761807Y-76934184D01*
X50761807Y-76934184D02*
X50788744Y-77068871D01*
X50788744Y-77068871D02*
X50788744Y-77176621D01*
X50788744Y-77176621D02*
X50761807Y-77257433D01*
X51192805Y-76610935D02*
X51192805Y-76557060D01*
X51192805Y-76557060D02*
X51219743Y-76476248D01*
X51219743Y-76476248D02*
X51354430Y-76341561D01*
X51354430Y-76341561D02*
X51435242Y-76314624D01*
X51435242Y-76314624D02*
X51489117Y-76314624D01*
X51489117Y-76314624D02*
X51569929Y-76341561D01*
X51569929Y-76341561D02*
X51623804Y-76395436D01*
X51623804Y-76395436D02*
X51677679Y-76503186D01*
X51677679Y-76503186D02*
X51677679Y-77149683D01*
X51677679Y-77149683D02*
X52027865Y-76799497D01*
X76072998Y-77930868D02*
X75992185Y-77957805D01*
X75992185Y-77957805D02*
X75911373Y-78038618D01*
X75911373Y-78038618D02*
X75857498Y-78146367D01*
X75857498Y-78146367D02*
X75857498Y-78254117D01*
X75857498Y-78254117D02*
X75884436Y-78334929D01*
X75884436Y-78334929D02*
X75965248Y-78469616D01*
X75965248Y-78469616D02*
X76046060Y-78550428D01*
X76046060Y-78550428D02*
X76180747Y-78631241D01*
X76180747Y-78631241D02*
X76261560Y-78658178D01*
X76261560Y-78658178D02*
X76369309Y-78658178D01*
X76369309Y-78658178D02*
X76477059Y-78604303D01*
X76477059Y-78604303D02*
X76530934Y-78550428D01*
X76530934Y-78550428D02*
X76584808Y-78442679D01*
X76584808Y-78442679D02*
X76584808Y-78388804D01*
X76584808Y-78388804D02*
X76396247Y-78200242D01*
X76396247Y-78200242D02*
X76288497Y-78307992D01*
X76881120Y-78200242D02*
X76315434Y-77634557D01*
X76315434Y-77634557D02*
X76530934Y-77419057D01*
X76530934Y-77419057D02*
X76611746Y-77392120D01*
X76611746Y-77392120D02*
X76665621Y-77392120D01*
X76665621Y-77392120D02*
X76746433Y-77419057D01*
X76746433Y-77419057D02*
X76827245Y-77499870D01*
X76827245Y-77499870D02*
X76854182Y-77580682D01*
X76854182Y-77580682D02*
X76854182Y-77634557D01*
X76854182Y-77634557D02*
X76827245Y-77715369D01*
X76827245Y-77715369D02*
X76611746Y-77930868D01*
X77743117Y-77338245D02*
X77419868Y-77661494D01*
X77581492Y-77499870D02*
X77015807Y-76934184D01*
X77015807Y-76934184D02*
X77042744Y-77068871D01*
X77042744Y-77068871D02*
X77042744Y-77176621D01*
X77042744Y-77176621D02*
X77015807Y-77257433D01*
X78012491Y-77068871D02*
X78120240Y-76961121D01*
X78120240Y-76961121D02*
X78147178Y-76880309D01*
X78147178Y-76880309D02*
X78147178Y-76826434D01*
X78147178Y-76826434D02*
X78120240Y-76691747D01*
X78120240Y-76691747D02*
X78039428Y-76557060D01*
X78039428Y-76557060D02*
X77823929Y-76341561D01*
X77823929Y-76341561D02*
X77743117Y-76314624D01*
X77743117Y-76314624D02*
X77689242Y-76314624D01*
X77689242Y-76314624D02*
X77608430Y-76341561D01*
X77608430Y-76341561D02*
X77500680Y-76449311D01*
X77500680Y-76449311D02*
X77473743Y-76530123D01*
X77473743Y-76530123D02*
X77473743Y-76583998D01*
X77473743Y-76583998D02*
X77500680Y-76664810D01*
X77500680Y-76664810D02*
X77635367Y-76799497D01*
X77635367Y-76799497D02*
X77716179Y-76826434D01*
X77716179Y-76826434D02*
X77770054Y-76826434D01*
X77770054Y-76826434D02*
X77850866Y-76799497D01*
X77850866Y-76799497D02*
X77958616Y-76691747D01*
X77958616Y-76691747D02*
X77985553Y-76610935D01*
X77985553Y-76610935D02*
X77985553Y-76557060D01*
X77985553Y-76557060D02*
X77958616Y-76476248D01*
X50488372Y-67501494D02*
X50407560Y-67528431D01*
X50407560Y-67528431D02*
X50326748Y-67609243D01*
X50326748Y-67609243D02*
X50272873Y-67716993D01*
X50272873Y-67716993D02*
X50272873Y-67824742D01*
X50272873Y-67824742D02*
X50299810Y-67905555D01*
X50299810Y-67905555D02*
X50380623Y-68040242D01*
X50380623Y-68040242D02*
X50461435Y-68121054D01*
X50461435Y-68121054D02*
X50596122Y-68201866D01*
X50596122Y-68201866D02*
X50676934Y-68228803D01*
X50676934Y-68228803D02*
X50784684Y-68228803D01*
X50784684Y-68228803D02*
X50892433Y-68174929D01*
X50892433Y-68174929D02*
X50946308Y-68121054D01*
X50946308Y-68121054D02*
X51000183Y-68013304D01*
X51000183Y-68013304D02*
X51000183Y-67959429D01*
X51000183Y-67959429D02*
X50811621Y-67770868D01*
X50811621Y-67770868D02*
X50703871Y-67878617D01*
X51296494Y-67770868D02*
X50730809Y-67205182D01*
X50730809Y-67205182D02*
X50946308Y-66989683D01*
X50946308Y-66989683D02*
X51027120Y-66962746D01*
X51027120Y-66962746D02*
X51080995Y-66962746D01*
X51080995Y-66962746D02*
X51161807Y-66989683D01*
X51161807Y-66989683D02*
X51242619Y-67070495D01*
X51242619Y-67070495D02*
X51269557Y-67151307D01*
X51269557Y-67151307D02*
X51269557Y-67205182D01*
X51269557Y-67205182D02*
X51242619Y-67285994D01*
X51242619Y-67285994D02*
X51027120Y-67501494D01*
X51889117Y-67178245D02*
X51996867Y-67070495D01*
X51996867Y-67070495D02*
X52023804Y-66989683D01*
X52023804Y-66989683D02*
X52023804Y-66935808D01*
X52023804Y-66935808D02*
X51996867Y-66801121D01*
X51996867Y-66801121D02*
X51916054Y-66666434D01*
X51916054Y-66666434D02*
X51700555Y-66450935D01*
X51700555Y-66450935D02*
X51619743Y-66423998D01*
X51619743Y-66423998D02*
X51565868Y-66423998D01*
X51565868Y-66423998D02*
X51485056Y-66450935D01*
X51485056Y-66450935D02*
X51377306Y-66558685D01*
X51377306Y-66558685D02*
X51350369Y-66639497D01*
X51350369Y-66639497D02*
X51350369Y-66693372D01*
X51350369Y-66693372D02*
X51377306Y-66774184D01*
X51377306Y-66774184D02*
X51511993Y-66908871D01*
X51511993Y-66908871D02*
X51592806Y-66935808D01*
X51592806Y-66935808D02*
X51646680Y-66935808D01*
X51646680Y-66935808D02*
X51727493Y-66908871D01*
X51727493Y-66908871D02*
X51835242Y-66801121D01*
X51835242Y-66801121D02*
X51862180Y-66720309D01*
X51862180Y-66720309D02*
X51862180Y-66666434D01*
X51862180Y-66666434D02*
X51835242Y-66585622D01*
X76061435Y-82768431D02*
X75980623Y-82795368D01*
X75980623Y-82795368D02*
X75899811Y-82876180D01*
X75899811Y-82876180D02*
X75845936Y-82983930D01*
X75845936Y-82983930D02*
X75845936Y-83091680D01*
X75845936Y-83091680D02*
X75872873Y-83172492D01*
X75872873Y-83172492D02*
X75953685Y-83307179D01*
X75953685Y-83307179D02*
X76034498Y-83387991D01*
X76034498Y-83387991D02*
X76169185Y-83468803D01*
X76169185Y-83468803D02*
X76249997Y-83495741D01*
X76249997Y-83495741D02*
X76357746Y-83495741D01*
X76357746Y-83495741D02*
X76465496Y-83441866D01*
X76465496Y-83441866D02*
X76519371Y-83387991D01*
X76519371Y-83387991D02*
X76573246Y-83280241D01*
X76573246Y-83280241D02*
X76573246Y-83226367D01*
X76573246Y-83226367D02*
X76384684Y-83037805D01*
X76384684Y-83037805D02*
X76276934Y-83145554D01*
X76869557Y-83037805D02*
X76303872Y-82472119D01*
X76303872Y-82472119D02*
X77192806Y-82714556D01*
X77192806Y-82714556D02*
X76627120Y-82148871D01*
X77462180Y-82445182D02*
X76896494Y-81879497D01*
X76896494Y-81879497D02*
X77031181Y-81744810D01*
X77031181Y-81744810D02*
X77138931Y-81690935D01*
X77138931Y-81690935D02*
X77246680Y-81690935D01*
X77246680Y-81690935D02*
X77327493Y-81717872D01*
X77327493Y-81717872D02*
X77462180Y-81798685D01*
X77462180Y-81798685D02*
X77542992Y-81879497D01*
X77542992Y-81879497D02*
X77623804Y-82014184D01*
X77623804Y-82014184D02*
X77650741Y-82094996D01*
X77650741Y-82094996D02*
X77650741Y-82202746D01*
X77650741Y-82202746D02*
X77596867Y-82310495D01*
X77596867Y-82310495D02*
X77462180Y-82445182D01*
X76072998Y-62690868D02*
X75992185Y-62717805D01*
X75992185Y-62717805D02*
X75911373Y-62798618D01*
X75911373Y-62798618D02*
X75857498Y-62906367D01*
X75857498Y-62906367D02*
X75857498Y-63014117D01*
X75857498Y-63014117D02*
X75884436Y-63094929D01*
X75884436Y-63094929D02*
X75965248Y-63229616D01*
X75965248Y-63229616D02*
X76046060Y-63310428D01*
X76046060Y-63310428D02*
X76180747Y-63391241D01*
X76180747Y-63391241D02*
X76261560Y-63418178D01*
X76261560Y-63418178D02*
X76369309Y-63418178D01*
X76369309Y-63418178D02*
X76477059Y-63364303D01*
X76477059Y-63364303D02*
X76530934Y-63310428D01*
X76530934Y-63310428D02*
X76584808Y-63202679D01*
X76584808Y-63202679D02*
X76584808Y-63148804D01*
X76584808Y-63148804D02*
X76396247Y-62960242D01*
X76396247Y-62960242D02*
X76288497Y-63067992D01*
X76881120Y-62960242D02*
X76315434Y-62394557D01*
X76315434Y-62394557D02*
X76530934Y-62179057D01*
X76530934Y-62179057D02*
X76611746Y-62152120D01*
X76611746Y-62152120D02*
X76665621Y-62152120D01*
X76665621Y-62152120D02*
X76746433Y-62179057D01*
X76746433Y-62179057D02*
X76827245Y-62259870D01*
X76827245Y-62259870D02*
X76854182Y-62340682D01*
X76854182Y-62340682D02*
X76854182Y-62394557D01*
X76854182Y-62394557D02*
X76827245Y-62475369D01*
X76827245Y-62475369D02*
X76611746Y-62690868D01*
X76908057Y-61909683D02*
X76908057Y-61855809D01*
X76908057Y-61855809D02*
X76934995Y-61774996D01*
X76934995Y-61774996D02*
X77069682Y-61640309D01*
X77069682Y-61640309D02*
X77150494Y-61613372D01*
X77150494Y-61613372D02*
X77204369Y-61613372D01*
X77204369Y-61613372D02*
X77285181Y-61640309D01*
X77285181Y-61640309D02*
X77339056Y-61694184D01*
X77339056Y-61694184D02*
X77392930Y-61801934D01*
X77392930Y-61801934D02*
X77392930Y-62448431D01*
X77392930Y-62448431D02*
X77743117Y-62098245D01*
X77662305Y-61047686D02*
X77554555Y-61155436D01*
X77554555Y-61155436D02*
X77527618Y-61236248D01*
X77527618Y-61236248D02*
X77527618Y-61290123D01*
X77527618Y-61290123D02*
X77554555Y-61424810D01*
X77554555Y-61424810D02*
X77635367Y-61559497D01*
X77635367Y-61559497D02*
X77850866Y-61774996D01*
X77850866Y-61774996D02*
X77931679Y-61801934D01*
X77931679Y-61801934D02*
X77985553Y-61801934D01*
X77985553Y-61801934D02*
X78066366Y-61774996D01*
X78066366Y-61774996D02*
X78174115Y-61667247D01*
X78174115Y-61667247D02*
X78201053Y-61586434D01*
X78201053Y-61586434D02*
X78201053Y-61532560D01*
X78201053Y-61532560D02*
X78174115Y-61451747D01*
X78174115Y-61451747D02*
X78039428Y-61317060D01*
X78039428Y-61317060D02*
X77958616Y-61290123D01*
X77958616Y-61290123D02*
X77904741Y-61290123D01*
X77904741Y-61290123D02*
X77823929Y-61317060D01*
X77823929Y-61317060D02*
X77716179Y-61424810D01*
X77716179Y-61424810D02*
X77689242Y-61505622D01*
X77689242Y-61505622D02*
X77689242Y-61559497D01*
X77689242Y-61559497D02*
X77716179Y-61640309D01*
X76072998Y-85550868D02*
X75992185Y-85577805D01*
X75992185Y-85577805D02*
X75911373Y-85658618D01*
X75911373Y-85658618D02*
X75857498Y-85766367D01*
X75857498Y-85766367D02*
X75857498Y-85874117D01*
X75857498Y-85874117D02*
X75884436Y-85954929D01*
X75884436Y-85954929D02*
X75965248Y-86089616D01*
X75965248Y-86089616D02*
X76046060Y-86170428D01*
X76046060Y-86170428D02*
X76180747Y-86251241D01*
X76180747Y-86251241D02*
X76261560Y-86278178D01*
X76261560Y-86278178D02*
X76369309Y-86278178D01*
X76369309Y-86278178D02*
X76477059Y-86224303D01*
X76477059Y-86224303D02*
X76530934Y-86170428D01*
X76530934Y-86170428D02*
X76584808Y-86062679D01*
X76584808Y-86062679D02*
X76584808Y-86008804D01*
X76584808Y-86008804D02*
X76396247Y-85820242D01*
X76396247Y-85820242D02*
X76288497Y-85927992D01*
X76881120Y-85820242D02*
X76315434Y-85254557D01*
X76315434Y-85254557D02*
X76530934Y-85039057D01*
X76530934Y-85039057D02*
X76611746Y-85012120D01*
X76611746Y-85012120D02*
X76665621Y-85012120D01*
X76665621Y-85012120D02*
X76746433Y-85039057D01*
X76746433Y-85039057D02*
X76827245Y-85119870D01*
X76827245Y-85119870D02*
X76854182Y-85200682D01*
X76854182Y-85200682D02*
X76854182Y-85254557D01*
X76854182Y-85254557D02*
X76827245Y-85335369D01*
X76827245Y-85335369D02*
X76611746Y-85550868D01*
X77743117Y-84958245D02*
X77419868Y-85281494D01*
X77581492Y-85119870D02*
X77015807Y-84554184D01*
X77015807Y-84554184D02*
X77042744Y-84688871D01*
X77042744Y-84688871D02*
X77042744Y-84796621D01*
X77042744Y-84796621D02*
X77015807Y-84877433D01*
X77365993Y-84203998D02*
X77743117Y-83826874D01*
X77743117Y-83826874D02*
X78066366Y-84634996D01*
X76072998Y-75390868D02*
X75992185Y-75417805D01*
X75992185Y-75417805D02*
X75911373Y-75498618D01*
X75911373Y-75498618D02*
X75857498Y-75606367D01*
X75857498Y-75606367D02*
X75857498Y-75714117D01*
X75857498Y-75714117D02*
X75884436Y-75794929D01*
X75884436Y-75794929D02*
X75965248Y-75929616D01*
X75965248Y-75929616D02*
X76046060Y-76010428D01*
X76046060Y-76010428D02*
X76180747Y-76091241D01*
X76180747Y-76091241D02*
X76261560Y-76118178D01*
X76261560Y-76118178D02*
X76369309Y-76118178D01*
X76369309Y-76118178D02*
X76477059Y-76064303D01*
X76477059Y-76064303D02*
X76530934Y-76010428D01*
X76530934Y-76010428D02*
X76584808Y-75902679D01*
X76584808Y-75902679D02*
X76584808Y-75848804D01*
X76584808Y-75848804D02*
X76396247Y-75660242D01*
X76396247Y-75660242D02*
X76288497Y-75767992D01*
X76881120Y-75660242D02*
X76315434Y-75094557D01*
X76315434Y-75094557D02*
X76530934Y-74879057D01*
X76530934Y-74879057D02*
X76611746Y-74852120D01*
X76611746Y-74852120D02*
X76665621Y-74852120D01*
X76665621Y-74852120D02*
X76746433Y-74879057D01*
X76746433Y-74879057D02*
X76827245Y-74959870D01*
X76827245Y-74959870D02*
X76854182Y-75040682D01*
X76854182Y-75040682D02*
X76854182Y-75094557D01*
X76854182Y-75094557D02*
X76827245Y-75175369D01*
X76827245Y-75175369D02*
X76611746Y-75390868D01*
X76908057Y-74609683D02*
X76908057Y-74555809D01*
X76908057Y-74555809D02*
X76934995Y-74474996D01*
X76934995Y-74474996D02*
X77069682Y-74340309D01*
X77069682Y-74340309D02*
X77150494Y-74313372D01*
X77150494Y-74313372D02*
X77204369Y-74313372D01*
X77204369Y-74313372D02*
X77285181Y-74340309D01*
X77285181Y-74340309D02*
X77339056Y-74394184D01*
X77339056Y-74394184D02*
X77392930Y-74501934D01*
X77392930Y-74501934D02*
X77392930Y-75148431D01*
X77392930Y-75148431D02*
X77743117Y-74798245D01*
X77527618Y-73882373D02*
X77581492Y-73828499D01*
X77581492Y-73828499D02*
X77662305Y-73801561D01*
X77662305Y-73801561D02*
X77716179Y-73801561D01*
X77716179Y-73801561D02*
X77796992Y-73828499D01*
X77796992Y-73828499D02*
X77931679Y-73909311D01*
X77931679Y-73909311D02*
X78066366Y-74043998D01*
X78066366Y-74043998D02*
X78147178Y-74178685D01*
X78147178Y-74178685D02*
X78174115Y-74259497D01*
X78174115Y-74259497D02*
X78174115Y-74313372D01*
X78174115Y-74313372D02*
X78147178Y-74394184D01*
X78147178Y-74394184D02*
X78093303Y-74448059D01*
X78093303Y-74448059D02*
X78012491Y-74474996D01*
X78012491Y-74474996D02*
X77958616Y-74474996D01*
X77958616Y-74474996D02*
X77877804Y-74448059D01*
X77877804Y-74448059D02*
X77743117Y-74367247D01*
X77743117Y-74367247D02*
X77608430Y-74232560D01*
X77608430Y-74232560D02*
X77527618Y-74097873D01*
X77527618Y-74097873D02*
X77500680Y-74017060D01*
X77500680Y-74017060D02*
X77500680Y-73963186D01*
X77500680Y-73963186D02*
X77527618Y-73882373D01*
X50461435Y-44668431D02*
X50380623Y-44695368D01*
X50380623Y-44695368D02*
X50299811Y-44776180D01*
X50299811Y-44776180D02*
X50245936Y-44883930D01*
X50245936Y-44883930D02*
X50245936Y-44991680D01*
X50245936Y-44991680D02*
X50272873Y-45072492D01*
X50272873Y-45072492D02*
X50353685Y-45207179D01*
X50353685Y-45207179D02*
X50434498Y-45287991D01*
X50434498Y-45287991D02*
X50569185Y-45368803D01*
X50569185Y-45368803D02*
X50649997Y-45395741D01*
X50649997Y-45395741D02*
X50757746Y-45395741D01*
X50757746Y-45395741D02*
X50865496Y-45341866D01*
X50865496Y-45341866D02*
X50919371Y-45287991D01*
X50919371Y-45287991D02*
X50973246Y-45180241D01*
X50973246Y-45180241D02*
X50973246Y-45126367D01*
X50973246Y-45126367D02*
X50784684Y-44937805D01*
X50784684Y-44937805D02*
X50676934Y-45045554D01*
X51269557Y-44937805D02*
X50703872Y-44372119D01*
X50703872Y-44372119D02*
X51592806Y-44614556D01*
X51592806Y-44614556D02*
X51027120Y-44048871D01*
X51862180Y-44345182D02*
X51296494Y-43779497D01*
X51296494Y-43779497D02*
X51431181Y-43644810D01*
X51431181Y-43644810D02*
X51538931Y-43590935D01*
X51538931Y-43590935D02*
X51646680Y-43590935D01*
X51646680Y-43590935D02*
X51727493Y-43617872D01*
X51727493Y-43617872D02*
X51862180Y-43698685D01*
X51862180Y-43698685D02*
X51942992Y-43779497D01*
X51942992Y-43779497D02*
X52023804Y-43914184D01*
X52023804Y-43914184D02*
X52050741Y-43994996D01*
X52050741Y-43994996D02*
X52050741Y-44102746D01*
X52050741Y-44102746D02*
X51996867Y-44210495D01*
X51996867Y-44210495D02*
X51862180Y-44345182D01*
X50488372Y-49721494D02*
X50407560Y-49748431D01*
X50407560Y-49748431D02*
X50326748Y-49829243D01*
X50326748Y-49829243D02*
X50272873Y-49936993D01*
X50272873Y-49936993D02*
X50272873Y-50044742D01*
X50272873Y-50044742D02*
X50299810Y-50125555D01*
X50299810Y-50125555D02*
X50380623Y-50260242D01*
X50380623Y-50260242D02*
X50461435Y-50341054D01*
X50461435Y-50341054D02*
X50596122Y-50421866D01*
X50596122Y-50421866D02*
X50676934Y-50448803D01*
X50676934Y-50448803D02*
X50784684Y-50448803D01*
X50784684Y-50448803D02*
X50892433Y-50394929D01*
X50892433Y-50394929D02*
X50946308Y-50341054D01*
X50946308Y-50341054D02*
X51000183Y-50233304D01*
X51000183Y-50233304D02*
X51000183Y-50179429D01*
X51000183Y-50179429D02*
X50811621Y-49990868D01*
X50811621Y-49990868D02*
X50703871Y-50098617D01*
X51296494Y-49990868D02*
X50730809Y-49425182D01*
X50730809Y-49425182D02*
X50946308Y-49209683D01*
X50946308Y-49209683D02*
X51027120Y-49182746D01*
X51027120Y-49182746D02*
X51080995Y-49182746D01*
X51080995Y-49182746D02*
X51161807Y-49209683D01*
X51161807Y-49209683D02*
X51242619Y-49290495D01*
X51242619Y-49290495D02*
X51269557Y-49371307D01*
X51269557Y-49371307D02*
X51269557Y-49425182D01*
X51269557Y-49425182D02*
X51242619Y-49505994D01*
X51242619Y-49505994D02*
X51027120Y-49721494D01*
X51242619Y-48913372D02*
X51592806Y-48563185D01*
X51592806Y-48563185D02*
X51619743Y-48967246D01*
X51619743Y-48967246D02*
X51700555Y-48886434D01*
X51700555Y-48886434D02*
X51781367Y-48859497D01*
X51781367Y-48859497D02*
X51835242Y-48859497D01*
X51835242Y-48859497D02*
X51916054Y-48886434D01*
X51916054Y-48886434D02*
X52050741Y-49021121D01*
X52050741Y-49021121D02*
X52077679Y-49101933D01*
X52077679Y-49101933D02*
X52077679Y-49155808D01*
X52077679Y-49155808D02*
X52050741Y-49236620D01*
X52050741Y-49236620D02*
X51889117Y-49398245D01*
X51889117Y-49398245D02*
X51808305Y-49425182D01*
X51808305Y-49425182D02*
X51754430Y-49425182D01*
X50461435Y-70068431D02*
X50380623Y-70095368D01*
X50380623Y-70095368D02*
X50299811Y-70176180D01*
X50299811Y-70176180D02*
X50245936Y-70283930D01*
X50245936Y-70283930D02*
X50245936Y-70391680D01*
X50245936Y-70391680D02*
X50272873Y-70472492D01*
X50272873Y-70472492D02*
X50353685Y-70607179D01*
X50353685Y-70607179D02*
X50434498Y-70687991D01*
X50434498Y-70687991D02*
X50569185Y-70768803D01*
X50569185Y-70768803D02*
X50649997Y-70795741D01*
X50649997Y-70795741D02*
X50757746Y-70795741D01*
X50757746Y-70795741D02*
X50865496Y-70741866D01*
X50865496Y-70741866D02*
X50919371Y-70687991D01*
X50919371Y-70687991D02*
X50973246Y-70580241D01*
X50973246Y-70580241D02*
X50973246Y-70526367D01*
X50973246Y-70526367D02*
X50784684Y-70337805D01*
X50784684Y-70337805D02*
X50676934Y-70445554D01*
X51269557Y-70337805D02*
X50703872Y-69772119D01*
X50703872Y-69772119D02*
X51592806Y-70014556D01*
X51592806Y-70014556D02*
X51027120Y-69448871D01*
X51862180Y-69745182D02*
X51296494Y-69179497D01*
X51296494Y-69179497D02*
X51431181Y-69044810D01*
X51431181Y-69044810D02*
X51538931Y-68990935D01*
X51538931Y-68990935D02*
X51646680Y-68990935D01*
X51646680Y-68990935D02*
X51727493Y-69017872D01*
X51727493Y-69017872D02*
X51862180Y-69098685D01*
X51862180Y-69098685D02*
X51942992Y-69179497D01*
X51942992Y-69179497D02*
X52023804Y-69314184D01*
X52023804Y-69314184D02*
X52050741Y-69394996D01*
X52050741Y-69394996D02*
X52050741Y-69502746D01*
X52050741Y-69502746D02*
X51996867Y-69610495D01*
X51996867Y-69610495D02*
X51862180Y-69745182D01*
X75270123Y-51140868D02*
X75620309Y-50790682D01*
X75620309Y-50790682D02*
X75647247Y-51194743D01*
X75647247Y-51194743D02*
X75728059Y-51113931D01*
X75728059Y-51113931D02*
X75808871Y-51086993D01*
X75808871Y-51086993D02*
X75862746Y-51086993D01*
X75862746Y-51086993D02*
X75943558Y-51113931D01*
X75943558Y-51113931D02*
X76078245Y-51248618D01*
X76078245Y-51248618D02*
X76105182Y-51329430D01*
X76105182Y-51329430D02*
X76105182Y-51383305D01*
X76105182Y-51383305D02*
X76078245Y-51464117D01*
X76078245Y-51464117D02*
X75916621Y-51625741D01*
X75916621Y-51625741D02*
X75835808Y-51652679D01*
X75835808Y-51652679D02*
X75781934Y-51652679D01*
X75781934Y-50629057D02*
X76536181Y-51006181D01*
X76536181Y-51006181D02*
X76159057Y-50251934D01*
X76293744Y-50117247D02*
X76643930Y-49767061D01*
X76643930Y-49767061D02*
X76670868Y-50171122D01*
X76670868Y-50171122D02*
X76751680Y-50090309D01*
X76751680Y-50090309D02*
X76832492Y-50063372D01*
X76832492Y-50063372D02*
X76886367Y-50063372D01*
X76886367Y-50063372D02*
X76967179Y-50090309D01*
X76967179Y-50090309D02*
X77101866Y-50224996D01*
X77101866Y-50224996D02*
X77128804Y-50305809D01*
X77128804Y-50305809D02*
X77128804Y-50359683D01*
X77128804Y-50359683D02*
X77101866Y-50440496D01*
X77101866Y-50440496D02*
X76940242Y-50602120D01*
X76940242Y-50602120D02*
X76859430Y-50629057D01*
X76859430Y-50629057D02*
X76805555Y-50629057D01*
X76072998Y-60160868D02*
X75992185Y-60187805D01*
X75992185Y-60187805D02*
X75911373Y-60268618D01*
X75911373Y-60268618D02*
X75857498Y-60376367D01*
X75857498Y-60376367D02*
X75857498Y-60484117D01*
X75857498Y-60484117D02*
X75884436Y-60564929D01*
X75884436Y-60564929D02*
X75965248Y-60699616D01*
X75965248Y-60699616D02*
X76046060Y-60780428D01*
X76046060Y-60780428D02*
X76180747Y-60861241D01*
X76180747Y-60861241D02*
X76261560Y-60888178D01*
X76261560Y-60888178D02*
X76369309Y-60888178D01*
X76369309Y-60888178D02*
X76477059Y-60834303D01*
X76477059Y-60834303D02*
X76530934Y-60780428D01*
X76530934Y-60780428D02*
X76584808Y-60672679D01*
X76584808Y-60672679D02*
X76584808Y-60618804D01*
X76584808Y-60618804D02*
X76396247Y-60430242D01*
X76396247Y-60430242D02*
X76288497Y-60537992D01*
X76881120Y-60430242D02*
X76315434Y-59864557D01*
X76315434Y-59864557D02*
X76530934Y-59649057D01*
X76530934Y-59649057D02*
X76611746Y-59622120D01*
X76611746Y-59622120D02*
X76665621Y-59622120D01*
X76665621Y-59622120D02*
X76746433Y-59649057D01*
X76746433Y-59649057D02*
X76827245Y-59729870D01*
X76827245Y-59729870D02*
X76854182Y-59810682D01*
X76854182Y-59810682D02*
X76854182Y-59864557D01*
X76854182Y-59864557D02*
X76827245Y-59945369D01*
X76827245Y-59945369D02*
X76611746Y-60160868D01*
X76908057Y-59379683D02*
X76908057Y-59325809D01*
X76908057Y-59325809D02*
X76934995Y-59244996D01*
X76934995Y-59244996D02*
X77069682Y-59110309D01*
X77069682Y-59110309D02*
X77150494Y-59083372D01*
X77150494Y-59083372D02*
X77204369Y-59083372D01*
X77204369Y-59083372D02*
X77285181Y-59110309D01*
X77285181Y-59110309D02*
X77339056Y-59164184D01*
X77339056Y-59164184D02*
X77392930Y-59271934D01*
X77392930Y-59271934D02*
X77392930Y-59918431D01*
X77392930Y-59918431D02*
X77743117Y-59568245D01*
X77365993Y-58813998D02*
X77743117Y-58436874D01*
X77743117Y-58436874D02*
X78066366Y-59244996D01*
X67879761Y-90094200D02*
X67994047Y-90132295D01*
X67994047Y-90132295D02*
X68184523Y-90132295D01*
X68184523Y-90132295D02*
X68260714Y-90094200D01*
X68260714Y-90094200D02*
X68298809Y-90056104D01*
X68298809Y-90056104D02*
X68336904Y-89979914D01*
X68336904Y-89979914D02*
X68336904Y-89903723D01*
X68336904Y-89903723D02*
X68298809Y-89827533D01*
X68298809Y-89827533D02*
X68260714Y-89789438D01*
X68260714Y-89789438D02*
X68184523Y-89751342D01*
X68184523Y-89751342D02*
X68032142Y-89713247D01*
X68032142Y-89713247D02*
X67955952Y-89675152D01*
X67955952Y-89675152D02*
X67917857Y-89637057D01*
X67917857Y-89637057D02*
X67879761Y-89560866D01*
X67879761Y-89560866D02*
X67879761Y-89484676D01*
X67879761Y-89484676D02*
X67917857Y-89408485D01*
X67917857Y-89408485D02*
X67955952Y-89370390D01*
X67955952Y-89370390D02*
X68032142Y-89332295D01*
X68032142Y-89332295D02*
X68222619Y-89332295D01*
X68222619Y-89332295D02*
X68336904Y-89370390D01*
X68603571Y-89332295D02*
X68794047Y-90132295D01*
X68794047Y-90132295D02*
X68946428Y-89560866D01*
X68946428Y-89560866D02*
X69098809Y-90132295D01*
X69098809Y-90132295D02*
X69289286Y-89332295D01*
X69594048Y-90132295D02*
X69594048Y-89332295D01*
X69594048Y-89332295D02*
X69784524Y-89332295D01*
X69784524Y-89332295D02*
X69898810Y-89370390D01*
X69898810Y-89370390D02*
X69975000Y-89446580D01*
X69975000Y-89446580D02*
X70013095Y-89522771D01*
X70013095Y-89522771D02*
X70051191Y-89675152D01*
X70051191Y-89675152D02*
X70051191Y-89789438D01*
X70051191Y-89789438D02*
X70013095Y-89941819D01*
X70013095Y-89941819D02*
X69975000Y-90018009D01*
X69975000Y-90018009D02*
X69898810Y-90094200D01*
X69898810Y-90094200D02*
X69784524Y-90132295D01*
X69784524Y-90132295D02*
X69594048Y-90132295D01*
X70394048Y-90132295D02*
X70394048Y-89332295D01*
X70927381Y-89332295D02*
X71079762Y-89332295D01*
X71079762Y-89332295D02*
X71155952Y-89370390D01*
X71155952Y-89370390D02*
X71232143Y-89446580D01*
X71232143Y-89446580D02*
X71270238Y-89598961D01*
X71270238Y-89598961D02*
X71270238Y-89865628D01*
X71270238Y-89865628D02*
X71232143Y-90018009D01*
X71232143Y-90018009D02*
X71155952Y-90094200D01*
X71155952Y-90094200D02*
X71079762Y-90132295D01*
X71079762Y-90132295D02*
X70927381Y-90132295D01*
X70927381Y-90132295D02*
X70851190Y-90094200D01*
X70851190Y-90094200D02*
X70775000Y-90018009D01*
X70775000Y-90018009D02*
X70736904Y-89865628D01*
X70736904Y-89865628D02*
X70736904Y-89598961D01*
X70736904Y-89598961D02*
X70775000Y-89446580D01*
X70775000Y-89446580D02*
X70851190Y-89370390D01*
X70851190Y-89370390D02*
X70927381Y-89332295D01*
X49918998Y-85550868D02*
X49838185Y-85577805D01*
X49838185Y-85577805D02*
X49757373Y-85658618D01*
X49757373Y-85658618D02*
X49703498Y-85766367D01*
X49703498Y-85766367D02*
X49703498Y-85874117D01*
X49703498Y-85874117D02*
X49730436Y-85954929D01*
X49730436Y-85954929D02*
X49811248Y-86089616D01*
X49811248Y-86089616D02*
X49892060Y-86170428D01*
X49892060Y-86170428D02*
X50026747Y-86251241D01*
X50026747Y-86251241D02*
X50107560Y-86278178D01*
X50107560Y-86278178D02*
X50215309Y-86278178D01*
X50215309Y-86278178D02*
X50323059Y-86224303D01*
X50323059Y-86224303D02*
X50376934Y-86170428D01*
X50376934Y-86170428D02*
X50430808Y-86062679D01*
X50430808Y-86062679D02*
X50430808Y-86008804D01*
X50430808Y-86008804D02*
X50242247Y-85820242D01*
X50242247Y-85820242D02*
X50134497Y-85927992D01*
X50727120Y-85820242D02*
X50161434Y-85254557D01*
X50161434Y-85254557D02*
X50376934Y-85039057D01*
X50376934Y-85039057D02*
X50457746Y-85012120D01*
X50457746Y-85012120D02*
X50511621Y-85012120D01*
X50511621Y-85012120D02*
X50592433Y-85039057D01*
X50592433Y-85039057D02*
X50673245Y-85119870D01*
X50673245Y-85119870D02*
X50700182Y-85200682D01*
X50700182Y-85200682D02*
X50700182Y-85254557D01*
X50700182Y-85254557D02*
X50673245Y-85335369D01*
X50673245Y-85335369D02*
X50457746Y-85550868D01*
X51589117Y-84958245D02*
X51265868Y-85281494D01*
X51427492Y-85119870D02*
X50861807Y-84554184D01*
X50861807Y-84554184D02*
X50888744Y-84688871D01*
X50888744Y-84688871D02*
X50888744Y-84796621D01*
X50888744Y-84796621D02*
X50861807Y-84877433D01*
X51696866Y-84096248D02*
X52073990Y-84473372D01*
X51346680Y-84015436D02*
X51616054Y-84554184D01*
X51616054Y-84554184D02*
X51966240Y-84203998D01*
X49964998Y-72850868D02*
X49884185Y-72877805D01*
X49884185Y-72877805D02*
X49803373Y-72958618D01*
X49803373Y-72958618D02*
X49749498Y-73066367D01*
X49749498Y-73066367D02*
X49749498Y-73174117D01*
X49749498Y-73174117D02*
X49776436Y-73254929D01*
X49776436Y-73254929D02*
X49857248Y-73389616D01*
X49857248Y-73389616D02*
X49938060Y-73470428D01*
X49938060Y-73470428D02*
X50072747Y-73551241D01*
X50072747Y-73551241D02*
X50153560Y-73578178D01*
X50153560Y-73578178D02*
X50261309Y-73578178D01*
X50261309Y-73578178D02*
X50369059Y-73524303D01*
X50369059Y-73524303D02*
X50422934Y-73470428D01*
X50422934Y-73470428D02*
X50476808Y-73362679D01*
X50476808Y-73362679D02*
X50476808Y-73308804D01*
X50476808Y-73308804D02*
X50288247Y-73120242D01*
X50288247Y-73120242D02*
X50180497Y-73227992D01*
X50773120Y-73120242D02*
X50207434Y-72554557D01*
X50207434Y-72554557D02*
X50422934Y-72339057D01*
X50422934Y-72339057D02*
X50503746Y-72312120D01*
X50503746Y-72312120D02*
X50557621Y-72312120D01*
X50557621Y-72312120D02*
X50638433Y-72339057D01*
X50638433Y-72339057D02*
X50719245Y-72419870D01*
X50719245Y-72419870D02*
X50746182Y-72500682D01*
X50746182Y-72500682D02*
X50746182Y-72554557D01*
X50746182Y-72554557D02*
X50719245Y-72635369D01*
X50719245Y-72635369D02*
X50503746Y-72850868D01*
X51635117Y-72258245D02*
X51311868Y-72581494D01*
X51473492Y-72419870D02*
X50907807Y-71854184D01*
X50907807Y-71854184D02*
X50934744Y-71988871D01*
X50934744Y-71988871D02*
X50934744Y-72096621D01*
X50934744Y-72096621D02*
X50907807Y-72177433D01*
X51419618Y-71342373D02*
X51473492Y-71288499D01*
X51473492Y-71288499D02*
X51554305Y-71261561D01*
X51554305Y-71261561D02*
X51608179Y-71261561D01*
X51608179Y-71261561D02*
X51688992Y-71288499D01*
X51688992Y-71288499D02*
X51823679Y-71369311D01*
X51823679Y-71369311D02*
X51958366Y-71503998D01*
X51958366Y-71503998D02*
X52039178Y-71638685D01*
X52039178Y-71638685D02*
X52066115Y-71719497D01*
X52066115Y-71719497D02*
X52066115Y-71773372D01*
X52066115Y-71773372D02*
X52039178Y-71854184D01*
X52039178Y-71854184D02*
X51985303Y-71908059D01*
X51985303Y-71908059D02*
X51904491Y-71934996D01*
X51904491Y-71934996D02*
X51850616Y-71934996D01*
X51850616Y-71934996D02*
X51769804Y-71908059D01*
X51769804Y-71908059D02*
X51635117Y-71827247D01*
X51635117Y-71827247D02*
X51500430Y-71692560D01*
X51500430Y-71692560D02*
X51419618Y-71557873D01*
X51419618Y-71557873D02*
X51392680Y-71477060D01*
X51392680Y-71477060D02*
X51392680Y-71423186D01*
X51392680Y-71423186D02*
X51419618Y-71342373D01*
X76072998Y-54816868D02*
X75992185Y-54843805D01*
X75992185Y-54843805D02*
X75911373Y-54924618D01*
X75911373Y-54924618D02*
X75857498Y-55032367D01*
X75857498Y-55032367D02*
X75857498Y-55140117D01*
X75857498Y-55140117D02*
X75884436Y-55220929D01*
X75884436Y-55220929D02*
X75965248Y-55355616D01*
X75965248Y-55355616D02*
X76046060Y-55436428D01*
X76046060Y-55436428D02*
X76180747Y-55517241D01*
X76180747Y-55517241D02*
X76261560Y-55544178D01*
X76261560Y-55544178D02*
X76369309Y-55544178D01*
X76369309Y-55544178D02*
X76477059Y-55490303D01*
X76477059Y-55490303D02*
X76530934Y-55436428D01*
X76530934Y-55436428D02*
X76584808Y-55328679D01*
X76584808Y-55328679D02*
X76584808Y-55274804D01*
X76584808Y-55274804D02*
X76396247Y-55086242D01*
X76396247Y-55086242D02*
X76288497Y-55193992D01*
X76881120Y-55086242D02*
X76315434Y-54520557D01*
X76315434Y-54520557D02*
X76530934Y-54305057D01*
X76530934Y-54305057D02*
X76611746Y-54278120D01*
X76611746Y-54278120D02*
X76665621Y-54278120D01*
X76665621Y-54278120D02*
X76746433Y-54305057D01*
X76746433Y-54305057D02*
X76827245Y-54385870D01*
X76827245Y-54385870D02*
X76854182Y-54466682D01*
X76854182Y-54466682D02*
X76854182Y-54520557D01*
X76854182Y-54520557D02*
X76827245Y-54601369D01*
X76827245Y-54601369D02*
X76611746Y-54816868D01*
X76908057Y-54035683D02*
X76908057Y-53981809D01*
X76908057Y-53981809D02*
X76934995Y-53900996D01*
X76934995Y-53900996D02*
X77069682Y-53766309D01*
X77069682Y-53766309D02*
X77150494Y-53739372D01*
X77150494Y-53739372D02*
X77204369Y-53739372D01*
X77204369Y-53739372D02*
X77285181Y-53766309D01*
X77285181Y-53766309D02*
X77339056Y-53820184D01*
X77339056Y-53820184D02*
X77392930Y-53927934D01*
X77392930Y-53927934D02*
X77392930Y-54574431D01*
X77392930Y-54574431D02*
X77743117Y-54224245D01*
X77743117Y-53577747D02*
X77662305Y-53604685D01*
X77662305Y-53604685D02*
X77608430Y-53604685D01*
X77608430Y-53604685D02*
X77527618Y-53577747D01*
X77527618Y-53577747D02*
X77500680Y-53550810D01*
X77500680Y-53550810D02*
X77473743Y-53469998D01*
X77473743Y-53469998D02*
X77473743Y-53416123D01*
X77473743Y-53416123D02*
X77500680Y-53335311D01*
X77500680Y-53335311D02*
X77608430Y-53227561D01*
X77608430Y-53227561D02*
X77689242Y-53200624D01*
X77689242Y-53200624D02*
X77743117Y-53200624D01*
X77743117Y-53200624D02*
X77823929Y-53227561D01*
X77823929Y-53227561D02*
X77850866Y-53254499D01*
X77850866Y-53254499D02*
X77877804Y-53335311D01*
X77877804Y-53335311D02*
X77877804Y-53389186D01*
X77877804Y-53389186D02*
X77850866Y-53469998D01*
X77850866Y-53469998D02*
X77743117Y-53577747D01*
X77743117Y-53577747D02*
X77716179Y-53658560D01*
X77716179Y-53658560D02*
X77716179Y-53712434D01*
X77716179Y-53712434D02*
X77743117Y-53793247D01*
X77743117Y-53793247D02*
X77850866Y-53900996D01*
X77850866Y-53900996D02*
X77931679Y-53927934D01*
X77931679Y-53927934D02*
X77985553Y-53927934D01*
X77985553Y-53927934D02*
X78066366Y-53900996D01*
X78066366Y-53900996D02*
X78174115Y-53793247D01*
X78174115Y-53793247D02*
X78201053Y-53712434D01*
X78201053Y-53712434D02*
X78201053Y-53658560D01*
X78201053Y-53658560D02*
X78174115Y-53577747D01*
X78174115Y-53577747D02*
X78066366Y-53469998D01*
X78066366Y-53469998D02*
X77985553Y-53443060D01*
X77985553Y-53443060D02*
X77931679Y-53443060D01*
X77931679Y-53443060D02*
X77850866Y-53469998D01*
X50488372Y-59881494D02*
X50407560Y-59908431D01*
X50407560Y-59908431D02*
X50326748Y-59989243D01*
X50326748Y-59989243D02*
X50272873Y-60096993D01*
X50272873Y-60096993D02*
X50272873Y-60204742D01*
X50272873Y-60204742D02*
X50299810Y-60285555D01*
X50299810Y-60285555D02*
X50380623Y-60420242D01*
X50380623Y-60420242D02*
X50461435Y-60501054D01*
X50461435Y-60501054D02*
X50596122Y-60581866D01*
X50596122Y-60581866D02*
X50676934Y-60608803D01*
X50676934Y-60608803D02*
X50784684Y-60608803D01*
X50784684Y-60608803D02*
X50892433Y-60554929D01*
X50892433Y-60554929D02*
X50946308Y-60501054D01*
X50946308Y-60501054D02*
X51000183Y-60393304D01*
X51000183Y-60393304D02*
X51000183Y-60339429D01*
X51000183Y-60339429D02*
X50811621Y-60150868D01*
X50811621Y-60150868D02*
X50703871Y-60258617D01*
X51296494Y-60150868D02*
X50730809Y-59585182D01*
X50730809Y-59585182D02*
X50946308Y-59369683D01*
X50946308Y-59369683D02*
X51027120Y-59342746D01*
X51027120Y-59342746D02*
X51080995Y-59342746D01*
X51080995Y-59342746D02*
X51161807Y-59369683D01*
X51161807Y-59369683D02*
X51242619Y-59450495D01*
X51242619Y-59450495D02*
X51269557Y-59531307D01*
X51269557Y-59531307D02*
X51269557Y-59585182D01*
X51269557Y-59585182D02*
X51242619Y-59665994D01*
X51242619Y-59665994D02*
X51027120Y-59881494D01*
X51538931Y-58777060D02*
X51431181Y-58884810D01*
X51431181Y-58884810D02*
X51404244Y-58965622D01*
X51404244Y-58965622D02*
X51404244Y-59019497D01*
X51404244Y-59019497D02*
X51431181Y-59154184D01*
X51431181Y-59154184D02*
X51511993Y-59288871D01*
X51511993Y-59288871D02*
X51727493Y-59504370D01*
X51727493Y-59504370D02*
X51808305Y-59531307D01*
X51808305Y-59531307D02*
X51862180Y-59531307D01*
X51862180Y-59531307D02*
X51942992Y-59504370D01*
X51942992Y-59504370D02*
X52050741Y-59396620D01*
X52050741Y-59396620D02*
X52077679Y-59315808D01*
X52077679Y-59315808D02*
X52077679Y-59261933D01*
X52077679Y-59261933D02*
X52050741Y-59181121D01*
X52050741Y-59181121D02*
X51916054Y-59046434D01*
X51916054Y-59046434D02*
X51835242Y-59019497D01*
X51835242Y-59019497D02*
X51781367Y-59019497D01*
X51781367Y-59019497D02*
X51700555Y-59046434D01*
X51700555Y-59046434D02*
X51592806Y-59154184D01*
X51592806Y-59154184D02*
X51565868Y-59234996D01*
X51565868Y-59234996D02*
X51565868Y-59288871D01*
X51565868Y-59288871D02*
X51592806Y-59369683D01*
X75742407Y-46508584D02*
X76092593Y-46158398D01*
X76092593Y-46158398D02*
X76119531Y-46562459D01*
X76119531Y-46562459D02*
X76200343Y-46481646D01*
X76200343Y-46481646D02*
X76281155Y-46454709D01*
X76281155Y-46454709D02*
X76335030Y-46454709D01*
X76335030Y-46454709D02*
X76415842Y-46481646D01*
X76415842Y-46481646D02*
X76550529Y-46616333D01*
X76550529Y-46616333D02*
X76577467Y-46697146D01*
X76577467Y-46697146D02*
X76577467Y-46751020D01*
X76577467Y-46751020D02*
X76550529Y-46831833D01*
X76550529Y-46831833D02*
X76388905Y-46993457D01*
X76388905Y-46993457D02*
X76308093Y-47020394D01*
X76308093Y-47020394D02*
X76254218Y-47020394D01*
X76254218Y-45996773D02*
X77008465Y-46373897D01*
X77008465Y-46373897D02*
X76631342Y-45619649D01*
X76766028Y-45484963D02*
X77116215Y-45134776D01*
X77116215Y-45134776D02*
X77143152Y-45538837D01*
X77143152Y-45538837D02*
X77223964Y-45458025D01*
X77223964Y-45458025D02*
X77304776Y-45431088D01*
X77304776Y-45431088D02*
X77358651Y-45431088D01*
X77358651Y-45431088D02*
X77439464Y-45458025D01*
X77439464Y-45458025D02*
X77574151Y-45592712D01*
X77574151Y-45592712D02*
X77601088Y-45673524D01*
X77601088Y-45673524D02*
X77601088Y-45727399D01*
X77601088Y-45727399D02*
X77574151Y-45808211D01*
X77574151Y-45808211D02*
X77412526Y-45969836D01*
X77412526Y-45969836D02*
X77331714Y-45996773D01*
X77331714Y-45996773D02*
X77277839Y-45996773D01*
X77843525Y-45646587D02*
X78274523Y-45215588D01*
X78059024Y-44730715D02*
X78247586Y-44542153D01*
X78624709Y-44757652D02*
X78355335Y-45027026D01*
X78355335Y-45027026D02*
X77789650Y-44461341D01*
X77789650Y-44461341D02*
X78059024Y-44191967D01*
X78867146Y-44515215D02*
X78301461Y-43949530D01*
X78301461Y-43949530D02*
X79190395Y-44191967D01*
X79190395Y-44191967D02*
X78624710Y-43626281D01*
X49964998Y-80470868D02*
X49884185Y-80497805D01*
X49884185Y-80497805D02*
X49803373Y-80578618D01*
X49803373Y-80578618D02*
X49749498Y-80686367D01*
X49749498Y-80686367D02*
X49749498Y-80794117D01*
X49749498Y-80794117D02*
X49776436Y-80874929D01*
X49776436Y-80874929D02*
X49857248Y-81009616D01*
X49857248Y-81009616D02*
X49938060Y-81090428D01*
X49938060Y-81090428D02*
X50072747Y-81171241D01*
X50072747Y-81171241D02*
X50153560Y-81198178D01*
X50153560Y-81198178D02*
X50261309Y-81198178D01*
X50261309Y-81198178D02*
X50369059Y-81144303D01*
X50369059Y-81144303D02*
X50422934Y-81090428D01*
X50422934Y-81090428D02*
X50476808Y-80982679D01*
X50476808Y-80982679D02*
X50476808Y-80928804D01*
X50476808Y-80928804D02*
X50288247Y-80740242D01*
X50288247Y-80740242D02*
X50180497Y-80847992D01*
X50773120Y-80740242D02*
X50207434Y-80174557D01*
X50207434Y-80174557D02*
X50422934Y-79959057D01*
X50422934Y-79959057D02*
X50503746Y-79932120D01*
X50503746Y-79932120D02*
X50557621Y-79932120D01*
X50557621Y-79932120D02*
X50638433Y-79959057D01*
X50638433Y-79959057D02*
X50719245Y-80039870D01*
X50719245Y-80039870D02*
X50746182Y-80120682D01*
X50746182Y-80120682D02*
X50746182Y-80174557D01*
X50746182Y-80174557D02*
X50719245Y-80255369D01*
X50719245Y-80255369D02*
X50503746Y-80470868D01*
X51635117Y-79878245D02*
X51311868Y-80201494D01*
X51473492Y-80039870D02*
X50907807Y-79474184D01*
X50907807Y-79474184D02*
X50934744Y-79608871D01*
X50934744Y-79608871D02*
X50934744Y-79716621D01*
X50934744Y-79716621D02*
X50907807Y-79797433D01*
X51257993Y-79123998D02*
X51608179Y-78773812D01*
X51608179Y-78773812D02*
X51635117Y-79177873D01*
X51635117Y-79177873D02*
X51715929Y-79097060D01*
X51715929Y-79097060D02*
X51796741Y-79070123D01*
X51796741Y-79070123D02*
X51850616Y-79070123D01*
X51850616Y-79070123D02*
X51931428Y-79097060D01*
X51931428Y-79097060D02*
X52066115Y-79231747D01*
X52066115Y-79231747D02*
X52093053Y-79312560D01*
X52093053Y-79312560D02*
X52093053Y-79366434D01*
X52093053Y-79366434D02*
X52066115Y-79447247D01*
X52066115Y-79447247D02*
X51904491Y-79608871D01*
X51904491Y-79608871D02*
X51823679Y-79635808D01*
X51823679Y-79635808D02*
X51769804Y-79635808D01*
X94199819Y-52408094D02*
X93199819Y-52408094D01*
X93199819Y-52408094D02*
X93199819Y-52169999D01*
X93199819Y-52169999D02*
X93247438Y-52027142D01*
X93247438Y-52027142D02*
X93342676Y-51931904D01*
X93342676Y-51931904D02*
X93437914Y-51884285D01*
X93437914Y-51884285D02*
X93628390Y-51836666D01*
X93628390Y-51836666D02*
X93771247Y-51836666D01*
X93771247Y-51836666D02*
X93961723Y-51884285D01*
X93961723Y-51884285D02*
X94056961Y-51931904D01*
X94056961Y-51931904D02*
X94152200Y-52027142D01*
X94152200Y-52027142D02*
X94199819Y-52169999D01*
X94199819Y-52169999D02*
X94199819Y-52408094D01*
X93533152Y-50979523D02*
X94199819Y-50979523D01*
X93152200Y-51217618D02*
X93866485Y-51455713D01*
X93866485Y-51455713D02*
X93866485Y-50836666D01*
X100716905Y-60619819D02*
X100716905Y-59619819D01*
X100716905Y-59619819D02*
X100955000Y-59619819D01*
X100955000Y-59619819D02*
X101097857Y-59667438D01*
X101097857Y-59667438D02*
X101193095Y-59762676D01*
X101193095Y-59762676D02*
X101240714Y-59857914D01*
X101240714Y-59857914D02*
X101288333Y-60048390D01*
X101288333Y-60048390D02*
X101288333Y-60191247D01*
X101288333Y-60191247D02*
X101240714Y-60381723D01*
X101240714Y-60381723D02*
X101193095Y-60476961D01*
X101193095Y-60476961D02*
X101097857Y-60572200D01*
X101097857Y-60572200D02*
X100955000Y-60619819D01*
X100955000Y-60619819D02*
X100716905Y-60619819D01*
X101621667Y-59619819D02*
X102240714Y-59619819D01*
X102240714Y-59619819D02*
X101907381Y-60000771D01*
X101907381Y-60000771D02*
X102050238Y-60000771D01*
X102050238Y-60000771D02*
X102145476Y-60048390D01*
X102145476Y-60048390D02*
X102193095Y-60096009D01*
X102193095Y-60096009D02*
X102240714Y-60191247D01*
X102240714Y-60191247D02*
X102240714Y-60429342D01*
X102240714Y-60429342D02*
X102193095Y-60524580D01*
X102193095Y-60524580D02*
X102145476Y-60572200D01*
X102145476Y-60572200D02*
X102050238Y-60619819D01*
X102050238Y-60619819D02*
X101764524Y-60619819D01*
X101764524Y-60619819D02*
X101669286Y-60572200D01*
X101669286Y-60572200D02*
X101621667Y-60524580D01*
X89811666Y-84939819D02*
X89811666Y-85654104D01*
X89811666Y-85654104D02*
X89764047Y-85796961D01*
X89764047Y-85796961D02*
X89668809Y-85892200D01*
X89668809Y-85892200D02*
X89525952Y-85939819D01*
X89525952Y-85939819D02*
X89430714Y-85939819D01*
X90811666Y-85939819D02*
X90240238Y-85939819D01*
X90525952Y-85939819D02*
X90525952Y-84939819D01*
X90525952Y-84939819D02*
X90430714Y-85082676D01*
X90430714Y-85082676D02*
X90335476Y-85177914D01*
X90335476Y-85177914D02*
X90240238Y-85225533D01*
X85022142Y-76004580D02*
X84974523Y-76052200D01*
X84974523Y-76052200D02*
X84831666Y-76099819D01*
X84831666Y-76099819D02*
X84736428Y-76099819D01*
X84736428Y-76099819D02*
X84593571Y-76052200D01*
X84593571Y-76052200D02*
X84498333Y-75956961D01*
X84498333Y-75956961D02*
X84450714Y-75861723D01*
X84450714Y-75861723D02*
X84403095Y-75671247D01*
X84403095Y-75671247D02*
X84403095Y-75528390D01*
X84403095Y-75528390D02*
X84450714Y-75337914D01*
X84450714Y-75337914D02*
X84498333Y-75242676D01*
X84498333Y-75242676D02*
X84593571Y-75147438D01*
X84593571Y-75147438D02*
X84736428Y-75099819D01*
X84736428Y-75099819D02*
X84831666Y-75099819D01*
X84831666Y-75099819D02*
X84974523Y-75147438D01*
X84974523Y-75147438D02*
X85022142Y-75195057D01*
X85974523Y-76099819D02*
X85403095Y-76099819D01*
X85688809Y-76099819D02*
X85688809Y-75099819D01*
X85688809Y-75099819D02*
X85593571Y-75242676D01*
X85593571Y-75242676D02*
X85498333Y-75337914D01*
X85498333Y-75337914D02*
X85403095Y-75385533D01*
X86593571Y-75099819D02*
X86688809Y-75099819D01*
X86688809Y-75099819D02*
X86784047Y-75147438D01*
X86784047Y-75147438D02*
X86831666Y-75195057D01*
X86831666Y-75195057D02*
X86879285Y-75290295D01*
X86879285Y-75290295D02*
X86926904Y-75480771D01*
X86926904Y-75480771D02*
X86926904Y-75718866D01*
X86926904Y-75718866D02*
X86879285Y-75909342D01*
X86879285Y-75909342D02*
X86831666Y-76004580D01*
X86831666Y-76004580D02*
X86784047Y-76052200D01*
X86784047Y-76052200D02*
X86688809Y-76099819D01*
X86688809Y-76099819D02*
X86593571Y-76099819D01*
X86593571Y-76099819D02*
X86498333Y-76052200D01*
X86498333Y-76052200D02*
X86450714Y-76004580D01*
X86450714Y-76004580D02*
X86403095Y-75909342D01*
X86403095Y-75909342D02*
X86355476Y-75718866D01*
X86355476Y-75718866D02*
X86355476Y-75480771D01*
X86355476Y-75480771D02*
X86403095Y-75290295D01*
X86403095Y-75290295D02*
X86450714Y-75195057D01*
X86450714Y-75195057D02*
X86498333Y-75147438D01*
X86498333Y-75147438D02*
X86593571Y-75099819D01*
X82543333Y-70524819D02*
X82210000Y-70048628D01*
X81971905Y-70524819D02*
X81971905Y-69524819D01*
X81971905Y-69524819D02*
X82352857Y-69524819D01*
X82352857Y-69524819D02*
X82448095Y-69572438D01*
X82448095Y-69572438D02*
X82495714Y-69620057D01*
X82495714Y-69620057D02*
X82543333Y-69715295D01*
X82543333Y-69715295D02*
X82543333Y-69858152D01*
X82543333Y-69858152D02*
X82495714Y-69953390D01*
X82495714Y-69953390D02*
X82448095Y-70001009D01*
X82448095Y-70001009D02*
X82352857Y-70048628D01*
X82352857Y-70048628D02*
X81971905Y-70048628D01*
X83400476Y-69524819D02*
X83210000Y-69524819D01*
X83210000Y-69524819D02*
X83114762Y-69572438D01*
X83114762Y-69572438D02*
X83067143Y-69620057D01*
X83067143Y-69620057D02*
X82971905Y-69762914D01*
X82971905Y-69762914D02*
X82924286Y-69953390D01*
X82924286Y-69953390D02*
X82924286Y-70334342D01*
X82924286Y-70334342D02*
X82971905Y-70429580D01*
X82971905Y-70429580D02*
X83019524Y-70477200D01*
X83019524Y-70477200D02*
X83114762Y-70524819D01*
X83114762Y-70524819D02*
X83305238Y-70524819D01*
X83305238Y-70524819D02*
X83400476Y-70477200D01*
X83400476Y-70477200D02*
X83448095Y-70429580D01*
X83448095Y-70429580D02*
X83495714Y-70334342D01*
X83495714Y-70334342D02*
X83495714Y-70096247D01*
X83495714Y-70096247D02*
X83448095Y-70001009D01*
X83448095Y-70001009D02*
X83400476Y-69953390D01*
X83400476Y-69953390D02*
X83305238Y-69905771D01*
X83305238Y-69905771D02*
X83114762Y-69905771D01*
X83114762Y-69905771D02*
X83019524Y-69953390D01*
X83019524Y-69953390D02*
X82971905Y-70001009D01*
X82971905Y-70001009D02*
X82924286Y-70096247D01*
D12*
%TO.C,J5*%
X107650000Y-63650000D02*
X106370000Y-63650000D01*
X107650000Y-64250000D02*
X106370000Y-64250000D01*
X107650000Y-67850000D02*
X106370000Y-67850000D01*
X107650000Y-68450000D02*
X106370000Y-68450000D01*
X107650000Y-72050000D02*
X106370000Y-72050000D01*
X107650000Y-72650000D02*
X106370000Y-72650000D01*
X107650000Y-76250000D02*
X106370000Y-76250000D01*
X107650000Y-76850000D02*
X106370000Y-76850000D01*
X107650000Y-80450000D02*
X106370000Y-80450000D01*
X107650000Y-81050000D02*
X106370000Y-81050000D01*
X109460000Y-61350000D02*
X110060000Y-61350000D01*
X109760000Y-61950000D02*
X109460000Y-61350000D01*
X110060000Y-61350000D02*
X109760000Y-61950000D01*
X110750000Y-61140000D02*
X123770000Y-61140000D01*
X110750000Y-61950000D02*
X110750000Y-61140000D01*
X110750000Y-82750000D02*
X110750000Y-83560000D01*
X110750000Y-83560000D02*
X123770000Y-83560000D01*
X110760000Y-65560000D02*
X110760000Y-66540000D01*
X110760000Y-69760000D02*
X110760000Y-70740000D01*
X110760000Y-73960000D02*
X110760000Y-74940000D01*
X110760000Y-78160000D02*
X110760000Y-79140000D01*
X123770000Y-61140000D02*
X123770000Y-72350000D01*
X123770000Y-83560000D02*
X123770000Y-72350000D01*
%TO.C,C12*%
X78865000Y-50036252D02*
X78865000Y-49513748D01*
X80335000Y-50036252D02*
X80335000Y-49513748D01*
%TO.C,C8*%
X78990000Y-39474420D02*
X78990000Y-39755580D01*
X80010000Y-39474420D02*
X80010000Y-39755580D01*
D13*
%TO.C,G\u002A\u002A\u002A*%
G36*
X96678777Y-74213625D02*
G01*
X96681966Y-74380875D01*
X96684856Y-74646119D01*
X96687439Y-74998307D01*
X96689709Y-75426389D01*
X96691658Y-75919314D01*
X96693279Y-76466032D01*
X96694565Y-77055494D01*
X96695510Y-77676649D01*
X96696106Y-78318446D01*
X96696347Y-78969837D01*
X96696224Y-79619770D01*
X96695732Y-80257196D01*
X96694862Y-80871064D01*
X96693609Y-81450324D01*
X96691965Y-81983926D01*
X96689923Y-82460821D01*
X96687475Y-82869957D01*
X96684616Y-83200285D01*
X96681338Y-83440754D01*
X96681209Y-83447730D01*
X96629196Y-83495005D01*
X96470534Y-83518970D01*
X96321014Y-83522789D01*
X95962218Y-83522789D01*
X95945719Y-82559090D01*
X95929219Y-81595391D01*
X95749078Y-81743723D01*
X95394679Y-82032561D01*
X95036504Y-82319094D01*
X94687441Y-82593525D01*
X94360378Y-82846058D01*
X94068201Y-83066896D01*
X93823800Y-83246243D01*
X93640061Y-83374302D01*
X93529873Y-83441276D01*
X93506065Y-83448740D01*
X93426578Y-83393872D01*
X93312577Y-83271179D01*
X93241089Y-83178837D01*
X93057423Y-82924955D01*
X93202305Y-82809700D01*
X93800886Y-82333366D01*
X94311202Y-81926908D01*
X94739116Y-81585616D01*
X95090489Y-81304782D01*
X95371182Y-81079696D01*
X95587057Y-80905649D01*
X95743975Y-80777930D01*
X95847799Y-80691831D01*
X95904389Y-80642641D01*
X95919701Y-80626431D01*
X95875705Y-80581651D01*
X95740096Y-80464948D01*
X95515685Y-80278608D01*
X95205282Y-80024916D01*
X94811700Y-79706157D01*
X94337749Y-79324614D01*
X93786240Y-78882574D01*
X93159986Y-78382321D01*
X93085631Y-78323020D01*
X93100988Y-78267152D01*
X93172376Y-78153889D01*
X93275273Y-78014912D01*
X93385158Y-77881899D01*
X93477509Y-77786531D01*
X93522496Y-77758627D01*
X93585491Y-77794768D01*
X93728488Y-77896204D01*
X93938054Y-78052778D01*
X94200756Y-78254335D01*
X94503161Y-78490718D01*
X94758298Y-78693010D01*
X95929219Y-79627015D01*
X95944906Y-77228594D01*
X95960593Y-74830173D01*
X96300675Y-74492793D01*
X96463659Y-74335103D01*
X96593598Y-74216815D01*
X96667850Y-74158319D01*
X96675295Y-74155419D01*
X96678777Y-74213625D01*
G37*
G36*
X100768809Y-77310574D02*
G01*
X100884830Y-77446211D01*
X101284616Y-78036869D01*
X101606497Y-78696115D01*
X101834443Y-79389608D01*
X101875921Y-79569273D01*
X101927728Y-79924178D01*
X101955057Y-80350152D01*
X101957877Y-80802341D01*
X101936158Y-81235889D01*
X101889869Y-81605943D01*
X101877340Y-81669902D01*
X101668409Y-82380687D01*
X101354511Y-83063217D01*
X100948289Y-83697460D01*
X100462382Y-84263382D01*
X99966048Y-84698754D01*
X99622952Y-84927337D01*
X99207319Y-85156287D01*
X98764598Y-85363570D01*
X98340240Y-85527156D01*
X98120945Y-85593198D01*
X97809639Y-85652850D01*
X97424612Y-85694514D01*
X97002993Y-85717210D01*
X96581912Y-85719957D01*
X96198499Y-85701775D01*
X95889884Y-85661683D01*
X95849969Y-85653178D01*
X95066736Y-85417255D01*
X94351480Y-85086486D01*
X93709792Y-84666457D01*
X93147263Y-84162757D01*
X92669483Y-83580972D01*
X92282044Y-82926689D01*
X91990536Y-82205496D01*
X91843479Y-81649317D01*
X91791920Y-81295572D01*
X91764769Y-80870442D01*
X91762043Y-80418823D01*
X91783759Y-79985608D01*
X91829935Y-79615692D01*
X91842674Y-79550570D01*
X91936930Y-79198684D01*
X92072411Y-78816191D01*
X92236846Y-78428362D01*
X92417965Y-78060465D01*
X92603497Y-77737772D01*
X92781172Y-77485552D01*
X92911208Y-77350015D01*
X93006161Y-77305644D01*
X93051076Y-77344617D01*
X93036701Y-77437321D01*
X92969792Y-77537518D01*
X92802345Y-77752168D01*
X92618292Y-78039088D01*
X92441567Y-78357505D01*
X92296099Y-78666643D01*
X92271448Y-78727367D01*
X92032454Y-79490271D01*
X91912653Y-80251542D01*
X91911336Y-81005407D01*
X92027793Y-81746091D01*
X92261313Y-82467823D01*
X92611185Y-83164830D01*
X92865231Y-83552813D01*
X93313745Y-84083770D01*
X93851595Y-84556500D01*
X94455734Y-84955106D01*
X95103112Y-85263693D01*
X95568936Y-85417435D01*
X95952983Y-85492721D01*
X96409765Y-85538436D01*
X96895326Y-85553411D01*
X97365714Y-85536478D01*
X97776975Y-85486469D01*
X97824219Y-85477394D01*
X98565266Y-85268485D01*
X99251224Y-84956713D01*
X99874128Y-84549679D01*
X100426013Y-84054984D01*
X100898913Y-83480228D01*
X101284864Y-82833012D01*
X101575901Y-82120936D01*
X101666086Y-81811442D01*
X101756350Y-81328845D01*
X101798644Y-80792797D01*
X101792906Y-80247130D01*
X101739073Y-79735678D01*
X101669492Y-79409550D01*
X101517194Y-78948727D01*
X101317437Y-78481872D01*
X101089099Y-78047780D01*
X100851056Y-77685249D01*
X100796617Y-77615698D01*
X100649452Y-77419730D01*
X100585870Y-77293111D01*
X100596694Y-77228033D01*
X100662506Y-77223065D01*
X100768809Y-77310574D01*
G37*
G36*
X96949126Y-74195211D02*
G01*
X97064846Y-74300643D01*
X97218300Y-74450773D01*
X97254173Y-74487018D01*
X97580520Y-74818622D01*
X97580520Y-77219169D01*
X97581367Y-77742866D01*
X97583783Y-78227161D01*
X97587584Y-78659340D01*
X97592583Y-79026687D01*
X97598594Y-79316489D01*
X97605431Y-79516031D01*
X97612909Y-79612598D01*
X97615615Y-79619716D01*
X97667523Y-79592649D01*
X97786348Y-79508966D01*
X97976910Y-79364937D01*
X98244032Y-79156839D01*
X98592535Y-78880942D01*
X99027241Y-78533522D01*
X99188920Y-78403758D01*
X99455240Y-78192051D01*
X99690171Y-78009504D01*
X99877442Y-77868423D01*
X100000782Y-77781114D01*
X100042385Y-77758250D01*
X100111314Y-77806936D01*
X100221503Y-77937140D01*
X100356457Y-78125083D01*
X100499684Y-78346989D01*
X100634691Y-78579077D01*
X100705039Y-78713630D01*
X100950932Y-79343393D01*
X101092419Y-80028918D01*
X101129544Y-80610496D01*
X101121015Y-81027848D01*
X101084012Y-81378035D01*
X101009482Y-81712408D01*
X100888373Y-82082317D01*
X100853412Y-82176666D01*
X100758823Y-82393532D01*
X100631108Y-82640425D01*
X100485964Y-82891978D01*
X100339086Y-83122824D01*
X100206172Y-83307596D01*
X100102916Y-83420927D01*
X100070630Y-83441738D01*
X100000772Y-83415637D01*
X99855052Y-83324969D01*
X99650353Y-83181463D01*
X99403557Y-82996847D01*
X99192805Y-82831941D01*
X98921886Y-82616124D01*
X98678956Y-82422875D01*
X98481631Y-82266185D01*
X98347525Y-82160047D01*
X98299340Y-82122271D01*
X98203641Y-82046870D01*
X98052748Y-81926199D01*
X97928950Y-81826454D01*
X97775128Y-81706485D01*
X97660052Y-81624802D01*
X97615449Y-81601276D01*
X97603656Y-81657972D01*
X97593563Y-81814662D01*
X97585901Y-82051248D01*
X97581402Y-82347634D01*
X97580520Y-82562033D01*
X97580520Y-83522789D01*
X97220236Y-83522789D01*
X96859952Y-83522789D01*
X96859952Y-80610496D01*
X97646719Y-80610496D01*
X97690680Y-80671581D01*
X97809534Y-80784362D01*
X97981676Y-80929045D01*
X98072730Y-81000803D01*
X98271220Y-81155220D01*
X98437052Y-81286175D01*
X98544356Y-81373157D01*
X98565764Y-81391659D01*
X98647667Y-81461314D01*
X98794380Y-81580691D01*
X98985180Y-81733463D01*
X99199347Y-81903306D01*
X99416161Y-82073894D01*
X99614901Y-82228901D01*
X99774845Y-82352002D01*
X99875272Y-82426871D01*
X99898810Y-82441938D01*
X99936130Y-82393775D01*
X100005617Y-82272296D01*
X100040216Y-82206145D01*
X100252529Y-81665256D01*
X100371046Y-81075819D01*
X100394533Y-80465798D01*
X100321757Y-79863162D01*
X100166853Y-79334491D01*
X100073301Y-79113777D01*
X99987025Y-78943865D01*
X99921636Y-78850272D01*
X99902987Y-78839843D01*
X99829329Y-78875287D01*
X99684585Y-78970679D01*
X99491153Y-79110577D01*
X99315123Y-79245163D01*
X99040462Y-79460087D01*
X98719430Y-79711385D01*
X98400187Y-79961358D01*
X98223057Y-80100094D01*
X98001188Y-80278485D01*
X97818843Y-80433822D01*
X97694536Y-80549712D01*
X97646775Y-80609763D01*
X97646719Y-80610496D01*
X96859952Y-80610496D01*
X96859952Y-78839101D01*
X96860376Y-78100854D01*
X96861605Y-77398397D01*
X96863571Y-76740832D01*
X96866210Y-76137263D01*
X96869455Y-75596792D01*
X96873241Y-75128522D01*
X96877501Y-74741554D01*
X96882170Y-74444992D01*
X96887181Y-74247938D01*
X96892469Y-74159495D01*
X96893889Y-74155413D01*
X96949126Y-74195211D01*
G37*
D12*
%TO.C,R5*%
X82977258Y-66417500D02*
X82502742Y-66417500D01*
X82977258Y-67462500D02*
X82502742Y-67462500D01*
%TO.C,C2*%
X92545000Y-71640580D02*
X92545000Y-71359420D01*
X93565000Y-71640580D02*
X93565000Y-71359420D01*
%TO.C,R10*%
X83862500Y-72342742D02*
X83862500Y-72817258D01*
X84907500Y-72342742D02*
X84907500Y-72817258D01*
%TO.C,R8*%
X87772258Y-61312500D02*
X87297742Y-61312500D01*
X87772258Y-62357500D02*
X87297742Y-62357500D01*
%TO.C,R9*%
X86437500Y-72342742D02*
X86437500Y-72817258D01*
X87482500Y-72342742D02*
X87482500Y-72817258D01*
%TO.C,C9*%
X89823748Y-76440000D02*
X90346252Y-76440000D01*
X89823748Y-77910000D02*
X90346252Y-77910000D01*
%TO.C,D1*%
X89850000Y-70380000D02*
X89050000Y-70380000D01*
X89850000Y-70380000D02*
X90650000Y-70380000D01*
X89850000Y-73500000D02*
X89050000Y-73500000D01*
X89850000Y-73500000D02*
X90650000Y-73500000D01*
X91390000Y-73780000D02*
X90910000Y-73780000D01*
X91150000Y-73450000D01*
X91390000Y-73780000D01*
G36*
X91390000Y-73780000D02*
G01*
X90910000Y-73780000D01*
X91150000Y-73450000D01*
X91390000Y-73780000D01*
G37*
%TO.C,J7*%
X86970000Y-46680000D02*
X88300000Y-46680000D01*
X86970000Y-48010000D02*
X86970000Y-46680000D01*
X86970000Y-49280000D02*
X86970000Y-56960000D01*
X86970000Y-49280000D02*
X89630000Y-49280000D01*
X86970000Y-56960000D02*
X89630000Y-56960000D01*
X89630000Y-49280000D02*
X89630000Y-56960000D01*
%TO.C,J2*%
X84455000Y-78905000D02*
X85785000Y-78905000D01*
X84455000Y-80235000D02*
X84455000Y-78905000D01*
X84455000Y-81505000D02*
X84455000Y-84105000D01*
X84455000Y-81505000D02*
X87115000Y-81505000D01*
X84455000Y-84105000D02*
X87115000Y-84105000D01*
X87115000Y-81505000D02*
X87115000Y-84105000D01*
%TO.C,C4*%
X86320000Y-59575580D02*
X86320000Y-59294420D01*
X87340000Y-59575580D02*
X87340000Y-59294420D01*
%TO.C,J6*%
X81320000Y-49905000D02*
X81320000Y-47305000D01*
X83980000Y-47305000D02*
X81320000Y-47305000D01*
X83980000Y-49905000D02*
X81320000Y-49905000D01*
X83980000Y-49905000D02*
X83980000Y-47305000D01*
X83980000Y-51175000D02*
X83980000Y-52505000D01*
X83980000Y-52505000D02*
X82650000Y-52505000D01*
%TO.C,D2*%
X89850000Y-66540000D02*
X89050000Y-66540000D01*
X89850000Y-66540000D02*
X90650000Y-66540000D01*
X89850000Y-69660000D02*
X89050000Y-69660000D01*
X89850000Y-69660000D02*
X90650000Y-69660000D01*
X91390000Y-69940000D02*
X90910000Y-69940000D01*
X91150000Y-69610000D01*
X91390000Y-69940000D01*
G36*
X91390000Y-69940000D02*
G01*
X90910000Y-69940000D01*
X91150000Y-69610000D01*
X91390000Y-69940000D01*
G37*
%TO.C,R7*%
X91172258Y-60812500D02*
X90697742Y-60812500D01*
X91172258Y-61857500D02*
X90697742Y-61857500D01*
%TO.C,R1*%
X85002500Y-55062258D02*
X85002500Y-54587742D01*
X86047500Y-55062258D02*
X86047500Y-54587742D01*
%TO.C,C3*%
X93150000Y-67955580D02*
X93150000Y-67674420D01*
X94170000Y-67955580D02*
X94170000Y-67674420D01*
%TO.C,U1*%
X87655000Y-58595000D02*
X88455000Y-57795000D01*
X87655000Y-60595000D02*
X87655000Y-58595000D01*
X88455000Y-57795000D02*
X92605000Y-57795000D01*
X92605000Y-57795000D02*
X92605000Y-60595000D01*
X92605000Y-60595000D02*
X87655000Y-60595000D01*
%TO.C,U3*%
X82730000Y-38160000D02*
X82730000Y-45900000D01*
X92450000Y-37780000D02*
X94950000Y-37780000D01*
X94570000Y-38160000D02*
X82730000Y-38160000D01*
X94570000Y-38160000D02*
X94570000Y-45900000D01*
X94570000Y-45900000D02*
X82730000Y-45900000D01*
X94950000Y-37780000D02*
X94950000Y-40280000D01*
%TO.C,J8*%
X95650000Y-55470000D02*
X96980000Y-55470000D01*
X95650000Y-56800000D02*
X95650000Y-55470000D01*
X95650000Y-58070000D02*
X95650000Y-65750000D01*
X95650000Y-58070000D02*
X98310000Y-58070000D01*
X95650000Y-65750000D02*
X98310000Y-65750000D01*
X98310000Y-58070000D02*
X98310000Y-65750000D01*
%TO.C,J4*%
X107650000Y-47130000D02*
X106370000Y-47130000D01*
X107650000Y-47730000D02*
X106370000Y-47730000D01*
X107650000Y-51330000D02*
X106370000Y-51330000D01*
X107650000Y-51930000D02*
X106370000Y-51930000D01*
X107650000Y-55530000D02*
X106370000Y-55530000D01*
X107650000Y-56130000D02*
X106370000Y-56130000D01*
X109460000Y-44830000D02*
X110060000Y-44830000D01*
X109760000Y-45430000D02*
X109460000Y-44830000D01*
X110060000Y-44830000D02*
X109760000Y-45430000D01*
X110750000Y-44620000D02*
X123770000Y-44620000D01*
X110750000Y-45430000D02*
X110750000Y-44620000D01*
X110750000Y-57830000D02*
X110750000Y-58640000D01*
X110750000Y-58640000D02*
X123770000Y-58640000D01*
X110760000Y-49040000D02*
X110760000Y-50020000D01*
X110760000Y-53240000D02*
X110760000Y-54220000D01*
X123770000Y-44620000D02*
X123770000Y-51630000D01*
X123770000Y-58640000D02*
X123770000Y-51630000D01*
%TO.C,R4*%
X94877500Y-67537742D02*
X94877500Y-68012258D01*
X95922500Y-67537742D02*
X95922500Y-68012258D01*
%TO.C,R11*%
X81287500Y-72342742D02*
X81287500Y-72817258D01*
X82332500Y-72342742D02*
X82332500Y-72817258D01*
%TO.C,R3*%
X95787258Y-71827500D02*
X95312742Y-71827500D01*
X95787258Y-72872500D02*
X95312742Y-72872500D01*
%TO.C,C5*%
X95290000Y-39688748D02*
X95290000Y-41111252D01*
X98010000Y-39688748D02*
X98010000Y-41111252D01*
%TO.C,C1*%
X93240000Y-59499420D02*
X93240000Y-59780580D01*
X94260000Y-59499420D02*
X94260000Y-59780580D01*
%TO.C,R2*%
X90407500Y-51747258D02*
X90407500Y-51272742D01*
X91452500Y-51747258D02*
X91452500Y-51272742D01*
%TO.C,C6*%
X76780000Y-48760580D02*
X76780000Y-48479420D01*
X77800000Y-48760580D02*
X77800000Y-48479420D01*
%TO.C,J3*%
X80155000Y-78905000D02*
X81485000Y-78905000D01*
X80155000Y-80235000D02*
X80155000Y-78905000D01*
X80155000Y-81505000D02*
X80155000Y-84105000D01*
X80155000Y-81505000D02*
X82815000Y-81505000D01*
X80155000Y-84105000D02*
X82815000Y-84105000D01*
X82815000Y-81505000D02*
X82815000Y-84105000D01*
%TO.C,C11*%
X81353748Y-76410000D02*
X81876252Y-76410000D01*
X81353748Y-77880000D02*
X81876252Y-77880000D01*
%TO.C,L1*%
X94975000Y-44100000D02*
X95425000Y-44100000D01*
X94975000Y-50300000D02*
X94975000Y-44100000D01*
X94975000Y-50300000D02*
X95425000Y-50300000D01*
X101175000Y-44100000D02*
X100725000Y-44100000D01*
X101175000Y-44100000D02*
X101175000Y-50300000D01*
X101175000Y-50300000D02*
X100725000Y-50300000D01*
%TO.C,C7*%
X80635000Y-39538748D02*
X80635000Y-40061252D01*
X82105000Y-39538748D02*
X82105000Y-40061252D01*
%TO.C,U2*%
X53475000Y-38070000D02*
X53475000Y-38370000D01*
X53475000Y-38070000D02*
X74475000Y-38070000D01*
X53475000Y-40470000D02*
X53475000Y-40870000D01*
X53475000Y-40737000D02*
X56482000Y-40737000D01*
X53475000Y-43070000D02*
X53475000Y-43470000D01*
X53475000Y-45570000D02*
X53475000Y-45970000D01*
X53475000Y-48170000D02*
X53475000Y-48570000D01*
X53475000Y-50670000D02*
X53475000Y-51070000D01*
X53475000Y-53170000D02*
X53475000Y-53570000D01*
X53475000Y-55770000D02*
X53475000Y-56170000D01*
X53475000Y-58270000D02*
X53475000Y-58670000D01*
X53475000Y-60870000D02*
X53475000Y-61270000D01*
X53475000Y-63370000D02*
X53475000Y-63770000D01*
X53475000Y-65870000D02*
X53475000Y-66270000D01*
X53475000Y-68470000D02*
X53475000Y-68870000D01*
X53475000Y-70970000D02*
X53475000Y-71370000D01*
X53475000Y-73570000D02*
X53475000Y-73970000D01*
X53475000Y-76070000D02*
X53475000Y-76470000D01*
X53475000Y-78670000D02*
X53475000Y-79070000D01*
X53475000Y-81170000D02*
X53475000Y-81570000D01*
X53475000Y-83670000D02*
X53475000Y-84070000D01*
X53475000Y-86270000D02*
X53475000Y-86670000D01*
X56482000Y-40737000D02*
X56482000Y-38070000D01*
X60275000Y-89070000D02*
X53475000Y-89070000D01*
X62475000Y-89070000D02*
X62875000Y-89070000D01*
X65075000Y-89070000D02*
X65475000Y-89070000D01*
X74475000Y-38070000D02*
X74475000Y-38370000D01*
X74475000Y-40470000D02*
X74475000Y-40870000D01*
X74475000Y-43070000D02*
X74475000Y-43470000D01*
X74475000Y-45570000D02*
X74475000Y-45970000D01*
X74475000Y-48170000D02*
X74475000Y-48570000D01*
X74475000Y-50670000D02*
X74475000Y-51070000D01*
X74475000Y-53170000D02*
X74475000Y-53570000D01*
X74475000Y-55770000D02*
X74475000Y-56170000D01*
X74475000Y-58270000D02*
X74475000Y-58670000D01*
X74475000Y-60870000D02*
X74475000Y-61270000D01*
X74475000Y-63370000D02*
X74475000Y-63770000D01*
X74475000Y-65870000D02*
X74475000Y-66270000D01*
X74475000Y-68470000D02*
X74475000Y-68870000D01*
X74475000Y-70970000D02*
X74475000Y-71370000D01*
X74475000Y-73570000D02*
X74475000Y-73970000D01*
X74475000Y-76070000D02*
X74475000Y-76470000D01*
X74475000Y-78670000D02*
X74475000Y-79070000D01*
X74475000Y-81170000D02*
X74475000Y-81570000D01*
X74475000Y-83670000D02*
X74475000Y-84070000D01*
X74475000Y-86270000D02*
X74475000Y-86670000D01*
X74475000Y-89070000D02*
X67675000Y-89070000D01*
%TO.C,D4*%
X101335000Y-51150000D02*
X95825000Y-51150000D01*
X101335000Y-54450000D02*
X95825000Y-54450000D01*
X101335000Y-54450000D02*
X101335000Y-51150000D01*
%TO.C,D3*%
X99425000Y-54715000D02*
X99425000Y-58725000D01*
X101425000Y-54715000D02*
X99425000Y-54715000D01*
X101425000Y-54715000D02*
X101425000Y-58725000D01*
%TO.C,J1*%
X88795000Y-78905000D02*
X90125000Y-78905000D01*
X88795000Y-80235000D02*
X88795000Y-78905000D01*
X88795000Y-81505000D02*
X88795000Y-84105000D01*
X88795000Y-81505000D02*
X91455000Y-81505000D01*
X88795000Y-84105000D02*
X91455000Y-84105000D01*
X91455000Y-81505000D02*
X91455000Y-84105000D01*
%TO.C,C10*%
X85403748Y-76500000D02*
X85926252Y-76500000D01*
X85403748Y-77970000D02*
X85926252Y-77970000D01*
%TO.C,R6*%
X82957258Y-68247500D02*
X82482742Y-68247500D01*
X82957258Y-69292500D02*
X82482742Y-69292500D01*
%TD*%
M02*
