%TF.GenerationSoftware,KiCad,Pcbnew,8.99.0-1896-g1e663268ac*%
%TF.CreationDate,2024-10-16T09:53:04+03:00*%
%TF.ProjectId,diagnostic_tester,64696167-6e6f-4737-9469-635f74657374,rev?*%
%TF.SameCoordinates,Original*%
%TF.FileFunction,Soldermask,Bot*%
%TF.FilePolarity,Negative*%
%FSLAX46Y46*%
G04 Gerber Fmt 4.6, Leading zero omitted, Abs format (unit mm)*
G04 Created by KiCad (PCBNEW 8.99.0-1896-g1e663268ac) date 2024-10-16 09:53:04*
%MOMM*%
%LPD*%
G01*
G04 APERTURE LIST*
G04 Aperture macros list*
%AMRoundRect*
0 Rectangle with rounded corners*
0 $1 Rounding radius*
0 $2 $3 $4 $5 $6 $7 $8 $9 X,Y pos of 4 corners*
0 Add a 4 corners polygon primitive as box body*
4,1,4,$2,$3,$4,$5,$6,$7,$8,$9,$2,$3,0*
0 Add four circle primitives for the rounded corners*
1,1,$1+$1,$2,$3*
1,1,$1+$1,$4,$5*
1,1,$1+$1,$6,$7*
1,1,$1+$1,$8,$9*
0 Add four rect primitives between the rounded corners*
20,1,$1+$1,$2,$3,$4,$5,0*
20,1,$1+$1,$4,$5,$6,$7,0*
20,1,$1+$1,$6,$7,$8,$9,0*
20,1,$1+$1,$8,$9,$2,$3,0*%
G04 Aperture macros list end*
%ADD10C,3.000000*%
%ADD11RoundRect,0.250001X-1.599999X1.099999X-1.599999X-1.099999X1.599999X-1.099999X1.599999X1.099999X0*%
%ADD12O,3.700000X2.700000*%
%ADD13C,3.200000*%
%ADD14R,1.700000X1.700000*%
%ADD15O,1.700000X1.700000*%
%ADD16R,1.500000X1.500000*%
%ADD17C,1.500000*%
%ADD18O,1.800000X1.800000*%
%ADD19O,1.500000X1.500000*%
G04 APERTURE END LIST*
D10*
%TO.C,J5*%
X117060000Y-63950000D03*
X117060000Y-80750000D03*
D11*
X109760000Y-63950000D03*
D12*
X109760000Y-68150000D03*
X109760000Y-72350000D03*
X109760000Y-76550000D03*
X109760000Y-80750000D03*
X104260000Y-63950000D03*
X104260000Y-68150000D03*
X104260000Y-72350000D03*
X104260000Y-76550000D03*
X104260000Y-80750000D03*
%TD*%
D13*
%TO.C,H1*%
X104940000Y-39450000D03*
%TD*%
%TO.C,H3*%
X46590000Y-87630000D03*
%TD*%
D14*
%TO.C,J7*%
X88300000Y-48010000D03*
D15*
X88300000Y-50550000D03*
X88300000Y-53090000D03*
X88300000Y-55630000D03*
%TD*%
D14*
%TO.C,J2*%
X85785000Y-80235000D03*
D15*
X85785000Y-82775000D03*
%TD*%
D14*
%TO.C,J6*%
X82650000Y-51175000D03*
D15*
X82650000Y-48635000D03*
%TD*%
D16*
%TO.C,U3*%
X91190000Y-40330000D03*
D17*
X88650000Y-40330000D03*
X86110000Y-40330000D03*
%TD*%
D14*
%TO.C,J8*%
X96980000Y-56800000D03*
D15*
X96980000Y-59340000D03*
X96980000Y-61880000D03*
X96980000Y-64420000D03*
%TD*%
D10*
%TO.C,J4*%
X117060000Y-47430000D03*
X117060000Y-55830000D03*
D11*
X109760000Y-47430000D03*
D12*
X109760000Y-51630000D03*
X109760000Y-55830000D03*
X104260000Y-47430000D03*
X104260000Y-51630000D03*
X104260000Y-55830000D03*
%TD*%
D13*
%TO.C,H4*%
X104960000Y-87660000D03*
%TD*%
D14*
%TO.C,J3*%
X81485000Y-80235000D03*
D15*
X81485000Y-82775000D03*
%TD*%
D18*
%TO.C,U2*%
X61250000Y-39570000D03*
D19*
X61550000Y-42600000D03*
X66400000Y-42600000D03*
D18*
X66700000Y-39570000D03*
D15*
X55085000Y-39440000D03*
X55085000Y-41980000D03*
D14*
X55085000Y-44520000D03*
D15*
X55085000Y-47060000D03*
X55085000Y-49600000D03*
X55085000Y-52140000D03*
X55085000Y-54680000D03*
D14*
X55085000Y-57220000D03*
D15*
X55085000Y-59760000D03*
X55085000Y-62300000D03*
X55085000Y-64840000D03*
X55085000Y-67380000D03*
D14*
X55085000Y-69920000D03*
D15*
X55085000Y-72460000D03*
X55085000Y-75000000D03*
X55085000Y-77540000D03*
X55085000Y-80080000D03*
D14*
X55085000Y-82620000D03*
D15*
X55085000Y-85160000D03*
X55085000Y-87700000D03*
X72865000Y-87700000D03*
X72865000Y-85160000D03*
D14*
X72865000Y-82620000D03*
D15*
X72865000Y-80080000D03*
X72865000Y-77540000D03*
X72865000Y-75000000D03*
X72865000Y-72460000D03*
D14*
X72865000Y-69920000D03*
D15*
X72865000Y-67380000D03*
X72865000Y-64840000D03*
X72865000Y-62300000D03*
X72865000Y-59760000D03*
D14*
X72865000Y-57220000D03*
D15*
X72865000Y-54680000D03*
X72865000Y-52140000D03*
X72865000Y-49600000D03*
X72865000Y-47060000D03*
D14*
X72865000Y-44520000D03*
D15*
X72865000Y-41980000D03*
X72865000Y-39440000D03*
X61435000Y-87470000D03*
D14*
X63975000Y-87470000D03*
D15*
X66515000Y-87470000D03*
%TD*%
D14*
%TO.C,J1*%
X90125000Y-80235000D03*
D15*
X90125000Y-82775000D03*
%TD*%
D13*
%TO.C,H2*%
X46560000Y-39440000D03*
%TD*%
M02*
