%TF.GenerationSoftware,KiCad,Pcbnew,9.0.0*%
%TF.CreationDate,2025-04-16T14:10:13+03:00*%
%TF.ProjectId,lux_sensor,6c75785f-7365-46e7-936f-722e6b696361,rev?*%
%TF.SameCoordinates,Original*%
%TF.FileFunction,Legend,Top*%
%TF.FilePolarity,Positive*%
%FSLAX46Y46*%
G04 Gerber Fmt 4.6, Leading zero omitted, Abs format (unit mm)*
G04 Created by KiCad (PCBNEW 9.0.0) date 2025-04-16 14:10:13*
%MOMM*%
%LPD*%
G01*
G04 APERTURE LIST*
%ADD10C,0.100000*%
%ADD11C,0.300000*%
%ADD12C,0.150000*%
%ADD13C,0.120000*%
G04 APERTURE END LIST*
D10*
X142305000Y-89230000D02*
X143225000Y-90150000D01*
D11*
X142305000Y-89200000D02*
X142305000Y-88200000D01*
X142305000Y-91190000D02*
X142305000Y-90190000D01*
X143280000Y-89230000D02*
X141385000Y-89230000D01*
D10*
X143225000Y-90150000D02*
X141425000Y-90150000D01*
X142305000Y-89230000D02*
X141385000Y-90150000D01*
X143225000Y-90150000D02*
X141385000Y-90150000D01*
X142305000Y-89230000D01*
X143225000Y-90150000D01*
G36*
X143225000Y-90150000D02*
G01*
X141385000Y-90150000D01*
X142305000Y-89230000D01*
X143225000Y-90150000D01*
G37*
D12*
X149584580Y-92316666D02*
X149632200Y-92364285D01*
X149632200Y-92364285D02*
X149679819Y-92507142D01*
X149679819Y-92507142D02*
X149679819Y-92602380D01*
X149679819Y-92602380D02*
X149632200Y-92745237D01*
X149632200Y-92745237D02*
X149536961Y-92840475D01*
X149536961Y-92840475D02*
X149441723Y-92888094D01*
X149441723Y-92888094D02*
X149251247Y-92935713D01*
X149251247Y-92935713D02*
X149108390Y-92935713D01*
X149108390Y-92935713D02*
X148917914Y-92888094D01*
X148917914Y-92888094D02*
X148822676Y-92840475D01*
X148822676Y-92840475D02*
X148727438Y-92745237D01*
X148727438Y-92745237D02*
X148679819Y-92602380D01*
X148679819Y-92602380D02*
X148679819Y-92507142D01*
X148679819Y-92507142D02*
X148727438Y-92364285D01*
X148727438Y-92364285D02*
X148775057Y-92316666D01*
X149679819Y-91364285D02*
X149679819Y-91935713D01*
X149679819Y-91649999D02*
X148679819Y-91649999D01*
X148679819Y-91649999D02*
X148822676Y-91745237D01*
X148822676Y-91745237D02*
X148917914Y-91840475D01*
X148917914Y-91840475D02*
X148965533Y-91935713D01*
D10*
X143407419Y-93438094D02*
X142407419Y-93438094D01*
X142407419Y-93438094D02*
X142407419Y-93199999D01*
X142407419Y-93199999D02*
X142455038Y-93057142D01*
X142455038Y-93057142D02*
X142550276Y-92961904D01*
X142550276Y-92961904D02*
X142645514Y-92914285D01*
X142645514Y-92914285D02*
X142835990Y-92866666D01*
X142835990Y-92866666D02*
X142978847Y-92866666D01*
X142978847Y-92866666D02*
X143169323Y-92914285D01*
X143169323Y-92914285D02*
X143264561Y-92961904D01*
X143264561Y-92961904D02*
X143359800Y-93057142D01*
X143359800Y-93057142D02*
X143407419Y-93199999D01*
X143407419Y-93199999D02*
X143407419Y-93438094D01*
X143407419Y-91914285D02*
X143407419Y-92485713D01*
X143407419Y-92199999D02*
X142407419Y-92199999D01*
X142407419Y-92199999D02*
X142550276Y-92295237D01*
X142550276Y-92295237D02*
X142645514Y-92390475D01*
X142645514Y-92390475D02*
X142693133Y-92485713D01*
D13*
%TO.C,C1*%
X148640000Y-89790580D02*
X148640000Y-89509420D01*
X149660000Y-89790580D02*
X149660000Y-89509420D01*
%TO.C,D2*%
D10*
X144355000Y-87850000D02*
X147355000Y-87850000D01*
X147355000Y-91450000D01*
X144355000Y-91450000D01*
X144355000Y-87850000D01*
%TO.C,D1*%
X143755000Y-85650000D02*
X147955000Y-85650000D01*
X147955000Y-93650000D01*
X143755000Y-93650000D01*
X143755000Y-85650000D01*
%TD*%
M02*
