%TF.GenerationSoftware,KiCad,Pcbnew,9.0.0*%
%TF.CreationDate,2025-04-16T14:10:13+03:00*%
%TF.ProjectId,lux_sensor,6c75785f-7365-46e7-936f-722e6b696361,rev?*%
%TF.SameCoordinates,Original*%
%TF.FileFunction,Legend,Bot*%
%TF.FilePolarity,Positive*%
%FSLAX46Y46*%
G04 Gerber Fmt 4.6, Leading zero omitted, Abs format (unit mm)*
G04 Created by KiCad (PCBNEW 9.0.0) date 2025-04-16 14:10:13*
%MOMM*%
%LPD*%
G01*
G04 APERTURE LIST*
%ADD10C,0.170000*%
G04 APERTURE END LIST*
D10*
X152802443Y-87651865D02*
X152631015Y-87709008D01*
X152631015Y-87709008D02*
X152573872Y-87766151D01*
X152573872Y-87766151D02*
X152516729Y-87880436D01*
X152516729Y-87880436D02*
X152516729Y-88051865D01*
X152516729Y-88051865D02*
X152573872Y-88166151D01*
X152573872Y-88166151D02*
X152631015Y-88223294D01*
X152631015Y-88223294D02*
X152745300Y-88280436D01*
X152745300Y-88280436D02*
X153202443Y-88280436D01*
X153202443Y-88280436D02*
X153202443Y-87080436D01*
X153202443Y-87080436D02*
X152802443Y-87080436D01*
X152802443Y-87080436D02*
X152688158Y-87137579D01*
X152688158Y-87137579D02*
X152631015Y-87194722D01*
X152631015Y-87194722D02*
X152573872Y-87309008D01*
X152573872Y-87309008D02*
X152573872Y-87423294D01*
X152573872Y-87423294D02*
X152631015Y-87537579D01*
X152631015Y-87537579D02*
X152688158Y-87594722D01*
X152688158Y-87594722D02*
X152802443Y-87651865D01*
X152802443Y-87651865D02*
X153202443Y-87651865D01*
X152002443Y-88280436D02*
X152002443Y-87080436D01*
X151316729Y-88280436D02*
X151831015Y-87594722D01*
X151316729Y-87080436D02*
X152002443Y-87766151D01*
X150059586Y-87080436D02*
X149373872Y-87080436D01*
X149716729Y-88280436D02*
X149716729Y-87080436D01*
X148516728Y-88223294D02*
X148631014Y-88280436D01*
X148631014Y-88280436D02*
X148859586Y-88280436D01*
X148859586Y-88280436D02*
X148973871Y-88223294D01*
X148973871Y-88223294D02*
X149031014Y-88109008D01*
X149031014Y-88109008D02*
X149031014Y-87651865D01*
X149031014Y-87651865D02*
X148973871Y-87537579D01*
X148973871Y-87537579D02*
X148859586Y-87480436D01*
X148859586Y-87480436D02*
X148631014Y-87480436D01*
X148631014Y-87480436D02*
X148516728Y-87537579D01*
X148516728Y-87537579D02*
X148459586Y-87651865D01*
X148459586Y-87651865D02*
X148459586Y-87766151D01*
X148459586Y-87766151D02*
X149031014Y-87880436D01*
X147773872Y-88280436D02*
X147888157Y-88223294D01*
X147888157Y-88223294D02*
X147945300Y-88109008D01*
X147945300Y-88109008D02*
X147945300Y-87080436D01*
X152631015Y-90212369D02*
X153202443Y-90212369D01*
X153202443Y-90212369D02*
X153202443Y-89012369D01*
X152231014Y-90212369D02*
X152231014Y-89412369D01*
X152231014Y-89012369D02*
X152288157Y-89069512D01*
X152288157Y-89069512D02*
X152231014Y-89126655D01*
X152231014Y-89126655D02*
X152173871Y-89069512D01*
X152173871Y-89069512D02*
X152231014Y-89012369D01*
X152231014Y-89012369D02*
X152231014Y-89126655D01*
X151145300Y-89412369D02*
X151145300Y-90383798D01*
X151145300Y-90383798D02*
X151202442Y-90498084D01*
X151202442Y-90498084D02*
X151259585Y-90555227D01*
X151259585Y-90555227D02*
X151373871Y-90612369D01*
X151373871Y-90612369D02*
X151545300Y-90612369D01*
X151545300Y-90612369D02*
X151659585Y-90555227D01*
X151145300Y-90155227D02*
X151259585Y-90212369D01*
X151259585Y-90212369D02*
X151488157Y-90212369D01*
X151488157Y-90212369D02*
X151602442Y-90155227D01*
X151602442Y-90155227D02*
X151659585Y-90098084D01*
X151659585Y-90098084D02*
X151716728Y-89983798D01*
X151716728Y-89983798D02*
X151716728Y-89640941D01*
X151716728Y-89640941D02*
X151659585Y-89526655D01*
X151659585Y-89526655D02*
X151602442Y-89469512D01*
X151602442Y-89469512D02*
X151488157Y-89412369D01*
X151488157Y-89412369D02*
X151259585Y-89412369D01*
X151259585Y-89412369D02*
X151145300Y-89469512D01*
X150573871Y-90212369D02*
X150573871Y-89012369D01*
X150059586Y-90212369D02*
X150059586Y-89583798D01*
X150059586Y-89583798D02*
X150116728Y-89469512D01*
X150116728Y-89469512D02*
X150231014Y-89412369D01*
X150231014Y-89412369D02*
X150402443Y-89412369D01*
X150402443Y-89412369D02*
X150516728Y-89469512D01*
X150516728Y-89469512D02*
X150573871Y-89526655D01*
X149659586Y-89412369D02*
X149202443Y-89412369D01*
X149488157Y-89012369D02*
X149488157Y-90040941D01*
X149488157Y-90040941D02*
X149431014Y-90155227D01*
X149431014Y-90155227D02*
X149316729Y-90212369D01*
X149316729Y-90212369D02*
X149202443Y-90212369D01*
X147945300Y-90155227D02*
X147773872Y-90212369D01*
X147773872Y-90212369D02*
X147488157Y-90212369D01*
X147488157Y-90212369D02*
X147373872Y-90155227D01*
X147373872Y-90155227D02*
X147316729Y-90098084D01*
X147316729Y-90098084D02*
X147259586Y-89983798D01*
X147259586Y-89983798D02*
X147259586Y-89869512D01*
X147259586Y-89869512D02*
X147316729Y-89755227D01*
X147316729Y-89755227D02*
X147373872Y-89698084D01*
X147373872Y-89698084D02*
X147488157Y-89640941D01*
X147488157Y-89640941D02*
X147716729Y-89583798D01*
X147716729Y-89583798D02*
X147831014Y-89526655D01*
X147831014Y-89526655D02*
X147888157Y-89469512D01*
X147888157Y-89469512D02*
X147945300Y-89355227D01*
X147945300Y-89355227D02*
X147945300Y-89240941D01*
X147945300Y-89240941D02*
X147888157Y-89126655D01*
X147888157Y-89126655D02*
X147831014Y-89069512D01*
X147831014Y-89069512D02*
X147716729Y-89012369D01*
X147716729Y-89012369D02*
X147431014Y-89012369D01*
X147431014Y-89012369D02*
X147259586Y-89069512D01*
X146288157Y-90155227D02*
X146402443Y-90212369D01*
X146402443Y-90212369D02*
X146631015Y-90212369D01*
X146631015Y-90212369D02*
X146745300Y-90155227D01*
X146745300Y-90155227D02*
X146802443Y-90040941D01*
X146802443Y-90040941D02*
X146802443Y-89583798D01*
X146802443Y-89583798D02*
X146745300Y-89469512D01*
X146745300Y-89469512D02*
X146631015Y-89412369D01*
X146631015Y-89412369D02*
X146402443Y-89412369D01*
X146402443Y-89412369D02*
X146288157Y-89469512D01*
X146288157Y-89469512D02*
X146231015Y-89583798D01*
X146231015Y-89583798D02*
X146231015Y-89698084D01*
X146231015Y-89698084D02*
X146802443Y-89812369D01*
X145716729Y-89412369D02*
X145716729Y-90212369D01*
X145716729Y-89526655D02*
X145659586Y-89469512D01*
X145659586Y-89469512D02*
X145545301Y-89412369D01*
X145545301Y-89412369D02*
X145373872Y-89412369D01*
X145373872Y-89412369D02*
X145259586Y-89469512D01*
X145259586Y-89469512D02*
X145202444Y-89583798D01*
X145202444Y-89583798D02*
X145202444Y-90212369D01*
X144688158Y-90155227D02*
X144573872Y-90212369D01*
X144573872Y-90212369D02*
X144345301Y-90212369D01*
X144345301Y-90212369D02*
X144231015Y-90155227D01*
X144231015Y-90155227D02*
X144173872Y-90040941D01*
X144173872Y-90040941D02*
X144173872Y-89983798D01*
X144173872Y-89983798D02*
X144231015Y-89869512D01*
X144231015Y-89869512D02*
X144345301Y-89812369D01*
X144345301Y-89812369D02*
X144516730Y-89812369D01*
X144516730Y-89812369D02*
X144631015Y-89755227D01*
X144631015Y-89755227D02*
X144688158Y-89640941D01*
X144688158Y-89640941D02*
X144688158Y-89583798D01*
X144688158Y-89583798D02*
X144631015Y-89469512D01*
X144631015Y-89469512D02*
X144516730Y-89412369D01*
X144516730Y-89412369D02*
X144345301Y-89412369D01*
X144345301Y-89412369D02*
X144231015Y-89469512D01*
X143488158Y-90212369D02*
X143602443Y-90155227D01*
X143602443Y-90155227D02*
X143659586Y-90098084D01*
X143659586Y-90098084D02*
X143716729Y-89983798D01*
X143716729Y-89983798D02*
X143716729Y-89640941D01*
X143716729Y-89640941D02*
X143659586Y-89526655D01*
X143659586Y-89526655D02*
X143602443Y-89469512D01*
X143602443Y-89469512D02*
X143488158Y-89412369D01*
X143488158Y-89412369D02*
X143316729Y-89412369D01*
X143316729Y-89412369D02*
X143202443Y-89469512D01*
X143202443Y-89469512D02*
X143145301Y-89526655D01*
X143145301Y-89526655D02*
X143088158Y-89640941D01*
X143088158Y-89640941D02*
X143088158Y-89983798D01*
X143088158Y-89983798D02*
X143145301Y-90098084D01*
X143145301Y-90098084D02*
X143202443Y-90155227D01*
X143202443Y-90155227D02*
X143316729Y-90212369D01*
X143316729Y-90212369D02*
X143488158Y-90212369D01*
X142573872Y-90212369D02*
X142573872Y-89412369D01*
X142573872Y-89640941D02*
X142516729Y-89526655D01*
X142516729Y-89526655D02*
X142459587Y-89469512D01*
X142459587Y-89469512D02*
X142345301Y-89412369D01*
X142345301Y-89412369D02*
X142231015Y-89412369D01*
X152516729Y-92144302D02*
X152916729Y-91572874D01*
X153202443Y-92144302D02*
X153202443Y-90944302D01*
X153202443Y-90944302D02*
X152745300Y-90944302D01*
X152745300Y-90944302D02*
X152631015Y-91001445D01*
X152631015Y-91001445D02*
X152573872Y-91058588D01*
X152573872Y-91058588D02*
X152516729Y-91172874D01*
X152516729Y-91172874D02*
X152516729Y-91344302D01*
X152516729Y-91344302D02*
X152573872Y-91458588D01*
X152573872Y-91458588D02*
X152631015Y-91515731D01*
X152631015Y-91515731D02*
X152745300Y-91572874D01*
X152745300Y-91572874D02*
X153202443Y-91572874D01*
X151373872Y-92144302D02*
X152059586Y-92144302D01*
X151716729Y-92144302D02*
X151716729Y-90944302D01*
X151716729Y-90944302D02*
X151831015Y-91115731D01*
X151831015Y-91115731D02*
X151945300Y-91230017D01*
X151945300Y-91230017D02*
X152059586Y-91287160D01*
X155934586Y-92451445D02*
X155363158Y-92451445D01*
X156048872Y-92794302D02*
X155648872Y-91594302D01*
X155648872Y-91594302D02*
X155248872Y-92794302D01*
X155706014Y-87519302D02*
X155706014Y-86319302D01*
X155020300Y-87519302D02*
X155534586Y-86833588D01*
X155020300Y-86319302D02*
X155706014Y-87005017D01*
M02*
