G04*
G04 #@! TF.GenerationSoftware,Altium Limited,CircuitStudio,1.5.2 (30)*
G04*
G04 Layer_Color=128*
%FSLAX25Y25*%
%MOIN*%
G70*
G01*
G75*
%ADD48C,0.00500*%
D48*
X100000Y23811D02*
X107087D01*
X103543Y20268D02*
Y27354D01*
X83465Y23811D02*
X90551D01*
X87008Y20268D02*
Y27354D01*
X116535Y23811D02*
X123622D01*
X120079Y20268D02*
Y27354D01*
X149606Y23811D02*
X156693D01*
X153150Y20268D02*
Y27354D01*
X133071Y23811D02*
X140157D01*
X136614Y20268D02*
Y27354D01*
X83465Y45465D02*
X90551D01*
X87008Y41921D02*
Y49008D01*
X100000Y45465D02*
X107087D01*
X103543Y41921D02*
Y49008D01*
X116535Y45465D02*
X123622D01*
X120079Y41921D02*
Y49008D01*
X133071Y45465D02*
X140157D01*
X136614Y41921D02*
Y49008D01*
X149606Y45465D02*
X156693D01*
X153150Y41921D02*
Y49008D01*
X26500Y36998D02*
X29059D01*
X27780Y35719D02*
Y38278D01*
X26500Y41998D02*
X29059D01*
X27780Y40718D02*
Y43278D01*
X31500Y41998D02*
X34059D01*
X32780Y40718D02*
Y43278D01*
X31500Y36998D02*
X34059D01*
X32780Y35719D02*
Y38278D01*
X41500Y36998D02*
X44059D01*
X42780Y35719D02*
Y38278D01*
X46500Y36998D02*
X49059D01*
X47780Y35719D02*
Y38278D01*
X46500Y41998D02*
X49059D01*
X47780Y40718D02*
Y43278D01*
X41500Y41998D02*
X44059D01*
X42780Y40718D02*
Y43278D01*
X36500Y41998D02*
X39059D01*
X37780Y40718D02*
Y43278D01*
X36500Y36998D02*
X39059D01*
X37780Y35719D02*
Y38278D01*
X129380Y97232D02*
X133317D01*
X131349Y95263D02*
Y99200D01*
X109380Y97232D02*
X113317D01*
X111349Y95263D02*
Y99200D01*
X99380Y97232D02*
X103317D01*
X101349Y95263D02*
Y99200D01*
X89380Y97232D02*
X93317D01*
X91349Y95263D02*
Y99200D01*
X89380Y77232D02*
X93317D01*
X91349Y75263D02*
Y79200D01*
X99380Y77232D02*
X103317D01*
X101349Y75263D02*
Y79200D01*
X109380Y77232D02*
X113317D01*
X111349Y75263D02*
Y79200D01*
X129380Y77232D02*
X133317D01*
X131349Y75263D02*
Y79200D01*
X227502Y100000D02*
X230061D01*
X228782Y98721D02*
Y101280D01*
X222502Y100000D02*
X225061D01*
X223782Y98721D02*
Y101280D01*
X222502Y105000D02*
X225061D01*
X223782Y103720D02*
Y106280D01*
X222502Y110000D02*
X225061D01*
X223782Y108721D02*
Y111280D01*
X227502Y110000D02*
X230061D01*
X228782Y108721D02*
Y111280D01*
X227502Y105000D02*
X230061D01*
X228782Y103720D02*
Y106280D01*
X227502Y95000D02*
X230061D01*
X228782Y93721D02*
Y96280D01*
X222502Y95000D02*
X225061D01*
X223782Y93721D02*
Y96280D01*
X222502Y90000D02*
X225061D01*
X223782Y88721D02*
Y91280D01*
X227502Y90000D02*
X230061D01*
X228782Y88721D02*
Y91280D01*
X32746Y61289D02*
X33927D01*
X33336Y60698D02*
Y61879D01*
X204701Y39740D02*
X206276D01*
X205488Y38953D02*
Y40528D01*
X204331Y34646D02*
X205906D01*
X205118Y33858D02*
Y35433D01*
X178347Y83071D02*
X179921D01*
X179134Y82284D02*
Y83858D01*
X32549Y82018D02*
X34124D01*
X33336Y81231D02*
Y82806D01*
X181666Y83071D02*
X183241D01*
X182454Y82284D02*
Y83858D01*
X159055Y83071D02*
X160630D01*
X159843Y82284D02*
Y83858D01*
X155512Y83071D02*
X157087D01*
X156299Y82284D02*
Y83858D01*
X241339Y3150D02*
X242913D01*
X242126Y2362D02*
Y3937D01*
X241339Y9055D02*
X242913D01*
X242126Y8268D02*
Y9843D01*
X241339Y14961D02*
X242913D01*
X242126Y14173D02*
Y15748D01*
X241339Y20866D02*
X242913D01*
X242126Y20079D02*
Y21654D01*
X241339Y26772D02*
X242913D01*
X242126Y25984D02*
Y27559D01*
X241339Y32677D02*
X242913D01*
X242126Y31890D02*
Y33465D01*
X241339Y38583D02*
X242913D01*
X242126Y37795D02*
Y39370D01*
X241339Y44488D02*
X242913D01*
X242126Y43701D02*
Y45276D01*
X241339Y50394D02*
X242913D01*
X242126Y49606D02*
Y51181D01*
X241339Y56299D02*
X242913D01*
X242126Y55512D02*
Y57087D01*
X241339Y62205D02*
X242913D01*
X242126Y61417D02*
Y62992D01*
X241339Y68110D02*
X242913D01*
X242126Y67323D02*
Y68898D01*
X241339Y74016D02*
X242913D01*
X242126Y73228D02*
Y74803D01*
X241339Y79921D02*
X242913D01*
X242126Y79134D02*
Y80709D01*
X241339Y85827D02*
X242913D01*
X242126Y85039D02*
Y86614D01*
X241339Y91732D02*
X242913D01*
X242126Y90945D02*
Y92520D01*
X241339Y97638D02*
X242913D01*
X242126Y96850D02*
Y98425D01*
X241339Y103543D02*
X242913D01*
X242126Y102756D02*
Y104331D01*
X241339Y109449D02*
X242913D01*
X242126Y108661D02*
Y110236D01*
X241339Y115354D02*
X242913D01*
X242126Y114567D02*
Y116142D01*
X241339Y121260D02*
X242913D01*
X242126Y120473D02*
Y122047D01*
X241339Y127165D02*
X242913D01*
X242126Y126378D02*
Y127953D01*
X241339Y133071D02*
X242913D01*
X242126Y132283D02*
Y133858D01*
X235433Y3150D02*
X237008D01*
X236221Y2362D02*
Y3937D01*
X229528Y3150D02*
X231102D01*
X230315Y2362D02*
Y3937D01*
X223622Y3150D02*
X225197D01*
X224410Y2362D02*
Y3937D01*
X217717Y3150D02*
X219291D01*
X218504Y2362D02*
Y3937D01*
X211811Y3150D02*
X213386D01*
X212598Y2362D02*
Y3937D01*
X205906Y3150D02*
X207480D01*
X206693Y2362D02*
Y3937D01*
X200000Y3150D02*
X201575D01*
X200787Y2362D02*
Y3937D01*
X194095Y3150D02*
X195669D01*
X194882Y2362D02*
Y3937D01*
X188189Y3150D02*
X189764D01*
X188976Y2362D02*
Y3937D01*
X182283Y3150D02*
X183858D01*
X183071Y2362D02*
Y3937D01*
X176378Y3150D02*
X177953D01*
X177165Y2362D02*
Y3937D01*
X170472Y3150D02*
X172047D01*
X171260Y2362D02*
Y3937D01*
X164567Y3150D02*
X166142D01*
X165354Y2362D02*
Y3937D01*
X158661Y3150D02*
X160236D01*
X159449Y2362D02*
Y3937D01*
X152756Y3150D02*
X154331D01*
X153543Y2362D02*
Y3937D01*
X235433Y133071D02*
X237008D01*
X236221Y132283D02*
Y133858D01*
X229528Y133071D02*
X231102D01*
X230315Y132283D02*
Y133858D01*
X223622Y133071D02*
X225197D01*
X224409Y132283D02*
Y133858D01*
X217717Y133071D02*
X219291D01*
X218504Y132283D02*
Y133858D01*
X211811Y133071D02*
X213386D01*
X212598Y132283D02*
Y133858D01*
X205906Y133071D02*
X207480D01*
X206693Y132283D02*
Y133858D01*
X200000Y133071D02*
X201575D01*
X200787Y132283D02*
Y133858D01*
X194095Y133071D02*
X195669D01*
X194882Y132283D02*
Y133858D01*
X188189Y133071D02*
X189764D01*
X188976Y132283D02*
Y133858D01*
X182283Y133071D02*
X183858D01*
X183071Y132283D02*
Y133858D01*
X176378Y133071D02*
X177953D01*
X177165Y132283D02*
Y133858D01*
X170472Y133071D02*
X172047D01*
X171260Y132283D02*
Y133858D01*
X164567Y133071D02*
X166142D01*
X165354Y132283D02*
Y133858D01*
X158661Y133071D02*
X160236D01*
X159449Y132283D02*
Y133858D01*
X152756Y133071D02*
X154331D01*
X153543Y132283D02*
Y133858D01*
X146850Y133071D02*
X148425D01*
X147638Y132283D02*
Y133858D01*
X140945Y133071D02*
X142520D01*
X141732Y132283D02*
Y133858D01*
X135039Y133071D02*
X136614D01*
X135827Y132283D02*
Y133858D01*
X129134Y133071D02*
X130709D01*
X129921Y132283D02*
Y133858D01*
X123228Y133071D02*
X124803D01*
X124016Y132283D02*
Y133858D01*
X117323Y133071D02*
X118898D01*
X118110Y132283D02*
Y133858D01*
X111417Y133071D02*
X112992D01*
X112205Y132283D02*
Y133858D01*
X105512Y133071D02*
X107087D01*
X106299Y132283D02*
Y133858D01*
X99606Y133071D02*
X101181D01*
X100394Y132283D02*
Y133858D01*
X93701Y133071D02*
X95276D01*
X94488Y132283D02*
Y133858D01*
X87795Y133071D02*
X89370D01*
X88583Y132283D02*
Y133858D01*
X81890Y133071D02*
X83464D01*
X82677Y132283D02*
Y133858D01*
X75984Y133071D02*
X77559D01*
X76772Y132283D02*
Y133858D01*
X70079Y133071D02*
X71653D01*
X70866Y132283D02*
Y133858D01*
X64173Y133071D02*
X65748D01*
X64961Y132283D02*
Y133858D01*
X58268Y133071D02*
X59842D01*
X59055Y132283D02*
Y133858D01*
X52362Y133071D02*
X53937D01*
X53150Y132283D02*
Y133858D01*
X46457Y133071D02*
X48031D01*
X47244Y132283D02*
Y133858D01*
X40551Y133071D02*
X42126D01*
X41339Y132283D02*
Y133858D01*
X34646Y133071D02*
X36220D01*
X35433Y132283D02*
Y133858D01*
X28740Y133071D02*
X30315D01*
X29528Y132283D02*
Y133858D01*
X22835Y133071D02*
X24409D01*
X23622Y132283D02*
Y133858D01*
X16929Y133071D02*
X18504D01*
X17717Y132283D02*
Y133858D01*
X11024Y133071D02*
X12598D01*
X11811Y132283D02*
Y133858D01*
X11024Y127165D02*
X12598D01*
X11811Y126378D02*
Y127953D01*
X11024Y121260D02*
X12598D01*
X11811Y120472D02*
Y122047D01*
X11024Y115354D02*
X12598D01*
X11811Y114567D02*
Y116142D01*
X11024Y109449D02*
X12598D01*
X11811Y108661D02*
Y110236D01*
X11024Y103543D02*
X12598D01*
X11811Y102756D02*
Y104331D01*
X11024Y97638D02*
X12598D01*
X11811Y96850D02*
Y98425D01*
X11024Y91732D02*
X12598D01*
X11811Y90945D02*
Y92520D01*
X11024Y85827D02*
X12598D01*
X11811Y85039D02*
Y86614D01*
X11024Y79921D02*
X12598D01*
X11811Y79134D02*
Y80709D01*
X11024Y74016D02*
X12598D01*
X11811Y73228D02*
Y74803D01*
X11024Y68110D02*
X12598D01*
X11811Y67323D02*
Y68898D01*
X11024Y62205D02*
X12598D01*
X11811Y61417D02*
Y62992D01*
X11024Y56299D02*
X12598D01*
X11811Y55512D02*
Y57087D01*
X11024Y50394D02*
X12598D01*
X11811Y49606D02*
Y51181D01*
X11024Y44488D02*
X12598D01*
X11811Y43701D02*
Y45276D01*
X11024Y38583D02*
X12598D01*
X11811Y37795D02*
Y39370D01*
X11024Y32677D02*
X12598D01*
X11811Y31890D02*
Y33465D01*
X11024Y26772D02*
X12598D01*
X11811Y25984D02*
Y27559D01*
X11024Y20866D02*
X12598D01*
X11811Y20079D02*
Y21654D01*
X11024Y14961D02*
X12598D01*
X11811Y14173D02*
Y15748D01*
X11024Y9055D02*
X12598D01*
X11811Y8268D02*
Y9843D01*
X146850Y3150D02*
X148425D01*
X147638Y2362D02*
Y3937D01*
X140945Y3150D02*
X142520D01*
X141732Y2362D02*
Y3937D01*
X52362Y3150D02*
X53937D01*
X53150Y2362D02*
Y3937D01*
X135039Y3150D02*
X136614D01*
X135827Y2362D02*
Y3937D01*
X46457Y3150D02*
X48031D01*
X47244Y2362D02*
Y3937D01*
X129134Y3150D02*
X130709D01*
X129921Y2362D02*
Y3937D01*
X40551Y3150D02*
X42126D01*
X41339Y2362D02*
Y3937D01*
X123228Y3150D02*
X124803D01*
X124016Y2362D02*
Y3937D01*
X34646Y3150D02*
X36220D01*
X35433Y2362D02*
Y3937D01*
X117323Y3150D02*
X118898D01*
X118110Y2362D02*
Y3937D01*
X28740Y3150D02*
X30315D01*
X29528Y2362D02*
Y3937D01*
X111417Y3150D02*
X112992D01*
X112205Y2362D02*
Y3937D01*
X22835Y3150D02*
X24409D01*
X23622Y2362D02*
Y3937D01*
X105512Y3150D02*
X107087D01*
X106299Y2362D02*
Y3937D01*
X16929Y3150D02*
X18504D01*
X17717Y2362D02*
Y3937D01*
X99606Y3150D02*
X101181D01*
X100394Y2362D02*
Y3937D01*
X11024Y3150D02*
X12598D01*
X11811Y2362D02*
Y3937D01*
X93701Y3150D02*
X95276D01*
X94488Y2362D02*
Y3937D01*
X87795Y3150D02*
X89370D01*
X88583Y2362D02*
Y3937D01*
X81890Y3150D02*
X83465D01*
X82677Y2362D02*
Y3937D01*
X75984Y3150D02*
X77559D01*
X76772Y2362D02*
Y3937D01*
X70079Y3150D02*
X71653D01*
X70866Y2362D02*
Y3937D01*
X64173Y3150D02*
X65748D01*
X64961Y2362D02*
Y3937D01*
X58268Y3150D02*
X59842D01*
X59055Y2362D02*
Y3937D01*
X183071Y26378D02*
X184646D01*
X183858Y25591D02*
Y27165D01*
X197638Y27559D02*
X199213D01*
X198425Y26772D02*
Y28346D01*
X194488Y18110D02*
X196063D01*
X195276Y17323D02*
Y18898D01*
X183465Y13386D02*
X185039D01*
X184252Y12598D02*
Y14173D01*
X168898Y46850D02*
X170472D01*
X169685Y46063D02*
Y47638D01*
X187402Y45669D02*
X188976D01*
X188189Y44882D02*
Y46457D01*
X186221Y35827D02*
X187795D01*
X187008Y35039D02*
Y36614D01*
X174016Y35827D02*
X175591D01*
X174803Y35039D02*
Y36614D01*
X161024Y99213D02*
X162598D01*
X161811Y98425D02*
Y100000D01*
X184646Y96850D02*
X186221D01*
X185433Y96063D02*
Y97638D01*
X203031Y125039D02*
X204606D01*
X203819Y124252D02*
Y125827D01*
X155630Y117913D02*
X157205D01*
X156417Y117126D02*
Y118701D01*
X114488Y123583D02*
X116063D01*
X115276Y122795D02*
Y124370D01*
X119291Y85433D02*
X120866D01*
X120079Y84646D02*
Y86221D01*
X92520Y111024D02*
X94095D01*
X93307Y110236D02*
Y111811D01*
X78740Y122835D02*
X80315D01*
X79528Y122047D02*
Y123622D01*
X95276D02*
X96850D01*
X96063Y122835D02*
Y124409D01*
X106299Y113386D02*
X107874D01*
X107087Y112598D02*
Y114173D01*
X30118Y123071D02*
X31693D01*
X30906Y122283D02*
Y123858D01*
X25394Y117953D02*
X26969D01*
X26181Y117165D02*
Y118740D01*
X25394Y108898D02*
X26969D01*
X26181Y108110D02*
Y109685D01*
X29921Y103661D02*
X31496D01*
X30709Y102874D02*
Y104449D01*
X25984Y97244D02*
X27559D01*
X26772Y96457D02*
Y98032D01*
X17323Y97638D02*
X18898D01*
X18110Y96850D02*
Y98425D01*
X38583Y83465D02*
X40157D01*
X39370Y82677D02*
Y84252D01*
X44882Y88189D02*
X46457D01*
X45669Y87402D02*
Y88976D01*
X51968Y90551D02*
X53543D01*
X52756Y89764D02*
Y91339D01*
X70866Y90158D02*
X72441D01*
X71653Y89370D02*
Y90945D01*
X47638Y53937D02*
X49213D01*
X48425Y53150D02*
Y54724D01*
X50000Y62598D02*
X51575D01*
X50787Y61811D02*
Y63386D01*
X16535Y57087D02*
X18110D01*
X17323Y56299D02*
Y57874D01*
X16929Y32283D02*
X18504D01*
X17717Y31496D02*
Y33071D01*
X20472Y27165D02*
X22047D01*
X21260Y26378D02*
Y27953D01*
X20472Y18110D02*
X22047D01*
X21260Y17323D02*
Y18898D01*
X25197Y12598D02*
X26772D01*
X25984Y11811D02*
Y13386D01*
X172047Y60236D02*
X173622D01*
X172835Y59449D02*
Y61024D01*
X189764Y58661D02*
X191339D01*
X190551Y57874D02*
Y59449D01*
X202362Y55905D02*
X203937D01*
X203150Y55118D02*
Y56693D01*
X191732Y70472D02*
X193307D01*
X192520Y69685D02*
Y71260D01*
X202756Y74016D02*
X204331D01*
X203543Y73228D02*
Y74803D01*
X203937Y90158D02*
X205512D01*
X204724Y89370D02*
Y90945D01*
X193307Y103543D02*
X194882D01*
X194095Y102756D02*
Y104331D01*
X232283Y75590D02*
X233858D01*
X233071Y74803D02*
Y76378D01*
X219291Y64567D02*
X220866D01*
X220079Y63779D02*
Y65354D01*
X231102Y54724D02*
X232677D01*
X231890Y53937D02*
Y55512D01*
X222441Y14961D02*
X224016D01*
X223228Y14173D02*
Y15748D01*
X235039Y13780D02*
X236614D01*
X235827Y12992D02*
Y14567D01*
X233858Y37008D02*
X235433D01*
X234646Y36220D02*
Y37795D01*
X40591Y103110D02*
X42165D01*
X41378Y102323D02*
Y103898D01*
X38583Y29921D02*
X40157D01*
X39370Y29134D02*
Y30709D01*
X38583Y26378D02*
X40157D01*
X39370Y25591D02*
Y27165D01*
X42126Y26378D02*
X43701D01*
X42913Y25591D02*
Y27165D01*
X42126Y29921D02*
X43701D01*
X42913Y29134D02*
Y30709D01*
X91693Y60945D02*
X93268D01*
X92480Y60158D02*
Y61732D01*
X172913Y26244D02*
X174487D01*
X173700Y25457D02*
Y27031D01*
X165354Y39764D02*
X166929D01*
X166142Y38976D02*
Y40551D01*
X45551Y60354D02*
X46732D01*
X46142Y59764D02*
Y60945D01*
X40098Y66614D02*
X41870D01*
X40984Y65728D02*
Y67500D01*
X40138Y78268D02*
X41909D01*
X41024Y77382D02*
Y79154D01*
X40197Y91811D02*
X41772D01*
X40984Y91024D02*
Y92598D01*
X70492Y49134D02*
X72264D01*
X71378Y48248D02*
Y50020D01*
X70295Y59961D02*
X72067D01*
X71181Y59075D02*
Y60847D01*
M02*
