M48
; DRILL file {KiCad 8.99.0-1891-ge2bd76bdce} date 2024-07-24T15:45:52+0300
; FORMAT={-:-/ absolute / inch / decimal}
; #@! TF.CreationDate,2024-07-24T15:45:52+03:00
; #@! TF.GenerationSoftware,Kicad,Pcbnew,8.99.0-1891-ge2bd76bdce
; #@! TF.FileFunction,Plated,1,2,PTH
FMAT,2
INCH
; #@! TA.AperFunction,Plated,PTH,ViaDrill
T1C0.0138
; #@! TA.AperFunction,Plated,PTH,ComponentDrill
T2C0.0315
; #@! TA.AperFunction,Plated,PTH,ComponentDrill
T3C0.0394
; #@! TA.AperFunction,Plated,PTH,ComponentDrill
T4C0.0512
%
G90
G05
T1
X6.6693Y-5.7943
X6.6703Y-5.6516
X6.7653Y-4.1634
X6.8866Y-4.1634
X7.0079Y-4.1634
X7.1292Y-4.1634
X7.1535Y-4.8012
X7.1594Y-4.9469
X7.2506Y-4.1634
X7.2569Y-5.0295
X7.2628Y-4.8809
X7.2839Y-4.3268
X7.2908Y-4.5581
X7.3719Y-4.1634
X7.4052Y-4.3268
X7.4121Y-4.5581
X7.4246Y-4.8474
X7.4331Y-5.7884
X7.4932Y-4.1634
X7.5039Y-5.0217
X7.5265Y-4.3268
X7.5334Y-4.5581
X7.5459Y-4.8474
X7.5787Y-5.7854
X7.6145Y-4.1634
X7.6478Y-4.3268
X7.6547Y-4.5581
X7.6673Y-4.8474
X7.7359Y-4.1634
X7.747Y-5.7854
X7.7692Y-4.3268
X7.7761Y-4.5581
X7.7886Y-4.8474
X7.7982Y-5.0266
X7.8572Y-4.1634
X7.8905Y-4.3268
X7.8974Y-4.5581
X7.9065Y-5.7884
X7.9099Y-4.8474
X7.9785Y-4.1634
X8.0118Y-4.3268
X8.0187Y-4.5581
X8.0312Y-4.8474
X8.0787Y-5.0295
X8.0945Y-5.7864
X8.0998Y-4.1634
X8.1526Y-4.8474
X8.2211Y-4.1634
X8.2657Y-5.0207
X8.3091Y-5.4006
X8.3091Y-5.5512
X8.315Y-5.6742
X8.3425Y-4.1634
X8.4065Y-4.3002
X8.4638Y-4.1634
X8.4774Y-5.0266
X8.501Y-4.6083
X8.5413Y-5.6722
X8.5851Y-4.1634
X8.6309Y-4.3031
X8.6516Y-4.6063
X8.6781Y-5.0295
X8.7064Y-4.1634
X8.75Y-5.6722
X8.8278Y-4.1634
X8.8356Y-4.7031
X8.8622Y-4.312
X8.8839Y-5.0295
X8.8898Y-5.4222
X8.8927Y-5.5797
X8.9491Y-4.1634
X9.0704Y-4.1634
X9.0738Y-5.561
X9.0763Y-4.3275
X9.0787Y-5.4075
X9.0817Y-5.0295
X9.0827Y-5.6713
T2
X6.7555Y-4.4262
X6.8555Y-4.4262
X6.9555Y-4.4262
X7.0555Y-4.4262
X7.1555Y-4.4262
X8.1555Y-4.4262
X8.2555Y-4.4262
X8.3555Y-4.4262
X8.4555Y-4.4262
X8.5555Y-4.4262
X8.6555Y-4.4262
T3
X6.8486Y-5.4075
X6.8486Y-5.5075
X6.8486Y-5.6575
X6.8486Y-5.7575
X6.9447Y-5.1518
X6.9447Y-5.2518
X6.9486Y-5.4075
X6.9486Y-5.5075
X6.9486Y-5.6575
X6.9486Y-5.7575
X7.0447Y-5.1518
X7.0447Y-5.2518
X7.0486Y-5.4075
X7.0486Y-5.5075
X7.0486Y-5.6575
X7.0486Y-5.7575
X7.1447Y-5.1518
X7.1447Y-5.2518
X7.1486Y-5.4075
X7.1486Y-5.5075
X7.1486Y-5.6575
X7.1486Y-5.7575
X7.2447Y-5.1518
X7.2447Y-5.2518
X7.2486Y-5.4075
X7.2486Y-5.5075
X7.2486Y-5.6575
X7.2486Y-5.7575
X7.3447Y-5.1518
X7.3447Y-5.2518
X7.4447Y-5.1518
X7.4447Y-5.2518
X7.4492Y-5.4183
X7.4516Y-5.5768
X7.5447Y-5.1518
X7.5447Y-5.2518
X7.5492Y-5.4183
X7.5516Y-5.5768
X7.6447Y-5.1518
X7.6447Y-5.2518
X7.6492Y-5.4183
X7.6516Y-5.5768
X7.7447Y-5.1518
X7.7447Y-5.2518
X7.7492Y-5.4183
X7.7516Y-5.5768
X7.8447Y-5.1518
X7.8447Y-5.2518
X7.8492Y-5.4183
X7.8516Y-5.5768
X7.9447Y-5.1518
X7.9447Y-5.2518
X7.9492Y-5.4183
X7.9516Y-5.5768
X8.0447Y-5.1518
X8.0447Y-5.2518
X8.0492Y-5.4183
X8.0516Y-5.5768
X8.1447Y-5.1518
X8.1447Y-5.2518
X8.1492Y-5.4183
X8.1516Y-5.5768
X8.2447Y-5.1518
X8.2447Y-5.2518
X8.3447Y-5.1518
X8.3447Y-5.2518
X8.4447Y-5.1518
X8.4447Y-5.2518
X8.4667Y-5.4419
X8.4667Y-5.5419
X8.5447Y-5.1518
X8.5447Y-5.2518
X8.5667Y-5.4419
X8.5667Y-5.5419
X8.6447Y-5.1518
X8.6447Y-5.2518
X8.6667Y-5.4419
X8.6667Y-5.5419
X8.7447Y-5.1518
X8.7447Y-5.2518
X8.7667Y-5.4419
X8.7667Y-5.5419
X8.8447Y-5.1518
X8.8447Y-5.2518
T4
X8.9833Y-4.5866
X8.9833Y-4.7835
M30
