G04 #@! TF.GenerationSoftware,KiCad,Pcbnew,8.99.0-1891-ge2bd76bdce*
G04 #@! TF.CreationDate,2024-07-24T15:45:45+03:00*
G04 #@! TF.ProjectId,rfid_rpi_hat,72666964-5f72-4706-995f-6861742e6b69,rev?*
G04 #@! TF.SameCoordinates,Original*
G04 #@! TF.FileFunction,Copper,L2,Bot*
G04 #@! TF.FilePolarity,Positive*
%FSLAX46Y46*%
G04 Gerber Fmt 4.6, Leading zero omitted, Abs format (unit mm)*
G04 Created by KiCad (PCBNEW 8.99.0-1891-ge2bd76bdce) date 2024-07-24 15:45:45*
%MOMM*%
%LPD*%
G01*
G04 APERTURE LIST*
G04 #@! TA.AperFunction,ComponentPad*
%ADD10R,1.700000X1.700000*%
G04 #@! TD*
G04 #@! TA.AperFunction,ComponentPad*
%ADD11O,1.700000X1.700000*%
G04 #@! TD*
G04 #@! TA.AperFunction,ComponentPad*
%ADD12C,2.500000*%
G04 #@! TD*
G04 #@! TA.AperFunction,ComponentPad*
%ADD13C,1.500000*%
G04 #@! TD*
G04 #@! TA.AperFunction,ViaPad*
%ADD14C,0.700000*%
G04 #@! TD*
G04 #@! TA.AperFunction,Conductor*
%ADD15C,0.200000*%
G04 #@! TD*
G04 #@! TA.AperFunction,Conductor*
%ADD16C,1.200000*%
G04 #@! TD*
G04 #@! TA.AperFunction,Conductor*
%ADD17C,1.500000*%
G04 #@! TD*
G04 APERTURE END LIST*
D10*
X184115000Y-146240000D03*
D11*
X184115000Y-143700000D03*
X181575000Y-146240000D03*
X181575000Y-143700000D03*
X179035000Y-146240000D03*
X179035000Y-143700000D03*
X176495000Y-146240000D03*
X176495000Y-143700000D03*
X173955000Y-146240000D03*
X173955000Y-143700000D03*
D10*
X189210000Y-137625000D03*
D11*
X191750000Y-137625000D03*
X194290000Y-137625000D03*
X196830000Y-137625000D03*
X199370000Y-137625000D03*
X201910000Y-137625000D03*
X204450000Y-137625000D03*
X206990000Y-137625000D03*
D10*
X184115000Y-139890000D03*
D11*
X184115000Y-137350000D03*
X181575000Y-139890000D03*
X181575000Y-137350000D03*
X179035000Y-139890000D03*
X179035000Y-137350000D03*
X176495000Y-139890000D03*
X176495000Y-137350000D03*
X173955000Y-139890000D03*
X173955000Y-137350000D03*
D10*
X189270000Y-141650000D03*
D11*
X191810000Y-141650000D03*
X194350000Y-141650000D03*
X196890000Y-141650000D03*
X199430000Y-141650000D03*
X201970000Y-141650000D03*
X204510000Y-141650000D03*
X207050000Y-141650000D03*
D12*
X228175000Y-121500000D03*
X228175000Y-116500000D03*
D10*
X215055000Y-138225000D03*
D11*
X215055000Y-140765000D03*
X217595000Y-138225000D03*
X217595000Y-140765000D03*
X220135000Y-138225000D03*
X220135000Y-140765000D03*
X222675000Y-138225000D03*
X222675000Y-140765000D03*
D13*
X171590000Y-112425000D03*
X174130000Y-112425000D03*
X176670000Y-112425000D03*
X179210000Y-112425000D03*
X181750000Y-112425000D03*
X207150000Y-112425000D03*
X209690000Y-112425000D03*
X212230000Y-112425000D03*
X214770000Y-112425000D03*
X217310000Y-112425000D03*
X219850000Y-112425000D03*
D10*
X176395000Y-133395000D03*
D11*
X176395000Y-130855000D03*
X178935000Y-133395000D03*
X178935000Y-130855000D03*
X181475000Y-133395000D03*
X181475000Y-130855000D03*
X184015000Y-133395000D03*
X184015000Y-130855000D03*
X186555000Y-133395000D03*
X186555000Y-130855000D03*
X189095000Y-133395000D03*
X189095000Y-130855000D03*
X191635000Y-133395000D03*
X191635000Y-130855000D03*
X194175000Y-133395000D03*
X194175000Y-130855000D03*
X196715000Y-133395000D03*
X196715000Y-130855000D03*
X199255000Y-133395000D03*
X199255000Y-130855000D03*
X201795000Y-133395000D03*
X201795000Y-130855000D03*
X204335000Y-133395000D03*
X204335000Y-130855000D03*
X206875000Y-133395000D03*
X206875000Y-130855000D03*
X209415000Y-133395000D03*
X209415000Y-130855000D03*
X211955000Y-133395000D03*
X211955000Y-130855000D03*
X214495000Y-133395000D03*
X214495000Y-130855000D03*
X217035000Y-133395000D03*
X217035000Y-130855000D03*
X219575000Y-133395000D03*
X219575000Y-130855000D03*
X222115000Y-133395000D03*
X222115000Y-130855000D03*
X224655000Y-133395000D03*
X224655000Y-130855000D03*
D14*
X188092105Y-109900000D03*
X191348684Y-115775000D03*
X194748684Y-123125000D03*
X230475000Y-141250000D03*
X207075000Y-123125000D03*
X185010527Y-109900000D03*
X185185527Y-115775000D03*
X230675000Y-127750000D03*
X203500000Y-109900000D03*
X199572369Y-105750000D03*
X214980264Y-105750000D03*
X169400000Y-147175000D03*
X222250000Y-144075000D03*
X171838159Y-105750000D03*
X224225000Y-105750000D03*
X200911842Y-123125000D03*
X211200000Y-144125000D03*
X193409211Y-105750000D03*
X188800000Y-147025000D03*
X194255263Y-109900000D03*
X197511842Y-115775000D03*
X219225000Y-109300000D03*
X230388158Y-105750000D03*
X220425000Y-127750000D03*
X227306579Y-105750000D03*
X181850000Y-125650000D03*
X205600000Y-146975000D03*
X200593421Y-115775000D03*
X188267105Y-115775000D03*
X184164475Y-105750000D03*
X211050000Y-137175000D03*
X218061842Y-105750000D03*
X181082896Y-105750000D03*
X192500000Y-146950000D03*
X196490790Y-105750000D03*
X181700000Y-121950000D03*
X230700000Y-144050000D03*
X197830263Y-123125000D03*
X169425000Y-143550000D03*
X197336842Y-109900000D03*
X225650000Y-127750000D03*
X225100000Y-109525000D03*
X219750000Y-117000000D03*
X202653948Y-105750000D03*
X230537134Y-109919562D03*
X211898685Y-105750000D03*
X174919738Y-105750000D03*
X200418421Y-109900000D03*
X209950000Y-127525000D03*
X178001317Y-105750000D03*
X225800000Y-137725000D03*
X215325000Y-127675000D03*
X203993421Y-123125000D03*
X203675000Y-115775000D03*
X191667105Y-123125000D03*
X208817106Y-105750000D03*
X198075000Y-127675000D03*
X211050000Y-141000000D03*
X196775000Y-146950000D03*
X194430263Y-115775000D03*
X190327632Y-105750000D03*
X205200000Y-127750000D03*
X184325000Y-127750000D03*
X205735527Y-105750000D03*
X184475000Y-123975000D03*
X190600000Y-127550000D03*
X224424987Y-119459081D03*
X221143421Y-105750000D03*
X187246053Y-105750000D03*
X215925000Y-117050000D03*
X225875000Y-141725000D03*
X191173684Y-109900000D03*
X188585527Y-123125000D03*
X213525000Y-109225000D03*
X216950000Y-144075000D03*
X200825000Y-147025000D03*
X230600000Y-137350000D03*
D15*
X199370000Y-137625000D02*
X199370000Y-135820000D01*
X199370000Y-135820000D02*
X201795000Y-133395000D01*
D16*
X196715000Y-133395000D02*
X196715000Y-134235000D01*
X176395000Y-133395000D02*
X176005000Y-133395000D01*
X189270000Y-141650000D02*
X189270000Y-139775000D01*
X196715000Y-134235000D02*
X195600000Y-135350000D01*
X188935000Y-137350000D02*
X189210000Y-137625000D01*
X184115000Y-137350000D02*
X188935000Y-137350000D01*
X195600000Y-135350000D02*
X189900000Y-135350000D01*
X189270000Y-135980000D02*
X189900000Y-135350000D01*
D17*
X173955000Y-137350000D02*
X184115000Y-137350000D01*
D16*
X189270000Y-139775000D02*
X189270000Y-135980000D01*
G04 #@! TA.AperFunction,Conductor*
G36*
X176029075Y-146047007D02*
G01*
X175995000Y-146174174D01*
X175995000Y-146305826D01*
X176029075Y-146432993D01*
X176061988Y-146490000D01*
X174388012Y-146490000D01*
X174420925Y-146432993D01*
X174455000Y-146305826D01*
X174455000Y-146174174D01*
X174420925Y-146047007D01*
X174388012Y-145990000D01*
X176061988Y-145990000D01*
X176029075Y-146047007D01*
G37*
G04 #@! TD.AperFunction*
G04 #@! TA.AperFunction,Conductor*
G36*
X178569075Y-146047007D02*
G01*
X178535000Y-146174174D01*
X178535000Y-146305826D01*
X178569075Y-146432993D01*
X178601988Y-146490000D01*
X176928012Y-146490000D01*
X176960925Y-146432993D01*
X176995000Y-146305826D01*
X176995000Y-146174174D01*
X176960925Y-146047007D01*
X176928012Y-145990000D01*
X178601988Y-145990000D01*
X178569075Y-146047007D01*
G37*
G04 #@! TD.AperFunction*
G04 #@! TA.AperFunction,Conductor*
G36*
X181109075Y-146047007D02*
G01*
X181075000Y-146174174D01*
X181075000Y-146305826D01*
X181109075Y-146432993D01*
X181141988Y-146490000D01*
X179468012Y-146490000D01*
X179500925Y-146432993D01*
X179535000Y-146305826D01*
X179535000Y-146174174D01*
X179500925Y-146047007D01*
X179468012Y-145990000D01*
X181141988Y-145990000D01*
X181109075Y-146047007D01*
G37*
G04 #@! TD.AperFunction*
G04 #@! TA.AperFunction,Conductor*
G36*
X183649075Y-146047007D02*
G01*
X183615000Y-146174174D01*
X183615000Y-146305826D01*
X183649075Y-146432993D01*
X183681988Y-146490000D01*
X182008012Y-146490000D01*
X182040925Y-146432993D01*
X182075000Y-146305826D01*
X182075000Y-146174174D01*
X182040925Y-146047007D01*
X182008012Y-145990000D01*
X183681988Y-145990000D01*
X183649075Y-146047007D01*
G37*
G04 #@! TD.AperFunction*
G04 #@! TA.AperFunction,Conductor*
G36*
X174205000Y-145806988D02*
G01*
X174147993Y-145774075D01*
X174020826Y-145740000D01*
X173889174Y-145740000D01*
X173762007Y-145774075D01*
X173705000Y-145806988D01*
X173705000Y-144133012D01*
X173762007Y-144165925D01*
X173889174Y-144200000D01*
X174020826Y-144200000D01*
X174147993Y-144165925D01*
X174205000Y-144133012D01*
X174205000Y-145806988D01*
G37*
G04 #@! TD.AperFunction*
G04 #@! TA.AperFunction,Conductor*
G36*
X176745000Y-145806988D02*
G01*
X176687993Y-145774075D01*
X176560826Y-145740000D01*
X176429174Y-145740000D01*
X176302007Y-145774075D01*
X176245000Y-145806988D01*
X176245000Y-144133012D01*
X176302007Y-144165925D01*
X176429174Y-144200000D01*
X176560826Y-144200000D01*
X176687993Y-144165925D01*
X176745000Y-144133012D01*
X176745000Y-145806988D01*
G37*
G04 #@! TD.AperFunction*
G04 #@! TA.AperFunction,Conductor*
G36*
X179285000Y-145806988D02*
G01*
X179227993Y-145774075D01*
X179100826Y-145740000D01*
X178969174Y-145740000D01*
X178842007Y-145774075D01*
X178785000Y-145806988D01*
X178785000Y-144133012D01*
X178842007Y-144165925D01*
X178969174Y-144200000D01*
X179100826Y-144200000D01*
X179227993Y-144165925D01*
X179285000Y-144133012D01*
X179285000Y-145806988D01*
G37*
G04 #@! TD.AperFunction*
G04 #@! TA.AperFunction,Conductor*
G36*
X181825000Y-145806988D02*
G01*
X181767993Y-145774075D01*
X181640826Y-145740000D01*
X181509174Y-145740000D01*
X181382007Y-145774075D01*
X181325000Y-145806988D01*
X181325000Y-144133012D01*
X181382007Y-144165925D01*
X181509174Y-144200000D01*
X181640826Y-144200000D01*
X181767993Y-144165925D01*
X181825000Y-144133012D01*
X181825000Y-145806988D01*
G37*
G04 #@! TD.AperFunction*
G04 #@! TA.AperFunction,Conductor*
G36*
X184365000Y-145806988D02*
G01*
X184307993Y-145774075D01*
X184180826Y-145740000D01*
X184049174Y-145740000D01*
X183922007Y-145774075D01*
X183865000Y-145806988D01*
X183865000Y-144133012D01*
X183922007Y-144165925D01*
X184049174Y-144200000D01*
X184180826Y-144200000D01*
X184307993Y-144165925D01*
X184365000Y-144133012D01*
X184365000Y-145806988D01*
G37*
G04 #@! TD.AperFunction*
G04 #@! TA.AperFunction,Conductor*
G36*
X176029075Y-143507007D02*
G01*
X175995000Y-143634174D01*
X175995000Y-143765826D01*
X176029075Y-143892993D01*
X176061988Y-143950000D01*
X174388012Y-143950000D01*
X174420925Y-143892993D01*
X174455000Y-143765826D01*
X174455000Y-143634174D01*
X174420925Y-143507007D01*
X174388012Y-143450000D01*
X176061988Y-143450000D01*
X176029075Y-143507007D01*
G37*
G04 #@! TD.AperFunction*
G04 #@! TA.AperFunction,Conductor*
G36*
X178569075Y-143507007D02*
G01*
X178535000Y-143634174D01*
X178535000Y-143765826D01*
X178569075Y-143892993D01*
X178601988Y-143950000D01*
X176928012Y-143950000D01*
X176960925Y-143892993D01*
X176995000Y-143765826D01*
X176995000Y-143634174D01*
X176960925Y-143507007D01*
X176928012Y-143450000D01*
X178601988Y-143450000D01*
X178569075Y-143507007D01*
G37*
G04 #@! TD.AperFunction*
G04 #@! TA.AperFunction,Conductor*
G36*
X181109075Y-143507007D02*
G01*
X181075000Y-143634174D01*
X181075000Y-143765826D01*
X181109075Y-143892993D01*
X181141988Y-143950000D01*
X179468012Y-143950000D01*
X179500925Y-143892993D01*
X179535000Y-143765826D01*
X179535000Y-143634174D01*
X179500925Y-143507007D01*
X179468012Y-143450000D01*
X181141988Y-143450000D01*
X181109075Y-143507007D01*
G37*
G04 #@! TD.AperFunction*
G04 #@! TA.AperFunction,Conductor*
G36*
X183649075Y-143507007D02*
G01*
X183615000Y-143634174D01*
X183615000Y-143765826D01*
X183649075Y-143892993D01*
X183681988Y-143950000D01*
X182008012Y-143950000D01*
X182040925Y-143892993D01*
X182075000Y-143765826D01*
X182075000Y-143634174D01*
X182040925Y-143507007D01*
X182008012Y-143450000D01*
X183681988Y-143450000D01*
X183649075Y-143507007D01*
G37*
G04 #@! TD.AperFunction*
G04 #@! TA.AperFunction,Conductor*
G36*
X232326175Y-104869685D02*
G01*
X232360262Y-104902241D01*
X232518385Y-105125094D01*
X232525778Y-105136860D01*
X232679040Y-105414166D01*
X232685073Y-105426694D01*
X232715561Y-105500298D01*
X232725000Y-105547751D01*
X232725000Y-147826000D01*
X232705315Y-147893039D01*
X232652511Y-147938794D01*
X232601000Y-147950000D01*
X168851362Y-147950000D01*
X168784323Y-147930315D01*
X168763681Y-147913681D01*
X168511319Y-147661319D01*
X168477834Y-147599996D01*
X168475000Y-147573638D01*
X168475000Y-143449999D01*
X172624364Y-143449999D01*
X172624364Y-143450000D01*
X173521988Y-143450000D01*
X173489075Y-143507007D01*
X173455000Y-143634174D01*
X173455000Y-143765826D01*
X173489075Y-143892993D01*
X173521988Y-143950000D01*
X172624364Y-143950000D01*
X172681567Y-144163486D01*
X172681570Y-144163492D01*
X172781399Y-144377578D01*
X172916894Y-144571082D01*
X173083917Y-144738105D01*
X173270031Y-144868425D01*
X173313656Y-144923003D01*
X173320848Y-144992501D01*
X173289326Y-145054856D01*
X173270031Y-145071575D01*
X173083922Y-145201890D01*
X173083920Y-145201891D01*
X172916891Y-145368920D01*
X172916886Y-145368926D01*
X172781400Y-145562420D01*
X172781399Y-145562422D01*
X172681570Y-145776507D01*
X172681567Y-145776513D01*
X172624364Y-145989999D01*
X172624364Y-145990000D01*
X173521988Y-145990000D01*
X173489075Y-146047007D01*
X173455000Y-146174174D01*
X173455000Y-146305826D01*
X173489075Y-146432993D01*
X173521988Y-146490000D01*
X172624364Y-146490000D01*
X172681567Y-146703486D01*
X172681570Y-146703492D01*
X172781399Y-146917578D01*
X172916894Y-147111082D01*
X173083917Y-147278105D01*
X173277421Y-147413600D01*
X173491507Y-147513429D01*
X173491516Y-147513433D01*
X173705000Y-147570634D01*
X173705000Y-146673012D01*
X173762007Y-146705925D01*
X173889174Y-146740000D01*
X174020826Y-146740000D01*
X174147993Y-146705925D01*
X174205000Y-146673012D01*
X174205000Y-147570633D01*
X174418483Y-147513433D01*
X174418492Y-147513429D01*
X174632578Y-147413600D01*
X174826082Y-147278105D01*
X174993105Y-147111082D01*
X175123425Y-146924968D01*
X175178002Y-146881344D01*
X175247501Y-146874151D01*
X175309855Y-146905673D01*
X175326575Y-146924968D01*
X175456894Y-147111082D01*
X175623917Y-147278105D01*
X175817421Y-147413600D01*
X176031507Y-147513429D01*
X176031516Y-147513433D01*
X176245000Y-147570634D01*
X176245000Y-146673012D01*
X176302007Y-146705925D01*
X176429174Y-146740000D01*
X176560826Y-146740000D01*
X176687993Y-146705925D01*
X176745000Y-146673012D01*
X176745000Y-147570633D01*
X176958483Y-147513433D01*
X176958492Y-147513429D01*
X177172578Y-147413600D01*
X177366082Y-147278105D01*
X177533105Y-147111082D01*
X177663425Y-146924968D01*
X177718002Y-146881344D01*
X177787501Y-146874151D01*
X177849855Y-146905673D01*
X177866575Y-146924968D01*
X177996894Y-147111082D01*
X178163917Y-147278105D01*
X178357421Y-147413600D01*
X178571507Y-147513429D01*
X178571516Y-147513433D01*
X178785000Y-147570634D01*
X178785000Y-146673012D01*
X178842007Y-146705925D01*
X178969174Y-146740000D01*
X179100826Y-146740000D01*
X179227993Y-146705925D01*
X179285000Y-146673012D01*
X179285000Y-147570633D01*
X179498483Y-147513433D01*
X179498492Y-147513429D01*
X179712578Y-147413600D01*
X179906082Y-147278105D01*
X180073105Y-147111082D01*
X180203425Y-146924968D01*
X180258002Y-146881344D01*
X180327501Y-146874151D01*
X180389855Y-146905673D01*
X180406575Y-146924968D01*
X180536894Y-147111082D01*
X180703917Y-147278105D01*
X180897421Y-147413600D01*
X181111507Y-147513429D01*
X181111516Y-147513433D01*
X181325000Y-147570634D01*
X181325000Y-146673012D01*
X181382007Y-146705925D01*
X181509174Y-146740000D01*
X181640826Y-146740000D01*
X181767993Y-146705925D01*
X181825000Y-146673012D01*
X181825000Y-147570633D01*
X182038483Y-147513433D01*
X182038492Y-147513429D01*
X182252578Y-147413600D01*
X182446078Y-147278108D01*
X182568521Y-147155665D01*
X182629844Y-147122180D01*
X182699536Y-147127164D01*
X182755470Y-147169035D01*
X182772385Y-147200013D01*
X182821645Y-147332086D01*
X182821649Y-147332093D01*
X182907809Y-147447187D01*
X182907812Y-147447190D01*
X183022906Y-147533350D01*
X183022913Y-147533354D01*
X183157620Y-147583596D01*
X183157627Y-147583598D01*
X183217155Y-147589999D01*
X183217172Y-147590000D01*
X183865000Y-147590000D01*
X183865000Y-146673012D01*
X183922007Y-146705925D01*
X184049174Y-146740000D01*
X184180826Y-146740000D01*
X184307993Y-146705925D01*
X184365000Y-146673012D01*
X184365000Y-147590000D01*
X185012828Y-147590000D01*
X185012844Y-147589999D01*
X185072372Y-147583598D01*
X185072379Y-147583596D01*
X185207086Y-147533354D01*
X185207093Y-147533350D01*
X185322187Y-147447190D01*
X185322190Y-147447187D01*
X185408350Y-147332093D01*
X185408354Y-147332086D01*
X185458596Y-147197379D01*
X185458598Y-147197372D01*
X185464999Y-147137844D01*
X185465000Y-147137827D01*
X185465000Y-146490000D01*
X184548012Y-146490000D01*
X184580925Y-146432993D01*
X184615000Y-146305826D01*
X184615000Y-146174174D01*
X184580925Y-146047007D01*
X184548012Y-145990000D01*
X185465000Y-145990000D01*
X185465000Y-145342172D01*
X185464999Y-145342155D01*
X185458598Y-145282627D01*
X185458596Y-145282620D01*
X185408354Y-145147913D01*
X185408350Y-145147906D01*
X185322190Y-145032812D01*
X185322187Y-145032809D01*
X185207093Y-144946649D01*
X185207086Y-144946645D01*
X185075013Y-144897385D01*
X185019079Y-144855514D01*
X184994662Y-144790049D01*
X185009514Y-144721776D01*
X185030665Y-144693521D01*
X185153108Y-144571078D01*
X185288600Y-144377578D01*
X185388429Y-144163492D01*
X185388432Y-144163486D01*
X185445636Y-143950000D01*
X184548012Y-143950000D01*
X184580925Y-143892993D01*
X184615000Y-143765826D01*
X184615000Y-143634174D01*
X184580925Y-143507007D01*
X184548012Y-143450000D01*
X185445636Y-143450000D01*
X185445635Y-143449999D01*
X185388432Y-143236513D01*
X185388429Y-143236507D01*
X185288600Y-143022422D01*
X185288599Y-143022420D01*
X185153113Y-142828926D01*
X185153108Y-142828920D01*
X184986082Y-142661894D01*
X184792578Y-142526399D01*
X184578492Y-142426570D01*
X184578486Y-142426567D01*
X184365000Y-142369364D01*
X184365000Y-143266988D01*
X184307993Y-143234075D01*
X184180826Y-143200000D01*
X184049174Y-143200000D01*
X183922007Y-143234075D01*
X183865000Y-143266988D01*
X183865000Y-142369364D01*
X183864999Y-142369364D01*
X183651513Y-142426567D01*
X183651507Y-142426570D01*
X183437422Y-142526399D01*
X183437420Y-142526400D01*
X183243926Y-142661886D01*
X183243920Y-142661891D01*
X183076891Y-142828920D01*
X183076890Y-142828922D01*
X182946575Y-143015031D01*
X182891998Y-143058655D01*
X182822499Y-143065848D01*
X182760145Y-143034326D01*
X182743425Y-143015031D01*
X182613109Y-142828922D01*
X182613108Y-142828920D01*
X182446082Y-142661894D01*
X182252578Y-142526399D01*
X182038492Y-142426570D01*
X182038486Y-142426567D01*
X181825000Y-142369364D01*
X181825000Y-143266988D01*
X181767993Y-143234075D01*
X181640826Y-143200000D01*
X181509174Y-143200000D01*
X181382007Y-143234075D01*
X181325000Y-143266988D01*
X181325000Y-142369364D01*
X181324999Y-142369364D01*
X181111513Y-142426567D01*
X181111507Y-142426570D01*
X180897422Y-142526399D01*
X180897420Y-142526400D01*
X180703926Y-142661886D01*
X180703920Y-142661891D01*
X180536891Y-142828920D01*
X180536890Y-142828922D01*
X180406575Y-143015031D01*
X180351998Y-143058655D01*
X180282499Y-143065848D01*
X180220145Y-143034326D01*
X180203425Y-143015031D01*
X180073109Y-142828922D01*
X180073108Y-142828920D01*
X179906082Y-142661894D01*
X179712578Y-142526399D01*
X179498492Y-142426570D01*
X179498486Y-142426567D01*
X179285000Y-142369364D01*
X179285000Y-143266988D01*
X179227993Y-143234075D01*
X179100826Y-143200000D01*
X178969174Y-143200000D01*
X178842007Y-143234075D01*
X178785000Y-143266988D01*
X178785000Y-142369364D01*
X178784999Y-142369364D01*
X178571513Y-142426567D01*
X178571507Y-142426570D01*
X178357422Y-142526399D01*
X178357420Y-142526400D01*
X178163926Y-142661886D01*
X178163920Y-142661891D01*
X177996891Y-142828920D01*
X177996890Y-142828922D01*
X177866575Y-143015031D01*
X177811998Y-143058655D01*
X177742499Y-143065848D01*
X177680145Y-143034326D01*
X177663425Y-143015031D01*
X177533109Y-142828922D01*
X177533108Y-142828920D01*
X177366082Y-142661894D01*
X177172578Y-142526399D01*
X176958492Y-142426570D01*
X176958486Y-142426567D01*
X176745000Y-142369364D01*
X176745000Y-143266988D01*
X176687993Y-143234075D01*
X176560826Y-143200000D01*
X176429174Y-143200000D01*
X176302007Y-143234075D01*
X176245000Y-143266988D01*
X176245000Y-142369364D01*
X176244999Y-142369364D01*
X176031513Y-142426567D01*
X176031507Y-142426570D01*
X175817422Y-142526399D01*
X175817420Y-142526400D01*
X175623926Y-142661886D01*
X175623920Y-142661891D01*
X175456891Y-142828920D01*
X175456890Y-142828922D01*
X175326575Y-143015031D01*
X175271998Y-143058655D01*
X175202499Y-143065848D01*
X175140145Y-143034326D01*
X175123425Y-143015031D01*
X174993109Y-142828922D01*
X174993108Y-142828920D01*
X174826082Y-142661894D01*
X174632578Y-142526399D01*
X174418492Y-142426570D01*
X174418486Y-142426567D01*
X174205000Y-142369364D01*
X174205000Y-143266988D01*
X174147993Y-143234075D01*
X174020826Y-143200000D01*
X173889174Y-143200000D01*
X173762007Y-143234075D01*
X173705000Y-143266988D01*
X173705000Y-142369364D01*
X173704999Y-142369364D01*
X173491513Y-142426567D01*
X173491507Y-142426570D01*
X173277422Y-142526399D01*
X173277420Y-142526400D01*
X173083926Y-142661886D01*
X173083920Y-142661891D01*
X172916891Y-142828920D01*
X172916886Y-142828926D01*
X172781400Y-143022420D01*
X172781399Y-143022422D01*
X172681570Y-143236507D01*
X172681567Y-143236513D01*
X172624364Y-143449999D01*
X168475000Y-143449999D01*
X168475000Y-139890000D01*
X172899417Y-139890000D01*
X172919699Y-140095932D01*
X172919700Y-140095934D01*
X172979768Y-140293954D01*
X173077315Y-140476450D01*
X173077317Y-140476452D01*
X173208589Y-140636410D01*
X173305209Y-140715702D01*
X173368550Y-140767685D01*
X173551046Y-140865232D01*
X173749066Y-140925300D01*
X173749065Y-140925300D01*
X173767529Y-140927118D01*
X173955000Y-140945583D01*
X174160934Y-140925300D01*
X174358954Y-140865232D01*
X174541450Y-140767685D01*
X174701410Y-140636410D01*
X174832685Y-140476450D01*
X174930232Y-140293954D01*
X174990300Y-140095934D01*
X175010583Y-139890000D01*
X175439417Y-139890000D01*
X175459699Y-140095932D01*
X175459700Y-140095934D01*
X175519768Y-140293954D01*
X175617315Y-140476450D01*
X175617317Y-140476452D01*
X175748589Y-140636410D01*
X175845209Y-140715702D01*
X175908550Y-140767685D01*
X176091046Y-140865232D01*
X176289066Y-140925300D01*
X176289065Y-140925300D01*
X176307529Y-140927118D01*
X176495000Y-140945583D01*
X176700934Y-140925300D01*
X176898954Y-140865232D01*
X177081450Y-140767685D01*
X177241410Y-140636410D01*
X177372685Y-140476450D01*
X177470232Y-140293954D01*
X177530300Y-140095934D01*
X177550583Y-139890000D01*
X177979417Y-139890000D01*
X177999699Y-140095932D01*
X177999700Y-140095934D01*
X178059768Y-140293954D01*
X178157315Y-140476450D01*
X178157317Y-140476452D01*
X178288589Y-140636410D01*
X178385209Y-140715702D01*
X178448550Y-140767685D01*
X178631046Y-140865232D01*
X178829066Y-140925300D01*
X178829065Y-140925300D01*
X178847529Y-140927118D01*
X179035000Y-140945583D01*
X179240934Y-140925300D01*
X179438954Y-140865232D01*
X179621450Y-140767685D01*
X179781410Y-140636410D01*
X179912685Y-140476450D01*
X180010232Y-140293954D01*
X180070300Y-140095934D01*
X180090583Y-139890000D01*
X180519417Y-139890000D01*
X180539699Y-140095932D01*
X180539700Y-140095934D01*
X180599768Y-140293954D01*
X180697315Y-140476450D01*
X180697317Y-140476452D01*
X180828589Y-140636410D01*
X180925209Y-140715702D01*
X180988550Y-140767685D01*
X181171046Y-140865232D01*
X181369066Y-140925300D01*
X181369065Y-140925300D01*
X181387529Y-140927118D01*
X181575000Y-140945583D01*
X181780934Y-140925300D01*
X181978954Y-140865232D01*
X182161450Y-140767685D01*
X182321410Y-140636410D01*
X182452685Y-140476450D01*
X182550232Y-140293954D01*
X182610300Y-140095934D01*
X182630583Y-139890000D01*
X182610300Y-139684066D01*
X182550232Y-139486046D01*
X182452685Y-139303550D01*
X182367893Y-139200230D01*
X182321410Y-139143589D01*
X182171121Y-139020252D01*
X182171115Y-139020247D01*
X183064500Y-139020247D01*
X183064500Y-140759752D01*
X183076131Y-140818229D01*
X183076132Y-140818230D01*
X183120447Y-140884552D01*
X183186769Y-140928867D01*
X183186770Y-140928868D01*
X183245247Y-140940499D01*
X183245250Y-140940500D01*
X183245252Y-140940500D01*
X184984750Y-140940500D01*
X184984751Y-140940499D01*
X184999568Y-140937552D01*
X185043229Y-140928868D01*
X185043229Y-140928867D01*
X185043231Y-140928867D01*
X185109552Y-140884552D01*
X185153867Y-140818231D01*
X185153867Y-140818229D01*
X185153868Y-140818229D01*
X185165499Y-140759752D01*
X185165500Y-140759750D01*
X185165500Y-139020249D01*
X185165499Y-139020247D01*
X185153868Y-138961770D01*
X185153867Y-138961769D01*
X185109552Y-138895447D01*
X185043230Y-138851132D01*
X185043229Y-138851131D01*
X184984752Y-138839500D01*
X184984748Y-138839500D01*
X183245252Y-138839500D01*
X183245247Y-138839500D01*
X183186770Y-138851131D01*
X183186769Y-138851132D01*
X183120447Y-138895447D01*
X183076132Y-138961769D01*
X183076131Y-138961770D01*
X183064500Y-139020247D01*
X182171115Y-139020247D01*
X182161450Y-139012315D01*
X181978954Y-138914768D01*
X181780934Y-138854700D01*
X181780932Y-138854699D01*
X181780934Y-138854699D01*
X181575000Y-138834417D01*
X181369067Y-138854699D01*
X181171043Y-138914769D01*
X181083114Y-138961769D01*
X180988550Y-139012315D01*
X180988548Y-139012316D01*
X180988547Y-139012317D01*
X180828589Y-139143589D01*
X180697317Y-139303547D01*
X180599769Y-139486043D01*
X180539699Y-139684067D01*
X180519417Y-139890000D01*
X180090583Y-139890000D01*
X180070300Y-139684066D01*
X180010232Y-139486046D01*
X179912685Y-139303550D01*
X179827893Y-139200230D01*
X179781410Y-139143589D01*
X179631121Y-139020252D01*
X179621450Y-139012315D01*
X179438954Y-138914768D01*
X179240934Y-138854700D01*
X179240932Y-138854699D01*
X179240934Y-138854699D01*
X179035000Y-138834417D01*
X178829067Y-138854699D01*
X178631043Y-138914769D01*
X178543114Y-138961769D01*
X178448550Y-139012315D01*
X178448548Y-139012316D01*
X178448547Y-139012317D01*
X178288589Y-139143589D01*
X178157317Y-139303547D01*
X178059769Y-139486043D01*
X177999699Y-139684067D01*
X177979417Y-139890000D01*
X177550583Y-139890000D01*
X177530300Y-139684066D01*
X177470232Y-139486046D01*
X177372685Y-139303550D01*
X177287893Y-139200230D01*
X177241410Y-139143589D01*
X177091121Y-139020252D01*
X177081450Y-139012315D01*
X176898954Y-138914768D01*
X176700934Y-138854700D01*
X176700932Y-138854699D01*
X176700934Y-138854699D01*
X176495000Y-138834417D01*
X176289067Y-138854699D01*
X176091043Y-138914769D01*
X176003114Y-138961769D01*
X175908550Y-139012315D01*
X175908548Y-139012316D01*
X175908547Y-139012317D01*
X175748589Y-139143589D01*
X175617317Y-139303547D01*
X175519769Y-139486043D01*
X175459699Y-139684067D01*
X175439417Y-139890000D01*
X175010583Y-139890000D01*
X174990300Y-139684066D01*
X174930232Y-139486046D01*
X174832685Y-139303550D01*
X174747893Y-139200230D01*
X174701410Y-139143589D01*
X174551121Y-139020252D01*
X174541450Y-139012315D01*
X174358954Y-138914768D01*
X174160934Y-138854700D01*
X174160932Y-138854699D01*
X174160934Y-138854699D01*
X173955000Y-138834417D01*
X173749067Y-138854699D01*
X173551043Y-138914769D01*
X173463114Y-138961769D01*
X173368550Y-139012315D01*
X173368548Y-139012316D01*
X173368547Y-139012317D01*
X173208589Y-139143589D01*
X173077317Y-139303547D01*
X172979769Y-139486043D01*
X172919699Y-139684067D01*
X172899417Y-139890000D01*
X168475000Y-139890000D01*
X168475000Y-137350000D01*
X172899417Y-137350000D01*
X172919699Y-137555932D01*
X172940651Y-137625000D01*
X172979768Y-137753954D01*
X173077315Y-137936450D01*
X173077317Y-137936452D01*
X173208589Y-138096410D01*
X173243427Y-138125000D01*
X173368550Y-138227685D01*
X173551046Y-138325232D01*
X173749066Y-138385300D01*
X173749065Y-138385300D01*
X173767529Y-138387118D01*
X173955000Y-138405583D01*
X174160934Y-138385300D01*
X174358954Y-138325232D01*
X174377831Y-138315142D01*
X174436285Y-138300500D01*
X176013715Y-138300500D01*
X176072169Y-138315142D01*
X176091046Y-138325232D01*
X176289066Y-138385300D01*
X176289065Y-138385300D01*
X176307529Y-138387118D01*
X176495000Y-138405583D01*
X176700934Y-138385300D01*
X176898954Y-138325232D01*
X176917831Y-138315142D01*
X176976285Y-138300500D01*
X178553715Y-138300500D01*
X178612169Y-138315142D01*
X178631046Y-138325232D01*
X178829066Y-138385300D01*
X178829065Y-138385300D01*
X178847529Y-138387118D01*
X179035000Y-138405583D01*
X179240934Y-138385300D01*
X179438954Y-138325232D01*
X179457831Y-138315142D01*
X179516285Y-138300500D01*
X181093715Y-138300500D01*
X181152169Y-138315142D01*
X181171046Y-138325232D01*
X181369066Y-138385300D01*
X181369065Y-138385300D01*
X181387529Y-138387118D01*
X181575000Y-138405583D01*
X181780934Y-138385300D01*
X181978954Y-138325232D01*
X181997831Y-138315142D01*
X182056285Y-138300500D01*
X183633715Y-138300500D01*
X183692169Y-138315142D01*
X183711046Y-138325232D01*
X183909066Y-138385300D01*
X183909065Y-138385300D01*
X183927529Y-138387118D01*
X184115000Y-138405583D01*
X184320934Y-138385300D01*
X184518954Y-138325232D01*
X184701450Y-138227685D01*
X184761205Y-138178646D01*
X184825515Y-138151334D01*
X184839869Y-138150500D01*
X188035500Y-138150500D01*
X188102539Y-138170185D01*
X188148294Y-138222989D01*
X188159500Y-138274500D01*
X188159500Y-138494752D01*
X188171131Y-138553229D01*
X188171132Y-138553230D01*
X188215447Y-138619552D01*
X188281769Y-138663867D01*
X188281770Y-138663868D01*
X188340247Y-138675499D01*
X188340250Y-138675500D01*
X188340252Y-138675500D01*
X188345500Y-138675500D01*
X188412539Y-138695185D01*
X188458294Y-138747989D01*
X188469500Y-138799500D01*
X188469500Y-140483961D01*
X188449815Y-140551000D01*
X188397011Y-140596755D01*
X188369692Y-140605578D01*
X188341770Y-140611132D01*
X188341769Y-140611132D01*
X188275447Y-140655447D01*
X188231132Y-140721769D01*
X188231131Y-140721770D01*
X188219500Y-140780247D01*
X188219500Y-142519752D01*
X188231131Y-142578229D01*
X188231132Y-142578230D01*
X188275447Y-142644552D01*
X188341769Y-142688867D01*
X188341770Y-142688868D01*
X188400247Y-142700499D01*
X188400250Y-142700500D01*
X188400252Y-142700500D01*
X190139750Y-142700500D01*
X190139751Y-142700499D01*
X190154568Y-142697552D01*
X190198229Y-142688868D01*
X190198229Y-142688867D01*
X190198231Y-142688867D01*
X190264552Y-142644552D01*
X190308867Y-142578231D01*
X190308867Y-142578229D01*
X190308868Y-142578229D01*
X190319177Y-142526399D01*
X190320500Y-142519748D01*
X190320500Y-141650000D01*
X190754417Y-141650000D01*
X190774699Y-141855932D01*
X190774700Y-141855934D01*
X190834768Y-142053954D01*
X190932315Y-142236450D01*
X190932317Y-142236452D01*
X191063589Y-142396410D01*
X191100340Y-142426570D01*
X191223550Y-142527685D01*
X191406046Y-142625232D01*
X191604066Y-142685300D01*
X191604065Y-142685300D01*
X191622529Y-142687118D01*
X191810000Y-142705583D01*
X192015934Y-142685300D01*
X192213954Y-142625232D01*
X192396450Y-142527685D01*
X192556410Y-142396410D01*
X192687685Y-142236450D01*
X192785232Y-142053954D01*
X192805406Y-141987446D01*
X192843702Y-141929010D01*
X192907514Y-141900553D01*
X192976581Y-141911112D01*
X193028975Y-141957336D01*
X193043841Y-141991349D01*
X193076567Y-142113486D01*
X193076570Y-142113492D01*
X193176399Y-142327578D01*
X193311894Y-142521082D01*
X193478917Y-142688105D01*
X193672421Y-142823600D01*
X193886507Y-142923429D01*
X193886516Y-142923433D01*
X194100000Y-142980634D01*
X194100000Y-142083012D01*
X194157007Y-142115925D01*
X194284174Y-142150000D01*
X194415826Y-142150000D01*
X194542993Y-142115925D01*
X194600000Y-142083012D01*
X194600000Y-142980633D01*
X194813483Y-142923433D01*
X194813492Y-142923429D01*
X195027578Y-142823600D01*
X195221082Y-142688105D01*
X195388105Y-142521082D01*
X195523600Y-142327578D01*
X195623429Y-142113492D01*
X195623433Y-142113483D01*
X195656158Y-141991350D01*
X195692522Y-141931690D01*
X195755369Y-141901160D01*
X195824745Y-141909454D01*
X195878623Y-141953939D01*
X195894593Y-141987447D01*
X195914768Y-142053954D01*
X196012315Y-142236450D01*
X196012317Y-142236452D01*
X196143589Y-142396410D01*
X196180340Y-142426570D01*
X196303550Y-142527685D01*
X196486046Y-142625232D01*
X196684066Y-142685300D01*
X196684065Y-142685300D01*
X196702529Y-142687118D01*
X196890000Y-142705583D01*
X197095934Y-142685300D01*
X197293954Y-142625232D01*
X197476450Y-142527685D01*
X197636410Y-142396410D01*
X197767685Y-142236450D01*
X197865232Y-142053954D01*
X197925300Y-141855934D01*
X197945583Y-141650000D01*
X198374417Y-141650000D01*
X198394699Y-141855932D01*
X198394700Y-141855934D01*
X198454768Y-142053954D01*
X198552315Y-142236450D01*
X198552317Y-142236452D01*
X198683589Y-142396410D01*
X198720340Y-142426570D01*
X198843550Y-142527685D01*
X199026046Y-142625232D01*
X199224066Y-142685300D01*
X199224065Y-142685300D01*
X199242529Y-142687118D01*
X199430000Y-142705583D01*
X199635934Y-142685300D01*
X199833954Y-142625232D01*
X200016450Y-142527685D01*
X200176410Y-142396410D01*
X200307685Y-142236450D01*
X200405232Y-142053954D01*
X200465300Y-141855934D01*
X200485583Y-141650000D01*
X200914417Y-141650000D01*
X200934699Y-141855932D01*
X200934700Y-141855934D01*
X200994768Y-142053954D01*
X201092315Y-142236450D01*
X201092317Y-142236452D01*
X201223589Y-142396410D01*
X201260340Y-142426570D01*
X201383550Y-142527685D01*
X201566046Y-142625232D01*
X201764066Y-142685300D01*
X201764065Y-142685300D01*
X201782529Y-142687118D01*
X201970000Y-142705583D01*
X202175934Y-142685300D01*
X202373954Y-142625232D01*
X202556450Y-142527685D01*
X202716410Y-142396410D01*
X202847685Y-142236450D01*
X202945232Y-142053954D01*
X203005300Y-141855934D01*
X203025583Y-141650000D01*
X203454417Y-141650000D01*
X203474699Y-141855932D01*
X203474700Y-141855934D01*
X203534768Y-142053954D01*
X203632315Y-142236450D01*
X203632317Y-142236452D01*
X203763589Y-142396410D01*
X203800340Y-142426570D01*
X203923550Y-142527685D01*
X204106046Y-142625232D01*
X204304066Y-142685300D01*
X204304065Y-142685300D01*
X204322529Y-142687118D01*
X204510000Y-142705583D01*
X204715934Y-142685300D01*
X204913954Y-142625232D01*
X205096450Y-142527685D01*
X205256410Y-142396410D01*
X205387685Y-142236450D01*
X205485232Y-142053954D01*
X205545300Y-141855934D01*
X205565583Y-141650000D01*
X205994417Y-141650000D01*
X206014699Y-141855932D01*
X206014700Y-141855934D01*
X206074768Y-142053954D01*
X206172315Y-142236450D01*
X206172317Y-142236452D01*
X206303589Y-142396410D01*
X206340340Y-142426570D01*
X206463550Y-142527685D01*
X206646046Y-142625232D01*
X206844066Y-142685300D01*
X206844065Y-142685300D01*
X206862529Y-142687118D01*
X207050000Y-142705583D01*
X207255934Y-142685300D01*
X207453954Y-142625232D01*
X207636450Y-142527685D01*
X207796410Y-142396410D01*
X207927685Y-142236450D01*
X208025232Y-142053954D01*
X208085300Y-141855934D01*
X208105583Y-141650000D01*
X208085300Y-141444066D01*
X208025232Y-141246046D01*
X207927685Y-141063550D01*
X207852897Y-140972420D01*
X207796410Y-140903589D01*
X207646121Y-140780252D01*
X207636450Y-140772315D01*
X207622765Y-140765000D01*
X213999417Y-140765000D01*
X214019699Y-140970932D01*
X214047794Y-141063550D01*
X214079768Y-141168954D01*
X214177315Y-141351450D01*
X214177317Y-141351452D01*
X214308589Y-141511410D01*
X214397254Y-141584174D01*
X214468550Y-141642685D01*
X214651046Y-141740232D01*
X214849066Y-141800300D01*
X214849065Y-141800300D01*
X214867529Y-141802118D01*
X215055000Y-141820583D01*
X215260934Y-141800300D01*
X215458954Y-141740232D01*
X215641450Y-141642685D01*
X215801410Y-141511410D01*
X215932685Y-141351450D01*
X216030232Y-141168954D01*
X216090300Y-140970934D01*
X216110583Y-140765000D01*
X216539417Y-140765000D01*
X216559699Y-140970932D01*
X216587794Y-141063550D01*
X216619768Y-141168954D01*
X216717315Y-141351450D01*
X216717317Y-141351452D01*
X216848589Y-141511410D01*
X216937254Y-141584174D01*
X217008550Y-141642685D01*
X217191046Y-141740232D01*
X217389066Y-141800300D01*
X217389065Y-141800300D01*
X217407529Y-141802118D01*
X217595000Y-141820583D01*
X217800934Y-141800300D01*
X217998954Y-141740232D01*
X218181450Y-141642685D01*
X218341410Y-141511410D01*
X218472685Y-141351450D01*
X218570232Y-141168954D01*
X218630300Y-140970934D01*
X218650583Y-140765000D01*
X219079417Y-140765000D01*
X219099699Y-140970932D01*
X219127794Y-141063550D01*
X219159768Y-141168954D01*
X219257315Y-141351450D01*
X219257317Y-141351452D01*
X219388589Y-141511410D01*
X219477254Y-141584174D01*
X219548550Y-141642685D01*
X219731046Y-141740232D01*
X219929066Y-141800300D01*
X219929065Y-141800300D01*
X219947529Y-141802118D01*
X220135000Y-141820583D01*
X220340934Y-141800300D01*
X220538954Y-141740232D01*
X220721450Y-141642685D01*
X220881410Y-141511410D01*
X221012685Y-141351450D01*
X221110232Y-141168954D01*
X221170300Y-140970934D01*
X221190583Y-140765000D01*
X221619417Y-140765000D01*
X221639699Y-140970932D01*
X221667794Y-141063550D01*
X221699768Y-141168954D01*
X221797315Y-141351450D01*
X221797317Y-141351452D01*
X221928589Y-141511410D01*
X222017254Y-141584174D01*
X222088550Y-141642685D01*
X222271046Y-141740232D01*
X222469066Y-141800300D01*
X222469065Y-141800300D01*
X222487529Y-141802118D01*
X222675000Y-141820583D01*
X222880934Y-141800300D01*
X223078954Y-141740232D01*
X223261450Y-141642685D01*
X223421410Y-141511410D01*
X223552685Y-141351450D01*
X223650232Y-141168954D01*
X223710300Y-140970934D01*
X223730583Y-140765000D01*
X223710300Y-140559066D01*
X223650232Y-140361046D01*
X223552685Y-140178550D01*
X223484883Y-140095932D01*
X223421410Y-140018589D01*
X223303677Y-139921969D01*
X223261450Y-139887315D01*
X223078954Y-139789768D01*
X222880934Y-139729700D01*
X222880932Y-139729699D01*
X222880934Y-139729699D01*
X222675000Y-139709417D01*
X222469067Y-139729699D01*
X222271043Y-139789769D01*
X222160898Y-139848643D01*
X222088550Y-139887315D01*
X222088548Y-139887316D01*
X222088547Y-139887317D01*
X221928589Y-140018589D01*
X221797317Y-140178547D01*
X221699769Y-140361043D01*
X221639699Y-140559067D01*
X221619417Y-140765000D01*
X221190583Y-140765000D01*
X221170300Y-140559066D01*
X221110232Y-140361046D01*
X221012685Y-140178550D01*
X220944883Y-140095932D01*
X220881410Y-140018589D01*
X220763677Y-139921969D01*
X220721450Y-139887315D01*
X220538954Y-139789768D01*
X220340934Y-139729700D01*
X220340932Y-139729699D01*
X220340934Y-139729699D01*
X220135000Y-139709417D01*
X219929067Y-139729699D01*
X219731043Y-139789769D01*
X219620898Y-139848643D01*
X219548550Y-139887315D01*
X219548548Y-139887316D01*
X219548547Y-139887317D01*
X219388589Y-140018589D01*
X219257317Y-140178547D01*
X219159769Y-140361043D01*
X219099699Y-140559067D01*
X219079417Y-140765000D01*
X218650583Y-140765000D01*
X218630300Y-140559066D01*
X218570232Y-140361046D01*
X218472685Y-140178550D01*
X218404883Y-140095932D01*
X218341410Y-140018589D01*
X218223677Y-139921969D01*
X218181450Y-139887315D01*
X217998954Y-139789768D01*
X217800934Y-139729700D01*
X217800932Y-139729699D01*
X217800934Y-139729699D01*
X217595000Y-139709417D01*
X217389067Y-139729699D01*
X217191043Y-139789769D01*
X217080898Y-139848643D01*
X217008550Y-139887315D01*
X217008548Y-139887316D01*
X217008547Y-139887317D01*
X216848589Y-140018589D01*
X216717317Y-140178547D01*
X216619769Y-140361043D01*
X216559699Y-140559067D01*
X216539417Y-140765000D01*
X216110583Y-140765000D01*
X216090300Y-140559066D01*
X216030232Y-140361046D01*
X215932685Y-140178550D01*
X215864883Y-140095932D01*
X215801410Y-140018589D01*
X215683677Y-139921969D01*
X215641450Y-139887315D01*
X215458954Y-139789768D01*
X215260934Y-139729700D01*
X215260932Y-139729699D01*
X215260934Y-139729699D01*
X215055000Y-139709417D01*
X214849067Y-139729699D01*
X214651043Y-139789769D01*
X214540898Y-139848643D01*
X214468550Y-139887315D01*
X214468548Y-139887316D01*
X214468547Y-139887317D01*
X214308589Y-140018589D01*
X214177317Y-140178547D01*
X214079769Y-140361043D01*
X214019699Y-140559067D01*
X213999417Y-140765000D01*
X207622765Y-140765000D01*
X207453954Y-140674768D01*
X207255934Y-140614700D01*
X207255932Y-140614699D01*
X207255934Y-140614699D01*
X207050000Y-140594417D01*
X206844067Y-140614699D01*
X206646043Y-140674769D01*
X206558114Y-140721769D01*
X206463550Y-140772315D01*
X206463548Y-140772316D01*
X206463547Y-140772317D01*
X206303589Y-140903589D01*
X206172317Y-141063547D01*
X206074769Y-141246043D01*
X206014699Y-141444067D01*
X205994417Y-141650000D01*
X205565583Y-141650000D01*
X205545300Y-141444066D01*
X205485232Y-141246046D01*
X205387685Y-141063550D01*
X205312897Y-140972420D01*
X205256410Y-140903589D01*
X205106121Y-140780252D01*
X205096450Y-140772315D01*
X204913954Y-140674768D01*
X204715934Y-140614700D01*
X204715932Y-140614699D01*
X204715934Y-140614699D01*
X204510000Y-140594417D01*
X204304067Y-140614699D01*
X204106043Y-140674769D01*
X204018114Y-140721769D01*
X203923550Y-140772315D01*
X203923548Y-140772316D01*
X203923547Y-140772317D01*
X203763589Y-140903589D01*
X203632317Y-141063547D01*
X203534769Y-141246043D01*
X203474699Y-141444067D01*
X203454417Y-141650000D01*
X203025583Y-141650000D01*
X203005300Y-141444066D01*
X202945232Y-141246046D01*
X202847685Y-141063550D01*
X202772897Y-140972420D01*
X202716410Y-140903589D01*
X202566121Y-140780252D01*
X202556450Y-140772315D01*
X202373954Y-140674768D01*
X202175934Y-140614700D01*
X202175932Y-140614699D01*
X202175934Y-140614699D01*
X201970000Y-140594417D01*
X201764067Y-140614699D01*
X201566043Y-140674769D01*
X201478114Y-140721769D01*
X201383550Y-140772315D01*
X201383548Y-140772316D01*
X201383547Y-140772317D01*
X201223589Y-140903589D01*
X201092317Y-141063547D01*
X200994769Y-141246043D01*
X200934699Y-141444067D01*
X200914417Y-141650000D01*
X200485583Y-141650000D01*
X200465300Y-141444066D01*
X200405232Y-141246046D01*
X200307685Y-141063550D01*
X200232897Y-140972420D01*
X200176410Y-140903589D01*
X200026121Y-140780252D01*
X200016450Y-140772315D01*
X199833954Y-140674768D01*
X199635934Y-140614700D01*
X199635932Y-140614699D01*
X199635934Y-140614699D01*
X199430000Y-140594417D01*
X199224067Y-140614699D01*
X199026043Y-140674769D01*
X198938114Y-140721769D01*
X198843550Y-140772315D01*
X198843548Y-140772316D01*
X198843547Y-140772317D01*
X198683589Y-140903589D01*
X198552317Y-141063547D01*
X198454769Y-141246043D01*
X198394699Y-141444067D01*
X198374417Y-141650000D01*
X197945583Y-141650000D01*
X197925300Y-141444066D01*
X197865232Y-141246046D01*
X197767685Y-141063550D01*
X197692897Y-140972420D01*
X197636410Y-140903589D01*
X197486121Y-140780252D01*
X197476450Y-140772315D01*
X197293954Y-140674768D01*
X197095934Y-140614700D01*
X197095932Y-140614699D01*
X197095934Y-140614699D01*
X196890000Y-140594417D01*
X196684067Y-140614699D01*
X196486043Y-140674769D01*
X196398114Y-140721769D01*
X196303550Y-140772315D01*
X196303548Y-140772316D01*
X196303547Y-140772317D01*
X196143589Y-140903589D01*
X196012317Y-141063547D01*
X195914767Y-141246046D01*
X195894593Y-141312552D01*
X195856296Y-141370990D01*
X195792483Y-141399447D01*
X195723416Y-141388886D01*
X195671023Y-141342661D01*
X195656158Y-141308649D01*
X195623433Y-141186516D01*
X195623429Y-141186507D01*
X195523600Y-140972422D01*
X195523599Y-140972420D01*
X195388113Y-140778926D01*
X195388108Y-140778920D01*
X195221082Y-140611894D01*
X195027578Y-140476399D01*
X194813492Y-140376570D01*
X194813486Y-140376567D01*
X194600000Y-140319364D01*
X194600000Y-141216988D01*
X194542993Y-141184075D01*
X194415826Y-141150000D01*
X194284174Y-141150000D01*
X194157007Y-141184075D01*
X194100000Y-141216988D01*
X194100000Y-140319364D01*
X194099999Y-140319364D01*
X193886513Y-140376567D01*
X193886507Y-140376570D01*
X193672422Y-140476399D01*
X193672420Y-140476400D01*
X193478926Y-140611886D01*
X193478920Y-140611891D01*
X193311891Y-140778920D01*
X193311886Y-140778926D01*
X193176400Y-140972420D01*
X193176399Y-140972422D01*
X193076570Y-141186507D01*
X193076567Y-141186514D01*
X193043841Y-141308650D01*
X193007476Y-141368310D01*
X192944629Y-141398839D01*
X192875253Y-141390544D01*
X192821375Y-141346059D01*
X192805406Y-141312552D01*
X192785232Y-141246046D01*
X192687685Y-141063550D01*
X192612897Y-140972420D01*
X192556410Y-140903589D01*
X192406121Y-140780252D01*
X192396450Y-140772315D01*
X192213954Y-140674768D01*
X192015934Y-140614700D01*
X192015932Y-140614699D01*
X192015934Y-140614699D01*
X191810000Y-140594417D01*
X191604067Y-140614699D01*
X191406043Y-140674769D01*
X191318114Y-140721769D01*
X191223550Y-140772315D01*
X191223548Y-140772316D01*
X191223547Y-140772317D01*
X191063589Y-140903589D01*
X190932317Y-141063547D01*
X190834769Y-141246043D01*
X190774699Y-141444067D01*
X190754417Y-141650000D01*
X190320500Y-141650000D01*
X190320500Y-140780252D01*
X190320500Y-140780249D01*
X190320499Y-140780247D01*
X190308868Y-140721770D01*
X190308867Y-140721769D01*
X190264552Y-140655447D01*
X190198230Y-140611132D01*
X190170308Y-140605578D01*
X190108397Y-140573193D01*
X190073823Y-140512477D01*
X190070500Y-140483961D01*
X190070500Y-138774776D01*
X190090185Y-138707737D01*
X190129876Y-138673344D01*
X190128077Y-138670652D01*
X190204552Y-138619552D01*
X190217463Y-138600230D01*
X190248867Y-138553231D01*
X190248867Y-138553229D01*
X190248868Y-138553229D01*
X190258922Y-138502682D01*
X190260500Y-138494748D01*
X190260500Y-136755252D01*
X190260500Y-136755249D01*
X190260499Y-136755247D01*
X190248868Y-136696770D01*
X190248867Y-136696769D01*
X190204552Y-136630447D01*
X190128077Y-136579348D01*
X190130182Y-136576197D01*
X190092626Y-136545918D01*
X190070578Y-136479618D01*
X190070500Y-136475223D01*
X190070500Y-136362940D01*
X190090185Y-136295901D01*
X190106819Y-136275259D01*
X190195259Y-136186819D01*
X190256582Y-136153334D01*
X190282940Y-136150500D01*
X193698376Y-136150500D01*
X193765415Y-136170185D01*
X193811170Y-136222989D01*
X193821114Y-136292147D01*
X193792089Y-136355703D01*
X193750781Y-136386882D01*
X193612422Y-136451399D01*
X193612420Y-136451400D01*
X193418926Y-136586886D01*
X193418920Y-136586891D01*
X193251891Y-136753920D01*
X193251886Y-136753926D01*
X193116400Y-136947420D01*
X193116399Y-136947422D01*
X193016570Y-137161507D01*
X193016567Y-137161514D01*
X192983841Y-137283650D01*
X192947476Y-137343310D01*
X192884629Y-137373839D01*
X192815253Y-137365544D01*
X192761375Y-137321059D01*
X192745406Y-137287552D01*
X192725232Y-137221046D01*
X192627685Y-137038550D01*
X192552897Y-136947420D01*
X192496410Y-136878589D01*
X192378677Y-136781969D01*
X192336450Y-136747315D01*
X192153954Y-136649768D01*
X191955934Y-136589700D01*
X191955932Y-136589699D01*
X191955934Y-136589699D01*
X191750000Y-136569417D01*
X191544067Y-136589699D01*
X191409736Y-136630448D01*
X191346050Y-136649767D01*
X191346043Y-136649769D01*
X191258114Y-136696769D01*
X191163550Y-136747315D01*
X191163548Y-136747316D01*
X191163547Y-136747317D01*
X191003589Y-136878589D01*
X190872317Y-137038547D01*
X190774769Y-137221043D01*
X190714699Y-137419067D01*
X190694417Y-137625000D01*
X190714699Y-137830932D01*
X190714700Y-137830934D01*
X190774768Y-138028954D01*
X190872315Y-138211450D01*
X190872317Y-138211452D01*
X191003589Y-138371410D01*
X191100209Y-138450702D01*
X191163550Y-138502685D01*
X191346046Y-138600232D01*
X191544066Y-138660300D01*
X191544065Y-138660300D01*
X191562529Y-138662118D01*
X191750000Y-138680583D01*
X191955934Y-138660300D01*
X192153954Y-138600232D01*
X192336450Y-138502685D01*
X192496410Y-138371410D01*
X192627685Y-138211450D01*
X192725232Y-138028954D01*
X192745406Y-137962446D01*
X192783702Y-137904010D01*
X192847514Y-137875553D01*
X192916581Y-137886112D01*
X192968975Y-137932336D01*
X192983841Y-137966349D01*
X193016567Y-138088486D01*
X193016570Y-138088492D01*
X193116399Y-138302578D01*
X193251894Y-138496082D01*
X193418917Y-138663105D01*
X193612421Y-138798600D01*
X193826507Y-138898429D01*
X193826516Y-138898433D01*
X194040000Y-138955634D01*
X194040000Y-138058012D01*
X194097007Y-138090925D01*
X194224174Y-138125000D01*
X194355826Y-138125000D01*
X194482993Y-138090925D01*
X194540000Y-138058012D01*
X194540000Y-138955633D01*
X194753483Y-138898433D01*
X194753492Y-138898429D01*
X194967578Y-138798600D01*
X195161082Y-138663105D01*
X195328105Y-138496082D01*
X195463600Y-138302578D01*
X195563429Y-138088492D01*
X195563433Y-138088483D01*
X195596158Y-137966350D01*
X195632522Y-137906690D01*
X195695369Y-137876160D01*
X195764745Y-137884454D01*
X195818623Y-137928939D01*
X195834593Y-137962447D01*
X195854768Y-138028954D01*
X195952315Y-138211450D01*
X195952317Y-138211452D01*
X196083589Y-138371410D01*
X196180209Y-138450702D01*
X196243550Y-138502685D01*
X196426046Y-138600232D01*
X196624066Y-138660300D01*
X196624065Y-138660300D01*
X196642529Y-138662118D01*
X196830000Y-138680583D01*
X197035934Y-138660300D01*
X197233954Y-138600232D01*
X197416450Y-138502685D01*
X197576410Y-138371410D01*
X197707685Y-138211450D01*
X197805232Y-138028954D01*
X197865300Y-137830934D01*
X197885583Y-137625000D01*
X198314417Y-137625000D01*
X198334699Y-137830932D01*
X198334700Y-137830934D01*
X198394768Y-138028954D01*
X198492315Y-138211450D01*
X198492317Y-138211452D01*
X198623589Y-138371410D01*
X198720209Y-138450702D01*
X198783550Y-138502685D01*
X198966046Y-138600232D01*
X199164066Y-138660300D01*
X199164065Y-138660300D01*
X199182529Y-138662118D01*
X199370000Y-138680583D01*
X199575934Y-138660300D01*
X199773954Y-138600232D01*
X199956450Y-138502685D01*
X200116410Y-138371410D01*
X200247685Y-138211450D01*
X200345232Y-138028954D01*
X200405300Y-137830934D01*
X200425583Y-137625000D01*
X200854417Y-137625000D01*
X200874699Y-137830932D01*
X200874700Y-137830934D01*
X200934768Y-138028954D01*
X201032315Y-138211450D01*
X201032317Y-138211452D01*
X201163589Y-138371410D01*
X201260209Y-138450702D01*
X201323550Y-138502685D01*
X201506046Y-138600232D01*
X201704066Y-138660300D01*
X201704065Y-138660300D01*
X201722529Y-138662118D01*
X201910000Y-138680583D01*
X202115934Y-138660300D01*
X202313954Y-138600232D01*
X202496450Y-138502685D01*
X202656410Y-138371410D01*
X202787685Y-138211450D01*
X202885232Y-138028954D01*
X202945300Y-137830934D01*
X202965583Y-137625000D01*
X203394417Y-137625000D01*
X203414699Y-137830932D01*
X203414700Y-137830934D01*
X203474768Y-138028954D01*
X203572315Y-138211450D01*
X203572317Y-138211452D01*
X203703589Y-138371410D01*
X203800209Y-138450702D01*
X203863550Y-138502685D01*
X204046046Y-138600232D01*
X204244066Y-138660300D01*
X204244065Y-138660300D01*
X204262529Y-138662118D01*
X204450000Y-138680583D01*
X204655934Y-138660300D01*
X204853954Y-138600232D01*
X205036450Y-138502685D01*
X205196410Y-138371410D01*
X205327685Y-138211450D01*
X205425232Y-138028954D01*
X205485300Y-137830934D01*
X205505583Y-137625000D01*
X205934417Y-137625000D01*
X205954699Y-137830932D01*
X205954700Y-137830934D01*
X206014768Y-138028954D01*
X206112315Y-138211450D01*
X206112317Y-138211452D01*
X206243589Y-138371410D01*
X206340209Y-138450702D01*
X206403550Y-138502685D01*
X206586046Y-138600232D01*
X206784066Y-138660300D01*
X206784065Y-138660300D01*
X206802529Y-138662118D01*
X206990000Y-138680583D01*
X207195934Y-138660300D01*
X207393954Y-138600232D01*
X207576450Y-138502685D01*
X207736410Y-138371410D01*
X207867685Y-138211450D01*
X207965232Y-138028954D01*
X208025300Y-137830934D01*
X208045583Y-137625000D01*
X208025300Y-137419066D01*
X208005941Y-137355247D01*
X214004500Y-137355247D01*
X214004500Y-139094752D01*
X214016131Y-139153229D01*
X214016132Y-139153230D01*
X214060447Y-139219552D01*
X214126769Y-139263867D01*
X214126770Y-139263868D01*
X214185247Y-139275499D01*
X214185250Y-139275500D01*
X214185252Y-139275500D01*
X215924750Y-139275500D01*
X215924751Y-139275499D01*
X215939568Y-139272552D01*
X215983229Y-139263868D01*
X215983229Y-139263867D01*
X215983231Y-139263867D01*
X216049552Y-139219552D01*
X216093867Y-139153231D01*
X216093867Y-139153229D01*
X216093868Y-139153229D01*
X216105499Y-139094752D01*
X216105500Y-139094750D01*
X216105500Y-138225000D01*
X216539417Y-138225000D01*
X216559699Y-138430932D01*
X216579058Y-138494750D01*
X216619768Y-138628954D01*
X216717315Y-138811450D01*
X216740335Y-138839500D01*
X216848589Y-138971410D01*
X216945209Y-139050702D01*
X217008550Y-139102685D01*
X217191046Y-139200232D01*
X217389066Y-139260300D01*
X217389065Y-139260300D01*
X217407529Y-139262118D01*
X217595000Y-139280583D01*
X217800934Y-139260300D01*
X217998954Y-139200232D01*
X218181450Y-139102685D01*
X218341410Y-138971410D01*
X218472685Y-138811450D01*
X218570232Y-138628954D01*
X218630300Y-138430934D01*
X218650583Y-138225000D01*
X219079417Y-138225000D01*
X219099699Y-138430932D01*
X219119058Y-138494750D01*
X219159768Y-138628954D01*
X219257315Y-138811450D01*
X219280335Y-138839500D01*
X219388589Y-138971410D01*
X219485209Y-139050702D01*
X219548550Y-139102685D01*
X219731046Y-139200232D01*
X219929066Y-139260300D01*
X219929065Y-139260300D01*
X219947529Y-139262118D01*
X220135000Y-139280583D01*
X220340934Y-139260300D01*
X220538954Y-139200232D01*
X220721450Y-139102685D01*
X220881410Y-138971410D01*
X221012685Y-138811450D01*
X221110232Y-138628954D01*
X221170300Y-138430934D01*
X221190583Y-138225000D01*
X221619417Y-138225000D01*
X221639699Y-138430932D01*
X221659058Y-138494750D01*
X221699768Y-138628954D01*
X221797315Y-138811450D01*
X221820335Y-138839500D01*
X221928589Y-138971410D01*
X222025209Y-139050702D01*
X222088550Y-139102685D01*
X222271046Y-139200232D01*
X222469066Y-139260300D01*
X222469065Y-139260300D01*
X222487529Y-139262118D01*
X222675000Y-139280583D01*
X222880934Y-139260300D01*
X223078954Y-139200232D01*
X223261450Y-139102685D01*
X223421410Y-138971410D01*
X223552685Y-138811450D01*
X223650232Y-138628954D01*
X223710300Y-138430934D01*
X223730583Y-138225000D01*
X223710300Y-138019066D01*
X223650232Y-137821046D01*
X223552685Y-137638550D01*
X223484883Y-137555932D01*
X223421410Y-137478589D01*
X223271121Y-137355252D01*
X223261450Y-137347315D01*
X223078954Y-137249768D01*
X222880934Y-137189700D01*
X222880932Y-137189699D01*
X222880934Y-137189699D01*
X222675000Y-137169417D01*
X222469067Y-137189699D01*
X222271043Y-137249769D01*
X222183114Y-137296769D01*
X222088550Y-137347315D01*
X222088548Y-137347316D01*
X222088547Y-137347317D01*
X221928589Y-137478589D01*
X221797317Y-137638547D01*
X221699769Y-137821043D01*
X221639699Y-138019067D01*
X221619417Y-138225000D01*
X221190583Y-138225000D01*
X221170300Y-138019066D01*
X221110232Y-137821046D01*
X221012685Y-137638550D01*
X220944883Y-137555932D01*
X220881410Y-137478589D01*
X220731121Y-137355252D01*
X220721450Y-137347315D01*
X220538954Y-137249768D01*
X220340934Y-137189700D01*
X220340932Y-137189699D01*
X220340934Y-137189699D01*
X220135000Y-137169417D01*
X219929067Y-137189699D01*
X219731043Y-137249769D01*
X219643114Y-137296769D01*
X219548550Y-137347315D01*
X219548548Y-137347316D01*
X219548547Y-137347317D01*
X219388589Y-137478589D01*
X219257317Y-137638547D01*
X219159769Y-137821043D01*
X219099699Y-138019067D01*
X219079417Y-138225000D01*
X218650583Y-138225000D01*
X218630300Y-138019066D01*
X218570232Y-137821046D01*
X218472685Y-137638550D01*
X218404883Y-137555932D01*
X218341410Y-137478589D01*
X218191121Y-137355252D01*
X218181450Y-137347315D01*
X217998954Y-137249768D01*
X217800934Y-137189700D01*
X217800932Y-137189699D01*
X217800934Y-137189699D01*
X217595000Y-137169417D01*
X217389067Y-137189699D01*
X217191043Y-137249769D01*
X217103114Y-137296769D01*
X217008550Y-137347315D01*
X217008548Y-137347316D01*
X217008547Y-137347317D01*
X216848589Y-137478589D01*
X216717317Y-137638547D01*
X216619769Y-137821043D01*
X216559699Y-138019067D01*
X216539417Y-138225000D01*
X216105500Y-138225000D01*
X216105500Y-137355249D01*
X216105499Y-137355247D01*
X216093868Y-137296770D01*
X216093867Y-137296769D01*
X216049552Y-137230447D01*
X215983230Y-137186132D01*
X215983229Y-137186131D01*
X215924752Y-137174500D01*
X215924748Y-137174500D01*
X214185252Y-137174500D01*
X214185247Y-137174500D01*
X214126770Y-137186131D01*
X214126769Y-137186132D01*
X214060447Y-137230447D01*
X214016132Y-137296769D01*
X214016131Y-137296770D01*
X214004500Y-137355247D01*
X208005941Y-137355247D01*
X207965232Y-137221046D01*
X207867685Y-137038550D01*
X207792897Y-136947420D01*
X207736410Y-136878589D01*
X207618677Y-136781969D01*
X207576450Y-136747315D01*
X207393954Y-136649768D01*
X207195934Y-136589700D01*
X207195932Y-136589699D01*
X207195934Y-136589699D01*
X206990000Y-136569417D01*
X206784067Y-136589699D01*
X206649736Y-136630448D01*
X206586050Y-136649767D01*
X206586043Y-136649769D01*
X206498114Y-136696769D01*
X206403550Y-136747315D01*
X206403548Y-136747316D01*
X206403547Y-136747317D01*
X206243589Y-136878589D01*
X206112317Y-137038547D01*
X206014769Y-137221043D01*
X205954699Y-137419067D01*
X205934417Y-137625000D01*
X205505583Y-137625000D01*
X205485300Y-137419066D01*
X205425232Y-137221046D01*
X205327685Y-137038550D01*
X205252897Y-136947420D01*
X205196410Y-136878589D01*
X205078677Y-136781969D01*
X205036450Y-136747315D01*
X204853954Y-136649768D01*
X204655934Y-136589700D01*
X204655932Y-136589699D01*
X204655934Y-136589699D01*
X204450000Y-136569417D01*
X204244067Y-136589699D01*
X204109736Y-136630448D01*
X204046050Y-136649767D01*
X204046043Y-136649769D01*
X203958114Y-136696769D01*
X203863550Y-136747315D01*
X203863548Y-136747316D01*
X203863547Y-136747317D01*
X203703589Y-136878589D01*
X203572317Y-137038547D01*
X203474769Y-137221043D01*
X203414699Y-137419067D01*
X203394417Y-137625000D01*
X202965583Y-137625000D01*
X202945300Y-137419066D01*
X202885232Y-137221046D01*
X202787685Y-137038550D01*
X202712897Y-136947420D01*
X202656410Y-136878589D01*
X202538677Y-136781969D01*
X202496450Y-136747315D01*
X202313954Y-136649768D01*
X202115934Y-136589700D01*
X202115932Y-136589699D01*
X202115934Y-136589699D01*
X201910000Y-136569417D01*
X201704067Y-136589699D01*
X201569736Y-136630448D01*
X201506050Y-136649767D01*
X201506043Y-136649769D01*
X201418114Y-136696769D01*
X201323550Y-136747315D01*
X201323548Y-136747316D01*
X201323547Y-136747317D01*
X201163589Y-136878589D01*
X201032317Y-137038547D01*
X200934769Y-137221043D01*
X200874699Y-137419067D01*
X200854417Y-137625000D01*
X200425583Y-137625000D01*
X200405300Y-137419066D01*
X200345232Y-137221046D01*
X200247685Y-137038550D01*
X200172897Y-136947420D01*
X200116410Y-136878589D01*
X199998677Y-136781969D01*
X199956450Y-136747315D01*
X199834786Y-136682283D01*
X199773953Y-136649767D01*
X199758504Y-136645081D01*
X199700066Y-136606784D01*
X199671609Y-136542971D01*
X199670500Y-136526421D01*
X199670500Y-135995832D01*
X199690185Y-135928793D01*
X199706814Y-135908156D01*
X201230673Y-134384296D01*
X201291994Y-134350813D01*
X201361686Y-134355797D01*
X201376804Y-134362620D01*
X201381454Y-134365105D01*
X201391046Y-134370232D01*
X201589066Y-134430300D01*
X201589065Y-134430300D01*
X201607529Y-134432118D01*
X201795000Y-134450583D01*
X202000934Y-134430300D01*
X202198954Y-134370232D01*
X202381450Y-134272685D01*
X202541410Y-134141410D01*
X202672685Y-133981450D01*
X202770232Y-133798954D01*
X202830300Y-133600934D01*
X202850583Y-133395000D01*
X203279417Y-133395000D01*
X203299699Y-133600932D01*
X203308061Y-133628497D01*
X203359768Y-133798954D01*
X203457315Y-133981450D01*
X203491969Y-134023677D01*
X203588589Y-134141410D01*
X203685209Y-134220702D01*
X203748550Y-134272685D01*
X203931046Y-134370232D01*
X204129066Y-134430300D01*
X204129065Y-134430300D01*
X204147529Y-134432118D01*
X204335000Y-134450583D01*
X204540934Y-134430300D01*
X204738954Y-134370232D01*
X204921450Y-134272685D01*
X205081410Y-134141410D01*
X205212685Y-133981450D01*
X205310232Y-133798954D01*
X205330406Y-133732446D01*
X205368702Y-133674010D01*
X205432514Y-133645553D01*
X205501581Y-133656112D01*
X205553975Y-133702336D01*
X205568841Y-133736349D01*
X205601567Y-133858486D01*
X205601570Y-133858492D01*
X205701399Y-134072578D01*
X205836894Y-134266082D01*
X206003917Y-134433105D01*
X206197421Y-134568600D01*
X206411507Y-134668429D01*
X206411516Y-134668433D01*
X206625000Y-134725634D01*
X206625000Y-133828012D01*
X206682007Y-133860925D01*
X206809174Y-133895000D01*
X206940826Y-133895000D01*
X207067993Y-133860925D01*
X207125000Y-133828012D01*
X207125000Y-134725633D01*
X207338483Y-134668433D01*
X207338492Y-134668429D01*
X207552578Y-134568600D01*
X207746082Y-134433105D01*
X207913105Y-134266082D01*
X208048600Y-134072578D01*
X208148429Y-133858492D01*
X208148433Y-133858483D01*
X208181158Y-133736350D01*
X208217522Y-133676690D01*
X208280369Y-133646160D01*
X208349745Y-133654454D01*
X208403623Y-133698939D01*
X208419593Y-133732447D01*
X208439768Y-133798954D01*
X208537315Y-133981450D01*
X208571969Y-134023677D01*
X208668589Y-134141410D01*
X208765209Y-134220702D01*
X208828550Y-134272685D01*
X209011046Y-134370232D01*
X209209066Y-134430300D01*
X209209065Y-134430300D01*
X209227529Y-134432118D01*
X209415000Y-134450583D01*
X209620934Y-134430300D01*
X209818954Y-134370232D01*
X210001450Y-134272685D01*
X210161410Y-134141410D01*
X210292685Y-133981450D01*
X210390232Y-133798954D01*
X210450300Y-133600934D01*
X210470583Y-133395000D01*
X210450300Y-133189066D01*
X210390232Y-132991046D01*
X210292685Y-132808550D01*
X210217897Y-132717420D01*
X210161410Y-132648589D01*
X210011121Y-132525252D01*
X210001450Y-132517315D01*
X209818954Y-132419768D01*
X209620934Y-132359700D01*
X209620932Y-132359699D01*
X209620934Y-132359699D01*
X209415000Y-132339417D01*
X209209067Y-132359699D01*
X209074736Y-132400448D01*
X209011050Y-132419767D01*
X209011043Y-132419769D01*
X208970869Y-132441243D01*
X208828550Y-132517315D01*
X208828548Y-132517316D01*
X208828547Y-132517317D01*
X208668589Y-132648589D01*
X208537317Y-132808547D01*
X208537315Y-132808550D01*
X208509622Y-132860358D01*
X208439767Y-132991046D01*
X208419593Y-133057552D01*
X208381296Y-133115990D01*
X208317483Y-133144447D01*
X208248416Y-133133886D01*
X208196023Y-133087661D01*
X208181158Y-133053649D01*
X208148433Y-132931516D01*
X208148429Y-132931507D01*
X208048600Y-132717422D01*
X208048599Y-132717420D01*
X207913113Y-132523926D01*
X207913108Y-132523920D01*
X207746082Y-132356894D01*
X207552578Y-132221399D01*
X207338492Y-132121570D01*
X207338486Y-132121567D01*
X207216349Y-132088841D01*
X207156689Y-132052476D01*
X207126160Y-131989629D01*
X207134455Y-131920253D01*
X207178940Y-131866375D01*
X207212444Y-131850407D01*
X207278954Y-131830232D01*
X207461450Y-131732685D01*
X207621410Y-131601410D01*
X207752685Y-131441450D01*
X207850232Y-131258954D01*
X207910300Y-131060934D01*
X207930583Y-130855000D01*
X208359417Y-130855000D01*
X208379699Y-131060932D01*
X208379700Y-131060934D01*
X208439768Y-131258954D01*
X208537315Y-131441450D01*
X208537317Y-131441452D01*
X208668589Y-131601410D01*
X208674899Y-131606588D01*
X208828550Y-131732685D01*
X209011046Y-131830232D01*
X209209066Y-131890300D01*
X209209065Y-131890300D01*
X209227529Y-131892118D01*
X209415000Y-131910583D01*
X209620934Y-131890300D01*
X209818954Y-131830232D01*
X210001450Y-131732685D01*
X210161410Y-131601410D01*
X210292685Y-131441450D01*
X210390232Y-131258954D01*
X210410406Y-131192446D01*
X210448702Y-131134010D01*
X210512514Y-131105553D01*
X210581581Y-131116112D01*
X210633975Y-131162336D01*
X210648841Y-131196349D01*
X210681567Y-131318486D01*
X210681570Y-131318492D01*
X210781399Y-131532578D01*
X210916894Y-131726082D01*
X211083917Y-131893105D01*
X211277421Y-132028600D01*
X211491507Y-132128429D01*
X211491516Y-132128433D01*
X211613649Y-132161158D01*
X211673310Y-132197523D01*
X211703839Y-132260369D01*
X211695545Y-132329745D01*
X211651059Y-132383623D01*
X211617552Y-132399593D01*
X211551046Y-132419767D01*
X211463112Y-132466770D01*
X211368550Y-132517315D01*
X211368548Y-132517316D01*
X211368547Y-132517317D01*
X211208589Y-132648589D01*
X211077317Y-132808547D01*
X211077315Y-132808550D01*
X211038643Y-132880898D01*
X210979769Y-132991043D01*
X210919699Y-133189067D01*
X210899417Y-133395000D01*
X210919699Y-133600932D01*
X210928061Y-133628497D01*
X210979768Y-133798954D01*
X211077315Y-133981450D01*
X211111969Y-134023677D01*
X211208589Y-134141410D01*
X211305209Y-134220702D01*
X211368550Y-134272685D01*
X211551046Y-134370232D01*
X211749066Y-134430300D01*
X211749065Y-134430300D01*
X211767529Y-134432118D01*
X211955000Y-134450583D01*
X212160934Y-134430300D01*
X212358954Y-134370232D01*
X212541450Y-134272685D01*
X212701410Y-134141410D01*
X212832685Y-133981450D01*
X212930232Y-133798954D01*
X212990300Y-133600934D01*
X213010583Y-133395000D01*
X213439417Y-133395000D01*
X213459699Y-133600932D01*
X213468061Y-133628497D01*
X213519768Y-133798954D01*
X213617315Y-133981450D01*
X213651969Y-134023677D01*
X213748589Y-134141410D01*
X213845209Y-134220702D01*
X213908550Y-134272685D01*
X214091046Y-134370232D01*
X214289066Y-134430300D01*
X214289065Y-134430300D01*
X214307529Y-134432118D01*
X214495000Y-134450583D01*
X214700934Y-134430300D01*
X214898954Y-134370232D01*
X215081450Y-134272685D01*
X215241410Y-134141410D01*
X215372685Y-133981450D01*
X215470232Y-133798954D01*
X215530300Y-133600934D01*
X215550583Y-133395000D01*
X215530300Y-133189066D01*
X215470232Y-132991046D01*
X215372685Y-132808550D01*
X215297897Y-132717420D01*
X215241410Y-132648589D01*
X215091121Y-132525252D01*
X215081450Y-132517315D01*
X214898954Y-132419768D01*
X214700934Y-132359700D01*
X214700932Y-132359699D01*
X214700934Y-132359699D01*
X214495000Y-132339417D01*
X214289067Y-132359699D01*
X214154736Y-132400448D01*
X214091050Y-132419767D01*
X214091043Y-132419769D01*
X214050869Y-132441243D01*
X213908550Y-132517315D01*
X213908548Y-132517316D01*
X213908547Y-132517317D01*
X213748589Y-132648589D01*
X213617317Y-132808547D01*
X213617315Y-132808550D01*
X213578643Y-132880898D01*
X213519769Y-132991043D01*
X213459699Y-133189067D01*
X213439417Y-133395000D01*
X213010583Y-133395000D01*
X212990300Y-133189066D01*
X212930232Y-132991046D01*
X212832685Y-132808550D01*
X212757897Y-132717420D01*
X212701410Y-132648589D01*
X212551121Y-132525252D01*
X212541450Y-132517315D01*
X212358954Y-132419768D01*
X212292447Y-132399593D01*
X212234009Y-132361296D01*
X212205553Y-132297484D01*
X212216113Y-132228417D01*
X212262337Y-132176023D01*
X212296350Y-132161158D01*
X212418483Y-132128433D01*
X212418492Y-132128429D01*
X212632578Y-132028600D01*
X212826082Y-131893105D01*
X212993105Y-131726082D01*
X213128600Y-131532578D01*
X213228429Y-131318492D01*
X213228433Y-131318483D01*
X213261158Y-131196350D01*
X213297522Y-131136690D01*
X213360369Y-131106160D01*
X213429745Y-131114454D01*
X213483623Y-131158939D01*
X213499593Y-131192447D01*
X213519768Y-131258954D01*
X213617315Y-131441450D01*
X213617317Y-131441452D01*
X213748589Y-131601410D01*
X213754899Y-131606588D01*
X213908550Y-131732685D01*
X214091046Y-131830232D01*
X214289066Y-131890300D01*
X214289065Y-131890300D01*
X214307529Y-131892118D01*
X214495000Y-131910583D01*
X214700934Y-131890300D01*
X214898954Y-131830232D01*
X215081450Y-131732685D01*
X215241410Y-131601410D01*
X215372685Y-131441450D01*
X215470232Y-131258954D01*
X215490406Y-131192446D01*
X215528702Y-131134010D01*
X215592514Y-131105553D01*
X215661581Y-131116112D01*
X215713975Y-131162336D01*
X215728841Y-131196349D01*
X215761567Y-131318486D01*
X215761570Y-131318492D01*
X215861399Y-131532578D01*
X215996894Y-131726082D01*
X216163917Y-131893105D01*
X216357421Y-132028600D01*
X216571507Y-132128429D01*
X216571516Y-132128433D01*
X216693649Y-132161158D01*
X216753310Y-132197523D01*
X216783839Y-132260369D01*
X216775545Y-132329745D01*
X216731059Y-132383623D01*
X216697552Y-132399593D01*
X216631046Y-132419767D01*
X216543112Y-132466770D01*
X216448550Y-132517315D01*
X216448548Y-132517316D01*
X216448547Y-132517317D01*
X216288589Y-132648589D01*
X216157317Y-132808547D01*
X216157315Y-132808550D01*
X216118643Y-132880898D01*
X216059769Y-132991043D01*
X215999699Y-133189067D01*
X215979417Y-133395000D01*
X215999699Y-133600932D01*
X216008061Y-133628497D01*
X216059768Y-133798954D01*
X216157315Y-133981450D01*
X216191969Y-134023677D01*
X216288589Y-134141410D01*
X216385209Y-134220702D01*
X216448550Y-134272685D01*
X216631046Y-134370232D01*
X216829066Y-134430300D01*
X216829065Y-134430300D01*
X216847529Y-134432118D01*
X217035000Y-134450583D01*
X217240934Y-134430300D01*
X217438954Y-134370232D01*
X217621450Y-134272685D01*
X217781410Y-134141410D01*
X217912685Y-133981450D01*
X218010232Y-133798954D01*
X218070300Y-133600934D01*
X218090583Y-133395000D01*
X218519417Y-133395000D01*
X218539699Y-133600932D01*
X218548061Y-133628497D01*
X218599768Y-133798954D01*
X218697315Y-133981450D01*
X218731969Y-134023677D01*
X218828589Y-134141410D01*
X218925209Y-134220702D01*
X218988550Y-134272685D01*
X219171046Y-134370232D01*
X219369066Y-134430300D01*
X219369065Y-134430300D01*
X219387529Y-134432118D01*
X219575000Y-134450583D01*
X219780934Y-134430300D01*
X219978954Y-134370232D01*
X220161450Y-134272685D01*
X220321410Y-134141410D01*
X220452685Y-133981450D01*
X220550232Y-133798954D01*
X220610300Y-133600934D01*
X220630583Y-133395000D01*
X221059417Y-133395000D01*
X221079699Y-133600932D01*
X221088061Y-133628497D01*
X221139768Y-133798954D01*
X221237315Y-133981450D01*
X221271969Y-134023677D01*
X221368589Y-134141410D01*
X221465209Y-134220702D01*
X221528550Y-134272685D01*
X221711046Y-134370232D01*
X221909066Y-134430300D01*
X221909065Y-134430300D01*
X221927529Y-134432118D01*
X222115000Y-134450583D01*
X222320934Y-134430300D01*
X222518954Y-134370232D01*
X222701450Y-134272685D01*
X222861410Y-134141410D01*
X222992685Y-133981450D01*
X223090232Y-133798954D01*
X223110406Y-133732446D01*
X223148702Y-133674010D01*
X223212514Y-133645553D01*
X223281581Y-133656112D01*
X223333975Y-133702336D01*
X223348841Y-133736349D01*
X223381567Y-133858486D01*
X223381570Y-133858492D01*
X223481399Y-134072578D01*
X223616894Y-134266082D01*
X223783917Y-134433105D01*
X223977421Y-134568600D01*
X224191507Y-134668429D01*
X224191516Y-134668433D01*
X224405000Y-134725634D01*
X224405000Y-133828012D01*
X224462007Y-133860925D01*
X224589174Y-133895000D01*
X224720826Y-133895000D01*
X224847993Y-133860925D01*
X224905000Y-133828012D01*
X224905000Y-134725633D01*
X225118483Y-134668433D01*
X225118492Y-134668429D01*
X225332578Y-134568600D01*
X225526082Y-134433105D01*
X225693105Y-134266082D01*
X225828600Y-134072578D01*
X225928429Y-133858492D01*
X225928432Y-133858486D01*
X225985636Y-133645000D01*
X225088012Y-133645000D01*
X225120925Y-133587993D01*
X225155000Y-133460826D01*
X225155000Y-133329174D01*
X225120925Y-133202007D01*
X225088012Y-133145000D01*
X225985636Y-133145000D01*
X225985635Y-133144999D01*
X225928432Y-132931513D01*
X225928429Y-132931507D01*
X225828600Y-132717422D01*
X225828599Y-132717420D01*
X225693113Y-132523926D01*
X225693108Y-132523920D01*
X225526082Y-132356894D01*
X225332578Y-132221399D01*
X225118492Y-132121570D01*
X225118486Y-132121567D01*
X224996349Y-132088841D01*
X224936689Y-132052476D01*
X224920288Y-132018713D01*
X228174500Y-132018713D01*
X228174500Y-132231286D01*
X228204352Y-132419768D01*
X228207754Y-132441243D01*
X228235050Y-132525252D01*
X228273444Y-132643414D01*
X228369951Y-132832820D01*
X228494890Y-133004786D01*
X228645213Y-133155109D01*
X228817179Y-133280048D01*
X228817181Y-133280049D01*
X228817184Y-133280051D01*
X229006588Y-133376557D01*
X229208757Y-133442246D01*
X229418713Y-133475500D01*
X229418714Y-133475500D01*
X229631286Y-133475500D01*
X229631287Y-133475500D01*
X229841243Y-133442246D01*
X230043412Y-133376557D01*
X230232816Y-133280051D01*
X230254789Y-133264086D01*
X230404786Y-133155109D01*
X230404788Y-133155106D01*
X230404792Y-133155104D01*
X230555104Y-133004792D01*
X230555106Y-133004788D01*
X230555109Y-133004786D01*
X230680048Y-132832820D01*
X230680047Y-132832820D01*
X230680051Y-132832816D01*
X230776557Y-132643412D01*
X230842246Y-132441243D01*
X230875500Y-132231287D01*
X230875500Y-132018713D01*
X230842246Y-131808757D01*
X230776557Y-131606588D01*
X230680051Y-131417184D01*
X230680049Y-131417181D01*
X230680048Y-131417179D01*
X230555109Y-131245213D01*
X230404786Y-131094890D01*
X230232820Y-130969951D01*
X230043414Y-130873444D01*
X230043413Y-130873443D01*
X230043412Y-130873443D01*
X229841243Y-130807754D01*
X229841241Y-130807753D01*
X229841240Y-130807753D01*
X229679957Y-130782208D01*
X229631287Y-130774500D01*
X229418713Y-130774500D01*
X229370042Y-130782208D01*
X229208760Y-130807753D01*
X229006585Y-130873444D01*
X228817179Y-130969951D01*
X228645213Y-131094890D01*
X228494890Y-131245213D01*
X228369951Y-131417179D01*
X228273444Y-131606585D01*
X228207753Y-131808760D01*
X228174500Y-132018713D01*
X224920288Y-132018713D01*
X224906160Y-131989629D01*
X224914455Y-131920253D01*
X224958940Y-131866375D01*
X224992444Y-131850407D01*
X225058954Y-131830232D01*
X225241450Y-131732685D01*
X225401410Y-131601410D01*
X225532685Y-131441450D01*
X225630232Y-131258954D01*
X225690300Y-131060934D01*
X225710583Y-130855000D01*
X225690300Y-130649066D01*
X225630232Y-130451046D01*
X225532685Y-130268550D01*
X225457897Y-130177420D01*
X225401410Y-130108589D01*
X225283677Y-130011969D01*
X225241450Y-129977315D01*
X225058954Y-129879768D01*
X224860934Y-129819700D01*
X224860932Y-129819699D01*
X224860934Y-129819699D01*
X224655000Y-129799417D01*
X224449067Y-129819699D01*
X224251043Y-129879769D01*
X224140898Y-129938643D01*
X224068550Y-129977315D01*
X224068548Y-129977316D01*
X224068547Y-129977317D01*
X223908589Y-130108589D01*
X223777317Y-130268547D01*
X223679769Y-130451043D01*
X223619699Y-130649067D01*
X223599417Y-130855000D01*
X223619699Y-131060932D01*
X223619700Y-131060934D01*
X223679768Y-131258954D01*
X223777315Y-131441450D01*
X223777317Y-131441452D01*
X223908589Y-131601410D01*
X223914899Y-131606588D01*
X224068550Y-131732685D01*
X224251046Y-131830232D01*
X224317551Y-131850405D01*
X224375989Y-131888702D01*
X224404446Y-131952514D01*
X224393887Y-132021581D01*
X224347663Y-132073975D01*
X224313650Y-132088841D01*
X224191514Y-132121567D01*
X224191507Y-132121570D01*
X223977422Y-132221399D01*
X223977420Y-132221400D01*
X223783926Y-132356886D01*
X223783920Y-132356891D01*
X223616891Y-132523920D01*
X223616886Y-132523926D01*
X223481400Y-132717420D01*
X223481399Y-132717422D01*
X223381570Y-132931507D01*
X223381567Y-132931514D01*
X223348841Y-133053650D01*
X223312476Y-133113310D01*
X223249629Y-133143839D01*
X223180253Y-133135544D01*
X223126375Y-133091059D01*
X223110406Y-133057552D01*
X223090232Y-132991046D01*
X222992685Y-132808550D01*
X222917897Y-132717420D01*
X222861410Y-132648589D01*
X222711121Y-132525252D01*
X222701450Y-132517315D01*
X222518954Y-132419768D01*
X222320934Y-132359700D01*
X222320932Y-132359699D01*
X222320934Y-132359699D01*
X222115000Y-132339417D01*
X221909067Y-132359699D01*
X221774736Y-132400448D01*
X221711050Y-132419767D01*
X221711043Y-132419769D01*
X221670869Y-132441243D01*
X221528550Y-132517315D01*
X221528548Y-132517316D01*
X221528547Y-132517317D01*
X221368589Y-132648589D01*
X221237317Y-132808547D01*
X221237315Y-132808550D01*
X221198643Y-132880898D01*
X221139769Y-132991043D01*
X221079699Y-133189067D01*
X221059417Y-133395000D01*
X220630583Y-133395000D01*
X220610300Y-133189066D01*
X220550232Y-132991046D01*
X220452685Y-132808550D01*
X220377897Y-132717420D01*
X220321410Y-132648589D01*
X220171121Y-132525252D01*
X220161450Y-132517315D01*
X219978954Y-132419768D01*
X219780934Y-132359700D01*
X219780932Y-132359699D01*
X219780934Y-132359699D01*
X219575000Y-132339417D01*
X219369067Y-132359699D01*
X219234736Y-132400448D01*
X219171050Y-132419767D01*
X219171043Y-132419769D01*
X219130869Y-132441243D01*
X218988550Y-132517315D01*
X218988548Y-132517316D01*
X218988547Y-132517317D01*
X218828589Y-132648589D01*
X218697317Y-132808547D01*
X218697315Y-132808550D01*
X218658643Y-132880898D01*
X218599769Y-132991043D01*
X218539699Y-133189067D01*
X218519417Y-133395000D01*
X218090583Y-133395000D01*
X218070300Y-133189066D01*
X218010232Y-132991046D01*
X217912685Y-132808550D01*
X217837897Y-132717420D01*
X217781410Y-132648589D01*
X217631121Y-132525252D01*
X217621450Y-132517315D01*
X217438954Y-132419768D01*
X217372447Y-132399593D01*
X217314009Y-132361296D01*
X217285553Y-132297484D01*
X217296113Y-132228417D01*
X217342337Y-132176023D01*
X217376350Y-132161158D01*
X217498483Y-132128433D01*
X217498492Y-132128429D01*
X217712578Y-132028600D01*
X217906082Y-131893105D01*
X218073105Y-131726082D01*
X218208600Y-131532578D01*
X218308429Y-131318492D01*
X218308433Y-131318483D01*
X218341158Y-131196350D01*
X218377522Y-131136690D01*
X218440369Y-131106160D01*
X218509745Y-131114454D01*
X218563623Y-131158939D01*
X218579593Y-131192447D01*
X218599768Y-131258954D01*
X218697315Y-131441450D01*
X218697317Y-131441452D01*
X218828589Y-131601410D01*
X218834899Y-131606588D01*
X218988550Y-131732685D01*
X219171046Y-131830232D01*
X219369066Y-131890300D01*
X219369065Y-131890300D01*
X219387529Y-131892118D01*
X219575000Y-131910583D01*
X219780934Y-131890300D01*
X219978954Y-131830232D01*
X220161450Y-131732685D01*
X220321410Y-131601410D01*
X220452685Y-131441450D01*
X220550232Y-131258954D01*
X220610300Y-131060934D01*
X220630583Y-130855000D01*
X221059417Y-130855000D01*
X221079699Y-131060932D01*
X221079700Y-131060934D01*
X221139768Y-131258954D01*
X221237315Y-131441450D01*
X221237317Y-131441452D01*
X221368589Y-131601410D01*
X221374899Y-131606588D01*
X221528550Y-131732685D01*
X221711046Y-131830232D01*
X221909066Y-131890300D01*
X221909065Y-131890300D01*
X221927529Y-131892118D01*
X222115000Y-131910583D01*
X222320934Y-131890300D01*
X222518954Y-131830232D01*
X222701450Y-131732685D01*
X222861410Y-131601410D01*
X222992685Y-131441450D01*
X223090232Y-131258954D01*
X223150300Y-131060934D01*
X223170583Y-130855000D01*
X223150300Y-130649066D01*
X223090232Y-130451046D01*
X222992685Y-130268550D01*
X222917897Y-130177420D01*
X222861410Y-130108589D01*
X222743677Y-130011969D01*
X222701450Y-129977315D01*
X222518954Y-129879768D01*
X222320934Y-129819700D01*
X222320932Y-129819699D01*
X222320934Y-129819699D01*
X222115000Y-129799417D01*
X221909067Y-129819699D01*
X221711043Y-129879769D01*
X221600898Y-129938643D01*
X221528550Y-129977315D01*
X221528548Y-129977316D01*
X221528547Y-129977317D01*
X221368589Y-130108589D01*
X221237317Y-130268547D01*
X221139769Y-130451043D01*
X221079699Y-130649067D01*
X221059417Y-130855000D01*
X220630583Y-130855000D01*
X220610300Y-130649066D01*
X220550232Y-130451046D01*
X220452685Y-130268550D01*
X220377897Y-130177420D01*
X220321410Y-130108589D01*
X220203677Y-130011969D01*
X220161450Y-129977315D01*
X219978954Y-129879768D01*
X219780934Y-129819700D01*
X219780932Y-129819699D01*
X219780934Y-129819699D01*
X219575000Y-129799417D01*
X219369067Y-129819699D01*
X219171043Y-129879769D01*
X219060898Y-129938643D01*
X218988550Y-129977315D01*
X218988548Y-129977316D01*
X218988547Y-129977317D01*
X218828589Y-130108589D01*
X218697317Y-130268547D01*
X218599767Y-130451046D01*
X218579593Y-130517552D01*
X218541296Y-130575990D01*
X218477483Y-130604447D01*
X218408416Y-130593886D01*
X218356023Y-130547661D01*
X218341158Y-130513649D01*
X218308433Y-130391516D01*
X218308429Y-130391507D01*
X218208600Y-130177422D01*
X218208599Y-130177420D01*
X218073113Y-129983926D01*
X218073108Y-129983920D01*
X217906082Y-129816894D01*
X217712578Y-129681399D01*
X217498492Y-129581570D01*
X217498486Y-129581567D01*
X217285000Y-129524364D01*
X217285000Y-130421988D01*
X217227993Y-130389075D01*
X217100826Y-130355000D01*
X216969174Y-130355000D01*
X216842007Y-130389075D01*
X216785000Y-130421988D01*
X216785000Y-129524364D01*
X216784999Y-129524364D01*
X216571513Y-129581567D01*
X216571507Y-129581570D01*
X216357422Y-129681399D01*
X216357420Y-129681400D01*
X216163926Y-129816886D01*
X216163920Y-129816891D01*
X215996891Y-129983920D01*
X215996886Y-129983926D01*
X215861400Y-130177420D01*
X215861399Y-130177422D01*
X215761570Y-130391507D01*
X215761567Y-130391514D01*
X215728841Y-130513650D01*
X215692476Y-130573310D01*
X215629629Y-130603839D01*
X215560253Y-130595544D01*
X215506375Y-130551059D01*
X215490406Y-130517552D01*
X215470232Y-130451046D01*
X215372685Y-130268550D01*
X215297897Y-130177420D01*
X215241410Y-130108589D01*
X215123677Y-130011969D01*
X215081450Y-129977315D01*
X214898954Y-129879768D01*
X214700934Y-129819700D01*
X214700932Y-129819699D01*
X214700934Y-129819699D01*
X214495000Y-129799417D01*
X214289067Y-129819699D01*
X214091043Y-129879769D01*
X213980898Y-129938643D01*
X213908550Y-129977315D01*
X213908548Y-129977316D01*
X213908547Y-129977317D01*
X213748589Y-130108589D01*
X213617317Y-130268547D01*
X213519767Y-130451046D01*
X213499593Y-130517552D01*
X213461296Y-130575990D01*
X213397483Y-130604447D01*
X213328416Y-130593886D01*
X213276023Y-130547661D01*
X213261158Y-130513649D01*
X213228433Y-130391516D01*
X213228429Y-130391507D01*
X213128600Y-130177422D01*
X213128599Y-130177420D01*
X212993113Y-129983926D01*
X212993108Y-129983920D01*
X212826082Y-129816894D01*
X212632578Y-129681399D01*
X212418492Y-129581570D01*
X212418486Y-129581567D01*
X212205000Y-129524364D01*
X212205000Y-130421988D01*
X212147993Y-130389075D01*
X212020826Y-130355000D01*
X211889174Y-130355000D01*
X211762007Y-130389075D01*
X211705000Y-130421988D01*
X211705000Y-129524364D01*
X211704999Y-129524364D01*
X211491513Y-129581567D01*
X211491507Y-129581570D01*
X211277422Y-129681399D01*
X211277420Y-129681400D01*
X211083926Y-129816886D01*
X211083920Y-129816891D01*
X210916891Y-129983920D01*
X210916886Y-129983926D01*
X210781400Y-130177420D01*
X210781399Y-130177422D01*
X210681570Y-130391507D01*
X210681567Y-130391514D01*
X210648841Y-130513650D01*
X210612476Y-130573310D01*
X210549629Y-130603839D01*
X210480253Y-130595544D01*
X210426375Y-130551059D01*
X210410406Y-130517552D01*
X210390232Y-130451046D01*
X210292685Y-130268550D01*
X210217897Y-130177420D01*
X210161410Y-130108589D01*
X210043677Y-130011969D01*
X210001450Y-129977315D01*
X209818954Y-129879768D01*
X209620934Y-129819700D01*
X209620932Y-129819699D01*
X209620934Y-129819699D01*
X209415000Y-129799417D01*
X209209067Y-129819699D01*
X209011043Y-129879769D01*
X208900898Y-129938643D01*
X208828550Y-129977315D01*
X208828548Y-129977316D01*
X208828547Y-129977317D01*
X208668589Y-130108589D01*
X208537317Y-130268547D01*
X208439769Y-130451043D01*
X208379699Y-130649067D01*
X208359417Y-130855000D01*
X207930583Y-130855000D01*
X207910300Y-130649066D01*
X207850232Y-130451046D01*
X207752685Y-130268550D01*
X207677897Y-130177420D01*
X207621410Y-130108589D01*
X207503677Y-130011969D01*
X207461450Y-129977315D01*
X207278954Y-129879768D01*
X207080934Y-129819700D01*
X207080932Y-129819699D01*
X207080934Y-129819699D01*
X206875000Y-129799417D01*
X206669067Y-129819699D01*
X206471043Y-129879769D01*
X206360898Y-129938643D01*
X206288550Y-129977315D01*
X206288548Y-129977316D01*
X206288547Y-129977317D01*
X206128589Y-130108589D01*
X205997317Y-130268547D01*
X205899769Y-130451043D01*
X205839699Y-130649067D01*
X205819417Y-130855000D01*
X205839699Y-131060932D01*
X205839700Y-131060934D01*
X205899768Y-131258954D01*
X205997315Y-131441450D01*
X205997317Y-131441452D01*
X206128589Y-131601410D01*
X206134899Y-131606588D01*
X206288550Y-131732685D01*
X206471046Y-131830232D01*
X206537551Y-131850405D01*
X206595989Y-131888702D01*
X206624446Y-131952514D01*
X206613887Y-132021581D01*
X206567663Y-132073975D01*
X206533650Y-132088841D01*
X206411514Y-132121567D01*
X206411507Y-132121570D01*
X206197422Y-132221399D01*
X206197420Y-132221400D01*
X206003926Y-132356886D01*
X206003920Y-132356891D01*
X205836891Y-132523920D01*
X205836886Y-132523926D01*
X205701400Y-132717420D01*
X205701399Y-132717422D01*
X205601570Y-132931507D01*
X205601567Y-132931514D01*
X205568841Y-133053650D01*
X205532476Y-133113310D01*
X205469629Y-133143839D01*
X205400253Y-133135544D01*
X205346375Y-133091059D01*
X205330406Y-133057552D01*
X205310232Y-132991046D01*
X205212685Y-132808550D01*
X205137897Y-132717420D01*
X205081410Y-132648589D01*
X204931121Y-132525252D01*
X204921450Y-132517315D01*
X204738954Y-132419768D01*
X204540934Y-132359700D01*
X204540932Y-132359699D01*
X204540934Y-132359699D01*
X204335000Y-132339417D01*
X204129067Y-132359699D01*
X203994736Y-132400448D01*
X203931050Y-132419767D01*
X203931043Y-132419769D01*
X203890869Y-132441243D01*
X203748550Y-132517315D01*
X203748548Y-132517316D01*
X203748547Y-132517317D01*
X203588589Y-132648589D01*
X203457317Y-132808547D01*
X203457315Y-132808550D01*
X203418643Y-132880898D01*
X203359769Y-132991043D01*
X203299699Y-133189067D01*
X203279417Y-133395000D01*
X202850583Y-133395000D01*
X202830300Y-133189066D01*
X202770232Y-132991046D01*
X202672685Y-132808550D01*
X202597897Y-132717420D01*
X202541410Y-132648589D01*
X202391121Y-132525252D01*
X202381450Y-132517315D01*
X202198954Y-132419768D01*
X202000934Y-132359700D01*
X202000932Y-132359699D01*
X202000934Y-132359699D01*
X201795000Y-132339417D01*
X201589067Y-132359699D01*
X201454736Y-132400448D01*
X201391050Y-132419767D01*
X201391043Y-132419769D01*
X201350869Y-132441243D01*
X201208550Y-132517315D01*
X201208548Y-132517316D01*
X201208547Y-132517317D01*
X201048589Y-132648589D01*
X200917317Y-132808547D01*
X200917315Y-132808550D01*
X200878643Y-132880898D01*
X200819769Y-132991043D01*
X200759699Y-133189067D01*
X200739417Y-133395000D01*
X200759699Y-133600932D01*
X200768061Y-133628497D01*
X200812251Y-133774175D01*
X200819769Y-133798956D01*
X200827379Y-133813193D01*
X200841620Y-133881596D01*
X200816619Y-133946840D01*
X200805701Y-133959326D01*
X199185489Y-135579540D01*
X199129541Y-135635487D01*
X199129535Y-135635495D01*
X199089982Y-135704004D01*
X199089979Y-135704009D01*
X199069500Y-135780439D01*
X199069500Y-136526421D01*
X199049815Y-136593460D01*
X198997011Y-136639215D01*
X198981496Y-136645081D01*
X198966046Y-136649767D01*
X198878112Y-136696770D01*
X198783550Y-136747315D01*
X198783548Y-136747316D01*
X198783547Y-136747317D01*
X198623589Y-136878589D01*
X198492317Y-137038547D01*
X198394769Y-137221043D01*
X198334699Y-137419067D01*
X198314417Y-137625000D01*
X197885583Y-137625000D01*
X197865300Y-137419066D01*
X197805232Y-137221046D01*
X197707685Y-137038550D01*
X197632897Y-136947420D01*
X197576410Y-136878589D01*
X197458677Y-136781969D01*
X197416450Y-136747315D01*
X197233954Y-136649768D01*
X197035934Y-136589700D01*
X197035932Y-136589699D01*
X197035934Y-136589699D01*
X196830000Y-136569417D01*
X196624067Y-136589699D01*
X196489736Y-136630448D01*
X196426050Y-136649767D01*
X196426043Y-136649769D01*
X196338114Y-136696769D01*
X196243550Y-136747315D01*
X196243548Y-136747316D01*
X196243547Y-136747317D01*
X196083589Y-136878589D01*
X195952317Y-137038547D01*
X195854767Y-137221046D01*
X195834593Y-137287552D01*
X195796296Y-137345990D01*
X195732483Y-137374447D01*
X195663416Y-137363886D01*
X195611023Y-137317661D01*
X195596158Y-137283649D01*
X195563433Y-137161516D01*
X195563429Y-137161507D01*
X195463600Y-136947422D01*
X195463599Y-136947420D01*
X195328113Y-136753926D01*
X195328108Y-136753920D01*
X195161082Y-136586894D01*
X194967578Y-136451399D01*
X194829219Y-136386882D01*
X194776780Y-136340710D01*
X194757628Y-136273516D01*
X194777844Y-136206635D01*
X194831009Y-136161301D01*
X194881624Y-136150500D01*
X195678844Y-136150500D01*
X195678845Y-136150499D01*
X195833497Y-136119737D01*
X195979179Y-136059394D01*
X196110289Y-135971789D01*
X197336789Y-134745289D01*
X197348200Y-134728211D01*
X197424394Y-134614179D01*
X197484737Y-134468497D01*
X197515500Y-134313842D01*
X197515500Y-134119868D01*
X197535185Y-134052829D01*
X197543647Y-134041203D01*
X197552667Y-134030211D01*
X197592685Y-133981450D01*
X197690232Y-133798954D01*
X197750300Y-133600934D01*
X197770583Y-133395000D01*
X197750300Y-133189066D01*
X197690232Y-132991046D01*
X197592685Y-132808550D01*
X197517897Y-132717420D01*
X197461410Y-132648589D01*
X197311121Y-132525252D01*
X197301450Y-132517315D01*
X197118954Y-132419768D01*
X196920934Y-132359700D01*
X196920932Y-132359699D01*
X196920934Y-132359699D01*
X196715000Y-132339417D01*
X196509067Y-132359699D01*
X196374736Y-132400448D01*
X196311050Y-132419767D01*
X196311043Y-132419769D01*
X196270869Y-132441243D01*
X196128550Y-132517315D01*
X196128548Y-132517316D01*
X196128547Y-132517317D01*
X195968589Y-132648589D01*
X195837317Y-132808547D01*
X195837315Y-132808550D01*
X195798643Y-132880898D01*
X195739769Y-132991043D01*
X195679699Y-133189067D01*
X195659417Y-133395000D01*
X195679699Y-133600932D01*
X195739769Y-133798958D01*
X195793668Y-133899795D01*
X195807910Y-133968198D01*
X195782910Y-134033441D01*
X195771991Y-134045929D01*
X195304741Y-134513181D01*
X195243418Y-134546666D01*
X195217060Y-134549500D01*
X194738602Y-134549500D01*
X194671563Y-134529815D01*
X194625808Y-134477011D01*
X194615864Y-134407853D01*
X194644889Y-134344297D01*
X194680148Y-134316142D01*
X194761450Y-134272685D01*
X194921410Y-134141410D01*
X195052685Y-133981450D01*
X195150232Y-133798954D01*
X195210300Y-133600934D01*
X195230583Y-133395000D01*
X195210300Y-133189066D01*
X195150232Y-132991046D01*
X195052685Y-132808550D01*
X194977897Y-132717420D01*
X194921410Y-132648589D01*
X194771121Y-132525252D01*
X194761450Y-132517315D01*
X194578954Y-132419768D01*
X194380934Y-132359700D01*
X194380932Y-132359699D01*
X194380934Y-132359699D01*
X194175000Y-132339417D01*
X193969067Y-132359699D01*
X193834736Y-132400448D01*
X193771050Y-132419767D01*
X193771043Y-132419769D01*
X193730869Y-132441243D01*
X193588550Y-132517315D01*
X193588548Y-132517316D01*
X193588547Y-132517317D01*
X193428589Y-132648589D01*
X193297317Y-132808547D01*
X193297315Y-132808550D01*
X193258643Y-132880898D01*
X193199769Y-132991043D01*
X193139699Y-133189067D01*
X193119417Y-133395000D01*
X193139699Y-133600932D01*
X193148061Y-133628497D01*
X193199768Y-133798954D01*
X193297315Y-133981450D01*
X193331969Y-134023677D01*
X193428589Y-134141410D01*
X193525209Y-134220702D01*
X193588550Y-134272685D01*
X193669852Y-134316142D01*
X193719696Y-134365105D01*
X193735156Y-134433243D01*
X193711324Y-134498922D01*
X193655766Y-134541291D01*
X193611398Y-134549500D01*
X192198602Y-134549500D01*
X192131563Y-134529815D01*
X192085808Y-134477011D01*
X192075864Y-134407853D01*
X192104889Y-134344297D01*
X192140148Y-134316142D01*
X192221450Y-134272685D01*
X192381410Y-134141410D01*
X192512685Y-133981450D01*
X192610232Y-133798954D01*
X192670300Y-133600934D01*
X192690583Y-133395000D01*
X192670300Y-133189066D01*
X192610232Y-132991046D01*
X192512685Y-132808550D01*
X192437897Y-132717420D01*
X192381410Y-132648589D01*
X192231121Y-132525252D01*
X192221450Y-132517315D01*
X192038954Y-132419768D01*
X191972447Y-132399593D01*
X191914009Y-132361296D01*
X191885553Y-132297484D01*
X191896113Y-132228417D01*
X191942337Y-132176023D01*
X191976350Y-132161158D01*
X192098483Y-132128433D01*
X192098492Y-132128429D01*
X192312578Y-132028600D01*
X192506082Y-131893105D01*
X192673105Y-131726082D01*
X192808600Y-131532578D01*
X192908429Y-131318492D01*
X192908433Y-131318483D01*
X192941158Y-131196350D01*
X192977522Y-131136690D01*
X193040369Y-131106160D01*
X193109745Y-131114454D01*
X193163623Y-131158939D01*
X193179593Y-131192447D01*
X193199768Y-131258954D01*
X193297315Y-131441450D01*
X193297317Y-131441452D01*
X193428589Y-131601410D01*
X193434899Y-131606588D01*
X193588550Y-131732685D01*
X193771046Y-131830232D01*
X193969066Y-131890300D01*
X193969065Y-131890300D01*
X193987529Y-131892118D01*
X194175000Y-131910583D01*
X194380934Y-131890300D01*
X194578954Y-131830232D01*
X194761450Y-131732685D01*
X194921410Y-131601410D01*
X195052685Y-131441450D01*
X195150232Y-131258954D01*
X195210300Y-131060934D01*
X195230583Y-130855000D01*
X195659417Y-130855000D01*
X195679699Y-131060932D01*
X195679700Y-131060934D01*
X195739768Y-131258954D01*
X195837315Y-131441450D01*
X195837317Y-131441452D01*
X195968589Y-131601410D01*
X195974899Y-131606588D01*
X196128550Y-131732685D01*
X196311046Y-131830232D01*
X196509066Y-131890300D01*
X196509065Y-131890300D01*
X196527529Y-131892118D01*
X196715000Y-131910583D01*
X196920934Y-131890300D01*
X197118954Y-131830232D01*
X197301450Y-131732685D01*
X197461410Y-131601410D01*
X197592685Y-131441450D01*
X197690232Y-131258954D01*
X197710406Y-131192446D01*
X197748702Y-131134010D01*
X197812514Y-131105553D01*
X197881581Y-131116112D01*
X197933975Y-131162336D01*
X197948841Y-131196349D01*
X197981567Y-131318486D01*
X197981570Y-131318492D01*
X198081399Y-131532578D01*
X198216894Y-131726082D01*
X198383917Y-131893105D01*
X198577421Y-132028600D01*
X198791507Y-132128429D01*
X198791516Y-132128433D01*
X198913649Y-132161158D01*
X198973310Y-132197523D01*
X199003839Y-132260369D01*
X198995545Y-132329745D01*
X198951059Y-132383623D01*
X198917552Y-132399593D01*
X198851046Y-132419767D01*
X198763112Y-132466770D01*
X198668550Y-132517315D01*
X198668548Y-132517316D01*
X198668547Y-132517317D01*
X198508589Y-132648589D01*
X198377317Y-132808547D01*
X198377315Y-132808550D01*
X198338643Y-132880898D01*
X198279769Y-132991043D01*
X198219699Y-133189067D01*
X198199417Y-133395000D01*
X198219699Y-133600932D01*
X198228061Y-133628497D01*
X198279768Y-133798954D01*
X198377315Y-133981450D01*
X198411969Y-134023677D01*
X198508589Y-134141410D01*
X198605209Y-134220702D01*
X198668550Y-134272685D01*
X198851046Y-134370232D01*
X199049066Y-134430300D01*
X199049065Y-134430300D01*
X199067529Y-134432118D01*
X199255000Y-134450583D01*
X199460934Y-134430300D01*
X199658954Y-134370232D01*
X199841450Y-134272685D01*
X200001410Y-134141410D01*
X200132685Y-133981450D01*
X200230232Y-133798954D01*
X200290300Y-133600934D01*
X200310583Y-133395000D01*
X200290300Y-133189066D01*
X200230232Y-132991046D01*
X200132685Y-132808550D01*
X200057897Y-132717420D01*
X200001410Y-132648589D01*
X199851121Y-132525252D01*
X199841450Y-132517315D01*
X199658954Y-132419768D01*
X199592447Y-132399593D01*
X199534009Y-132361296D01*
X199505553Y-132297484D01*
X199516113Y-132228417D01*
X199562337Y-132176023D01*
X199596350Y-132161158D01*
X199718483Y-132128433D01*
X199718492Y-132128429D01*
X199932578Y-132028600D01*
X200126082Y-131893105D01*
X200293105Y-131726082D01*
X200428600Y-131532578D01*
X200528429Y-131318492D01*
X200528433Y-131318483D01*
X200561158Y-131196350D01*
X200597522Y-131136690D01*
X200660369Y-131106160D01*
X200729745Y-131114454D01*
X200783623Y-131158939D01*
X200799593Y-131192447D01*
X200819768Y-131258954D01*
X200917315Y-131441450D01*
X200917317Y-131441452D01*
X201048589Y-131601410D01*
X201054899Y-131606588D01*
X201208550Y-131732685D01*
X201391046Y-131830232D01*
X201589066Y-131890300D01*
X201589065Y-131890300D01*
X201607529Y-131892118D01*
X201795000Y-131910583D01*
X202000934Y-131890300D01*
X202198954Y-131830232D01*
X202381450Y-131732685D01*
X202541410Y-131601410D01*
X202672685Y-131441450D01*
X202770232Y-131258954D01*
X202830300Y-131060934D01*
X202850583Y-130855000D01*
X203279417Y-130855000D01*
X203299699Y-131060932D01*
X203299700Y-131060934D01*
X203359768Y-131258954D01*
X203457315Y-131441450D01*
X203457317Y-131441452D01*
X203588589Y-131601410D01*
X203594899Y-131606588D01*
X203748550Y-131732685D01*
X203931046Y-131830232D01*
X204129066Y-131890300D01*
X204129065Y-131890300D01*
X204147529Y-131892118D01*
X204335000Y-131910583D01*
X204540934Y-131890300D01*
X204738954Y-131830232D01*
X204921450Y-131732685D01*
X205081410Y-131601410D01*
X205212685Y-131441450D01*
X205310232Y-131258954D01*
X205370300Y-131060934D01*
X205390583Y-130855000D01*
X205370300Y-130649066D01*
X205310232Y-130451046D01*
X205212685Y-130268550D01*
X205137897Y-130177420D01*
X205081410Y-130108589D01*
X204963677Y-130011969D01*
X204921450Y-129977315D01*
X204738954Y-129879768D01*
X204540934Y-129819700D01*
X204540932Y-129819699D01*
X204540934Y-129819699D01*
X204335000Y-129799417D01*
X204129067Y-129819699D01*
X203931043Y-129879769D01*
X203820898Y-129938643D01*
X203748550Y-129977315D01*
X203748548Y-129977316D01*
X203748547Y-129977317D01*
X203588589Y-130108589D01*
X203457317Y-130268547D01*
X203359769Y-130451043D01*
X203299699Y-130649067D01*
X203279417Y-130855000D01*
X202850583Y-130855000D01*
X202830300Y-130649066D01*
X202770232Y-130451046D01*
X202672685Y-130268550D01*
X202597897Y-130177420D01*
X202541410Y-130108589D01*
X202423677Y-130011969D01*
X202381450Y-129977315D01*
X202198954Y-129879768D01*
X202000934Y-129819700D01*
X202000932Y-129819699D01*
X202000934Y-129819699D01*
X201795000Y-129799417D01*
X201589067Y-129819699D01*
X201391043Y-129879769D01*
X201280898Y-129938643D01*
X201208550Y-129977315D01*
X201208548Y-129977316D01*
X201208547Y-129977317D01*
X201048589Y-130108589D01*
X200917317Y-130268547D01*
X200819767Y-130451046D01*
X200799593Y-130517552D01*
X200761296Y-130575990D01*
X200697483Y-130604447D01*
X200628416Y-130593886D01*
X200576023Y-130547661D01*
X200561158Y-130513649D01*
X200528433Y-130391516D01*
X200528429Y-130391507D01*
X200428600Y-130177422D01*
X200428599Y-130177420D01*
X200293113Y-129983926D01*
X200293108Y-129983920D01*
X200126082Y-129816894D01*
X199932578Y-129681399D01*
X199718492Y-129581570D01*
X199718486Y-129581567D01*
X199505000Y-129524364D01*
X199505000Y-130421988D01*
X199447993Y-130389075D01*
X199320826Y-130355000D01*
X199189174Y-130355000D01*
X199062007Y-130389075D01*
X199005000Y-130421988D01*
X199005000Y-129524364D01*
X199004999Y-129524364D01*
X198791513Y-129581567D01*
X198791507Y-129581570D01*
X198577422Y-129681399D01*
X198577420Y-129681400D01*
X198383926Y-129816886D01*
X198383920Y-129816891D01*
X198216891Y-129983920D01*
X198216886Y-129983926D01*
X198081400Y-130177420D01*
X198081399Y-130177422D01*
X197981570Y-130391507D01*
X197981567Y-130391514D01*
X197948841Y-130513650D01*
X197912476Y-130573310D01*
X197849629Y-130603839D01*
X197780253Y-130595544D01*
X197726375Y-130551059D01*
X197710406Y-130517552D01*
X197690232Y-130451046D01*
X197592685Y-130268550D01*
X197517897Y-130177420D01*
X197461410Y-130108589D01*
X197343677Y-130011969D01*
X197301450Y-129977315D01*
X197118954Y-129879768D01*
X196920934Y-129819700D01*
X196920932Y-129819699D01*
X196920934Y-129819699D01*
X196715000Y-129799417D01*
X196509067Y-129819699D01*
X196311043Y-129879769D01*
X196200898Y-129938643D01*
X196128550Y-129977315D01*
X196128548Y-129977316D01*
X196128547Y-129977317D01*
X195968589Y-130108589D01*
X195837317Y-130268547D01*
X195739769Y-130451043D01*
X195679699Y-130649067D01*
X195659417Y-130855000D01*
X195230583Y-130855000D01*
X195210300Y-130649066D01*
X195150232Y-130451046D01*
X195052685Y-130268550D01*
X194977897Y-130177420D01*
X194921410Y-130108589D01*
X194803677Y-130011969D01*
X194761450Y-129977315D01*
X194578954Y-129879768D01*
X194380934Y-129819700D01*
X194380932Y-129819699D01*
X194380934Y-129819699D01*
X194175000Y-129799417D01*
X193969067Y-129819699D01*
X193771043Y-129879769D01*
X193660898Y-129938643D01*
X193588550Y-129977315D01*
X193588548Y-129977316D01*
X193588547Y-129977317D01*
X193428589Y-130108589D01*
X193297317Y-130268547D01*
X193199767Y-130451046D01*
X193179593Y-130517552D01*
X193141296Y-130575990D01*
X193077483Y-130604447D01*
X193008416Y-130593886D01*
X192956023Y-130547661D01*
X192941158Y-130513649D01*
X192908433Y-130391516D01*
X192908429Y-130391507D01*
X192808600Y-130177422D01*
X192808599Y-130177420D01*
X192673113Y-129983926D01*
X192673108Y-129983920D01*
X192506082Y-129816894D01*
X192312578Y-129681399D01*
X192098492Y-129581570D01*
X192098486Y-129581567D01*
X191885000Y-129524364D01*
X191885000Y-130421988D01*
X191827993Y-130389075D01*
X191700826Y-130355000D01*
X191569174Y-130355000D01*
X191442007Y-130389075D01*
X191385000Y-130421988D01*
X191385000Y-129524364D01*
X191384999Y-129524364D01*
X191171513Y-129581567D01*
X191171507Y-129581570D01*
X190957422Y-129681399D01*
X190957420Y-129681400D01*
X190763926Y-129816886D01*
X190763920Y-129816891D01*
X190596891Y-129983920D01*
X190596886Y-129983926D01*
X190461400Y-130177420D01*
X190461399Y-130177422D01*
X190361570Y-130391507D01*
X190361567Y-130391514D01*
X190328841Y-130513650D01*
X190292476Y-130573310D01*
X190229629Y-130603839D01*
X190160253Y-130595544D01*
X190106375Y-130551059D01*
X190090406Y-130517552D01*
X190070232Y-130451046D01*
X189972685Y-130268550D01*
X189897897Y-130177420D01*
X189841410Y-130108589D01*
X189723677Y-130011969D01*
X189681450Y-129977315D01*
X189498954Y-129879768D01*
X189300934Y-129819700D01*
X189300932Y-129819699D01*
X189300934Y-129819699D01*
X189095000Y-129799417D01*
X188889067Y-129819699D01*
X188691043Y-129879769D01*
X188580898Y-129938643D01*
X188508550Y-129977315D01*
X188508548Y-129977316D01*
X188508547Y-129977317D01*
X188348589Y-130108589D01*
X188217317Y-130268547D01*
X188119769Y-130451043D01*
X188059699Y-130649067D01*
X188039417Y-130855000D01*
X188059699Y-131060932D01*
X188059700Y-131060934D01*
X188119768Y-131258954D01*
X188217315Y-131441450D01*
X188217317Y-131441452D01*
X188348589Y-131601410D01*
X188354899Y-131606588D01*
X188508550Y-131732685D01*
X188691046Y-131830232D01*
X188889066Y-131890300D01*
X188889065Y-131890300D01*
X188907529Y-131892118D01*
X189095000Y-131910583D01*
X189300934Y-131890300D01*
X189498954Y-131830232D01*
X189681450Y-131732685D01*
X189841410Y-131601410D01*
X189972685Y-131441450D01*
X190070232Y-131258954D01*
X190090406Y-131192446D01*
X190128702Y-131134010D01*
X190192514Y-131105553D01*
X190261581Y-131116112D01*
X190313975Y-131162336D01*
X190328841Y-131196349D01*
X190361567Y-131318486D01*
X190361570Y-131318492D01*
X190461399Y-131532578D01*
X190596894Y-131726082D01*
X190763917Y-131893105D01*
X190957421Y-132028600D01*
X191171507Y-132128429D01*
X191171516Y-132128433D01*
X191293649Y-132161158D01*
X191353310Y-132197523D01*
X191383839Y-132260369D01*
X191375545Y-132329745D01*
X191331059Y-132383623D01*
X191297552Y-132399593D01*
X191231046Y-132419767D01*
X191143112Y-132466770D01*
X191048550Y-132517315D01*
X191048548Y-132517316D01*
X191048547Y-132517317D01*
X190888589Y-132648589D01*
X190757317Y-132808547D01*
X190757315Y-132808550D01*
X190718643Y-132880898D01*
X190659769Y-132991043D01*
X190599699Y-133189067D01*
X190579417Y-133395000D01*
X190599699Y-133600932D01*
X190608061Y-133628497D01*
X190659768Y-133798954D01*
X190757315Y-133981450D01*
X190791969Y-134023677D01*
X190888589Y-134141410D01*
X190985209Y-134220702D01*
X191048550Y-134272685D01*
X191129852Y-134316142D01*
X191179696Y-134365105D01*
X191195156Y-134433243D01*
X191171324Y-134498922D01*
X191115766Y-134541291D01*
X191071398Y-134549500D01*
X189821153Y-134549500D01*
X189666510Y-134580260D01*
X189666502Y-134580262D01*
X189520824Y-134640604D01*
X189520814Y-134640609D01*
X189389713Y-134728209D01*
X189389707Y-134728213D01*
X188759711Y-135358211D01*
X188703960Y-135413962D01*
X188648209Y-135469712D01*
X188560609Y-135600814D01*
X188560602Y-135600827D01*
X188500264Y-135746498D01*
X188500261Y-135746510D01*
X188469500Y-135901153D01*
X188469500Y-136425500D01*
X188449815Y-136492539D01*
X188397011Y-136538294D01*
X188345500Y-136549500D01*
X184839869Y-136549500D01*
X184772830Y-136529815D01*
X184761205Y-136521354D01*
X184726093Y-136492539D01*
X184701450Y-136472315D01*
X184518954Y-136374768D01*
X184320934Y-136314700D01*
X184320932Y-136314699D01*
X184320934Y-136314699D01*
X184115000Y-136294417D01*
X183909067Y-136314699D01*
X183711043Y-136374769D01*
X183692169Y-136384858D01*
X183633715Y-136399500D01*
X182056285Y-136399500D01*
X181997831Y-136384858D01*
X181978956Y-136374769D01*
X181978955Y-136374768D01*
X181978954Y-136374768D01*
X181780934Y-136314700D01*
X181780932Y-136314699D01*
X181780934Y-136314699D01*
X181575000Y-136294417D01*
X181369067Y-136314699D01*
X181171043Y-136374769D01*
X181152169Y-136384858D01*
X181093715Y-136399500D01*
X179516285Y-136399500D01*
X179457831Y-136384858D01*
X179438956Y-136374769D01*
X179438955Y-136374768D01*
X179438954Y-136374768D01*
X179240934Y-136314700D01*
X179240932Y-136314699D01*
X179240934Y-136314699D01*
X179035000Y-136294417D01*
X178829067Y-136314699D01*
X178631043Y-136374769D01*
X178612169Y-136384858D01*
X178553715Y-136399500D01*
X176976285Y-136399500D01*
X176917831Y-136384858D01*
X176898956Y-136374769D01*
X176898955Y-136374768D01*
X176898954Y-136374768D01*
X176700934Y-136314700D01*
X176700932Y-136314699D01*
X176700934Y-136314699D01*
X176495000Y-136294417D01*
X176289067Y-136314699D01*
X176091043Y-136374769D01*
X176072169Y-136384858D01*
X176013715Y-136399500D01*
X174436285Y-136399500D01*
X174377831Y-136384858D01*
X174358956Y-136374769D01*
X174358955Y-136374768D01*
X174358954Y-136374768D01*
X174160934Y-136314700D01*
X174160932Y-136314699D01*
X174160934Y-136314699D01*
X173955000Y-136294417D01*
X173749067Y-136314699D01*
X173551043Y-136374769D01*
X173456134Y-136425500D01*
X173368550Y-136472315D01*
X173368548Y-136472316D01*
X173368547Y-136472317D01*
X173208589Y-136603589D01*
X173077317Y-136763547D01*
X172979769Y-136946043D01*
X172919699Y-137144067D01*
X172899417Y-137350000D01*
X168475000Y-137350000D01*
X168475000Y-132018713D01*
X170174500Y-132018713D01*
X170174500Y-132231286D01*
X170204352Y-132419768D01*
X170207754Y-132441243D01*
X170235050Y-132525252D01*
X170273444Y-132643414D01*
X170369951Y-132832820D01*
X170494890Y-133004786D01*
X170645213Y-133155109D01*
X170817179Y-133280048D01*
X170817181Y-133280049D01*
X170817184Y-133280051D01*
X171006588Y-133376557D01*
X171208757Y-133442246D01*
X171418713Y-133475500D01*
X171418714Y-133475500D01*
X171631286Y-133475500D01*
X171631287Y-133475500D01*
X171841243Y-133442246D01*
X172043412Y-133376557D01*
X172161962Y-133316153D01*
X175204500Y-133316153D01*
X175204500Y-133473846D01*
X175235261Y-133628489D01*
X175235264Y-133628501D01*
X175295603Y-133774174D01*
X175295604Y-133774175D01*
X175295606Y-133774179D01*
X175312161Y-133798955D01*
X175323602Y-133816077D01*
X175344480Y-133882754D01*
X175344500Y-133884968D01*
X175344500Y-134264752D01*
X175356131Y-134323229D01*
X175356132Y-134323230D01*
X175400447Y-134389552D01*
X175466769Y-134433867D01*
X175466770Y-134433868D01*
X175525247Y-134445499D01*
X175525250Y-134445500D01*
X175525252Y-134445500D01*
X177264750Y-134445500D01*
X177264751Y-134445499D01*
X177279568Y-134442552D01*
X177323229Y-134433868D01*
X177323229Y-134433867D01*
X177323231Y-134433867D01*
X177389552Y-134389552D01*
X177433867Y-134323231D01*
X177433867Y-134323229D01*
X177433868Y-134323229D01*
X177443922Y-134272682D01*
X177445500Y-134264748D01*
X177445500Y-133395000D01*
X177879417Y-133395000D01*
X177899699Y-133600932D01*
X177908061Y-133628497D01*
X177959768Y-133798954D01*
X178057315Y-133981450D01*
X178091969Y-134023677D01*
X178188589Y-134141410D01*
X178285209Y-134220702D01*
X178348550Y-134272685D01*
X178531046Y-134370232D01*
X178729066Y-134430300D01*
X178729065Y-134430300D01*
X178747529Y-134432118D01*
X178935000Y-134450583D01*
X179140934Y-134430300D01*
X179338954Y-134370232D01*
X179521450Y-134272685D01*
X179681410Y-134141410D01*
X179812685Y-133981450D01*
X179910232Y-133798954D01*
X179970300Y-133600934D01*
X179990583Y-133395000D01*
X179970300Y-133189066D01*
X179910232Y-132991046D01*
X179812685Y-132808550D01*
X179737897Y-132717420D01*
X179681410Y-132648589D01*
X179531121Y-132525252D01*
X179521450Y-132517315D01*
X179338954Y-132419768D01*
X179140934Y-132359700D01*
X179140932Y-132359699D01*
X179140934Y-132359699D01*
X178935000Y-132339417D01*
X178729067Y-132359699D01*
X178594736Y-132400448D01*
X178531050Y-132419767D01*
X178531043Y-132419769D01*
X178490869Y-132441243D01*
X178348550Y-132517315D01*
X178348548Y-132517316D01*
X178348547Y-132517317D01*
X178188589Y-132648589D01*
X178057317Y-132808547D01*
X178057315Y-132808550D01*
X178018643Y-132880898D01*
X177959769Y-132991043D01*
X177899699Y-133189067D01*
X177879417Y-133395000D01*
X177445500Y-133395000D01*
X177445500Y-132525252D01*
X177445500Y-132525249D01*
X177445499Y-132525247D01*
X177433868Y-132466770D01*
X177433867Y-132466769D01*
X177389552Y-132400447D01*
X177323230Y-132356132D01*
X177323229Y-132356131D01*
X177264752Y-132344500D01*
X177264748Y-132344500D01*
X175525252Y-132344500D01*
X175525247Y-132344500D01*
X175466770Y-132356131D01*
X175466769Y-132356132D01*
X175400447Y-132400447D01*
X175356132Y-132466769D01*
X175356131Y-132466770D01*
X175344500Y-132525247D01*
X175344500Y-132905030D01*
X175324815Y-132972069D01*
X175323602Y-132973921D01*
X175295609Y-133015814D01*
X175295602Y-133015827D01*
X175235264Y-133161498D01*
X175235261Y-133161510D01*
X175204500Y-133316153D01*
X172161962Y-133316153D01*
X172232816Y-133280051D01*
X172254789Y-133264086D01*
X172404786Y-133155109D01*
X172404788Y-133155106D01*
X172404792Y-133155104D01*
X172555104Y-133004792D01*
X172555106Y-133004788D01*
X172555109Y-133004786D01*
X172680048Y-132832820D01*
X172680047Y-132832820D01*
X172680051Y-132832816D01*
X172776557Y-132643412D01*
X172842246Y-132441243D01*
X172875500Y-132231287D01*
X172875500Y-132018713D01*
X172842246Y-131808757D01*
X172776557Y-131606588D01*
X172680051Y-131417184D01*
X172680049Y-131417181D01*
X172680048Y-131417179D01*
X172555109Y-131245213D01*
X172404786Y-131094890D01*
X172232820Y-130969951D01*
X172043414Y-130873444D01*
X172043413Y-130873443D01*
X172043412Y-130873443D01*
X171986651Y-130855000D01*
X175339417Y-130855000D01*
X175359699Y-131060932D01*
X175359700Y-131060934D01*
X175419768Y-131258954D01*
X175517315Y-131441450D01*
X175517317Y-131441452D01*
X175648589Y-131601410D01*
X175654899Y-131606588D01*
X175808550Y-131732685D01*
X175991046Y-131830232D01*
X176189066Y-131890300D01*
X176189065Y-131890300D01*
X176207529Y-131892118D01*
X176395000Y-131910583D01*
X176600934Y-131890300D01*
X176798954Y-131830232D01*
X176981450Y-131732685D01*
X177141410Y-131601410D01*
X177272685Y-131441450D01*
X177370232Y-131258954D01*
X177430300Y-131060934D01*
X177450583Y-130855000D01*
X177879417Y-130855000D01*
X177899699Y-131060932D01*
X177899700Y-131060934D01*
X177959768Y-131258954D01*
X178057315Y-131441450D01*
X178057317Y-131441452D01*
X178188589Y-131601410D01*
X178194899Y-131606588D01*
X178348550Y-131732685D01*
X178531046Y-131830232D01*
X178729066Y-131890300D01*
X178729065Y-131890300D01*
X178747529Y-131892118D01*
X178935000Y-131910583D01*
X179140934Y-131890300D01*
X179338954Y-131830232D01*
X179521450Y-131732685D01*
X179681410Y-131601410D01*
X179812685Y-131441450D01*
X179910232Y-131258954D01*
X179930406Y-131192446D01*
X179968702Y-131134010D01*
X180032514Y-131105553D01*
X180101581Y-131116112D01*
X180153975Y-131162336D01*
X180168841Y-131196349D01*
X180201567Y-131318486D01*
X180201570Y-131318492D01*
X180301399Y-131532578D01*
X180436894Y-131726082D01*
X180603917Y-131893105D01*
X180797421Y-132028600D01*
X181011507Y-132128429D01*
X181011516Y-132128433D01*
X181133649Y-132161158D01*
X181193310Y-132197523D01*
X181223839Y-132260369D01*
X181215545Y-132329745D01*
X181171059Y-132383623D01*
X181137552Y-132399593D01*
X181071046Y-132419767D01*
X180983112Y-132466770D01*
X180888550Y-132517315D01*
X180888548Y-132517316D01*
X180888547Y-132517317D01*
X180728589Y-132648589D01*
X180597317Y-132808547D01*
X180597315Y-132808550D01*
X180558643Y-132880898D01*
X180499769Y-132991043D01*
X180439699Y-133189067D01*
X180419417Y-133395000D01*
X180439699Y-133600932D01*
X180448061Y-133628497D01*
X180499768Y-133798954D01*
X180597315Y-133981450D01*
X180631969Y-134023677D01*
X180728589Y-134141410D01*
X180825209Y-134220702D01*
X180888550Y-134272685D01*
X181071046Y-134370232D01*
X181269066Y-134430300D01*
X181269065Y-134430300D01*
X181287529Y-134432118D01*
X181475000Y-134450583D01*
X181680934Y-134430300D01*
X181878954Y-134370232D01*
X182061450Y-134272685D01*
X182221410Y-134141410D01*
X182352685Y-133981450D01*
X182450232Y-133798954D01*
X182510300Y-133600934D01*
X182530583Y-133395000D01*
X182959417Y-133395000D01*
X182979699Y-133600932D01*
X182988061Y-133628497D01*
X183039768Y-133798954D01*
X183137315Y-133981450D01*
X183171969Y-134023677D01*
X183268589Y-134141410D01*
X183365209Y-134220702D01*
X183428550Y-134272685D01*
X183611046Y-134370232D01*
X183809066Y-134430300D01*
X183809065Y-134430300D01*
X183827529Y-134432118D01*
X184015000Y-134450583D01*
X184220934Y-134430300D01*
X184418954Y-134370232D01*
X184601450Y-134272685D01*
X184761410Y-134141410D01*
X184892685Y-133981450D01*
X184990232Y-133798954D01*
X185010406Y-133732446D01*
X185048702Y-133674010D01*
X185112514Y-133645553D01*
X185181581Y-133656112D01*
X185233975Y-133702336D01*
X185248841Y-133736349D01*
X185281567Y-133858486D01*
X185281570Y-133858492D01*
X185381399Y-134072578D01*
X185516894Y-134266082D01*
X185683917Y-134433105D01*
X185877421Y-134568600D01*
X186091507Y-134668429D01*
X186091516Y-134668433D01*
X186305000Y-134725634D01*
X186305000Y-133828012D01*
X186362007Y-133860925D01*
X186489174Y-133895000D01*
X186620826Y-133895000D01*
X186747993Y-133860925D01*
X186805000Y-133828012D01*
X186805000Y-134725633D01*
X187018483Y-134668433D01*
X187018492Y-134668429D01*
X187232578Y-134568600D01*
X187426082Y-134433105D01*
X187593105Y-134266082D01*
X187728600Y-134072578D01*
X187828429Y-133858492D01*
X187828433Y-133858483D01*
X187861158Y-133736350D01*
X187897522Y-133676690D01*
X187960369Y-133646160D01*
X188029745Y-133654454D01*
X188083623Y-133698939D01*
X188099593Y-133732447D01*
X188119768Y-133798954D01*
X188217315Y-133981450D01*
X188251969Y-134023677D01*
X188348589Y-134141410D01*
X188445209Y-134220702D01*
X188508550Y-134272685D01*
X188691046Y-134370232D01*
X188889066Y-134430300D01*
X188889065Y-134430300D01*
X188907529Y-134432118D01*
X189095000Y-134450583D01*
X189300934Y-134430300D01*
X189498954Y-134370232D01*
X189681450Y-134272685D01*
X189841410Y-134141410D01*
X189972685Y-133981450D01*
X190070232Y-133798954D01*
X190130300Y-133600934D01*
X190150583Y-133395000D01*
X190130300Y-133189066D01*
X190070232Y-132991046D01*
X189972685Y-132808550D01*
X189897897Y-132717420D01*
X189841410Y-132648589D01*
X189691121Y-132525252D01*
X189681450Y-132517315D01*
X189498954Y-132419768D01*
X189300934Y-132359700D01*
X189300932Y-132359699D01*
X189300934Y-132359699D01*
X189095000Y-132339417D01*
X188889067Y-132359699D01*
X188754736Y-132400448D01*
X188691050Y-132419767D01*
X188691043Y-132419769D01*
X188650869Y-132441243D01*
X188508550Y-132517315D01*
X188508548Y-132517316D01*
X188508547Y-132517317D01*
X188348589Y-132648589D01*
X188217317Y-132808547D01*
X188217315Y-132808550D01*
X188189622Y-132860358D01*
X188119767Y-132991046D01*
X188099593Y-133057552D01*
X188061296Y-133115990D01*
X187997483Y-133144447D01*
X187928416Y-133133886D01*
X187876023Y-133087661D01*
X187861158Y-133053649D01*
X187828433Y-132931516D01*
X187828429Y-132931507D01*
X187728600Y-132717422D01*
X187728599Y-132717420D01*
X187593113Y-132523926D01*
X187593108Y-132523920D01*
X187426082Y-132356894D01*
X187232578Y-132221399D01*
X187018492Y-132121570D01*
X187018486Y-132121567D01*
X186896349Y-132088841D01*
X186836689Y-132052476D01*
X186806160Y-131989629D01*
X186814455Y-131920253D01*
X186858940Y-131866375D01*
X186892444Y-131850407D01*
X186958954Y-131830232D01*
X187141450Y-131732685D01*
X187301410Y-131601410D01*
X187432685Y-131441450D01*
X187530232Y-131258954D01*
X187590300Y-131060934D01*
X187610583Y-130855000D01*
X187590300Y-130649066D01*
X187530232Y-130451046D01*
X187432685Y-130268550D01*
X187357897Y-130177420D01*
X187301410Y-130108589D01*
X187183677Y-130011969D01*
X187141450Y-129977315D01*
X186958954Y-129879768D01*
X186760934Y-129819700D01*
X186760932Y-129819699D01*
X186760934Y-129819699D01*
X186555000Y-129799417D01*
X186349067Y-129819699D01*
X186151043Y-129879769D01*
X186040898Y-129938643D01*
X185968550Y-129977315D01*
X185968548Y-129977316D01*
X185968547Y-129977317D01*
X185808589Y-130108589D01*
X185677317Y-130268547D01*
X185579769Y-130451043D01*
X185519699Y-130649067D01*
X185499417Y-130855000D01*
X185519699Y-131060932D01*
X185519700Y-131060934D01*
X185579768Y-131258954D01*
X185677315Y-131441450D01*
X185677317Y-131441452D01*
X185808589Y-131601410D01*
X185814899Y-131606588D01*
X185968550Y-131732685D01*
X186151046Y-131830232D01*
X186217551Y-131850405D01*
X186275989Y-131888702D01*
X186304446Y-131952514D01*
X186293887Y-132021581D01*
X186247663Y-132073975D01*
X186213650Y-132088841D01*
X186091514Y-132121567D01*
X186091507Y-132121570D01*
X185877422Y-132221399D01*
X185877420Y-132221400D01*
X185683926Y-132356886D01*
X185683920Y-132356891D01*
X185516891Y-132523920D01*
X185516886Y-132523926D01*
X185381400Y-132717420D01*
X185381399Y-132717422D01*
X185281570Y-132931507D01*
X185281567Y-132931514D01*
X185248841Y-133053650D01*
X185212476Y-133113310D01*
X185149629Y-133143839D01*
X185080253Y-133135544D01*
X185026375Y-133091059D01*
X185010406Y-133057552D01*
X184990232Y-132991046D01*
X184892685Y-132808550D01*
X184817897Y-132717420D01*
X184761410Y-132648589D01*
X184611121Y-132525252D01*
X184601450Y-132517315D01*
X184418954Y-132419768D01*
X184220934Y-132359700D01*
X184220932Y-132359699D01*
X184220934Y-132359699D01*
X184015000Y-132339417D01*
X183809067Y-132359699D01*
X183674736Y-132400448D01*
X183611050Y-132419767D01*
X183611043Y-132419769D01*
X183570869Y-132441243D01*
X183428550Y-132517315D01*
X183428548Y-132517316D01*
X183428547Y-132517317D01*
X183268589Y-132648589D01*
X183137317Y-132808547D01*
X183137315Y-132808550D01*
X183098643Y-132880898D01*
X183039769Y-132991043D01*
X182979699Y-133189067D01*
X182959417Y-133395000D01*
X182530583Y-133395000D01*
X182510300Y-133189066D01*
X182450232Y-132991046D01*
X182352685Y-132808550D01*
X182277897Y-132717420D01*
X182221410Y-132648589D01*
X182071121Y-132525252D01*
X182061450Y-132517315D01*
X181878954Y-132419768D01*
X181812447Y-132399593D01*
X181754009Y-132361296D01*
X181725553Y-132297484D01*
X181736113Y-132228417D01*
X181782337Y-132176023D01*
X181816350Y-132161158D01*
X181938483Y-132128433D01*
X181938492Y-132128429D01*
X182152578Y-132028600D01*
X182346082Y-131893105D01*
X182513105Y-131726082D01*
X182648600Y-131532578D01*
X182748429Y-131318492D01*
X182748433Y-131318483D01*
X182781158Y-131196350D01*
X182817522Y-131136690D01*
X182880369Y-131106160D01*
X182949745Y-131114454D01*
X183003623Y-131158939D01*
X183019593Y-131192447D01*
X183039768Y-131258954D01*
X183137315Y-131441450D01*
X183137317Y-131441452D01*
X183268589Y-131601410D01*
X183274899Y-131606588D01*
X183428550Y-131732685D01*
X183611046Y-131830232D01*
X183809066Y-131890300D01*
X183809065Y-131890300D01*
X183827529Y-131892118D01*
X184015000Y-131910583D01*
X184220934Y-131890300D01*
X184418954Y-131830232D01*
X184601450Y-131732685D01*
X184761410Y-131601410D01*
X184892685Y-131441450D01*
X184990232Y-131258954D01*
X185050300Y-131060934D01*
X185070583Y-130855000D01*
X185050300Y-130649066D01*
X184990232Y-130451046D01*
X184892685Y-130268550D01*
X184817897Y-130177420D01*
X184761410Y-130108589D01*
X184643677Y-130011969D01*
X184601450Y-129977315D01*
X184418954Y-129879768D01*
X184220934Y-129819700D01*
X184220932Y-129819699D01*
X184220934Y-129819699D01*
X184015000Y-129799417D01*
X183809067Y-129819699D01*
X183611043Y-129879769D01*
X183500898Y-129938643D01*
X183428550Y-129977315D01*
X183428548Y-129977316D01*
X183428547Y-129977317D01*
X183268589Y-130108589D01*
X183137317Y-130268547D01*
X183039767Y-130451046D01*
X183019593Y-130517552D01*
X182981296Y-130575990D01*
X182917483Y-130604447D01*
X182848416Y-130593886D01*
X182796023Y-130547661D01*
X182781158Y-130513649D01*
X182748433Y-130391516D01*
X182748429Y-130391507D01*
X182648600Y-130177422D01*
X182648599Y-130177420D01*
X182513113Y-129983926D01*
X182513108Y-129983920D01*
X182346082Y-129816894D01*
X182152578Y-129681399D01*
X181938492Y-129581570D01*
X181938486Y-129581567D01*
X181725000Y-129524364D01*
X181725000Y-130421988D01*
X181667993Y-130389075D01*
X181540826Y-130355000D01*
X181409174Y-130355000D01*
X181282007Y-130389075D01*
X181225000Y-130421988D01*
X181225000Y-129524364D01*
X181224999Y-129524364D01*
X181011513Y-129581567D01*
X181011507Y-129581570D01*
X180797422Y-129681399D01*
X180797420Y-129681400D01*
X180603926Y-129816886D01*
X180603920Y-129816891D01*
X180436891Y-129983920D01*
X180436886Y-129983926D01*
X180301400Y-130177420D01*
X180301399Y-130177422D01*
X180201570Y-130391507D01*
X180201567Y-130391514D01*
X180168841Y-130513650D01*
X180132476Y-130573310D01*
X180069629Y-130603839D01*
X180000253Y-130595544D01*
X179946375Y-130551059D01*
X179930406Y-130517552D01*
X179910232Y-130451046D01*
X179812685Y-130268550D01*
X179737897Y-130177420D01*
X179681410Y-130108589D01*
X179563677Y-130011969D01*
X179521450Y-129977315D01*
X179338954Y-129879768D01*
X179140934Y-129819700D01*
X179140932Y-129819699D01*
X179140934Y-129819699D01*
X178935000Y-129799417D01*
X178729067Y-129819699D01*
X178531043Y-129879769D01*
X178420898Y-129938643D01*
X178348550Y-129977315D01*
X178348548Y-129977316D01*
X178348547Y-129977317D01*
X178188589Y-130108589D01*
X178057317Y-130268547D01*
X177959769Y-130451043D01*
X177899699Y-130649067D01*
X177879417Y-130855000D01*
X177450583Y-130855000D01*
X177430300Y-130649066D01*
X177370232Y-130451046D01*
X177272685Y-130268550D01*
X177197897Y-130177420D01*
X177141410Y-130108589D01*
X177023677Y-130011969D01*
X176981450Y-129977315D01*
X176798954Y-129879768D01*
X176600934Y-129819700D01*
X176600932Y-129819699D01*
X176600934Y-129819699D01*
X176395000Y-129799417D01*
X176189067Y-129819699D01*
X175991043Y-129879769D01*
X175880898Y-129938643D01*
X175808550Y-129977315D01*
X175808548Y-129977316D01*
X175808547Y-129977317D01*
X175648589Y-130108589D01*
X175517317Y-130268547D01*
X175419769Y-130451043D01*
X175359699Y-130649067D01*
X175339417Y-130855000D01*
X171986651Y-130855000D01*
X171841243Y-130807754D01*
X171841241Y-130807753D01*
X171841240Y-130807753D01*
X171679957Y-130782208D01*
X171631287Y-130774500D01*
X171418713Y-130774500D01*
X171370042Y-130782208D01*
X171208760Y-130807753D01*
X171006585Y-130873444D01*
X170817179Y-130969951D01*
X170645213Y-131094890D01*
X170494890Y-131245213D01*
X170369951Y-131417179D01*
X170273444Y-131606585D01*
X170207753Y-131808760D01*
X170174500Y-132018713D01*
X168475000Y-132018713D01*
X168475000Y-121499994D01*
X226719529Y-121499994D01*
X226719529Y-121500005D01*
X226739379Y-121739559D01*
X226798389Y-121972589D01*
X226894951Y-122192729D01*
X227026427Y-122393966D01*
X227026429Y-122393969D01*
X227189236Y-122570825D01*
X227189239Y-122570827D01*
X227189242Y-122570830D01*
X227378924Y-122718466D01*
X227378930Y-122718470D01*
X227378933Y-122718472D01*
X227590344Y-122832882D01*
X227590347Y-122832883D01*
X227817699Y-122910933D01*
X227817701Y-122910933D01*
X227817703Y-122910934D01*
X228054808Y-122950500D01*
X228054809Y-122950500D01*
X228295191Y-122950500D01*
X228295192Y-122950500D01*
X228532297Y-122910934D01*
X228759656Y-122832882D01*
X228971067Y-122718472D01*
X229160764Y-122570825D01*
X229323571Y-122393969D01*
X229455049Y-122192728D01*
X229551610Y-121972591D01*
X229610620Y-121739563D01*
X229630471Y-121500000D01*
X229610620Y-121260437D01*
X229551610Y-121027409D01*
X229455049Y-120807272D01*
X229323571Y-120606031D01*
X229160764Y-120429175D01*
X229160759Y-120429171D01*
X229160757Y-120429169D01*
X228971075Y-120281533D01*
X228971069Y-120281529D01*
X228759657Y-120167118D01*
X228759652Y-120167116D01*
X228532300Y-120089066D01*
X228354468Y-120059391D01*
X228295192Y-120049500D01*
X228054808Y-120049500D01*
X228007387Y-120057413D01*
X227817699Y-120089066D01*
X227590347Y-120167116D01*
X227590342Y-120167118D01*
X227378930Y-120281529D01*
X227378924Y-120281533D01*
X227189242Y-120429169D01*
X227189239Y-120429172D01*
X227026430Y-120606029D01*
X227026427Y-120606033D01*
X226894951Y-120807270D01*
X226798389Y-121027410D01*
X226739379Y-121260440D01*
X226719529Y-121499994D01*
X168475000Y-121499994D01*
X168475000Y-116499995D01*
X226420093Y-116499995D01*
X226420093Y-116500004D01*
X226439692Y-116761545D01*
X226439693Y-116761550D01*
X226498058Y-117017270D01*
X226593883Y-117261426D01*
X226593882Y-117261426D01*
X226725029Y-117488576D01*
X226772873Y-117548572D01*
X227573958Y-116747487D01*
X227598978Y-116807890D01*
X227670112Y-116914351D01*
X227760649Y-117004888D01*
X227867110Y-117076022D01*
X227927510Y-117101041D01*
X227125830Y-117902720D01*
X227297546Y-118019793D01*
X227297550Y-118019795D01*
X227533854Y-118133594D01*
X227533858Y-118133595D01*
X227784494Y-118210907D01*
X227784500Y-118210909D01*
X228043848Y-118249999D01*
X228043857Y-118250000D01*
X228306143Y-118250000D01*
X228306151Y-118249999D01*
X228565499Y-118210909D01*
X228565505Y-118210907D01*
X228816143Y-118133595D01*
X229052445Y-118019798D01*
X229052447Y-118019797D01*
X229224168Y-117902720D01*
X228422488Y-117101041D01*
X228482890Y-117076022D01*
X228589351Y-117004888D01*
X228679888Y-116914351D01*
X228751022Y-116807890D01*
X228776041Y-116747488D01*
X229577125Y-117548572D01*
X229624971Y-117488573D01*
X229756116Y-117261426D01*
X229851941Y-117017270D01*
X229910306Y-116761550D01*
X229910307Y-116761545D01*
X229929907Y-116500004D01*
X229929907Y-116499995D01*
X229910307Y-116238454D01*
X229910306Y-116238449D01*
X229851941Y-115982729D01*
X229756116Y-115738573D01*
X229756117Y-115738573D01*
X229624972Y-115511426D01*
X229577124Y-115451427D01*
X228776041Y-116252510D01*
X228751022Y-116192110D01*
X228679888Y-116085649D01*
X228589351Y-115995112D01*
X228482890Y-115923978D01*
X228422487Y-115898958D01*
X229224168Y-115097278D01*
X229052454Y-114980206D01*
X229052445Y-114980201D01*
X228816142Y-114866404D01*
X228816144Y-114866404D01*
X228565505Y-114789092D01*
X228565499Y-114789090D01*
X228306151Y-114750000D01*
X228043848Y-114750000D01*
X227784500Y-114789090D01*
X227784494Y-114789092D01*
X227533858Y-114866404D01*
X227533854Y-114866405D01*
X227297547Y-114980205D01*
X227297539Y-114980210D01*
X227125830Y-115097277D01*
X227927512Y-115898958D01*
X227867110Y-115923978D01*
X227760649Y-115995112D01*
X227670112Y-116085649D01*
X227598978Y-116192110D01*
X227573958Y-116252511D01*
X226772874Y-115451427D01*
X226725028Y-115511425D01*
X226593883Y-115738573D01*
X226498058Y-115982729D01*
X226439693Y-116238449D01*
X226439692Y-116238454D01*
X226420093Y-116499995D01*
X168475000Y-116499995D01*
X168475000Y-112425000D01*
X170634901Y-112425000D01*
X170653252Y-112611331D01*
X170653253Y-112611333D01*
X170707604Y-112790502D01*
X170795862Y-112955623D01*
X170795864Y-112955626D01*
X170914642Y-113100357D01*
X171059373Y-113219135D01*
X171059376Y-113219137D01*
X171224497Y-113307395D01*
X171224499Y-113307396D01*
X171403666Y-113361746D01*
X171403668Y-113361747D01*
X171420374Y-113363392D01*
X171590000Y-113380099D01*
X171776331Y-113361747D01*
X171955501Y-113307396D01*
X172120625Y-113219136D01*
X172265357Y-113100357D01*
X172384136Y-112955625D01*
X172472396Y-112790501D01*
X172526747Y-112611331D01*
X172545099Y-112425000D01*
X173174901Y-112425000D01*
X173193252Y-112611331D01*
X173193253Y-112611333D01*
X173247604Y-112790502D01*
X173335862Y-112955623D01*
X173335864Y-112955626D01*
X173454642Y-113100357D01*
X173599373Y-113219135D01*
X173599376Y-113219137D01*
X173764497Y-113307395D01*
X173764499Y-113307396D01*
X173943666Y-113361746D01*
X173943668Y-113361747D01*
X173960374Y-113363392D01*
X174130000Y-113380099D01*
X174316331Y-113361747D01*
X174495501Y-113307396D01*
X174660625Y-113219136D01*
X174805357Y-113100357D01*
X174924136Y-112955625D01*
X175012396Y-112790501D01*
X175066747Y-112611331D01*
X175085099Y-112425000D01*
X175714901Y-112425000D01*
X175733252Y-112611331D01*
X175733253Y-112611333D01*
X175787604Y-112790502D01*
X175875862Y-112955623D01*
X175875864Y-112955626D01*
X175994642Y-113100357D01*
X176139373Y-113219135D01*
X176139376Y-113219137D01*
X176304497Y-113307395D01*
X176304499Y-113307396D01*
X176483666Y-113361746D01*
X176483668Y-113361747D01*
X176500374Y-113363392D01*
X176670000Y-113380099D01*
X176856331Y-113361747D01*
X177035501Y-113307396D01*
X177200625Y-113219136D01*
X177345357Y-113100357D01*
X177464136Y-112955625D01*
X177552396Y-112790501D01*
X177606747Y-112611331D01*
X177625099Y-112425000D01*
X178254901Y-112425000D01*
X178273252Y-112611331D01*
X178273253Y-112611333D01*
X178327604Y-112790502D01*
X178415862Y-112955623D01*
X178415864Y-112955626D01*
X178534642Y-113100357D01*
X178679373Y-113219135D01*
X178679376Y-113219137D01*
X178844497Y-113307395D01*
X178844499Y-113307396D01*
X179023666Y-113361746D01*
X179023668Y-113361747D01*
X179040374Y-113363392D01*
X179210000Y-113380099D01*
X179396331Y-113361747D01*
X179575501Y-113307396D01*
X179740625Y-113219136D01*
X179885357Y-113100357D01*
X180004136Y-112955625D01*
X180092396Y-112790501D01*
X180146747Y-112611331D01*
X180165099Y-112425000D01*
X180165099Y-112424999D01*
X180495225Y-112424999D01*
X180495225Y-112425000D01*
X180514287Y-112642884D01*
X180514289Y-112642894D01*
X180570894Y-112854150D01*
X180570898Y-112854159D01*
X180663333Y-113052387D01*
X180706874Y-113114571D01*
X181350000Y-112471445D01*
X181350000Y-112477661D01*
X181377259Y-112579394D01*
X181429920Y-112670606D01*
X181504394Y-112745080D01*
X181595606Y-112797741D01*
X181697339Y-112825000D01*
X181703553Y-112825000D01*
X181060427Y-113468124D01*
X181122612Y-113511666D01*
X181320840Y-113604101D01*
X181320849Y-113604105D01*
X181532105Y-113660710D01*
X181532115Y-113660712D01*
X181749999Y-113679775D01*
X181750001Y-113679775D01*
X181967884Y-113660712D01*
X181967894Y-113660710D01*
X182179150Y-113604105D01*
X182179164Y-113604100D01*
X182377383Y-113511669D01*
X182377385Y-113511668D01*
X182439571Y-113468124D01*
X181796448Y-112825000D01*
X181802661Y-112825000D01*
X181904394Y-112797741D01*
X181995606Y-112745080D01*
X182070080Y-112670606D01*
X182122741Y-112579394D01*
X182150000Y-112477661D01*
X182150000Y-112471446D01*
X182793124Y-113114570D01*
X182836668Y-113052385D01*
X182836669Y-113052383D01*
X182929100Y-112854164D01*
X182929105Y-112854150D01*
X182985710Y-112642894D01*
X182985712Y-112642884D01*
X183004775Y-112425000D01*
X183004775Y-112424999D01*
X205895225Y-112424999D01*
X205895225Y-112425000D01*
X205914287Y-112642884D01*
X205914289Y-112642894D01*
X205970894Y-112854150D01*
X205970898Y-112854159D01*
X206063333Y-113052387D01*
X206106874Y-113114571D01*
X206750000Y-112471445D01*
X206750000Y-112477661D01*
X206777259Y-112579394D01*
X206829920Y-112670606D01*
X206904394Y-112745080D01*
X206995606Y-112797741D01*
X207097339Y-112825000D01*
X207103553Y-112825000D01*
X206460427Y-113468124D01*
X206522612Y-113511666D01*
X206720840Y-113604101D01*
X206720849Y-113604105D01*
X206932105Y-113660710D01*
X206932115Y-113660712D01*
X207149999Y-113679775D01*
X207150001Y-113679775D01*
X207367884Y-113660712D01*
X207367894Y-113660710D01*
X207579150Y-113604105D01*
X207579164Y-113604100D01*
X207777383Y-113511669D01*
X207777385Y-113511668D01*
X207839571Y-113468124D01*
X207196448Y-112825000D01*
X207202661Y-112825000D01*
X207304394Y-112797741D01*
X207395606Y-112745080D01*
X207470080Y-112670606D01*
X207522741Y-112579394D01*
X207550000Y-112477661D01*
X207550000Y-112471446D01*
X208193124Y-113114570D01*
X208236668Y-113052385D01*
X208236669Y-113052383D01*
X208329100Y-112854164D01*
X208329105Y-112854150D01*
X208385710Y-112642894D01*
X208385712Y-112642884D01*
X208404775Y-112425000D01*
X208734901Y-112425000D01*
X208753252Y-112611331D01*
X208753253Y-112611333D01*
X208807604Y-112790502D01*
X208895862Y-112955623D01*
X208895864Y-112955626D01*
X209014642Y-113100357D01*
X209159373Y-113219135D01*
X209159376Y-113219137D01*
X209324497Y-113307395D01*
X209324499Y-113307396D01*
X209503666Y-113361746D01*
X209503668Y-113361747D01*
X209520374Y-113363392D01*
X209690000Y-113380099D01*
X209876331Y-113361747D01*
X210055501Y-113307396D01*
X210220625Y-113219136D01*
X210365357Y-113100357D01*
X210484136Y-112955625D01*
X210572396Y-112790501D01*
X210626747Y-112611331D01*
X210645099Y-112425000D01*
X211274901Y-112425000D01*
X211293252Y-112611331D01*
X211293253Y-112611333D01*
X211347604Y-112790502D01*
X211435862Y-112955623D01*
X211435864Y-112955626D01*
X211554642Y-113100357D01*
X211699373Y-113219135D01*
X211699376Y-113219137D01*
X211864497Y-113307395D01*
X211864499Y-113307396D01*
X212043666Y-113361746D01*
X212043668Y-113361747D01*
X212060374Y-113363392D01*
X212230000Y-113380099D01*
X212416331Y-113361747D01*
X212595501Y-113307396D01*
X212760625Y-113219136D01*
X212905357Y-113100357D01*
X213024136Y-112955625D01*
X213112396Y-112790501D01*
X213166747Y-112611331D01*
X213185099Y-112425000D01*
X213814901Y-112425000D01*
X213833252Y-112611331D01*
X213833253Y-112611333D01*
X213887604Y-112790502D01*
X213975862Y-112955623D01*
X213975864Y-112955626D01*
X214094642Y-113100357D01*
X214239373Y-113219135D01*
X214239376Y-113219137D01*
X214404497Y-113307395D01*
X214404499Y-113307396D01*
X214583666Y-113361746D01*
X214583668Y-113361747D01*
X214600374Y-113363392D01*
X214770000Y-113380099D01*
X214956331Y-113361747D01*
X215135501Y-113307396D01*
X215300625Y-113219136D01*
X215445357Y-113100357D01*
X215564136Y-112955625D01*
X215652396Y-112790501D01*
X215706747Y-112611331D01*
X215725099Y-112425000D01*
X216354901Y-112425000D01*
X216373252Y-112611331D01*
X216373253Y-112611333D01*
X216427604Y-112790502D01*
X216515862Y-112955623D01*
X216515864Y-112955626D01*
X216634642Y-113100357D01*
X216779373Y-113219135D01*
X216779376Y-113219137D01*
X216944497Y-113307395D01*
X216944499Y-113307396D01*
X217123666Y-113361746D01*
X217123668Y-113361747D01*
X217140374Y-113363392D01*
X217310000Y-113380099D01*
X217496331Y-113361747D01*
X217675501Y-113307396D01*
X217840625Y-113219136D01*
X217985357Y-113100357D01*
X218104136Y-112955625D01*
X218192396Y-112790501D01*
X218246747Y-112611331D01*
X218265099Y-112425000D01*
X218894901Y-112425000D01*
X218913252Y-112611331D01*
X218913253Y-112611333D01*
X218967604Y-112790502D01*
X219055862Y-112955623D01*
X219055864Y-112955626D01*
X219174642Y-113100357D01*
X219319373Y-113219135D01*
X219319376Y-113219137D01*
X219484497Y-113307395D01*
X219484499Y-113307396D01*
X219663666Y-113361746D01*
X219663668Y-113361747D01*
X219680374Y-113363392D01*
X219850000Y-113380099D01*
X220036331Y-113361747D01*
X220215501Y-113307396D01*
X220380625Y-113219136D01*
X220525357Y-113100357D01*
X220644136Y-112955625D01*
X220732396Y-112790501D01*
X220786747Y-112611331D01*
X220805099Y-112425000D01*
X220786747Y-112238669D01*
X220732396Y-112059499D01*
X220644136Y-111894375D01*
X220644135Y-111894373D01*
X220525357Y-111749642D01*
X220380626Y-111630864D01*
X220380623Y-111630862D01*
X220215502Y-111542604D01*
X220036333Y-111488253D01*
X220036331Y-111488252D01*
X219850000Y-111469901D01*
X219663668Y-111488252D01*
X219663666Y-111488253D01*
X219484497Y-111542604D01*
X219319376Y-111630862D01*
X219319373Y-111630864D01*
X219174642Y-111749642D01*
X219055864Y-111894373D01*
X219055862Y-111894376D01*
X218967604Y-112059497D01*
X218913253Y-112238666D01*
X218913252Y-112238668D01*
X218894901Y-112425000D01*
X218265099Y-112425000D01*
X218246747Y-112238669D01*
X218192396Y-112059499D01*
X218104136Y-111894375D01*
X218104135Y-111894373D01*
X217985357Y-111749642D01*
X217840626Y-111630864D01*
X217840623Y-111630862D01*
X217675502Y-111542604D01*
X217496333Y-111488253D01*
X217496331Y-111488252D01*
X217310000Y-111469901D01*
X217123668Y-111488252D01*
X217123666Y-111488253D01*
X216944497Y-111542604D01*
X216779376Y-111630862D01*
X216779373Y-111630864D01*
X216634642Y-111749642D01*
X216515864Y-111894373D01*
X216515862Y-111894376D01*
X216427604Y-112059497D01*
X216373253Y-112238666D01*
X216373252Y-112238668D01*
X216354901Y-112425000D01*
X215725099Y-112425000D01*
X215706747Y-112238669D01*
X215652396Y-112059499D01*
X215564136Y-111894375D01*
X215564135Y-111894373D01*
X215445357Y-111749642D01*
X215300626Y-111630864D01*
X215300623Y-111630862D01*
X215135502Y-111542604D01*
X214956333Y-111488253D01*
X214956331Y-111488252D01*
X214770000Y-111469901D01*
X214583668Y-111488252D01*
X214583666Y-111488253D01*
X214404497Y-111542604D01*
X214239376Y-111630862D01*
X214239373Y-111630864D01*
X214094642Y-111749642D01*
X213975864Y-111894373D01*
X213975862Y-111894376D01*
X213887604Y-112059497D01*
X213833253Y-112238666D01*
X213833252Y-112238668D01*
X213814901Y-112425000D01*
X213185099Y-112425000D01*
X213166747Y-112238669D01*
X213112396Y-112059499D01*
X213024136Y-111894375D01*
X213024135Y-111894373D01*
X212905357Y-111749642D01*
X212760626Y-111630864D01*
X212760623Y-111630862D01*
X212595502Y-111542604D01*
X212416333Y-111488253D01*
X212416331Y-111488252D01*
X212230000Y-111469901D01*
X212043668Y-111488252D01*
X212043666Y-111488253D01*
X211864497Y-111542604D01*
X211699376Y-111630862D01*
X211699373Y-111630864D01*
X211554642Y-111749642D01*
X211435864Y-111894373D01*
X211435862Y-111894376D01*
X211347604Y-112059497D01*
X211293253Y-112238666D01*
X211293252Y-112238668D01*
X211274901Y-112425000D01*
X210645099Y-112425000D01*
X210626747Y-112238669D01*
X210572396Y-112059499D01*
X210484136Y-111894375D01*
X210484135Y-111894373D01*
X210365357Y-111749642D01*
X210220626Y-111630864D01*
X210220623Y-111630862D01*
X210055502Y-111542604D01*
X209876333Y-111488253D01*
X209876331Y-111488252D01*
X209690000Y-111469901D01*
X209503668Y-111488252D01*
X209503666Y-111488253D01*
X209324497Y-111542604D01*
X209159376Y-111630862D01*
X209159373Y-111630864D01*
X209014642Y-111749642D01*
X208895864Y-111894373D01*
X208895862Y-111894376D01*
X208807604Y-112059497D01*
X208753253Y-112238666D01*
X208753252Y-112238668D01*
X208734901Y-112425000D01*
X208404775Y-112425000D01*
X208404775Y-112424999D01*
X208385712Y-112207115D01*
X208385710Y-112207105D01*
X208329105Y-111995849D01*
X208329101Y-111995840D01*
X208236668Y-111797615D01*
X208193123Y-111735428D01*
X207550000Y-112378551D01*
X207550000Y-112372339D01*
X207522741Y-112270606D01*
X207470080Y-112179394D01*
X207395606Y-112104920D01*
X207304394Y-112052259D01*
X207202661Y-112025000D01*
X207196447Y-112025000D01*
X207839571Y-111381874D01*
X207777387Y-111338333D01*
X207579159Y-111245898D01*
X207579150Y-111245894D01*
X207367894Y-111189289D01*
X207367884Y-111189287D01*
X207150001Y-111170225D01*
X207149999Y-111170225D01*
X206932115Y-111189287D01*
X206932105Y-111189289D01*
X206720849Y-111245894D01*
X206720840Y-111245898D01*
X206522614Y-111338332D01*
X206522612Y-111338333D01*
X206460428Y-111381875D01*
X206460427Y-111381875D01*
X207103554Y-112025000D01*
X207097339Y-112025000D01*
X206995606Y-112052259D01*
X206904394Y-112104920D01*
X206829920Y-112179394D01*
X206777259Y-112270606D01*
X206750000Y-112372339D01*
X206750000Y-112378552D01*
X206106875Y-111735427D01*
X206106875Y-111735428D01*
X206063333Y-111797612D01*
X206063332Y-111797614D01*
X205970898Y-111995840D01*
X205970894Y-111995849D01*
X205914289Y-112207105D01*
X205914287Y-112207115D01*
X205895225Y-112424999D01*
X183004775Y-112424999D01*
X182985712Y-112207115D01*
X182985710Y-112207105D01*
X182929105Y-111995849D01*
X182929101Y-111995840D01*
X182836668Y-111797615D01*
X182793123Y-111735428D01*
X182150000Y-112378551D01*
X182150000Y-112372339D01*
X182122741Y-112270606D01*
X182070080Y-112179394D01*
X181995606Y-112104920D01*
X181904394Y-112052259D01*
X181802661Y-112025000D01*
X181796447Y-112025000D01*
X182439571Y-111381874D01*
X182377387Y-111338333D01*
X182179159Y-111245898D01*
X182179150Y-111245894D01*
X181967894Y-111189289D01*
X181967884Y-111189287D01*
X181750001Y-111170225D01*
X181749999Y-111170225D01*
X181532115Y-111189287D01*
X181532105Y-111189289D01*
X181320849Y-111245894D01*
X181320840Y-111245898D01*
X181122614Y-111338332D01*
X181122612Y-111338333D01*
X181060428Y-111381875D01*
X181060427Y-111381875D01*
X181703554Y-112025000D01*
X181697339Y-112025000D01*
X181595606Y-112052259D01*
X181504394Y-112104920D01*
X181429920Y-112179394D01*
X181377259Y-112270606D01*
X181350000Y-112372339D01*
X181350000Y-112378552D01*
X180706875Y-111735427D01*
X180706875Y-111735428D01*
X180663333Y-111797612D01*
X180663332Y-111797614D01*
X180570898Y-111995840D01*
X180570894Y-111995849D01*
X180514289Y-112207105D01*
X180514287Y-112207115D01*
X180495225Y-112424999D01*
X180165099Y-112424999D01*
X180146747Y-112238669D01*
X180092396Y-112059499D01*
X180004136Y-111894375D01*
X180004135Y-111894373D01*
X179885357Y-111749642D01*
X179740626Y-111630864D01*
X179740623Y-111630862D01*
X179575502Y-111542604D01*
X179396333Y-111488253D01*
X179396331Y-111488252D01*
X179210000Y-111469901D01*
X179023668Y-111488252D01*
X179023666Y-111488253D01*
X178844497Y-111542604D01*
X178679376Y-111630862D01*
X178679373Y-111630864D01*
X178534642Y-111749642D01*
X178415864Y-111894373D01*
X178415862Y-111894376D01*
X178327604Y-112059497D01*
X178273253Y-112238666D01*
X178273252Y-112238668D01*
X178254901Y-112425000D01*
X177625099Y-112425000D01*
X177606747Y-112238669D01*
X177552396Y-112059499D01*
X177464136Y-111894375D01*
X177464135Y-111894373D01*
X177345357Y-111749642D01*
X177200626Y-111630864D01*
X177200623Y-111630862D01*
X177035502Y-111542604D01*
X176856333Y-111488253D01*
X176856331Y-111488252D01*
X176670000Y-111469901D01*
X176483668Y-111488252D01*
X176483666Y-111488253D01*
X176304497Y-111542604D01*
X176139376Y-111630862D01*
X176139373Y-111630864D01*
X175994642Y-111749642D01*
X175875864Y-111894373D01*
X175875862Y-111894376D01*
X175787604Y-112059497D01*
X175733253Y-112238666D01*
X175733252Y-112238668D01*
X175714901Y-112425000D01*
X175085099Y-112425000D01*
X175066747Y-112238669D01*
X175012396Y-112059499D01*
X174924136Y-111894375D01*
X174924135Y-111894373D01*
X174805357Y-111749642D01*
X174660626Y-111630864D01*
X174660623Y-111630862D01*
X174495502Y-111542604D01*
X174316333Y-111488253D01*
X174316331Y-111488252D01*
X174130000Y-111469901D01*
X173943668Y-111488252D01*
X173943666Y-111488253D01*
X173764497Y-111542604D01*
X173599376Y-111630862D01*
X173599373Y-111630864D01*
X173454642Y-111749642D01*
X173335864Y-111894373D01*
X173335862Y-111894376D01*
X173247604Y-112059497D01*
X173193253Y-112238666D01*
X173193252Y-112238668D01*
X173174901Y-112425000D01*
X172545099Y-112425000D01*
X172526747Y-112238669D01*
X172472396Y-112059499D01*
X172384136Y-111894375D01*
X172384135Y-111894373D01*
X172265357Y-111749642D01*
X172120626Y-111630864D01*
X172120623Y-111630862D01*
X171955502Y-111542604D01*
X171776333Y-111488253D01*
X171776331Y-111488252D01*
X171590000Y-111469901D01*
X171403668Y-111488252D01*
X171403666Y-111488253D01*
X171224497Y-111542604D01*
X171059376Y-111630862D01*
X171059373Y-111630864D01*
X170914642Y-111749642D01*
X170795864Y-111894373D01*
X170795862Y-111894376D01*
X170707604Y-112059497D01*
X170653253Y-112238666D01*
X170653252Y-112238668D01*
X170634901Y-112425000D01*
X168475000Y-112425000D01*
X168475000Y-105257905D01*
X168490471Y-105197926D01*
X168524227Y-105136848D01*
X168531613Y-105125096D01*
X168689735Y-104902244D01*
X168744582Y-104858961D01*
X168790864Y-104850000D01*
X232259136Y-104850000D01*
X232326175Y-104869685D01*
G37*
G04 #@! TD.AperFunction*
M02*
