G04 #@! TF.GenerationSoftware,KiCad,Pcbnew,8.99.0-1891-ge2bd76bdce*
G04 #@! TF.CreationDate,2024-07-24T15:45:45+03:00*
G04 #@! TF.ProjectId,rfid_rpi_hat,72666964-5f72-4706-995f-6861742e6b69,rev?*
G04 #@! TF.SameCoordinates,Original*
G04 #@! TF.FileFunction,Copper,L1,Top*
G04 #@! TF.FilePolarity,Positive*
%FSLAX46Y46*%
G04 Gerber Fmt 4.6, Leading zero omitted, Abs format (unit mm)*
G04 Created by KiCad (PCBNEW 8.99.0-1891-ge2bd76bdce) date 2024-07-24 15:45:45*
%MOMM*%
%LPD*%
G01*
G04 APERTURE LIST*
G04 Aperture macros list*
%AMRoundRect*
0 Rectangle with rounded corners*
0 $1 Rounding radius*
0 $2 $3 $4 $5 $6 $7 $8 $9 X,Y pos of 4 corners*
0 Add a 4 corners polygon primitive as box body*
4,1,4,$2,$3,$4,$5,$6,$7,$8,$9,$2,$3,0*
0 Add four circle primitives for the rounded corners*
1,1,$1+$1,$2,$3*
1,1,$1+$1,$4,$5*
1,1,$1+$1,$6,$7*
1,1,$1+$1,$8,$9*
0 Add four rect primitives between the rounded corners*
20,1,$1+$1,$2,$3,$4,$5,0*
20,1,$1+$1,$4,$5,$6,$7,0*
20,1,$1+$1,$6,$7,$8,$9,0*
20,1,$1+$1,$8,$9,$2,$3,0*%
G04 Aperture macros list end*
%ADD10C,0.150000*%
G04 #@! TA.AperFunction,NonConductor*
%ADD11C,0.150000*%
G04 #@! TD*
G04 #@! TA.AperFunction,ComponentPad*
%ADD12R,1.700000X1.700000*%
G04 #@! TD*
G04 #@! TA.AperFunction,ComponentPad*
%ADD13O,1.700000X1.700000*%
G04 #@! TD*
G04 #@! TA.AperFunction,SMDPad,CuDef*
%ADD14RoundRect,0.250000X-1.000000X-0.650000X1.000000X-0.650000X1.000000X0.650000X-1.000000X0.650000X0*%
G04 #@! TD*
G04 #@! TA.AperFunction,SMDPad,CuDef*
%ADD15RoundRect,0.250000X-1.500000X-0.550000X1.500000X-0.550000X1.500000X0.550000X-1.500000X0.550000X0*%
G04 #@! TD*
G04 #@! TA.AperFunction,ComponentPad*
%ADD16C,2.500000*%
G04 #@! TD*
G04 #@! TA.AperFunction,ComponentPad*
%ADD17C,1.500000*%
G04 #@! TD*
G04 #@! TA.AperFunction,ViaPad*
%ADD18C,0.700000*%
G04 #@! TD*
G04 #@! TA.AperFunction,Conductor*
%ADD19C,0.254000*%
G04 #@! TD*
G04 #@! TA.AperFunction,Conductor*
%ADD20C,0.200000*%
G04 #@! TD*
G04 #@! TA.AperFunction,Conductor*
%ADD21C,1.200000*%
G04 #@! TD*
G04 #@! TA.AperFunction,Conductor*
%ADD22C,1.500000*%
G04 #@! TD*
G04 APERTURE END LIST*
D10*
D11*
X209795112Y-146596009D02*
X209937969Y-146643628D01*
X209937969Y-146643628D02*
X209985588Y-146691247D01*
X209985588Y-146691247D02*
X210033207Y-146786485D01*
X210033207Y-146786485D02*
X210033207Y-146929342D01*
X210033207Y-146929342D02*
X209985588Y-147024580D01*
X209985588Y-147024580D02*
X209937969Y-147072200D01*
X209937969Y-147072200D02*
X209842731Y-147119819D01*
X209842731Y-147119819D02*
X209461779Y-147119819D01*
X209461779Y-147119819D02*
X209461779Y-146119819D01*
X209461779Y-146119819D02*
X209795112Y-146119819D01*
X209795112Y-146119819D02*
X209890350Y-146167438D01*
X209890350Y-146167438D02*
X209937969Y-146215057D01*
X209937969Y-146215057D02*
X209985588Y-146310295D01*
X209985588Y-146310295D02*
X209985588Y-146405533D01*
X209985588Y-146405533D02*
X209937969Y-146500771D01*
X209937969Y-146500771D02*
X209890350Y-146548390D01*
X209890350Y-146548390D02*
X209795112Y-146596009D01*
X209795112Y-146596009D02*
X209461779Y-146596009D01*
X210461779Y-147119819D02*
X210461779Y-146119819D01*
X211033207Y-147119819D02*
X210604636Y-146548390D01*
X211033207Y-146119819D02*
X210461779Y-146691247D01*
X212080827Y-146119819D02*
X212652255Y-146119819D01*
X212366541Y-147119819D02*
X212366541Y-146119819D01*
X213366541Y-147072200D02*
X213271303Y-147119819D01*
X213271303Y-147119819D02*
X213080827Y-147119819D01*
X213080827Y-147119819D02*
X212985589Y-147072200D01*
X212985589Y-147072200D02*
X212937970Y-146976961D01*
X212937970Y-146976961D02*
X212937970Y-146596009D01*
X212937970Y-146596009D02*
X212985589Y-146500771D01*
X212985589Y-146500771D02*
X213080827Y-146453152D01*
X213080827Y-146453152D02*
X213271303Y-146453152D01*
X213271303Y-146453152D02*
X213366541Y-146500771D01*
X213366541Y-146500771D02*
X213414160Y-146596009D01*
X213414160Y-146596009D02*
X213414160Y-146691247D01*
X213414160Y-146691247D02*
X212937970Y-146786485D01*
X213985589Y-147119819D02*
X213890351Y-147072200D01*
X213890351Y-147072200D02*
X213842732Y-146976961D01*
X213842732Y-146976961D02*
X213842732Y-146119819D01*
X214747494Y-147072200D02*
X214652256Y-147119819D01*
X214652256Y-147119819D02*
X214461780Y-147119819D01*
X214461780Y-147119819D02*
X214366542Y-147072200D01*
X214366542Y-147072200D02*
X214318923Y-146976961D01*
X214318923Y-146976961D02*
X214318923Y-146596009D01*
X214318923Y-146596009D02*
X214366542Y-146500771D01*
X214366542Y-146500771D02*
X214461780Y-146453152D01*
X214461780Y-146453152D02*
X214652256Y-146453152D01*
X214652256Y-146453152D02*
X214747494Y-146500771D01*
X214747494Y-146500771D02*
X214795113Y-146596009D01*
X214795113Y-146596009D02*
X214795113Y-146691247D01*
X214795113Y-146691247D02*
X214318923Y-146786485D01*
X215223685Y-147119819D02*
X215223685Y-146453152D01*
X215223685Y-146548390D02*
X215271304Y-146500771D01*
X215271304Y-146500771D02*
X215366542Y-146453152D01*
X215366542Y-146453152D02*
X215509399Y-146453152D01*
X215509399Y-146453152D02*
X215604637Y-146500771D01*
X215604637Y-146500771D02*
X215652256Y-146596009D01*
X215652256Y-146596009D02*
X215652256Y-147119819D01*
X215652256Y-146596009D02*
X215699875Y-146500771D01*
X215699875Y-146500771D02*
X215795113Y-146453152D01*
X215795113Y-146453152D02*
X215937970Y-146453152D01*
X215937970Y-146453152D02*
X216033209Y-146500771D01*
X216033209Y-146500771D02*
X216080828Y-146596009D01*
X216080828Y-146596009D02*
X216080828Y-147119819D01*
X216985589Y-147119819D02*
X216985589Y-146596009D01*
X216985589Y-146596009D02*
X216937970Y-146500771D01*
X216937970Y-146500771D02*
X216842732Y-146453152D01*
X216842732Y-146453152D02*
X216652256Y-146453152D01*
X216652256Y-146453152D02*
X216557018Y-146500771D01*
X216985589Y-147072200D02*
X216890351Y-147119819D01*
X216890351Y-147119819D02*
X216652256Y-147119819D01*
X216652256Y-147119819D02*
X216557018Y-147072200D01*
X216557018Y-147072200D02*
X216509399Y-146976961D01*
X216509399Y-146976961D02*
X216509399Y-146881723D01*
X216509399Y-146881723D02*
X216557018Y-146786485D01*
X216557018Y-146786485D02*
X216652256Y-146738866D01*
X216652256Y-146738866D02*
X216890351Y-146738866D01*
X216890351Y-146738866D02*
X216985589Y-146691247D01*
X217318923Y-146453152D02*
X217699875Y-146453152D01*
X217461780Y-146119819D02*
X217461780Y-146976961D01*
X217461780Y-146976961D02*
X217509399Y-147072200D01*
X217509399Y-147072200D02*
X217604637Y-147119819D01*
X217604637Y-147119819D02*
X217699875Y-147119819D01*
X218033209Y-147119819D02*
X218033209Y-146453152D01*
X218033209Y-146119819D02*
X217985590Y-146167438D01*
X217985590Y-146167438D02*
X218033209Y-146215057D01*
X218033209Y-146215057D02*
X218080828Y-146167438D01*
X218080828Y-146167438D02*
X218033209Y-146119819D01*
X218033209Y-146119819D02*
X218033209Y-146215057D01*
X218937970Y-147072200D02*
X218842732Y-147119819D01*
X218842732Y-147119819D02*
X218652256Y-147119819D01*
X218652256Y-147119819D02*
X218557018Y-147072200D01*
X218557018Y-147072200D02*
X218509399Y-147024580D01*
X218509399Y-147024580D02*
X218461780Y-146929342D01*
X218461780Y-146929342D02*
X218461780Y-146643628D01*
X218461780Y-146643628D02*
X218509399Y-146548390D01*
X218509399Y-146548390D02*
X218557018Y-146500771D01*
X218557018Y-146500771D02*
X218652256Y-146453152D01*
X218652256Y-146453152D02*
X218842732Y-146453152D01*
X218842732Y-146453152D02*
X218937970Y-146500771D01*
X219318923Y-147072200D02*
X219414161Y-147119819D01*
X219414161Y-147119819D02*
X219604637Y-147119819D01*
X219604637Y-147119819D02*
X219699875Y-147072200D01*
X219699875Y-147072200D02*
X219747494Y-146976961D01*
X219747494Y-146976961D02*
X219747494Y-146929342D01*
X219747494Y-146929342D02*
X219699875Y-146834104D01*
X219699875Y-146834104D02*
X219604637Y-146786485D01*
X219604637Y-146786485D02*
X219461780Y-146786485D01*
X219461780Y-146786485D02*
X219366542Y-146738866D01*
X219366542Y-146738866D02*
X219318923Y-146643628D01*
X219318923Y-146643628D02*
X219318923Y-146596009D01*
X219318923Y-146596009D02*
X219366542Y-146500771D01*
X219366542Y-146500771D02*
X219461780Y-146453152D01*
X219461780Y-146453152D02*
X219604637Y-146453152D01*
X219604637Y-146453152D02*
X219699875Y-146500771D01*
X222271304Y-147119819D02*
X221937971Y-146643628D01*
X221699876Y-147119819D02*
X221699876Y-146119819D01*
X221699876Y-146119819D02*
X222080828Y-146119819D01*
X222080828Y-146119819D02*
X222176066Y-146167438D01*
X222176066Y-146167438D02*
X222223685Y-146215057D01*
X222223685Y-146215057D02*
X222271304Y-146310295D01*
X222271304Y-146310295D02*
X222271304Y-146453152D01*
X222271304Y-146453152D02*
X222223685Y-146548390D01*
X222223685Y-146548390D02*
X222176066Y-146596009D01*
X222176066Y-146596009D02*
X222080828Y-146643628D01*
X222080828Y-146643628D02*
X221699876Y-146643628D01*
X223033209Y-146596009D02*
X222699876Y-146596009D01*
X222699876Y-147119819D02*
X222699876Y-146119819D01*
X222699876Y-146119819D02*
X223176066Y-146119819D01*
X223557019Y-147119819D02*
X223557019Y-146119819D01*
X224033209Y-147119819D02*
X224033209Y-146119819D01*
X224033209Y-146119819D02*
X224271304Y-146119819D01*
X224271304Y-146119819D02*
X224414161Y-146167438D01*
X224414161Y-146167438D02*
X224509399Y-146262676D01*
X224509399Y-146262676D02*
X224557018Y-146357914D01*
X224557018Y-146357914D02*
X224604637Y-146548390D01*
X224604637Y-146548390D02*
X224604637Y-146691247D01*
X224604637Y-146691247D02*
X224557018Y-146881723D01*
X224557018Y-146881723D02*
X224509399Y-146976961D01*
X224509399Y-146976961D02*
X224414161Y-147072200D01*
X224414161Y-147072200D02*
X224271304Y-147119819D01*
X224271304Y-147119819D02*
X224033209Y-147119819D01*
X225795114Y-147119819D02*
X225795114Y-146119819D01*
X225795114Y-146596009D02*
X226366542Y-146596009D01*
X226366542Y-147119819D02*
X226366542Y-146119819D01*
X226795114Y-146834104D02*
X227271304Y-146834104D01*
X226699876Y-147119819D02*
X227033209Y-146119819D01*
X227033209Y-146119819D02*
X227366542Y-147119819D01*
X227557019Y-146119819D02*
X228128447Y-146119819D01*
X227842733Y-147119819D02*
X227842733Y-146119819D01*
X229080829Y-146119819D02*
X229414162Y-147119819D01*
X229414162Y-147119819D02*
X229747495Y-146119819D01*
X230604638Y-147119819D02*
X230033210Y-147119819D01*
X230318924Y-147119819D02*
X230318924Y-146119819D01*
X230318924Y-146119819D02*
X230223686Y-146262676D01*
X230223686Y-146262676D02*
X230128448Y-146357914D01*
X230128448Y-146357914D02*
X230033210Y-146405533D01*
D12*
X184115000Y-146240000D03*
D13*
X184115000Y-143700000D03*
X181575000Y-146240000D03*
X181575000Y-143700000D03*
X179035000Y-146240000D03*
X179035000Y-143700000D03*
X176495000Y-146240000D03*
X176495000Y-143700000D03*
X173955000Y-146240000D03*
X173955000Y-143700000D03*
D14*
X215050000Y-123225000D03*
X219050000Y-123225000D03*
D12*
X189210000Y-137625000D03*
D13*
X191750000Y-137625000D03*
X194290000Y-137625000D03*
X196830000Y-137625000D03*
X199370000Y-137625000D03*
X201910000Y-137625000D03*
X204450000Y-137625000D03*
X206990000Y-137625000D03*
D12*
X184115000Y-139890000D03*
D13*
X184115000Y-137350000D03*
X181575000Y-139890000D03*
X181575000Y-137350000D03*
X179035000Y-139890000D03*
X179035000Y-137350000D03*
X176495000Y-139890000D03*
X176495000Y-137350000D03*
X173955000Y-139890000D03*
X173955000Y-137350000D03*
D15*
X176250000Y-123900000D03*
X181650000Y-123900000D03*
D12*
X189270000Y-141650000D03*
D13*
X191810000Y-141650000D03*
X194350000Y-141650000D03*
X196890000Y-141650000D03*
X199430000Y-141650000D03*
X201970000Y-141650000D03*
X204510000Y-141650000D03*
X207050000Y-141650000D03*
D16*
X228175000Y-121500000D03*
X228175000Y-116500000D03*
D12*
X215055000Y-138225000D03*
D13*
X215055000Y-140765000D03*
X217595000Y-138225000D03*
X217595000Y-140765000D03*
X220135000Y-138225000D03*
X220135000Y-140765000D03*
X222675000Y-138225000D03*
X222675000Y-140765000D03*
D17*
X171590000Y-112425000D03*
X174130000Y-112425000D03*
X176670000Y-112425000D03*
X179210000Y-112425000D03*
X181750000Y-112425000D03*
X207150000Y-112425000D03*
X209690000Y-112425000D03*
X212230000Y-112425000D03*
X214770000Y-112425000D03*
X217310000Y-112425000D03*
X219850000Y-112425000D03*
D12*
X176395000Y-133395000D03*
D13*
X176395000Y-130855000D03*
X178935000Y-133395000D03*
X178935000Y-130855000D03*
X181475000Y-133395000D03*
X181475000Y-130855000D03*
X184015000Y-133395000D03*
X184015000Y-130855000D03*
X186555000Y-133395000D03*
X186555000Y-130855000D03*
X189095000Y-133395000D03*
X189095000Y-130855000D03*
X191635000Y-133395000D03*
X191635000Y-130855000D03*
X194175000Y-133395000D03*
X194175000Y-130855000D03*
X196715000Y-133395000D03*
X196715000Y-130855000D03*
X199255000Y-133395000D03*
X199255000Y-130855000D03*
X201795000Y-133395000D03*
X201795000Y-130855000D03*
X204335000Y-133395000D03*
X204335000Y-130855000D03*
X206875000Y-133395000D03*
X206875000Y-130855000D03*
X209415000Y-133395000D03*
X209415000Y-130855000D03*
X211955000Y-133395000D03*
X211955000Y-130855000D03*
X214495000Y-133395000D03*
X214495000Y-130855000D03*
X217035000Y-133395000D03*
X217035000Y-130855000D03*
X219575000Y-133395000D03*
X219575000Y-130855000D03*
X222115000Y-133395000D03*
X222115000Y-130855000D03*
X224655000Y-133395000D03*
X224655000Y-130855000D03*
D18*
X188092105Y-109900000D03*
X191348684Y-115775000D03*
X194748684Y-123125000D03*
X230475000Y-141250000D03*
X207075000Y-123125000D03*
X185010527Y-109900000D03*
X185185527Y-115775000D03*
X230675000Y-127750000D03*
X203500000Y-109900000D03*
X199572369Y-105750000D03*
X214980264Y-105750000D03*
X169400000Y-147175000D03*
X222250000Y-144075000D03*
X171838159Y-105750000D03*
X224225000Y-105750000D03*
X200911842Y-123125000D03*
X211200000Y-144125000D03*
X193409211Y-105750000D03*
X188800000Y-147025000D03*
X194255263Y-109900000D03*
X197511842Y-115775000D03*
X219225000Y-109300000D03*
X230388158Y-105750000D03*
X220425000Y-127750000D03*
X227306579Y-105750000D03*
X181850000Y-125650000D03*
X205600000Y-146975000D03*
X200593421Y-115775000D03*
X188267105Y-115775000D03*
X184164475Y-105750000D03*
X211050000Y-137175000D03*
X218061842Y-105750000D03*
X181082896Y-105750000D03*
X192500000Y-146950000D03*
X196490790Y-105750000D03*
X181700000Y-121950000D03*
X230700000Y-144050000D03*
X197830263Y-123125000D03*
X169425000Y-143550000D03*
X197336842Y-109900000D03*
X225650000Y-127750000D03*
X225100000Y-109525000D03*
X219750000Y-117000000D03*
X202653948Y-105750000D03*
X230537134Y-109919562D03*
X211898685Y-105750000D03*
X174919738Y-105750000D03*
X200418421Y-109900000D03*
X209950000Y-127525000D03*
X178001317Y-105750000D03*
X225800000Y-137725000D03*
X215325000Y-127675000D03*
X203993421Y-123125000D03*
X203675000Y-115775000D03*
X191667105Y-123125000D03*
X208817106Y-105750000D03*
X198075000Y-127675000D03*
X211050000Y-141000000D03*
X196775000Y-146950000D03*
X194430263Y-115775000D03*
X190327632Y-105750000D03*
X205200000Y-127750000D03*
X184325000Y-127750000D03*
X205735527Y-105750000D03*
X184475000Y-123975000D03*
X190600000Y-127550000D03*
X224424987Y-119459081D03*
X221143421Y-105750000D03*
X187246053Y-105750000D03*
X215925000Y-117050000D03*
X225875000Y-141725000D03*
X191173684Y-109900000D03*
X188585527Y-123125000D03*
X213525000Y-109225000D03*
X216950000Y-144075000D03*
X200825000Y-147025000D03*
X230600000Y-137350000D03*
D19*
X191750000Y-137625000D02*
X195525000Y-133850000D01*
X195525000Y-133850000D02*
X195525000Y-132045000D01*
X195525000Y-132045000D02*
X196715000Y-130855000D01*
D20*
X201970000Y-141650000D02*
X201970000Y-136110000D01*
X201970000Y-136110000D02*
X199255000Y-133395000D01*
X199430000Y-141650000D02*
X199430000Y-137685000D01*
X199430000Y-137685000D02*
X199370000Y-137625000D01*
D19*
X196925000Y-135100000D02*
X198000000Y-134025000D01*
X198675000Y-132200000D02*
X200450000Y-132200000D01*
X198000000Y-132875000D02*
X198675000Y-132200000D01*
X200450000Y-132200000D02*
X201795000Y-130855000D01*
X191810000Y-141650000D02*
X193025000Y-140435000D01*
X193025000Y-140435000D02*
X193025000Y-137225470D01*
X193025000Y-137225470D02*
X195150470Y-135100000D01*
X198000000Y-134025000D02*
X198000000Y-132875000D01*
X195150470Y-135100000D02*
X196925000Y-135100000D01*
D20*
X204510000Y-141650000D02*
X204510000Y-133570000D01*
X204510000Y-133570000D02*
X204335000Y-133395000D01*
X205602500Y-140202500D02*
X207050000Y-141650000D01*
X205602500Y-132122500D02*
X205602500Y-140202500D01*
X204335000Y-130855000D02*
X205602500Y-132122500D01*
X208025000Y-136590000D02*
X208025000Y-132005000D01*
X208025000Y-132005000D02*
X206875000Y-130855000D01*
X206990000Y-137625000D02*
X208025000Y-136590000D01*
D19*
X215055000Y-140765000D02*
X213878000Y-139588000D01*
X213878000Y-134012000D02*
X214495000Y-133395000D01*
X213878000Y-139588000D02*
X213878000Y-134012000D01*
X215055000Y-138225000D02*
X215672000Y-137608000D01*
X215672000Y-137608000D02*
X215672000Y-132032000D01*
X215672000Y-132032000D02*
X214495000Y-130855000D01*
X216418000Y-139588000D02*
X216418000Y-134012000D01*
X216418000Y-134012000D02*
X217035000Y-133395000D01*
X217595000Y-140765000D02*
X216418000Y-139588000D01*
X220135000Y-140765000D02*
X218958000Y-139588000D01*
X218958000Y-134012000D02*
X219575000Y-133395000D01*
X218958000Y-139588000D02*
X218958000Y-134012000D01*
X219575000Y-130855000D02*
X218398000Y-132032000D01*
X218398000Y-132032000D02*
X218398000Y-137422000D01*
X218398000Y-137422000D02*
X217595000Y-138225000D01*
X221498000Y-134012000D02*
X222115000Y-133395000D01*
X221498000Y-139588000D02*
X221498000Y-134012000D01*
X222675000Y-140765000D02*
X221498000Y-139588000D01*
X220938000Y-132032000D02*
X220938000Y-137422000D01*
X222115000Y-130855000D02*
X220938000Y-132032000D01*
X220938000Y-137422000D02*
X220135000Y-138225000D01*
X225832000Y-135068000D02*
X222675000Y-138225000D01*
X225832000Y-132032000D02*
X225832000Y-135068000D01*
X224655000Y-130855000D02*
X225832000Y-132032000D01*
D21*
X176670000Y-112425000D02*
X176670000Y-123480000D01*
X176395000Y-124045000D02*
X176250000Y-123900000D01*
X171590000Y-112425000D02*
X179210000Y-112425000D01*
X176670000Y-123480000D02*
X176250000Y-123900000D01*
X176395000Y-130855000D02*
X176395000Y-124045000D01*
D22*
X188935000Y-137350000D02*
X189210000Y-137625000D01*
D21*
X176395000Y-137250000D02*
X176495000Y-137350000D01*
X189270000Y-137685000D02*
X189210000Y-137625000D01*
D22*
X173955000Y-137350000D02*
X188935000Y-137350000D01*
D21*
X176395000Y-133395000D02*
X176395000Y-137250000D01*
X189270000Y-141650000D02*
X189270000Y-137685000D01*
X226450000Y-123225000D02*
X219050000Y-123225000D01*
X228175000Y-121500000D02*
X226450000Y-123225000D01*
X215050000Y-123225000D02*
X212550000Y-123225000D01*
X212550000Y-123225000D02*
X209690000Y-120365000D01*
X209690000Y-112425000D02*
X212230000Y-112425000D01*
X209690000Y-120365000D02*
X209690000Y-112425000D01*
G04 #@! TA.AperFunction,Conductor*
G36*
X180328039Y-110344685D02*
G01*
X180373794Y-110397489D01*
X180385000Y-110449000D01*
X180385000Y-112189863D01*
X180365315Y-112256902D01*
X180312511Y-112302657D01*
X180243353Y-112312601D01*
X180179797Y-112283576D01*
X180142340Y-112225859D01*
X180091933Y-112059692D01*
X180035130Y-111953422D01*
X179610000Y-112378552D01*
X179610000Y-112372339D01*
X179582741Y-112270606D01*
X179530080Y-112179394D01*
X179455606Y-112104920D01*
X179364394Y-112052259D01*
X179262661Y-112025000D01*
X179256447Y-112025000D01*
X179681577Y-111599869D01*
X179681577Y-111599868D01*
X179575313Y-111543069D01*
X179396230Y-111488744D01*
X179210000Y-111470403D01*
X179023769Y-111488744D01*
X178844692Y-111543067D01*
X178738422Y-111599869D01*
X179163554Y-112025000D01*
X179157339Y-112025000D01*
X179055606Y-112052259D01*
X178964394Y-112104920D01*
X178889920Y-112179394D01*
X178837259Y-112270606D01*
X178810000Y-112372339D01*
X178810000Y-112378553D01*
X178384869Y-111953422D01*
X178328067Y-112059692D01*
X178273744Y-112238769D01*
X178255403Y-112425000D01*
X178273744Y-112611230D01*
X178328069Y-112790313D01*
X178384868Y-112896577D01*
X178384869Y-112896577D01*
X178810000Y-112471446D01*
X178810000Y-112477661D01*
X178837259Y-112579394D01*
X178889920Y-112670606D01*
X178964394Y-112745080D01*
X179055606Y-112797741D01*
X179157339Y-112825000D01*
X179163553Y-112825000D01*
X178738422Y-113250130D01*
X178844688Y-113306931D01*
X179023769Y-113361255D01*
X179210000Y-113379596D01*
X179396230Y-113361255D01*
X179575311Y-113306931D01*
X179681577Y-113250130D01*
X179681577Y-113250129D01*
X179256448Y-112825000D01*
X179262661Y-112825000D01*
X179364394Y-112797741D01*
X179455606Y-112745080D01*
X179530080Y-112670606D01*
X179582741Y-112579394D01*
X179610000Y-112477661D01*
X179610000Y-112471447D01*
X180035129Y-112896577D01*
X180035130Y-112896577D01*
X180091931Y-112790310D01*
X180142339Y-112624141D01*
X180180637Y-112565702D01*
X180244449Y-112537246D01*
X180313516Y-112547806D01*
X180365910Y-112594030D01*
X180385000Y-112660136D01*
X180385000Y-119176000D01*
X180365315Y-119243039D01*
X180312511Y-119288794D01*
X180261000Y-119300000D01*
X178574999Y-119300000D01*
X178550000Y-119324999D01*
X178550000Y-128175000D01*
X180013681Y-129638681D01*
X180047166Y-129700004D01*
X180050000Y-129726362D01*
X180050000Y-130218556D01*
X180030315Y-130285595D01*
X179977511Y-130331350D01*
X179908353Y-130341294D01*
X179844797Y-130312269D01*
X179816643Y-130277011D01*
X179812272Y-130268833D01*
X179812267Y-130268826D01*
X179681055Y-130108944D01*
X179521173Y-129977732D01*
X179521166Y-129977728D01*
X179338763Y-129880232D01*
X179185000Y-129833587D01*
X179185000Y-130421988D01*
X179127993Y-130389075D01*
X179000826Y-130355000D01*
X178869174Y-130355000D01*
X178742007Y-130389075D01*
X178685000Y-130421988D01*
X178685000Y-129833587D01*
X178531236Y-129880232D01*
X178348833Y-129977728D01*
X178348826Y-129977732D01*
X178188944Y-130108944D01*
X178057732Y-130268826D01*
X178057728Y-130268833D01*
X177960233Y-130451233D01*
X177913590Y-130605000D01*
X178501988Y-130605000D01*
X178469075Y-130662007D01*
X178435000Y-130789174D01*
X178435000Y-130920826D01*
X178469075Y-131047993D01*
X178501988Y-131105000D01*
X177913590Y-131105000D01*
X177960233Y-131258766D01*
X178057728Y-131441166D01*
X178057732Y-131441173D01*
X178188944Y-131601055D01*
X178348826Y-131732267D01*
X178348833Y-131732271D01*
X178366364Y-131741642D01*
X178416208Y-131790604D01*
X178431669Y-131858741D01*
X178407838Y-131924421D01*
X178352280Y-131966790D01*
X178307911Y-131975000D01*
X177022089Y-131975000D01*
X176955050Y-131955315D01*
X176909295Y-131902511D01*
X176899351Y-131833353D01*
X176928376Y-131769797D01*
X176963636Y-131741642D01*
X176981166Y-131732271D01*
X176981173Y-131732267D01*
X177141055Y-131601055D01*
X177272267Y-131441173D01*
X177272271Y-131441166D01*
X177369766Y-131258766D01*
X177416410Y-131105000D01*
X176828012Y-131105000D01*
X176860925Y-131047993D01*
X176895000Y-130920826D01*
X176895000Y-130789174D01*
X176860925Y-130662007D01*
X176828012Y-130605000D01*
X177416410Y-130605000D01*
X177369766Y-130451233D01*
X177272271Y-130268833D01*
X177272267Y-130268826D01*
X177141055Y-130108944D01*
X176981173Y-129977732D01*
X176981166Y-129977728D01*
X176798763Y-129880232D01*
X176645000Y-129833587D01*
X176645000Y-130421988D01*
X176587993Y-130389075D01*
X176460826Y-130355000D01*
X176329174Y-130355000D01*
X176202007Y-130389075D01*
X176145000Y-130421988D01*
X176145000Y-129833587D01*
X175991236Y-129880232D01*
X175808833Y-129977728D01*
X175808826Y-129977732D01*
X175648944Y-130108944D01*
X175517732Y-130268826D01*
X175517728Y-130268833D01*
X175420233Y-130451233D01*
X175373590Y-130605000D01*
X175961988Y-130605000D01*
X175929075Y-130662007D01*
X175895000Y-130789174D01*
X175895000Y-130920826D01*
X175929075Y-131047993D01*
X175961988Y-131105000D01*
X175373590Y-131105000D01*
X175420233Y-131258766D01*
X175517728Y-131441166D01*
X175517732Y-131441173D01*
X175648944Y-131601055D01*
X175808826Y-131732267D01*
X175808833Y-131732271D01*
X175826364Y-131741642D01*
X175876208Y-131790604D01*
X175891669Y-131858741D01*
X175867838Y-131924421D01*
X175812280Y-131966790D01*
X175767911Y-131975000D01*
X175025000Y-131975000D01*
X174953074Y-135552888D01*
X174932046Y-135619519D01*
X174878333Y-135664203D01*
X174829129Y-135674396D01*
X172300000Y-135674999D01*
X172300000Y-138665911D01*
X172300000Y-138665912D01*
X173545429Y-138663337D01*
X173612507Y-138682883D01*
X173658371Y-138735592D01*
X173668457Y-138804730D01*
X173639564Y-138868346D01*
X173581680Y-138905997D01*
X173551235Y-138915232D01*
X173368833Y-139012728D01*
X173368826Y-139012732D01*
X173208944Y-139143944D01*
X173077732Y-139303826D01*
X173077728Y-139303833D01*
X172980233Y-139486233D01*
X172933590Y-139640000D01*
X173521988Y-139640000D01*
X173489075Y-139697007D01*
X173455000Y-139824174D01*
X173455000Y-139955826D01*
X173489075Y-140082993D01*
X173521988Y-140140000D01*
X172933590Y-140140000D01*
X172980233Y-140293766D01*
X173077728Y-140476166D01*
X173077732Y-140476173D01*
X173208944Y-140636055D01*
X173368826Y-140767267D01*
X173368833Y-140767271D01*
X173551233Y-140864766D01*
X173705000Y-140911410D01*
X173705000Y-140323012D01*
X173762007Y-140355925D01*
X173889174Y-140390000D01*
X174020826Y-140390000D01*
X174147993Y-140355925D01*
X174205000Y-140323012D01*
X174205000Y-140911410D01*
X174358766Y-140864766D01*
X174541166Y-140767271D01*
X174541173Y-140767267D01*
X174701055Y-140636055D01*
X174832267Y-140476173D01*
X174832271Y-140476166D01*
X174929766Y-140293766D01*
X174976410Y-140140000D01*
X174388012Y-140140000D01*
X174420925Y-140082993D01*
X174455000Y-139955826D01*
X174455000Y-139824174D01*
X174420925Y-139697007D01*
X174388012Y-139640000D01*
X174976410Y-139640000D01*
X174929766Y-139486233D01*
X174832271Y-139303833D01*
X174832267Y-139303826D01*
X174701055Y-139143944D01*
X174541173Y-139012732D01*
X174541166Y-139012728D01*
X174358764Y-138915232D01*
X174322778Y-138904316D01*
X174264340Y-138866018D01*
X174235884Y-138802206D01*
X174246445Y-138733139D01*
X174292670Y-138680746D01*
X174358515Y-138661656D01*
X176102855Y-138658051D01*
X176169934Y-138677597D01*
X176215798Y-138730307D01*
X176225884Y-138799444D01*
X176196991Y-138863060D01*
X176139106Y-138900711D01*
X176091236Y-138915232D01*
X175908833Y-139012728D01*
X175908826Y-139012732D01*
X175748944Y-139143944D01*
X175617732Y-139303826D01*
X175617728Y-139303833D01*
X175520233Y-139486233D01*
X175473590Y-139640000D01*
X176061988Y-139640000D01*
X176029075Y-139697007D01*
X175995000Y-139824174D01*
X175995000Y-139955826D01*
X176029075Y-140082993D01*
X176061988Y-140140000D01*
X175473590Y-140140000D01*
X175520233Y-140293766D01*
X175617728Y-140476166D01*
X175617732Y-140476173D01*
X175748944Y-140636055D01*
X175908826Y-140767267D01*
X175908833Y-140767271D01*
X176091233Y-140864766D01*
X176245000Y-140911410D01*
X176245000Y-140323012D01*
X176302007Y-140355925D01*
X176429174Y-140390000D01*
X176560826Y-140390000D01*
X176687993Y-140355925D01*
X176745000Y-140323012D01*
X176745000Y-140911410D01*
X176898766Y-140864766D01*
X177081166Y-140767271D01*
X177081173Y-140767267D01*
X177241055Y-140636055D01*
X177372267Y-140476173D01*
X177372271Y-140476166D01*
X177469766Y-140293766D01*
X177516410Y-140140000D01*
X176928012Y-140140000D01*
X176960925Y-140082993D01*
X176995000Y-139955826D01*
X176995000Y-139824174D01*
X176960925Y-139697007D01*
X176928012Y-139640000D01*
X177516410Y-139640000D01*
X177469766Y-139486233D01*
X177372271Y-139303833D01*
X177372267Y-139303826D01*
X177241055Y-139143944D01*
X177081173Y-139012732D01*
X177081166Y-139012728D01*
X176898766Y-138915233D01*
X176845590Y-138899103D01*
X176787151Y-138860805D01*
X176758695Y-138796993D01*
X176769255Y-138727926D01*
X176815479Y-138675532D01*
X176881328Y-138656442D01*
X178660283Y-138652765D01*
X178727360Y-138672310D01*
X178773224Y-138725019D01*
X178783310Y-138794157D01*
X178754417Y-138857773D01*
X178696533Y-138895424D01*
X178631235Y-138915232D01*
X178448833Y-139012728D01*
X178448826Y-139012732D01*
X178288944Y-139143944D01*
X178157732Y-139303826D01*
X178157728Y-139303833D01*
X178060233Y-139486233D01*
X178013590Y-139640000D01*
X178601988Y-139640000D01*
X178569075Y-139697007D01*
X178535000Y-139824174D01*
X178535000Y-139955826D01*
X178569075Y-140082993D01*
X178601988Y-140140000D01*
X178013590Y-140140000D01*
X178060233Y-140293766D01*
X178157728Y-140476166D01*
X178157732Y-140476173D01*
X178288944Y-140636055D01*
X178448826Y-140767267D01*
X178448833Y-140767271D01*
X178631233Y-140864766D01*
X178785000Y-140911410D01*
X178785000Y-140323012D01*
X178842007Y-140355925D01*
X178969174Y-140390000D01*
X179100826Y-140390000D01*
X179227993Y-140355925D01*
X179285000Y-140323012D01*
X179285000Y-140911410D01*
X179438766Y-140864766D01*
X179621166Y-140767271D01*
X179621173Y-140767267D01*
X179781055Y-140636055D01*
X179912267Y-140476173D01*
X179912271Y-140476166D01*
X180009766Y-140293766D01*
X180056410Y-140140000D01*
X179468012Y-140140000D01*
X179500925Y-140082993D01*
X179535000Y-139955826D01*
X179535000Y-139824174D01*
X179500925Y-139697007D01*
X179468012Y-139640000D01*
X180056410Y-139640000D01*
X180009766Y-139486233D01*
X179912271Y-139303833D01*
X179912267Y-139303826D01*
X179781055Y-139143944D01*
X179621173Y-139012732D01*
X179621166Y-139012728D01*
X179438766Y-138915233D01*
X179368399Y-138893888D01*
X179309960Y-138855590D01*
X179281504Y-138791778D01*
X179292064Y-138722711D01*
X179338288Y-138670317D01*
X179404136Y-138651227D01*
X181217708Y-138647478D01*
X181284786Y-138667024D01*
X181330650Y-138719733D01*
X181340736Y-138788871D01*
X181311843Y-138852487D01*
X181253958Y-138890138D01*
X181171236Y-138915232D01*
X180988833Y-139012728D01*
X180988826Y-139012732D01*
X180828944Y-139143944D01*
X180697732Y-139303826D01*
X180697728Y-139303833D01*
X180600233Y-139486233D01*
X180553590Y-139640000D01*
X181141988Y-139640000D01*
X181109075Y-139697007D01*
X181075000Y-139824174D01*
X181075000Y-139955826D01*
X181109075Y-140082993D01*
X181141988Y-140140000D01*
X180553590Y-140140000D01*
X180600233Y-140293766D01*
X180697728Y-140476166D01*
X180697732Y-140476173D01*
X180828944Y-140636055D01*
X180988826Y-140767267D01*
X180988833Y-140767271D01*
X181171233Y-140864766D01*
X181325000Y-140911410D01*
X181325000Y-140323012D01*
X181382007Y-140355925D01*
X181509174Y-140390000D01*
X181640826Y-140390000D01*
X181767993Y-140355925D01*
X181825000Y-140323012D01*
X181825000Y-140911410D01*
X181978766Y-140864766D01*
X182161166Y-140767271D01*
X182161173Y-140767267D01*
X182321055Y-140636055D01*
X182452267Y-140476173D01*
X182452271Y-140476166D01*
X182549766Y-140293766D01*
X182596410Y-140140000D01*
X182008012Y-140140000D01*
X182040925Y-140082993D01*
X182075000Y-139955826D01*
X182075000Y-139824174D01*
X182040925Y-139697007D01*
X182008012Y-139640000D01*
X182596410Y-139640000D01*
X182549766Y-139486233D01*
X182452271Y-139303833D01*
X182452267Y-139303826D01*
X182321055Y-139143944D01*
X182161173Y-139012732D01*
X182161166Y-139012728D01*
X181978763Y-138915232D01*
X181891208Y-138888672D01*
X181832770Y-138850375D01*
X181804313Y-138786562D01*
X181814874Y-138717495D01*
X181861099Y-138665102D01*
X181926945Y-138646012D01*
X183089220Y-138643610D01*
X183156300Y-138663156D01*
X183202164Y-138715866D01*
X183212250Y-138785003D01*
X183183357Y-138848619D01*
X183158367Y-138870712D01*
X183120808Y-138895808D01*
X183076603Y-138961965D01*
X183076602Y-138961966D01*
X183065000Y-139020297D01*
X183065000Y-139640000D01*
X183681988Y-139640000D01*
X183649075Y-139697007D01*
X183615000Y-139824174D01*
X183615000Y-139955826D01*
X183649075Y-140082993D01*
X183681988Y-140140000D01*
X183065000Y-140140000D01*
X183065000Y-140759702D01*
X183076602Y-140818033D01*
X183076603Y-140818034D01*
X183120808Y-140884191D01*
X183186965Y-140928396D01*
X183186966Y-140928397D01*
X183245297Y-140939999D01*
X183245301Y-140940000D01*
X183865000Y-140940000D01*
X183865000Y-140323012D01*
X183922007Y-140355925D01*
X184049174Y-140390000D01*
X184180826Y-140390000D01*
X184307993Y-140355925D01*
X184365000Y-140323012D01*
X184365000Y-140940000D01*
X184984699Y-140940000D01*
X184984702Y-140939999D01*
X185043033Y-140928397D01*
X185043034Y-140928396D01*
X185109191Y-140884191D01*
X185153396Y-140818034D01*
X185153397Y-140818033D01*
X185164999Y-140759702D01*
X185165000Y-140759699D01*
X185165000Y-140140000D01*
X184548012Y-140140000D01*
X184580925Y-140082993D01*
X184615000Y-139955826D01*
X184615000Y-139824174D01*
X184580925Y-139697007D01*
X184548012Y-139640000D01*
X185165000Y-139640000D01*
X185165000Y-139020301D01*
X185164999Y-139020297D01*
X185153397Y-138961966D01*
X185153396Y-138961965D01*
X185109191Y-138895808D01*
X185065307Y-138866485D01*
X185020502Y-138812873D01*
X185011795Y-138743548D01*
X185041950Y-138680520D01*
X185101393Y-138643801D01*
X185133936Y-138639383D01*
X185600746Y-138638418D01*
X185667824Y-138657964D01*
X185713688Y-138710673D01*
X185725000Y-138762418D01*
X185725000Y-141626000D01*
X185705315Y-141693039D01*
X185652511Y-141738794D01*
X185601000Y-141750000D01*
X168649000Y-141750000D01*
X168581961Y-141730315D01*
X168536206Y-141677511D01*
X168525000Y-141626000D01*
X168525000Y-132018713D01*
X170174500Y-132018713D01*
X170174500Y-132231286D01*
X170204352Y-132419768D01*
X170207754Y-132441243D01*
X170235050Y-132525252D01*
X170273444Y-132643414D01*
X170369951Y-132832820D01*
X170494890Y-133004786D01*
X170645213Y-133155109D01*
X170817179Y-133280048D01*
X170817181Y-133280049D01*
X170817184Y-133280051D01*
X171006588Y-133376557D01*
X171208757Y-133442246D01*
X171418713Y-133475500D01*
X171418714Y-133475500D01*
X171631286Y-133475500D01*
X171631287Y-133475500D01*
X171841243Y-133442246D01*
X172043412Y-133376557D01*
X172232816Y-133280051D01*
X172254789Y-133264086D01*
X172404786Y-133155109D01*
X172404788Y-133155106D01*
X172404792Y-133155104D01*
X172555104Y-133004792D01*
X172555106Y-133004788D01*
X172555109Y-133004786D01*
X172680048Y-132832820D01*
X172680047Y-132832820D01*
X172680051Y-132832816D01*
X172776557Y-132643412D01*
X172842246Y-132441243D01*
X172875500Y-132231287D01*
X172875500Y-132018713D01*
X172842246Y-131808757D01*
X172776557Y-131606588D01*
X172680051Y-131417184D01*
X172680049Y-131417181D01*
X172680048Y-131417179D01*
X172555109Y-131245213D01*
X172404786Y-131094890D01*
X172232820Y-130969951D01*
X172043414Y-130873444D01*
X172043413Y-130873443D01*
X172043412Y-130873443D01*
X171841243Y-130807754D01*
X171841241Y-130807753D01*
X171841240Y-130807753D01*
X171679957Y-130782208D01*
X171631287Y-130774500D01*
X171418713Y-130774500D01*
X171370042Y-130782208D01*
X171208760Y-130807753D01*
X171006585Y-130873444D01*
X170817179Y-130969951D01*
X170645213Y-131094890D01*
X170494890Y-131245213D01*
X170369951Y-131417179D01*
X170273444Y-131606585D01*
X170207753Y-131808760D01*
X170174500Y-132018713D01*
X168525000Y-132018713D01*
X168525000Y-124504196D01*
X174300001Y-124504196D01*
X174302851Y-124534606D01*
X174347653Y-124662645D01*
X174428207Y-124771792D01*
X174537354Y-124852346D01*
X174665397Y-124897149D01*
X174695792Y-124899999D01*
X175999999Y-124899999D01*
X176500000Y-124899999D01*
X177804196Y-124899999D01*
X177834606Y-124897148D01*
X177962645Y-124852346D01*
X178071792Y-124771792D01*
X178152346Y-124662645D01*
X178197149Y-124534604D01*
X178197149Y-124534600D01*
X178200000Y-124504206D01*
X178200000Y-124150000D01*
X176500000Y-124150000D01*
X176500000Y-124899999D01*
X175999999Y-124899999D01*
X176000000Y-124899998D01*
X176000000Y-124150000D01*
X174300001Y-124150000D01*
X174300001Y-124504196D01*
X168525000Y-124504196D01*
X168525000Y-123295793D01*
X174300000Y-123295793D01*
X174300000Y-123650000D01*
X176000000Y-123650000D01*
X176500000Y-123650000D01*
X178199999Y-123650000D01*
X178199999Y-123295803D01*
X178197148Y-123265393D01*
X178152346Y-123137354D01*
X178071792Y-123028207D01*
X177962645Y-122947653D01*
X177834602Y-122902850D01*
X177804207Y-122900000D01*
X176500000Y-122900000D01*
X176500000Y-123650000D01*
X176000000Y-123650000D01*
X176000000Y-122900000D01*
X174695803Y-122900000D01*
X174665393Y-122902851D01*
X174537354Y-122947653D01*
X174428207Y-123028207D01*
X174347653Y-123137354D01*
X174302850Y-123265395D01*
X174302850Y-123265399D01*
X174300000Y-123295793D01*
X168525000Y-123295793D01*
X168525000Y-112425000D01*
X170635403Y-112425000D01*
X170653744Y-112611230D01*
X170708069Y-112790313D01*
X170764868Y-112896577D01*
X170764869Y-112896577D01*
X171190000Y-112471446D01*
X171190000Y-112477661D01*
X171217259Y-112579394D01*
X171269920Y-112670606D01*
X171344394Y-112745080D01*
X171435606Y-112797741D01*
X171537339Y-112825000D01*
X171543553Y-112825000D01*
X171118422Y-113250130D01*
X171224688Y-113306931D01*
X171403769Y-113361255D01*
X171590000Y-113379596D01*
X171776230Y-113361255D01*
X171955311Y-113306931D01*
X172061577Y-113250130D01*
X172061577Y-113250129D01*
X171636448Y-112825000D01*
X171642661Y-112825000D01*
X171744394Y-112797741D01*
X171835606Y-112745080D01*
X171910080Y-112670606D01*
X171962741Y-112579394D01*
X171990000Y-112477661D01*
X171990000Y-112471447D01*
X172415129Y-112896577D01*
X172415130Y-112896577D01*
X172471931Y-112790311D01*
X172526255Y-112611230D01*
X172544596Y-112425000D01*
X173175403Y-112425000D01*
X173193744Y-112611230D01*
X173248069Y-112790313D01*
X173304868Y-112896577D01*
X173304869Y-112896577D01*
X173730000Y-112471446D01*
X173730000Y-112477661D01*
X173757259Y-112579394D01*
X173809920Y-112670606D01*
X173884394Y-112745080D01*
X173975606Y-112797741D01*
X174077339Y-112825000D01*
X174083553Y-112825000D01*
X173658422Y-113250130D01*
X173764688Y-113306931D01*
X173943769Y-113361255D01*
X174130000Y-113379596D01*
X174316230Y-113361255D01*
X174495311Y-113306931D01*
X174601577Y-113250130D01*
X174601577Y-113250129D01*
X174176448Y-112825000D01*
X174182661Y-112825000D01*
X174284394Y-112797741D01*
X174375606Y-112745080D01*
X174450080Y-112670606D01*
X174502741Y-112579394D01*
X174530000Y-112477661D01*
X174530000Y-112471447D01*
X174955129Y-112896577D01*
X174955130Y-112896577D01*
X175011931Y-112790311D01*
X175066255Y-112611230D01*
X175084596Y-112425000D01*
X175715403Y-112425000D01*
X175733744Y-112611230D01*
X175788069Y-112790313D01*
X175844868Y-112896577D01*
X175844869Y-112896577D01*
X176270000Y-112471446D01*
X176270000Y-112477661D01*
X176297259Y-112579394D01*
X176349920Y-112670606D01*
X176424394Y-112745080D01*
X176515606Y-112797741D01*
X176617339Y-112825000D01*
X176623553Y-112825000D01*
X176198422Y-113250130D01*
X176304688Y-113306931D01*
X176483769Y-113361255D01*
X176670000Y-113379596D01*
X176856230Y-113361255D01*
X177035311Y-113306931D01*
X177141577Y-113250130D01*
X177141577Y-113250129D01*
X176716448Y-112825000D01*
X176722661Y-112825000D01*
X176824394Y-112797741D01*
X176915606Y-112745080D01*
X176990080Y-112670606D01*
X177042741Y-112579394D01*
X177070000Y-112477661D01*
X177070000Y-112471447D01*
X177495129Y-112896577D01*
X177495130Y-112896577D01*
X177551931Y-112790311D01*
X177606255Y-112611230D01*
X177624596Y-112425000D01*
X177606255Y-112238769D01*
X177551931Y-112059688D01*
X177495130Y-111953422D01*
X177070000Y-112378552D01*
X177070000Y-112372339D01*
X177042741Y-112270606D01*
X176990080Y-112179394D01*
X176915606Y-112104920D01*
X176824394Y-112052259D01*
X176722661Y-112025000D01*
X176716447Y-112025000D01*
X177141577Y-111599869D01*
X177141577Y-111599868D01*
X177035313Y-111543069D01*
X176856230Y-111488744D01*
X176670000Y-111470403D01*
X176483769Y-111488744D01*
X176304692Y-111543067D01*
X176198422Y-111599869D01*
X176623554Y-112025000D01*
X176617339Y-112025000D01*
X176515606Y-112052259D01*
X176424394Y-112104920D01*
X176349920Y-112179394D01*
X176297259Y-112270606D01*
X176270000Y-112372339D01*
X176270000Y-112378553D01*
X175844869Y-111953422D01*
X175788067Y-112059692D01*
X175733744Y-112238769D01*
X175715403Y-112425000D01*
X175084596Y-112425000D01*
X175066255Y-112238769D01*
X175011931Y-112059688D01*
X174955130Y-111953422D01*
X174530000Y-112378552D01*
X174530000Y-112372339D01*
X174502741Y-112270606D01*
X174450080Y-112179394D01*
X174375606Y-112104920D01*
X174284394Y-112052259D01*
X174182661Y-112025000D01*
X174176447Y-112025000D01*
X174601577Y-111599869D01*
X174601577Y-111599868D01*
X174495313Y-111543069D01*
X174316230Y-111488744D01*
X174130000Y-111470403D01*
X173943769Y-111488744D01*
X173764692Y-111543067D01*
X173658422Y-111599869D01*
X174083554Y-112025000D01*
X174077339Y-112025000D01*
X173975606Y-112052259D01*
X173884394Y-112104920D01*
X173809920Y-112179394D01*
X173757259Y-112270606D01*
X173730000Y-112372339D01*
X173730000Y-112378553D01*
X173304869Y-111953422D01*
X173248067Y-112059692D01*
X173193744Y-112238769D01*
X173175403Y-112425000D01*
X172544596Y-112425000D01*
X172526255Y-112238769D01*
X172471931Y-112059688D01*
X172415130Y-111953422D01*
X171990000Y-112378552D01*
X171990000Y-112372339D01*
X171962741Y-112270606D01*
X171910080Y-112179394D01*
X171835606Y-112104920D01*
X171744394Y-112052259D01*
X171642661Y-112025000D01*
X171636447Y-112025000D01*
X172061577Y-111599869D01*
X172061577Y-111599868D01*
X171955313Y-111543069D01*
X171776230Y-111488744D01*
X171590000Y-111470403D01*
X171403769Y-111488744D01*
X171224692Y-111543067D01*
X171118422Y-111599869D01*
X171543554Y-112025000D01*
X171537339Y-112025000D01*
X171435606Y-112052259D01*
X171344394Y-112104920D01*
X171269920Y-112179394D01*
X171217259Y-112270606D01*
X171190000Y-112372339D01*
X171190000Y-112378553D01*
X170764869Y-111953422D01*
X170708067Y-112059692D01*
X170653744Y-112238769D01*
X170635403Y-112425000D01*
X168525000Y-112425000D01*
X168525000Y-110449000D01*
X168544685Y-110381961D01*
X168597489Y-110336206D01*
X168649000Y-110325000D01*
X180261000Y-110325000D01*
X180328039Y-110344685D01*
G37*
G04 #@! TD.AperFunction*
G04 #@! TA.AperFunction,Conductor*
G36*
X176029075Y-146047007D02*
G01*
X175995000Y-146174174D01*
X175995000Y-146305826D01*
X176029075Y-146432993D01*
X176061988Y-146490000D01*
X174388012Y-146490000D01*
X174420925Y-146432993D01*
X174455000Y-146305826D01*
X174455000Y-146174174D01*
X174420925Y-146047007D01*
X174388012Y-145990000D01*
X176061988Y-145990000D01*
X176029075Y-146047007D01*
G37*
G04 #@! TD.AperFunction*
G04 #@! TA.AperFunction,Conductor*
G36*
X178569075Y-146047007D02*
G01*
X178535000Y-146174174D01*
X178535000Y-146305826D01*
X178569075Y-146432993D01*
X178601988Y-146490000D01*
X176928012Y-146490000D01*
X176960925Y-146432993D01*
X176995000Y-146305826D01*
X176995000Y-146174174D01*
X176960925Y-146047007D01*
X176928012Y-145990000D01*
X178601988Y-145990000D01*
X178569075Y-146047007D01*
G37*
G04 #@! TD.AperFunction*
G04 #@! TA.AperFunction,Conductor*
G36*
X181109075Y-146047007D02*
G01*
X181075000Y-146174174D01*
X181075000Y-146305826D01*
X181109075Y-146432993D01*
X181141988Y-146490000D01*
X179468012Y-146490000D01*
X179500925Y-146432993D01*
X179535000Y-146305826D01*
X179535000Y-146174174D01*
X179500925Y-146047007D01*
X179468012Y-145990000D01*
X181141988Y-145990000D01*
X181109075Y-146047007D01*
G37*
G04 #@! TD.AperFunction*
G04 #@! TA.AperFunction,Conductor*
G36*
X183649075Y-146047007D02*
G01*
X183615000Y-146174174D01*
X183615000Y-146305826D01*
X183649075Y-146432993D01*
X183681988Y-146490000D01*
X182008012Y-146490000D01*
X182040925Y-146432993D01*
X182075000Y-146305826D01*
X182075000Y-146174174D01*
X182040925Y-146047007D01*
X182008012Y-145990000D01*
X183681988Y-145990000D01*
X183649075Y-146047007D01*
G37*
G04 #@! TD.AperFunction*
G04 #@! TA.AperFunction,Conductor*
G36*
X174205000Y-145806988D02*
G01*
X174147993Y-145774075D01*
X174020826Y-145740000D01*
X173889174Y-145740000D01*
X173762007Y-145774075D01*
X173705000Y-145806988D01*
X173705000Y-144133012D01*
X173762007Y-144165925D01*
X173889174Y-144200000D01*
X174020826Y-144200000D01*
X174147993Y-144165925D01*
X174205000Y-144133012D01*
X174205000Y-145806988D01*
G37*
G04 #@! TD.AperFunction*
G04 #@! TA.AperFunction,Conductor*
G36*
X176745000Y-145806988D02*
G01*
X176687993Y-145774075D01*
X176560826Y-145740000D01*
X176429174Y-145740000D01*
X176302007Y-145774075D01*
X176245000Y-145806988D01*
X176245000Y-144133012D01*
X176302007Y-144165925D01*
X176429174Y-144200000D01*
X176560826Y-144200000D01*
X176687993Y-144165925D01*
X176745000Y-144133012D01*
X176745000Y-145806988D01*
G37*
G04 #@! TD.AperFunction*
G04 #@! TA.AperFunction,Conductor*
G36*
X179285000Y-145806988D02*
G01*
X179227993Y-145774075D01*
X179100826Y-145740000D01*
X178969174Y-145740000D01*
X178842007Y-145774075D01*
X178785000Y-145806988D01*
X178785000Y-144133012D01*
X178842007Y-144165925D01*
X178969174Y-144200000D01*
X179100826Y-144200000D01*
X179227993Y-144165925D01*
X179285000Y-144133012D01*
X179285000Y-145806988D01*
G37*
G04 #@! TD.AperFunction*
G04 #@! TA.AperFunction,Conductor*
G36*
X181825000Y-145806988D02*
G01*
X181767993Y-145774075D01*
X181640826Y-145740000D01*
X181509174Y-145740000D01*
X181382007Y-145774075D01*
X181325000Y-145806988D01*
X181325000Y-144133012D01*
X181382007Y-144165925D01*
X181509174Y-144200000D01*
X181640826Y-144200000D01*
X181767993Y-144165925D01*
X181825000Y-144133012D01*
X181825000Y-145806988D01*
G37*
G04 #@! TD.AperFunction*
G04 #@! TA.AperFunction,Conductor*
G36*
X184365000Y-145806988D02*
G01*
X184307993Y-145774075D01*
X184180826Y-145740000D01*
X184049174Y-145740000D01*
X183922007Y-145774075D01*
X183865000Y-145806988D01*
X183865000Y-144133012D01*
X183922007Y-144165925D01*
X184049174Y-144200000D01*
X184180826Y-144200000D01*
X184307993Y-144165925D01*
X184365000Y-144133012D01*
X184365000Y-145806988D01*
G37*
G04 #@! TD.AperFunction*
G04 #@! TA.AperFunction,Conductor*
G36*
X176029075Y-143507007D02*
G01*
X175995000Y-143634174D01*
X175995000Y-143765826D01*
X176029075Y-143892993D01*
X176061988Y-143950000D01*
X174388012Y-143950000D01*
X174420925Y-143892993D01*
X174455000Y-143765826D01*
X174455000Y-143634174D01*
X174420925Y-143507007D01*
X174388012Y-143450000D01*
X176061988Y-143450000D01*
X176029075Y-143507007D01*
G37*
G04 #@! TD.AperFunction*
G04 #@! TA.AperFunction,Conductor*
G36*
X178569075Y-143507007D02*
G01*
X178535000Y-143634174D01*
X178535000Y-143765826D01*
X178569075Y-143892993D01*
X178601988Y-143950000D01*
X176928012Y-143950000D01*
X176960925Y-143892993D01*
X176995000Y-143765826D01*
X176995000Y-143634174D01*
X176960925Y-143507007D01*
X176928012Y-143450000D01*
X178601988Y-143450000D01*
X178569075Y-143507007D01*
G37*
G04 #@! TD.AperFunction*
G04 #@! TA.AperFunction,Conductor*
G36*
X181109075Y-143507007D02*
G01*
X181075000Y-143634174D01*
X181075000Y-143765826D01*
X181109075Y-143892993D01*
X181141988Y-143950000D01*
X179468012Y-143950000D01*
X179500925Y-143892993D01*
X179535000Y-143765826D01*
X179535000Y-143634174D01*
X179500925Y-143507007D01*
X179468012Y-143450000D01*
X181141988Y-143450000D01*
X181109075Y-143507007D01*
G37*
G04 #@! TD.AperFunction*
G04 #@! TA.AperFunction,Conductor*
G36*
X183649075Y-143507007D02*
G01*
X183615000Y-143634174D01*
X183615000Y-143765826D01*
X183649075Y-143892993D01*
X183681988Y-143950000D01*
X182008012Y-143950000D01*
X182040925Y-143892993D01*
X182075000Y-143765826D01*
X182075000Y-143634174D01*
X182040925Y-143507007D01*
X182008012Y-143450000D01*
X183681988Y-143450000D01*
X183649075Y-143507007D01*
G37*
G04 #@! TD.AperFunction*
G04 #@! TA.AperFunction,Conductor*
G36*
X207125000Y-134725633D02*
G01*
X207338483Y-134668433D01*
X207338492Y-134668430D01*
X207548095Y-134570690D01*
X207617172Y-134560198D01*
X207680956Y-134588718D01*
X207719196Y-134647194D01*
X207724500Y-134683072D01*
X207724500Y-136414166D01*
X207704815Y-136481205D01*
X207688181Y-136501848D01*
X207554326Y-136635702D01*
X207493003Y-136669186D01*
X207423311Y-136664202D01*
X207408193Y-136657379D01*
X207393956Y-136649769D01*
X207393955Y-136649768D01*
X207393954Y-136649768D01*
X207195934Y-136589700D01*
X207195932Y-136589699D01*
X207195934Y-136589699D01*
X206990000Y-136569417D01*
X206784067Y-136589699D01*
X206608692Y-136642898D01*
X206586050Y-136649767D01*
X206586043Y-136649769D01*
X206486328Y-136703069D01*
X206403550Y-136747315D01*
X206403548Y-136747316D01*
X206403547Y-136747317D01*
X206243589Y-136878590D01*
X206122853Y-137025708D01*
X206065108Y-137065042D01*
X205995263Y-137066913D01*
X205935495Y-137030726D01*
X205904779Y-136967970D01*
X205903000Y-136947043D01*
X205903000Y-134600645D01*
X205922685Y-134533606D01*
X205975489Y-134487851D01*
X206044647Y-134477907D01*
X206098124Y-134499071D01*
X206197414Y-134568595D01*
X206197420Y-134568599D01*
X206411507Y-134668429D01*
X206411516Y-134668433D01*
X206625000Y-134725634D01*
X206625000Y-133828012D01*
X206682007Y-133860925D01*
X206809174Y-133895000D01*
X206940826Y-133895000D01*
X207067993Y-133860925D01*
X207125000Y-133828012D01*
X207125000Y-134725633D01*
G37*
G04 #@! TD.AperFunction*
G04 #@! TA.AperFunction,Conductor*
G36*
X223281581Y-133656112D02*
G01*
X223333975Y-133702336D01*
X223348841Y-133736349D01*
X223381567Y-133858486D01*
X223381570Y-133858492D01*
X223481399Y-134072578D01*
X223616894Y-134266082D01*
X223783917Y-134433105D01*
X223977421Y-134568600D01*
X224191507Y-134668429D01*
X224191516Y-134668433D01*
X224405000Y-134725634D01*
X224405000Y-133828012D01*
X224462007Y-133860925D01*
X224589174Y-133895000D01*
X224720826Y-133895000D01*
X224847993Y-133860925D01*
X224905000Y-133828012D01*
X224905000Y-134725633D01*
X225118483Y-134668433D01*
X225118492Y-134668430D01*
X225328095Y-134570690D01*
X225397172Y-134560198D01*
X225460956Y-134588718D01*
X225499196Y-134647194D01*
X225504500Y-134683072D01*
X225504500Y-134880982D01*
X225484815Y-134948021D01*
X225468181Y-134968663D01*
X223213994Y-137222849D01*
X223152671Y-137256334D01*
X223084801Y-137251480D01*
X223084784Y-137251537D01*
X223084534Y-137251461D01*
X223082979Y-137251350D01*
X223078981Y-137249776D01*
X222905009Y-137197003D01*
X222880934Y-137189700D01*
X222880932Y-137189699D01*
X222880934Y-137189699D01*
X222675000Y-137169417D01*
X222469067Y-137189699D01*
X222271043Y-137249769D01*
X222088546Y-137347317D01*
X222028164Y-137396871D01*
X221963853Y-137424183D01*
X221894986Y-137412391D01*
X221843426Y-137365238D01*
X221825500Y-137301017D01*
X221825500Y-134558882D01*
X221845185Y-134491843D01*
X221897989Y-134446088D01*
X221961652Y-134435479D01*
X222115000Y-134450583D01*
X222320934Y-134430300D01*
X222518954Y-134370232D01*
X222701450Y-134272685D01*
X222861410Y-134141410D01*
X222992685Y-133981450D01*
X223090232Y-133798954D01*
X223110406Y-133732446D01*
X223148702Y-133674010D01*
X223212514Y-133645553D01*
X223281581Y-133656112D01*
G37*
G04 #@! TD.AperFunction*
G04 #@! TA.AperFunction,Conductor*
G36*
X232326175Y-104869685D02*
G01*
X232360262Y-104902241D01*
X232518385Y-105125094D01*
X232525778Y-105136860D01*
X232679040Y-105414166D01*
X232685073Y-105426694D01*
X232715561Y-105500298D01*
X232725000Y-105547751D01*
X232725000Y-147826000D01*
X232705315Y-147893039D01*
X232652511Y-147938794D01*
X232601000Y-147950000D01*
X168851362Y-147950000D01*
X168784323Y-147930315D01*
X168763681Y-147913681D01*
X168511319Y-147661319D01*
X168477834Y-147599996D01*
X168475000Y-147573638D01*
X168475000Y-143449999D01*
X172624364Y-143449999D01*
X172624364Y-143450000D01*
X173521988Y-143450000D01*
X173489075Y-143507007D01*
X173455000Y-143634174D01*
X173455000Y-143765826D01*
X173489075Y-143892993D01*
X173521988Y-143950000D01*
X172624364Y-143950000D01*
X172681567Y-144163486D01*
X172681570Y-144163492D01*
X172781399Y-144377578D01*
X172916894Y-144571082D01*
X173083917Y-144738105D01*
X173270031Y-144868425D01*
X173313656Y-144923003D01*
X173320848Y-144992501D01*
X173289326Y-145054856D01*
X173270031Y-145071575D01*
X173083922Y-145201890D01*
X173083920Y-145201891D01*
X172916891Y-145368920D01*
X172916886Y-145368926D01*
X172781400Y-145562420D01*
X172781399Y-145562422D01*
X172681570Y-145776507D01*
X172681567Y-145776513D01*
X172624364Y-145989999D01*
X172624364Y-145990000D01*
X173521988Y-145990000D01*
X173489075Y-146047007D01*
X173455000Y-146174174D01*
X173455000Y-146305826D01*
X173489075Y-146432993D01*
X173521988Y-146490000D01*
X172624364Y-146490000D01*
X172681567Y-146703486D01*
X172681570Y-146703492D01*
X172781399Y-146917578D01*
X172916894Y-147111082D01*
X173083917Y-147278105D01*
X173277421Y-147413600D01*
X173491507Y-147513429D01*
X173491516Y-147513433D01*
X173705000Y-147570634D01*
X173705000Y-146673012D01*
X173762007Y-146705925D01*
X173889174Y-146740000D01*
X174020826Y-146740000D01*
X174147993Y-146705925D01*
X174205000Y-146673012D01*
X174205000Y-147570633D01*
X174418483Y-147513433D01*
X174418492Y-147513429D01*
X174632578Y-147413600D01*
X174826082Y-147278105D01*
X174993105Y-147111082D01*
X175123425Y-146924968D01*
X175178002Y-146881344D01*
X175247501Y-146874151D01*
X175309855Y-146905673D01*
X175326575Y-146924968D01*
X175456894Y-147111082D01*
X175623917Y-147278105D01*
X175817421Y-147413600D01*
X176031507Y-147513429D01*
X176031516Y-147513433D01*
X176245000Y-147570634D01*
X176245000Y-146673012D01*
X176302007Y-146705925D01*
X176429174Y-146740000D01*
X176560826Y-146740000D01*
X176687993Y-146705925D01*
X176745000Y-146673012D01*
X176745000Y-147570633D01*
X176958483Y-147513433D01*
X176958492Y-147513429D01*
X177172578Y-147413600D01*
X177366082Y-147278105D01*
X177533105Y-147111082D01*
X177663425Y-146924968D01*
X177718002Y-146881344D01*
X177787501Y-146874151D01*
X177849855Y-146905673D01*
X177866575Y-146924968D01*
X177996894Y-147111082D01*
X178163917Y-147278105D01*
X178357421Y-147413600D01*
X178571507Y-147513429D01*
X178571516Y-147513433D01*
X178785000Y-147570634D01*
X178785000Y-146673012D01*
X178842007Y-146705925D01*
X178969174Y-146740000D01*
X179100826Y-146740000D01*
X179227993Y-146705925D01*
X179285000Y-146673012D01*
X179285000Y-147570633D01*
X179498483Y-147513433D01*
X179498492Y-147513429D01*
X179712578Y-147413600D01*
X179906082Y-147278105D01*
X180073105Y-147111082D01*
X180203425Y-146924968D01*
X180258002Y-146881344D01*
X180327501Y-146874151D01*
X180389855Y-146905673D01*
X180406575Y-146924968D01*
X180536894Y-147111082D01*
X180703917Y-147278105D01*
X180897421Y-147413600D01*
X181111507Y-147513429D01*
X181111516Y-147513433D01*
X181325000Y-147570634D01*
X181325000Y-146673012D01*
X181382007Y-146705925D01*
X181509174Y-146740000D01*
X181640826Y-146740000D01*
X181767993Y-146705925D01*
X181825000Y-146673012D01*
X181825000Y-147570633D01*
X182038483Y-147513433D01*
X182038492Y-147513429D01*
X182252578Y-147413600D01*
X182446078Y-147278108D01*
X182568521Y-147155665D01*
X182629844Y-147122180D01*
X182699536Y-147127164D01*
X182755470Y-147169035D01*
X182772385Y-147200013D01*
X182821645Y-147332086D01*
X182821649Y-147332093D01*
X182907809Y-147447187D01*
X182907812Y-147447190D01*
X183022906Y-147533350D01*
X183022913Y-147533354D01*
X183157620Y-147583596D01*
X183157627Y-147583598D01*
X183217155Y-147589999D01*
X183217172Y-147590000D01*
X183865000Y-147590000D01*
X183865000Y-146673012D01*
X183922007Y-146705925D01*
X184049174Y-146740000D01*
X184180826Y-146740000D01*
X184307993Y-146705925D01*
X184365000Y-146673012D01*
X184365000Y-147590000D01*
X185012828Y-147590000D01*
X185012844Y-147589999D01*
X185072372Y-147583598D01*
X185072379Y-147583596D01*
X185207086Y-147533354D01*
X185207093Y-147533350D01*
X185322187Y-147447190D01*
X185322190Y-147447187D01*
X185356246Y-147401695D01*
X209181279Y-147401695D01*
X230885138Y-147401695D01*
X230885138Y-145837944D01*
X209181279Y-145837944D01*
X209181279Y-147401695D01*
X185356246Y-147401695D01*
X185408350Y-147332093D01*
X185408354Y-147332086D01*
X185458596Y-147197379D01*
X185458598Y-147197372D01*
X185464999Y-147137844D01*
X185465000Y-147137827D01*
X185465000Y-146490000D01*
X184548012Y-146490000D01*
X184580925Y-146432993D01*
X184615000Y-146305826D01*
X184615000Y-146174174D01*
X184580925Y-146047007D01*
X184548012Y-145990000D01*
X185465000Y-145990000D01*
X185465000Y-145342172D01*
X185464999Y-145342155D01*
X185458598Y-145282627D01*
X185458596Y-145282620D01*
X185408354Y-145147913D01*
X185408350Y-145147906D01*
X185322190Y-145032812D01*
X185322187Y-145032809D01*
X185207093Y-144946649D01*
X185207086Y-144946645D01*
X185075013Y-144897385D01*
X185019079Y-144855514D01*
X184994662Y-144790049D01*
X185009514Y-144721776D01*
X185030665Y-144693521D01*
X185153108Y-144571078D01*
X185288600Y-144377578D01*
X185388429Y-144163492D01*
X185388432Y-144163486D01*
X185445636Y-143950000D01*
X184548012Y-143950000D01*
X184580925Y-143892993D01*
X184615000Y-143765826D01*
X184615000Y-143634174D01*
X184580925Y-143507007D01*
X184548012Y-143450000D01*
X185445636Y-143450000D01*
X185445635Y-143449999D01*
X185388432Y-143236513D01*
X185388429Y-143236507D01*
X185288600Y-143022422D01*
X185288599Y-143022420D01*
X185153113Y-142828926D01*
X185153108Y-142828920D01*
X184986082Y-142661894D01*
X184792578Y-142526399D01*
X184578492Y-142426570D01*
X184578486Y-142426567D01*
X184365000Y-142369364D01*
X184365000Y-143266988D01*
X184307993Y-143234075D01*
X184180826Y-143200000D01*
X184049174Y-143200000D01*
X183922007Y-143234075D01*
X183865000Y-143266988D01*
X183865000Y-142369364D01*
X183864999Y-142369364D01*
X183651513Y-142426567D01*
X183651507Y-142426570D01*
X183437422Y-142526399D01*
X183437420Y-142526400D01*
X183243926Y-142661886D01*
X183243920Y-142661891D01*
X183076891Y-142828920D01*
X183076890Y-142828922D01*
X182946575Y-143015031D01*
X182891998Y-143058655D01*
X182822499Y-143065848D01*
X182760145Y-143034326D01*
X182743425Y-143015031D01*
X182613109Y-142828922D01*
X182613108Y-142828920D01*
X182446082Y-142661894D01*
X182252578Y-142526399D01*
X182038492Y-142426570D01*
X182038486Y-142426567D01*
X181825000Y-142369364D01*
X181825000Y-143266988D01*
X181767993Y-143234075D01*
X181640826Y-143200000D01*
X181509174Y-143200000D01*
X181382007Y-143234075D01*
X181325000Y-143266988D01*
X181325000Y-142369364D01*
X181324999Y-142369364D01*
X181111513Y-142426567D01*
X181111507Y-142426570D01*
X180897422Y-142526399D01*
X180897420Y-142526400D01*
X180703926Y-142661886D01*
X180703920Y-142661891D01*
X180536891Y-142828920D01*
X180536890Y-142828922D01*
X180406575Y-143015031D01*
X180351998Y-143058655D01*
X180282499Y-143065848D01*
X180220145Y-143034326D01*
X180203425Y-143015031D01*
X180073109Y-142828922D01*
X180073108Y-142828920D01*
X179906082Y-142661894D01*
X179712578Y-142526399D01*
X179498492Y-142426570D01*
X179498486Y-142426567D01*
X179285000Y-142369364D01*
X179285000Y-143266988D01*
X179227993Y-143234075D01*
X179100826Y-143200000D01*
X178969174Y-143200000D01*
X178842007Y-143234075D01*
X178785000Y-143266988D01*
X178785000Y-142369364D01*
X178784999Y-142369364D01*
X178571513Y-142426567D01*
X178571507Y-142426570D01*
X178357422Y-142526399D01*
X178357420Y-142526400D01*
X178163926Y-142661886D01*
X178163920Y-142661891D01*
X177996891Y-142828920D01*
X177996890Y-142828922D01*
X177866575Y-143015031D01*
X177811998Y-143058655D01*
X177742499Y-143065848D01*
X177680145Y-143034326D01*
X177663425Y-143015031D01*
X177533109Y-142828922D01*
X177533108Y-142828920D01*
X177366082Y-142661894D01*
X177172578Y-142526399D01*
X176958492Y-142426570D01*
X176958486Y-142426567D01*
X176745000Y-142369364D01*
X176745000Y-143266988D01*
X176687993Y-143234075D01*
X176560826Y-143200000D01*
X176429174Y-143200000D01*
X176302007Y-143234075D01*
X176245000Y-143266988D01*
X176245000Y-142369364D01*
X176244999Y-142369364D01*
X176031513Y-142426567D01*
X176031507Y-142426570D01*
X175817422Y-142526399D01*
X175817420Y-142526400D01*
X175623926Y-142661886D01*
X175623920Y-142661891D01*
X175456891Y-142828920D01*
X175456890Y-142828922D01*
X175326575Y-143015031D01*
X175271998Y-143058655D01*
X175202499Y-143065848D01*
X175140145Y-143034326D01*
X175123425Y-143015031D01*
X174993109Y-142828922D01*
X174993108Y-142828920D01*
X174826082Y-142661894D01*
X174632578Y-142526399D01*
X174418492Y-142426570D01*
X174418486Y-142426567D01*
X174205000Y-142369364D01*
X174205000Y-143266988D01*
X174147993Y-143234075D01*
X174020826Y-143200000D01*
X173889174Y-143200000D01*
X173762007Y-143234075D01*
X173705000Y-143266988D01*
X173705000Y-142369364D01*
X173704999Y-142369364D01*
X173491513Y-142426567D01*
X173491507Y-142426570D01*
X173277422Y-142526399D01*
X173277420Y-142526400D01*
X173083926Y-142661886D01*
X173083920Y-142661891D01*
X172916891Y-142828920D01*
X172916886Y-142828926D01*
X172781400Y-143022420D01*
X172781399Y-143022422D01*
X172681570Y-143236507D01*
X172681567Y-143236513D01*
X172624364Y-143449999D01*
X168475000Y-143449999D01*
X168475000Y-142073585D01*
X168494685Y-142006546D01*
X168547489Y-141960791D01*
X168616643Y-141950847D01*
X168649000Y-141955500D01*
X168649001Y-141955500D01*
X185600991Y-141955500D01*
X185601000Y-141955500D01*
X185644684Y-141950803D01*
X185673875Y-141944452D01*
X185696174Y-141939602D01*
X185696190Y-141939598D01*
X185696195Y-141939597D01*
X185706373Y-141937110D01*
X185787085Y-141894100D01*
X185839889Y-141848345D01*
X185857843Y-141830754D01*
X185902490Y-141750937D01*
X185922175Y-141683898D01*
X185930500Y-141626000D01*
X185930500Y-138762418D01*
X185925759Y-138718530D01*
X185914447Y-138666785D01*
X185911892Y-138656401D01*
X185868716Y-138575778D01*
X185822852Y-138523069D01*
X185822848Y-138523065D01*
X185822842Y-138523058D01*
X185822834Y-138523050D01*
X185811436Y-138511465D01*
X185778450Y-138449872D01*
X185784001Y-138380223D01*
X185826326Y-138324632D01*
X185891987Y-138300748D01*
X185899827Y-138300500D01*
X188035500Y-138300500D01*
X188102539Y-138320185D01*
X188148294Y-138372989D01*
X188159500Y-138424500D01*
X188159500Y-138494752D01*
X188171131Y-138553229D01*
X188171132Y-138553230D01*
X188215447Y-138619552D01*
X188281769Y-138663867D01*
X188281770Y-138663868D01*
X188340247Y-138675499D01*
X188340250Y-138675500D01*
X188340252Y-138675500D01*
X188345500Y-138675500D01*
X188412539Y-138695185D01*
X188458294Y-138747989D01*
X188469500Y-138799500D01*
X188469500Y-140483961D01*
X188449815Y-140551000D01*
X188397011Y-140596755D01*
X188369692Y-140605578D01*
X188341770Y-140611132D01*
X188341769Y-140611132D01*
X188275447Y-140655447D01*
X188231132Y-140721769D01*
X188231131Y-140721770D01*
X188219500Y-140780247D01*
X188219500Y-142519752D01*
X188231131Y-142578229D01*
X188231132Y-142578230D01*
X188275447Y-142644552D01*
X188341769Y-142688867D01*
X188341770Y-142688868D01*
X188400247Y-142700499D01*
X188400250Y-142700500D01*
X188400252Y-142700500D01*
X190139750Y-142700500D01*
X190139751Y-142700499D01*
X190154568Y-142697552D01*
X190198229Y-142688868D01*
X190198229Y-142688867D01*
X190198231Y-142688867D01*
X190264552Y-142644552D01*
X190308867Y-142578231D01*
X190308867Y-142578229D01*
X190308868Y-142578229D01*
X190319177Y-142526399D01*
X190320500Y-142519748D01*
X190320500Y-140780252D01*
X190320500Y-140780249D01*
X190320499Y-140780247D01*
X190308868Y-140721770D01*
X190308867Y-140721769D01*
X190264552Y-140655447D01*
X190198230Y-140611132D01*
X190170308Y-140605578D01*
X190108397Y-140573193D01*
X190073823Y-140512477D01*
X190070500Y-140483961D01*
X190070500Y-138774776D01*
X190090185Y-138707737D01*
X190129876Y-138673344D01*
X190128077Y-138670652D01*
X190204552Y-138619552D01*
X190225352Y-138588423D01*
X190248867Y-138553231D01*
X190248867Y-138553229D01*
X190248868Y-138553229D01*
X190258324Y-138505687D01*
X190260500Y-138494748D01*
X190260500Y-137625000D01*
X190694417Y-137625000D01*
X190714699Y-137830932D01*
X190714700Y-137830934D01*
X190774768Y-138028954D01*
X190872315Y-138211450D01*
X190898000Y-138242747D01*
X191003589Y-138371410D01*
X191096020Y-138447265D01*
X191163550Y-138502685D01*
X191346046Y-138600232D01*
X191544066Y-138660300D01*
X191544065Y-138660300D01*
X191557224Y-138661596D01*
X191750000Y-138680583D01*
X191955934Y-138660300D01*
X192153954Y-138600232D01*
X192336450Y-138502685D01*
X192494836Y-138372702D01*
X192559146Y-138345390D01*
X192628013Y-138357181D01*
X192679573Y-138404334D01*
X192697500Y-138468556D01*
X192697500Y-140247982D01*
X192677815Y-140315021D01*
X192661181Y-140335663D01*
X192348994Y-140647849D01*
X192287671Y-140681334D01*
X192219801Y-140676480D01*
X192219784Y-140676537D01*
X192219534Y-140676461D01*
X192217979Y-140676350D01*
X192213981Y-140674776D01*
X192028329Y-140618460D01*
X192015934Y-140614700D01*
X192015932Y-140614699D01*
X192015934Y-140614699D01*
X191810000Y-140594417D01*
X191604067Y-140614699D01*
X191469736Y-140655448D01*
X191406050Y-140674767D01*
X191406043Y-140674769D01*
X191295898Y-140733643D01*
X191223550Y-140772315D01*
X191223548Y-140772316D01*
X191223547Y-140772317D01*
X191063589Y-140903589D01*
X190932317Y-141063547D01*
X190932315Y-141063550D01*
X190893643Y-141135898D01*
X190834769Y-141246043D01*
X190774699Y-141444067D01*
X190754417Y-141650000D01*
X190774699Y-141855932D01*
X190804429Y-141953939D01*
X190834768Y-142053954D01*
X190932315Y-142236450D01*
X190932317Y-142236452D01*
X191063589Y-142396410D01*
X191100340Y-142426570D01*
X191223550Y-142527685D01*
X191406046Y-142625232D01*
X191604066Y-142685300D01*
X191604065Y-142685300D01*
X191622529Y-142687118D01*
X191810000Y-142705583D01*
X192015934Y-142685300D01*
X192213954Y-142625232D01*
X192396450Y-142527685D01*
X192556410Y-142396410D01*
X192687685Y-142236450D01*
X192785232Y-142053954D01*
X192805406Y-141987446D01*
X192843702Y-141929010D01*
X192907514Y-141900553D01*
X192976581Y-141911112D01*
X193028975Y-141957336D01*
X193043841Y-141991349D01*
X193076567Y-142113486D01*
X193076570Y-142113492D01*
X193176399Y-142327578D01*
X193311894Y-142521082D01*
X193478917Y-142688105D01*
X193672421Y-142823600D01*
X193886507Y-142923429D01*
X193886516Y-142923433D01*
X194100000Y-142980634D01*
X194100000Y-142083012D01*
X194157007Y-142115925D01*
X194284174Y-142150000D01*
X194415826Y-142150000D01*
X194542993Y-142115925D01*
X194600000Y-142083012D01*
X194600000Y-142980633D01*
X194813483Y-142923433D01*
X194813492Y-142923429D01*
X195027578Y-142823600D01*
X195221082Y-142688105D01*
X195388105Y-142521082D01*
X195523600Y-142327578D01*
X195623429Y-142113492D01*
X195623433Y-142113483D01*
X195656158Y-141991350D01*
X195692522Y-141931690D01*
X195755369Y-141901160D01*
X195824745Y-141909454D01*
X195878623Y-141953939D01*
X195894593Y-141987447D01*
X195914768Y-142053954D01*
X196012315Y-142236450D01*
X196012317Y-142236452D01*
X196143589Y-142396410D01*
X196180340Y-142426570D01*
X196303550Y-142527685D01*
X196486046Y-142625232D01*
X196684066Y-142685300D01*
X196684065Y-142685300D01*
X196702529Y-142687118D01*
X196890000Y-142705583D01*
X197095934Y-142685300D01*
X197293954Y-142625232D01*
X197476450Y-142527685D01*
X197636410Y-142396410D01*
X197767685Y-142236450D01*
X197865232Y-142053954D01*
X197925300Y-141855934D01*
X197945583Y-141650000D01*
X197925300Y-141444066D01*
X197865232Y-141246046D01*
X197767685Y-141063550D01*
X197692897Y-140972420D01*
X197636410Y-140903589D01*
X197486121Y-140780252D01*
X197476450Y-140772315D01*
X197293954Y-140674768D01*
X197095934Y-140614700D01*
X197095932Y-140614699D01*
X197095934Y-140614699D01*
X196890000Y-140594417D01*
X196684067Y-140614699D01*
X196549736Y-140655448D01*
X196486050Y-140674767D01*
X196486043Y-140674769D01*
X196375898Y-140733643D01*
X196303550Y-140772315D01*
X196303548Y-140772316D01*
X196303547Y-140772317D01*
X196143589Y-140903589D01*
X196012317Y-141063547D01*
X196012315Y-141063550D01*
X195984622Y-141115358D01*
X195914767Y-141246046D01*
X195894593Y-141312552D01*
X195856296Y-141370990D01*
X195792483Y-141399447D01*
X195723416Y-141388886D01*
X195671023Y-141342661D01*
X195656158Y-141308649D01*
X195623433Y-141186516D01*
X195623429Y-141186507D01*
X195523600Y-140972422D01*
X195523599Y-140972420D01*
X195388113Y-140778926D01*
X195388108Y-140778920D01*
X195221082Y-140611894D01*
X195027578Y-140476399D01*
X194813492Y-140376570D01*
X194813486Y-140376567D01*
X194600000Y-140319364D01*
X194600000Y-141216988D01*
X194542993Y-141184075D01*
X194415826Y-141150000D01*
X194284174Y-141150000D01*
X194157007Y-141184075D01*
X194100000Y-141216988D01*
X194100000Y-140319364D01*
X194099999Y-140319364D01*
X193886513Y-140376567D01*
X193886507Y-140376570D01*
X193672422Y-140476399D01*
X193672420Y-140476400D01*
X193547623Y-140563784D01*
X193481417Y-140586111D01*
X193413650Y-140569101D01*
X193365837Y-140518152D01*
X193352500Y-140462209D01*
X193352500Y-138854802D01*
X193372185Y-138787763D01*
X193424989Y-138742008D01*
X193494147Y-138732064D01*
X193547625Y-138753228D01*
X193612420Y-138798599D01*
X193826507Y-138898429D01*
X193826516Y-138898433D01*
X194040000Y-138955634D01*
X194040000Y-138058012D01*
X194097007Y-138090925D01*
X194224174Y-138125000D01*
X194355826Y-138125000D01*
X194482993Y-138090925D01*
X194540000Y-138058012D01*
X194540000Y-138955633D01*
X194753483Y-138898433D01*
X194753492Y-138898429D01*
X194967578Y-138798600D01*
X195161082Y-138663105D01*
X195328105Y-138496082D01*
X195463600Y-138302578D01*
X195563429Y-138088492D01*
X195563433Y-138088483D01*
X195596158Y-137966350D01*
X195632522Y-137906690D01*
X195695369Y-137876160D01*
X195764745Y-137884454D01*
X195818623Y-137928939D01*
X195834593Y-137962447D01*
X195854768Y-138028954D01*
X195952315Y-138211450D01*
X195978000Y-138242747D01*
X196083589Y-138371410D01*
X196176020Y-138447265D01*
X196243550Y-138502685D01*
X196426046Y-138600232D01*
X196624066Y-138660300D01*
X196624065Y-138660300D01*
X196637224Y-138661596D01*
X196830000Y-138680583D01*
X197035934Y-138660300D01*
X197233954Y-138600232D01*
X197416450Y-138502685D01*
X197576410Y-138371410D01*
X197707685Y-138211450D01*
X197805232Y-138028954D01*
X197865300Y-137830934D01*
X197885583Y-137625000D01*
X198314417Y-137625000D01*
X198334699Y-137830932D01*
X198334700Y-137830934D01*
X198394768Y-138028954D01*
X198492315Y-138211450D01*
X198518000Y-138242747D01*
X198623589Y-138371410D01*
X198716020Y-138447265D01*
X198783550Y-138502685D01*
X198966046Y-138600232D01*
X199041496Y-138623119D01*
X199099934Y-138661415D01*
X199128390Y-138725228D01*
X199129500Y-138741779D01*
X199129500Y-140551421D01*
X199109815Y-140618460D01*
X199057011Y-140664215D01*
X199041496Y-140670081D01*
X199026046Y-140674767D01*
X198914296Y-140734500D01*
X198843550Y-140772315D01*
X198843548Y-140772316D01*
X198843547Y-140772317D01*
X198683589Y-140903589D01*
X198552317Y-141063547D01*
X198552315Y-141063550D01*
X198513643Y-141135898D01*
X198454769Y-141246043D01*
X198394699Y-141444067D01*
X198374417Y-141650000D01*
X198394699Y-141855932D01*
X198424429Y-141953939D01*
X198454768Y-142053954D01*
X198552315Y-142236450D01*
X198552317Y-142236452D01*
X198683589Y-142396410D01*
X198720340Y-142426570D01*
X198843550Y-142527685D01*
X199026046Y-142625232D01*
X199224066Y-142685300D01*
X199224065Y-142685300D01*
X199242529Y-142687118D01*
X199430000Y-142705583D01*
X199635934Y-142685300D01*
X199833954Y-142625232D01*
X200016450Y-142527685D01*
X200176410Y-142396410D01*
X200307685Y-142236450D01*
X200405232Y-142053954D01*
X200465300Y-141855934D01*
X200485583Y-141650000D01*
X200465300Y-141444066D01*
X200405232Y-141246046D01*
X200307685Y-141063550D01*
X200232897Y-140972420D01*
X200176410Y-140903589D01*
X200026121Y-140780252D01*
X200016450Y-140772315D01*
X199848197Y-140682381D01*
X199833953Y-140674767D01*
X199818504Y-140670081D01*
X199760066Y-140631784D01*
X199731609Y-140567971D01*
X199730500Y-140551421D01*
X199730500Y-138697781D01*
X199750185Y-138630742D01*
X199796044Y-138588424D01*
X199956450Y-138502685D01*
X200116410Y-138371410D01*
X200247685Y-138211450D01*
X200345232Y-138028954D01*
X200405300Y-137830934D01*
X200425583Y-137625000D01*
X200405300Y-137419066D01*
X200345232Y-137221046D01*
X200247685Y-137038550D01*
X200172588Y-136947043D01*
X200116410Y-136878589D01*
X199989584Y-136774507D01*
X199956450Y-136747315D01*
X199773954Y-136649768D01*
X199575934Y-136589700D01*
X199575932Y-136589699D01*
X199575934Y-136589699D01*
X199370000Y-136569417D01*
X199164067Y-136589699D01*
X198988692Y-136642898D01*
X198966050Y-136649767D01*
X198966043Y-136649769D01*
X198866328Y-136703069D01*
X198783550Y-136747315D01*
X198783548Y-136747316D01*
X198783547Y-136747317D01*
X198623589Y-136878589D01*
X198492317Y-137038547D01*
X198492315Y-137038550D01*
X198458394Y-137102011D01*
X198394769Y-137221043D01*
X198334699Y-137419067D01*
X198314417Y-137625000D01*
X197885583Y-137625000D01*
X197865300Y-137419066D01*
X197805232Y-137221046D01*
X197707685Y-137038550D01*
X197632588Y-136947043D01*
X197576410Y-136878589D01*
X197449584Y-136774507D01*
X197416450Y-136747315D01*
X197233954Y-136649768D01*
X197035934Y-136589700D01*
X197035932Y-136589699D01*
X197035934Y-136589699D01*
X196830000Y-136569417D01*
X196624067Y-136589699D01*
X196448692Y-136642898D01*
X196426050Y-136649767D01*
X196426043Y-136649769D01*
X196326328Y-136703069D01*
X196243550Y-136747315D01*
X196243548Y-136747316D01*
X196243547Y-136747317D01*
X196083589Y-136878589D01*
X195952317Y-137038547D01*
X195952315Y-137038550D01*
X195924622Y-137090358D01*
X195854767Y-137221046D01*
X195834593Y-137287552D01*
X195796296Y-137345990D01*
X195732483Y-137374447D01*
X195663416Y-137363886D01*
X195611023Y-137317661D01*
X195596158Y-137283649D01*
X195563433Y-137161516D01*
X195563429Y-137161507D01*
X195463600Y-136947422D01*
X195463599Y-136947420D01*
X195328113Y-136753926D01*
X195328108Y-136753920D01*
X195161082Y-136586894D01*
X194967578Y-136451399D01*
X194753492Y-136351570D01*
X194753486Y-136351567D01*
X194652230Y-136324436D01*
X194592570Y-136288071D01*
X194562041Y-136225224D01*
X194570336Y-136155848D01*
X194596638Y-136116986D01*
X195249806Y-135463819D01*
X195311129Y-135430334D01*
X195337487Y-135427500D01*
X196968114Y-135427500D01*
X196968116Y-135427500D01*
X197051410Y-135405181D01*
X197126090Y-135362065D01*
X198262065Y-134226090D01*
X198302991Y-134155202D01*
X198353556Y-134106987D01*
X198422163Y-134093763D01*
X198487028Y-134119730D01*
X198506227Y-134138533D01*
X198508585Y-134141406D01*
X198508586Y-134141407D01*
X198508590Y-134141410D01*
X198668550Y-134272685D01*
X198851046Y-134370232D01*
X199049066Y-134430300D01*
X199049065Y-134430300D01*
X199067529Y-134432118D01*
X199255000Y-134450583D01*
X199460934Y-134430300D01*
X199658954Y-134370232D01*
X199673191Y-134362621D01*
X199741592Y-134348379D01*
X199806837Y-134373377D01*
X199819327Y-134384298D01*
X201633181Y-136198152D01*
X201666666Y-136259475D01*
X201669500Y-136285833D01*
X201669500Y-136508220D01*
X201649815Y-136575259D01*
X201597011Y-136621014D01*
X201581496Y-136626880D01*
X201506046Y-136649767D01*
X201375358Y-136719622D01*
X201323550Y-136747315D01*
X201323548Y-136747316D01*
X201323547Y-136747317D01*
X201163589Y-136878589D01*
X201032317Y-137038547D01*
X201032315Y-137038550D01*
X200998394Y-137102011D01*
X200934769Y-137221043D01*
X200874699Y-137419067D01*
X200854417Y-137625000D01*
X200874699Y-137830932D01*
X200874700Y-137830934D01*
X200934768Y-138028954D01*
X201032315Y-138211450D01*
X201058000Y-138242747D01*
X201163589Y-138371410D01*
X201256020Y-138447265D01*
X201323550Y-138502685D01*
X201506046Y-138600232D01*
X201581496Y-138623119D01*
X201639934Y-138661415D01*
X201668390Y-138725228D01*
X201669500Y-138741779D01*
X201669500Y-140551421D01*
X201649815Y-140618460D01*
X201597011Y-140664215D01*
X201581496Y-140670081D01*
X201566046Y-140674767D01*
X201454296Y-140734500D01*
X201383550Y-140772315D01*
X201383548Y-140772316D01*
X201383547Y-140772317D01*
X201223589Y-140903589D01*
X201092317Y-141063547D01*
X201092315Y-141063550D01*
X201053643Y-141135898D01*
X200994769Y-141246043D01*
X200934699Y-141444067D01*
X200914417Y-141650000D01*
X200934699Y-141855932D01*
X200964429Y-141953939D01*
X200994768Y-142053954D01*
X201092315Y-142236450D01*
X201092317Y-142236452D01*
X201223589Y-142396410D01*
X201260340Y-142426570D01*
X201383550Y-142527685D01*
X201566046Y-142625232D01*
X201764066Y-142685300D01*
X201764065Y-142685300D01*
X201782529Y-142687118D01*
X201970000Y-142705583D01*
X202175934Y-142685300D01*
X202373954Y-142625232D01*
X202556450Y-142527685D01*
X202716410Y-142396410D01*
X202847685Y-142236450D01*
X202945232Y-142053954D01*
X203005300Y-141855934D01*
X203025583Y-141650000D01*
X203005300Y-141444066D01*
X202945232Y-141246046D01*
X202847685Y-141063550D01*
X202772897Y-140972420D01*
X202716410Y-140903589D01*
X202566121Y-140780252D01*
X202556450Y-140772315D01*
X202388197Y-140682381D01*
X202373953Y-140674767D01*
X202358504Y-140670081D01*
X202300066Y-140631784D01*
X202271609Y-140567971D01*
X202270500Y-140551421D01*
X202270500Y-138697781D01*
X202290185Y-138630742D01*
X202336044Y-138588424D01*
X202496450Y-138502685D01*
X202656410Y-138371410D01*
X202787685Y-138211450D01*
X202885232Y-138028954D01*
X202945300Y-137830934D01*
X202965583Y-137625000D01*
X202945300Y-137419066D01*
X202885232Y-137221046D01*
X202787685Y-137038550D01*
X202712588Y-136947043D01*
X202656410Y-136878589D01*
X202529584Y-136774507D01*
X202496450Y-136747315D01*
X202384414Y-136687430D01*
X202336046Y-136661576D01*
X202286202Y-136612613D01*
X202270500Y-136552218D01*
X202270500Y-136070439D01*
X202250020Y-135994009D01*
X202250017Y-135994004D01*
X202210464Y-135925495D01*
X202210458Y-135925487D01*
X200244298Y-133959327D01*
X200210813Y-133898004D01*
X200215797Y-133828312D01*
X200222618Y-133813197D01*
X200230232Y-133798954D01*
X200290300Y-133600934D01*
X200310583Y-133395000D01*
X200739417Y-133395000D01*
X200759699Y-133600932D01*
X200759700Y-133600934D01*
X200819768Y-133798954D01*
X200917315Y-133981450D01*
X200925354Y-133991245D01*
X201048589Y-134141410D01*
X201129252Y-134207607D01*
X201208550Y-134272685D01*
X201391046Y-134370232D01*
X201589066Y-134430300D01*
X201589065Y-134430300D01*
X201607529Y-134432118D01*
X201795000Y-134450583D01*
X202000934Y-134430300D01*
X202198954Y-134370232D01*
X202381450Y-134272685D01*
X202541410Y-134141410D01*
X202672685Y-133981450D01*
X202770232Y-133798954D01*
X202830300Y-133600934D01*
X202850583Y-133395000D01*
X202830300Y-133189066D01*
X202770232Y-132991046D01*
X202672685Y-132808550D01*
X202570155Y-132683616D01*
X202541410Y-132648589D01*
X202403289Y-132535238D01*
X202381450Y-132517315D01*
X202198954Y-132419768D01*
X202000934Y-132359700D01*
X202000932Y-132359699D01*
X202000934Y-132359699D01*
X201795000Y-132339417D01*
X201589067Y-132359699D01*
X201454736Y-132400448D01*
X201391050Y-132419767D01*
X201391043Y-132419769D01*
X201303114Y-132466769D01*
X201208550Y-132517315D01*
X201208548Y-132517316D01*
X201208547Y-132517317D01*
X201048589Y-132648589D01*
X200925354Y-132798754D01*
X200917315Y-132808550D01*
X200901526Y-132838089D01*
X200819769Y-132991043D01*
X200759699Y-133189067D01*
X200739417Y-133395000D01*
X200310583Y-133395000D01*
X200290300Y-133189066D01*
X200230232Y-132991046D01*
X200132685Y-132808550D01*
X200085655Y-132751243D01*
X200068356Y-132730164D01*
X200041044Y-132665854D01*
X200052835Y-132596987D01*
X200099988Y-132545427D01*
X200164210Y-132527500D01*
X200493114Y-132527500D01*
X200493116Y-132527500D01*
X200576410Y-132505181D01*
X200651090Y-132462065D01*
X201256005Y-131857148D01*
X201317326Y-131823665D01*
X201385199Y-131828518D01*
X201385216Y-131828463D01*
X201385462Y-131828537D01*
X201387017Y-131828649D01*
X201391021Y-131830223D01*
X201391039Y-131830228D01*
X201391046Y-131830232D01*
X201589066Y-131890300D01*
X201589065Y-131890300D01*
X201607529Y-131892118D01*
X201795000Y-131910583D01*
X202000934Y-131890300D01*
X202198954Y-131830232D01*
X202381450Y-131732685D01*
X202541410Y-131601410D01*
X202672685Y-131441450D01*
X202770232Y-131258954D01*
X202830300Y-131060934D01*
X202850583Y-130855000D01*
X203279417Y-130855000D01*
X203299699Y-131060932D01*
X203299700Y-131060934D01*
X203359768Y-131258954D01*
X203457315Y-131441450D01*
X203457317Y-131441452D01*
X203588589Y-131601410D01*
X203594899Y-131606588D01*
X203748550Y-131732685D01*
X203931046Y-131830232D01*
X204129066Y-131890300D01*
X204129065Y-131890300D01*
X204147529Y-131892118D01*
X204335000Y-131910583D01*
X204540934Y-131890300D01*
X204738954Y-131830232D01*
X204753191Y-131822621D01*
X204821592Y-131808379D01*
X204886837Y-131833377D01*
X204899327Y-131844298D01*
X205265681Y-132210652D01*
X205299166Y-132271975D01*
X205302000Y-132298333D01*
X205302000Y-132570822D01*
X205282315Y-132637861D01*
X205229511Y-132683616D01*
X205160353Y-132693560D01*
X205096797Y-132664535D01*
X205082149Y-132649490D01*
X205081410Y-132648589D01*
X204943289Y-132535238D01*
X204921450Y-132517315D01*
X204738954Y-132419768D01*
X204540934Y-132359700D01*
X204540932Y-132359699D01*
X204540934Y-132359699D01*
X204335000Y-132339417D01*
X204129067Y-132359699D01*
X203994736Y-132400448D01*
X203931050Y-132419767D01*
X203931043Y-132419769D01*
X203843114Y-132466769D01*
X203748550Y-132517315D01*
X203748548Y-132517316D01*
X203748547Y-132517317D01*
X203588589Y-132648589D01*
X203465354Y-132798754D01*
X203457315Y-132808550D01*
X203441526Y-132838089D01*
X203359769Y-132991043D01*
X203299699Y-133189067D01*
X203279417Y-133395000D01*
X203299699Y-133600932D01*
X203299700Y-133600934D01*
X203359768Y-133798954D01*
X203457315Y-133981450D01*
X203465354Y-133991245D01*
X203588589Y-134141410D01*
X203669252Y-134207607D01*
X203748550Y-134272685D01*
X203931046Y-134370232D01*
X204121496Y-134428003D01*
X204179934Y-134466301D01*
X204208390Y-134530113D01*
X204209500Y-134546664D01*
X204209500Y-136508220D01*
X204189815Y-136575259D01*
X204137011Y-136621014D01*
X204121496Y-136626880D01*
X204046046Y-136649767D01*
X203915358Y-136719622D01*
X203863550Y-136747315D01*
X203863548Y-136747316D01*
X203863547Y-136747317D01*
X203703589Y-136878589D01*
X203572317Y-137038547D01*
X203572315Y-137038550D01*
X203538394Y-137102011D01*
X203474769Y-137221043D01*
X203414699Y-137419067D01*
X203394417Y-137625000D01*
X203414699Y-137830932D01*
X203414700Y-137830934D01*
X203474768Y-138028954D01*
X203572315Y-138211450D01*
X203598000Y-138242747D01*
X203703589Y-138371410D01*
X203796020Y-138447265D01*
X203863550Y-138502685D01*
X204046046Y-138600232D01*
X204121496Y-138623119D01*
X204179934Y-138661415D01*
X204208390Y-138725228D01*
X204209500Y-138741779D01*
X204209500Y-140551421D01*
X204189815Y-140618460D01*
X204137011Y-140664215D01*
X204121496Y-140670081D01*
X204106046Y-140674767D01*
X203994296Y-140734500D01*
X203923550Y-140772315D01*
X203923548Y-140772316D01*
X203923547Y-140772317D01*
X203763589Y-140903589D01*
X203632317Y-141063547D01*
X203632315Y-141063550D01*
X203593643Y-141135898D01*
X203534769Y-141246043D01*
X203474699Y-141444067D01*
X203454417Y-141650000D01*
X203474699Y-141855932D01*
X203504429Y-141953939D01*
X203534768Y-142053954D01*
X203632315Y-142236450D01*
X203632317Y-142236452D01*
X203763589Y-142396410D01*
X203800340Y-142426570D01*
X203923550Y-142527685D01*
X204106046Y-142625232D01*
X204304066Y-142685300D01*
X204304065Y-142685300D01*
X204322529Y-142687118D01*
X204510000Y-142705583D01*
X204715934Y-142685300D01*
X204913954Y-142625232D01*
X205096450Y-142527685D01*
X205256410Y-142396410D01*
X205387685Y-142236450D01*
X205485232Y-142053954D01*
X205545300Y-141855934D01*
X205565583Y-141650000D01*
X205545300Y-141444066D01*
X205485232Y-141246046D01*
X205387685Y-141063550D01*
X205312897Y-140972420D01*
X205256410Y-140903589D01*
X205106121Y-140780252D01*
X205096450Y-140772315D01*
X204928197Y-140682381D01*
X204913953Y-140674767D01*
X204898504Y-140670081D01*
X204840066Y-140631784D01*
X204811609Y-140567971D01*
X204810500Y-140551421D01*
X204810500Y-138697781D01*
X204830185Y-138630742D01*
X204876044Y-138588424D01*
X205036450Y-138502685D01*
X205099335Y-138451077D01*
X205163645Y-138423764D01*
X205232513Y-138435555D01*
X205284073Y-138482707D01*
X205302000Y-138546930D01*
X205302000Y-140242062D01*
X205314129Y-140287327D01*
X205322479Y-140318490D01*
X205332901Y-140336540D01*
X205332903Y-140336543D01*
X205362039Y-140387010D01*
X206060701Y-141085672D01*
X206094186Y-141146995D01*
X206089202Y-141216687D01*
X206082381Y-141231800D01*
X206074770Y-141246039D01*
X206014699Y-141444067D01*
X205994417Y-141650000D01*
X206014699Y-141855932D01*
X206044429Y-141953939D01*
X206074768Y-142053954D01*
X206172315Y-142236450D01*
X206172317Y-142236452D01*
X206303589Y-142396410D01*
X206340340Y-142426570D01*
X206463550Y-142527685D01*
X206646046Y-142625232D01*
X206844066Y-142685300D01*
X206844065Y-142685300D01*
X206862529Y-142687118D01*
X207050000Y-142705583D01*
X207255934Y-142685300D01*
X207453954Y-142625232D01*
X207636450Y-142527685D01*
X207796410Y-142396410D01*
X207927685Y-142236450D01*
X208025232Y-142053954D01*
X208085300Y-141855934D01*
X208105583Y-141650000D01*
X208085300Y-141444066D01*
X208025232Y-141246046D01*
X207927685Y-141063550D01*
X207852897Y-140972420D01*
X207796410Y-140903589D01*
X207646121Y-140780252D01*
X207636450Y-140772315D01*
X207453954Y-140674768D01*
X207255934Y-140614700D01*
X207255932Y-140614699D01*
X207255934Y-140614699D01*
X207050000Y-140594417D01*
X206844067Y-140614699D01*
X206646039Y-140674770D01*
X206631800Y-140682381D01*
X206563397Y-140696620D01*
X206498154Y-140671616D01*
X206485672Y-140660701D01*
X205939319Y-140114348D01*
X205905834Y-140053025D01*
X205903000Y-140026667D01*
X205903000Y-138302956D01*
X205922685Y-138235917D01*
X205975489Y-138190162D01*
X206044647Y-138180218D01*
X206108203Y-138209243D01*
X206122854Y-138224292D01*
X206243589Y-138371410D01*
X206336020Y-138447265D01*
X206403550Y-138502685D01*
X206586046Y-138600232D01*
X206784066Y-138660300D01*
X206784065Y-138660300D01*
X206797224Y-138661596D01*
X206990000Y-138680583D01*
X207195934Y-138660300D01*
X207393954Y-138600232D01*
X207576450Y-138502685D01*
X207736410Y-138371410D01*
X207867685Y-138211450D01*
X207965232Y-138028954D01*
X208025300Y-137830934D01*
X208045583Y-137625000D01*
X208025300Y-137419066D01*
X207965232Y-137221046D01*
X207957620Y-137206806D01*
X207943379Y-137138404D01*
X207968379Y-137073160D01*
X207979298Y-137060672D01*
X208072000Y-136967970D01*
X208265460Y-136774511D01*
X208276579Y-136755252D01*
X208305021Y-136705989D01*
X208325500Y-136629562D01*
X208325500Y-134069909D01*
X208345185Y-134002870D01*
X208397989Y-133957115D01*
X208467147Y-133947171D01*
X208530703Y-133976196D01*
X208545350Y-133991241D01*
X208565537Y-134015839D01*
X208668589Y-134141410D01*
X208749252Y-134207607D01*
X208828550Y-134272685D01*
X209011046Y-134370232D01*
X209209066Y-134430300D01*
X209209065Y-134430300D01*
X209227529Y-134432118D01*
X209415000Y-134450583D01*
X209620934Y-134430300D01*
X209818954Y-134370232D01*
X210001450Y-134272685D01*
X210161410Y-134141410D01*
X210292685Y-133981450D01*
X210390232Y-133798954D01*
X210450300Y-133600934D01*
X210470583Y-133395000D01*
X210450300Y-133189066D01*
X210390232Y-132991046D01*
X210292685Y-132808550D01*
X210190155Y-132683616D01*
X210161410Y-132648589D01*
X210023289Y-132535238D01*
X210001450Y-132517315D01*
X209818954Y-132419768D01*
X209620934Y-132359700D01*
X209620932Y-132359699D01*
X209620934Y-132359699D01*
X209415000Y-132339417D01*
X209209067Y-132359699D01*
X209074736Y-132400448D01*
X209011050Y-132419767D01*
X209011043Y-132419769D01*
X208923114Y-132466769D01*
X208828550Y-132517315D01*
X208828548Y-132517316D01*
X208828547Y-132517317D01*
X208668589Y-132648589D01*
X208545354Y-132798754D01*
X208487608Y-132838089D01*
X208417763Y-132839960D01*
X208357995Y-132803773D01*
X208327279Y-132741017D01*
X208325500Y-132720090D01*
X208325500Y-131965440D01*
X208325499Y-131965436D01*
X208323109Y-131956517D01*
X208318145Y-131937989D01*
X208305022Y-131889012D01*
X208265460Y-131820489D01*
X207864298Y-131419327D01*
X207830813Y-131358004D01*
X207835797Y-131288312D01*
X207842618Y-131273197D01*
X207850232Y-131258954D01*
X207910300Y-131060934D01*
X207930583Y-130855000D01*
X208359417Y-130855000D01*
X208379699Y-131060932D01*
X208379700Y-131060934D01*
X208439768Y-131258954D01*
X208537315Y-131441450D01*
X208537317Y-131441452D01*
X208668589Y-131601410D01*
X208674899Y-131606588D01*
X208828550Y-131732685D01*
X209011046Y-131830232D01*
X209209066Y-131890300D01*
X209209065Y-131890300D01*
X209227529Y-131892118D01*
X209415000Y-131910583D01*
X209620934Y-131890300D01*
X209818954Y-131830232D01*
X210001450Y-131732685D01*
X210161410Y-131601410D01*
X210292685Y-131441450D01*
X210390232Y-131258954D01*
X210410406Y-131192446D01*
X210448702Y-131134010D01*
X210512514Y-131105553D01*
X210581581Y-131116112D01*
X210633975Y-131162336D01*
X210648841Y-131196349D01*
X210681567Y-131318486D01*
X210681570Y-131318492D01*
X210781399Y-131532578D01*
X210916894Y-131726082D01*
X211083917Y-131893105D01*
X211277421Y-132028600D01*
X211491507Y-132128429D01*
X211491516Y-132128433D01*
X211613649Y-132161158D01*
X211673310Y-132197523D01*
X211703839Y-132260369D01*
X211695545Y-132329745D01*
X211651059Y-132383623D01*
X211617552Y-132399593D01*
X211551046Y-132419767D01*
X211420358Y-132489622D01*
X211368550Y-132517315D01*
X211368548Y-132517316D01*
X211368547Y-132517317D01*
X211208589Y-132648589D01*
X211085354Y-132798754D01*
X211077315Y-132808550D01*
X211061526Y-132838089D01*
X210979769Y-132991043D01*
X210919699Y-133189067D01*
X210899417Y-133395000D01*
X210919699Y-133600932D01*
X210919700Y-133600934D01*
X210979768Y-133798954D01*
X211077315Y-133981450D01*
X211085354Y-133991245D01*
X211208589Y-134141410D01*
X211289252Y-134207607D01*
X211368550Y-134272685D01*
X211551046Y-134370232D01*
X211749066Y-134430300D01*
X211749065Y-134430300D01*
X211767529Y-134432118D01*
X211955000Y-134450583D01*
X212160934Y-134430300D01*
X212358954Y-134370232D01*
X212541450Y-134272685D01*
X212701410Y-134141410D01*
X212832685Y-133981450D01*
X212930232Y-133798954D01*
X212990300Y-133600934D01*
X213010583Y-133395000D01*
X212990300Y-133189066D01*
X212930232Y-132991046D01*
X212832685Y-132808550D01*
X212730155Y-132683616D01*
X212701410Y-132648589D01*
X212563289Y-132535238D01*
X212541450Y-132517315D01*
X212358954Y-132419768D01*
X212292447Y-132399593D01*
X212234009Y-132361296D01*
X212205553Y-132297484D01*
X212216113Y-132228417D01*
X212262337Y-132176023D01*
X212296350Y-132161158D01*
X212418483Y-132128433D01*
X212418492Y-132128429D01*
X212632578Y-132028600D01*
X212826082Y-131893105D01*
X212993105Y-131726082D01*
X213128600Y-131532578D01*
X213228429Y-131318492D01*
X213228433Y-131318483D01*
X213261158Y-131196350D01*
X213297522Y-131136690D01*
X213360369Y-131106160D01*
X213429745Y-131114454D01*
X213483623Y-131158939D01*
X213499593Y-131192447D01*
X213519768Y-131258954D01*
X213617315Y-131441450D01*
X213617317Y-131441452D01*
X213748589Y-131601410D01*
X213754899Y-131606588D01*
X213908550Y-131732685D01*
X214091046Y-131830232D01*
X214289066Y-131890300D01*
X214289065Y-131890300D01*
X214307529Y-131892118D01*
X214495000Y-131910583D01*
X214700934Y-131890300D01*
X214898954Y-131830232D01*
X214898956Y-131830230D01*
X214904784Y-131828463D01*
X214905128Y-131829597D01*
X214968324Y-131822800D01*
X215030805Y-131854072D01*
X215033995Y-131857150D01*
X215308181Y-132131336D01*
X215341666Y-132192659D01*
X215344500Y-132219017D01*
X215344500Y-132471017D01*
X215324815Y-132538056D01*
X215272011Y-132583811D01*
X215202853Y-132593755D01*
X215141836Y-132566871D01*
X215081453Y-132517317D01*
X215081451Y-132517316D01*
X215081450Y-132517315D01*
X214898954Y-132419768D01*
X214700934Y-132359700D01*
X214700932Y-132359699D01*
X214700934Y-132359699D01*
X214495000Y-132339417D01*
X214289067Y-132359699D01*
X214154736Y-132400448D01*
X214091050Y-132419767D01*
X214091043Y-132419769D01*
X214003114Y-132466769D01*
X213908550Y-132517315D01*
X213908548Y-132517316D01*
X213908547Y-132517317D01*
X213748589Y-132648589D01*
X213625354Y-132798754D01*
X213617315Y-132808550D01*
X213601526Y-132838089D01*
X213519769Y-132991043D01*
X213459699Y-133189067D01*
X213439417Y-133395000D01*
X213459699Y-133600932D01*
X213459700Y-133600934D01*
X213519768Y-133798954D01*
X213545183Y-133846502D01*
X213547468Y-133850777D01*
X213561709Y-133919180D01*
X213557885Y-133941319D01*
X213550500Y-133968882D01*
X213550500Y-133968884D01*
X213550500Y-139544884D01*
X213550500Y-139631116D01*
X213571481Y-139709417D01*
X213572819Y-139714410D01*
X213615934Y-139789088D01*
X213615936Y-139789091D01*
X214052849Y-140226004D01*
X214086334Y-140287327D01*
X214081480Y-140355199D01*
X214081537Y-140355217D01*
X214081460Y-140355467D01*
X214081350Y-140357019D01*
X214079779Y-140361010D01*
X214019699Y-140559067D01*
X213999417Y-140765000D01*
X214019699Y-140970932D01*
X214047794Y-141063550D01*
X214079768Y-141168954D01*
X214177315Y-141351450D01*
X214177317Y-141351452D01*
X214308589Y-141511410D01*
X214397254Y-141584174D01*
X214468550Y-141642685D01*
X214651046Y-141740232D01*
X214849066Y-141800300D01*
X214849065Y-141800300D01*
X214867529Y-141802118D01*
X215055000Y-141820583D01*
X215260934Y-141800300D01*
X215458954Y-141740232D01*
X215641450Y-141642685D01*
X215801410Y-141511410D01*
X215932685Y-141351450D01*
X216030232Y-141168954D01*
X216090300Y-140970934D01*
X216110583Y-140765000D01*
X216090300Y-140559066D01*
X216030232Y-140361046D01*
X215932685Y-140178550D01*
X215808039Y-140026667D01*
X215801410Y-140018589D01*
X215641452Y-139887317D01*
X215641453Y-139887317D01*
X215641450Y-139887315D01*
X215458954Y-139789768D01*
X215260934Y-139729700D01*
X215260932Y-139729699D01*
X215260934Y-139729699D01*
X215055000Y-139709417D01*
X214849067Y-139729699D01*
X214755002Y-139758233D01*
X214651046Y-139789768D01*
X214651042Y-139789769D01*
X214645217Y-139791537D01*
X214644874Y-139790409D01*
X214581640Y-139797193D01*
X214519168Y-139765903D01*
X214516004Y-139762849D01*
X214241819Y-139488664D01*
X214208334Y-139427341D01*
X214205500Y-139400983D01*
X214205500Y-139399500D01*
X214225185Y-139332461D01*
X214277989Y-139286706D01*
X214329500Y-139275500D01*
X215924748Y-139275500D01*
X215942307Y-139272007D01*
X216011898Y-139278233D01*
X216067076Y-139321095D01*
X216090322Y-139386984D01*
X216090500Y-139393624D01*
X216090500Y-139544884D01*
X216090500Y-139631116D01*
X216111481Y-139709417D01*
X216112819Y-139714410D01*
X216155934Y-139789088D01*
X216155936Y-139789091D01*
X216592849Y-140226004D01*
X216626334Y-140287327D01*
X216621480Y-140355199D01*
X216621537Y-140355217D01*
X216621460Y-140355467D01*
X216621350Y-140357019D01*
X216619779Y-140361010D01*
X216559699Y-140559067D01*
X216539417Y-140765000D01*
X216559699Y-140970932D01*
X216587794Y-141063550D01*
X216619768Y-141168954D01*
X216717315Y-141351450D01*
X216717317Y-141351452D01*
X216848589Y-141511410D01*
X216937254Y-141584174D01*
X217008550Y-141642685D01*
X217191046Y-141740232D01*
X217389066Y-141800300D01*
X217389065Y-141800300D01*
X217407529Y-141802118D01*
X217595000Y-141820583D01*
X217800934Y-141800300D01*
X217998954Y-141740232D01*
X218181450Y-141642685D01*
X218341410Y-141511410D01*
X218472685Y-141351450D01*
X218570232Y-141168954D01*
X218630300Y-140970934D01*
X218650583Y-140765000D01*
X218630300Y-140559066D01*
X218570232Y-140361046D01*
X218472685Y-140178550D01*
X218348039Y-140026667D01*
X218341410Y-140018589D01*
X218181452Y-139887317D01*
X218181453Y-139887317D01*
X218181450Y-139887315D01*
X217998954Y-139789768D01*
X217800934Y-139729700D01*
X217800932Y-139729699D01*
X217800934Y-139729699D01*
X217595000Y-139709417D01*
X217389067Y-139729699D01*
X217295002Y-139758233D01*
X217191046Y-139789768D01*
X217191042Y-139789769D01*
X217185217Y-139791537D01*
X217184874Y-139790409D01*
X217121640Y-139797193D01*
X217059168Y-139765903D01*
X217056004Y-139762849D01*
X216781819Y-139488664D01*
X216748334Y-139427341D01*
X216745500Y-139400983D01*
X216745500Y-139148982D01*
X216765185Y-139081943D01*
X216817989Y-139036188D01*
X216887147Y-139026244D01*
X216948165Y-139053129D01*
X217008546Y-139102682D01*
X217008550Y-139102685D01*
X217191046Y-139200232D01*
X217389066Y-139260300D01*
X217389065Y-139260300D01*
X217407529Y-139262118D01*
X217595000Y-139280583D01*
X217800934Y-139260300D01*
X217998954Y-139200232D01*
X218181450Y-139102685D01*
X218341410Y-138971410D01*
X218410646Y-138887044D01*
X218468392Y-138847710D01*
X218538236Y-138845839D01*
X218598005Y-138882026D01*
X218628721Y-138944782D01*
X218630500Y-138965709D01*
X218630500Y-139544884D01*
X218630500Y-139631116D01*
X218651481Y-139709417D01*
X218652819Y-139714410D01*
X218695934Y-139789088D01*
X218695936Y-139789091D01*
X219132849Y-140226004D01*
X219166334Y-140287327D01*
X219161480Y-140355199D01*
X219161537Y-140355217D01*
X219161460Y-140355467D01*
X219161350Y-140357019D01*
X219159779Y-140361010D01*
X219099699Y-140559067D01*
X219079417Y-140765000D01*
X219099699Y-140970932D01*
X219127794Y-141063550D01*
X219159768Y-141168954D01*
X219257315Y-141351450D01*
X219257317Y-141351452D01*
X219388589Y-141511410D01*
X219477254Y-141584174D01*
X219548550Y-141642685D01*
X219731046Y-141740232D01*
X219929066Y-141800300D01*
X219929065Y-141800300D01*
X219947529Y-141802118D01*
X220135000Y-141820583D01*
X220340934Y-141800300D01*
X220538954Y-141740232D01*
X220721450Y-141642685D01*
X220881410Y-141511410D01*
X221012685Y-141351450D01*
X221110232Y-141168954D01*
X221170300Y-140970934D01*
X221190583Y-140765000D01*
X221170300Y-140559066D01*
X221110232Y-140361046D01*
X221012685Y-140178550D01*
X220888039Y-140026667D01*
X220881410Y-140018589D01*
X220721452Y-139887317D01*
X220721453Y-139887317D01*
X220721450Y-139887315D01*
X220538954Y-139789768D01*
X220340934Y-139729700D01*
X220340932Y-139729699D01*
X220340934Y-139729699D01*
X220135000Y-139709417D01*
X219929067Y-139729699D01*
X219835002Y-139758233D01*
X219731046Y-139789768D01*
X219731042Y-139789769D01*
X219725217Y-139791537D01*
X219724874Y-139790409D01*
X219661640Y-139797193D01*
X219599168Y-139765903D01*
X219596004Y-139762849D01*
X219321819Y-139488664D01*
X219288334Y-139427341D01*
X219285500Y-139400983D01*
X219285500Y-139148982D01*
X219305185Y-139081943D01*
X219357989Y-139036188D01*
X219427147Y-139026244D01*
X219488165Y-139053129D01*
X219548546Y-139102682D01*
X219548550Y-139102685D01*
X219731046Y-139200232D01*
X219929066Y-139260300D01*
X219929065Y-139260300D01*
X219947529Y-139262118D01*
X220135000Y-139280583D01*
X220340934Y-139260300D01*
X220538954Y-139200232D01*
X220721450Y-139102685D01*
X220881410Y-138971410D01*
X220950646Y-138887044D01*
X221008392Y-138847710D01*
X221078236Y-138845839D01*
X221138005Y-138882026D01*
X221168721Y-138944782D01*
X221170500Y-138965709D01*
X221170500Y-139544884D01*
X221170500Y-139631116D01*
X221191481Y-139709417D01*
X221192819Y-139714410D01*
X221235934Y-139789088D01*
X221235936Y-139789091D01*
X221672849Y-140226004D01*
X221706334Y-140287327D01*
X221701480Y-140355199D01*
X221701537Y-140355217D01*
X221701460Y-140355467D01*
X221701350Y-140357019D01*
X221699779Y-140361010D01*
X221639699Y-140559067D01*
X221619417Y-140765000D01*
X221639699Y-140970932D01*
X221667794Y-141063550D01*
X221699768Y-141168954D01*
X221797315Y-141351450D01*
X221797317Y-141351452D01*
X221928589Y-141511410D01*
X222017254Y-141584174D01*
X222088550Y-141642685D01*
X222271046Y-141740232D01*
X222469066Y-141800300D01*
X222469065Y-141800300D01*
X222487529Y-141802118D01*
X222675000Y-141820583D01*
X222880934Y-141800300D01*
X223078954Y-141740232D01*
X223261450Y-141642685D01*
X223421410Y-141511410D01*
X223552685Y-141351450D01*
X223650232Y-141168954D01*
X223710300Y-140970934D01*
X223730583Y-140765000D01*
X223710300Y-140559066D01*
X223650232Y-140361046D01*
X223552685Y-140178550D01*
X223428039Y-140026667D01*
X223421410Y-140018589D01*
X223261452Y-139887317D01*
X223261453Y-139887317D01*
X223261450Y-139887315D01*
X223078954Y-139789768D01*
X222880934Y-139729700D01*
X222880932Y-139729699D01*
X222880934Y-139729699D01*
X222675000Y-139709417D01*
X222469067Y-139729699D01*
X222375002Y-139758233D01*
X222271046Y-139789768D01*
X222271042Y-139789769D01*
X222265217Y-139791537D01*
X222264874Y-139790409D01*
X222201640Y-139797193D01*
X222139168Y-139765903D01*
X222136004Y-139762849D01*
X221861819Y-139488664D01*
X221828334Y-139427341D01*
X221825500Y-139400983D01*
X221825500Y-139148982D01*
X221845185Y-139081943D01*
X221897989Y-139036188D01*
X221967147Y-139026244D01*
X222028165Y-139053129D01*
X222088546Y-139102682D01*
X222088550Y-139102685D01*
X222271046Y-139200232D01*
X222469066Y-139260300D01*
X222469065Y-139260300D01*
X222487529Y-139262118D01*
X222675000Y-139280583D01*
X222880934Y-139260300D01*
X223078954Y-139200232D01*
X223261450Y-139102685D01*
X223421410Y-138971410D01*
X223552685Y-138811450D01*
X223650232Y-138628954D01*
X223710300Y-138430934D01*
X223730583Y-138225000D01*
X223710300Y-138019066D01*
X223650232Y-137821046D01*
X223650230Y-137821043D01*
X223648463Y-137815216D01*
X223649594Y-137814872D01*
X223642803Y-137751658D01*
X223674083Y-137689181D01*
X223677121Y-137686032D01*
X226094065Y-135269090D01*
X226137181Y-135194410D01*
X226159500Y-135111116D01*
X226159500Y-135024884D01*
X226159500Y-132018713D01*
X228174500Y-132018713D01*
X228174500Y-132231287D01*
X228176719Y-132245297D01*
X228204352Y-132419768D01*
X228207754Y-132441243D01*
X228271830Y-132638449D01*
X228273444Y-132643414D01*
X228369951Y-132832820D01*
X228494890Y-133004786D01*
X228645213Y-133155109D01*
X228817179Y-133280048D01*
X228817181Y-133280049D01*
X228817184Y-133280051D01*
X229006588Y-133376557D01*
X229208757Y-133442246D01*
X229418713Y-133475500D01*
X229418714Y-133475500D01*
X229631286Y-133475500D01*
X229631287Y-133475500D01*
X229841243Y-133442246D01*
X230043412Y-133376557D01*
X230232816Y-133280051D01*
X230254789Y-133264086D01*
X230404786Y-133155109D01*
X230404788Y-133155106D01*
X230404792Y-133155104D01*
X230555104Y-133004792D01*
X230555106Y-133004788D01*
X230555109Y-133004786D01*
X230680048Y-132832820D01*
X230680047Y-132832820D01*
X230680051Y-132832816D01*
X230776557Y-132643412D01*
X230842246Y-132441243D01*
X230875500Y-132231287D01*
X230875500Y-132018713D01*
X230842246Y-131808757D01*
X230776557Y-131606588D01*
X230680051Y-131417184D01*
X230680049Y-131417181D01*
X230680048Y-131417179D01*
X230555109Y-131245213D01*
X230404786Y-131094890D01*
X230232820Y-130969951D01*
X230043414Y-130873444D01*
X230043413Y-130873443D01*
X230043412Y-130873443D01*
X229841243Y-130807754D01*
X229841241Y-130807753D01*
X229841240Y-130807753D01*
X229679957Y-130782208D01*
X229631287Y-130774500D01*
X229418713Y-130774500D01*
X229370042Y-130782208D01*
X229208760Y-130807753D01*
X229006585Y-130873444D01*
X228817179Y-130969951D01*
X228645213Y-131094890D01*
X228494890Y-131245213D01*
X228369951Y-131417179D01*
X228273444Y-131606585D01*
X228207753Y-131808760D01*
X228179224Y-131988884D01*
X228174500Y-132018713D01*
X226159500Y-132018713D01*
X226159500Y-131988884D01*
X226137181Y-131905590D01*
X226094065Y-131830910D01*
X226033090Y-131769935D01*
X225657149Y-131393994D01*
X225623665Y-131332672D01*
X225628518Y-131264800D01*
X225628463Y-131264784D01*
X225628537Y-131264538D01*
X225628649Y-131262980D01*
X225630226Y-131258971D01*
X225630231Y-131258955D01*
X225630232Y-131258954D01*
X225690300Y-131060934D01*
X225710583Y-130855000D01*
X225690300Y-130649066D01*
X225630232Y-130451046D01*
X225532685Y-130268550D01*
X225457897Y-130177420D01*
X225401410Y-130108589D01*
X225283677Y-130011969D01*
X225241450Y-129977315D01*
X225058954Y-129879768D01*
X224860934Y-129819700D01*
X224860932Y-129819699D01*
X224860934Y-129819699D01*
X224655000Y-129799417D01*
X224449067Y-129819699D01*
X224251043Y-129879769D01*
X224140898Y-129938643D01*
X224068550Y-129977315D01*
X224068548Y-129977316D01*
X224068547Y-129977317D01*
X223908589Y-130108589D01*
X223777317Y-130268547D01*
X223777315Y-130268550D01*
X223738643Y-130340898D01*
X223679769Y-130451043D01*
X223619699Y-130649067D01*
X223599417Y-130855000D01*
X223619699Y-131060932D01*
X223619700Y-131060934D01*
X223679768Y-131258954D01*
X223777315Y-131441450D01*
X223777317Y-131441452D01*
X223908589Y-131601410D01*
X223914899Y-131606588D01*
X224068550Y-131732685D01*
X224251046Y-131830232D01*
X224317551Y-131850405D01*
X224375989Y-131888702D01*
X224404446Y-131952514D01*
X224393887Y-132021581D01*
X224347663Y-132073975D01*
X224313650Y-132088841D01*
X224191514Y-132121567D01*
X224191507Y-132121570D01*
X223977422Y-132221399D01*
X223977420Y-132221400D01*
X223783926Y-132356886D01*
X223783920Y-132356891D01*
X223616891Y-132523920D01*
X223616886Y-132523926D01*
X223481400Y-132717420D01*
X223481399Y-132717422D01*
X223381570Y-132931507D01*
X223381567Y-132931514D01*
X223348841Y-133053650D01*
X223312476Y-133113310D01*
X223249629Y-133143839D01*
X223180253Y-133135544D01*
X223126375Y-133091059D01*
X223110406Y-133057552D01*
X223090232Y-132991046D01*
X222992685Y-132808550D01*
X222890155Y-132683616D01*
X222861410Y-132648589D01*
X222723289Y-132535238D01*
X222701450Y-132517315D01*
X222518954Y-132419768D01*
X222320934Y-132359700D01*
X222320932Y-132359699D01*
X222320934Y-132359699D01*
X222115000Y-132339417D01*
X221909067Y-132359699D01*
X221774736Y-132400448D01*
X221711050Y-132419767D01*
X221711043Y-132419769D01*
X221528546Y-132517317D01*
X221468164Y-132566871D01*
X221403853Y-132594183D01*
X221334986Y-132582391D01*
X221283426Y-132535238D01*
X221265500Y-132471017D01*
X221265500Y-132219016D01*
X221285185Y-132151977D01*
X221301815Y-132131339D01*
X221576004Y-131857149D01*
X221637327Y-131823665D01*
X221705199Y-131828518D01*
X221705216Y-131828463D01*
X221705462Y-131828537D01*
X221707019Y-131828649D01*
X221711022Y-131830224D01*
X221711042Y-131830230D01*
X221711046Y-131830232D01*
X221909066Y-131890300D01*
X221909065Y-131890300D01*
X221927529Y-131892118D01*
X222115000Y-131910583D01*
X222320934Y-131890300D01*
X222518954Y-131830232D01*
X222701450Y-131732685D01*
X222861410Y-131601410D01*
X222992685Y-131441450D01*
X223090232Y-131258954D01*
X223150300Y-131060934D01*
X223170583Y-130855000D01*
X223150300Y-130649066D01*
X223090232Y-130451046D01*
X222992685Y-130268550D01*
X222917897Y-130177420D01*
X222861410Y-130108589D01*
X222743677Y-130011969D01*
X222701450Y-129977315D01*
X222518954Y-129879768D01*
X222320934Y-129819700D01*
X222320932Y-129819699D01*
X222320934Y-129819699D01*
X222115000Y-129799417D01*
X221909067Y-129819699D01*
X221711043Y-129879769D01*
X221600898Y-129938643D01*
X221528550Y-129977315D01*
X221528548Y-129977316D01*
X221528547Y-129977317D01*
X221368589Y-130108589D01*
X221237317Y-130268547D01*
X221237315Y-130268550D01*
X221198643Y-130340898D01*
X221139769Y-130451043D01*
X221079699Y-130649067D01*
X221059417Y-130855000D01*
X221079699Y-131060932D01*
X221079700Y-131060934D01*
X221135598Y-131245208D01*
X221141537Y-131264784D01*
X221140404Y-131265127D01*
X221147197Y-131328334D01*
X221115920Y-131390812D01*
X221112849Y-131393994D01*
X220736910Y-131769935D01*
X220675936Y-131830908D01*
X220675934Y-131830911D01*
X220632819Y-131905589D01*
X220624137Y-131937992D01*
X220616783Y-131965438D01*
X220610500Y-131988885D01*
X220610500Y-132654290D01*
X220590815Y-132721329D01*
X220538011Y-132767084D01*
X220468853Y-132777028D01*
X220405297Y-132748003D01*
X220390647Y-132732955D01*
X220321410Y-132648590D01*
X220226649Y-132570822D01*
X220161450Y-132517315D01*
X219978954Y-132419768D01*
X219780934Y-132359700D01*
X219780932Y-132359699D01*
X219780934Y-132359699D01*
X219575000Y-132339417D01*
X219369067Y-132359699D01*
X219234736Y-132400448D01*
X219171050Y-132419767D01*
X219171043Y-132419769D01*
X218988546Y-132517317D01*
X218928164Y-132566871D01*
X218863853Y-132594183D01*
X218794986Y-132582391D01*
X218743426Y-132535238D01*
X218725500Y-132471017D01*
X218725500Y-132219016D01*
X218745185Y-132151977D01*
X218761815Y-132131339D01*
X219036004Y-131857149D01*
X219097327Y-131823665D01*
X219165199Y-131828518D01*
X219165216Y-131828463D01*
X219165462Y-131828537D01*
X219167019Y-131828649D01*
X219171022Y-131830224D01*
X219171042Y-131830230D01*
X219171046Y-131830232D01*
X219369066Y-131890300D01*
X219369065Y-131890300D01*
X219387529Y-131892118D01*
X219575000Y-131910583D01*
X219780934Y-131890300D01*
X219978954Y-131830232D01*
X220161450Y-131732685D01*
X220321410Y-131601410D01*
X220452685Y-131441450D01*
X220550232Y-131258954D01*
X220610300Y-131060934D01*
X220630583Y-130855000D01*
X220610300Y-130649066D01*
X220550232Y-130451046D01*
X220452685Y-130268550D01*
X220377897Y-130177420D01*
X220321410Y-130108589D01*
X220203677Y-130011969D01*
X220161450Y-129977315D01*
X219978954Y-129879768D01*
X219780934Y-129819700D01*
X219780932Y-129819699D01*
X219780934Y-129819699D01*
X219575000Y-129799417D01*
X219369067Y-129819699D01*
X219171043Y-129879769D01*
X219060898Y-129938643D01*
X218988550Y-129977315D01*
X218988548Y-129977316D01*
X218988547Y-129977317D01*
X218828589Y-130108589D01*
X218697317Y-130268547D01*
X218697315Y-130268550D01*
X218669622Y-130320358D01*
X218599767Y-130451046D01*
X218579593Y-130517552D01*
X218541296Y-130575990D01*
X218477483Y-130604447D01*
X218408416Y-130593886D01*
X218356023Y-130547661D01*
X218341158Y-130513649D01*
X218308433Y-130391516D01*
X218308429Y-130391507D01*
X218208600Y-130177422D01*
X218208599Y-130177420D01*
X218073113Y-129983926D01*
X218073108Y-129983920D01*
X217906082Y-129816894D01*
X217712578Y-129681399D01*
X217498492Y-129581570D01*
X217498486Y-129581567D01*
X217285000Y-129524364D01*
X217285000Y-130421988D01*
X217227993Y-130389075D01*
X217100826Y-130355000D01*
X216969174Y-130355000D01*
X216842007Y-130389075D01*
X216785000Y-130421988D01*
X216785000Y-129524364D01*
X216784999Y-129524364D01*
X216571513Y-129581567D01*
X216571507Y-129581570D01*
X216357422Y-129681399D01*
X216357420Y-129681400D01*
X216163926Y-129816886D01*
X216163920Y-129816891D01*
X215996891Y-129983920D01*
X215996886Y-129983926D01*
X215861400Y-130177420D01*
X215861399Y-130177422D01*
X215761570Y-130391507D01*
X215761567Y-130391514D01*
X215728841Y-130513650D01*
X215692476Y-130573310D01*
X215629629Y-130603839D01*
X215560253Y-130595544D01*
X215506375Y-130551059D01*
X215490406Y-130517552D01*
X215470232Y-130451046D01*
X215372685Y-130268550D01*
X215297897Y-130177420D01*
X215241410Y-130108589D01*
X215123677Y-130011969D01*
X215081450Y-129977315D01*
X214898954Y-129879768D01*
X214700934Y-129819700D01*
X214700932Y-129819699D01*
X214700934Y-129819699D01*
X214495000Y-129799417D01*
X214289067Y-129819699D01*
X214091043Y-129879769D01*
X213980898Y-129938643D01*
X213908550Y-129977315D01*
X213908548Y-129977316D01*
X213908547Y-129977317D01*
X213748589Y-130108589D01*
X213617317Y-130268547D01*
X213617315Y-130268550D01*
X213589622Y-130320358D01*
X213519767Y-130451046D01*
X213499593Y-130517552D01*
X213461296Y-130575990D01*
X213397483Y-130604447D01*
X213328416Y-130593886D01*
X213276023Y-130547661D01*
X213261158Y-130513649D01*
X213228433Y-130391516D01*
X213228429Y-130391507D01*
X213128600Y-130177422D01*
X213128599Y-130177420D01*
X212993113Y-129983926D01*
X212993108Y-129983920D01*
X212826082Y-129816894D01*
X212632578Y-129681399D01*
X212418492Y-129581570D01*
X212418486Y-129581567D01*
X212205000Y-129524364D01*
X212205000Y-130421988D01*
X212147993Y-130389075D01*
X212020826Y-130355000D01*
X211889174Y-130355000D01*
X211762007Y-130389075D01*
X211705000Y-130421988D01*
X211705000Y-129524364D01*
X211704999Y-129524364D01*
X211491513Y-129581567D01*
X211491507Y-129581570D01*
X211277422Y-129681399D01*
X211277420Y-129681400D01*
X211083926Y-129816886D01*
X211083920Y-129816891D01*
X210916891Y-129983920D01*
X210916886Y-129983926D01*
X210781400Y-130177420D01*
X210781399Y-130177422D01*
X210681570Y-130391507D01*
X210681567Y-130391514D01*
X210648841Y-130513650D01*
X210612476Y-130573310D01*
X210549629Y-130603839D01*
X210480253Y-130595544D01*
X210426375Y-130551059D01*
X210410406Y-130517552D01*
X210390232Y-130451046D01*
X210292685Y-130268550D01*
X210217897Y-130177420D01*
X210161410Y-130108589D01*
X210043677Y-130011969D01*
X210001450Y-129977315D01*
X209818954Y-129879768D01*
X209620934Y-129819700D01*
X209620932Y-129819699D01*
X209620934Y-129819699D01*
X209415000Y-129799417D01*
X209209067Y-129819699D01*
X209011043Y-129879769D01*
X208900898Y-129938643D01*
X208828550Y-129977315D01*
X208828548Y-129977316D01*
X208828547Y-129977317D01*
X208668589Y-130108589D01*
X208537317Y-130268547D01*
X208537315Y-130268550D01*
X208498643Y-130340898D01*
X208439769Y-130451043D01*
X208379699Y-130649067D01*
X208359417Y-130855000D01*
X207930583Y-130855000D01*
X207910300Y-130649066D01*
X207850232Y-130451046D01*
X207752685Y-130268550D01*
X207677897Y-130177420D01*
X207621410Y-130108589D01*
X207503677Y-130011969D01*
X207461450Y-129977315D01*
X207278954Y-129879768D01*
X207080934Y-129819700D01*
X207080932Y-129819699D01*
X207080934Y-129819699D01*
X206875000Y-129799417D01*
X206669067Y-129819699D01*
X206471043Y-129879769D01*
X206360898Y-129938643D01*
X206288550Y-129977315D01*
X206288548Y-129977316D01*
X206288547Y-129977317D01*
X206128589Y-130108589D01*
X205997317Y-130268547D01*
X205997315Y-130268550D01*
X205958643Y-130340898D01*
X205899769Y-130451043D01*
X205839699Y-130649067D01*
X205819417Y-130855000D01*
X205839699Y-131060932D01*
X205839700Y-131060934D01*
X205899768Y-131258954D01*
X205997315Y-131441450D01*
X205997317Y-131441452D01*
X206128589Y-131601410D01*
X206134899Y-131606588D01*
X206288550Y-131732685D01*
X206471046Y-131830232D01*
X206537551Y-131850405D01*
X206595989Y-131888702D01*
X206624446Y-131952514D01*
X206613887Y-132021581D01*
X206567663Y-132073975D01*
X206533650Y-132088841D01*
X206411514Y-132121567D01*
X206411507Y-132121570D01*
X206197422Y-132221399D01*
X206197420Y-132221400D01*
X206098123Y-132290929D01*
X206031917Y-132313256D01*
X205964150Y-132296246D01*
X205916337Y-132245297D01*
X205903000Y-132189354D01*
X205903000Y-132082939D01*
X205903000Y-132082938D01*
X205892717Y-132044562D01*
X205882522Y-132006512D01*
X205842960Y-131937989D01*
X205324298Y-131419327D01*
X205290813Y-131358004D01*
X205295797Y-131288312D01*
X205302618Y-131273197D01*
X205310232Y-131258954D01*
X205370300Y-131060934D01*
X205390583Y-130855000D01*
X205370300Y-130649066D01*
X205310232Y-130451046D01*
X205212685Y-130268550D01*
X205137897Y-130177420D01*
X205081410Y-130108589D01*
X204963677Y-130011969D01*
X204921450Y-129977315D01*
X204738954Y-129879768D01*
X204540934Y-129819700D01*
X204540932Y-129819699D01*
X204540934Y-129819699D01*
X204335000Y-129799417D01*
X204129067Y-129819699D01*
X203931043Y-129879769D01*
X203820898Y-129938643D01*
X203748550Y-129977315D01*
X203748548Y-129977316D01*
X203748547Y-129977317D01*
X203588589Y-130108589D01*
X203457317Y-130268547D01*
X203457315Y-130268550D01*
X203418643Y-130340898D01*
X203359769Y-130451043D01*
X203299699Y-130649067D01*
X203279417Y-130855000D01*
X202850583Y-130855000D01*
X202830300Y-130649066D01*
X202770232Y-130451046D01*
X202672685Y-130268550D01*
X202597897Y-130177420D01*
X202541410Y-130108589D01*
X202423677Y-130011969D01*
X202381450Y-129977315D01*
X202198954Y-129879768D01*
X202000934Y-129819700D01*
X202000932Y-129819699D01*
X202000934Y-129819699D01*
X201795000Y-129799417D01*
X201589067Y-129819699D01*
X201391043Y-129879769D01*
X201280898Y-129938643D01*
X201208550Y-129977315D01*
X201208548Y-129977316D01*
X201208547Y-129977317D01*
X201048589Y-130108589D01*
X200917317Y-130268547D01*
X200917315Y-130268550D01*
X200889622Y-130320358D01*
X200819767Y-130451046D01*
X200799593Y-130517552D01*
X200761296Y-130575990D01*
X200697483Y-130604447D01*
X200628416Y-130593886D01*
X200576023Y-130547661D01*
X200561158Y-130513649D01*
X200528433Y-130391516D01*
X200528429Y-130391507D01*
X200428600Y-130177422D01*
X200428599Y-130177420D01*
X200293113Y-129983926D01*
X200293108Y-129983920D01*
X200126082Y-129816894D01*
X199932578Y-129681399D01*
X199718492Y-129581570D01*
X199718486Y-129581567D01*
X199505000Y-129524364D01*
X199505000Y-130421988D01*
X199447993Y-130389075D01*
X199320826Y-130355000D01*
X199189174Y-130355000D01*
X199062007Y-130389075D01*
X199005000Y-130421988D01*
X199005000Y-129524364D01*
X199004999Y-129524364D01*
X198791513Y-129581567D01*
X198791507Y-129581570D01*
X198577422Y-129681399D01*
X198577420Y-129681400D01*
X198383926Y-129816886D01*
X198383920Y-129816891D01*
X198216891Y-129983920D01*
X198216886Y-129983926D01*
X198081400Y-130177420D01*
X198081399Y-130177422D01*
X197981570Y-130391507D01*
X197981567Y-130391514D01*
X197948841Y-130513650D01*
X197912476Y-130573310D01*
X197849629Y-130603839D01*
X197780253Y-130595544D01*
X197726375Y-130551059D01*
X197710406Y-130517552D01*
X197690232Y-130451046D01*
X197592685Y-130268550D01*
X197517897Y-130177420D01*
X197461410Y-130108589D01*
X197343677Y-130011969D01*
X197301450Y-129977315D01*
X197118954Y-129879768D01*
X196920934Y-129819700D01*
X196920932Y-129819699D01*
X196920934Y-129819699D01*
X196715000Y-129799417D01*
X196509067Y-129819699D01*
X196311043Y-129879769D01*
X196200898Y-129938643D01*
X196128550Y-129977315D01*
X196128548Y-129977316D01*
X196128547Y-129977317D01*
X195968589Y-130108589D01*
X195837317Y-130268547D01*
X195837315Y-130268550D01*
X195798643Y-130340898D01*
X195739769Y-130451043D01*
X195679699Y-130649067D01*
X195659417Y-130855000D01*
X195679699Y-131060932D01*
X195679700Y-131060934D01*
X195735598Y-131245208D01*
X195741537Y-131264784D01*
X195740404Y-131265127D01*
X195747197Y-131328334D01*
X195715920Y-131390812D01*
X195712849Y-131393994D01*
X195323910Y-131782935D01*
X195262936Y-131843908D01*
X195262934Y-131843911D01*
X195219819Y-131918589D01*
X195215647Y-131934158D01*
X195199476Y-131994512D01*
X195197500Y-132001885D01*
X195197500Y-132638449D01*
X195177815Y-132705488D01*
X195125011Y-132751243D01*
X195055853Y-132761187D01*
X194992297Y-132732162D01*
X194977647Y-132717114D01*
X194921410Y-132648590D01*
X194826649Y-132570822D01*
X194761450Y-132517315D01*
X194578954Y-132419768D01*
X194380934Y-132359700D01*
X194380932Y-132359699D01*
X194380934Y-132359699D01*
X194175000Y-132339417D01*
X193969067Y-132359699D01*
X193834736Y-132400448D01*
X193771050Y-132419767D01*
X193771043Y-132419769D01*
X193683114Y-132466769D01*
X193588550Y-132517315D01*
X193588548Y-132517316D01*
X193588547Y-132517317D01*
X193428589Y-132648589D01*
X193305354Y-132798754D01*
X193297315Y-132808550D01*
X193281526Y-132838089D01*
X193199769Y-132991043D01*
X193139699Y-133189067D01*
X193119417Y-133395000D01*
X193139699Y-133600932D01*
X193139700Y-133600934D01*
X193199768Y-133798954D01*
X193297315Y-133981450D01*
X193305354Y-133991245D01*
X193428589Y-134141410D01*
X193509252Y-134207607D01*
X193588550Y-134272685D01*
X193771046Y-134370232D01*
X193969066Y-134430300D01*
X193969065Y-134430300D01*
X193997545Y-134433105D01*
X194174682Y-134450551D01*
X194239468Y-134476712D01*
X194279827Y-134533746D01*
X194282944Y-134603546D01*
X194250208Y-134661635D01*
X192288994Y-136622849D01*
X192227671Y-136656334D01*
X192159801Y-136651480D01*
X192159784Y-136651537D01*
X192159534Y-136651461D01*
X192157979Y-136651350D01*
X192153981Y-136649776D01*
X192031469Y-136612613D01*
X191955934Y-136589700D01*
X191955932Y-136589699D01*
X191955934Y-136589699D01*
X191750000Y-136569417D01*
X191544067Y-136589699D01*
X191368692Y-136642898D01*
X191346050Y-136649767D01*
X191346043Y-136649769D01*
X191246328Y-136703069D01*
X191163550Y-136747315D01*
X191163548Y-136747316D01*
X191163547Y-136747317D01*
X191003589Y-136878589D01*
X190872317Y-137038547D01*
X190872315Y-137038550D01*
X190838394Y-137102011D01*
X190774769Y-137221043D01*
X190714699Y-137419067D01*
X190694417Y-137625000D01*
X190260500Y-137625000D01*
X190260500Y-136755252D01*
X190260500Y-136755247D01*
X190248868Y-136696770D01*
X190248867Y-136696769D01*
X190204552Y-136630447D01*
X190138230Y-136586132D01*
X190138229Y-136586131D01*
X190079752Y-136574500D01*
X190079748Y-136574500D01*
X189522852Y-136574500D01*
X189455813Y-136554815D01*
X189453961Y-136553602D01*
X189385227Y-136507675D01*
X189283903Y-136465706D01*
X189283476Y-136465529D01*
X189212251Y-136436027D01*
X189212247Y-136436026D01*
X189212243Y-136436024D01*
X189120433Y-136417763D01*
X189028620Y-136399500D01*
X189028617Y-136399500D01*
X189028616Y-136399500D01*
X184596285Y-136399500D01*
X184537831Y-136384858D01*
X184518956Y-136374769D01*
X184518955Y-136374768D01*
X184518954Y-136374768D01*
X184320934Y-136314700D01*
X184320932Y-136314699D01*
X184320934Y-136314699D01*
X184115000Y-136294417D01*
X183909067Y-136314699D01*
X183711043Y-136374769D01*
X183692169Y-136384858D01*
X183633715Y-136399500D01*
X182056285Y-136399500D01*
X181997831Y-136384858D01*
X181978956Y-136374769D01*
X181978955Y-136374768D01*
X181978954Y-136374768D01*
X181780934Y-136314700D01*
X181780932Y-136314699D01*
X181780934Y-136314699D01*
X181575000Y-136294417D01*
X181369067Y-136314699D01*
X181171043Y-136374769D01*
X181152169Y-136384858D01*
X181093715Y-136399500D01*
X179516285Y-136399500D01*
X179457831Y-136384858D01*
X179438956Y-136374769D01*
X179438955Y-136374768D01*
X179438954Y-136374768D01*
X179240934Y-136314700D01*
X179240932Y-136314699D01*
X179240934Y-136314699D01*
X179035000Y-136294417D01*
X178829067Y-136314699D01*
X178631043Y-136374769D01*
X178612169Y-136384858D01*
X178553715Y-136399500D01*
X177319500Y-136399500D01*
X177252461Y-136379815D01*
X177206706Y-136327011D01*
X177195500Y-136275500D01*
X177195500Y-134561038D01*
X177215185Y-134493999D01*
X177267989Y-134448244D01*
X177295305Y-134439421D01*
X177323231Y-134433867D01*
X177389552Y-134389552D01*
X177433867Y-134323231D01*
X177433867Y-134323229D01*
X177433868Y-134323229D01*
X177443922Y-134272682D01*
X177445500Y-134264748D01*
X177445500Y-133395000D01*
X177879417Y-133395000D01*
X177899699Y-133600932D01*
X177899700Y-133600934D01*
X177959768Y-133798954D01*
X178057315Y-133981450D01*
X178065354Y-133991245D01*
X178188589Y-134141410D01*
X178269252Y-134207607D01*
X178348550Y-134272685D01*
X178531046Y-134370232D01*
X178729066Y-134430300D01*
X178729065Y-134430300D01*
X178747529Y-134432118D01*
X178935000Y-134450583D01*
X179140934Y-134430300D01*
X179338954Y-134370232D01*
X179521450Y-134272685D01*
X179681410Y-134141410D01*
X179812685Y-133981450D01*
X179910232Y-133798954D01*
X179970300Y-133600934D01*
X179990583Y-133395000D01*
X179970300Y-133189066D01*
X179910232Y-132991046D01*
X179812685Y-132808550D01*
X179710155Y-132683616D01*
X179681410Y-132648589D01*
X179543289Y-132535238D01*
X179521450Y-132517315D01*
X179338954Y-132419768D01*
X179140934Y-132359700D01*
X179140932Y-132359699D01*
X179140934Y-132359699D01*
X178935000Y-132339417D01*
X178729067Y-132359699D01*
X178594736Y-132400448D01*
X178531050Y-132419767D01*
X178531043Y-132419769D01*
X178443114Y-132466769D01*
X178348550Y-132517315D01*
X178348548Y-132517316D01*
X178348547Y-132517317D01*
X178188589Y-132648589D01*
X178065354Y-132798754D01*
X178057315Y-132808550D01*
X178041526Y-132838089D01*
X177959769Y-132991043D01*
X177899699Y-133189067D01*
X177879417Y-133395000D01*
X177445500Y-133395000D01*
X177445500Y-132525252D01*
X177445500Y-132525249D01*
X177445499Y-132525247D01*
X177433868Y-132466770D01*
X177433867Y-132466769D01*
X177389551Y-132400446D01*
X177381286Y-132392181D01*
X177347801Y-132330858D01*
X177352785Y-132261166D01*
X177394657Y-132205233D01*
X177460121Y-132180816D01*
X177468967Y-132180500D01*
X178307909Y-132180500D01*
X178307911Y-132180500D01*
X178307914Y-132180499D01*
X178307926Y-132180499D01*
X178322942Y-132179121D01*
X178345302Y-132177070D01*
X178389671Y-132168860D01*
X178392096Y-132168386D01*
X178393651Y-132168083D01*
X178393651Y-132168082D01*
X178393655Y-132168082D01*
X178476895Y-132130196D01*
X178532453Y-132087827D01*
X178551473Y-132071388D01*
X178601015Y-131994512D01*
X178609084Y-131972270D01*
X178650452Y-131915965D01*
X178715696Y-131890963D01*
X178737796Y-131891159D01*
X178935000Y-131910583D01*
X179140934Y-131890300D01*
X179338954Y-131830232D01*
X179521450Y-131732685D01*
X179681410Y-131601410D01*
X179812685Y-131441450D01*
X179910232Y-131258954D01*
X179930406Y-131192446D01*
X179968702Y-131134010D01*
X180032514Y-131105553D01*
X180101581Y-131116112D01*
X180153975Y-131162336D01*
X180168841Y-131196349D01*
X180201567Y-131318486D01*
X180201570Y-131318492D01*
X180301399Y-131532578D01*
X180436894Y-131726082D01*
X180603917Y-131893105D01*
X180797421Y-132028600D01*
X181011507Y-132128429D01*
X181011516Y-132128433D01*
X181133649Y-132161158D01*
X181193310Y-132197523D01*
X181223839Y-132260369D01*
X181215545Y-132329745D01*
X181171059Y-132383623D01*
X181137552Y-132399593D01*
X181071046Y-132419767D01*
X180940358Y-132489622D01*
X180888550Y-132517315D01*
X180888548Y-132517316D01*
X180888547Y-132517317D01*
X180728589Y-132648589D01*
X180605354Y-132798754D01*
X180597315Y-132808550D01*
X180581526Y-132838089D01*
X180499769Y-132991043D01*
X180439699Y-133189067D01*
X180419417Y-133395000D01*
X180439699Y-133600932D01*
X180439700Y-133600934D01*
X180499768Y-133798954D01*
X180597315Y-133981450D01*
X180605354Y-133991245D01*
X180728589Y-134141410D01*
X180809252Y-134207607D01*
X180888550Y-134272685D01*
X181071046Y-134370232D01*
X181269066Y-134430300D01*
X181269065Y-134430300D01*
X181287529Y-134432118D01*
X181475000Y-134450583D01*
X181680934Y-134430300D01*
X181878954Y-134370232D01*
X182061450Y-134272685D01*
X182221410Y-134141410D01*
X182352685Y-133981450D01*
X182450232Y-133798954D01*
X182510300Y-133600934D01*
X182530583Y-133395000D01*
X182959417Y-133395000D01*
X182979699Y-133600932D01*
X182979700Y-133600934D01*
X183039768Y-133798954D01*
X183137315Y-133981450D01*
X183145354Y-133991245D01*
X183268589Y-134141410D01*
X183349252Y-134207607D01*
X183428550Y-134272685D01*
X183611046Y-134370232D01*
X183809066Y-134430300D01*
X183809065Y-134430300D01*
X183827529Y-134432118D01*
X184015000Y-134450583D01*
X184220934Y-134430300D01*
X184418954Y-134370232D01*
X184601450Y-134272685D01*
X184761410Y-134141410D01*
X184892685Y-133981450D01*
X184990232Y-133798954D01*
X185010406Y-133732446D01*
X185048702Y-133674010D01*
X185112514Y-133645553D01*
X185181581Y-133656112D01*
X185233975Y-133702336D01*
X185248841Y-133736349D01*
X185281567Y-133858486D01*
X185281570Y-133858492D01*
X185381399Y-134072578D01*
X185516894Y-134266082D01*
X185683917Y-134433105D01*
X185877421Y-134568600D01*
X186091507Y-134668429D01*
X186091516Y-134668433D01*
X186305000Y-134725634D01*
X186305000Y-133828012D01*
X186362007Y-133860925D01*
X186489174Y-133895000D01*
X186620826Y-133895000D01*
X186747993Y-133860925D01*
X186805000Y-133828012D01*
X186805000Y-134725633D01*
X187018483Y-134668433D01*
X187018492Y-134668429D01*
X187232578Y-134568600D01*
X187426082Y-134433105D01*
X187593105Y-134266082D01*
X187728600Y-134072578D01*
X187828429Y-133858492D01*
X187828433Y-133858483D01*
X187861158Y-133736350D01*
X187897522Y-133676690D01*
X187960369Y-133646160D01*
X188029745Y-133654454D01*
X188083623Y-133698939D01*
X188099593Y-133732447D01*
X188119768Y-133798954D01*
X188217315Y-133981450D01*
X188225354Y-133991245D01*
X188348589Y-134141410D01*
X188429252Y-134207607D01*
X188508550Y-134272685D01*
X188691046Y-134370232D01*
X188889066Y-134430300D01*
X188889065Y-134430300D01*
X188907529Y-134432118D01*
X189095000Y-134450583D01*
X189300934Y-134430300D01*
X189498954Y-134370232D01*
X189681450Y-134272685D01*
X189841410Y-134141410D01*
X189972685Y-133981450D01*
X190070232Y-133798954D01*
X190130300Y-133600934D01*
X190150583Y-133395000D01*
X190130300Y-133189066D01*
X190070232Y-132991046D01*
X189972685Y-132808550D01*
X189870155Y-132683616D01*
X189841410Y-132648589D01*
X189703289Y-132535238D01*
X189681450Y-132517315D01*
X189498954Y-132419768D01*
X189300934Y-132359700D01*
X189300932Y-132359699D01*
X189300934Y-132359699D01*
X189095000Y-132339417D01*
X188889067Y-132359699D01*
X188754736Y-132400448D01*
X188691050Y-132419767D01*
X188691043Y-132419769D01*
X188603114Y-132466769D01*
X188508550Y-132517315D01*
X188508548Y-132517316D01*
X188508547Y-132517317D01*
X188348589Y-132648589D01*
X188225354Y-132798754D01*
X188217315Y-132808550D01*
X188201526Y-132838089D01*
X188119767Y-132991046D01*
X188099593Y-133057552D01*
X188061296Y-133115990D01*
X187997483Y-133144447D01*
X187928416Y-133133886D01*
X187876023Y-133087661D01*
X187861158Y-133053649D01*
X187828433Y-132931516D01*
X187828429Y-132931507D01*
X187728600Y-132717422D01*
X187728599Y-132717420D01*
X187593113Y-132523926D01*
X187593108Y-132523920D01*
X187426082Y-132356894D01*
X187232578Y-132221399D01*
X187018492Y-132121570D01*
X187018486Y-132121567D01*
X186896349Y-132088841D01*
X186836689Y-132052476D01*
X186806160Y-131989629D01*
X186814455Y-131920253D01*
X186858940Y-131866375D01*
X186892444Y-131850407D01*
X186958954Y-131830232D01*
X187141450Y-131732685D01*
X187301410Y-131601410D01*
X187432685Y-131441450D01*
X187530232Y-131258954D01*
X187590300Y-131060934D01*
X187610583Y-130855000D01*
X188039417Y-130855000D01*
X188059699Y-131060932D01*
X188059700Y-131060934D01*
X188119768Y-131258954D01*
X188217315Y-131441450D01*
X188217317Y-131441452D01*
X188348589Y-131601410D01*
X188354899Y-131606588D01*
X188508550Y-131732685D01*
X188691046Y-131830232D01*
X188889066Y-131890300D01*
X188889065Y-131890300D01*
X188907529Y-131892118D01*
X189095000Y-131910583D01*
X189300934Y-131890300D01*
X189498954Y-131830232D01*
X189681450Y-131732685D01*
X189841410Y-131601410D01*
X189972685Y-131441450D01*
X190070232Y-131258954D01*
X190090406Y-131192446D01*
X190128702Y-131134010D01*
X190192514Y-131105553D01*
X190261581Y-131116112D01*
X190313975Y-131162336D01*
X190328841Y-131196349D01*
X190361567Y-131318486D01*
X190361570Y-131318492D01*
X190461399Y-131532578D01*
X190596894Y-131726082D01*
X190763917Y-131893105D01*
X190957421Y-132028600D01*
X191171507Y-132128429D01*
X191171516Y-132128433D01*
X191293649Y-132161158D01*
X191353310Y-132197523D01*
X191383839Y-132260369D01*
X191375545Y-132329745D01*
X191331059Y-132383623D01*
X191297552Y-132399593D01*
X191231046Y-132419767D01*
X191100358Y-132489622D01*
X191048550Y-132517315D01*
X191048548Y-132517316D01*
X191048547Y-132517317D01*
X190888589Y-132648589D01*
X190765354Y-132798754D01*
X190757315Y-132808550D01*
X190741526Y-132838089D01*
X190659769Y-132991043D01*
X190599699Y-133189067D01*
X190579417Y-133395000D01*
X190599699Y-133600932D01*
X190599700Y-133600934D01*
X190659768Y-133798954D01*
X190757315Y-133981450D01*
X190765354Y-133991245D01*
X190888589Y-134141410D01*
X190969252Y-134207607D01*
X191048550Y-134272685D01*
X191231046Y-134370232D01*
X191429066Y-134430300D01*
X191429065Y-134430300D01*
X191447529Y-134432118D01*
X191635000Y-134450583D01*
X191840934Y-134430300D01*
X192038954Y-134370232D01*
X192221450Y-134272685D01*
X192381410Y-134141410D01*
X192512685Y-133981450D01*
X192610232Y-133798954D01*
X192670300Y-133600934D01*
X192690583Y-133395000D01*
X192670300Y-133189066D01*
X192610232Y-132991046D01*
X192512685Y-132808550D01*
X192410155Y-132683616D01*
X192381410Y-132648589D01*
X192243289Y-132535238D01*
X192221450Y-132517315D01*
X192038954Y-132419768D01*
X191972447Y-132399593D01*
X191914009Y-132361296D01*
X191885553Y-132297484D01*
X191896113Y-132228417D01*
X191942337Y-132176023D01*
X191976350Y-132161158D01*
X192098483Y-132128433D01*
X192098492Y-132128429D01*
X192312578Y-132028600D01*
X192506082Y-131893105D01*
X192673105Y-131726082D01*
X192808600Y-131532578D01*
X192908429Y-131318492D01*
X192908433Y-131318483D01*
X192941158Y-131196350D01*
X192977522Y-131136690D01*
X193040369Y-131106160D01*
X193109745Y-131114454D01*
X193163623Y-131158939D01*
X193179593Y-131192447D01*
X193199768Y-131258954D01*
X193297315Y-131441450D01*
X193297317Y-131441452D01*
X193428589Y-131601410D01*
X193434899Y-131606588D01*
X193588550Y-131732685D01*
X193771046Y-131830232D01*
X193969066Y-131890300D01*
X193969065Y-131890300D01*
X193987529Y-131892118D01*
X194175000Y-131910583D01*
X194380934Y-131890300D01*
X194578954Y-131830232D01*
X194761450Y-131732685D01*
X194921410Y-131601410D01*
X195052685Y-131441450D01*
X195150232Y-131258954D01*
X195210300Y-131060934D01*
X195230583Y-130855000D01*
X195210300Y-130649066D01*
X195150232Y-130451046D01*
X195052685Y-130268550D01*
X194977897Y-130177420D01*
X194921410Y-130108589D01*
X194803677Y-130011969D01*
X194761450Y-129977315D01*
X194578954Y-129879768D01*
X194380934Y-129819700D01*
X194380932Y-129819699D01*
X194380934Y-129819699D01*
X194175000Y-129799417D01*
X193969067Y-129819699D01*
X193771043Y-129879769D01*
X193660898Y-129938643D01*
X193588550Y-129977315D01*
X193588548Y-129977316D01*
X193588547Y-129977317D01*
X193428589Y-130108589D01*
X193297317Y-130268547D01*
X193297315Y-130268550D01*
X193269622Y-130320358D01*
X193199767Y-130451046D01*
X193179593Y-130517552D01*
X193141296Y-130575990D01*
X193077483Y-130604447D01*
X193008416Y-130593886D01*
X192956023Y-130547661D01*
X192941158Y-130513649D01*
X192908433Y-130391516D01*
X192908429Y-130391507D01*
X192808600Y-130177422D01*
X192808599Y-130177420D01*
X192673113Y-129983926D01*
X192673108Y-129983920D01*
X192506082Y-129816894D01*
X192312578Y-129681399D01*
X192098492Y-129581570D01*
X192098486Y-129581567D01*
X191885000Y-129524364D01*
X191885000Y-130421988D01*
X191827993Y-130389075D01*
X191700826Y-130355000D01*
X191569174Y-130355000D01*
X191442007Y-130389075D01*
X191385000Y-130421988D01*
X191385000Y-129524364D01*
X191384999Y-129524364D01*
X191171513Y-129581567D01*
X191171507Y-129581570D01*
X190957422Y-129681399D01*
X190957420Y-129681400D01*
X190763926Y-129816886D01*
X190763920Y-129816891D01*
X190596891Y-129983920D01*
X190596886Y-129983926D01*
X190461400Y-130177420D01*
X190461399Y-130177422D01*
X190361570Y-130391507D01*
X190361567Y-130391514D01*
X190328841Y-130513650D01*
X190292476Y-130573310D01*
X190229629Y-130603839D01*
X190160253Y-130595544D01*
X190106375Y-130551059D01*
X190090406Y-130517552D01*
X190070232Y-130451046D01*
X189972685Y-130268550D01*
X189897897Y-130177420D01*
X189841410Y-130108589D01*
X189723677Y-130011969D01*
X189681450Y-129977315D01*
X189498954Y-129879768D01*
X189300934Y-129819700D01*
X189300932Y-129819699D01*
X189300934Y-129819699D01*
X189095000Y-129799417D01*
X188889067Y-129819699D01*
X188691043Y-129879769D01*
X188580898Y-129938643D01*
X188508550Y-129977315D01*
X188508548Y-129977316D01*
X188508547Y-129977317D01*
X188348589Y-130108589D01*
X188217317Y-130268547D01*
X188217315Y-130268550D01*
X188178643Y-130340898D01*
X188119769Y-130451043D01*
X188059699Y-130649067D01*
X188039417Y-130855000D01*
X187610583Y-130855000D01*
X187590300Y-130649066D01*
X187530232Y-130451046D01*
X187432685Y-130268550D01*
X187357897Y-130177420D01*
X187301410Y-130108589D01*
X187183677Y-130011969D01*
X187141450Y-129977315D01*
X186958954Y-129879768D01*
X186760934Y-129819700D01*
X186760932Y-129819699D01*
X186760934Y-129819699D01*
X186555000Y-129799417D01*
X186349067Y-129819699D01*
X186151043Y-129879769D01*
X186040898Y-129938643D01*
X185968550Y-129977315D01*
X185968548Y-129977316D01*
X185968547Y-129977317D01*
X185808589Y-130108589D01*
X185677317Y-130268547D01*
X185677315Y-130268550D01*
X185638643Y-130340898D01*
X185579769Y-130451043D01*
X185519699Y-130649067D01*
X185499417Y-130855000D01*
X185519699Y-131060932D01*
X185519700Y-131060934D01*
X185579768Y-131258954D01*
X185677315Y-131441450D01*
X185677317Y-131441452D01*
X185808589Y-131601410D01*
X185814899Y-131606588D01*
X185968550Y-131732685D01*
X186151046Y-131830232D01*
X186217551Y-131850405D01*
X186275989Y-131888702D01*
X186304446Y-131952514D01*
X186293887Y-132021581D01*
X186247663Y-132073975D01*
X186213650Y-132088841D01*
X186091514Y-132121567D01*
X186091507Y-132121570D01*
X185877422Y-132221399D01*
X185877420Y-132221400D01*
X185683926Y-132356886D01*
X185683920Y-132356891D01*
X185516891Y-132523920D01*
X185516886Y-132523926D01*
X185381400Y-132717420D01*
X185381399Y-132717422D01*
X185281570Y-132931507D01*
X185281567Y-132931514D01*
X185248841Y-133053650D01*
X185212476Y-133113310D01*
X185149629Y-133143839D01*
X185080253Y-133135544D01*
X185026375Y-133091059D01*
X185010406Y-133057552D01*
X184990232Y-132991046D01*
X184892685Y-132808550D01*
X184790155Y-132683616D01*
X184761410Y-132648589D01*
X184623289Y-132535238D01*
X184601450Y-132517315D01*
X184418954Y-132419768D01*
X184220934Y-132359700D01*
X184220932Y-132359699D01*
X184220934Y-132359699D01*
X184015000Y-132339417D01*
X183809067Y-132359699D01*
X183674736Y-132400448D01*
X183611050Y-132419767D01*
X183611043Y-132419769D01*
X183523114Y-132466769D01*
X183428550Y-132517315D01*
X183428548Y-132517316D01*
X183428547Y-132517317D01*
X183268589Y-132648589D01*
X183145354Y-132798754D01*
X183137315Y-132808550D01*
X183121526Y-132838089D01*
X183039769Y-132991043D01*
X182979699Y-133189067D01*
X182959417Y-133395000D01*
X182530583Y-133395000D01*
X182510300Y-133189066D01*
X182450232Y-132991046D01*
X182352685Y-132808550D01*
X182250155Y-132683616D01*
X182221410Y-132648589D01*
X182083289Y-132535238D01*
X182061450Y-132517315D01*
X181878954Y-132419768D01*
X181812447Y-132399593D01*
X181754009Y-132361296D01*
X181725553Y-132297484D01*
X181736113Y-132228417D01*
X181782337Y-132176023D01*
X181816350Y-132161158D01*
X181938483Y-132128433D01*
X181938492Y-132128429D01*
X182152578Y-132028600D01*
X182346082Y-131893105D01*
X182513105Y-131726082D01*
X182648600Y-131532578D01*
X182748429Y-131318492D01*
X182748433Y-131318483D01*
X182781158Y-131196350D01*
X182817522Y-131136690D01*
X182880369Y-131106160D01*
X182949745Y-131114454D01*
X183003623Y-131158939D01*
X183019593Y-131192447D01*
X183039768Y-131258954D01*
X183137315Y-131441450D01*
X183137317Y-131441452D01*
X183268589Y-131601410D01*
X183274899Y-131606588D01*
X183428550Y-131732685D01*
X183611046Y-131830232D01*
X183809066Y-131890300D01*
X183809065Y-131890300D01*
X183827529Y-131892118D01*
X184015000Y-131910583D01*
X184220934Y-131890300D01*
X184418954Y-131830232D01*
X184601450Y-131732685D01*
X184761410Y-131601410D01*
X184892685Y-131441450D01*
X184990232Y-131258954D01*
X185050300Y-131060934D01*
X185070583Y-130855000D01*
X185050300Y-130649066D01*
X184990232Y-130451046D01*
X184892685Y-130268550D01*
X184817897Y-130177420D01*
X184761410Y-130108589D01*
X184643677Y-130011969D01*
X184601450Y-129977315D01*
X184418954Y-129879768D01*
X184220934Y-129819700D01*
X184220932Y-129819699D01*
X184220934Y-129819699D01*
X184015000Y-129799417D01*
X183809067Y-129819699D01*
X183611043Y-129879769D01*
X183500898Y-129938643D01*
X183428550Y-129977315D01*
X183428548Y-129977316D01*
X183428547Y-129977317D01*
X183268589Y-130108589D01*
X183137317Y-130268547D01*
X183137315Y-130268550D01*
X183109622Y-130320358D01*
X183039767Y-130451046D01*
X183019593Y-130517552D01*
X182981296Y-130575990D01*
X182917483Y-130604447D01*
X182848416Y-130593886D01*
X182796023Y-130547661D01*
X182781158Y-130513649D01*
X182748433Y-130391516D01*
X182748429Y-130391507D01*
X182648600Y-130177422D01*
X182648599Y-130177420D01*
X182513113Y-129983926D01*
X182513108Y-129983920D01*
X182346082Y-129816894D01*
X182152578Y-129681399D01*
X181938492Y-129581570D01*
X181938486Y-129581567D01*
X181725000Y-129524364D01*
X181725000Y-130421988D01*
X181667993Y-130389075D01*
X181540826Y-130355000D01*
X181409174Y-130355000D01*
X181282007Y-130389075D01*
X181225000Y-130421988D01*
X181225000Y-129524364D01*
X181224999Y-129524364D01*
X181011513Y-129581567D01*
X181011507Y-129581570D01*
X180797422Y-129681399D01*
X180797420Y-129681400D01*
X180603926Y-129816886D01*
X180603920Y-129816891D01*
X180467181Y-129953631D01*
X180405858Y-129987116D01*
X180336166Y-129982132D01*
X180280233Y-129940260D01*
X180255816Y-129874796D01*
X180255500Y-129865950D01*
X180255500Y-129726361D01*
X180254321Y-129704381D01*
X180251488Y-129678034D01*
X180251487Y-129678032D01*
X180227529Y-129601518D01*
X180194044Y-129540195D01*
X180158991Y-129493371D01*
X178791819Y-128126199D01*
X178758334Y-128064876D01*
X178755500Y-128038518D01*
X178755500Y-124499986D01*
X179400001Y-124499986D01*
X179410494Y-124602697D01*
X179465641Y-124769119D01*
X179465643Y-124769124D01*
X179557684Y-124918345D01*
X179681654Y-125042315D01*
X179830875Y-125134356D01*
X179830880Y-125134358D01*
X179997302Y-125189505D01*
X179997309Y-125189506D01*
X180100019Y-125199999D01*
X181399999Y-125199999D01*
X181900000Y-125199999D01*
X183199972Y-125199999D01*
X183199986Y-125199998D01*
X183302697Y-125189505D01*
X183469119Y-125134358D01*
X183469124Y-125134356D01*
X183618345Y-125042315D01*
X183742315Y-124918345D01*
X183834356Y-124769124D01*
X183834358Y-124769119D01*
X183889505Y-124602697D01*
X183889506Y-124602690D01*
X183899999Y-124499986D01*
X183900000Y-124499973D01*
X183900000Y-124150000D01*
X181900000Y-124150000D01*
X181900000Y-125199999D01*
X181399999Y-125199999D01*
X181400000Y-125199998D01*
X181400000Y-124150000D01*
X179400001Y-124150000D01*
X179400001Y-124499986D01*
X178755500Y-124499986D01*
X178755500Y-123300013D01*
X179400000Y-123300013D01*
X179400000Y-123650000D01*
X181400000Y-123650000D01*
X181900000Y-123650000D01*
X183899999Y-123650000D01*
X183899999Y-123300028D01*
X183899998Y-123300013D01*
X183889505Y-123197302D01*
X183834358Y-123030880D01*
X183834356Y-123030875D01*
X183742315Y-122881654D01*
X183618345Y-122757684D01*
X183469124Y-122665643D01*
X183469119Y-122665641D01*
X183302697Y-122610494D01*
X183302690Y-122610493D01*
X183199986Y-122600000D01*
X181900000Y-122600000D01*
X181900000Y-123650000D01*
X181400000Y-123650000D01*
X181400000Y-122600000D01*
X180100028Y-122600000D01*
X180100012Y-122600001D01*
X179997302Y-122610494D01*
X179830880Y-122665641D01*
X179830875Y-122665643D01*
X179681654Y-122757684D01*
X179557684Y-122881654D01*
X179465643Y-123030875D01*
X179465641Y-123030880D01*
X179410494Y-123197302D01*
X179410493Y-123197309D01*
X179400000Y-123300013D01*
X178755500Y-123300013D01*
X178755500Y-119629500D01*
X178775185Y-119562461D01*
X178827989Y-119516706D01*
X178879500Y-119505500D01*
X180260991Y-119505500D01*
X180261000Y-119505500D01*
X180304684Y-119500803D01*
X180333875Y-119494452D01*
X180356174Y-119489602D01*
X180356190Y-119489598D01*
X180356195Y-119489597D01*
X180366373Y-119487110D01*
X180447085Y-119444100D01*
X180499889Y-119398345D01*
X180517843Y-119380754D01*
X180562490Y-119300937D01*
X180582175Y-119233898D01*
X180590500Y-119176000D01*
X180590500Y-113239712D01*
X180610185Y-113172673D01*
X180662989Y-113126918D01*
X180701090Y-113120355D01*
X181350000Y-112471445D01*
X181350000Y-112477661D01*
X181377259Y-112579394D01*
X181429920Y-112670606D01*
X181504394Y-112745080D01*
X181595606Y-112797741D01*
X181697339Y-112825000D01*
X181703553Y-112825000D01*
X181060427Y-113468124D01*
X181122612Y-113511666D01*
X181320840Y-113604101D01*
X181320849Y-113604105D01*
X181532105Y-113660710D01*
X181532115Y-113660712D01*
X181749999Y-113679775D01*
X181750001Y-113679775D01*
X181967884Y-113660712D01*
X181967894Y-113660710D01*
X182179150Y-113604105D01*
X182179164Y-113604100D01*
X182377383Y-113511669D01*
X182377385Y-113511668D01*
X182439571Y-113468124D01*
X181796448Y-112825000D01*
X181802661Y-112825000D01*
X181904394Y-112797741D01*
X181995606Y-112745080D01*
X182070080Y-112670606D01*
X182122741Y-112579394D01*
X182150000Y-112477661D01*
X182150000Y-112471446D01*
X182793124Y-113114570D01*
X182836668Y-113052385D01*
X182836669Y-113052383D01*
X182929100Y-112854164D01*
X182929105Y-112854150D01*
X182985710Y-112642894D01*
X182985712Y-112642884D01*
X183004775Y-112425000D01*
X183004775Y-112424999D01*
X205895225Y-112424999D01*
X205895225Y-112425000D01*
X205914287Y-112642884D01*
X205914289Y-112642894D01*
X205970894Y-112854150D01*
X205970898Y-112854159D01*
X206063333Y-113052387D01*
X206106874Y-113114571D01*
X206750000Y-112471445D01*
X206750000Y-112477661D01*
X206777259Y-112579394D01*
X206829920Y-112670606D01*
X206904394Y-112745080D01*
X206995606Y-112797741D01*
X207097339Y-112825000D01*
X207103553Y-112825000D01*
X206460427Y-113468124D01*
X206522612Y-113511666D01*
X206720840Y-113604101D01*
X206720849Y-113604105D01*
X206932105Y-113660710D01*
X206932115Y-113660712D01*
X207149999Y-113679775D01*
X207150001Y-113679775D01*
X207367884Y-113660712D01*
X207367894Y-113660710D01*
X207579150Y-113604105D01*
X207579164Y-113604100D01*
X207777383Y-113511669D01*
X207777385Y-113511668D01*
X207839571Y-113468124D01*
X207196448Y-112825000D01*
X207202661Y-112825000D01*
X207304394Y-112797741D01*
X207395606Y-112745080D01*
X207470080Y-112670606D01*
X207522741Y-112579394D01*
X207550000Y-112477661D01*
X207550000Y-112471446D01*
X208193124Y-113114570D01*
X208236668Y-113052385D01*
X208236669Y-113052383D01*
X208329100Y-112854164D01*
X208329105Y-112854150D01*
X208385710Y-112642894D01*
X208385712Y-112642884D01*
X208404775Y-112425000D01*
X208734901Y-112425000D01*
X208753252Y-112611331D01*
X208753253Y-112611333D01*
X208807603Y-112790500D01*
X208826044Y-112825000D01*
X208874858Y-112916326D01*
X208889500Y-112974777D01*
X208889500Y-120443846D01*
X208920261Y-120598489D01*
X208920264Y-120598501D01*
X208980602Y-120744172D01*
X208980609Y-120744185D01*
X209068210Y-120875288D01*
X209068213Y-120875292D01*
X212039707Y-123846786D01*
X212039711Y-123846789D01*
X212170814Y-123934390D01*
X212170827Y-123934397D01*
X212316498Y-123994735D01*
X212316503Y-123994737D01*
X212471153Y-124025499D01*
X212471156Y-124025500D01*
X212471158Y-124025500D01*
X212628843Y-124025500D01*
X213539520Y-124025500D01*
X213606559Y-124045185D01*
X213640031Y-124081628D01*
X213641689Y-124080405D01*
X213647206Y-124087880D01*
X213647207Y-124087882D01*
X213727850Y-124197150D01*
X213837118Y-124277793D01*
X213879845Y-124292744D01*
X213965299Y-124322646D01*
X213995730Y-124325500D01*
X213995734Y-124325500D01*
X216104270Y-124325500D01*
X216134699Y-124322646D01*
X216134701Y-124322646D01*
X216198790Y-124300219D01*
X216262882Y-124277793D01*
X216372150Y-124197150D01*
X216452793Y-124087882D01*
X216475219Y-124023790D01*
X216497646Y-123959701D01*
X216497646Y-123959699D01*
X216500500Y-123929269D01*
X216500500Y-122520730D01*
X217599500Y-122520730D01*
X217599500Y-123929269D01*
X217602353Y-123959699D01*
X217602353Y-123959701D01*
X217647206Y-124087880D01*
X217647207Y-124087882D01*
X217727850Y-124197150D01*
X217837118Y-124277793D01*
X217879845Y-124292744D01*
X217965299Y-124322646D01*
X217995730Y-124325500D01*
X217995734Y-124325500D01*
X220104270Y-124325500D01*
X220134699Y-124322646D01*
X220134701Y-124322646D01*
X220198790Y-124300219D01*
X220262882Y-124277793D01*
X220372150Y-124197150D01*
X220452793Y-124087882D01*
X220452794Y-124087880D01*
X220458311Y-124080405D01*
X220460285Y-124081862D01*
X220499580Y-124041485D01*
X220560480Y-124025500D01*
X226528844Y-124025500D01*
X226528845Y-124025499D01*
X226683497Y-123994737D01*
X226829179Y-123934394D01*
X226960289Y-123846789D01*
X227839794Y-122967282D01*
X227901115Y-122933799D01*
X227947878Y-122932656D01*
X228054808Y-122950500D01*
X228054811Y-122950500D01*
X228295191Y-122950500D01*
X228295192Y-122950500D01*
X228532297Y-122910934D01*
X228759656Y-122832882D01*
X228971067Y-122718472D01*
X229160764Y-122570825D01*
X229323571Y-122393969D01*
X229455049Y-122192728D01*
X229551610Y-121972591D01*
X229610620Y-121739563D01*
X229630471Y-121500000D01*
X229610620Y-121260437D01*
X229551610Y-121027409D01*
X229455049Y-120807272D01*
X229413823Y-120744172D01*
X229323572Y-120606033D01*
X229323571Y-120606031D01*
X229160764Y-120429175D01*
X229160759Y-120429171D01*
X229160757Y-120429169D01*
X228971075Y-120281533D01*
X228971069Y-120281529D01*
X228759657Y-120167118D01*
X228759652Y-120167116D01*
X228532300Y-120089066D01*
X228354468Y-120059391D01*
X228295192Y-120049500D01*
X228054808Y-120049500D01*
X228007387Y-120057413D01*
X227817699Y-120089066D01*
X227590347Y-120167116D01*
X227590342Y-120167118D01*
X227378930Y-120281529D01*
X227378924Y-120281533D01*
X227189242Y-120429169D01*
X227189239Y-120429172D01*
X227189236Y-120429174D01*
X227189236Y-120429175D01*
X227153294Y-120468217D01*
X227026430Y-120606029D01*
X227026427Y-120606033D01*
X226894951Y-120807270D01*
X226798389Y-121027410D01*
X226739379Y-121260440D01*
X226719529Y-121499994D01*
X226719529Y-121500000D01*
X226730579Y-121633354D01*
X226739529Y-121741366D01*
X226725447Y-121809802D01*
X226703633Y-121839287D01*
X226154741Y-122388181D01*
X226093418Y-122421666D01*
X226067060Y-122424500D01*
X220560480Y-122424500D01*
X220493441Y-122404815D01*
X220459968Y-122368371D01*
X220458311Y-122369595D01*
X220452792Y-122362117D01*
X220372150Y-122252850D01*
X220262882Y-122172207D01*
X220262880Y-122172206D01*
X220134700Y-122127353D01*
X220104270Y-122124500D01*
X220104266Y-122124500D01*
X217995734Y-122124500D01*
X217995730Y-122124500D01*
X217965300Y-122127353D01*
X217965298Y-122127353D01*
X217837119Y-122172206D01*
X217837117Y-122172207D01*
X217727850Y-122252850D01*
X217647207Y-122362117D01*
X217647206Y-122362119D01*
X217602353Y-122490298D01*
X217602353Y-122490300D01*
X217599500Y-122520730D01*
X216500500Y-122520730D01*
X216497646Y-122490300D01*
X216497646Y-122490298D01*
X216452793Y-122362119D01*
X216452792Y-122362117D01*
X216372150Y-122252850D01*
X216262882Y-122172207D01*
X216262880Y-122172206D01*
X216134700Y-122127353D01*
X216104270Y-122124500D01*
X216104266Y-122124500D01*
X213995734Y-122124500D01*
X213995730Y-122124500D01*
X213965300Y-122127353D01*
X213965298Y-122127353D01*
X213837119Y-122172206D01*
X213837117Y-122172207D01*
X213727850Y-122252850D01*
X213641689Y-122369595D01*
X213639714Y-122368137D01*
X213600420Y-122408515D01*
X213539520Y-122424500D01*
X212932940Y-122424500D01*
X212865901Y-122404815D01*
X212845259Y-122388181D01*
X210526819Y-120069741D01*
X210493334Y-120008418D01*
X210490500Y-119982060D01*
X210490500Y-116499995D01*
X226420093Y-116499995D01*
X226420093Y-116500004D01*
X226439692Y-116761545D01*
X226439693Y-116761550D01*
X226498058Y-117017270D01*
X226593883Y-117261426D01*
X226593882Y-117261426D01*
X226725029Y-117488576D01*
X226772873Y-117548572D01*
X227573958Y-116747487D01*
X227598978Y-116807890D01*
X227670112Y-116914351D01*
X227760649Y-117004888D01*
X227867110Y-117076022D01*
X227927510Y-117101041D01*
X227125830Y-117902720D01*
X227297546Y-118019793D01*
X227297550Y-118019795D01*
X227533854Y-118133594D01*
X227533858Y-118133595D01*
X227784494Y-118210907D01*
X227784500Y-118210909D01*
X228043848Y-118249999D01*
X228043857Y-118250000D01*
X228306143Y-118250000D01*
X228306151Y-118249999D01*
X228565499Y-118210909D01*
X228565505Y-118210907D01*
X228816143Y-118133595D01*
X229052445Y-118019798D01*
X229052447Y-118019797D01*
X229224168Y-117902720D01*
X228422488Y-117101041D01*
X228482890Y-117076022D01*
X228589351Y-117004888D01*
X228679888Y-116914351D01*
X228751022Y-116807890D01*
X228776041Y-116747488D01*
X229577125Y-117548572D01*
X229624971Y-117488573D01*
X229756116Y-117261426D01*
X229851941Y-117017270D01*
X229910306Y-116761550D01*
X229910307Y-116761545D01*
X229929907Y-116500004D01*
X229929907Y-116499995D01*
X229910307Y-116238454D01*
X229910306Y-116238449D01*
X229851941Y-115982729D01*
X229756116Y-115738573D01*
X229756117Y-115738573D01*
X229624972Y-115511426D01*
X229577124Y-115451427D01*
X228776041Y-116252510D01*
X228751022Y-116192110D01*
X228679888Y-116085649D01*
X228589351Y-115995112D01*
X228482890Y-115923978D01*
X228422487Y-115898958D01*
X229224168Y-115097278D01*
X229052454Y-114980206D01*
X229052445Y-114980201D01*
X228816142Y-114866404D01*
X228816144Y-114866404D01*
X228565505Y-114789092D01*
X228565499Y-114789090D01*
X228306151Y-114750000D01*
X228043848Y-114750000D01*
X227784500Y-114789090D01*
X227784494Y-114789092D01*
X227533858Y-114866404D01*
X227533854Y-114866405D01*
X227297547Y-114980205D01*
X227297539Y-114980210D01*
X227125830Y-115097277D01*
X227927512Y-115898958D01*
X227867110Y-115923978D01*
X227760649Y-115995112D01*
X227670112Y-116085649D01*
X227598978Y-116192110D01*
X227573958Y-116252511D01*
X226772874Y-115451427D01*
X226725028Y-115511425D01*
X226593883Y-115738573D01*
X226498058Y-115982729D01*
X226439693Y-116238449D01*
X226439692Y-116238454D01*
X226420093Y-116499995D01*
X210490500Y-116499995D01*
X210490500Y-113349500D01*
X210510185Y-113282461D01*
X210562989Y-113236706D01*
X210614500Y-113225500D01*
X211680221Y-113225500D01*
X211738674Y-113240142D01*
X211864499Y-113307396D01*
X212043666Y-113361746D01*
X212043668Y-113361747D01*
X212060374Y-113363392D01*
X212230000Y-113380099D01*
X212416331Y-113361747D01*
X212595501Y-113307396D01*
X212760625Y-113219136D01*
X212905357Y-113100357D01*
X213024136Y-112955625D01*
X213112396Y-112790501D01*
X213166747Y-112611331D01*
X213185099Y-112425000D01*
X213814901Y-112425000D01*
X213833252Y-112611331D01*
X213833253Y-112611333D01*
X213887604Y-112790502D01*
X213975862Y-112955623D01*
X213975864Y-112955626D01*
X214094642Y-113100357D01*
X214239373Y-113219135D01*
X214239376Y-113219137D01*
X214404497Y-113307395D01*
X214404499Y-113307396D01*
X214583666Y-113361746D01*
X214583668Y-113361747D01*
X214600374Y-113363392D01*
X214770000Y-113380099D01*
X214956331Y-113361747D01*
X215135501Y-113307396D01*
X215300625Y-113219136D01*
X215445357Y-113100357D01*
X215564136Y-112955625D01*
X215652396Y-112790501D01*
X215706747Y-112611331D01*
X215725099Y-112425000D01*
X216354901Y-112425000D01*
X216373252Y-112611331D01*
X216373253Y-112611333D01*
X216427604Y-112790502D01*
X216515862Y-112955623D01*
X216515864Y-112955626D01*
X216634642Y-113100357D01*
X216779373Y-113219135D01*
X216779376Y-113219137D01*
X216944497Y-113307395D01*
X216944499Y-113307396D01*
X217123666Y-113361746D01*
X217123668Y-113361747D01*
X217140374Y-113363392D01*
X217310000Y-113380099D01*
X217496331Y-113361747D01*
X217675501Y-113307396D01*
X217840625Y-113219136D01*
X217985357Y-113100357D01*
X218104136Y-112955625D01*
X218192396Y-112790501D01*
X218246747Y-112611331D01*
X218265099Y-112425000D01*
X218894901Y-112425000D01*
X218913252Y-112611331D01*
X218913253Y-112611333D01*
X218967604Y-112790502D01*
X219055862Y-112955623D01*
X219055864Y-112955626D01*
X219174642Y-113100357D01*
X219319373Y-113219135D01*
X219319376Y-113219137D01*
X219484497Y-113307395D01*
X219484499Y-113307396D01*
X219663666Y-113361746D01*
X219663668Y-113361747D01*
X219680374Y-113363392D01*
X219850000Y-113380099D01*
X220036331Y-113361747D01*
X220215501Y-113307396D01*
X220380625Y-113219136D01*
X220525357Y-113100357D01*
X220644136Y-112955625D01*
X220732396Y-112790501D01*
X220786747Y-112611331D01*
X220805099Y-112425000D01*
X220788392Y-112255374D01*
X220786747Y-112238668D01*
X220786746Y-112238666D01*
X220732395Y-112059497D01*
X220644137Y-111894376D01*
X220644135Y-111894373D01*
X220525357Y-111749642D01*
X220380626Y-111630864D01*
X220380623Y-111630862D01*
X220215502Y-111542604D01*
X220036333Y-111488253D01*
X220036331Y-111488252D01*
X219850000Y-111469901D01*
X219663668Y-111488252D01*
X219663666Y-111488253D01*
X219484497Y-111542604D01*
X219319376Y-111630862D01*
X219319373Y-111630864D01*
X219174642Y-111749642D01*
X219055864Y-111894373D01*
X219055862Y-111894376D01*
X218967604Y-112059497D01*
X218913253Y-112238666D01*
X218913252Y-112238668D01*
X218894901Y-112425000D01*
X218265099Y-112425000D01*
X218248392Y-112255374D01*
X218246747Y-112238668D01*
X218246746Y-112238666D01*
X218192395Y-112059497D01*
X218104137Y-111894376D01*
X218104135Y-111894373D01*
X217985357Y-111749642D01*
X217840626Y-111630864D01*
X217840623Y-111630862D01*
X217675502Y-111542604D01*
X217496333Y-111488253D01*
X217496331Y-111488252D01*
X217310000Y-111469901D01*
X217123668Y-111488252D01*
X217123666Y-111488253D01*
X216944497Y-111542604D01*
X216779376Y-111630862D01*
X216779373Y-111630864D01*
X216634642Y-111749642D01*
X216515864Y-111894373D01*
X216515862Y-111894376D01*
X216427604Y-112059497D01*
X216373253Y-112238666D01*
X216373252Y-112238668D01*
X216354901Y-112425000D01*
X215725099Y-112425000D01*
X215708392Y-112255374D01*
X215706747Y-112238668D01*
X215706746Y-112238666D01*
X215652395Y-112059497D01*
X215564137Y-111894376D01*
X215564135Y-111894373D01*
X215445357Y-111749642D01*
X215300626Y-111630864D01*
X215300623Y-111630862D01*
X215135502Y-111542604D01*
X214956333Y-111488253D01*
X214956331Y-111488252D01*
X214770000Y-111469901D01*
X214583668Y-111488252D01*
X214583666Y-111488253D01*
X214404497Y-111542604D01*
X214239376Y-111630862D01*
X214239373Y-111630864D01*
X214094642Y-111749642D01*
X213975864Y-111894373D01*
X213975862Y-111894376D01*
X213887604Y-112059497D01*
X213833253Y-112238666D01*
X213833252Y-112238668D01*
X213814901Y-112425000D01*
X213185099Y-112425000D01*
X213168392Y-112255374D01*
X213166747Y-112238668D01*
X213166746Y-112238666D01*
X213112395Y-112059497D01*
X213024137Y-111894376D01*
X213024135Y-111894373D01*
X212905357Y-111749642D01*
X212760626Y-111630864D01*
X212760623Y-111630862D01*
X212595502Y-111542604D01*
X212416333Y-111488253D01*
X212416331Y-111488252D01*
X212230000Y-111469901D01*
X212043668Y-111488252D01*
X212043666Y-111488253D01*
X211864497Y-111542604D01*
X211738674Y-111609858D01*
X211680221Y-111624500D01*
X210239779Y-111624500D01*
X210181326Y-111609858D01*
X210055502Y-111542604D01*
X209876333Y-111488253D01*
X209876331Y-111488252D01*
X209690000Y-111469901D01*
X209503668Y-111488252D01*
X209503666Y-111488253D01*
X209324497Y-111542604D01*
X209159376Y-111630862D01*
X209159373Y-111630864D01*
X209014642Y-111749642D01*
X208895864Y-111894373D01*
X208895862Y-111894376D01*
X208807604Y-112059497D01*
X208753253Y-112238666D01*
X208753252Y-112238668D01*
X208734901Y-112425000D01*
X208404775Y-112425000D01*
X208404775Y-112424999D01*
X208385712Y-112207115D01*
X208385710Y-112207105D01*
X208329105Y-111995849D01*
X208329101Y-111995840D01*
X208236668Y-111797615D01*
X208193123Y-111735428D01*
X207550000Y-112378551D01*
X207550000Y-112372339D01*
X207522741Y-112270606D01*
X207470080Y-112179394D01*
X207395606Y-112104920D01*
X207304394Y-112052259D01*
X207202661Y-112025000D01*
X207196447Y-112025000D01*
X207839571Y-111381874D01*
X207777387Y-111338333D01*
X207579159Y-111245898D01*
X207579150Y-111245894D01*
X207367894Y-111189289D01*
X207367884Y-111189287D01*
X207150001Y-111170225D01*
X207149999Y-111170225D01*
X206932115Y-111189287D01*
X206932105Y-111189289D01*
X206720849Y-111245894D01*
X206720840Y-111245898D01*
X206522614Y-111338332D01*
X206522612Y-111338333D01*
X206460428Y-111381875D01*
X206460427Y-111381875D01*
X207103554Y-112025000D01*
X207097339Y-112025000D01*
X206995606Y-112052259D01*
X206904394Y-112104920D01*
X206829920Y-112179394D01*
X206777259Y-112270606D01*
X206750000Y-112372339D01*
X206750000Y-112378552D01*
X206106875Y-111735427D01*
X206106875Y-111735428D01*
X206063333Y-111797612D01*
X206063332Y-111797614D01*
X205970898Y-111995840D01*
X205970894Y-111995849D01*
X205914289Y-112207105D01*
X205914287Y-112207115D01*
X205895225Y-112424999D01*
X183004775Y-112424999D01*
X182985712Y-112207115D01*
X182985710Y-112207105D01*
X182929105Y-111995849D01*
X182929101Y-111995840D01*
X182836668Y-111797615D01*
X182793123Y-111735428D01*
X182150000Y-112378551D01*
X182150000Y-112372339D01*
X182122741Y-112270606D01*
X182070080Y-112179394D01*
X181995606Y-112104920D01*
X181904394Y-112052259D01*
X181802661Y-112025000D01*
X181796447Y-112025000D01*
X182439571Y-111381874D01*
X182377387Y-111338333D01*
X182179159Y-111245898D01*
X182179150Y-111245894D01*
X181967894Y-111189289D01*
X181967884Y-111189287D01*
X181750001Y-111170225D01*
X181749999Y-111170225D01*
X181532115Y-111189287D01*
X181532105Y-111189289D01*
X181320849Y-111245894D01*
X181320840Y-111245898D01*
X181122614Y-111338332D01*
X181122612Y-111338333D01*
X181060428Y-111381875D01*
X181060427Y-111381875D01*
X181703554Y-112025000D01*
X181697339Y-112025000D01*
X181595606Y-112052259D01*
X181504394Y-112104920D01*
X181429920Y-112179394D01*
X181377259Y-112270606D01*
X181350000Y-112372339D01*
X181350000Y-112378553D01*
X180700220Y-111728773D01*
X180656808Y-111720048D01*
X180606624Y-111671433D01*
X180590500Y-111610287D01*
X180590500Y-110449008D01*
X180590499Y-110448992D01*
X180585803Y-110405316D01*
X180581897Y-110387364D01*
X180574602Y-110353825D01*
X180574348Y-110352789D01*
X180572110Y-110343627D01*
X180529100Y-110262915D01*
X180483345Y-110210111D01*
X180483339Y-110210104D01*
X180465757Y-110192160D01*
X180465756Y-110192159D01*
X180465754Y-110192157D01*
X180465752Y-110192156D01*
X180465750Y-110192154D01*
X180385940Y-110147511D01*
X180385935Y-110147509D01*
X180318903Y-110127826D01*
X180318899Y-110127825D01*
X180318898Y-110127825D01*
X180261000Y-110119500D01*
X168649000Y-110119500D01*
X168612254Y-110123451D01*
X168543494Y-110111044D01*
X168492358Y-110063433D01*
X168475000Y-110000161D01*
X168475000Y-105257905D01*
X168490471Y-105197926D01*
X168524227Y-105136848D01*
X168531613Y-105125096D01*
X168689735Y-104902244D01*
X168744582Y-104858961D01*
X168790864Y-104850000D01*
X232259136Y-104850000D01*
X232326175Y-104869685D01*
G37*
G04 #@! TD.AperFunction*
M02*
