M48
; DRILL file {KiCad 9.0.2} date 2025-05-23T14:58:06+0300
; FORMAT={-:-/ absolute / metric / decimal}
; #@! TF.CreationDate,2025-05-23T14:58:06+03:00
; #@! TF.GenerationSoftware,Kicad,Pcbnew,9.0.2
; #@! TF.FileFunction,Plated,1,4,PTH
FMAT,2
METRIC
; #@! TA.AperFunction,Plated,PTH,ViaDrill
T1C0.300
; #@! TA.AperFunction,Plated,PTH,ViaDrill
T2C0.400
; #@! TA.AperFunction,Plated,PTH,ComponentDrill
T3C1.000
; #@! TA.AperFunction,Plated,PTH,ComponentDrill
T4C1.200
; #@! TA.AperFunction,Plated,PTH,ComponentDrill
T5C1.500
%
G90
G05
T1
X61.0Y-63.0
X61.0Y-65.0
X61.0Y-67.0
X61.0Y-69.0
X61.0Y-71.0
X61.0Y-73.0
X61.0Y-75.0
X61.0Y-77.0
X61.0Y-79.0
X61.0Y-81.0
X61.0Y-83.0
X61.0Y-85.0
X61.0Y-87.0
X61.0Y-89.0
X61.0Y-91.0
X61.0Y-93.0
X61.0Y-95.0
X61.0Y-97.0
X61.0Y-99.0
X61.0Y-101.0
X61.0Y-103.0
X61.0Y-105.0
X61.0Y-107.0
X61.0Y-109.0
X61.0Y-111.0
X62.0Y-112.0
X63.0Y-63.0
X64.0Y-112.0
X65.0Y-63.0
X66.0Y-112.0
X67.0Y-63.0
X68.0Y-112.0
X69.0Y-63.0
X70.0Y-112.0
X71.0Y-63.0
X71.175Y-100.075
X71.425Y-107.562
X71.6Y-67.4
X71.625Y-65.45
X71.675Y-77.8
X71.675Y-82.3
X71.85Y-71.725
X71.85Y-73.513
X71.85Y-75.3
X72.0Y-112.0
X72.675Y-82.3
X73.0Y-63.0
X73.425Y-76.6
X73.675Y-82.3
X74.0Y-112.0
X74.15Y-99.375
X74.312Y-76.6
X74.6Y-67.9
X74.6Y-70.825
X74.65Y-104.525
X74.675Y-82.3
X74.9Y-95.0
X74.925Y-99.35
X75.0Y-63.0
X75.2Y-76.6
X75.375Y-67.9
X75.375Y-70.825
X75.675Y-82.3
X76.0Y-112.0
X76.15Y-67.9
X76.15Y-70.825
X76.675Y-82.3
X76.875Y-76.6
X76.925Y-67.9
X76.925Y-70.825
X77.0Y-63.0
X77.1Y-92.4
X77.625Y-107.05
X77.763Y-76.6
X77.8Y-73.8
X77.8Y-74.6
X78.0Y-112.0
X78.2Y-103.325
X78.65Y-76.6
X78.725Y-98.475
X78.775Y-75.525
X78.85Y-73.075
X78.954Y-108.375
X79.0Y-63.0
X79.025Y-105.0
X79.754Y-108.2
X80.0Y-112.0
X80.1Y-102.25
X81.0Y-63.0
X81.025Y-64.2
X81.025Y-65.087
X81.025Y-65.975
X81.775Y-98.6
X82.0Y-112.0
X83.0Y-63.0
X83.875Y-64.225
X83.875Y-65.112
X83.875Y-66.0
X83.975Y-104.6
X84.0Y-112.0
X84.433Y-72.25
X85.0Y-63.0
X85.4Y-99.35
X85.475Y-73.15
X85.475Y-74.062
X85.475Y-74.975
X85.875Y-92.725
X85.9Y-64.35
X85.9Y-65.237
X85.9Y-66.125
X85.975Y-104.6
X86.0Y-112.0
X86.025Y-101.025
X87.0Y-63.0
X87.375Y-79.625
X87.6Y-94.25
X88.0Y-112.0
X88.675Y-64.35
X88.675Y-65.237
X88.675Y-66.125
X88.825Y-107.1
X89.0Y-63.0
X89.525Y-103.4
X89.825Y-96.7
X90.0Y-112.0
X90.179Y-108.475
X90.35Y-84.625
X90.575Y-105.05
X90.975Y-80.1
X90.979Y-108.3
X91.0Y-63.0
X91.025Y-81.575
X91.425Y-102.25
X91.675Y-84.6
X91.8Y-65.8
X91.8Y-67.9
X91.825Y-75.325
X91.85Y-74.5
X92.0Y-112.0
X93.0Y-63.0
X93.075Y-98.75
X94.0Y-112.0
X95.0Y-63.0
X95.225Y-104.6
X96.0Y-112.0
X96.875Y-99.275
X96.925Y-94.725
X96.939Y-104.525
X97.0Y-63.0
X98.0Y-112.0
X99.0Y-63.0
X99.0Y-93.275
X99.914Y-107.05
X100.0Y-112.0
X100.489Y-103.325
X101.0Y-63.0
X101.014Y-98.475
X101.243Y-108.375
X101.314Y-105.0
X102.0Y-112.0
X102.043Y-108.2
X102.389Y-102.25
X103.0Y-63.0
X104.0Y-112.0
X104.064Y-98.675
X105.0Y-63.0
X106.0Y-112.0
X106.264Y-104.6
X107.0Y-63.0
X107.65Y-99.375
X108.0Y-112.0
X108.032Y-92.857
X108.264Y-104.6
X108.314Y-101.025
X109.0Y-63.0
X109.725Y-94.2
X110.0Y-112.0
X111.0Y-63.0
X111.114Y-107.1
X111.814Y-103.4
X112.0Y-112.0
X112.1Y-96.8
X112.468Y-108.475
X112.864Y-105.05
X113.0Y-63.0
X113.268Y-108.3
X113.714Y-102.25
X114.0Y-112.0
X115.0Y-63.0
X115.364Y-98.725
X116.0Y-112.0
X117.0Y-63.0
X117.514Y-104.6
X118.0Y-112.0
X119.0Y-63.0
X119.1Y-94.775
X119.2Y-99.275
X119.229Y-104.525
X120.0Y-112.0
X121.0Y-63.0
X121.175Y-93.325
X122.0Y-112.0
X122.204Y-107.05
X122.779Y-103.325
X123.0Y-63.0
X123.304Y-98.475
X123.532Y-108.375
X123.604Y-105.0
X124.0Y-112.0
X124.332Y-108.2
X124.679Y-102.25
X125.0Y-63.0
X126.0Y-112.0
X126.354Y-98.725
X127.0Y-63.0
X128.0Y-112.0
X128.554Y-104.6
X129.0Y-63.0
X129.95Y-99.375
X130.0Y-112.0
X130.227Y-92.952
X130.554Y-104.6
X130.604Y-101.025
X131.0Y-63.0
X131.9Y-94.2
X132.0Y-112.0
X133.0Y-63.0
X133.404Y-107.1
X133.604Y-97.625
X134.0Y-112.0
X134.104Y-103.4
X134.757Y-108.475
X135.0Y-63.0
X135.154Y-105.05
X135.557Y-108.3
X136.0Y-112.0
X136.004Y-102.25
X137.0Y-63.0
X137.654Y-98.825
X138.0Y-112.0
X139.0Y-63.0
X139.804Y-104.6
X140.0Y-112.0
X141.0Y-63.0
X141.275Y-99.275
X141.3Y-94.775
X141.518Y-104.525
X142.0Y-112.0
X143.0Y-63.0
X143.35Y-93.35
X144.0Y-112.0
X144.493Y-107.05
X145.0Y-63.0
X145.068Y-103.325
X145.593Y-98.475
X145.821Y-108.375
X145.893Y-105.0
X146.0Y-112.0
X146.621Y-108.2
X146.968Y-102.25
X147.0Y-63.0
X148.0Y-112.0
X148.643Y-98.775
X149.0Y-63.0
X150.0Y-112.0
X150.843Y-104.6
X151.0Y-63.0
X152.0Y-112.0
X152.275Y-99.35
X152.368Y-93.1
X152.843Y-104.6
X152.893Y-101.025
X153.0Y-63.0
X154.0Y-112.0
X154.125Y-94.2
X155.0Y-63.0
X155.693Y-107.1
X155.893Y-97.625
X156.0Y-112.0
X156.393Y-103.4
X157.0Y-63.0
X157.046Y-108.475
X157.443Y-105.05
X157.846Y-108.3
X158.0Y-112.0
X158.293Y-102.25
X159.0Y-63.0
X159.943Y-98.8
X160.0Y-112.0
X161.0Y-63.0
X162.0Y-112.0
X162.093Y-104.6
X163.0Y-63.0
X163.5Y-94.775
X163.625Y-99.325
X163.807Y-104.525
X164.0Y-112.0
X165.0Y-63.0
X165.575Y-93.4
X166.0Y-112.0
X166.782Y-107.05
X167.0Y-63.0
X167.357Y-103.325
X167.882Y-98.475
X168.0Y-112.0
X168.111Y-108.375
X168.182Y-105.0
X168.911Y-108.2
X169.0Y-63.0
X169.257Y-102.25
X170.0Y-112.0
X170.932Y-98.775
X171.0Y-63.0
X172.0Y-112.0
X173.0Y-63.0
X173.132Y-104.6
X174.0Y-112.0
X174.45Y-99.375
X174.657Y-93.1
X175.0Y-63.0
X175.132Y-104.6
X175.182Y-101.025
X176.0Y-112.0
X176.375Y-94.2
X177.0Y-63.0
X177.982Y-107.1
X178.0Y-112.0
X178.182Y-97.625
X178.682Y-103.4
X179.0Y-63.0
X179.336Y-108.475
X179.732Y-105.05
X180.0Y-112.0
X180.136Y-108.3
X180.582Y-102.25
X181.0Y-63.0
X182.0Y-112.0
X182.232Y-98.875
X183.0Y-63.0
X184.0Y-112.0
X184.382Y-104.6
X185.0Y-63.0
X185.575Y-99.3
X185.675Y-94.75
X186.0Y-112.0
X186.096Y-104.525
X187.0Y-63.0
X187.75Y-93.3
X188.0Y-112.0
X189.0Y-63.0
X189.071Y-107.05
X189.646Y-103.325
X190.0Y-112.0
X190.171Y-98.475
X190.4Y-108.375
X190.471Y-105.0
X191.0Y-63.0
X191.2Y-108.2
X191.546Y-102.25
X192.0Y-112.0
X193.0Y-63.0
X193.221Y-98.8
X194.0Y-112.0
X195.0Y-63.0
X195.375Y-98.0
X195.421Y-104.6
X196.0Y-112.0
X196.946Y-93.1
X197.0Y-63.0
X197.421Y-104.6
X197.471Y-101.025
X198.0Y-112.0
X198.875Y-94.2
X199.0Y-63.0
X200.0Y-112.0
X200.271Y-107.1
X200.471Y-97.625
X200.971Y-103.4
X201.0Y-63.0
X201.625Y-108.475
X202.0Y-112.0
X202.021Y-105.05
X202.425Y-108.3
X202.871Y-102.25
X203.0Y-63.0
X204.0Y-112.0
X204.521Y-98.825
X205.0Y-63.0
X206.0Y-112.0
X206.671Y-104.6
X207.0Y-63.0
X207.85Y-94.775
X208.0Y-112.0
X208.1Y-99.225
X208.386Y-104.525
X209.0Y-63.0
X209.975Y-93.35
X210.0Y-112.0
X211.0Y-63.0
X211.361Y-107.05
X211.936Y-103.325
X212.0Y-112.0
X212.461Y-98.475
X212.689Y-108.375
X212.761Y-105.0
X213.0Y-63.0
X213.489Y-108.2
X213.836Y-102.25
X214.0Y-112.0
X215.0Y-63.0
X215.511Y-98.8
X216.0Y-112.0
X217.0Y-63.0
X217.6Y-97.875
X217.711Y-104.6
X218.0Y-112.0
X219.0Y-63.0
X219.368Y-92.968
X219.711Y-104.6
X219.761Y-101.025
X220.0Y-112.0
X221.0Y-63.0
X221.05Y-94.2
X222.0Y-112.0
X222.561Y-107.1
X222.761Y-97.625
X223.0Y-63.0
X223.261Y-103.4
X223.914Y-108.475
X224.0Y-112.0
X224.311Y-105.05
X224.714Y-108.3
X225.0Y-63.0
X225.161Y-102.25
X226.0Y-112.0
X226.811Y-98.825
X227.0Y-63.0
X228.0Y-112.0
X228.961Y-104.6
X229.0Y-63.0
X230.0Y-112.0
X230.05Y-94.875
X230.425Y-99.3
X230.675Y-104.525
X231.0Y-63.0
X232.0Y-112.0
X232.15Y-93.375
X233.0Y-63.0
X233.65Y-107.05
X234.0Y-112.0
X234.225Y-103.325
X234.75Y-98.475
X234.979Y-108.375
X235.0Y-63.0
X235.05Y-105.0
X235.779Y-108.2
X236.0Y-112.0
X236.125Y-102.25
X237.0Y-63.0
X237.8Y-98.8
X238.0Y-112.0
X239.0Y-63.0
X239.825Y-97.975
X240.0Y-104.6
X240.0Y-112.0
X241.0Y-63.0
X241.525Y-93.1
X242.0Y-104.6
X242.0Y-112.0
X242.05Y-101.025
X243.0Y-63.0
X243.225Y-94.2
X244.0Y-112.0
X244.85Y-107.1
X245.0Y-63.0
X245.05Y-97.625
X245.55Y-103.4
X246.0Y-112.0
X246.204Y-108.475
X246.6Y-105.05
X247.0Y-63.0
X247.004Y-108.3
X247.45Y-102.25
X248.0Y-112.0
X249.0Y-63.0
X249.1Y-98.85
X249.75Y-97.5
X250.0Y-112.0
X251.0Y-63.0
X251.25Y-104.6
X252.0Y-64.0
X252.0Y-66.0
X252.0Y-68.0
X252.0Y-70.0
X252.0Y-72.0
X252.0Y-74.0
X252.0Y-76.0
X252.0Y-78.0
X252.0Y-80.0
X252.0Y-82.0
X252.0Y-84.0
X252.0Y-86.0
X252.0Y-88.0
X252.0Y-90.0
X252.0Y-92.0
X252.0Y-94.0
X252.0Y-96.0
X252.0Y-98.0
X252.0Y-100.0
X252.0Y-106.0
X252.0Y-108.0
X252.0Y-110.0
X252.0Y-112.0
T2
X71.075Y-87.325
X71.1Y-90.2
X74.75Y-101.05
X74.95Y-87.325
X74.95Y-90.175
X78.725Y-87.275
X78.725Y-90.225
X97.039Y-101.05
X119.329Y-101.05
X141.618Y-101.05
X163.907Y-101.05
X186.196Y-101.05
X208.486Y-101.05
X230.775Y-101.05
T3
X99.75Y-73.75
X99.75Y-76.95
X99.75Y-80.15
X99.75Y-83.35
X106.761Y-73.75
X106.761Y-76.95
X106.761Y-80.15
X106.761Y-83.35
X113.771Y-73.75
X113.771Y-76.95
X113.771Y-80.15
X113.771Y-83.35
X120.782Y-73.75
X120.782Y-76.95
X120.782Y-80.15
X120.782Y-83.35
X127.792Y-73.75
X127.792Y-76.95
X127.792Y-80.15
X127.792Y-83.35
X134.803Y-73.75
X134.803Y-76.95
X134.803Y-80.15
X134.803Y-83.35
X141.813Y-73.75
X141.813Y-76.95
X141.813Y-80.15
X141.813Y-83.35
X148.824Y-73.75
X148.824Y-76.95
X148.824Y-80.15
X148.824Y-83.35
X155.834Y-73.75
X155.834Y-76.95
X155.834Y-80.15
X155.834Y-83.35
X162.845Y-73.75
X162.845Y-76.95
X162.845Y-80.15
X162.845Y-83.35
X169.855Y-73.75
X169.855Y-76.95
X169.855Y-80.15
X169.855Y-83.35
X176.866Y-73.75
X176.866Y-76.95
X176.866Y-80.15
X176.866Y-83.35
X183.876Y-73.75
X183.876Y-76.95
X183.876Y-80.15
X183.876Y-83.35
X190.887Y-73.75
X190.887Y-76.95
X190.887Y-80.15
X190.887Y-83.35
X197.897Y-73.75
X197.897Y-76.95
X197.897Y-80.15
X197.897Y-83.35
X204.908Y-73.75
X204.908Y-76.95
X204.908Y-80.15
X204.908Y-83.35
X211.918Y-73.75
X211.918Y-76.95
X211.918Y-80.15
X211.918Y-83.35
X218.929Y-73.75
X218.929Y-76.95
X218.929Y-80.15
X218.929Y-83.35
X225.939Y-73.75
X225.939Y-76.95
X225.939Y-80.15
X225.939Y-83.35
X232.95Y-73.75
X232.95Y-76.95
X232.95Y-80.15
X232.95Y-83.35
T4
X63.725Y-108.35
X67.225Y-108.35
T5
X74.375Y-108.425
X85.545Y-108.425
X96.715Y-108.425
X99.75Y-65.95
X106.758Y-65.95
X107.885Y-108.425
X113.766Y-65.95
X119.055Y-108.425
X120.774Y-65.95
X127.782Y-65.95
X130.225Y-108.425
X134.789Y-65.95
X141.395Y-108.425
X141.797Y-65.95
X148.805Y-65.95
X152.565Y-108.425
X155.813Y-65.95
X162.821Y-65.95
X163.735Y-108.425
X169.829Y-65.95
X174.905Y-108.425
X176.837Y-65.95
X183.845Y-65.95
X186.075Y-108.425
X190.853Y-65.95
X197.245Y-108.425
X197.861Y-65.95
X204.868Y-65.95
X208.415Y-108.425
X211.876Y-65.95
X218.884Y-65.95
X219.585Y-108.425
X225.892Y-65.95
X230.755Y-108.425
X232.9Y-65.95
X241.925Y-108.425
M30
