%TF.GenerationSoftware,KiCad,Pcbnew,9.0.2*%
%TF.CreationDate,2025-05-23T14:58:00+03:00*%
%TF.ProjectId,control_unit_tester,636f6e74-726f-46c5-9f75-6e69745f7465,rev?*%
%TF.SameCoordinates,Original*%
%TF.FileFunction,Copper,L1,Top*%
%TF.FilePolarity,Positive*%
%FSLAX46Y46*%
G04 Gerber Fmt 4.6, Leading zero omitted, Abs format (unit mm)*
G04 Created by KiCad (PCBNEW 9.0.2) date 2025-05-23 14:58:00*
%MOMM*%
%LPD*%
G01*
G04 APERTURE LIST*
G04 Aperture macros list*
%AMRoundRect*
0 Rectangle with rounded corners*
0 $1 Rounding radius*
0 $2 $3 $4 $5 $6 $7 $8 $9 X,Y pos of 4 corners*
0 Add a 4 corners polygon primitive as box body*
4,1,4,$2,$3,$4,$5,$6,$7,$8,$9,$2,$3,0*
0 Add four circle primitives for the rounded corners*
1,1,$1+$1,$2,$3*
1,1,$1+$1,$4,$5*
1,1,$1+$1,$6,$7*
1,1,$1+$1,$8,$9*
0 Add four rect primitives between the rounded corners*
20,1,$1+$1,$2,$3,$4,$5,0*
20,1,$1+$1,$4,$5,$6,$7,0*
20,1,$1+$1,$6,$7,$8,$9,0*
20,1,$1+$1,$8,$9,$2,$3,0*%
G04 Aperture macros list end*
%ADD10C,0.300000*%
%TA.AperFunction,NonConductor*%
%ADD11C,0.300000*%
%TD*%
%TA.AperFunction,SMDPad,CuDef*%
%ADD12RoundRect,0.225000X0.225000X0.250000X-0.225000X0.250000X-0.225000X-0.250000X0.225000X-0.250000X0*%
%TD*%
%TA.AperFunction,ComponentPad*%
%ADD13C,3.000000*%
%TD*%
%TA.AperFunction,SMDPad,CuDef*%
%ADD14R,4.000000X1.500000*%
%TD*%
%TA.AperFunction,SMDPad,CuDef*%
%ADD15RoundRect,0.225000X-0.250000X0.225000X-0.250000X-0.225000X0.250000X-0.225000X0.250000X0.225000X0*%
%TD*%
%TA.AperFunction,SMDPad,CuDef*%
%ADD16RoundRect,0.200000X0.200000X0.275000X-0.200000X0.275000X-0.200000X-0.275000X0.200000X-0.275000X0*%
%TD*%
%TA.AperFunction,SMDPad,CuDef*%
%ADD17RoundRect,0.225000X0.225000X0.375000X-0.225000X0.375000X-0.225000X-0.375000X0.225000X-0.375000X0*%
%TD*%
%TA.AperFunction,SMDPad,CuDef*%
%ADD18RoundRect,0.150000X-0.825000X-0.150000X0.825000X-0.150000X0.825000X0.150000X-0.825000X0.150000X0*%
%TD*%
%TA.AperFunction,SMDPad,CuDef*%
%ADD19R,0.400000X0.900000*%
%TD*%
%TA.AperFunction,SMDPad,CuDef*%
%ADD20RoundRect,0.250000X-0.262500X-0.450000X0.262500X-0.450000X0.262500X0.450000X-0.262500X0.450000X0*%
%TD*%
%TA.AperFunction,SMDPad,CuDef*%
%ADD21RoundRect,0.150000X0.150000X-0.850000X0.150000X0.850000X-0.150000X0.850000X-0.150000X-0.850000X0*%
%TD*%
%TA.AperFunction,SMDPad,CuDef*%
%ADD22C,1.500000*%
%TD*%
%TA.AperFunction,ComponentPad*%
%ADD23RoundRect,0.250001X-0.949999X-0.949999X0.949999X-0.949999X0.949999X0.949999X-0.949999X0.949999X0*%
%TD*%
%TA.AperFunction,ComponentPad*%
%ADD24C,2.400000*%
%TD*%
%TA.AperFunction,SMDPad,CuDef*%
%ADD25RoundRect,0.200000X-0.275000X0.200000X-0.275000X-0.200000X0.275000X-0.200000X0.275000X0.200000X0*%
%TD*%
%TA.AperFunction,SMDPad,CuDef*%
%ADD26RoundRect,0.150000X0.150000X-0.512500X0.150000X0.512500X-0.150000X0.512500X-0.150000X-0.512500X0*%
%TD*%
%TA.AperFunction,SMDPad,CuDef*%
%ADD27RoundRect,0.250000X1.100000X-0.325000X1.100000X0.325000X-1.100000X0.325000X-1.100000X-0.325000X0*%
%TD*%
%TA.AperFunction,SMDPad,CuDef*%
%ADD28RoundRect,0.225000X0.250000X-0.225000X0.250000X0.225000X-0.250000X0.225000X-0.250000X-0.225000X0*%
%TD*%
%TA.AperFunction,SMDPad,CuDef*%
%ADD29RoundRect,0.200000X0.275000X-0.200000X0.275000X0.200000X-0.275000X0.200000X-0.275000X-0.200000X0*%
%TD*%
%TA.AperFunction,SMDPad,CuDef*%
%ADD30RoundRect,0.250000X0.450000X-0.262500X0.450000X0.262500X-0.450000X0.262500X-0.450000X-0.262500X0*%
%TD*%
%TA.AperFunction,SMDPad,CuDef*%
%ADD31RoundRect,0.250000X0.650000X-1.000000X0.650000X1.000000X-0.650000X1.000000X-0.650000X-1.000000X0*%
%TD*%
%TA.AperFunction,SMDPad,CuDef*%
%ADD32RoundRect,0.250000X0.325000X1.100000X-0.325000X1.100000X-0.325000X-1.100000X0.325000X-1.100000X0*%
%TD*%
%TA.AperFunction,SMDPad,CuDef*%
%ADD33RoundRect,0.250000X-0.950000X-0.500000X0.950000X-0.500000X0.950000X0.500000X-0.950000X0.500000X0*%
%TD*%
%TA.AperFunction,SMDPad,CuDef*%
%ADD34RoundRect,0.250000X-0.275000X-0.500000X0.275000X-0.500000X0.275000X0.500000X-0.275000X0.500000X0*%
%TD*%
%TA.AperFunction,SMDPad,CuDef*%
%ADD35RoundRect,0.250000X0.550000X-1.250000X0.550000X1.250000X-0.550000X1.250000X-0.550000X-1.250000X0*%
%TD*%
%TA.AperFunction,SMDPad,CuDef*%
%ADD36RoundRect,0.243750X0.456250X-0.243750X0.456250X0.243750X-0.456250X0.243750X-0.456250X-0.243750X0*%
%TD*%
%TA.AperFunction,ComponentPad*%
%ADD37RoundRect,0.250000X-0.600000X0.600000X-0.600000X-0.600000X0.600000X-0.600000X0.600000X0.600000X0*%
%TD*%
%TA.AperFunction,ViaPad*%
%ADD38C,0.600000*%
%TD*%
%TA.AperFunction,ViaPad*%
%ADD39C,0.800000*%
%TD*%
%TA.AperFunction,Conductor*%
%ADD40C,0.200000*%
%TD*%
%TA.AperFunction,Conductor*%
%ADD41C,0.300000*%
%TD*%
%TA.AperFunction,Conductor*%
%ADD42C,0.500000*%
%TD*%
%TA.AperFunction,Conductor*%
%ADD43C,1.000000*%
%TD*%
%TA.AperFunction,Conductor*%
%ADD44C,0.600000*%
%TD*%
%TA.AperFunction,Conductor*%
%ADD45C,1.500000*%
%TD*%
G04 APERTURE END LIST*
D10*
D11*
X194191415Y-90774161D02*
X194096177Y-90869400D01*
X194096177Y-90869400D02*
X193810463Y-90964638D01*
X193810463Y-90964638D02*
X193619987Y-90964638D01*
X193619987Y-90964638D02*
X193334272Y-90869400D01*
X193334272Y-90869400D02*
X193143796Y-90678923D01*
X193143796Y-90678923D02*
X193048558Y-90488447D01*
X193048558Y-90488447D02*
X192953320Y-90107495D01*
X192953320Y-90107495D02*
X192953320Y-89821780D01*
X192953320Y-89821780D02*
X193048558Y-89440828D01*
X193048558Y-89440828D02*
X193143796Y-89250352D01*
X193143796Y-89250352D02*
X193334272Y-89059876D01*
X193334272Y-89059876D02*
X193619987Y-88964638D01*
X193619987Y-88964638D02*
X193810463Y-88964638D01*
X193810463Y-88964638D02*
X194096177Y-89059876D01*
X194096177Y-89059876D02*
X194191415Y-89155114D01*
X195429510Y-88964638D02*
X195810463Y-88964638D01*
X195810463Y-88964638D02*
X196000939Y-89059876D01*
X196000939Y-89059876D02*
X196191415Y-89250352D01*
X196191415Y-89250352D02*
X196286653Y-89631304D01*
X196286653Y-89631304D02*
X196286653Y-90297971D01*
X196286653Y-90297971D02*
X196191415Y-90678923D01*
X196191415Y-90678923D02*
X196000939Y-90869400D01*
X196000939Y-90869400D02*
X195810463Y-90964638D01*
X195810463Y-90964638D02*
X195429510Y-90964638D01*
X195429510Y-90964638D02*
X195239034Y-90869400D01*
X195239034Y-90869400D02*
X195048558Y-90678923D01*
X195048558Y-90678923D02*
X194953320Y-90297971D01*
X194953320Y-90297971D02*
X194953320Y-89631304D01*
X194953320Y-89631304D02*
X195048558Y-89250352D01*
X195048558Y-89250352D02*
X195239034Y-89059876D01*
X195239034Y-89059876D02*
X195429510Y-88964638D01*
X197143796Y-90964638D02*
X197143796Y-88964638D01*
X197143796Y-88964638D02*
X198286653Y-90964638D01*
X198286653Y-90964638D02*
X198286653Y-88964638D01*
X198953320Y-88964638D02*
X200096177Y-88964638D01*
X199524748Y-90964638D02*
X199524748Y-88964638D01*
X201905701Y-90964638D02*
X201239034Y-90012257D01*
X200762844Y-90964638D02*
X200762844Y-88964638D01*
X200762844Y-88964638D02*
X201524749Y-88964638D01*
X201524749Y-88964638D02*
X201715225Y-89059876D01*
X201715225Y-89059876D02*
X201810463Y-89155114D01*
X201810463Y-89155114D02*
X201905701Y-89345590D01*
X201905701Y-89345590D02*
X201905701Y-89631304D01*
X201905701Y-89631304D02*
X201810463Y-89821780D01*
X201810463Y-89821780D02*
X201715225Y-89917019D01*
X201715225Y-89917019D02*
X201524749Y-90012257D01*
X201524749Y-90012257D02*
X200762844Y-90012257D01*
X203143796Y-88964638D02*
X203524749Y-88964638D01*
X203524749Y-88964638D02*
X203715225Y-89059876D01*
X203715225Y-89059876D02*
X203905701Y-89250352D01*
X203905701Y-89250352D02*
X204000939Y-89631304D01*
X204000939Y-89631304D02*
X204000939Y-90297971D01*
X204000939Y-90297971D02*
X203905701Y-90678923D01*
X203905701Y-90678923D02*
X203715225Y-90869400D01*
X203715225Y-90869400D02*
X203524749Y-90964638D01*
X203524749Y-90964638D02*
X203143796Y-90964638D01*
X203143796Y-90964638D02*
X202953320Y-90869400D01*
X202953320Y-90869400D02*
X202762844Y-90678923D01*
X202762844Y-90678923D02*
X202667606Y-90297971D01*
X202667606Y-90297971D02*
X202667606Y-89631304D01*
X202667606Y-89631304D02*
X202762844Y-89250352D01*
X202762844Y-89250352D02*
X202953320Y-89059876D01*
X202953320Y-89059876D02*
X203143796Y-88964638D01*
X205810463Y-90964638D02*
X204858082Y-90964638D01*
X204858082Y-90964638D02*
X204858082Y-88964638D01*
X208000940Y-88964638D02*
X208000940Y-90583685D01*
X208000940Y-90583685D02*
X208096178Y-90774161D01*
X208096178Y-90774161D02*
X208191416Y-90869400D01*
X208191416Y-90869400D02*
X208381892Y-90964638D01*
X208381892Y-90964638D02*
X208762845Y-90964638D01*
X208762845Y-90964638D02*
X208953321Y-90869400D01*
X208953321Y-90869400D02*
X209048559Y-90774161D01*
X209048559Y-90774161D02*
X209143797Y-90583685D01*
X209143797Y-90583685D02*
X209143797Y-88964638D01*
X210096178Y-90964638D02*
X210096178Y-88964638D01*
X210096178Y-88964638D02*
X211239035Y-90964638D01*
X211239035Y-90964638D02*
X211239035Y-88964638D01*
X212191416Y-90964638D02*
X212191416Y-88964638D01*
X212858083Y-88964638D02*
X214000940Y-88964638D01*
X213429511Y-90964638D02*
X213429511Y-88964638D01*
X215905703Y-88964638D02*
X217048560Y-88964638D01*
X216477131Y-90964638D02*
X216477131Y-88964638D01*
X217715227Y-89917019D02*
X218381894Y-89917019D01*
X218667608Y-90964638D02*
X217715227Y-90964638D01*
X217715227Y-90964638D02*
X217715227Y-88964638D01*
X217715227Y-88964638D02*
X218667608Y-88964638D01*
X219429513Y-90869400D02*
X219715227Y-90964638D01*
X219715227Y-90964638D02*
X220191418Y-90964638D01*
X220191418Y-90964638D02*
X220381894Y-90869400D01*
X220381894Y-90869400D02*
X220477132Y-90774161D01*
X220477132Y-90774161D02*
X220572370Y-90583685D01*
X220572370Y-90583685D02*
X220572370Y-90393209D01*
X220572370Y-90393209D02*
X220477132Y-90202733D01*
X220477132Y-90202733D02*
X220381894Y-90107495D01*
X220381894Y-90107495D02*
X220191418Y-90012257D01*
X220191418Y-90012257D02*
X219810465Y-89917019D01*
X219810465Y-89917019D02*
X219619989Y-89821780D01*
X219619989Y-89821780D02*
X219524751Y-89726542D01*
X219524751Y-89726542D02*
X219429513Y-89536066D01*
X219429513Y-89536066D02*
X219429513Y-89345590D01*
X219429513Y-89345590D02*
X219524751Y-89155114D01*
X219524751Y-89155114D02*
X219619989Y-89059876D01*
X219619989Y-89059876D02*
X219810465Y-88964638D01*
X219810465Y-88964638D02*
X220286656Y-88964638D01*
X220286656Y-88964638D02*
X220572370Y-89059876D01*
X221143799Y-88964638D02*
X222286656Y-88964638D01*
X221715227Y-90964638D02*
X221715227Y-88964638D01*
X222953323Y-89917019D02*
X223619990Y-89917019D01*
X223905704Y-90964638D02*
X222953323Y-90964638D01*
X222953323Y-90964638D02*
X222953323Y-88964638D01*
X222953323Y-88964638D02*
X223905704Y-88964638D01*
X225905704Y-90964638D02*
X225239037Y-90012257D01*
X224762847Y-90964638D02*
X224762847Y-88964638D01*
X224762847Y-88964638D02*
X225524752Y-88964638D01*
X225524752Y-88964638D02*
X225715228Y-89059876D01*
X225715228Y-89059876D02*
X225810466Y-89155114D01*
X225810466Y-89155114D02*
X225905704Y-89345590D01*
X225905704Y-89345590D02*
X225905704Y-89631304D01*
X225905704Y-89631304D02*
X225810466Y-89821780D01*
X225810466Y-89821780D02*
X225715228Y-89917019D01*
X225715228Y-89917019D02*
X225524752Y-90012257D01*
X225524752Y-90012257D02*
X224762847Y-90012257D01*
X229429514Y-90964638D02*
X228762847Y-90012257D01*
X228286657Y-90964638D02*
X228286657Y-88964638D01*
X228286657Y-88964638D02*
X229048562Y-88964638D01*
X229048562Y-88964638D02*
X229239038Y-89059876D01*
X229239038Y-89059876D02*
X229334276Y-89155114D01*
X229334276Y-89155114D02*
X229429514Y-89345590D01*
X229429514Y-89345590D02*
X229429514Y-89631304D01*
X229429514Y-89631304D02*
X229334276Y-89821780D01*
X229334276Y-89821780D02*
X229239038Y-89917019D01*
X229239038Y-89917019D02*
X229048562Y-90012257D01*
X229048562Y-90012257D02*
X228286657Y-90012257D01*
X231334276Y-90964638D02*
X230191419Y-90964638D01*
X230762847Y-90964638D02*
X230762847Y-88964638D01*
X230762847Y-88964638D02*
X230572371Y-89250352D01*
X230572371Y-89250352D02*
X230381895Y-89440828D01*
X230381895Y-89440828D02*
X230191419Y-89536066D01*
D10*
D11*
X193715225Y-86942019D02*
X194000939Y-87037257D01*
X194000939Y-87037257D02*
X194096177Y-87132495D01*
X194096177Y-87132495D02*
X194191415Y-87322971D01*
X194191415Y-87322971D02*
X194191415Y-87608685D01*
X194191415Y-87608685D02*
X194096177Y-87799161D01*
X194096177Y-87799161D02*
X194000939Y-87894400D01*
X194000939Y-87894400D02*
X193810463Y-87989638D01*
X193810463Y-87989638D02*
X193048558Y-87989638D01*
X193048558Y-87989638D02*
X193048558Y-85989638D01*
X193048558Y-85989638D02*
X193715225Y-85989638D01*
X193715225Y-85989638D02*
X193905701Y-86084876D01*
X193905701Y-86084876D02*
X194000939Y-86180114D01*
X194000939Y-86180114D02*
X194096177Y-86370590D01*
X194096177Y-86370590D02*
X194096177Y-86561066D01*
X194096177Y-86561066D02*
X194000939Y-86751542D01*
X194000939Y-86751542D02*
X193905701Y-86846780D01*
X193905701Y-86846780D02*
X193715225Y-86942019D01*
X193715225Y-86942019D02*
X193048558Y-86942019D01*
X195048558Y-87989638D02*
X195048558Y-85989638D01*
X196191415Y-87989638D02*
X195334272Y-86846780D01*
X196191415Y-85989638D02*
X195048558Y-87132495D01*
X198286654Y-85989638D02*
X199429511Y-85989638D01*
X198858082Y-87989638D02*
X198858082Y-85989638D01*
X200096178Y-86942019D02*
X200762845Y-86942019D01*
X201048559Y-87989638D02*
X200096178Y-87989638D01*
X200096178Y-87989638D02*
X200096178Y-85989638D01*
X200096178Y-85989638D02*
X201048559Y-85989638D01*
X202858083Y-87989638D02*
X201905702Y-87989638D01*
X201905702Y-87989638D02*
X201905702Y-85989638D01*
X203524750Y-86942019D02*
X204191417Y-86942019D01*
X204477131Y-87989638D02*
X203524750Y-87989638D01*
X203524750Y-87989638D02*
X203524750Y-85989638D01*
X203524750Y-85989638D02*
X204477131Y-85989638D01*
X205334274Y-87989638D02*
X205334274Y-85989638D01*
X205334274Y-85989638D02*
X206000941Y-87418209D01*
X206000941Y-87418209D02*
X206667607Y-85989638D01*
X206667607Y-85989638D02*
X206667607Y-87989638D01*
X207524750Y-87418209D02*
X208477131Y-87418209D01*
X207334274Y-87989638D02*
X208000940Y-85989638D01*
X208000940Y-85989638D02*
X208667607Y-87989638D01*
X209048560Y-85989638D02*
X210191417Y-85989638D01*
X209619988Y-87989638D02*
X209619988Y-85989638D01*
X210858084Y-87989638D02*
X210858084Y-85989638D01*
X212953322Y-87799161D02*
X212858084Y-87894400D01*
X212858084Y-87894400D02*
X212572370Y-87989638D01*
X212572370Y-87989638D02*
X212381894Y-87989638D01*
X212381894Y-87989638D02*
X212096179Y-87894400D01*
X212096179Y-87894400D02*
X211905703Y-87703923D01*
X211905703Y-87703923D02*
X211810465Y-87513447D01*
X211810465Y-87513447D02*
X211715227Y-87132495D01*
X211715227Y-87132495D02*
X211715227Y-86846780D01*
X211715227Y-86846780D02*
X211810465Y-86465828D01*
X211810465Y-86465828D02*
X211905703Y-86275352D01*
X211905703Y-86275352D02*
X212096179Y-86084876D01*
X212096179Y-86084876D02*
X212381894Y-85989638D01*
X212381894Y-85989638D02*
X212572370Y-85989638D01*
X212572370Y-85989638D02*
X212858084Y-86084876D01*
X212858084Y-86084876D02*
X212953322Y-86180114D01*
X213715227Y-87894400D02*
X214000941Y-87989638D01*
X214000941Y-87989638D02*
X214477132Y-87989638D01*
X214477132Y-87989638D02*
X214667608Y-87894400D01*
X214667608Y-87894400D02*
X214762846Y-87799161D01*
X214762846Y-87799161D02*
X214858084Y-87608685D01*
X214858084Y-87608685D02*
X214858084Y-87418209D01*
X214858084Y-87418209D02*
X214762846Y-87227733D01*
X214762846Y-87227733D02*
X214667608Y-87132495D01*
X214667608Y-87132495D02*
X214477132Y-87037257D01*
X214477132Y-87037257D02*
X214096179Y-86942019D01*
X214096179Y-86942019D02*
X213905703Y-86846780D01*
X213905703Y-86846780D02*
X213810465Y-86751542D01*
X213810465Y-86751542D02*
X213715227Y-86561066D01*
X213715227Y-86561066D02*
X213715227Y-86370590D01*
X213715227Y-86370590D02*
X213810465Y-86180114D01*
X213810465Y-86180114D02*
X213905703Y-86084876D01*
X213905703Y-86084876D02*
X214096179Y-85989638D01*
X214096179Y-85989638D02*
X214572370Y-85989638D01*
X214572370Y-85989638D02*
X214858084Y-86084876D01*
D12*
%TO.P,C68,1*%
%TO.N,Net-(D33-K)*%
X115289286Y-105050000D03*
%TO.P,C68,2*%
%TO.N,GND*%
X113739286Y-105050000D03*
%TD*%
D13*
%TO.P,J7,1,Pin_1*%
%TO.N,/OUT6*%
X134789474Y-65950000D03*
%TD*%
D14*
%TO.P,L2,1*%
%TO.N,/power supply/SW*%
X82408333Y-76975000D03*
%TO.P,L2,2*%
%TO.N,+5V*%
X82408333Y-80575000D03*
%TD*%
D15*
%TO.P,C29,1*%
%TO.N,/VREF_LOW*%
X228960714Y-102125000D03*
%TO.P,C29,2*%
%TO.N,GND*%
X228960714Y-103675000D03*
%TD*%
D13*
%TO.P,J2,1,Pin_1*%
%TO.N,/OUT1*%
X99750000Y-65950000D03*
%TD*%
D16*
%TO.P,R6,1*%
%TO.N,Net-(U17-~{SHDN})*%
X89008333Y-76600000D03*
%TO.P,R6,2*%
%TO.N,/power supply/+VIN_PROTECTED*%
X87358333Y-76600000D03*
%TD*%
D17*
%TO.P,D21,1,K*%
%TO.N,Net-(D21-K)*%
X182182143Y-107125000D03*
%TO.P,D21,2,A*%
%TO.N,GND*%
X178882143Y-107125000D03*
%TD*%
D12*
%TO.P,C16,1*%
%TO.N,+5V*%
X247400000Y-97625000D03*
%TO.P,C16,2*%
%TO.N,GND*%
X245850000Y-97625000D03*
%TD*%
D13*
%TO.P,J22,1,Pin_1*%
%TO.N,/IN1*%
X74375000Y-108425000D03*
%TD*%
D12*
%TO.P,C8,1*%
%TO.N,+5V*%
X180532143Y-97625000D03*
%TO.P,C8,2*%
%TO.N,GND*%
X178982143Y-97625000D03*
%TD*%
D15*
%TO.P,C45,1*%
%TO.N,/VREF_HIGH*%
X208385714Y-102125000D03*
%TO.P,C45,2*%
%TO.N,GND*%
X208385714Y-103675000D03*
%TD*%
D12*
%TO.P,C14,1*%
%TO.N,+5V*%
X225110714Y-97625000D03*
%TO.P,C14,2*%
%TO.N,GND*%
X223560714Y-97625000D03*
%TD*%
D13*
%TO.P,J15,1,Pin_1*%
%TO.N,/OUT14*%
X190852632Y-65950000D03*
%TD*%
%TO.P,J25,1,Pin_1*%
%TO.N,/IN12*%
X107885000Y-108425000D03*
%TD*%
D18*
%TO.P,U10,1*%
%TO.N,Net-(RN15C-R3.1)*%
X199571429Y-99585000D03*
%TO.P,U10,2,-*%
%TO.N,Net-(D27-K)*%
X199571429Y-100855000D03*
%TO.P,U10,3,+*%
%TO.N,/VREF_HIGH*%
X199571429Y-102125000D03*
%TO.P,U10,4,V-*%
%TO.N,GND*%
X199571429Y-103395000D03*
%TO.P,U10,5,+*%
%TO.N,Net-(D27-K)*%
X204521429Y-103395000D03*
%TO.P,U10,6,-*%
%TO.N,/VREF_LOW*%
X204521429Y-102125000D03*
%TO.P,U10,7*%
%TO.N,Net-(RN15D-R4.1)*%
X204521429Y-100855000D03*
%TO.P,U10,8,V+*%
%TO.N,+5V*%
X204521429Y-99585000D03*
%TD*%
D19*
%TO.P,RN6,1,R1.1*%
%TO.N,Net-(RN6A-R1.1)*%
X128478571Y-95900000D03*
%TO.P,RN6,2,R2.1*%
%TO.N,Net-(RN6B-R2.1)*%
X129278571Y-95900000D03*
%TO.P,RN6,3,R3.1*%
%TO.N,Net-(RN6C-R3.1)*%
X130078571Y-95900000D03*
%TO.P,RN6,4,R4.1*%
%TO.N,Net-(RN6D-R4.1)*%
X130878571Y-95900000D03*
%TO.P,RN6,5,R4.2*%
%TO.N,Net-(D13-K)*%
X130878571Y-94200000D03*
%TO.P,RN6,6,R3.2*%
%TO.N,Net-(D12-K)*%
X130078571Y-94200000D03*
%TO.P,RN6,7,R2.2*%
%TO.N,Net-(D11-K)*%
X129278571Y-94200000D03*
%TO.P,RN6,8,R1.2*%
%TO.N,Net-(D10-K)*%
X128478571Y-94200000D03*
%TD*%
D15*
%TO.P,C40,1*%
%TO.N,/VREF_HIGH*%
X119228571Y-102125000D03*
%TO.P,C40,2*%
%TO.N,GND*%
X119228571Y-103675000D03*
%TD*%
D12*
%TO.P,C69,1*%
%TO.N,Net-(D39-K)*%
X226735714Y-105050000D03*
%TO.P,C69,2*%
%TO.N,GND*%
X225185714Y-105050000D03*
%TD*%
D18*
%TO.P,U6,1*%
%TO.N,Net-(RN9C-R3.1)*%
X154992857Y-99585000D03*
%TO.P,U6,2,-*%
%TO.N,Net-(D15-K)*%
X154992857Y-100855000D03*
%TO.P,U6,3,+*%
%TO.N,/VREF_HIGH*%
X154992857Y-102125000D03*
%TO.P,U6,4,V-*%
%TO.N,GND*%
X154992857Y-103395000D03*
%TO.P,U6,5,+*%
%TO.N,Net-(D15-K)*%
X159942857Y-103395000D03*
%TO.P,U6,6,-*%
%TO.N,/VREF_LOW*%
X159942857Y-102125000D03*
%TO.P,U6,7*%
%TO.N,Net-(RN9D-R4.1)*%
X159942857Y-100855000D03*
%TO.P,U6,8,V+*%
%TO.N,+5V*%
X159942857Y-99585000D03*
%TD*%
D15*
%TO.P,C50,1*%
%TO.N,/VREF_LOW*%
X173132143Y-102125000D03*
%TO.P,C50,2*%
%TO.N,GND*%
X173132143Y-103675000D03*
%TD*%
%TO.P,C30,1*%
%TO.N,/VREF_LOW*%
X251250000Y-102125000D03*
%TO.P,C30,2*%
%TO.N,GND*%
X251250000Y-103675000D03*
%TD*%
D12*
%TO.P,C2,1*%
%TO.N,+5V*%
X91375000Y-97625000D03*
%TO.P,C2,2*%
%TO.N,GND*%
X89825000Y-97625000D03*
%TD*%
D15*
%TO.P,C36,1*%
%TO.N,/VREF_HIGH*%
X108289286Y-102125000D03*
%TO.P,C36,2*%
%TO.N,GND*%
X108289286Y-103675000D03*
%TD*%
D17*
%TO.P,D38,1,K*%
%TO.N,Net-(D38-K)*%
X215535714Y-107050000D03*
%TO.P,D38,2,A*%
%TO.N,GND*%
X212235714Y-107050000D03*
%TD*%
D13*
%TO.P,J13,1,Pin_1*%
%TO.N,/OUT12*%
X176836842Y-65950000D03*
%TD*%
D17*
%TO.P,D32,1,K*%
%TO.N,Net-(D32-K)*%
X104089286Y-107050000D03*
%TO.P,D32,2,A*%
%TO.N,GND*%
X100789286Y-107050000D03*
%TD*%
D20*
%TO.P,R3,1*%
%TO.N,+5V*%
X72187500Y-87350000D03*
%TO.P,R3,2*%
%TO.N,/VREF_LOW*%
X74012500Y-87350000D03*
%TD*%
D15*
%TO.P,C37,1*%
%TO.N,/VREF_HIGH*%
X219735714Y-102125000D03*
%TO.P,C37,2*%
%TO.N,GND*%
X219735714Y-103675000D03*
%TD*%
D17*
%TO.P,D20,1,K*%
%TO.N,Net-(D20-K)*%
X170957143Y-107050000D03*
%TO.P,D20,2,A*%
%TO.N,GND*%
X167657143Y-107050000D03*
%TD*%
D15*
%TO.P,C39,1*%
%TO.N,/VREF_HIGH*%
X74650000Y-102125000D03*
%TO.P,C39,2*%
%TO.N,GND*%
X74650000Y-103675000D03*
%TD*%
D19*
%TO.P,RN8,1,R1.1*%
%TO.N,unconnected-(RN8A-R1.1-Pad1)*%
X159442857Y-109300000D03*
%TO.P,RN8,2,R2.1*%
%TO.N,Net-(D15-K)*%
X158642857Y-109300000D03*
%TO.P,RN8,3,R3.1*%
%TO.N,GND*%
X157842857Y-109300000D03*
%TO.P,RN8,4,R4.1*%
%TO.N,+5V*%
X157042857Y-109300000D03*
%TO.P,RN8,5,R4.2*%
%TO.N,/IN6*%
X157042857Y-111000000D03*
%TO.P,RN8,6,R3.2*%
X157842857Y-111000000D03*
%TO.P,RN8,7,R2.2*%
X158642857Y-111000000D03*
%TO.P,RN8,8,R1.2*%
%TO.N,unconnected-(RN8A-R1.2-Pad8)*%
X159442857Y-111000000D03*
%TD*%
D15*
%TO.P,C46,1*%
%TO.N,/VREF_HIGH*%
X230675000Y-102125000D03*
%TO.P,C46,2*%
%TO.N,GND*%
X230675000Y-103675000D03*
%TD*%
D17*
%TO.P,D9,1,K*%
%TO.N,Net-(D9-K)*%
X137603571Y-107125000D03*
%TO.P,D9,2,A*%
%TO.N,GND*%
X134303571Y-107125000D03*
%TD*%
D19*
%TO.P,RN14,1,R1.1*%
%TO.N,unconnected-(RN14A-R1.1-Pad1)*%
X204021429Y-109300000D03*
%TO.P,RN14,2,R2.1*%
%TO.N,Net-(D27-K)*%
X203221429Y-109300000D03*
%TO.P,RN14,3,R3.1*%
%TO.N,GND*%
X202421429Y-109300000D03*
%TO.P,RN14,4,R4.1*%
%TO.N,+5V*%
X201621429Y-109300000D03*
%TO.P,RN14,5,R4.2*%
%TO.N,/IN10*%
X201621429Y-111000000D03*
%TO.P,RN14,6,R3.2*%
X202421429Y-111000000D03*
%TO.P,RN14,7,R2.2*%
X203221429Y-111000000D03*
%TO.P,RN14,8,R1.2*%
%TO.N,unconnected-(RN14A-R1.2-Pad8)*%
X204021429Y-111000000D03*
%TD*%
D12*
%TO.P,C58,1*%
%TO.N,Net-(D20-K)*%
X170632143Y-105000000D03*
%TO.P,C58,2*%
%TO.N,GND*%
X169082143Y-105000000D03*
%TD*%
D17*
%TO.P,D8,1,K*%
%TO.N,Net-(D8-K)*%
X126378571Y-107050000D03*
%TO.P,D8,2,A*%
%TO.N,GND*%
X123078571Y-107050000D03*
%TD*%
D13*
%TO.P,J21,1,Pin_1*%
%TO.N,/OUT20*%
X232900000Y-65950000D03*
%TD*%
D18*
%TO.P,U11,1*%
%TO.N,Net-(RN18A-R1.1)*%
X99114286Y-99495000D03*
%TO.P,U11,2,-*%
%TO.N,Net-(D32-K)*%
X99114286Y-100765000D03*
%TO.P,U11,3,+*%
%TO.N,/VREF_HIGH*%
X99114286Y-102035000D03*
%TO.P,U11,4,V-*%
%TO.N,GND*%
X99114286Y-103305000D03*
%TO.P,U11,5,+*%
%TO.N,Net-(D32-K)*%
X104064286Y-103305000D03*
%TO.P,U11,6,-*%
%TO.N,/VREF_LOW*%
X104064286Y-102035000D03*
%TO.P,U11,7*%
%TO.N,Net-(RN18B-R2.1)*%
X104064286Y-100765000D03*
%TO.P,U11,8,V+*%
%TO.N,+5V*%
X104064286Y-99495000D03*
%TD*%
D12*
%TO.P,C70,1*%
%TO.N,Net-(D45-K)*%
X249025000Y-105050000D03*
%TO.P,C70,2*%
%TO.N,GND*%
X247475000Y-105050000D03*
%TD*%
%TO.P,C65,1*%
%TO.N,Net-(D15-K)*%
X159867857Y-105050000D03*
%TO.P,C65,2*%
%TO.N,GND*%
X158317857Y-105050000D03*
%TD*%
D17*
%TO.P,D45,1,K*%
%TO.N,Net-(D45-K)*%
X249050000Y-107125000D03*
%TO.P,D45,2,A*%
%TO.N,GND*%
X245750000Y-107125000D03*
%TD*%
D20*
%TO.P,R2,1*%
%TO.N,/VREF_HIGH*%
X75887500Y-90200000D03*
%TO.P,R2,2*%
%TO.N,GND*%
X77712500Y-90200000D03*
%TD*%
D21*
%TO.P,L1,1*%
%TO.N,+VIN*%
X77800000Y-69350000D03*
%TO.P,L1,2*%
%TO.N,/power supply/+VIN_PROTECTED*%
X79700000Y-69350000D03*
%TD*%
D22*
%TO.P,TP3,1,1*%
%TO.N,/VREF_LOW*%
X75875000Y-85050000D03*
%TD*%
D15*
%TO.P,C38,1*%
%TO.N,/VREF_HIGH*%
X242025000Y-102125000D03*
%TO.P,C38,2*%
%TO.N,GND*%
X242025000Y-103675000D03*
%TD*%
D18*
%TO.P,U4,1*%
%TO.N,Net-(RN6C-R3.1)*%
X132703571Y-99585000D03*
%TO.P,U4,2,-*%
%TO.N,Net-(D9-K)*%
X132703571Y-100855000D03*
%TO.P,U4,3,+*%
%TO.N,/VREF_HIGH*%
X132703571Y-102125000D03*
%TO.P,U4,4,V-*%
%TO.N,GND*%
X132703571Y-103395000D03*
%TO.P,U4,5,+*%
%TO.N,Net-(D9-K)*%
X137653571Y-103395000D03*
%TO.P,U4,6,-*%
%TO.N,/VREF_LOW*%
X137653571Y-102125000D03*
%TO.P,U4,7*%
%TO.N,Net-(RN6D-R4.1)*%
X137653571Y-100855000D03*
%TO.P,U4,8,V+*%
%TO.N,+5V*%
X137653571Y-99585000D03*
%TD*%
D13*
%TO.P,J12,1,Pin_1*%
%TO.N,/OUT11*%
X169828947Y-65950000D03*
%TD*%
D20*
%TO.P,R1,1*%
%TO.N,+5V*%
X72187500Y-90200000D03*
%TO.P,R1,2*%
%TO.N,/VREF_HIGH*%
X74012500Y-90200000D03*
%TD*%
D19*
%TO.P,RN10,1,R1.1*%
%TO.N,/IN7*%
X168107143Y-110900000D03*
%TO.P,RN10,2,R2.1*%
X168907143Y-110900000D03*
%TO.P,RN10,3,R3.1*%
X169707143Y-110900000D03*
%TO.P,RN10,4,R4.1*%
%TO.N,unconnected-(RN10D-R4.1-Pad4)*%
X170507143Y-110900000D03*
%TO.P,RN10,5,R4.2*%
%TO.N,unconnected-(RN10D-R4.2-Pad5)*%
X170507143Y-109200000D03*
%TO.P,RN10,6,R3.2*%
%TO.N,Net-(D20-K)*%
X169707143Y-109200000D03*
%TO.P,RN10,7,R2.2*%
%TO.N,GND*%
X168907143Y-109200000D03*
%TO.P,RN10,8,R1.2*%
%TO.N,+5V*%
X168107143Y-109200000D03*
%TD*%
%TO.P,RN19,1,R1.1*%
%TO.N,/IN13*%
X212685714Y-110900000D03*
%TO.P,RN19,2,R2.1*%
X213485714Y-110900000D03*
%TO.P,RN19,3,R3.1*%
X214285714Y-110900000D03*
%TO.P,RN19,4,R4.1*%
%TO.N,unconnected-(RN19D-R4.1-Pad4)*%
X215085714Y-110900000D03*
%TO.P,RN19,5,R4.2*%
%TO.N,unconnected-(RN19D-R4.2-Pad5)*%
X215085714Y-109200000D03*
%TO.P,RN19,6,R3.2*%
%TO.N,Net-(D38-K)*%
X214285714Y-109200000D03*
%TO.P,RN19,7,R2.2*%
%TO.N,GND*%
X213485714Y-109200000D03*
%TO.P,RN19,8,R1.2*%
%TO.N,+5V*%
X212685714Y-109200000D03*
%TD*%
D13*
%TO.P,J33,1,Pin_1*%
%TO.N,/IN10*%
X197245000Y-108425000D03*
%TD*%
D15*
%TO.P,C43,1*%
%TO.N,/VREF_HIGH*%
X186096429Y-102125000D03*
%TO.P,C43,2*%
%TO.N,GND*%
X186096429Y-103675000D03*
%TD*%
D13*
%TO.P,J19,1,Pin_1*%
%TO.N,/OUT18*%
X218884211Y-65950000D03*
%TD*%
%TO.P,J27,1,Pin_1*%
%TO.N,/IN4*%
X130225000Y-108425000D03*
%TD*%
%TO.P,J35,1,Pin_1*%
%TO.N,/IN14*%
X219585000Y-108425000D03*
%TD*%
D19*
%TO.P,RN22,1,R1.1*%
%TO.N,/IN15*%
X234975000Y-110900000D03*
%TO.P,RN22,2,R2.1*%
X235775000Y-110900000D03*
%TO.P,RN22,3,R3.1*%
X236575000Y-110900000D03*
%TO.P,RN22,4,R4.1*%
%TO.N,unconnected-(RN22D-R4.1-Pad4)*%
X237375000Y-110900000D03*
%TO.P,RN22,5,R4.2*%
%TO.N,unconnected-(RN22D-R4.2-Pad5)*%
X237375000Y-109200000D03*
%TO.P,RN22,6,R3.2*%
%TO.N,Net-(D44-K)*%
X236575000Y-109200000D03*
%TO.P,RN22,7,R2.2*%
%TO.N,GND*%
X235775000Y-109200000D03*
%TO.P,RN22,8,R1.2*%
%TO.N,+5V*%
X234975000Y-109200000D03*
%TD*%
D13*
%TO.P,J30,1,Pin_1*%
%TO.N,/IN7*%
X163735000Y-108425000D03*
%TD*%
D15*
%TO.P,C44,1*%
%TO.N,/VREF_HIGH*%
X96939286Y-102125000D03*
%TO.P,C44,2*%
%TO.N,GND*%
X96939286Y-103675000D03*
%TD*%
D22*
%TO.P,TP2,1,1*%
%TO.N,/VREF_HIGH*%
X73725000Y-92675000D03*
%TD*%
D23*
%TO.P,J1,1,Pin_1*%
%TO.N,GND*%
X63725000Y-108350000D03*
D24*
%TO.P,J1,2,Pin_2*%
%TO.N,Net-(D52-A)*%
X67225000Y-108350000D03*
%TD*%
D12*
%TO.P,C19,1*%
%TO.N,Net-(U17-CB)*%
X86850000Y-82810000D03*
%TO.P,C19,2*%
%TO.N,/power supply/SW*%
X85300000Y-82810000D03*
%TD*%
D15*
%TO.P,C47,1*%
%TO.N,/VREF_LOW*%
X83975000Y-102125000D03*
%TO.P,C47,2*%
%TO.N,GND*%
X83975000Y-103675000D03*
%TD*%
D13*
%TO.P,J34,1,Pin_1*%
%TO.N,/IN13*%
X208415000Y-108425000D03*
%TD*%
%TO.P,J32,1,Pin_1*%
%TO.N,/IN9*%
X186075000Y-108425000D03*
%TD*%
D19*
%TO.P,RN15,1,R1.1*%
%TO.N,Net-(RN15A-R1.1)*%
X195346429Y-95900000D03*
%TO.P,RN15,2,R2.1*%
%TO.N,Net-(RN15B-R2.1)*%
X196146429Y-95900000D03*
%TO.P,RN15,3,R3.1*%
%TO.N,Net-(RN15C-R3.1)*%
X196946429Y-95900000D03*
%TO.P,RN15,4,R4.1*%
%TO.N,Net-(RN15D-R4.1)*%
X197746429Y-95900000D03*
%TO.P,RN15,5,R4.2*%
%TO.N,Net-(D31-K)*%
X197746429Y-94200000D03*
%TO.P,RN15,6,R3.2*%
%TO.N,Net-(D30-K)*%
X196946429Y-94200000D03*
%TO.P,RN15,7,R2.2*%
%TO.N,Net-(D29-K)*%
X196146429Y-94200000D03*
%TO.P,RN15,8,R1.2*%
%TO.N,Net-(D28-K)*%
X195346429Y-94200000D03*
%TD*%
D15*
%TO.P,C31,1*%
%TO.N,/VREF_HIGH*%
X86000000Y-102125000D03*
%TO.P,C31,2*%
%TO.N,GND*%
X86000000Y-103675000D03*
%TD*%
D13*
%TO.P,J6,1,Pin_1*%
%TO.N,/OUT5*%
X127781579Y-65950000D03*
%TD*%
D17*
%TO.P,D3,1,K*%
%TO.N,Net-(D3-K)*%
X93025000Y-107125000D03*
%TO.P,D3,2,A*%
%TO.N,GND*%
X89725000Y-107125000D03*
%TD*%
D18*
%TO.P,U7,1*%
%TO.N,Net-(RN12A-R1.1)*%
X165982143Y-99495000D03*
%TO.P,U7,2,-*%
%TO.N,Net-(D20-K)*%
X165982143Y-100765000D03*
%TO.P,U7,3,+*%
%TO.N,/VREF_HIGH*%
X165982143Y-102035000D03*
%TO.P,U7,4,V-*%
%TO.N,GND*%
X165982143Y-103305000D03*
%TO.P,U7,5,+*%
%TO.N,Net-(D20-K)*%
X170932143Y-103305000D03*
%TO.P,U7,6,-*%
%TO.N,/VREF_LOW*%
X170932143Y-102035000D03*
%TO.P,U7,7*%
%TO.N,Net-(RN12B-R2.1)*%
X170932143Y-100765000D03*
%TO.P,U7,8,V+*%
%TO.N,+5V*%
X170932143Y-99495000D03*
%TD*%
D25*
%TO.P,R8,1*%
%TO.N,Net-(U17-FB)*%
X88395000Y-82495000D03*
%TO.P,R8,2*%
%TO.N,+5V*%
X88395000Y-84145000D03*
%TD*%
D26*
%TO.P,U17,1,CB*%
%TO.N,Net-(U17-CB)*%
X86408333Y-80725000D03*
%TO.P,U17,2,GND*%
%TO.N,GND*%
X87358333Y-80725000D03*
%TO.P,U17,3,FB*%
%TO.N,Net-(U17-FB)*%
X88308333Y-80725000D03*
%TO.P,U17,4,~{SHDN}*%
%TO.N,Net-(U17-~{SHDN})*%
X88308333Y-78450000D03*
%TO.P,U17,5,VIN*%
%TO.N,/power supply/+VIN_PROTECTED*%
X87358333Y-78450000D03*
%TO.P,U17,6,SW*%
%TO.N,/power supply/SW*%
X86408333Y-78450000D03*
%TD*%
D12*
%TO.P,C66,1*%
%TO.N,Net-(D21-K)*%
X182157143Y-105050000D03*
%TO.P,C66,2*%
%TO.N,GND*%
X180607143Y-105050000D03*
%TD*%
D19*
%TO.P,RN23,1,R1.1*%
%TO.N,unconnected-(RN23A-R1.1-Pad1)*%
X248600000Y-109300000D03*
%TO.P,RN23,2,R2.1*%
%TO.N,Net-(D45-K)*%
X247800000Y-109300000D03*
%TO.P,RN23,3,R3.1*%
%TO.N,GND*%
X247000000Y-109300000D03*
%TO.P,RN23,4,R4.1*%
%TO.N,+5V*%
X246200000Y-109300000D03*
%TO.P,RN23,5,R4.2*%
%TO.N,/IN16*%
X246200000Y-111000000D03*
%TO.P,RN23,6,R3.2*%
X247000000Y-111000000D03*
%TO.P,RN23,7,R2.2*%
X247800000Y-111000000D03*
%TO.P,RN23,8,R1.2*%
%TO.N,unconnected-(RN23A-R1.2-Pad8)*%
X248600000Y-111000000D03*
%TD*%
D18*
%TO.P,U12,1*%
%TO.N,Net-(RN18C-R3.1)*%
X110414286Y-99585000D03*
%TO.P,U12,2,-*%
%TO.N,Net-(D33-K)*%
X110414286Y-100855000D03*
%TO.P,U12,3,+*%
%TO.N,/VREF_HIGH*%
X110414286Y-102125000D03*
%TO.P,U12,4,V-*%
%TO.N,GND*%
X110414286Y-103395000D03*
%TO.P,U12,5,+*%
%TO.N,Net-(D33-K)*%
X115364286Y-103395000D03*
%TO.P,U12,6,-*%
%TO.N,/VREF_LOW*%
X115364286Y-102125000D03*
%TO.P,U12,7*%
%TO.N,Net-(RN18D-R4.1)*%
X115364286Y-100855000D03*
%TO.P,U12,8,V+*%
%TO.N,+5V*%
X115364286Y-99585000D03*
%TD*%
D19*
%TO.P,RN1,1,R1.1*%
%TO.N,/IN1*%
X78950000Y-110900000D03*
%TO.P,RN1,2,R2.1*%
X79750000Y-110900000D03*
%TO.P,RN1,3,R3.1*%
X80550000Y-110900000D03*
%TO.P,RN1,4,R4.1*%
%TO.N,unconnected-(RN1D-R4.1-Pad4)*%
X81350000Y-110900000D03*
%TO.P,RN1,5,R4.2*%
%TO.N,unconnected-(RN1D-R4.2-Pad5)*%
X81350000Y-109200000D03*
%TO.P,RN1,6,R3.2*%
%TO.N,Net-(D2-K)*%
X80550000Y-109200000D03*
%TO.P,RN1,7,R2.2*%
%TO.N,GND*%
X79750000Y-109200000D03*
%TO.P,RN1,8,R1.2*%
%TO.N,+5V*%
X78950000Y-109200000D03*
%TD*%
%TO.P,RN12,1,R1.1*%
%TO.N,Net-(RN12A-R1.1)*%
X173057143Y-95900000D03*
%TO.P,RN12,2,R2.1*%
%TO.N,Net-(RN12B-R2.1)*%
X173857143Y-95900000D03*
%TO.P,RN12,3,R3.1*%
%TO.N,Net-(RN12C-R3.1)*%
X174657143Y-95900000D03*
%TO.P,RN12,4,R4.1*%
%TO.N,Net-(RN12D-R4.1)*%
X175457143Y-95900000D03*
%TO.P,RN12,5,R4.2*%
%TO.N,Net-(D25-K)*%
X175457143Y-94200000D03*
%TO.P,RN12,6,R3.2*%
%TO.N,Net-(D24-K)*%
X174657143Y-94200000D03*
%TO.P,RN12,7,R2.2*%
%TO.N,Net-(D23-K)*%
X173857143Y-94200000D03*
%TO.P,RN12,8,R1.2*%
%TO.N,Net-(D22-K)*%
X173057143Y-94200000D03*
%TD*%
D12*
%TO.P,C1,1*%
%TO.N,+5V*%
X80275000Y-97620000D03*
%TO.P,C1,2*%
%TO.N,GND*%
X78725000Y-97620000D03*
%TD*%
D25*
%TO.P,R9,1*%
%TO.N,GND*%
X90045000Y-81570000D03*
%TO.P,R9,2*%
%TO.N,Net-(U17-FB)*%
X90045000Y-83220000D03*
%TD*%
D15*
%TO.P,C42,1*%
%TO.N,/VREF_HIGH*%
X163807143Y-102125000D03*
%TO.P,C42,2*%
%TO.N,GND*%
X163807143Y-103675000D03*
%TD*%
D13*
%TO.P,J31,1,Pin_1*%
%TO.N,/IN8*%
X174905000Y-108425000D03*
%TD*%
D19*
%TO.P,RN2,1,R1.1*%
%TO.N,unconnected-(RN2A-R1.1-Pad1)*%
X92575000Y-109300000D03*
%TO.P,RN2,2,R2.1*%
%TO.N,Net-(D3-K)*%
X91775000Y-109300000D03*
%TO.P,RN2,3,R3.1*%
%TO.N,GND*%
X90975000Y-109300000D03*
%TO.P,RN2,4,R4.1*%
%TO.N,+5V*%
X90175000Y-109300000D03*
%TO.P,RN2,5,R4.2*%
%TO.N,/IN2*%
X90175000Y-111000000D03*
%TO.P,RN2,6,R3.2*%
X90975000Y-111000000D03*
%TO.P,RN2,7,R2.2*%
X91775000Y-111000000D03*
%TO.P,RN2,8,R1.2*%
%TO.N,unconnected-(RN2A-R1.2-Pad8)*%
X92575000Y-111000000D03*
%TD*%
%TO.P,RN18,1,R1.1*%
%TO.N,Net-(RN18A-R1.1)*%
X106189286Y-95900000D03*
%TO.P,RN18,2,R2.1*%
%TO.N,Net-(RN18B-R2.1)*%
X106989286Y-95900000D03*
%TO.P,RN18,3,R3.1*%
%TO.N,Net-(RN18C-R3.1)*%
X107789286Y-95900000D03*
%TO.P,RN18,4,R4.1*%
%TO.N,Net-(RN18D-R4.1)*%
X108589286Y-95900000D03*
%TO.P,RN18,5,R4.2*%
%TO.N,Net-(D37-K)*%
X108589286Y-94200000D03*
%TO.P,RN18,6,R3.2*%
%TO.N,Net-(D36-K)*%
X107789286Y-94200000D03*
%TO.P,RN18,7,R2.2*%
%TO.N,Net-(D35-K)*%
X106989286Y-94200000D03*
%TO.P,RN18,8,R1.2*%
%TO.N,Net-(D34-K)*%
X106189286Y-94200000D03*
%TD*%
D12*
%TO.P,C5,1*%
%TO.N,+5V*%
X147142857Y-97620000D03*
%TO.P,C5,2*%
%TO.N,GND*%
X145592857Y-97620000D03*
%TD*%
D17*
%TO.P,D2,1,K*%
%TO.N,Net-(D2-K)*%
X81800000Y-107050000D03*
%TO.P,D2,2,A*%
%TO.N,GND*%
X78500000Y-107050000D03*
%TD*%
D19*
%TO.P,RN5,1,R1.1*%
%TO.N,unconnected-(RN5A-R1.1-Pad1)*%
X137153571Y-109300000D03*
%TO.P,RN5,2,R2.1*%
%TO.N,Net-(D9-K)*%
X136353571Y-109300000D03*
%TO.P,RN5,3,R3.1*%
%TO.N,GND*%
X135553571Y-109300000D03*
%TO.P,RN5,4,R4.1*%
%TO.N,+5V*%
X134753571Y-109300000D03*
%TO.P,RN5,5,R4.2*%
%TO.N,/IN4*%
X134753571Y-111000000D03*
%TO.P,RN5,6,R3.2*%
X135553571Y-111000000D03*
%TO.P,RN5,7,R2.2*%
X136353571Y-111000000D03*
%TO.P,RN5,8,R1.2*%
%TO.N,unconnected-(RN5A-R1.2-Pad8)*%
X137153571Y-111000000D03*
%TD*%
D12*
%TO.P,C63,1*%
%TO.N,Net-(D3-K)*%
X93000000Y-105050000D03*
%TO.P,C63,2*%
%TO.N,GND*%
X91450000Y-105050000D03*
%TD*%
D19*
%TO.P,RN16,1,R1.1*%
%TO.N,/IN11*%
X101239286Y-110900000D03*
%TO.P,RN16,2,R2.1*%
X102039286Y-110900000D03*
%TO.P,RN16,3,R3.1*%
X102839286Y-110900000D03*
%TO.P,RN16,4,R4.1*%
%TO.N,unconnected-(RN16D-R4.1-Pad4)*%
X103639286Y-110900000D03*
%TO.P,RN16,5,R4.2*%
%TO.N,unconnected-(RN16D-R4.2-Pad5)*%
X103639286Y-109200000D03*
%TO.P,RN16,6,R3.2*%
%TO.N,Net-(D32-K)*%
X102839286Y-109200000D03*
%TO.P,RN16,7,R2.2*%
%TO.N,GND*%
X102039286Y-109200000D03*
%TO.P,RN16,8,R1.2*%
%TO.N,+5V*%
X101239286Y-109200000D03*
%TD*%
D13*
%TO.P,J18,1,Pin_1*%
%TO.N,/OUT17*%
X211876316Y-65950000D03*
%TD*%
D12*
%TO.P,C4,1*%
%TO.N,+5V*%
X135953571Y-97625000D03*
%TO.P,C4,2*%
%TO.N,GND*%
X134403571Y-97625000D03*
%TD*%
D18*
%TO.P,U5,1*%
%TO.N,Net-(RN9A-R1.1)*%
X143692857Y-99495000D03*
%TO.P,U5,2,-*%
%TO.N,Net-(D14-K)*%
X143692857Y-100765000D03*
%TO.P,U5,3,+*%
%TO.N,/VREF_HIGH*%
X143692857Y-102035000D03*
%TO.P,U5,4,V-*%
%TO.N,GND*%
X143692857Y-103305000D03*
%TO.P,U5,5,+*%
%TO.N,Net-(D14-K)*%
X148642857Y-103305000D03*
%TO.P,U5,6,-*%
%TO.N,/VREF_LOW*%
X148642857Y-102035000D03*
%TO.P,U5,7*%
%TO.N,Net-(RN9B-R2.1)*%
X148642857Y-100765000D03*
%TO.P,U5,8,V+*%
%TO.N,+5V*%
X148642857Y-99495000D03*
%TD*%
D13*
%TO.P,J8,1,Pin_1*%
%TO.N,/OUT7*%
X141797368Y-65950000D03*
%TD*%
%TO.P,J14,1,Pin_1*%
%TO.N,/OUT13*%
X183844737Y-65950000D03*
%TD*%
%TO.P,J17,1,Pin_1*%
%TO.N,/OUT16*%
X204868421Y-65950000D03*
%TD*%
D15*
%TO.P,C53,1*%
%TO.N,/VREF_LOW*%
X217710714Y-102125000D03*
%TO.P,C53,2*%
%TO.N,GND*%
X217710714Y-103675000D03*
%TD*%
%TO.P,C33,1*%
%TO.N,/VREF_HIGH*%
X152867857Y-102125000D03*
%TO.P,C33,2*%
%TO.N,GND*%
X152867857Y-103675000D03*
%TD*%
D19*
%TO.P,RN21,1,R1.1*%
%TO.N,Net-(RN21A-R1.1)*%
X217635714Y-95900000D03*
%TO.P,RN21,2,R2.1*%
%TO.N,Net-(RN21B-R2.1)*%
X218435714Y-95900000D03*
%TO.P,RN21,3,R3.1*%
%TO.N,Net-(RN21C-R3.1)*%
X219235714Y-95900000D03*
%TO.P,RN21,4,R4.1*%
%TO.N,Net-(RN21D-R4.1)*%
X220035714Y-95900000D03*
%TO.P,RN21,5,R4.2*%
%TO.N,Net-(D43-K)*%
X220035714Y-94200000D03*
%TO.P,RN21,6,R3.2*%
%TO.N,Net-(D42-K)*%
X219235714Y-94200000D03*
%TO.P,RN21,7,R2.2*%
%TO.N,Net-(D41-K)*%
X218435714Y-94200000D03*
%TO.P,RN21,8,R1.2*%
%TO.N,Net-(D40-K)*%
X217635714Y-94200000D03*
%TD*%
D12*
%TO.P,C55,1*%
%TO.N,Net-(D2-K)*%
X81475000Y-105000000D03*
%TO.P,C55,2*%
%TO.N,GND*%
X79925000Y-105000000D03*
%TD*%
D27*
%TO.P,C20,1*%
%TO.N,+5V*%
X77685000Y-80615000D03*
%TO.P,C20,2*%
%TO.N,GND*%
X77685000Y-77665000D03*
%TD*%
D19*
%TO.P,RN7,1,R1.1*%
%TO.N,/IN5*%
X145817857Y-110900000D03*
%TO.P,RN7,2,R2.1*%
X146617857Y-110900000D03*
%TO.P,RN7,3,R3.1*%
X147417857Y-110900000D03*
%TO.P,RN7,4,R4.1*%
%TO.N,unconnected-(RN7D-R4.1-Pad4)*%
X148217857Y-110900000D03*
%TO.P,RN7,5,R4.2*%
%TO.N,unconnected-(RN7D-R4.2-Pad5)*%
X148217857Y-109200000D03*
%TO.P,RN7,6,R3.2*%
%TO.N,Net-(D14-K)*%
X147417857Y-109200000D03*
%TO.P,RN7,7,R2.2*%
%TO.N,GND*%
X146617857Y-109200000D03*
%TO.P,RN7,8,R1.2*%
%TO.N,+5V*%
X145817857Y-109200000D03*
%TD*%
D12*
%TO.P,C7,1*%
%TO.N,+5V*%
X169432143Y-97620000D03*
%TO.P,C7,2*%
%TO.N,GND*%
X167882143Y-97620000D03*
%TD*%
D13*
%TO.P,J10,1,Pin_1*%
%TO.N,/OUT9*%
X155813158Y-65950000D03*
%TD*%
D15*
%TO.P,C24,1*%
%TO.N,/VREF_LOW*%
X139803571Y-102125000D03*
%TO.P,C24,2*%
%TO.N,GND*%
X139803571Y-103675000D03*
%TD*%
D17*
%TO.P,D33,1,K*%
%TO.N,Net-(D33-K)*%
X115314286Y-107125000D03*
%TO.P,D33,2,A*%
%TO.N,GND*%
X112014286Y-107125000D03*
%TD*%
D15*
%TO.P,C32,1*%
%TO.N,/VREF_HIGH*%
X130578571Y-102125000D03*
%TO.P,C32,2*%
%TO.N,GND*%
X130578571Y-103675000D03*
%TD*%
D13*
%TO.P,J23,1,Pin_1*%
%TO.N,/IN2*%
X85545000Y-108425000D03*
%TD*%
D28*
%TO.P,C22,1*%
%TO.N,+5V*%
X71675000Y-80250000D03*
%TO.P,C22,2*%
%TO.N,GND*%
X71675000Y-78700000D03*
%TD*%
D17*
%TO.P,D44,1,K*%
%TO.N,Net-(D44-K)*%
X237825000Y-107050000D03*
%TO.P,D44,2,A*%
%TO.N,GND*%
X234525000Y-107050000D03*
%TD*%
D13*
%TO.P,J28,1,Pin_1*%
%TO.N,/IN5*%
X141395000Y-108425000D03*
%TD*%
D12*
%TO.P,C67,1*%
%TO.N,Net-(D27-K)*%
X204446429Y-105050000D03*
%TO.P,C67,2*%
%TO.N,GND*%
X202896429Y-105050000D03*
%TD*%
D19*
%TO.P,RN24,1,R1.1*%
%TO.N,Net-(RN24A-R1.1)*%
X239925000Y-95900000D03*
%TO.P,RN24,2,R2.1*%
%TO.N,Net-(RN24B-R2.1)*%
X240725000Y-95900000D03*
%TO.P,RN24,3,R3.1*%
%TO.N,Net-(RN24C-R3.1)*%
X241525000Y-95900000D03*
%TO.P,RN24,4,R4.1*%
%TO.N,Net-(RN24D-R4.1)*%
X242325000Y-95900000D03*
%TO.P,RN24,5,R4.2*%
%TO.N,Net-(D49-K)*%
X242325000Y-94200000D03*
%TO.P,RN24,6,R3.2*%
%TO.N,Net-(D48-K)*%
X241525000Y-94200000D03*
%TO.P,RN24,7,R2.2*%
%TO.N,Net-(D47-K)*%
X240725000Y-94200000D03*
%TO.P,RN24,8,R1.2*%
%TO.N,Net-(D46-K)*%
X239925000Y-94200000D03*
%TD*%
D17*
%TO.P,D26,1,K*%
%TO.N,Net-(D26-K)*%
X193246429Y-107050000D03*
%TO.P,D26,2,A*%
%TO.N,GND*%
X189946429Y-107050000D03*
%TD*%
D12*
%TO.P,C10,1*%
%TO.N,+5V*%
X202821429Y-97625000D03*
%TO.P,C10,2*%
%TO.N,GND*%
X201271429Y-97625000D03*
%TD*%
%TO.P,C15,1*%
%TO.N,+5V*%
X236300000Y-97620000D03*
%TO.P,C15,2*%
%TO.N,GND*%
X234750000Y-97620000D03*
%TD*%
D15*
%TO.P,C41,1*%
%TO.N,/VREF_HIGH*%
X141517857Y-102125000D03*
%TO.P,C41,2*%
%TO.N,GND*%
X141517857Y-103675000D03*
%TD*%
%TO.P,C35,1*%
%TO.N,/VREF_HIGH*%
X197446429Y-102125000D03*
%TO.P,C35,2*%
%TO.N,GND*%
X197446429Y-103675000D03*
%TD*%
D29*
%TO.P,R7,1*%
%TO.N,GND*%
X90058333Y-80100000D03*
%TO.P,R7,2*%
%TO.N,Net-(U17-~{SHDN})*%
X90058333Y-78450000D03*
%TD*%
D15*
%TO.P,C54,1*%
%TO.N,/VREF_LOW*%
X240000000Y-102125000D03*
%TO.P,C54,2*%
%TO.N,GND*%
X240000000Y-103675000D03*
%TD*%
%TO.P,C52,1*%
%TO.N,/VREF_LOW*%
X106264286Y-102125000D03*
%TO.P,C52,2*%
%TO.N,GND*%
X106264286Y-103675000D03*
%TD*%
D13*
%TO.P,J4,1,Pin_1*%
%TO.N,/OUT3*%
X113765789Y-65950000D03*
%TD*%
D19*
%TO.P,RN20,1,R1.1*%
%TO.N,unconnected-(RN20A-R1.1-Pad1)*%
X226310714Y-109300000D03*
%TO.P,RN20,2,R2.1*%
%TO.N,Net-(D39-K)*%
X225510714Y-109300000D03*
%TO.P,RN20,3,R3.1*%
%TO.N,GND*%
X224710714Y-109300000D03*
%TO.P,RN20,4,R4.1*%
%TO.N,+5V*%
X223910714Y-109300000D03*
%TO.P,RN20,5,R4.2*%
%TO.N,/IN14*%
X223910714Y-111000000D03*
%TO.P,RN20,6,R3.2*%
X224710714Y-111000000D03*
%TO.P,RN20,7,R2.2*%
X225510714Y-111000000D03*
%TO.P,RN20,8,R1.2*%
%TO.N,unconnected-(RN20A-R1.2-Pad8)*%
X226310714Y-111000000D03*
%TD*%
D13*
%TO.P,J29,1,Pin_1*%
%TO.N,/IN6*%
X152565000Y-108425000D03*
%TD*%
D18*
%TO.P,U13,1*%
%TO.N,Net-(RN21A-R1.1)*%
X210560714Y-99495000D03*
%TO.P,U13,2,-*%
%TO.N,Net-(D38-K)*%
X210560714Y-100765000D03*
%TO.P,U13,3,+*%
%TO.N,/VREF_HIGH*%
X210560714Y-102035000D03*
%TO.P,U13,4,V-*%
%TO.N,GND*%
X210560714Y-103305000D03*
%TO.P,U13,5,+*%
%TO.N,Net-(D38-K)*%
X215510714Y-103305000D03*
%TO.P,U13,6,-*%
%TO.N,/VREF_LOW*%
X215510714Y-102035000D03*
%TO.P,U13,7*%
%TO.N,Net-(RN21B-R2.1)*%
X215510714Y-100765000D03*
%TO.P,U13,8,V+*%
%TO.N,+5V*%
X215510714Y-99495000D03*
%TD*%
D30*
%TO.P,R5,1*%
%TO.N,Net-(D1-A)*%
X71405000Y-103000000D03*
%TO.P,R5,2*%
%TO.N,+5V*%
X71405000Y-101175000D03*
%TD*%
D18*
%TO.P,U16,1*%
%TO.N,Net-(RN24C-R3.1)*%
X244150000Y-99585000D03*
%TO.P,U16,2,-*%
%TO.N,Net-(D45-K)*%
X244150000Y-100855000D03*
%TO.P,U16,3,+*%
%TO.N,/VREF_HIGH*%
X244150000Y-102125000D03*
%TO.P,U16,4,V-*%
%TO.N,GND*%
X244150000Y-103395000D03*
%TO.P,U16,5,+*%
%TO.N,Net-(D45-K)*%
X249100000Y-103395000D03*
%TO.P,U16,6,-*%
%TO.N,/VREF_LOW*%
X249100000Y-102125000D03*
%TO.P,U16,7*%
%TO.N,Net-(RN24D-R4.1)*%
X249100000Y-100855000D03*
%TO.P,U16,8,V+*%
%TO.N,+5V*%
X249100000Y-99585000D03*
%TD*%
D22*
%TO.P,TP1,1,1*%
%TO.N,+5V*%
X71650000Y-83875000D03*
%TD*%
D13*
%TO.P,J36,1,Pin_1*%
%TO.N,/IN15*%
X230755000Y-108425000D03*
%TD*%
D19*
%TO.P,RN3,1,R1.1*%
%TO.N,Net-(RN3A-R1.1)*%
X83900000Y-95900000D03*
%TO.P,RN3,2,R2.1*%
%TO.N,Net-(RN3B-R2.1)*%
X84700000Y-95900000D03*
%TO.P,RN3,3,R3.1*%
%TO.N,Net-(RN3C-R3.1)*%
X85500000Y-95900000D03*
%TO.P,RN3,4,R4.1*%
%TO.N,Net-(RN3D-R4.1)*%
X86300000Y-95900000D03*
%TO.P,RN3,5,R4.2*%
%TO.N,Net-(D7-K)*%
X86300000Y-94200000D03*
%TO.P,RN3,6,R3.2*%
%TO.N,Net-(D6-K)*%
X85500000Y-94200000D03*
%TO.P,RN3,7,R2.2*%
%TO.N,Net-(D5-K)*%
X84700000Y-94200000D03*
%TO.P,RN3,8,R1.2*%
%TO.N,Net-(D4-K)*%
X83900000Y-94200000D03*
%TD*%
D20*
%TO.P,R4,1*%
%TO.N,/VREF_LOW*%
X75887500Y-87350000D03*
%TO.P,R4,2*%
%TO.N,GND*%
X77712500Y-87350000D03*
%TD*%
D31*
%TO.P,D50,1,K*%
%TO.N,/power supply/+VIN_PROTECTED*%
X82445000Y-69097500D03*
%TO.P,D50,2,A*%
%TO.N,GND*%
X82445000Y-65097500D03*
%TD*%
D32*
%TO.P,C18,1*%
%TO.N,/power supply/+VIN_PROTECTED*%
X87383333Y-74075000D03*
%TO.P,C18,2*%
%TO.N,GND*%
X84433333Y-74075000D03*
%TD*%
D13*
%TO.P,J5,1,Pin_1*%
%TO.N,/OUT4*%
X120773684Y-65950000D03*
%TD*%
%TO.P,J9,1,Pin_1*%
%TO.N,/OUT8*%
X148805263Y-65950000D03*
%TD*%
D12*
%TO.P,C9,1*%
%TO.N,+5V*%
X191721429Y-97620000D03*
%TO.P,C9,2*%
%TO.N,GND*%
X190171429Y-97620000D03*
%TD*%
D19*
%TO.P,RN4,1,R1.1*%
%TO.N,/IN3*%
X123528571Y-110900000D03*
%TO.P,RN4,2,R2.1*%
X124328571Y-110900000D03*
%TO.P,RN4,3,R3.1*%
X125128571Y-110900000D03*
%TO.P,RN4,4,R4.1*%
%TO.N,unconnected-(RN4D-R4.1-Pad4)*%
X125928571Y-110900000D03*
%TO.P,RN4,5,R4.2*%
%TO.N,unconnected-(RN4D-R4.2-Pad5)*%
X125928571Y-109200000D03*
%TO.P,RN4,6,R3.2*%
%TO.N,Net-(D8-K)*%
X125128571Y-109200000D03*
%TO.P,RN4,7,R2.2*%
%TO.N,GND*%
X124328571Y-109200000D03*
%TO.P,RN4,8,R1.2*%
%TO.N,+5V*%
X123528571Y-109200000D03*
%TD*%
D18*
%TO.P,U14,1*%
%TO.N,Net-(RN21C-R3.1)*%
X221860714Y-99585000D03*
%TO.P,U14,2,-*%
%TO.N,Net-(D39-K)*%
X221860714Y-100855000D03*
%TO.P,U14,3,+*%
%TO.N,/VREF_HIGH*%
X221860714Y-102125000D03*
%TO.P,U14,4,V-*%
%TO.N,GND*%
X221860714Y-103395000D03*
%TO.P,U14,5,+*%
%TO.N,Net-(D39-K)*%
X226810714Y-103395000D03*
%TO.P,U14,6,-*%
%TO.N,/VREF_LOW*%
X226810714Y-102125000D03*
%TO.P,U14,7*%
%TO.N,Net-(RN21D-R4.1)*%
X226810714Y-100855000D03*
%TO.P,U14,8,V+*%
%TO.N,+5V*%
X226810714Y-99585000D03*
%TD*%
D12*
%TO.P,C62,1*%
%TO.N,Net-(D44-K)*%
X237500000Y-105000000D03*
%TO.P,C62,2*%
%TO.N,GND*%
X235950000Y-105000000D03*
%TD*%
D19*
%TO.P,RN17,1,R1.1*%
%TO.N,unconnected-(RN17A-R1.1-Pad1)*%
X114864286Y-109300000D03*
%TO.P,RN17,2,R2.1*%
%TO.N,Net-(D33-K)*%
X114064286Y-109300000D03*
%TO.P,RN17,3,R3.1*%
%TO.N,GND*%
X113264286Y-109300000D03*
%TO.P,RN17,4,R4.1*%
%TO.N,+5V*%
X112464286Y-109300000D03*
%TO.P,RN17,5,R4.2*%
%TO.N,/IN12*%
X112464286Y-111000000D03*
%TO.P,RN17,6,R3.2*%
X113264286Y-111000000D03*
%TO.P,RN17,7,R2.2*%
X114064286Y-111000000D03*
%TO.P,RN17,8,R1.2*%
%TO.N,unconnected-(RN17A-R1.2-Pad8)*%
X114864286Y-111000000D03*
%TD*%
D12*
%TO.P,C64,1*%
%TO.N,Net-(D9-K)*%
X137578571Y-105050000D03*
%TO.P,C64,2*%
%TO.N,GND*%
X136028571Y-105050000D03*
%TD*%
D13*
%TO.P,J16,1,Pin_1*%
%TO.N,/OUT15*%
X197860526Y-65950000D03*
%TD*%
%TO.P,J24,1,Pin_1*%
%TO.N,/IN11*%
X96715000Y-108425000D03*
%TD*%
D12*
%TO.P,C61,1*%
%TO.N,Net-(D38-K)*%
X215210714Y-105000000D03*
%TO.P,C61,2*%
%TO.N,GND*%
X213660714Y-105000000D03*
%TD*%
D13*
%TO.P,J3,1,Pin_1*%
%TO.N,/OUT2*%
X106757895Y-65950000D03*
%TD*%
D15*
%TO.P,C28,1*%
%TO.N,/VREF_LOW*%
X117514286Y-102125000D03*
%TO.P,C28,2*%
%TO.N,GND*%
X117514286Y-103675000D03*
%TD*%
D18*
%TO.P,U15,1*%
%TO.N,Net-(RN24A-R1.1)*%
X232850000Y-99495000D03*
%TO.P,U15,2,-*%
%TO.N,Net-(D44-K)*%
X232850000Y-100765000D03*
%TO.P,U15,3,+*%
%TO.N,/VREF_HIGH*%
X232850000Y-102035000D03*
%TO.P,U15,4,V-*%
%TO.N,GND*%
X232850000Y-103305000D03*
%TO.P,U15,5,+*%
%TO.N,Net-(D44-K)*%
X237800000Y-103305000D03*
%TO.P,U15,6,-*%
%TO.N,/VREF_LOW*%
X237800000Y-102035000D03*
%TO.P,U15,7*%
%TO.N,Net-(RN24B-R2.1)*%
X237800000Y-100765000D03*
%TO.P,U15,8,V+*%
%TO.N,+5V*%
X237800000Y-99495000D03*
%TD*%
D17*
%TO.P,D15,1,K*%
%TO.N,Net-(D15-K)*%
X159892857Y-107125000D03*
%TO.P,D15,2,A*%
%TO.N,GND*%
X156592857Y-107125000D03*
%TD*%
D18*
%TO.P,U9,1*%
%TO.N,Net-(RN15A-R1.1)*%
X188271429Y-99495000D03*
%TO.P,U9,2,-*%
%TO.N,Net-(D26-K)*%
X188271429Y-100765000D03*
%TO.P,U9,3,+*%
%TO.N,/VREF_HIGH*%
X188271429Y-102035000D03*
%TO.P,U9,4,V-*%
%TO.N,GND*%
X188271429Y-103305000D03*
%TO.P,U9,5,+*%
%TO.N,Net-(D26-K)*%
X193221429Y-103305000D03*
%TO.P,U9,6,-*%
%TO.N,/VREF_LOW*%
X193221429Y-102035000D03*
%TO.P,U9,7*%
%TO.N,Net-(RN15B-R2.1)*%
X193221429Y-100765000D03*
%TO.P,U9,8,V+*%
%TO.N,+5V*%
X193221429Y-99495000D03*
%TD*%
D15*
%TO.P,C23,1*%
%TO.N,/VREF_LOW*%
X95225000Y-102125000D03*
%TO.P,C23,2*%
%TO.N,GND*%
X95225000Y-103675000D03*
%TD*%
D12*
%TO.P,C13,1*%
%TO.N,+5V*%
X214010714Y-97620000D03*
%TO.P,C13,2*%
%TO.N,GND*%
X212460714Y-97620000D03*
%TD*%
%TO.P,C11,1*%
%TO.N,+5V*%
X102564286Y-97620000D03*
%TO.P,C11,2*%
%TO.N,GND*%
X101014286Y-97620000D03*
%TD*%
%TO.P,C59,1*%
%TO.N,Net-(D26-K)*%
X192921429Y-105000000D03*
%TO.P,C59,2*%
%TO.N,GND*%
X191371429Y-105000000D03*
%TD*%
D17*
%TO.P,D39,1,K*%
%TO.N,Net-(D39-K)*%
X226760714Y-107125000D03*
%TO.P,D39,2,A*%
%TO.N,GND*%
X223460714Y-107125000D03*
%TD*%
D12*
%TO.P,C12,1*%
%TO.N,+5V*%
X113664286Y-97625000D03*
%TO.P,C12,2*%
%TO.N,GND*%
X112114286Y-97625000D03*
%TD*%
D13*
%TO.P,J20,1,Pin_1*%
%TO.N,/OUT19*%
X225892105Y-65950000D03*
%TD*%
D15*
%TO.P,C48,1*%
%TO.N,/VREF_LOW*%
X128553571Y-102125000D03*
%TO.P,C48,2*%
%TO.N,GND*%
X128553571Y-103675000D03*
%TD*%
D13*
%TO.P,J37,1,Pin_1*%
%TO.N,/IN16*%
X241925000Y-108425000D03*
%TD*%
D15*
%TO.P,C27,1*%
%TO.N,/VREF_LOW*%
X206671429Y-102125000D03*
%TO.P,C27,2*%
%TO.N,GND*%
X206671429Y-103675000D03*
%TD*%
D19*
%TO.P,RN11,1,R1.1*%
%TO.N,unconnected-(RN11A-R1.1-Pad1)*%
X181732143Y-109300000D03*
%TO.P,RN11,2,R2.1*%
%TO.N,Net-(D21-K)*%
X180932143Y-109300000D03*
%TO.P,RN11,3,R3.1*%
%TO.N,GND*%
X180132143Y-109300000D03*
%TO.P,RN11,4,R4.1*%
%TO.N,+5V*%
X179332143Y-109300000D03*
%TO.P,RN11,5,R4.2*%
%TO.N,/IN8*%
X179332143Y-111000000D03*
%TO.P,RN11,6,R3.2*%
X180132143Y-111000000D03*
%TO.P,RN11,7,R2.2*%
X180932143Y-111000000D03*
%TO.P,RN11,8,R1.2*%
%TO.N,unconnected-(RN11A-R1.2-Pad8)*%
X181732143Y-111000000D03*
%TD*%
D33*
%TO.P,D51,1,K*%
%TO.N,/power supply/SW*%
X81220000Y-74295000D03*
D34*
%TO.P,D51,2,A*%
%TO.N,GND*%
X78845000Y-74295000D03*
%TD*%
D33*
%TO.P,D52,1,K*%
%TO.N,+VIN*%
X75325000Y-69375000D03*
D34*
%TO.P,D52,2,A*%
%TO.N,Net-(D52-A)*%
X72950000Y-69375000D03*
%TD*%
D15*
%TO.P,C51,1*%
%TO.N,/VREF_LOW*%
X195421429Y-102125000D03*
%TO.P,C51,2*%
%TO.N,GND*%
X195421429Y-103675000D03*
%TD*%
D19*
%TO.P,RN13,1,R1.1*%
%TO.N,/IN9*%
X190396429Y-110900000D03*
%TO.P,RN13,2,R2.1*%
X191196429Y-110900000D03*
%TO.P,RN13,3,R3.1*%
X191996429Y-110900000D03*
%TO.P,RN13,4,R4.1*%
%TO.N,unconnected-(RN13D-R4.1-Pad4)*%
X192796429Y-110900000D03*
%TO.P,RN13,5,R4.2*%
%TO.N,unconnected-(RN13D-R4.2-Pad5)*%
X192796429Y-109200000D03*
%TO.P,RN13,6,R3.2*%
%TO.N,Net-(D26-K)*%
X191996429Y-109200000D03*
%TO.P,RN13,7,R2.2*%
%TO.N,GND*%
X191196429Y-109200000D03*
%TO.P,RN13,8,R1.2*%
%TO.N,+5V*%
X190396429Y-109200000D03*
%TD*%
D18*
%TO.P,U8,1*%
%TO.N,Net-(RN12C-R3.1)*%
X177282143Y-99585000D03*
%TO.P,U8,2,-*%
%TO.N,Net-(D21-K)*%
X177282143Y-100855000D03*
%TO.P,U8,3,+*%
%TO.N,/VREF_HIGH*%
X177282143Y-102125000D03*
%TO.P,U8,4,V-*%
%TO.N,GND*%
X177282143Y-103395000D03*
%TO.P,U8,5,+*%
%TO.N,Net-(D21-K)*%
X182232143Y-103395000D03*
%TO.P,U8,6,-*%
%TO.N,/VREF_LOW*%
X182232143Y-102125000D03*
%TO.P,U8,7*%
%TO.N,Net-(RN12D-R4.1)*%
X182232143Y-100855000D03*
%TO.P,U8,8,V+*%
%TO.N,+5V*%
X182232143Y-99585000D03*
%TD*%
D13*
%TO.P,J26,1,Pin_1*%
%TO.N,/IN3*%
X119055000Y-108425000D03*
%TD*%
D12*
%TO.P,C3,1*%
%TO.N,+5V*%
X124853571Y-97620000D03*
%TO.P,C3,2*%
%TO.N,GND*%
X123303571Y-97620000D03*
%TD*%
D15*
%TO.P,C34,1*%
%TO.N,/VREF_HIGH*%
X175157143Y-102125000D03*
%TO.P,C34,2*%
%TO.N,GND*%
X175157143Y-103675000D03*
%TD*%
D12*
%TO.P,C6,1*%
%TO.N,+5V*%
X158242857Y-97625000D03*
%TO.P,C6,2*%
%TO.N,GND*%
X156692857Y-97625000D03*
%TD*%
D17*
%TO.P,D14,1,K*%
%TO.N,Net-(D14-K)*%
X148667857Y-107050000D03*
%TO.P,D14,2,A*%
%TO.N,GND*%
X145367857Y-107050000D03*
%TD*%
D18*
%TO.P,U2,1*%
%TO.N,Net-(RN3C-R3.1)*%
X88125000Y-99585000D03*
%TO.P,U2,2,-*%
%TO.N,Net-(D3-K)*%
X88125000Y-100855000D03*
%TO.P,U2,3,+*%
%TO.N,/VREF_HIGH*%
X88125000Y-102125000D03*
%TO.P,U2,4,V-*%
%TO.N,GND*%
X88125000Y-103395000D03*
%TO.P,U2,5,+*%
%TO.N,Net-(D3-K)*%
X93075000Y-103395000D03*
%TO.P,U2,6,-*%
%TO.N,/VREF_LOW*%
X93075000Y-102125000D03*
%TO.P,U2,7*%
%TO.N,Net-(RN3D-R4.1)*%
X93075000Y-100855000D03*
%TO.P,U2,8,V+*%
%TO.N,+5V*%
X93075000Y-99585000D03*
%TD*%
%TO.P,U1,1*%
%TO.N,Net-(RN3A-R1.1)*%
X76825000Y-99495000D03*
%TO.P,U1,2,-*%
%TO.N,Net-(D2-K)*%
X76825000Y-100765000D03*
%TO.P,U1,3,+*%
%TO.N,/VREF_HIGH*%
X76825000Y-102035000D03*
%TO.P,U1,4,V-*%
%TO.N,GND*%
X76825000Y-103305000D03*
%TO.P,U1,5,+*%
%TO.N,Net-(D2-K)*%
X81775000Y-103305000D03*
%TO.P,U1,6,-*%
%TO.N,/VREF_LOW*%
X81775000Y-102035000D03*
%TO.P,U1,7*%
%TO.N,Net-(RN3B-R2.1)*%
X81775000Y-100765000D03*
%TO.P,U1,8,V+*%
%TO.N,+5V*%
X81775000Y-99495000D03*
%TD*%
D17*
%TO.P,D27,1,K*%
%TO.N,Net-(D27-K)*%
X204471429Y-107125000D03*
%TO.P,D27,2,A*%
%TO.N,GND*%
X201171429Y-107125000D03*
%TD*%
D15*
%TO.P,C25,1*%
%TO.N,/VREF_LOW*%
X162092857Y-102125000D03*
%TO.P,C25,2*%
%TO.N,GND*%
X162092857Y-103675000D03*
%TD*%
D35*
%TO.P,C17,1*%
%TO.N,/power supply/+VIN_PROTECTED*%
X87270000Y-69645000D03*
%TO.P,C17,2*%
%TO.N,GND*%
X87270000Y-65245000D03*
%TD*%
D12*
%TO.P,C57,1*%
%TO.N,Net-(D14-K)*%
X148342857Y-105000000D03*
%TO.P,C57,2*%
%TO.N,GND*%
X146792857Y-105000000D03*
%TD*%
D18*
%TO.P,U3,1*%
%TO.N,Net-(RN6A-R1.1)*%
X121403571Y-99495000D03*
%TO.P,U3,2,-*%
%TO.N,Net-(D8-K)*%
X121403571Y-100765000D03*
%TO.P,U3,3,+*%
%TO.N,/VREF_HIGH*%
X121403571Y-102035000D03*
%TO.P,U3,4,V-*%
%TO.N,GND*%
X121403571Y-103305000D03*
%TO.P,U3,5,+*%
%TO.N,Net-(D8-K)*%
X126353571Y-103305000D03*
%TO.P,U3,6,-*%
%TO.N,/VREF_LOW*%
X126353571Y-102035000D03*
%TO.P,U3,7*%
%TO.N,Net-(RN6B-R2.1)*%
X126353571Y-100765000D03*
%TO.P,U3,8,V+*%
%TO.N,+5V*%
X126353571Y-99495000D03*
%TD*%
D36*
%TO.P,D1,1,K*%
%TO.N,GND*%
X71450000Y-106600000D03*
%TO.P,D1,2,A*%
%TO.N,Net-(D1-A)*%
X71450000Y-104725000D03*
%TD*%
D15*
%TO.P,C49,1*%
%TO.N,/VREF_LOW*%
X150842857Y-102125000D03*
%TO.P,C49,2*%
%TO.N,GND*%
X150842857Y-103675000D03*
%TD*%
%TO.P,C26,1*%
%TO.N,/VREF_LOW*%
X184382143Y-102125000D03*
%TO.P,C26,2*%
%TO.N,GND*%
X184382143Y-103675000D03*
%TD*%
D12*
%TO.P,C56,1*%
%TO.N,Net-(D8-K)*%
X126053571Y-105000000D03*
%TO.P,C56,2*%
%TO.N,GND*%
X124503571Y-105000000D03*
%TD*%
D27*
%TO.P,C21,1*%
%TO.N,+5V*%
X74285000Y-80615000D03*
%TO.P,C21,2*%
%TO.N,GND*%
X74285000Y-77665000D03*
%TD*%
D19*
%TO.P,RN9,1,R1.1*%
%TO.N,Net-(RN9A-R1.1)*%
X150767857Y-95900000D03*
%TO.P,RN9,2,R2.1*%
%TO.N,Net-(RN9B-R2.1)*%
X151567857Y-95900000D03*
%TO.P,RN9,3,R3.1*%
%TO.N,Net-(RN9C-R3.1)*%
X152367857Y-95900000D03*
%TO.P,RN9,4,R4.1*%
%TO.N,Net-(RN9D-R4.1)*%
X153167857Y-95900000D03*
%TO.P,RN9,5,R4.2*%
%TO.N,Net-(D19-K)*%
X153167857Y-94200000D03*
%TO.P,RN9,6,R3.2*%
%TO.N,Net-(D18-K)*%
X152367857Y-94200000D03*
%TO.P,RN9,7,R2.2*%
%TO.N,Net-(D17-K)*%
X151567857Y-94200000D03*
%TO.P,RN9,8,R1.2*%
%TO.N,Net-(D16-K)*%
X150767857Y-94200000D03*
%TD*%
D12*
%TO.P,C60,1*%
%TO.N,Net-(D32-K)*%
X103764286Y-105000000D03*
%TO.P,C60,2*%
%TO.N,GND*%
X102214286Y-105000000D03*
%TD*%
D13*
%TO.P,J11,1,Pin_1*%
%TO.N,/OUT10*%
X162821053Y-65950000D03*
%TD*%
D37*
%TO.P,SW7,1,1*%
%TO.N,+VIN*%
X141813158Y-73750000D03*
%TO.P,SW7,2,2*%
%TO.N,/OUT7*%
X141813158Y-76950000D03*
%TO.P,SW7,3,3*%
X141813158Y-80150000D03*
%TO.P,SW7,4,4*%
%TO.N,GND*%
X141813158Y-83350000D03*
%TD*%
%TO.P,SW15,1,1*%
%TO.N,+VIN*%
X197897368Y-73750000D03*
%TO.P,SW15,2,2*%
%TO.N,/OUT15*%
X197897368Y-76950000D03*
%TO.P,SW15,3,3*%
X197897368Y-80150000D03*
%TO.P,SW15,4,4*%
%TO.N,GND*%
X197897368Y-83350000D03*
%TD*%
%TO.P,SW20,1,1*%
%TO.N,+VIN*%
X232950000Y-73750000D03*
%TO.P,SW20,2,2*%
%TO.N,/OUT20*%
X232950000Y-76950000D03*
%TO.P,SW20,3,3*%
X232950000Y-80150000D03*
%TO.P,SW20,4,4*%
%TO.N,GND*%
X232950000Y-83350000D03*
%TD*%
%TO.P,SW13,1,1*%
%TO.N,+VIN*%
X183876316Y-73750000D03*
%TO.P,SW13,2,2*%
%TO.N,/OUT13*%
X183876316Y-76950000D03*
%TO.P,SW13,3,3*%
X183876316Y-80150000D03*
%TO.P,SW13,4,4*%
%TO.N,GND*%
X183876316Y-83350000D03*
%TD*%
%TO.P,SW8,1,1*%
%TO.N,+VIN*%
X148823684Y-73750000D03*
%TO.P,SW8,2,2*%
%TO.N,/OUT8*%
X148823684Y-76950000D03*
%TO.P,SW8,3,3*%
X148823684Y-80150000D03*
%TO.P,SW8,4,4*%
%TO.N,GND*%
X148823684Y-83350000D03*
%TD*%
%TO.P,SW10,1,1*%
%TO.N,+VIN*%
X162844737Y-73750000D03*
%TO.P,SW10,2,2*%
%TO.N,/OUT10*%
X162844737Y-76950000D03*
%TO.P,SW10,3,3*%
X162844737Y-80150000D03*
%TO.P,SW10,4,4*%
%TO.N,GND*%
X162844737Y-83350000D03*
%TD*%
%TO.P,SW19,1,1*%
%TO.N,+VIN*%
X225939474Y-73750000D03*
%TO.P,SW19,2,2*%
%TO.N,/OUT19*%
X225939474Y-76950000D03*
%TO.P,SW19,3,3*%
X225939474Y-80150000D03*
%TO.P,SW19,4,4*%
%TO.N,GND*%
X225939474Y-83350000D03*
%TD*%
%TO.P,SW2,1,1*%
%TO.N,+VIN*%
X106760526Y-73750000D03*
%TO.P,SW2,2,2*%
%TO.N,/OUT2*%
X106760526Y-76950000D03*
%TO.P,SW2,3,3*%
X106760526Y-80150000D03*
%TO.P,SW2,4,4*%
%TO.N,GND*%
X106760526Y-83350000D03*
%TD*%
%TO.P,SW17,1,1*%
%TO.N,+VIN*%
X211918421Y-73750000D03*
%TO.P,SW17,2,2*%
%TO.N,/OUT17*%
X211918421Y-76950000D03*
%TO.P,SW17,3,3*%
X211918421Y-80150000D03*
%TO.P,SW17,4,4*%
%TO.N,GND*%
X211918421Y-83350000D03*
%TD*%
%TO.P,SW18,1,1*%
%TO.N,+VIN*%
X218928947Y-73750000D03*
%TO.P,SW18,2,2*%
%TO.N,/OUT18*%
X218928947Y-76950000D03*
%TO.P,SW18,3,3*%
X218928947Y-80150000D03*
%TO.P,SW18,4,4*%
%TO.N,GND*%
X218928947Y-83350000D03*
%TD*%
%TO.P,SW11,1,1*%
%TO.N,+VIN*%
X169855263Y-73750000D03*
%TO.P,SW11,2,2*%
%TO.N,/OUT11*%
X169855263Y-76950000D03*
%TO.P,SW11,3,3*%
X169855263Y-80150000D03*
%TO.P,SW11,4,4*%
%TO.N,GND*%
X169855263Y-83350000D03*
%TD*%
%TO.P,SW9,1,1*%
%TO.N,+VIN*%
X155834211Y-73750000D03*
%TO.P,SW9,2,2*%
%TO.N,/OUT9*%
X155834211Y-76950000D03*
%TO.P,SW9,3,3*%
X155834211Y-80150000D03*
%TO.P,SW9,4,4*%
%TO.N,GND*%
X155834211Y-83350000D03*
%TD*%
%TO.P,SW5,1,1*%
%TO.N,+VIN*%
X127792105Y-73750000D03*
%TO.P,SW5,2,2*%
%TO.N,/OUT5*%
X127792105Y-76950000D03*
%TO.P,SW5,3,3*%
X127792105Y-80150000D03*
%TO.P,SW5,4,4*%
%TO.N,GND*%
X127792105Y-83350000D03*
%TD*%
%TO.P,SW1,1,1*%
%TO.N,+VIN*%
X99750000Y-73750000D03*
%TO.P,SW1,2,2*%
%TO.N,/OUT1*%
X99750000Y-76950000D03*
%TO.P,SW1,3,3*%
X99750000Y-80150000D03*
%TO.P,SW1,4,4*%
%TO.N,GND*%
X99750000Y-83350000D03*
%TD*%
%TO.P,SW16,1,1*%
%TO.N,+VIN*%
X204907895Y-73750000D03*
%TO.P,SW16,2,2*%
%TO.N,/OUT16*%
X204907895Y-76950000D03*
%TO.P,SW16,3,3*%
X204907895Y-80150000D03*
%TO.P,SW16,4,4*%
%TO.N,GND*%
X204907895Y-83350000D03*
%TD*%
%TO.P,SW6,1,1*%
%TO.N,+VIN*%
X134802632Y-73750000D03*
%TO.P,SW6,2,2*%
%TO.N,/OUT6*%
X134802632Y-76950000D03*
%TO.P,SW6,3,3*%
X134802632Y-80150000D03*
%TO.P,SW6,4,4*%
%TO.N,GND*%
X134802632Y-83350000D03*
%TD*%
%TO.P,SW12,1,1*%
%TO.N,+VIN*%
X176865789Y-73750000D03*
%TO.P,SW12,2,2*%
%TO.N,/OUT12*%
X176865789Y-76950000D03*
%TO.P,SW12,3,3*%
X176865789Y-80150000D03*
%TO.P,SW12,4,4*%
%TO.N,GND*%
X176865789Y-83350000D03*
%TD*%
%TO.P,SW14,1,1*%
%TO.N,+VIN*%
X190886842Y-73750000D03*
%TO.P,SW14,2,2*%
%TO.N,/OUT14*%
X190886842Y-76950000D03*
%TO.P,SW14,3,3*%
X190886842Y-80150000D03*
%TO.P,SW14,4,4*%
%TO.N,GND*%
X190886842Y-83350000D03*
%TD*%
%TO.P,SW3,1,1*%
%TO.N,+VIN*%
X113771053Y-73750000D03*
%TO.P,SW3,2,2*%
%TO.N,/OUT3*%
X113771053Y-76950000D03*
%TO.P,SW3,3,3*%
X113771053Y-80150000D03*
%TO.P,SW3,4,4*%
%TO.N,GND*%
X113771053Y-83350000D03*
%TD*%
%TO.P,SW4,1,1*%
%TO.N,+VIN*%
X120781579Y-73750000D03*
%TO.P,SW4,2,2*%
%TO.N,/OUT4*%
X120781579Y-76950000D03*
%TO.P,SW4,3,3*%
X120781579Y-80150000D03*
%TO.P,SW4,4,4*%
%TO.N,GND*%
X120781579Y-83350000D03*
%TD*%
D38*
%TO.N,GND*%
X160000000Y-112000000D03*
X183000000Y-63000000D03*
X88675000Y-65237500D03*
X198000000Y-112000000D03*
X193000000Y-63000000D03*
X197421429Y-104600000D03*
X141000000Y-63000000D03*
X182000000Y-112000000D03*
X242000000Y-104600000D03*
X61000000Y-105000000D03*
X137000000Y-63000000D03*
X151000000Y-63000000D03*
X175000000Y-63000000D03*
X81025000Y-65087500D03*
X61000000Y-71000000D03*
X119228571Y-104525000D03*
X145067857Y-103325000D03*
X167357143Y-103325000D03*
X145000000Y-63000000D03*
X244000000Y-112000000D03*
X187000000Y-63000000D03*
X135153571Y-105050000D03*
X163807143Y-104525000D03*
X99914286Y-107050000D03*
X252000000Y-80000000D03*
X194000000Y-112000000D03*
X156392857Y-103400000D03*
X192000000Y-112000000D03*
X85475000Y-73150000D03*
X61000000Y-89000000D03*
X252000000Y-84000000D03*
X77800000Y-74600000D03*
X111114286Y-107100000D03*
X70000000Y-112000000D03*
X61000000Y-79000000D03*
X106000000Y-112000000D03*
X77800000Y-73800000D03*
X61000000Y-99000000D03*
X235778571Y-108200000D03*
X252000000Y-106000000D03*
X100489286Y-103325000D03*
X94000000Y-112000000D03*
X251000000Y-63000000D03*
X252000000Y-68000000D03*
X178182143Y-97625000D03*
X219000000Y-63000000D03*
X123603571Y-105000000D03*
X77000000Y-63000000D03*
X204000000Y-112000000D03*
X95000000Y-63000000D03*
X252000000Y-86000000D03*
X71850000Y-71725000D03*
X249000000Y-63000000D03*
X152842857Y-104600000D03*
X228960714Y-104600000D03*
X252000000Y-96000000D03*
X85900000Y-65237500D03*
X61000000Y-85000000D03*
X238000000Y-112000000D03*
X83875000Y-65112500D03*
X133403571Y-107100000D03*
X152000000Y-112000000D03*
X117000000Y-63000000D03*
X252000000Y-90000000D03*
X80000000Y-112000000D03*
X79025000Y-105000000D03*
X69000000Y-63000000D03*
X230000000Y-112000000D03*
X223000000Y-63000000D03*
X184382143Y-104600000D03*
X124000000Y-112000000D03*
X196000000Y-112000000D03*
X201000000Y-63000000D03*
X189000000Y-63000000D03*
X190171429Y-98475000D03*
X155000000Y-63000000D03*
X82000000Y-112000000D03*
X61000000Y-75000000D03*
X112100000Y-96800000D03*
X191000000Y-63000000D03*
X61000000Y-107000000D03*
X175132143Y-104600000D03*
X79753571Y-108200000D03*
X209000000Y-63000000D03*
X202021429Y-105050000D03*
X252000000Y-70000000D03*
X141517857Y-104525000D03*
X217000000Y-63000000D03*
X213489285Y-108200000D03*
X88825000Y-107100000D03*
X200271429Y-107100000D03*
X85900000Y-66125000D03*
X252000000Y-100000000D03*
X103000000Y-63000000D03*
X61000000Y-93000000D03*
X158000000Y-112000000D03*
X252000000Y-82000000D03*
X83875000Y-64225000D03*
X132000000Y-112000000D03*
X134000000Y-112000000D03*
X162092857Y-104600000D03*
X178682143Y-103400000D03*
X169000000Y-63000000D03*
X252000000Y-76000000D03*
X90000000Y-112000000D03*
X199000000Y-63000000D03*
X212760714Y-105000000D03*
X91000000Y-63000000D03*
X122778571Y-103325000D03*
X74000000Y-112000000D03*
X155892857Y-97625000D03*
X252000000Y-88000000D03*
X110000000Y-112000000D03*
X243000000Y-63000000D03*
X168182143Y-105000000D03*
X71625000Y-65450000D03*
X79000000Y-63000000D03*
X244850000Y-107100000D03*
X62000000Y-112000000D03*
X133000000Y-63000000D03*
X208385714Y-104525000D03*
X122000000Y-112000000D03*
X252000000Y-78000000D03*
X128000000Y-112000000D03*
X68000000Y-112000000D03*
X250000000Y-112000000D03*
X207000000Y-63000000D03*
X210000000Y-112000000D03*
X235000000Y-63000000D03*
X101314286Y-105000000D03*
X136000000Y-112000000D03*
D39*
X78725000Y-87275000D03*
D38*
X206000000Y-112000000D03*
X184000000Y-112000000D03*
X78775000Y-75525000D03*
X241000000Y-63000000D03*
X173132143Y-104600000D03*
X156000000Y-112000000D03*
X166000000Y-112000000D03*
X61000000Y-95000000D03*
X140000000Y-112000000D03*
X150000000Y-112000000D03*
X223260714Y-103400000D03*
X135557142Y-108300000D03*
X117514286Y-104600000D03*
X205000000Y-63000000D03*
X125000000Y-63000000D03*
X154000000Y-112000000D03*
X147000000Y-63000000D03*
X86000000Y-112000000D03*
X248000000Y-112000000D03*
X162000000Y-112000000D03*
X179732143Y-105050000D03*
X105000000Y-63000000D03*
X124332142Y-108200000D03*
X222560714Y-107100000D03*
X153000000Y-63000000D03*
X88000000Y-112000000D03*
X84433333Y-72250000D03*
X88675000Y-64350000D03*
X77762500Y-76600000D03*
X89825000Y-96700000D03*
X92000000Y-112000000D03*
X134103571Y-103400000D03*
X130553571Y-104600000D03*
X195000000Y-63000000D03*
X61000000Y-111000000D03*
X91800000Y-65800000D03*
X186096429Y-104525000D03*
X75000000Y-63000000D03*
X63000000Y-63000000D03*
X84000000Y-112000000D03*
X145892857Y-105000000D03*
X76000000Y-112000000D03*
X96939286Y-104525000D03*
X189071429Y-107050000D03*
X177982143Y-107100000D03*
X219710714Y-104600000D03*
X252000000Y-74000000D03*
X237000000Y-63000000D03*
X81000000Y-63000000D03*
X242000000Y-112000000D03*
X226000000Y-112000000D03*
X177000000Y-63000000D03*
X161000000Y-63000000D03*
X170000000Y-112000000D03*
X150842857Y-104600000D03*
X171000000Y-63000000D03*
X97000000Y-63000000D03*
X78650000Y-76600000D03*
X108264286Y-104600000D03*
D39*
X78725000Y-90225000D03*
D38*
X123303571Y-98475000D03*
X200971429Y-103400000D03*
X106264286Y-104600000D03*
X240000000Y-104600000D03*
X167000000Y-63000000D03*
X89000000Y-63000000D03*
X252000000Y-98000000D03*
X139803571Y-104600000D03*
X246000000Y-112000000D03*
X61000000Y-77000000D03*
X102042857Y-108200000D03*
X234750000Y-98475000D03*
X119000000Y-63000000D03*
X101014286Y-98475000D03*
X212000000Y-112000000D03*
X127000000Y-63000000D03*
X109000000Y-63000000D03*
X118000000Y-112000000D03*
X73000000Y-63000000D03*
X85000000Y-63000000D03*
X104000000Y-112000000D03*
X129000000Y-63000000D03*
X111000000Y-63000000D03*
X173000000Y-63000000D03*
X203000000Y-63000000D03*
X157442857Y-105050000D03*
X185000000Y-63000000D03*
X222760714Y-97625000D03*
X71000000Y-63000000D03*
X61000000Y-103000000D03*
X61000000Y-91000000D03*
X233650000Y-107050000D03*
X75200000Y-76600000D03*
X251250000Y-104600000D03*
X61000000Y-63000000D03*
X157000000Y-63000000D03*
X181000000Y-63000000D03*
X164000000Y-112000000D03*
X167882143Y-98475000D03*
X61000000Y-83000000D03*
X126000000Y-112000000D03*
X246600000Y-105050000D03*
X74650000Y-104525000D03*
X189646429Y-103325000D03*
X115000000Y-63000000D03*
X252000000Y-66000000D03*
X90575000Y-105050000D03*
X229000000Y-63000000D03*
X190000000Y-112000000D03*
X202000000Y-112000000D03*
X102000000Y-112000000D03*
X144492857Y-107050000D03*
X71675000Y-77800000D03*
X240000000Y-112000000D03*
X128553571Y-104600000D03*
X77625000Y-107050000D03*
X111814286Y-103400000D03*
X65000000Y-63000000D03*
X81025000Y-64200000D03*
X245000000Y-63000000D03*
X149000000Y-63000000D03*
X88675000Y-66125000D03*
X66000000Y-112000000D03*
X252000000Y-94000000D03*
X252000000Y-92000000D03*
X74312500Y-76600000D03*
X131000000Y-63000000D03*
X61000000Y-65000000D03*
X247003571Y-108300000D03*
X91850000Y-74500000D03*
X121000000Y-63000000D03*
X113000000Y-63000000D03*
X143000000Y-63000000D03*
X91025000Y-81575000D03*
X91675000Y-84600000D03*
X107000000Y-63000000D03*
X148000000Y-112000000D03*
X232000000Y-112000000D03*
X138000000Y-112000000D03*
X228000000Y-112000000D03*
X206671429Y-104600000D03*
X146000000Y-112000000D03*
X101000000Y-63000000D03*
X234000000Y-112000000D03*
X76875000Y-76600000D03*
X188000000Y-112000000D03*
X186000000Y-112000000D03*
X120000000Y-112000000D03*
X73425000Y-76600000D03*
X116000000Y-112000000D03*
X100000000Y-112000000D03*
X227000000Y-63000000D03*
X208000000Y-112000000D03*
X235050000Y-105000000D03*
X217710714Y-104600000D03*
X89525000Y-103400000D03*
X61000000Y-67000000D03*
X172000000Y-112000000D03*
X90975000Y-80100000D03*
X239000000Y-63000000D03*
X236000000Y-112000000D03*
X72000000Y-112000000D03*
X197000000Y-63000000D03*
X122203571Y-107050000D03*
X90350000Y-84625000D03*
X83000000Y-63000000D03*
X221000000Y-63000000D03*
X112864286Y-105050000D03*
X81025000Y-65975000D03*
X78000000Y-112000000D03*
X233000000Y-63000000D03*
X176000000Y-112000000D03*
X247000000Y-63000000D03*
X139000000Y-63000000D03*
X113267857Y-108300000D03*
X71425000Y-107562500D03*
X218000000Y-112000000D03*
X98000000Y-112000000D03*
X96000000Y-112000000D03*
X168000000Y-112000000D03*
X211000000Y-63000000D03*
X224310714Y-105050000D03*
X202425000Y-108300000D03*
X135000000Y-63000000D03*
X67000000Y-63000000D03*
X93000000Y-63000000D03*
X99000000Y-63000000D03*
X78850000Y-73075000D03*
X252000000Y-112000000D03*
X157846428Y-108300000D03*
X78725000Y-98475000D03*
X252000000Y-64000000D03*
X252000000Y-72000000D03*
X190471429Y-105000000D03*
X200471429Y-97625000D03*
X90978571Y-108300000D03*
X212460714Y-98475000D03*
X224000000Y-112000000D03*
X71600000Y-67400000D03*
X133603571Y-97625000D03*
X159000000Y-63000000D03*
X85475000Y-74062500D03*
X87000000Y-63000000D03*
X112000000Y-112000000D03*
X61000000Y-73000000D03*
X142000000Y-112000000D03*
X245550000Y-103400000D03*
X191200000Y-108200000D03*
X224714285Y-108300000D03*
X146621428Y-108200000D03*
X245050000Y-97625000D03*
X216000000Y-112000000D03*
X230675000Y-104525000D03*
X114000000Y-112000000D03*
X220000000Y-112000000D03*
X222000000Y-112000000D03*
X61000000Y-87000000D03*
X178000000Y-112000000D03*
X180000000Y-112000000D03*
X215000000Y-63000000D03*
X145592857Y-98475000D03*
X85975000Y-104600000D03*
X168910714Y-108200000D03*
X71850000Y-73512500D03*
X83875000Y-66000000D03*
X225000000Y-63000000D03*
X91800000Y-67900000D03*
X180135714Y-108300000D03*
X83975000Y-104600000D03*
X91825000Y-75325000D03*
X61000000Y-109000000D03*
X85475000Y-74975000D03*
X71850000Y-75300000D03*
X130000000Y-112000000D03*
X213000000Y-63000000D03*
X231000000Y-63000000D03*
X211360714Y-107050000D03*
X144000000Y-112000000D03*
X108000000Y-112000000D03*
X252000000Y-108000000D03*
X165000000Y-63000000D03*
X61000000Y-69000000D03*
X155692857Y-107100000D03*
X179000000Y-63000000D03*
X87375000Y-79625000D03*
X174000000Y-112000000D03*
X163000000Y-63000000D03*
X61000000Y-81000000D03*
X61000000Y-101000000D03*
X61000000Y-97000000D03*
X214000000Y-112000000D03*
X95225000Y-104600000D03*
X123000000Y-63000000D03*
X252000000Y-110000000D03*
X195421429Y-104600000D03*
X166782143Y-107050000D03*
X234225000Y-103325000D03*
X200000000Y-112000000D03*
X64000000Y-112000000D03*
X85900000Y-64350000D03*
X78200000Y-103325000D03*
X211935714Y-103325000D03*
%TO.N,Net-(D4-K)*%
X74900000Y-95000000D03*
%TO.N,Net-(D5-K)*%
X77100000Y-92400000D03*
%TO.N,Net-(D6-K)*%
X85875000Y-92725000D03*
%TO.N,Net-(D7-K)*%
X87600000Y-94250000D03*
%TO.N,Net-(D10-K)*%
X119100000Y-94775000D03*
%TO.N,Net-(D11-K)*%
X121175000Y-93325000D03*
%TO.N,Net-(D12-K)*%
X130226786Y-92951786D03*
%TO.N,Net-(D13-K)*%
X131900000Y-94200000D03*
%TO.N,Net-(D16-K)*%
X141300000Y-94775000D03*
%TO.N,Net-(D17-K)*%
X143350000Y-93350000D03*
%TO.N,Net-(D18-K)*%
X152367857Y-93100000D03*
%TO.N,Net-(D19-K)*%
X154125000Y-94200000D03*
%TO.N,Net-(D22-K)*%
X163500000Y-94775000D03*
%TO.N,Net-(D23-K)*%
X165575000Y-93400000D03*
%TO.N,Net-(D24-K)*%
X174657143Y-93100000D03*
%TO.N,Net-(D25-K)*%
X176375000Y-94200000D03*
%TO.N,Net-(D28-K)*%
X185675000Y-94750000D03*
%TO.N,Net-(D29-K)*%
X187750000Y-93300000D03*
%TO.N,Net-(D30-K)*%
X196946429Y-93100000D03*
%TO.N,Net-(D31-K)*%
X198875000Y-94200000D03*
%TO.N,+5V*%
X230425000Y-99300000D03*
X182232143Y-98875000D03*
X71175000Y-100075000D03*
X74925000Y-99350000D03*
X85400000Y-99350000D03*
X73675000Y-82300000D03*
X152275000Y-99350000D03*
X249100000Y-98850000D03*
X239825000Y-97975000D03*
X163625000Y-99325000D03*
X78953571Y-108375000D03*
X179335714Y-108475000D03*
X123532142Y-108375000D03*
X112467857Y-108475000D03*
X104064286Y-98675000D03*
X212689285Y-108375000D03*
X90178571Y-108475000D03*
X234978571Y-108375000D03*
X74150000Y-99375000D03*
X71675000Y-82300000D03*
X148642857Y-98775000D03*
X168110714Y-108375000D03*
X185575000Y-99300000D03*
X157046428Y-108475000D03*
X174450000Y-99375000D03*
X193221429Y-98800000D03*
X246203571Y-108475000D03*
X159942857Y-98800000D03*
X145821428Y-108375000D03*
X101242857Y-108375000D03*
X170932143Y-98775000D03*
X76675000Y-82300000D03*
X201625000Y-108475000D03*
X134757142Y-108475000D03*
X96875000Y-99275000D03*
X93075000Y-98750000D03*
X74675000Y-82300000D03*
X249750000Y-97500000D03*
X226810714Y-98825000D03*
X141275000Y-99275000D03*
X75675000Y-82300000D03*
X195375000Y-98000000D03*
X215510714Y-98800000D03*
X237800000Y-98800000D03*
X126353571Y-98725000D03*
X72675000Y-82300000D03*
X129950000Y-99375000D03*
X204521429Y-98825000D03*
X81775000Y-98600000D03*
D39*
X71075000Y-87325000D03*
D38*
X107650000Y-99375000D03*
X223914285Y-108475000D03*
D39*
X71100000Y-90200000D03*
D38*
X115364286Y-98725000D03*
X208100000Y-99225000D03*
X190400000Y-108375000D03*
X119200000Y-99275000D03*
X217600000Y-97875000D03*
X137653571Y-98825000D03*
%TO.N,+VIN*%
X74600000Y-67900000D03*
X76925000Y-67900000D03*
X76150000Y-70825000D03*
X75375000Y-70825000D03*
X74600000Y-70825000D03*
X76150000Y-67900000D03*
X75375000Y-67900000D03*
X76925000Y-70825000D03*
%TO.N,Net-(D34-K)*%
X96925000Y-94725000D03*
%TO.N,Net-(D35-K)*%
X99000000Y-93275000D03*
%TO.N,Net-(D37-K)*%
X109725000Y-94200000D03*
%TO.N,Net-(D40-K)*%
X207850000Y-94775000D03*
%TO.N,Net-(D41-K)*%
X209975000Y-93350000D03*
%TO.N,Net-(D43-K)*%
X221050000Y-94200000D03*
%TO.N,Net-(D46-K)*%
X230050000Y-94875000D03*
%TO.N,Net-(D47-K)*%
X232150000Y-93375000D03*
%TO.N,Net-(D49-K)*%
X243225000Y-94200000D03*
D39*
%TO.N,/VREF_HIGH*%
X208485714Y-101050000D03*
D38*
X130603571Y-101025000D03*
D39*
X230775000Y-101050000D03*
D38*
X152892857Y-101025000D03*
X219760714Y-101025000D03*
X197471429Y-101025000D03*
D39*
X119328571Y-101050000D03*
X186196429Y-101050000D03*
D38*
X175182143Y-101025000D03*
X242050000Y-101025000D03*
X108314286Y-101025000D03*
D39*
X97039286Y-101050000D03*
X141617857Y-101050000D03*
X163907143Y-101050000D03*
X74950000Y-90175000D03*
X74750000Y-101050000D03*
D38*
X86025000Y-101025000D03*
%TO.N,/VREF_LOW*%
X124678571Y-102250000D03*
D39*
X74950000Y-87325000D03*
D38*
X191546429Y-102250000D03*
X102389286Y-102250000D03*
X236125000Y-102250000D03*
X169257143Y-102250000D03*
X146967857Y-102250000D03*
X91425000Y-102250000D03*
X136003571Y-102250000D03*
X113714286Y-102250000D03*
X180582143Y-102250000D03*
X80100000Y-102250000D03*
X213835714Y-102250000D03*
X225160714Y-102250000D03*
X247450000Y-102250000D03*
X202871429Y-102250000D03*
X158292857Y-102250000D03*
%TO.N,Net-(D36-K)*%
X108032143Y-92857143D03*
%TO.N,Net-(D42-K)*%
X219367857Y-92967857D03*
%TO.N,Net-(D48-K)*%
X241525000Y-93100000D03*
%TD*%
D40*
%TO.N,GND*%
X200296429Y-107125000D02*
X200271429Y-107100000D01*
X208935714Y-103675000D02*
X209305714Y-103305000D01*
D41*
X210560714Y-103305000D02*
X210790714Y-103305000D01*
D40*
X242025000Y-103675000D02*
X242100000Y-103675000D01*
X88850000Y-107125000D02*
X88825000Y-107100000D01*
X108364286Y-103675000D02*
X108644286Y-103395000D01*
X90975000Y-109300000D02*
X90975000Y-108303571D01*
X244875000Y-107125000D02*
X244850000Y-107100000D01*
X146617857Y-109200000D02*
X146617857Y-108203571D01*
X217710714Y-103675000D02*
X217710714Y-104600000D01*
X224710714Y-108303571D02*
X224714285Y-108300000D01*
X178007143Y-107125000D02*
X177982143Y-107100000D01*
D41*
X78725000Y-97620000D02*
X78725000Y-98475000D01*
D40*
X90058333Y-80100000D02*
X90058333Y-81556667D01*
X235950000Y-105000000D02*
X235050000Y-105000000D01*
X175157143Y-103675000D02*
X175232143Y-103675000D01*
D41*
X223560714Y-97625000D02*
X222760714Y-97625000D01*
D40*
X245750000Y-107125000D02*
X244875000Y-107125000D01*
X86355000Y-103395000D02*
X88125000Y-103395000D01*
X175232143Y-103675000D02*
X175512143Y-103395000D01*
X197446429Y-103675000D02*
X197521429Y-103675000D01*
D41*
X89825000Y-97625000D02*
X89825000Y-96700000D01*
D40*
X146792857Y-105000000D02*
X145892857Y-105000000D01*
D41*
X233100000Y-103325000D02*
X234225000Y-103325000D01*
D40*
X156592857Y-107125000D02*
X155717857Y-107125000D01*
X230675000Y-103675000D02*
X231225000Y-103675000D01*
X91450000Y-105050000D02*
X90575000Y-105050000D01*
X111139286Y-107125000D02*
X111114286Y-107100000D01*
X119228571Y-103675000D02*
X119778571Y-103675000D01*
X213485714Y-108203571D02*
X213489285Y-108200000D01*
X146617857Y-108203571D02*
X146621428Y-108200000D01*
D41*
X101014286Y-97620000D02*
X101014286Y-98475000D01*
X76825000Y-103305000D02*
X77055000Y-103305000D01*
X111809286Y-103395000D02*
X111814286Y-103400000D01*
D40*
X74650000Y-103675000D02*
X74650000Y-104525000D01*
X157842857Y-109300000D02*
X157842857Y-108303571D01*
D41*
X201271429Y-97625000D02*
X200471429Y-97625000D01*
D40*
X206671429Y-103675000D02*
X206671429Y-104600000D01*
D41*
X134403571Y-97625000D02*
X133603571Y-97625000D01*
X71450000Y-107537500D02*
X71425000Y-107562500D01*
D40*
X74650000Y-103675000D02*
X75200000Y-103675000D01*
X123078571Y-107050000D02*
X122203571Y-107050000D01*
X155717857Y-107125000D02*
X155692857Y-107100000D01*
X247000000Y-108303571D02*
X247003571Y-108300000D01*
X197801429Y-103395000D02*
X199571429Y-103395000D01*
X242380000Y-103395000D02*
X244150000Y-103395000D01*
X141517857Y-103675000D02*
X142067857Y-103675000D01*
D41*
X166232143Y-103325000D02*
X167357143Y-103325000D01*
D40*
X113264286Y-109300000D02*
X113264286Y-108303571D01*
X75570000Y-103305000D02*
X76825000Y-103305000D01*
X106264286Y-103675000D02*
X106264286Y-104600000D01*
D42*
X78725000Y-87275000D02*
X77787500Y-87275000D01*
D40*
X186096429Y-103675000D02*
X186646429Y-103675000D01*
X168907143Y-108203571D02*
X168910714Y-108200000D01*
X167657143Y-107050000D02*
X166782143Y-107050000D01*
X117514286Y-103675000D02*
X117514286Y-104600000D01*
X202421429Y-109300000D02*
X202421429Y-108303571D01*
X91020000Y-81570000D02*
X91025000Y-81575000D01*
X197521429Y-103675000D02*
X197801429Y-103395000D01*
X124328571Y-108203571D02*
X124332142Y-108200000D01*
X208385714Y-103675000D02*
X208935714Y-103675000D01*
X119228571Y-103675000D02*
X119228571Y-104525000D01*
X90975000Y-108303571D02*
X90978571Y-108300000D01*
D42*
X87358333Y-80725000D02*
X87358333Y-79641667D01*
D41*
X165982143Y-103305000D02*
X166212143Y-103305000D01*
D40*
X108289286Y-104575000D02*
X108264286Y-104600000D01*
D41*
X121403571Y-103305000D02*
X121633571Y-103305000D01*
D40*
X113264286Y-108303571D02*
X113267857Y-108300000D01*
D41*
X156387857Y-103395000D02*
X156392857Y-103400000D01*
D40*
X219735714Y-103675000D02*
X219735714Y-104575000D01*
D41*
X188271429Y-103305000D02*
X188501429Y-103305000D01*
D40*
X152942857Y-103675000D02*
X153222857Y-103395000D01*
D41*
X145592857Y-97620000D02*
X145592857Y-98475000D01*
X134098571Y-103395000D02*
X134103571Y-103400000D01*
X188521429Y-103325000D02*
X189646429Y-103325000D01*
X210810714Y-103325000D02*
X211935714Y-103325000D01*
D40*
X130578571Y-103675000D02*
X130578571Y-104575000D01*
D41*
X99114286Y-103305000D02*
X99344286Y-103305000D01*
X71450000Y-106600000D02*
X71450000Y-107537500D01*
D40*
X95225000Y-103675000D02*
X95225000Y-104600000D01*
D41*
X199571429Y-103395000D02*
X200966429Y-103395000D01*
D40*
X175512143Y-103395000D02*
X177282143Y-103395000D01*
D41*
X232850000Y-103305000D02*
X233080000Y-103305000D01*
X112100000Y-97610714D02*
X112114286Y-97625000D01*
D40*
X119778571Y-103675000D02*
X120148571Y-103305000D01*
X152867857Y-103675000D02*
X152867857Y-104575000D01*
X142437857Y-103305000D02*
X143692857Y-103305000D01*
X168907143Y-109200000D02*
X168907143Y-108203571D01*
D41*
X143692857Y-103305000D02*
X143922857Y-103305000D01*
D40*
X97489286Y-103675000D02*
X97859286Y-103305000D01*
X201171429Y-107125000D02*
X200296429Y-107125000D01*
X186646429Y-103675000D02*
X187016429Y-103305000D01*
X209305714Y-103305000D02*
X210560714Y-103305000D01*
X139803571Y-103675000D02*
X139803571Y-104600000D01*
X153222857Y-103395000D02*
X154992857Y-103395000D01*
X187016429Y-103305000D02*
X188271429Y-103305000D01*
X108289286Y-103675000D02*
X108289286Y-104575000D01*
X152867857Y-103675000D02*
X152942857Y-103675000D01*
X202896429Y-105050000D02*
X202021429Y-105050000D01*
X90058333Y-81556667D02*
X90045000Y-81570000D01*
X163807143Y-103675000D02*
X163807143Y-104525000D01*
D41*
X177282143Y-103395000D02*
X178677143Y-103395000D01*
X99344286Y-103305000D02*
X99364286Y-103325000D01*
D42*
X77787500Y-87275000D02*
X77712500Y-87350000D01*
D40*
X224710714Y-109300000D02*
X224710714Y-108303571D01*
D41*
X212460714Y-97620000D02*
X212460714Y-98475000D01*
D40*
X89725000Y-107125000D02*
X88850000Y-107125000D01*
X191196429Y-108203571D02*
X191200000Y-108200000D01*
X195421429Y-103675000D02*
X195421429Y-104600000D01*
X100789286Y-107050000D02*
X99914286Y-107050000D01*
X197446429Y-104575000D02*
X197421429Y-104600000D01*
X86075000Y-103675000D02*
X86355000Y-103395000D01*
X90045000Y-81570000D02*
X91020000Y-81570000D01*
X102214286Y-105000000D02*
X101314286Y-105000000D01*
X234525000Y-107050000D02*
X233650000Y-107050000D01*
D41*
X156692857Y-97625000D02*
X155892857Y-97625000D01*
X210790714Y-103305000D02*
X210810714Y-103325000D01*
D40*
X102039286Y-109200000D02*
X102039286Y-108203571D01*
X112014286Y-107125000D02*
X111139286Y-107125000D01*
D41*
X200966429Y-103395000D02*
X200971429Y-103400000D01*
D40*
X86000000Y-104575000D02*
X85975000Y-104600000D01*
D42*
X78725000Y-90225000D02*
X77737500Y-90225000D01*
D40*
X90058333Y-80100000D02*
X90975000Y-80100000D01*
X223460714Y-107125000D02*
X222585714Y-107125000D01*
X130653571Y-103675000D02*
X130933571Y-103395000D01*
X228960714Y-103675000D02*
X228960714Y-104600000D01*
X242025000Y-104575000D02*
X242000000Y-104600000D01*
D41*
X221860714Y-103395000D02*
X223255714Y-103395000D01*
D40*
X191196429Y-109200000D02*
X191196429Y-108203571D01*
X141517857Y-103675000D02*
X141517857Y-104525000D01*
X135553571Y-108303571D02*
X135557142Y-108300000D01*
X102039286Y-108203571D02*
X102042857Y-108200000D01*
D41*
X77075000Y-103325000D02*
X78200000Y-103325000D01*
X190171429Y-97620000D02*
X190171429Y-98475000D01*
X77055000Y-103305000D02*
X77075000Y-103325000D01*
X166212143Y-103305000D02*
X166232143Y-103325000D01*
D40*
X251250000Y-103675000D02*
X251250000Y-104600000D01*
X180607143Y-105050000D02*
X179732143Y-105050000D01*
X158317857Y-105050000D02*
X157442857Y-105050000D01*
D41*
X188501429Y-103305000D02*
X188521429Y-103325000D01*
D40*
X130933571Y-103395000D02*
X132703571Y-103395000D01*
X163807143Y-103675000D02*
X164357143Y-103675000D01*
X124503571Y-105000000D02*
X123603571Y-105000000D01*
D41*
X99364286Y-103325000D02*
X100489286Y-103325000D01*
D40*
X180132143Y-109300000D02*
X180132143Y-108303571D01*
X222585714Y-107125000D02*
X222560714Y-107100000D01*
D41*
X178677143Y-103395000D02*
X178682143Y-103400000D01*
D40*
X230675000Y-103675000D02*
X230675000Y-104525000D01*
X134303571Y-107125000D02*
X133428571Y-107125000D01*
X175157143Y-103675000D02*
X175157143Y-104575000D01*
D41*
X223255714Y-103395000D02*
X223260714Y-103400000D01*
D40*
X78500000Y-107050000D02*
X77625000Y-107050000D01*
D41*
X245545000Y-103395000D02*
X245550000Y-103400000D01*
D40*
X130578571Y-104575000D02*
X130553571Y-104600000D01*
X133428571Y-107125000D02*
X133403571Y-107100000D01*
D41*
X167882143Y-97620000D02*
X167882143Y-98475000D01*
D40*
X242025000Y-103675000D02*
X242025000Y-104575000D01*
X184382143Y-103675000D02*
X184382143Y-104600000D01*
X135553571Y-109300000D02*
X135553571Y-108303571D01*
D41*
X143922857Y-103305000D02*
X143942857Y-103325000D01*
X112100000Y-96800000D02*
X112100000Y-97610714D01*
D40*
X79750000Y-109200000D02*
X79750000Y-108203571D01*
X162092857Y-103675000D02*
X162092857Y-104600000D01*
D41*
X88125000Y-103395000D02*
X89520000Y-103395000D01*
X245850000Y-97625000D02*
X245050000Y-97625000D01*
D40*
X247475000Y-105050000D02*
X246600000Y-105050000D01*
D41*
X110414286Y-103395000D02*
X111809286Y-103395000D01*
D40*
X173132143Y-103675000D02*
X173132143Y-104600000D01*
X202421429Y-108303571D02*
X202425000Y-108300000D01*
D41*
X121633571Y-103305000D02*
X121653571Y-103325000D01*
D40*
X208385714Y-103675000D02*
X208385714Y-104525000D01*
D41*
X178982143Y-97625000D02*
X178182143Y-97625000D01*
D40*
X186096429Y-103675000D02*
X186096429Y-104525000D01*
X180132143Y-108303571D02*
X180135714Y-108300000D01*
X220090714Y-103395000D02*
X221860714Y-103395000D01*
X189946429Y-107050000D02*
X189071429Y-107050000D01*
X178882143Y-107125000D02*
X178007143Y-107125000D01*
X75200000Y-103675000D02*
X75570000Y-103305000D01*
X86000000Y-103675000D02*
X86000000Y-104575000D01*
X157842857Y-108303571D02*
X157846428Y-108300000D01*
X142067857Y-103675000D02*
X142437857Y-103305000D01*
X219810714Y-103675000D02*
X220090714Y-103395000D01*
D41*
X132703571Y-103395000D02*
X134098571Y-103395000D01*
D40*
X79750000Y-108203571D02*
X79753571Y-108200000D01*
D42*
X87358333Y-79641667D02*
X87375000Y-79625000D01*
D41*
X244150000Y-103395000D02*
X245545000Y-103395000D01*
D40*
X231225000Y-103675000D02*
X231595000Y-103305000D01*
X242100000Y-103675000D02*
X242380000Y-103395000D01*
X213660714Y-105000000D02*
X212760714Y-105000000D01*
X240000000Y-103675000D02*
X240000000Y-104600000D01*
X235775000Y-109200000D02*
X235775000Y-108203571D01*
X97859286Y-103305000D02*
X99114286Y-103305000D01*
X175157143Y-104575000D02*
X175132143Y-104600000D01*
X83975000Y-103675000D02*
X83975000Y-104600000D01*
X197446429Y-103675000D02*
X197446429Y-104575000D01*
X108289286Y-103675000D02*
X108364286Y-103675000D01*
X152867857Y-104575000D02*
X152842857Y-104600000D01*
X213485714Y-109200000D02*
X213485714Y-108203571D01*
X247000000Y-109300000D02*
X247000000Y-108303571D01*
D41*
X121653571Y-103325000D02*
X122778571Y-103325000D01*
D40*
X164727143Y-103305000D02*
X165982143Y-103305000D01*
D41*
X123303571Y-97620000D02*
X123303571Y-98475000D01*
X89520000Y-103395000D02*
X89525000Y-103400000D01*
D40*
X164357143Y-103675000D02*
X164727143Y-103305000D01*
X219735714Y-104575000D02*
X219710714Y-104600000D01*
X96939286Y-103675000D02*
X96939286Y-104525000D01*
X86000000Y-103675000D02*
X86075000Y-103675000D01*
D41*
X233080000Y-103305000D02*
X233100000Y-103325000D01*
D40*
X150842857Y-103675000D02*
X150842857Y-104600000D01*
X191371429Y-105000000D02*
X190471429Y-105000000D01*
X212235714Y-107050000D02*
X211360714Y-107050000D01*
X145367857Y-107050000D02*
X144492857Y-107050000D01*
X231595000Y-103305000D02*
X232850000Y-103305000D01*
D41*
X154992857Y-103395000D02*
X156387857Y-103395000D01*
D40*
X225185714Y-105050000D02*
X224310714Y-105050000D01*
X235775000Y-108203571D02*
X235778571Y-108200000D01*
D41*
X143942857Y-103325000D02*
X145067857Y-103325000D01*
X234750000Y-97620000D02*
X234750000Y-98475000D01*
D42*
X77737500Y-90225000D02*
X77712500Y-90200000D01*
D40*
X130578571Y-103675000D02*
X130653571Y-103675000D01*
X136028571Y-105050000D02*
X135153571Y-105050000D01*
X169082143Y-105000000D02*
X168182143Y-105000000D01*
X124328571Y-109200000D02*
X124328571Y-108203571D01*
X128553571Y-103675000D02*
X128553571Y-104600000D01*
X219735714Y-103675000D02*
X219810714Y-103675000D01*
X113739286Y-105050000D02*
X112864286Y-105050000D01*
X108644286Y-103395000D02*
X110414286Y-103395000D01*
X120148571Y-103305000D02*
X121403571Y-103305000D01*
X79925000Y-105000000D02*
X79025000Y-105000000D01*
D43*
%TO.N,/OUT1*%
X99750000Y-65950000D02*
X102025000Y-68225000D01*
X102025000Y-74675000D02*
X99750000Y-76950000D01*
X99750000Y-80150000D02*
X99750000Y-76950000D01*
X102025000Y-68225000D02*
X102025000Y-74675000D01*
%TO.N,/OUT2*%
X109032895Y-68225000D02*
X109032895Y-74675000D01*
X106760526Y-80150000D02*
X106760526Y-76950000D01*
X109032895Y-74675000D02*
X106757895Y-76950000D01*
X106757895Y-65950000D02*
X109032895Y-68225000D01*
%TO.N,/OUT3*%
X113765789Y-65950000D02*
X116040789Y-68225000D01*
X113771053Y-80150000D02*
X113771053Y-76950000D01*
X116040789Y-68225000D02*
X116040789Y-74675000D01*
X116040789Y-74675000D02*
X113765789Y-76950000D01*
%TO.N,/OUT4*%
X123048684Y-74675000D02*
X120773684Y-76950000D01*
X120781579Y-76950000D02*
X120781579Y-80150000D01*
X120773684Y-65950000D02*
X123048684Y-68225000D01*
X123048684Y-68225000D02*
X123048684Y-74675000D01*
%TO.N,/OUT5*%
X130056579Y-74675000D02*
X127781579Y-76950000D01*
X130056579Y-68225000D02*
X130056579Y-74675000D01*
X127792105Y-76950000D02*
X127792105Y-80150000D01*
X127781579Y-65950000D02*
X130056579Y-68225000D01*
%TO.N,/OUT6*%
X137064474Y-74675000D02*
X134789474Y-76950000D01*
X137064474Y-68225000D02*
X137064474Y-74675000D01*
X134789474Y-65950000D02*
X137064474Y-68225000D01*
X134802632Y-76950000D02*
X134802632Y-80150000D01*
%TO.N,/OUT7*%
X144072368Y-68225000D02*
X144072368Y-74675000D01*
X144072368Y-74675000D02*
X141797368Y-76950000D01*
X141813158Y-76950000D02*
X141813158Y-80150000D01*
X141797368Y-65950000D02*
X144072368Y-68225000D01*
%TO.N,/OUT8*%
X148805263Y-65950000D02*
X151080263Y-68225000D01*
X148823684Y-76950000D02*
X148823684Y-80150000D01*
X151080263Y-68225000D02*
X151080263Y-74675000D01*
X151080263Y-74675000D02*
X148805263Y-76950000D01*
%TO.N,/OUT9*%
X158088158Y-68225000D02*
X158088158Y-74675000D01*
X155834211Y-76950000D02*
X155834211Y-80150000D01*
X155813158Y-65950000D02*
X158088158Y-68225000D01*
X158088158Y-74675000D02*
X155813158Y-76950000D01*
%TO.N,/OUT10*%
X162844737Y-76950000D02*
X162844737Y-80150000D01*
X162821053Y-65950000D02*
X165096053Y-68225000D01*
X165096053Y-68225000D02*
X165096053Y-74675000D01*
X165096053Y-74675000D02*
X162821053Y-76950000D01*
%TO.N,/OUT11*%
X169828947Y-65950000D02*
X172103947Y-68225000D01*
X172103947Y-68225000D02*
X172103947Y-74675000D01*
X172103947Y-74675000D02*
X169828947Y-76950000D01*
X169855263Y-76950000D02*
X169855263Y-80150000D01*
%TO.N,/OUT12*%
X176836842Y-65950000D02*
X179111842Y-68225000D01*
X176865789Y-76950000D02*
X176865789Y-80150000D01*
X179111842Y-74675000D02*
X176836842Y-76950000D01*
X179111842Y-68225000D02*
X179111842Y-74675000D01*
%TO.N,/OUT13*%
X186119737Y-68225000D02*
X186119737Y-74675000D01*
X183876316Y-76950000D02*
X183876316Y-80150000D01*
X183844737Y-65950000D02*
X186119737Y-68225000D01*
X186119737Y-74675000D02*
X183844737Y-76950000D01*
%TO.N,/OUT14*%
X193127632Y-74675000D02*
X190852632Y-76950000D01*
X190886842Y-76950000D02*
X190886842Y-80150000D01*
X193127632Y-68225000D02*
X193127632Y-74675000D01*
X190852632Y-65950000D02*
X193127632Y-68225000D01*
%TO.N,/OUT15*%
X197897368Y-76950000D02*
X197897368Y-80150000D01*
X200135526Y-68225000D02*
X200135526Y-74675000D01*
X200135526Y-74675000D02*
X197860526Y-76950000D01*
X197860526Y-65950000D02*
X200135526Y-68225000D01*
%TO.N,/OUT16*%
X207143421Y-68225000D02*
X207143421Y-74675000D01*
X207143421Y-74675000D02*
X204868421Y-76950000D01*
X204907895Y-76950000D02*
X204907895Y-80150000D01*
X204868421Y-65950000D02*
X207143421Y-68225000D01*
%TO.N,/OUT17*%
X214151316Y-68225000D02*
X214151316Y-74675000D01*
X214151316Y-74675000D02*
X211876316Y-76950000D01*
X211876316Y-65950000D02*
X214151316Y-68225000D01*
X211918421Y-76950000D02*
X211918421Y-80150000D01*
%TO.N,/OUT18*%
X221159211Y-68225000D02*
X221159211Y-74675000D01*
X218928947Y-76950000D02*
X218928947Y-80150000D01*
X218884211Y-65950000D02*
X221159211Y-68225000D01*
X221159211Y-74675000D02*
X218884211Y-76950000D01*
%TO.N,/OUT19*%
X228167105Y-68225000D02*
X228167105Y-74675000D01*
X228167105Y-74675000D02*
X225892105Y-76950000D01*
X225939474Y-76950000D02*
X225939474Y-80150000D01*
X225892105Y-65950000D02*
X228167105Y-68225000D01*
%TO.N,/OUT20*%
X235175000Y-74675000D02*
X232900000Y-76950000D01*
X232900000Y-65950000D02*
X235175000Y-68225000D01*
X232950000Y-76950000D02*
X232950000Y-80150000D01*
X235175000Y-68225000D02*
X235175000Y-74675000D01*
D42*
%TO.N,/power supply/+VIN_PROTECTED*%
X87358333Y-69733333D02*
X87270000Y-69645000D01*
D44*
X87358333Y-78450000D02*
X87358333Y-69733333D01*
D40*
%TO.N,Net-(D2-K)*%
X80550000Y-109200000D02*
X80550000Y-107300000D01*
X81475000Y-105000000D02*
X81475000Y-105725000D01*
X81475000Y-105000000D02*
X81475000Y-104300000D01*
X81475000Y-104300000D02*
X81775000Y-104000000D01*
X79064286Y-102685000D02*
X79684286Y-103305000D01*
X76825000Y-100765000D02*
X78069286Y-100765000D01*
X78069286Y-100765000D02*
X79064286Y-101760000D01*
X81800000Y-106050000D02*
X81800000Y-107050000D01*
X80800000Y-107050000D02*
X81800000Y-107050000D01*
X80550000Y-107300000D02*
X80800000Y-107050000D01*
X81475000Y-105725000D02*
X81800000Y-106050000D01*
X79064286Y-101760000D02*
X79064286Y-102685000D01*
X81775000Y-104000000D02*
X81775000Y-103305000D01*
X79684286Y-103305000D02*
X81775000Y-103305000D01*
%TO.N,Net-(D3-K)*%
X92125000Y-107125000D02*
X93025000Y-107125000D01*
X93000000Y-103470000D02*
X93075000Y-103395000D01*
X90364286Y-102775000D02*
X90984286Y-103395000D01*
X90984286Y-103395000D02*
X93075000Y-103395000D01*
X88125000Y-100855000D02*
X89369286Y-100855000D01*
X91775000Y-107475000D02*
X92125000Y-107125000D01*
X89369286Y-100855000D02*
X90364286Y-101850000D01*
X93025000Y-105075000D02*
X93000000Y-105050000D01*
X91775000Y-109300000D02*
X91775000Y-107475000D01*
X93000000Y-105050000D02*
X93000000Y-103470000D01*
X90364286Y-101850000D02*
X90364286Y-102775000D01*
X93025000Y-107125000D02*
X93025000Y-105075000D01*
D41*
%TO.N,Net-(D4-K)*%
X74850000Y-94950000D02*
X74900000Y-95000000D01*
X83575000Y-93125000D02*
X76675000Y-93125000D01*
X83625000Y-93175000D02*
X83575000Y-93125000D01*
X76675000Y-93125000D02*
X75750000Y-93125000D01*
X75750000Y-93125000D02*
X74850000Y-94025000D01*
X74850000Y-94025000D02*
X74850000Y-94950000D01*
X83900000Y-94200000D02*
X83900000Y-93450000D01*
X83900000Y-93450000D02*
X83625000Y-93175000D01*
%TO.N,Net-(D5-K)*%
X77125000Y-92375000D02*
X77100000Y-92400000D01*
X84700000Y-92950000D02*
X84125000Y-92375000D01*
X84700000Y-94200000D02*
X84700000Y-92950000D01*
X84125000Y-92375000D02*
X77125000Y-92375000D01*
%TO.N,Net-(D6-K)*%
X85500000Y-94200000D02*
X85500000Y-93100000D01*
X85500000Y-93100000D02*
X85875000Y-92725000D01*
%TO.N,Net-(D7-K)*%
X87600000Y-94250000D02*
X86350000Y-94250000D01*
X86350000Y-94250000D02*
X86300000Y-94200000D01*
D40*
%TO.N,Net-(D8-K)*%
X126053571Y-105000000D02*
X126053571Y-104300000D01*
X126053571Y-104300000D02*
X126353571Y-104000000D01*
X126053571Y-105000000D02*
X126053571Y-105725000D01*
X123642857Y-102685000D02*
X124262857Y-103305000D01*
X125128571Y-109200000D02*
X125128571Y-107300000D01*
X125128571Y-107300000D02*
X125378571Y-107050000D01*
X126053571Y-105725000D02*
X126378571Y-106050000D01*
X125378571Y-107050000D02*
X126378571Y-107050000D01*
X126378571Y-106050000D02*
X126378571Y-107050000D01*
X124262857Y-103305000D02*
X126353571Y-103305000D01*
X121403571Y-100765000D02*
X122647857Y-100765000D01*
X122647857Y-100765000D02*
X123642857Y-101760000D01*
X126353571Y-104000000D02*
X126353571Y-103305000D01*
X123642857Y-101760000D02*
X123642857Y-102685000D01*
%TO.N,Net-(D9-K)*%
X137603571Y-107125000D02*
X137603571Y-105075000D01*
X137578571Y-105050000D02*
X137578571Y-103470000D01*
X136353571Y-107475000D02*
X136703571Y-107125000D01*
X135562857Y-103395000D02*
X137653571Y-103395000D01*
X137578571Y-103470000D02*
X137653571Y-103395000D01*
X132703571Y-100855000D02*
X133947857Y-100855000D01*
X133947857Y-100855000D02*
X134942857Y-101850000D01*
X136703571Y-107125000D02*
X137603571Y-107125000D01*
X134942857Y-102775000D02*
X135562857Y-103395000D01*
X136353571Y-109300000D02*
X136353571Y-107475000D01*
X137603571Y-105075000D02*
X137578571Y-105050000D01*
X134942857Y-101850000D02*
X134942857Y-102775000D01*
D41*
%TO.N,Net-(D10-K)*%
X128478571Y-94200000D02*
X123500000Y-94200000D01*
X123500000Y-94200000D02*
X119675000Y-94200000D01*
X119675000Y-94200000D02*
X119100000Y-94775000D01*
%TO.N,Net-(D11-K)*%
X129278571Y-94200000D02*
X129278571Y-93025000D01*
X129278571Y-93025000D02*
X129014285Y-92760715D01*
X121739285Y-92760715D02*
X121175000Y-93325000D01*
X129014285Y-92760715D02*
X121739285Y-92760715D01*
%TO.N,Net-(D12-K)*%
X130078571Y-94200000D02*
X130078571Y-93100000D01*
X130078571Y-93100000D02*
X130226786Y-92951786D01*
%TO.N,Net-(D13-K)*%
X130878571Y-94200000D02*
X131900000Y-94200000D01*
D40*
%TO.N,Net-(D14-K)*%
X148342857Y-105000000D02*
X148342857Y-104300000D01*
X144937143Y-100765000D02*
X145932143Y-101760000D01*
X146552143Y-103305000D02*
X148642857Y-103305000D01*
X143692857Y-100765000D02*
X144937143Y-100765000D01*
X148642857Y-104000000D02*
X148642857Y-103305000D01*
X145932143Y-101760000D02*
X145932143Y-102685000D01*
X148342857Y-105725000D02*
X148667857Y-106050000D01*
X147417857Y-109200000D02*
X147417857Y-107300000D01*
X147667857Y-107050000D02*
X148667857Y-107050000D01*
X147417857Y-107300000D02*
X147667857Y-107050000D01*
X148342857Y-105000000D02*
X148342857Y-105725000D01*
X148667857Y-106050000D02*
X148667857Y-107050000D01*
X145932143Y-102685000D02*
X146552143Y-103305000D01*
X148342857Y-104300000D02*
X148642857Y-104000000D01*
%TO.N,Net-(D15-K)*%
X159867857Y-105050000D02*
X159867857Y-103470000D01*
X156237143Y-100855000D02*
X157232143Y-101850000D01*
X159892857Y-105075000D02*
X159867857Y-105050000D01*
X157232143Y-101850000D02*
X157232143Y-102775000D01*
X154992857Y-100855000D02*
X156237143Y-100855000D01*
X159867857Y-103470000D02*
X159942857Y-103395000D01*
X157852143Y-103395000D02*
X159942857Y-103395000D01*
X158992857Y-107125000D02*
X159892857Y-107125000D01*
X158642857Y-107475000D02*
X158992857Y-107125000D01*
X159892857Y-107125000D02*
X159892857Y-105075000D01*
X158642857Y-109300000D02*
X158642857Y-107475000D01*
X157232143Y-102775000D02*
X157852143Y-103395000D01*
D41*
%TO.N,Net-(D16-K)*%
X147275000Y-94200000D02*
X141875000Y-94200000D01*
X150767857Y-94200000D02*
X147275000Y-94200000D01*
X141875000Y-94200000D02*
X141300000Y-94775000D01*
%TO.N,Net-(D17-K)*%
X151567857Y-93025000D02*
X151308929Y-92766071D01*
X143933929Y-92766071D02*
X143350000Y-93350000D01*
X151567857Y-94200000D02*
X151567857Y-93025000D01*
X151308929Y-92766071D02*
X143933929Y-92766071D01*
%TO.N,Net-(D18-K)*%
X152367857Y-94200000D02*
X152367857Y-93100000D01*
%TO.N,Net-(D19-K)*%
X153167857Y-94200000D02*
X154125000Y-94200000D01*
D40*
%TO.N,Net-(D20-K)*%
X170632143Y-105000000D02*
X170632143Y-104300000D01*
X170932143Y-104000000D02*
X170932143Y-103305000D01*
X170632143Y-104300000D02*
X170932143Y-104000000D01*
X169707143Y-107300000D02*
X169957143Y-107050000D01*
X170632143Y-105725000D02*
X170957143Y-106050000D01*
X169707143Y-109200000D02*
X169707143Y-107300000D01*
X170632143Y-105000000D02*
X170632143Y-105725000D01*
X168221429Y-102685000D02*
X168841429Y-103305000D01*
X168841429Y-103305000D02*
X170932143Y-103305000D01*
X165982143Y-100765000D02*
X167226429Y-100765000D01*
X170957143Y-106050000D02*
X170957143Y-107050000D01*
X169957143Y-107050000D02*
X170957143Y-107050000D01*
X168221429Y-101760000D02*
X168221429Y-102685000D01*
X167226429Y-100765000D02*
X168221429Y-101760000D01*
%TO.N,Net-(D21-K)*%
X182157143Y-105050000D02*
X182157143Y-103470000D01*
X179521429Y-102775000D02*
X180141429Y-103395000D01*
X182182143Y-105075000D02*
X182157143Y-105050000D01*
X179521429Y-101850000D02*
X179521429Y-102775000D01*
X182157143Y-103470000D02*
X182232143Y-103395000D01*
X178526429Y-100855000D02*
X179521429Y-101850000D01*
X182182143Y-107125000D02*
X182182143Y-105075000D01*
X180932143Y-107475000D02*
X181282143Y-107125000D01*
X177282143Y-100855000D02*
X178526429Y-100855000D01*
X180141429Y-103395000D02*
X182232143Y-103395000D01*
X181282143Y-107125000D02*
X182182143Y-107125000D01*
X180932143Y-109300000D02*
X180932143Y-107475000D01*
D41*
%TO.N,Net-(D22-K)*%
X164075000Y-94200000D02*
X163500000Y-94775000D01*
X168350000Y-94200000D02*
X164075000Y-94200000D01*
X173057143Y-94200000D02*
X168350000Y-94200000D01*
%TO.N,Net-(D23-K)*%
X173857143Y-94200000D02*
X173857143Y-93025000D01*
X173478571Y-92646429D02*
X166328571Y-92646429D01*
X173857143Y-93025000D02*
X173478571Y-92646429D01*
X166328571Y-92646429D02*
X165575000Y-93400000D01*
%TO.N,Net-(D24-K)*%
X174657143Y-94200000D02*
X174657143Y-93100000D01*
%TO.N,Net-(D25-K)*%
X175457143Y-94200000D02*
X176375000Y-94200000D01*
D40*
%TO.N,Net-(D26-K)*%
X192921429Y-105725000D02*
X193246429Y-106050000D01*
X192921429Y-105000000D02*
X192921429Y-105725000D01*
X192246429Y-107050000D02*
X193246429Y-107050000D01*
X188271429Y-100765000D02*
X189515715Y-100765000D01*
X191130715Y-103305000D02*
X193221429Y-103305000D01*
X190510715Y-102685000D02*
X191130715Y-103305000D01*
X190510715Y-101760000D02*
X190510715Y-102685000D01*
X192921429Y-105000000D02*
X192921429Y-104300000D01*
X189515715Y-100765000D02*
X190510715Y-101760000D01*
X193246429Y-106050000D02*
X193246429Y-107050000D01*
X192921429Y-104300000D02*
X193221429Y-104000000D01*
X191996429Y-107300000D02*
X192246429Y-107050000D01*
X193221429Y-104000000D02*
X193221429Y-103305000D01*
X191996429Y-109200000D02*
X191996429Y-107300000D01*
%TO.N,Net-(D27-K)*%
X204446429Y-105050000D02*
X204446429Y-103470000D01*
X201810715Y-102775000D02*
X202430715Y-103395000D01*
X203571429Y-107125000D02*
X204471429Y-107125000D01*
X199571429Y-100855000D02*
X200815715Y-100855000D01*
X204471429Y-105075000D02*
X204446429Y-105050000D01*
X204471429Y-107125000D02*
X204471429Y-105075000D01*
X200815715Y-100855000D02*
X201810715Y-101850000D01*
X203221429Y-109300000D02*
X203221429Y-107475000D01*
X202430715Y-103395000D02*
X204521429Y-103395000D01*
X203221429Y-107475000D02*
X203571429Y-107125000D01*
X204446429Y-103470000D02*
X204521429Y-103395000D01*
X201810715Y-101850000D02*
X201810715Y-102775000D01*
D41*
%TO.N,Net-(D28-K)*%
X191675000Y-94200000D02*
X186225000Y-94200000D01*
X195346429Y-94200000D02*
X191675000Y-94200000D01*
X186225000Y-94200000D02*
X185675000Y-94750000D01*
%TO.N,Net-(D29-K)*%
X195798215Y-92676785D02*
X188373215Y-92676785D01*
X188373215Y-92676785D02*
X187750000Y-93300000D01*
X196146429Y-94200000D02*
X196146429Y-93025000D01*
X196146429Y-93025000D02*
X195798215Y-92676785D01*
%TO.N,Net-(D30-K)*%
X196946429Y-94200000D02*
X196946429Y-93100000D01*
%TO.N,Net-(D31-K)*%
X197746429Y-94200000D02*
X198875000Y-94200000D01*
D40*
%TO.N,Net-(D32-K)*%
X101353572Y-101760000D02*
X101353572Y-102685000D01*
X103764286Y-105000000D02*
X103764286Y-104300000D01*
X102839286Y-107300000D02*
X103089286Y-107050000D01*
X100358572Y-100765000D02*
X101353572Y-101760000D01*
X102839286Y-109200000D02*
X102839286Y-107300000D01*
X103764286Y-105725000D02*
X104089286Y-106050000D01*
X104089286Y-106050000D02*
X104089286Y-107050000D01*
X103764286Y-104300000D02*
X104064286Y-104000000D01*
X101973572Y-103305000D02*
X104064286Y-103305000D01*
X103089286Y-107050000D02*
X104089286Y-107050000D01*
X99114286Y-100765000D02*
X100358572Y-100765000D01*
X104064286Y-104000000D02*
X104064286Y-103305000D01*
X101353572Y-102685000D02*
X101973572Y-103305000D01*
X103764286Y-105000000D02*
X103764286Y-105725000D01*
D41*
%TO.N,Net-(U17-CB)*%
X86408333Y-81503333D02*
X86850000Y-81945000D01*
X86850000Y-81945000D02*
X86850000Y-82810000D01*
X86408333Y-80725000D02*
X86408333Y-81503333D01*
%TO.N,/power supply/SW*%
X85300000Y-82810000D02*
X85300000Y-78485000D01*
%TO.N,+5V*%
X126353571Y-97950000D02*
X126141071Y-97737500D01*
D40*
X168107143Y-109200000D02*
X168107143Y-108503571D01*
D41*
X81775000Y-98250000D02*
X81775000Y-99495000D01*
D40*
X134753571Y-109300000D02*
X134753571Y-108603571D01*
X134757142Y-108600000D02*
X134757142Y-108475000D01*
D41*
X104064286Y-98675000D02*
X104064286Y-99495000D01*
X159542857Y-97625000D02*
X159942857Y-98025000D01*
X148642857Y-97950000D02*
X148430357Y-97737500D01*
D40*
X90178571Y-108600000D02*
X90178571Y-108475000D01*
D41*
X170932143Y-99495000D02*
X170932143Y-97950000D01*
D40*
X234975000Y-109200000D02*
X234975000Y-108503571D01*
X201621429Y-109300000D02*
X201621429Y-108603571D01*
X101239286Y-109200000D02*
X101239286Y-108503571D01*
D41*
X81775000Y-99495000D02*
X81775000Y-98600000D01*
D40*
X90175000Y-108603571D02*
X90178571Y-108600000D01*
X72675000Y-83025000D02*
X72675000Y-82300000D01*
D41*
X126023571Y-97620000D02*
X126141071Y-97737500D01*
X248700000Y-97625000D02*
X249100000Y-98025000D01*
X135953571Y-97625000D02*
X137253571Y-97625000D01*
X159942857Y-98800000D02*
X159942857Y-99585000D01*
D40*
X179335714Y-108600000D02*
X179335714Y-108475000D01*
X190396429Y-108503571D02*
X190400000Y-108500000D01*
D41*
X169432143Y-97620000D02*
X170602143Y-97620000D01*
D40*
X168107143Y-108503571D02*
X168110714Y-108500000D01*
D41*
X215510714Y-98250000D02*
X215510714Y-99495000D01*
D40*
X246200000Y-108603571D02*
X246203571Y-108600000D01*
D41*
X237800000Y-97950000D02*
X237587500Y-97737500D01*
X180532143Y-97625000D02*
X181832143Y-97625000D01*
D40*
X234978571Y-108500000D02*
X234978571Y-108375000D01*
X84375000Y-83675000D02*
X73700000Y-83675000D01*
D41*
X202821429Y-97625000D02*
X204121429Y-97625000D01*
X236300000Y-97620000D02*
X237470000Y-97620000D01*
D40*
X72675000Y-83325000D02*
X72675000Y-83025000D01*
D41*
X148312857Y-97620000D02*
X148430357Y-97737500D01*
X158242857Y-97625000D02*
X159542857Y-97625000D01*
D40*
X145817857Y-108503571D02*
X145821428Y-108500000D01*
X145817857Y-109200000D02*
X145817857Y-108503571D01*
D41*
X126353571Y-99495000D02*
X126353571Y-97950000D01*
X247400000Y-97625000D02*
X248700000Y-97625000D01*
X182232143Y-98025000D02*
X182232143Y-98875000D01*
X192891429Y-97620000D02*
X193008929Y-97737500D01*
X148642857Y-99495000D02*
X148642857Y-97950000D01*
X193221429Y-98800000D02*
X193221429Y-97950000D01*
D40*
X112464286Y-108603571D02*
X112467857Y-108600000D01*
D41*
X204121429Y-97625000D02*
X204521429Y-98025000D01*
X104064286Y-99495000D02*
X104064286Y-97950000D01*
X103734286Y-97620000D02*
X103851786Y-97737500D01*
D40*
X123532142Y-108500000D02*
X123532142Y-108375000D01*
X157042857Y-108603571D02*
X157046428Y-108600000D01*
D41*
X215510714Y-97950000D02*
X215298214Y-97737500D01*
X81775000Y-97950000D02*
X81562500Y-97737500D01*
X215510714Y-99495000D02*
X215510714Y-98800000D01*
X102564286Y-97620000D02*
X103734286Y-97620000D01*
X215180714Y-97620000D02*
X215298214Y-97737500D01*
X170932143Y-98250000D02*
X170932143Y-98775000D01*
D40*
X168110714Y-108500000D02*
X168110714Y-108375000D01*
D42*
X71900000Y-87375000D02*
X71850000Y-87325000D01*
D40*
X201621429Y-108603571D02*
X201625000Y-108600000D01*
D41*
X115364286Y-98025000D02*
X115364286Y-98725000D01*
X226410714Y-97625000D02*
X226810714Y-98025000D01*
X81445000Y-97620000D02*
X81562500Y-97737500D01*
X191721429Y-97620000D02*
X192891429Y-97620000D01*
D40*
X223910714Y-108603571D02*
X223914285Y-108600000D01*
X179332143Y-108603571D02*
X179335714Y-108600000D01*
D41*
X148642857Y-98775000D02*
X148642857Y-99495000D01*
X225110714Y-97625000D02*
X226410714Y-97625000D01*
X80275000Y-97620000D02*
X81445000Y-97620000D01*
X170932143Y-98775000D02*
X170932143Y-99495000D01*
D40*
X90175000Y-109300000D02*
X90175000Y-108603571D01*
D41*
X193221429Y-97950000D02*
X193008929Y-97737500D01*
X237800000Y-98250000D02*
X237800000Y-99495000D01*
D40*
X73700000Y-83675000D02*
X72975000Y-83675000D01*
D41*
X93075000Y-98750000D02*
X93075000Y-99585000D01*
D40*
X101239286Y-108503571D02*
X101242857Y-108500000D01*
X134753571Y-108603571D02*
X134757142Y-108600000D01*
X157042857Y-109300000D02*
X157042857Y-108603571D01*
X223910714Y-109300000D02*
X223910714Y-108603571D01*
D41*
X104064286Y-97950000D02*
X103851786Y-97737500D01*
D42*
X71675000Y-82200000D02*
X71675000Y-80250000D01*
D41*
X204521429Y-98825000D02*
X204521429Y-99585000D01*
X93075000Y-98025000D02*
X93075000Y-98750000D01*
D40*
X246203571Y-108600000D02*
X246203571Y-108475000D01*
D41*
X124853571Y-97620000D02*
X126023571Y-97620000D01*
D40*
X246200000Y-109300000D02*
X246200000Y-108603571D01*
D41*
X71405000Y-101175000D02*
X71405000Y-100305000D01*
D40*
X123528571Y-109200000D02*
X123528571Y-108503571D01*
X201625000Y-108600000D02*
X201625000Y-108475000D01*
X212685714Y-109200000D02*
X212685714Y-108503571D01*
D41*
X193221429Y-98250000D02*
X193221429Y-99495000D01*
D40*
X223914285Y-108600000D02*
X223914285Y-108475000D01*
D41*
X71650000Y-82325000D02*
X71675000Y-82300000D01*
D40*
X190396429Y-109200000D02*
X190396429Y-108503571D01*
D41*
X204521429Y-98025000D02*
X204521429Y-98825000D01*
X214010714Y-97620000D02*
X215180714Y-97620000D01*
D40*
X78950000Y-108503571D02*
X78953571Y-108500000D01*
D41*
X91375000Y-97625000D02*
X92675000Y-97625000D01*
D40*
X112467857Y-108600000D02*
X112467857Y-108475000D01*
D41*
X237470000Y-97620000D02*
X237587500Y-97737500D01*
X71405000Y-101175000D02*
X71405000Y-100517500D01*
X147142857Y-97620000D02*
X148312857Y-97620000D01*
X114964286Y-97625000D02*
X115364286Y-98025000D01*
X115364286Y-98725000D02*
X115364286Y-99585000D01*
X249100000Y-98025000D02*
X249100000Y-98850000D01*
X71650000Y-83875000D02*
X71650000Y-82325000D01*
D40*
X179332143Y-109300000D02*
X179332143Y-108603571D01*
D41*
X137253571Y-97625000D02*
X137653571Y-98025000D01*
X170932143Y-97950000D02*
X170719643Y-97737500D01*
X170602143Y-97620000D02*
X170719643Y-97737500D01*
X159942857Y-98025000D02*
X159942857Y-98800000D01*
D40*
X234975000Y-108503571D02*
X234978571Y-108500000D01*
X72975000Y-83675000D02*
X72862500Y-83562500D01*
D41*
X104064286Y-98250000D02*
X104064286Y-98675000D01*
D40*
X190400000Y-108500000D02*
X190400000Y-108375000D01*
X84845000Y-84145000D02*
X84375000Y-83675000D01*
X112464286Y-109300000D02*
X112464286Y-108603571D01*
D42*
X72187500Y-90200000D02*
X71100000Y-90200000D01*
D41*
X113664286Y-97625000D02*
X114964286Y-97625000D01*
X137653571Y-98025000D02*
X137653571Y-98825000D01*
X137653571Y-98825000D02*
X137653571Y-99585000D01*
X193221429Y-99495000D02*
X193221429Y-98800000D01*
D40*
X157046428Y-108600000D02*
X157046428Y-108475000D01*
D41*
X226810714Y-98825000D02*
X226810714Y-99585000D01*
D40*
X123528571Y-108503571D02*
X123532142Y-108500000D01*
D41*
X71405000Y-100305000D02*
X71175000Y-100075000D01*
X226810714Y-98025000D02*
X226810714Y-98825000D01*
X182232143Y-98875000D02*
X182232143Y-99585000D01*
D40*
X78950000Y-109200000D02*
X78950000Y-108503571D01*
D41*
X92675000Y-97625000D02*
X93075000Y-98025000D01*
D40*
X78953571Y-108500000D02*
X78953571Y-108375000D01*
D41*
X181832143Y-97625000D02*
X182232143Y-98025000D01*
X126353571Y-98725000D02*
X126353571Y-99495000D01*
X126353571Y-98250000D02*
X126353571Y-98725000D01*
X215510714Y-98800000D02*
X215510714Y-97950000D01*
D40*
X88395000Y-84145000D02*
X84845000Y-84145000D01*
D41*
X148642857Y-98250000D02*
X148642857Y-98775000D01*
X237800000Y-99495000D02*
X237800000Y-98800000D01*
D40*
X212689285Y-108500000D02*
X212689285Y-108375000D01*
D41*
X237800000Y-98800000D02*
X237800000Y-97950000D01*
D42*
X72187500Y-87350000D02*
X71100000Y-87350000D01*
D41*
X81775000Y-98600000D02*
X81775000Y-97950000D01*
D40*
X212685714Y-108503571D02*
X212689285Y-108500000D01*
X101242857Y-108500000D02*
X101242857Y-108375000D01*
X145821428Y-108500000D02*
X145821428Y-108375000D01*
D41*
X249100000Y-98850000D02*
X249100000Y-99585000D01*
D42*
X71100000Y-87350000D02*
X71075000Y-87325000D01*
D40*
X72675000Y-83375000D02*
X72862500Y-83562500D01*
X72675000Y-82300000D02*
X72675000Y-83375000D01*
D41*
%TO.N,Net-(D1-A)*%
X71450000Y-103045000D02*
X71405000Y-103000000D01*
X71450000Y-104725000D02*
X71450000Y-103045000D01*
%TO.N,Net-(D34-K)*%
X97450000Y-94200000D02*
X96925000Y-94725000D01*
X102525000Y-94200000D02*
X97450000Y-94200000D01*
X106189286Y-94200000D02*
X102525000Y-94200000D01*
D40*
%TO.N,/IN1*%
X78950000Y-110900000D02*
X80550000Y-110900000D01*
X74375000Y-108425000D02*
X76850000Y-110900000D01*
X76850000Y-110900000D02*
X78950000Y-110900000D01*
D41*
%TO.N,Net-(D35-K)*%
X106989286Y-94200000D02*
X106989286Y-93025000D01*
X106989286Y-93025000D02*
X106719643Y-92755357D01*
X106719643Y-92755357D02*
X99519643Y-92755357D01*
X99519643Y-92755357D02*
X99000000Y-93275000D01*
%TO.N,Net-(D37-K)*%
X108589286Y-94200000D02*
X109725000Y-94200000D01*
D40*
%TO.N,/IN2*%
X85545000Y-108425000D02*
X88120000Y-111000000D01*
X90175000Y-111000000D02*
X91775000Y-111000000D01*
X88120000Y-111000000D02*
X90175000Y-111000000D01*
%TO.N,Net-(D38-K)*%
X215210714Y-105725000D02*
X215535714Y-106050000D01*
X213420000Y-103305000D02*
X215510714Y-103305000D01*
X212800000Y-102685000D02*
X213420000Y-103305000D01*
X214535714Y-107050000D02*
X215535714Y-107050000D01*
X211805000Y-100765000D02*
X212800000Y-101760000D01*
X215210714Y-105000000D02*
X215210714Y-104300000D01*
X212800000Y-101760000D02*
X212800000Y-102685000D01*
X215210714Y-104300000D02*
X215510714Y-104000000D01*
X210560714Y-100765000D02*
X211805000Y-100765000D01*
X215510714Y-104000000D02*
X215510714Y-103305000D01*
X214285714Y-109200000D02*
X214285714Y-107300000D01*
X214285714Y-107300000D02*
X214535714Y-107050000D01*
X215210714Y-105000000D02*
X215210714Y-105725000D01*
X215535714Y-106050000D02*
X215535714Y-107050000D01*
%TO.N,/IN3*%
X123528571Y-110900000D02*
X125128571Y-110900000D01*
X119055000Y-108425000D02*
X121530000Y-110900000D01*
X121530000Y-110900000D02*
X123528571Y-110900000D01*
D41*
%TO.N,Net-(D40-K)*%
X217635714Y-94200000D02*
X212485714Y-94200000D01*
X208425000Y-94200000D02*
X207850000Y-94775000D01*
X212485714Y-94200000D02*
X208425000Y-94200000D01*
%TO.N,Net-(D41-K)*%
X218435714Y-94200000D02*
X218435714Y-93025000D01*
X210680357Y-92644643D02*
X209975000Y-93350000D01*
X218435714Y-93025000D02*
X218055357Y-92644643D01*
X218055357Y-92644643D02*
X210680357Y-92644643D01*
D40*
%TO.N,/IN4*%
X130225000Y-108425000D02*
X132800000Y-111000000D01*
X134753571Y-111000000D02*
X136353571Y-111000000D01*
X132800000Y-111000000D02*
X134753571Y-111000000D01*
D41*
%TO.N,Net-(D43-K)*%
X220035714Y-94200000D02*
X221050000Y-94200000D01*
D40*
%TO.N,/IN5*%
X141395000Y-108425000D02*
X143870000Y-110900000D01*
X145817857Y-110900000D02*
X147417857Y-110900000D01*
X143870000Y-110900000D02*
X145817857Y-110900000D01*
%TO.N,Net-(D44-K)*%
X235709286Y-103305000D02*
X237800000Y-103305000D01*
X235089286Y-102685000D02*
X235709286Y-103305000D01*
X237500000Y-105000000D02*
X237500000Y-105725000D01*
X237500000Y-105725000D02*
X237825000Y-106050000D01*
X237500000Y-104300000D02*
X237800000Y-104000000D01*
X232850000Y-100765000D02*
X234094286Y-100765000D01*
X235089286Y-101760000D02*
X235089286Y-102685000D01*
X236575000Y-107300000D02*
X236825000Y-107050000D01*
X237825000Y-106050000D02*
X237825000Y-107050000D01*
X237800000Y-104000000D02*
X237800000Y-103305000D01*
X237500000Y-105000000D02*
X237500000Y-104300000D01*
X236825000Y-107050000D02*
X237825000Y-107050000D01*
X236575000Y-109200000D02*
X236575000Y-107300000D01*
X234094286Y-100765000D02*
X235089286Y-101760000D01*
D41*
%TO.N,Net-(D46-K)*%
X234925000Y-94200000D02*
X230725000Y-94200000D01*
X239925000Y-94200000D02*
X234925000Y-94200000D01*
X230725000Y-94200000D02*
X230050000Y-94875000D01*
D40*
%TO.N,/IN6*%
X152565000Y-108425000D02*
X155140000Y-111000000D01*
X157042857Y-111000000D02*
X158642857Y-111000000D01*
X155140000Y-111000000D02*
X157042857Y-111000000D01*
D41*
%TO.N,Net-(D47-K)*%
X240725000Y-93025000D02*
X240475000Y-92775000D01*
X240475000Y-92775000D02*
X232750000Y-92775000D01*
X240725000Y-94200000D02*
X240725000Y-93025000D01*
X232750000Y-92775000D02*
X232150000Y-93375000D01*
D40*
%TO.N,/IN7*%
X163735000Y-108425000D02*
X166210000Y-110900000D01*
X166210000Y-110900000D02*
X168107143Y-110900000D01*
X168107143Y-110900000D02*
X169707143Y-110900000D01*
D41*
%TO.N,Net-(D49-K)*%
X242325000Y-94200000D02*
X243225000Y-94200000D01*
D40*
%TO.N,/IN8*%
X179332143Y-111000000D02*
X180932143Y-111000000D01*
X174905000Y-108425000D02*
X177480000Y-111000000D01*
X177480000Y-111000000D02*
X179332143Y-111000000D01*
%TO.N,/IN9*%
X188550000Y-110900000D02*
X190396429Y-110900000D01*
X190396429Y-110900000D02*
X191996429Y-110900000D01*
X186075000Y-108425000D02*
X188550000Y-110900000D01*
%TO.N,/VREF_HIGH*%
X99114286Y-102035000D02*
X97029286Y-102035000D01*
X210560714Y-102035000D02*
X208475714Y-102035000D01*
X197446429Y-102125000D02*
X197446429Y-101050000D01*
X232850000Y-102035000D02*
X230765000Y-102035000D01*
X230675000Y-101150000D02*
X230775000Y-101050000D01*
D42*
X73725000Y-90487500D02*
X74012500Y-90200000D01*
D40*
X130578571Y-101050000D02*
X130603571Y-101025000D01*
X163807143Y-102125000D02*
X163807143Y-101150000D01*
X175157143Y-102125000D02*
X177282143Y-102125000D01*
X219735714Y-101050000D02*
X219760714Y-101025000D01*
X108289286Y-101050000D02*
X108314286Y-101025000D01*
X74650000Y-102125000D02*
X74650000Y-101150000D01*
X119228571Y-101150000D02*
X119328571Y-101050000D01*
X76825000Y-102035000D02*
X74740000Y-102035000D01*
X119228571Y-102125000D02*
X119228571Y-101150000D01*
X219735714Y-102125000D02*
X221860714Y-102125000D01*
X74650000Y-101150000D02*
X74750000Y-101050000D01*
X96939286Y-102125000D02*
X96939286Y-101150000D01*
X208385714Y-102125000D02*
X208385714Y-101150000D01*
X242025000Y-102125000D02*
X242025000Y-101050000D01*
X175157143Y-101050000D02*
X175182143Y-101025000D01*
X230675000Y-102125000D02*
X230675000Y-101150000D01*
X152867857Y-101050000D02*
X152892857Y-101025000D01*
X141517857Y-102125000D02*
X141517857Y-101150000D01*
X130578571Y-102125000D02*
X130578571Y-101050000D01*
X197446429Y-101050000D02*
X197471429Y-101025000D01*
X163807143Y-101150000D02*
X163907143Y-101050000D01*
X152867857Y-102125000D02*
X152867857Y-101050000D01*
X108289286Y-102125000D02*
X110414286Y-102125000D01*
X152867857Y-102125000D02*
X154992857Y-102125000D01*
X242025000Y-101050000D02*
X242050000Y-101025000D01*
X143692857Y-102035000D02*
X141607857Y-102035000D01*
X219735714Y-102125000D02*
X219735714Y-101050000D01*
X186096429Y-101150000D02*
X186196429Y-101050000D01*
X186096429Y-102125000D02*
X186096429Y-101150000D01*
X197446429Y-102125000D02*
X199571429Y-102125000D01*
D42*
X73937500Y-90200000D02*
X75587500Y-90200000D01*
D40*
X141517857Y-101150000D02*
X141617857Y-101050000D01*
X108289286Y-102125000D02*
X108289286Y-101050000D01*
X188271429Y-102035000D02*
X186186429Y-102035000D01*
X121403571Y-102035000D02*
X119318571Y-102035000D01*
X165982143Y-102035000D02*
X163897143Y-102035000D01*
X86000000Y-102125000D02*
X88125000Y-102125000D01*
X175157143Y-102125000D02*
X175157143Y-101050000D01*
X96939286Y-101150000D02*
X97039286Y-101050000D01*
X86000000Y-102125000D02*
X86000000Y-101050000D01*
D42*
X73725000Y-92675000D02*
X73725000Y-90487500D01*
D40*
X242025000Y-102125000D02*
X244150000Y-102125000D01*
X208385714Y-101150000D02*
X208485714Y-101050000D01*
X130578571Y-102125000D02*
X132703571Y-102125000D01*
X86000000Y-101050000D02*
X86025000Y-101025000D01*
%TO.N,/IN10*%
X197245000Y-108425000D02*
X199820000Y-111000000D01*
X199820000Y-111000000D02*
X203221429Y-111000000D01*
D41*
%TO.N,/VREF_LOW*%
X202996429Y-102125000D02*
X202871429Y-102250000D01*
D40*
X191761429Y-102035000D02*
X191546429Y-102250000D01*
X102604286Y-102035000D02*
X102389286Y-102250000D01*
X228960714Y-102125000D02*
X225285714Y-102125000D01*
X104064286Y-102035000D02*
X102604286Y-102035000D01*
X148642857Y-102035000D02*
X147182857Y-102035000D01*
X237800000Y-102035000D02*
X239910000Y-102035000D01*
X169472143Y-102035000D02*
X169257143Y-102250000D01*
X83885000Y-102035000D02*
X83975000Y-102125000D01*
X251250000Y-102125000D02*
X247575000Y-102125000D01*
X184382143Y-102125000D02*
X180707143Y-102125000D01*
X193221429Y-102035000D02*
X195331429Y-102035000D01*
X147182857Y-102035000D02*
X146967857Y-102250000D01*
X95225000Y-102125000D02*
X91550000Y-102125000D01*
X170932143Y-102035000D02*
X169472143Y-102035000D01*
D41*
X158417857Y-102125000D02*
X158292857Y-102250000D01*
D42*
X74875000Y-87350000D02*
X75650000Y-87350000D01*
X75875000Y-87337500D02*
X75887500Y-87350000D01*
D40*
X214050714Y-102035000D02*
X213835714Y-102250000D01*
X117514286Y-102125000D02*
X113839286Y-102125000D01*
X195331429Y-102035000D02*
X195421429Y-102125000D01*
X215510714Y-102035000D02*
X214050714Y-102035000D01*
X81775000Y-102035000D02*
X83885000Y-102035000D01*
D41*
X247575000Y-102125000D02*
X247450000Y-102250000D01*
X113839286Y-102125000D02*
X113714286Y-102250000D01*
X180707143Y-102125000D02*
X180582143Y-102250000D01*
D40*
X106174286Y-102035000D02*
X106264286Y-102125000D01*
D41*
X91550000Y-102125000D02*
X91425000Y-102250000D01*
D40*
X239910000Y-102035000D02*
X240000000Y-102125000D01*
X80315000Y-102035000D02*
X80100000Y-102250000D01*
X170932143Y-102035000D02*
X173042143Y-102035000D01*
X126353571Y-102035000D02*
X124893571Y-102035000D01*
X128463571Y-102035000D02*
X128553571Y-102125000D01*
X237800000Y-102035000D02*
X236340000Y-102035000D01*
X139803571Y-102125000D02*
X136128571Y-102125000D01*
D41*
X225285714Y-102125000D02*
X225160714Y-102250000D01*
D40*
X206671429Y-102125000D02*
X202996429Y-102125000D01*
X193221429Y-102035000D02*
X191761429Y-102035000D01*
D42*
X74000000Y-87350000D02*
X74875000Y-87350000D01*
D40*
X81775000Y-102035000D02*
X80315000Y-102035000D01*
X104064286Y-102035000D02*
X106174286Y-102035000D01*
D42*
X75875000Y-85050000D02*
X75875000Y-87337500D01*
D40*
X124893571Y-102035000D02*
X124678571Y-102250000D01*
X173042143Y-102035000D02*
X173132143Y-102125000D01*
X236340000Y-102035000D02*
X236125000Y-102250000D01*
D41*
X136128571Y-102125000D02*
X136003571Y-102250000D01*
D40*
X148642857Y-102035000D02*
X150752857Y-102035000D01*
X162092857Y-102125000D02*
X158417857Y-102125000D01*
X126353571Y-102035000D02*
X128463571Y-102035000D01*
X215510714Y-102035000D02*
X217620714Y-102035000D01*
X150752857Y-102035000D02*
X150842857Y-102125000D01*
X217620714Y-102035000D02*
X217710714Y-102125000D01*
%TO.N,/IN11*%
X96715000Y-108425000D02*
X99190000Y-110900000D01*
X99190000Y-110900000D02*
X101239286Y-110900000D01*
X101239286Y-110900000D02*
X102839286Y-110900000D01*
%TO.N,/IN12*%
X112464286Y-111000000D02*
X114064286Y-111000000D01*
X110460000Y-111000000D02*
X112464286Y-111000000D01*
X107885000Y-108425000D02*
X110460000Y-111000000D01*
%TO.N,/IN13*%
X208415000Y-108425000D02*
X210890000Y-110900000D01*
X212685714Y-110900000D02*
X214285714Y-110900000D01*
X210890000Y-110900000D02*
X212685714Y-110900000D01*
%TO.N,/IN14*%
X219585000Y-108425000D02*
X222160000Y-111000000D01*
X222160000Y-111000000D02*
X223910714Y-111000000D01*
X223910714Y-111000000D02*
X225510714Y-111000000D01*
%TO.N,/IN15*%
X234975000Y-110900000D02*
X236575000Y-110900000D01*
X230755000Y-108425000D02*
X233230000Y-110900000D01*
X233230000Y-110900000D02*
X234975000Y-110900000D01*
%TO.N,/IN16*%
X246200000Y-111000000D02*
X247800000Y-111000000D01*
X241925000Y-108425000D02*
X244500000Y-111000000D01*
X244500000Y-111000000D02*
X246200000Y-111000000D01*
%TO.N,Net-(D33-K)*%
X111658572Y-100855000D02*
X112653572Y-101850000D01*
X115289286Y-103470000D02*
X115364286Y-103395000D01*
X114064286Y-109300000D02*
X114064286Y-107475000D01*
X115314286Y-107125000D02*
X115314286Y-105075000D01*
X115289286Y-105050000D02*
X115289286Y-103470000D01*
X113273572Y-103395000D02*
X115364286Y-103395000D01*
X110414286Y-100855000D02*
X111658572Y-100855000D01*
X114064286Y-107475000D02*
X114414286Y-107125000D01*
X112653572Y-102775000D02*
X113273572Y-103395000D01*
X115314286Y-105075000D02*
X115289286Y-105050000D01*
X112653572Y-101850000D02*
X112653572Y-102775000D01*
X114414286Y-107125000D02*
X115314286Y-107125000D01*
D41*
%TO.N,Net-(D36-K)*%
X107789286Y-93100000D02*
X108032143Y-92857143D01*
X107789286Y-94200000D02*
X107789286Y-93100000D01*
D40*
%TO.N,Net-(D39-K)*%
X224100000Y-101850000D02*
X224100000Y-102775000D01*
X224720000Y-103395000D02*
X226810714Y-103395000D01*
X221860714Y-100855000D02*
X223105000Y-100855000D01*
X226760714Y-107125000D02*
X226760714Y-105075000D01*
X226760714Y-105075000D02*
X226735714Y-105050000D01*
X225860714Y-107125000D02*
X226760714Y-107125000D01*
X224100000Y-102775000D02*
X224720000Y-103395000D01*
X225510714Y-107475000D02*
X225860714Y-107125000D01*
X226735714Y-105050000D02*
X226735714Y-103470000D01*
X225510714Y-109300000D02*
X225510714Y-107475000D01*
X226735714Y-103470000D02*
X226810714Y-103395000D01*
X223105000Y-100855000D02*
X224100000Y-101850000D01*
D41*
%TO.N,Net-(D42-K)*%
X219235714Y-93100000D02*
X219367857Y-92967857D01*
X219235714Y-94200000D02*
X219235714Y-93100000D01*
D40*
%TO.N,Net-(D45-K)*%
X247009286Y-103395000D02*
X249100000Y-103395000D01*
X246389286Y-102775000D02*
X247009286Y-103395000D01*
X249050000Y-107125000D02*
X249050000Y-105075000D01*
X246389286Y-101850000D02*
X246389286Y-102775000D01*
X248150000Y-107125000D02*
X249050000Y-107125000D01*
X245394286Y-100855000D02*
X246389286Y-101850000D01*
X249025000Y-105050000D02*
X249025000Y-103470000D01*
X247800000Y-109300000D02*
X247800000Y-107475000D01*
X249025000Y-103470000D02*
X249100000Y-103395000D01*
X249050000Y-105075000D02*
X249025000Y-105050000D01*
X247800000Y-107475000D02*
X248150000Y-107125000D01*
X244150000Y-100855000D02*
X245394286Y-100855000D01*
D41*
%TO.N,Net-(D48-K)*%
X241525000Y-94200000D02*
X241525000Y-93100000D01*
D40*
%TO.N,Net-(U17-~{SHDN})*%
X88308333Y-78450000D02*
X88970000Y-78450000D01*
X89008333Y-76600000D02*
X89600000Y-76600000D01*
X88970000Y-78450000D02*
X90058333Y-78450000D01*
X89600000Y-76600000D02*
X90058333Y-77058333D01*
X90058333Y-77058333D02*
X90058333Y-78450000D01*
%TO.N,Net-(U17-FB)*%
X88308333Y-82675000D02*
X88283333Y-82700000D01*
X88308333Y-80725000D02*
X88308333Y-82675000D01*
X88283333Y-82700000D02*
X88750000Y-82700000D01*
X88750000Y-82700000D02*
X89270000Y-83220000D01*
X89270000Y-83220000D02*
X90045000Y-83220000D01*
%TO.N,Net-(RN18D-R4.1)*%
X115364286Y-100855000D02*
X113969286Y-100855000D01*
X111764286Y-98650000D02*
X109914286Y-98650000D01*
X108589286Y-97325000D02*
X108589286Y-95900000D01*
X113969286Y-100855000D02*
X111764286Y-98650000D01*
X109914286Y-98650000D02*
X108589286Y-97325000D01*
%TO.N,Net-(RN18B-R2.1)*%
X106989286Y-99200000D02*
X106989286Y-95900000D01*
X105424286Y-100765000D02*
X106989286Y-99200000D01*
X104064286Y-100765000D02*
X105424286Y-100765000D01*
%TO.N,Net-(RN18C-R3.1)*%
X107789286Y-98575000D02*
X107789286Y-95900000D01*
X110414286Y-99585000D02*
X108799286Y-99585000D01*
X108799286Y-99585000D02*
X107789286Y-98575000D01*
%TO.N,Net-(RN18A-R1.1)*%
X106189286Y-95900000D02*
X100889286Y-95900000D01*
X100889286Y-95900000D02*
X99764286Y-97025000D01*
X99114286Y-97675000D02*
X99764286Y-97025000D01*
X99114286Y-99495000D02*
X99114286Y-97675000D01*
%TO.N,Net-(RN21D-R4.1)*%
X226810714Y-100855000D02*
X225415714Y-100855000D01*
X221360714Y-98650000D02*
X220035714Y-97325000D01*
X223210714Y-98650000D02*
X221360714Y-98650000D01*
X225415714Y-100855000D02*
X223210714Y-98650000D01*
X220035714Y-97325000D02*
X220035714Y-95900000D01*
%TO.N,Net-(RN21C-R3.1)*%
X221860714Y-99585000D02*
X220245714Y-99585000D01*
X219235714Y-98575000D02*
X219235714Y-95900000D01*
X220245714Y-99585000D02*
X219235714Y-98575000D01*
%TO.N,Net-(RN21B-R2.1)*%
X215510714Y-100765000D02*
X216870714Y-100765000D01*
X216870714Y-100765000D02*
X218435714Y-99200000D01*
X218435714Y-99200000D02*
X218435714Y-95900000D01*
%TO.N,Net-(RN21A-R1.1)*%
X217635714Y-95900000D02*
X212335714Y-95900000D01*
X212335714Y-95900000D02*
X210560714Y-97675000D01*
X210560714Y-97675000D02*
X210560714Y-99495000D01*
%TO.N,Net-(RN24B-R2.1)*%
X237800000Y-100765000D02*
X239160000Y-100765000D01*
X239160000Y-100765000D02*
X240725000Y-99200000D01*
X240725000Y-99200000D02*
X240725000Y-95900000D01*
%TO.N,Net-(RN24D-R4.1)*%
X242325000Y-97325000D02*
X242325000Y-95900000D01*
X245500000Y-98650000D02*
X243650000Y-98650000D01*
X247705000Y-100855000D02*
X245500000Y-98650000D01*
X249100000Y-100855000D02*
X247705000Y-100855000D01*
X243650000Y-98650000D02*
X242325000Y-97325000D01*
%TO.N,Net-(RN24A-R1.1)*%
X232850000Y-99495000D02*
X232850000Y-97675000D01*
X234625000Y-95900000D02*
X233500000Y-97025000D01*
X232850000Y-97675000D02*
X233500000Y-97025000D01*
X239925000Y-95900000D02*
X234625000Y-95900000D01*
%TO.N,Net-(RN24C-R3.1)*%
X241525000Y-98575000D02*
X241525000Y-95900000D01*
X244150000Y-99585000D02*
X242535000Y-99585000D01*
X242535000Y-99585000D02*
X241525000Y-98575000D01*
D45*
%TO.N,Net-(D52-A)*%
X67225000Y-108350000D02*
X67225000Y-71850000D01*
X69700000Y-69375000D02*
X72950000Y-69375000D01*
X67225000Y-71850000D02*
X69700000Y-69375000D01*
D40*
%TO.N,Net-(RN3D-R4.1)*%
X89475000Y-98650000D02*
X87625000Y-98650000D01*
X93075000Y-100855000D02*
X91680000Y-100855000D01*
X86300000Y-97325000D02*
X86300000Y-95900000D01*
X87625000Y-98650000D02*
X86300000Y-97325000D01*
X91680000Y-100855000D02*
X89475000Y-98650000D01*
%TO.N,Net-(RN3A-R1.1)*%
X83900000Y-95900000D02*
X78600000Y-95900000D01*
X76825000Y-99495000D02*
X76825000Y-97675000D01*
X78600000Y-95900000D02*
X77475000Y-97025000D01*
X76825000Y-97675000D02*
X77475000Y-97025000D01*
%TO.N,Net-(RN3B-R2.1)*%
X83135000Y-100765000D02*
X84700000Y-99200000D01*
X84700000Y-99200000D02*
X84700000Y-95900000D01*
X81775000Y-100765000D02*
X83135000Y-100765000D01*
%TO.N,Net-(RN3C-R3.1)*%
X88125000Y-99585000D02*
X86510000Y-99585000D01*
X85500000Y-98575000D02*
X85500000Y-95900000D01*
X86510000Y-99585000D02*
X85500000Y-98575000D01*
%TO.N,Net-(RN6A-R1.1)*%
X123178571Y-95900000D02*
X122053571Y-97025000D01*
X121403571Y-99495000D02*
X121403571Y-97675000D01*
X128478571Y-95900000D02*
X123178571Y-95900000D01*
X121403571Y-97675000D02*
X122053571Y-97025000D01*
%TO.N,Net-(RN6C-R3.1)*%
X131088571Y-99585000D02*
X130078571Y-98575000D01*
X130078571Y-98575000D02*
X130078571Y-95900000D01*
X132703571Y-99585000D02*
X131088571Y-99585000D01*
%TO.N,Net-(RN6D-R4.1)*%
X132203571Y-98650000D02*
X130878571Y-97325000D01*
X134053571Y-98650000D02*
X132203571Y-98650000D01*
X137653571Y-100855000D02*
X136258571Y-100855000D01*
X136258571Y-100855000D02*
X134053571Y-98650000D01*
X130878571Y-97325000D02*
X130878571Y-95900000D01*
%TO.N,Net-(RN6B-R2.1)*%
X129278571Y-99200000D02*
X129278571Y-95900000D01*
X126353571Y-100765000D02*
X127713571Y-100765000D01*
X127713571Y-100765000D02*
X129278571Y-99200000D01*
%TO.N,Net-(RN9D-R4.1)*%
X153167857Y-97325000D02*
X153167857Y-95900000D01*
X156342857Y-98650000D02*
X154492857Y-98650000D01*
X154492857Y-98650000D02*
X153167857Y-97325000D01*
X158547857Y-100855000D02*
X156342857Y-98650000D01*
X159942857Y-100855000D02*
X158547857Y-100855000D01*
%TO.N,Net-(RN9B-R2.1)*%
X148642857Y-100765000D02*
X150002857Y-100765000D01*
X151567857Y-99200000D02*
X151567857Y-95900000D01*
X150002857Y-100765000D02*
X151567857Y-99200000D01*
%TO.N,Net-(RN9C-R3.1)*%
X154992857Y-99585000D02*
X153377857Y-99585000D01*
X153377857Y-99585000D02*
X152367857Y-98575000D01*
X152367857Y-98575000D02*
X152367857Y-95900000D01*
%TO.N,Net-(RN9A-R1.1)*%
X150767857Y-95900000D02*
X145467857Y-95900000D01*
X143692857Y-97675000D02*
X144342857Y-97025000D01*
X143692857Y-99495000D02*
X143692857Y-97675000D01*
X145467857Y-95900000D02*
X144342857Y-97025000D01*
%TO.N,Net-(RN12B-R2.1)*%
X170932143Y-100765000D02*
X172292143Y-100765000D01*
X172292143Y-100765000D02*
X173857143Y-99200000D01*
X173857143Y-99200000D02*
X173857143Y-95900000D01*
%TO.N,Net-(RN12C-R3.1)*%
X175667143Y-99585000D02*
X174657143Y-98575000D01*
X177282143Y-99585000D02*
X175667143Y-99585000D01*
X174657143Y-98575000D02*
X174657143Y-95900000D01*
%TO.N,Net-(RN12D-R4.1)*%
X175457143Y-97325000D02*
X175457143Y-95900000D01*
X182232143Y-100855000D02*
X180837143Y-100855000D01*
X180837143Y-100855000D02*
X178632143Y-98650000D01*
X176782143Y-98650000D02*
X175457143Y-97325000D01*
X178632143Y-98650000D02*
X176782143Y-98650000D01*
%TO.N,Net-(RN12A-R1.1)*%
X165982143Y-99495000D02*
X165982143Y-97675000D01*
X173057143Y-95900000D02*
X167757143Y-95900000D01*
X165982143Y-97675000D02*
X166632143Y-97025000D01*
X167757143Y-95900000D02*
X166632143Y-97025000D01*
%TO.N,Net-(RN15B-R2.1)*%
X193221429Y-100765000D02*
X194581429Y-100765000D01*
X196146429Y-99200000D02*
X196146429Y-95900000D01*
X194581429Y-100765000D02*
X196146429Y-99200000D01*
%TO.N,Net-(RN15D-R4.1)*%
X197746429Y-97325000D02*
X197746429Y-95900000D01*
X200921429Y-98650000D02*
X199071429Y-98650000D01*
X203126429Y-100855000D02*
X200921429Y-98650000D01*
X204521429Y-100855000D02*
X203126429Y-100855000D01*
X199071429Y-98650000D02*
X197746429Y-97325000D01*
%TO.N,Net-(RN15A-R1.1)*%
X195346429Y-95900000D02*
X190046429Y-95900000D01*
X188271429Y-99495000D02*
X188271429Y-97675000D01*
X190046429Y-95900000D02*
X188921429Y-97025000D01*
X188271429Y-97675000D02*
X188921429Y-97025000D01*
%TO.N,Net-(RN15C-R3.1)*%
X199571429Y-99585000D02*
X197956429Y-99585000D01*
X196946429Y-98575000D02*
X196946429Y-95900000D01*
X197956429Y-99585000D02*
X196946429Y-98575000D01*
%TD*%
%TA.AperFunction,Conductor*%
%TO.N,+5V*%
G36*
X84368039Y-79544685D02*
G01*
X84413794Y-79597489D01*
X84425000Y-79649000D01*
X84425000Y-82751000D01*
X84405315Y-82818039D01*
X84352511Y-82863794D01*
X84301000Y-82875000D01*
X70824000Y-82875000D01*
X70756961Y-82855315D01*
X70711206Y-82802511D01*
X70700000Y-82751000D01*
X70700000Y-79649000D01*
X70719685Y-79581961D01*
X70772489Y-79536206D01*
X70824000Y-79525000D01*
X84301000Y-79525000D01*
X84368039Y-79544685D01*
G37*
%TD.AperFunction*%
%TD*%
%TA.AperFunction,Conductor*%
%TO.N,/power supply/+VIN_PROTECTED*%
G36*
X88013039Y-67744685D02*
G01*
X88058794Y-67797489D01*
X88070000Y-67849000D01*
X88070000Y-76933069D01*
X88050315Y-77000108D01*
X88044551Y-77008326D01*
X87687222Y-77476257D01*
X87630890Y-77517591D01*
X87588671Y-77525000D01*
X87126362Y-77525000D01*
X87059323Y-77505315D01*
X87038681Y-77488681D01*
X86536319Y-76986319D01*
X86502834Y-76924996D01*
X86500000Y-76898638D01*
X86500000Y-71000000D01*
X79549000Y-71000000D01*
X79481961Y-70980315D01*
X79436206Y-70927511D01*
X79425000Y-70876000D01*
X79425000Y-67849000D01*
X79444685Y-67781961D01*
X79497489Y-67736206D01*
X79549000Y-67725000D01*
X87946000Y-67725000D01*
X88013039Y-67744685D01*
G37*
%TD.AperFunction*%
%TD*%
%TA.AperFunction,Conductor*%
%TO.N,/power supply/SW*%
G36*
X82763039Y-72989685D02*
G01*
X82808794Y-73042489D01*
X82820000Y-73094000D01*
X82820000Y-76020000D01*
X85096000Y-76020000D01*
X85163039Y-76039685D01*
X85208794Y-76092489D01*
X85220000Y-76144000D01*
X85220000Y-77217500D01*
X86284333Y-77217500D01*
X86351372Y-77237185D01*
X86397127Y-77289989D01*
X86408333Y-77341500D01*
X86408333Y-78988500D01*
X86388648Y-79055539D01*
X86335844Y-79101294D01*
X86284333Y-79112500D01*
X80154000Y-79112500D01*
X80086961Y-79092815D01*
X80041206Y-79040011D01*
X80030000Y-78988500D01*
X80030000Y-73094000D01*
X80049685Y-73026961D01*
X80102489Y-72981206D01*
X80154000Y-72970000D01*
X82696000Y-72970000D01*
X82763039Y-72989685D01*
G37*
%TD.AperFunction*%
%TD*%
%TA.AperFunction,Conductor*%
%TO.N,GND*%
G36*
X92118039Y-62520185D02*
G01*
X92163794Y-62572989D01*
X92175000Y-62624500D01*
X92175000Y-84898638D01*
X92166355Y-84928078D01*
X92159832Y-84958065D01*
X92156077Y-84963080D01*
X92155315Y-84965677D01*
X92138681Y-84986319D01*
X92136319Y-84988681D01*
X92074996Y-85022166D01*
X92048638Y-85025000D01*
X88820482Y-85025000D01*
X88753443Y-85005315D01*
X88707688Y-84952511D01*
X88697744Y-84883353D01*
X88726769Y-84819797D01*
X88779527Y-84783959D01*
X88853240Y-84758165D01*
X88882882Y-84747793D01*
X88992150Y-84667150D01*
X89072793Y-84557882D01*
X89095219Y-84493790D01*
X89117646Y-84429701D01*
X89117646Y-84429699D01*
X89120500Y-84399269D01*
X89120500Y-83890730D01*
X89117646Y-83860300D01*
X89117646Y-83860298D01*
X89072250Y-83730567D01*
X89068687Y-83660789D01*
X89103416Y-83600161D01*
X89165409Y-83567933D01*
X89197901Y-83565911D01*
X89209827Y-83566741D01*
X89223856Y-83570500D01*
X89263834Y-83570500D01*
X89268130Y-83570799D01*
X89297015Y-83581510D01*
X89326559Y-83590185D01*
X89329734Y-83593642D01*
X89333641Y-83595091D01*
X89345242Y-83610527D01*
X89360031Y-83626628D01*
X89361689Y-83625405D01*
X89367206Y-83632880D01*
X89367207Y-83632882D01*
X89447850Y-83742150D01*
X89557118Y-83822793D01*
X89599845Y-83837744D01*
X89685299Y-83867646D01*
X89715730Y-83870500D01*
X89715734Y-83870500D01*
X90374270Y-83870500D01*
X90404699Y-83867646D01*
X90404701Y-83867646D01*
X90468790Y-83845219D01*
X90532882Y-83822793D01*
X90642150Y-83742150D01*
X90722793Y-83632882D01*
X90748215Y-83560229D01*
X90767646Y-83504701D01*
X90767646Y-83504699D01*
X90770500Y-83474269D01*
X90770500Y-82965730D01*
X90767646Y-82935300D01*
X90767646Y-82935298D01*
X90722793Y-82807119D01*
X90722792Y-82807117D01*
X90680285Y-82749522D01*
X90642150Y-82697850D01*
X90532882Y-82617207D01*
X90532880Y-82617206D01*
X90404700Y-82572353D01*
X90374270Y-82569500D01*
X90374266Y-82569500D01*
X89715734Y-82569500D01*
X89715730Y-82569500D01*
X89685300Y-82572353D01*
X89685298Y-82572353D01*
X89557119Y-82617206D01*
X89557117Y-82617207D01*
X89447848Y-82697851D01*
X89447846Y-82697853D01*
X89446645Y-82699481D01*
X89444876Y-82700823D01*
X89441279Y-82704421D01*
X89440786Y-82703928D01*
X89432120Y-82710506D01*
X89421192Y-82725105D01*
X89404869Y-82731192D01*
X89390993Y-82741727D01*
X89372812Y-82743149D01*
X89355728Y-82749522D01*
X89338705Y-82745818D01*
X89321337Y-82747178D01*
X89305273Y-82738546D01*
X89287455Y-82734670D01*
X89260476Y-82714474D01*
X89259790Y-82714105D01*
X89259201Y-82713519D01*
X89156819Y-82611137D01*
X89123334Y-82549814D01*
X89120500Y-82523456D01*
X89120500Y-82240730D01*
X89117646Y-82210300D01*
X89117646Y-82210298D01*
X89072793Y-82082119D01*
X89072792Y-82082117D01*
X89062221Y-82067794D01*
X88992150Y-81972850D01*
X88882882Y-81892207D01*
X88882880Y-81892206D01*
X88747577Y-81844861D01*
X88748150Y-81843221D01*
X88729496Y-81833014D01*
X88701630Y-81820288D01*
X88699129Y-81816397D01*
X88695075Y-81814179D01*
X88680421Y-81787286D01*
X88663856Y-81761510D01*
X88662952Y-81755227D01*
X88661644Y-81752826D01*
X88658833Y-81726575D01*
X88658833Y-81654754D01*
X88678518Y-81587715D01*
X88695152Y-81567072D01*
X88696672Y-81565551D01*
X88696675Y-81565550D01*
X88786383Y-81475842D01*
X88843979Y-81362804D01*
X88843979Y-81362802D01*
X88843980Y-81362801D01*
X88858832Y-81269024D01*
X88858833Y-81269019D01*
X88858832Y-80180982D01*
X88843979Y-80087196D01*
X88786383Y-79974158D01*
X88786379Y-79974154D01*
X88786378Y-79974152D01*
X88696680Y-79884454D01*
X88696677Y-79884452D01*
X88696675Y-79884450D01*
X88619850Y-79845305D01*
X88583634Y-79826852D01*
X88489857Y-79812000D01*
X88126815Y-79812000D01*
X88045852Y-79824823D01*
X88033029Y-79826854D01*
X87919991Y-79884450D01*
X87919990Y-79884451D01*
X87919985Y-79884454D01*
X87830287Y-79974152D01*
X87830284Y-79974157D01*
X87772685Y-80087198D01*
X87757833Y-80180975D01*
X87757833Y-81269017D01*
X87768625Y-81337157D01*
X87772687Y-81362804D01*
X87830283Y-81475842D01*
X87919991Y-81565550D01*
X87919993Y-81565551D01*
X87921514Y-81567072D01*
X87936221Y-81594005D01*
X87952810Y-81619819D01*
X87953701Y-81626018D01*
X87954999Y-81628395D01*
X87957833Y-81654754D01*
X87957833Y-81792179D01*
X87938148Y-81859218D01*
X87907467Y-81891949D01*
X87797850Y-81972850D01*
X87717207Y-82082117D01*
X87717206Y-82082119D01*
X87672353Y-82210298D01*
X87670744Y-82217670D01*
X87668021Y-82217075D01*
X87646992Y-82269848D01*
X87590142Y-82310467D01*
X87520357Y-82313903D01*
X87466271Y-82285361D01*
X87457342Y-82277293D01*
X87414687Y-82220313D01*
X87305226Y-82138372D01*
X87302421Y-82137325D01*
X87291372Y-82127343D01*
X87275969Y-82102246D01*
X87258318Y-82078667D01*
X87256994Y-82071330D01*
X87254824Y-82067794D01*
X87254982Y-82060176D01*
X87250500Y-82035334D01*
X87250500Y-81892275D01*
X87250500Y-81892273D01*
X87223207Y-81790413D01*
X87170480Y-81699087D01*
X87095913Y-81624520D01*
X86970627Y-81499234D01*
X86937142Y-81437911D01*
X86941829Y-81372364D01*
X86940964Y-81372083D01*
X86942099Y-81368588D01*
X86942126Y-81368219D01*
X86942484Y-81367404D01*
X86943980Y-81362801D01*
X86958832Y-81269024D01*
X86958833Y-81269019D01*
X86958832Y-80180982D01*
X86943979Y-80087196D01*
X86886383Y-79974158D01*
X86886379Y-79974154D01*
X86886378Y-79974152D01*
X86796680Y-79884454D01*
X86796677Y-79884452D01*
X86796675Y-79884450D01*
X86719850Y-79845305D01*
X86683634Y-79826852D01*
X86589857Y-79812000D01*
X86226815Y-79812000D01*
X86145852Y-79824823D01*
X86133029Y-79826854D01*
X86019991Y-79884450D01*
X86019990Y-79884451D01*
X86019985Y-79884454D01*
X85930283Y-79974156D01*
X85924818Y-79981679D01*
X85869489Y-80024345D01*
X85799875Y-80030324D01*
X85738080Y-79997719D01*
X85703723Y-79936880D01*
X85700500Y-79908794D01*
X85700500Y-79492000D01*
X85720185Y-79424961D01*
X85772989Y-79379206D01*
X85824500Y-79368000D01*
X86284324Y-79368000D01*
X86284333Y-79368000D01*
X86324231Y-79363709D01*
X86337487Y-79362999D01*
X86589850Y-79362999D01*
X86589851Y-79362999D01*
X86683637Y-79348146D01*
X86796675Y-79290550D01*
X86796682Y-79290542D01*
X86804574Y-79284811D01*
X86805558Y-79286165D01*
X86856965Y-79258090D01*
X86926657Y-79263069D01*
X86961581Y-79285513D01*
X86962092Y-79284811D01*
X86969986Y-79290545D01*
X86969991Y-79290550D01*
X87083027Y-79348145D01*
X87083031Y-79348147D01*
X87176808Y-79362999D01*
X87176814Y-79363000D01*
X87539851Y-79362999D01*
X87633637Y-79348146D01*
X87746675Y-79290550D01*
X87746682Y-79290542D01*
X87754574Y-79284811D01*
X87755558Y-79286165D01*
X87806965Y-79258090D01*
X87876657Y-79263069D01*
X87911581Y-79285513D01*
X87912092Y-79284811D01*
X87919986Y-79290545D01*
X87919991Y-79290550D01*
X88033027Y-79348145D01*
X88033031Y-79348147D01*
X88126808Y-79362999D01*
X88126814Y-79363000D01*
X88489851Y-79362999D01*
X88583637Y-79348146D01*
X88696675Y-79290550D01*
X88786383Y-79200842D01*
X88843979Y-79087804D01*
X88843979Y-79087802D01*
X88843980Y-79087801D01*
X88858833Y-78994024D01*
X88858833Y-78924500D01*
X88878518Y-78857461D01*
X88931322Y-78811706D01*
X88982833Y-78800500D01*
X89272853Y-78800500D01*
X89339892Y-78820185D01*
X89373364Y-78856628D01*
X89375022Y-78855405D01*
X89380539Y-78862880D01*
X89380540Y-78862882D01*
X89461183Y-78972150D01*
X89570451Y-79052793D01*
X89613178Y-79067744D01*
X89698632Y-79097646D01*
X89729063Y-79100500D01*
X89729067Y-79100500D01*
X90387603Y-79100500D01*
X90418032Y-79097646D01*
X90418034Y-79097646D01*
X90482123Y-79075219D01*
X90546215Y-79052793D01*
X90655483Y-78972150D01*
X90736126Y-78862882D01*
X90758552Y-78798790D01*
X90780979Y-78734701D01*
X90780979Y-78734699D01*
X90783833Y-78704269D01*
X90783833Y-78195730D01*
X90780979Y-78165300D01*
X90780979Y-78165298D01*
X90736126Y-78037119D01*
X90736125Y-78037117D01*
X90655483Y-77927850D01*
X90546215Y-77847207D01*
X90491877Y-77828193D01*
X90435101Y-77787471D01*
X90409355Y-77722518D01*
X90408833Y-77711152D01*
X90408833Y-77012191D01*
X90408833Y-77012189D01*
X90384947Y-76923045D01*
X90338803Y-76843121D01*
X89815212Y-76319530D01*
X89815211Y-76319529D01*
X89815208Y-76319527D01*
X89735290Y-76273387D01*
X89735289Y-76273386D01*
X89735288Y-76273386D01*
X89723846Y-76270320D01*
X89664187Y-76233952D01*
X89638904Y-76191505D01*
X89611126Y-76112118D01*
X89530483Y-76002850D01*
X89421215Y-75922207D01*
X89421213Y-75922206D01*
X89293033Y-75877353D01*
X89262603Y-75874500D01*
X89262599Y-75874500D01*
X88754067Y-75874500D01*
X88754063Y-75874500D01*
X88723633Y-75877353D01*
X88723631Y-75877353D01*
X88595452Y-75922206D01*
X88595451Y-75922207D01*
X88523133Y-75975580D01*
X88457504Y-75999550D01*
X88389334Y-75984234D01*
X88340266Y-75934494D01*
X88325500Y-75875809D01*
X88325500Y-67849000D01*
X88319661Y-67794687D01*
X88308455Y-67743176D01*
X88301219Y-67716802D01*
X88297332Y-67709976D01*
X88251894Y-67630181D01*
X88251890Y-67630176D01*
X88251888Y-67630172D01*
X88216097Y-67588867D01*
X88206136Y-67577371D01*
X88202640Y-67573998D01*
X88173359Y-67545743D01*
X88085024Y-67499535D01*
X88085023Y-67499534D01*
X88085022Y-67499534D01*
X88085022Y-67499533D01*
X88017990Y-67479851D01*
X88017978Y-67479848D01*
X87946001Y-67469500D01*
X87946000Y-67469500D01*
X79549000Y-67469500D01*
X79548997Y-67469500D01*
X79494687Y-67475338D01*
X79443181Y-67486543D01*
X79443172Y-67486546D01*
X79416807Y-67493779D01*
X79416796Y-67493783D01*
X79330181Y-67543105D01*
X79330173Y-67543111D01*
X79277371Y-67588863D01*
X79245743Y-67621640D01*
X79199534Y-67709977D01*
X79199533Y-67709977D01*
X79179851Y-67777009D01*
X79179848Y-67777021D01*
X79169500Y-67848998D01*
X79169500Y-68339218D01*
X79165419Y-68364985D01*
X79165880Y-68365058D01*
X79149500Y-68468475D01*
X79149500Y-70231517D01*
X79154270Y-70261632D01*
X79163323Y-70318797D01*
X79165881Y-70334943D01*
X79165418Y-70335016D01*
X79169500Y-70360781D01*
X79169500Y-70876002D01*
X79175338Y-70930312D01*
X79186543Y-70981818D01*
X79186546Y-70981827D01*
X79193779Y-71008192D01*
X79193783Y-71008203D01*
X79243105Y-71094818D01*
X79243110Y-71094825D01*
X79243112Y-71094828D01*
X79269580Y-71125374D01*
X79288863Y-71147628D01*
X79288866Y-71147631D01*
X79288867Y-71147632D01*
X79321641Y-71179257D01*
X79409976Y-71225465D01*
X79409977Y-71225465D01*
X79409977Y-71225466D01*
X79460105Y-71240184D01*
X79477015Y-71245150D01*
X79477019Y-71245150D01*
X79477021Y-71245151D01*
X79488652Y-71246823D01*
X79549000Y-71255500D01*
X86120500Y-71255500D01*
X86187539Y-71275185D01*
X86233294Y-71327989D01*
X86244500Y-71379500D01*
X86244500Y-76838000D01*
X86224815Y-76905039D01*
X86172011Y-76950794D01*
X86120500Y-76962000D01*
X85599500Y-76962000D01*
X85532461Y-76942315D01*
X85486706Y-76889511D01*
X85475500Y-76838000D01*
X85475500Y-76144000D01*
X85469661Y-76089687D01*
X85458455Y-76038176D01*
X85451219Y-76011802D01*
X85451216Y-76011796D01*
X85401894Y-75925181D01*
X85401890Y-75925176D01*
X85401888Y-75925172D01*
X85370597Y-75889061D01*
X85356136Y-75872371D01*
X85323359Y-75840743D01*
X85235022Y-75794534D01*
X85235022Y-75794533D01*
X85167990Y-75774851D01*
X85167978Y-75774848D01*
X85096001Y-75764500D01*
X85096000Y-75764500D01*
X83199500Y-75764500D01*
X83132461Y-75744815D01*
X83086706Y-75692011D01*
X83075500Y-75640500D01*
X83075500Y-73094000D01*
X83069661Y-73039687D01*
X83058455Y-72988176D01*
X83051219Y-72961802D01*
X83047332Y-72954976D01*
X83001894Y-72875181D01*
X83001890Y-72875176D01*
X83001888Y-72875172D01*
X82966097Y-72833867D01*
X82956136Y-72822371D01*
X82923359Y-72790743D01*
X82835022Y-72744534D01*
X82835022Y-72744533D01*
X82767990Y-72724851D01*
X82767978Y-72724848D01*
X82696001Y-72714500D01*
X82696000Y-72714500D01*
X80154000Y-72714500D01*
X80153997Y-72714500D01*
X80099687Y-72720338D01*
X80048181Y-72731543D01*
X80048172Y-72731546D01*
X80021807Y-72738779D01*
X80021796Y-72738783D01*
X79935181Y-72788105D01*
X79935173Y-72788111D01*
X79882371Y-72833863D01*
X79850743Y-72866640D01*
X79804534Y-72954977D01*
X79804533Y-72954977D01*
X79784851Y-73022009D01*
X79784848Y-73022021D01*
X79774500Y-73093998D01*
X79774500Y-73693979D01*
X79773790Y-73707217D01*
X79769500Y-73747127D01*
X79769500Y-73747134D01*
X79769500Y-73747135D01*
X79769500Y-74842870D01*
X79769501Y-74842874D01*
X79773790Y-74882769D01*
X79774500Y-74896023D01*
X79774500Y-78926000D01*
X79754815Y-78993039D01*
X79702011Y-79038794D01*
X79650500Y-79050000D01*
X71324000Y-79050000D01*
X71256961Y-79030315D01*
X71211206Y-78977511D01*
X71200000Y-78926000D01*
X71200000Y-70499500D01*
X71219685Y-70432461D01*
X71272489Y-70386706D01*
X71324000Y-70375500D01*
X73058531Y-70375500D01*
X73058543Y-70375499D01*
X73272871Y-70375499D01*
X73272872Y-70375499D01*
X73332483Y-70369091D01*
X73467331Y-70318796D01*
X73582546Y-70232546D01*
X73596235Y-70214259D01*
X73652166Y-70172390D01*
X73721857Y-70167406D01*
X73783181Y-70200890D01*
X73816666Y-70262213D01*
X73819500Y-70288572D01*
X73819500Y-71126002D01*
X73825338Y-71180312D01*
X73836543Y-71231818D01*
X73836546Y-71231827D01*
X73843779Y-71258192D01*
X73843783Y-71258203D01*
X73893105Y-71344818D01*
X73893110Y-71344825D01*
X73893112Y-71344828D01*
X73919580Y-71375374D01*
X73938863Y-71397628D01*
X73938866Y-71397631D01*
X73938867Y-71397632D01*
X73971641Y-71429257D01*
X74059976Y-71475465D01*
X74059977Y-71475465D01*
X74059977Y-71475466D01*
X74104218Y-71488456D01*
X74127015Y-71495150D01*
X74127019Y-71495150D01*
X74127021Y-71495151D01*
X74138652Y-71496823D01*
X74199000Y-71505500D01*
X74199001Y-71505500D01*
X77976000Y-71505500D01*
X78030313Y-71499661D01*
X78081824Y-71488455D01*
X78108198Y-71481219D01*
X78137074Y-71464775D01*
X78194818Y-71431894D01*
X78194819Y-71431892D01*
X78194828Y-71431888D01*
X78247632Y-71386133D01*
X78279257Y-71353359D01*
X78325465Y-71265024D01*
X78327470Y-71258198D01*
X78335215Y-71231818D01*
X78345150Y-71197985D01*
X78355500Y-71126000D01*
X78355500Y-67574000D01*
X78349661Y-67519687D01*
X78338455Y-67468176D01*
X78331219Y-67441802D01*
X78327332Y-67434976D01*
X78281894Y-67355181D01*
X78281890Y-67355176D01*
X78281888Y-67355172D01*
X78246097Y-67313867D01*
X78236136Y-67302371D01*
X78203359Y-67270743D01*
X78115022Y-67224534D01*
X78115022Y-67224533D01*
X78047990Y-67204851D01*
X78047978Y-67204848D01*
X77976001Y-67194500D01*
X77976000Y-67194500D01*
X74199000Y-67194500D01*
X74198997Y-67194500D01*
X74144687Y-67200338D01*
X74093181Y-67211543D01*
X74093172Y-67211546D01*
X74066807Y-67218779D01*
X74066796Y-67218783D01*
X73980181Y-67268105D01*
X73980173Y-67268111D01*
X73927371Y-67313863D01*
X73895743Y-67346640D01*
X73849534Y-67434977D01*
X73849533Y-67434977D01*
X73829851Y-67502009D01*
X73829848Y-67502021D01*
X73819500Y-67573998D01*
X73819500Y-68461427D01*
X73799815Y-68528466D01*
X73747011Y-68574221D01*
X73677853Y-68584165D01*
X73614297Y-68555140D01*
X73596234Y-68535739D01*
X73582546Y-68517454D01*
X73582544Y-68517453D01*
X73582544Y-68517452D01*
X73467335Y-68431206D01*
X73467328Y-68431202D01*
X73332482Y-68380908D01*
X73332483Y-68380908D01*
X73272883Y-68374501D01*
X73272881Y-68374500D01*
X73272873Y-68374500D01*
X73048542Y-68374500D01*
X73048541Y-68374500D01*
X71324000Y-68374500D01*
X71256961Y-68354815D01*
X71211206Y-68302011D01*
X71200000Y-68250500D01*
X71200000Y-62624500D01*
X71219685Y-62557461D01*
X71272489Y-62511706D01*
X71324000Y-62500500D01*
X92051000Y-62500500D01*
X92118039Y-62520185D01*
G37*
%TD.AperFunction*%
%TD*%
%TA.AperFunction,Conductor*%
%TO.N,+VIN*%
G36*
X78043039Y-67469685D02*
G01*
X78088794Y-67522489D01*
X78100000Y-67574000D01*
X78100000Y-71126000D01*
X78080315Y-71193039D01*
X78027511Y-71238794D01*
X77976000Y-71250000D01*
X74199000Y-71250000D01*
X74131961Y-71230315D01*
X74086206Y-71177511D01*
X74075000Y-71126000D01*
X74075000Y-67574000D01*
X74094685Y-67506961D01*
X74147489Y-67461206D01*
X74199000Y-67450000D01*
X77976000Y-67450000D01*
X78043039Y-67469685D01*
G37*
%TD.AperFunction*%
%TD*%
M02*
