%TF.GenerationSoftware,KiCad,Pcbnew,9.0.2*%
%TF.CreationDate,2025-05-23T14:58:01+03:00*%
%TF.ProjectId,control_unit_tester,636f6e74-726f-46c5-9f75-6e69745f7465,rev?*%
%TF.SameCoordinates,Original*%
%TF.FileFunction,Soldermask,Bot*%
%TF.FilePolarity,Negative*%
%FSLAX46Y46*%
G04 Gerber Fmt 4.6, Leading zero omitted, Abs format (unit mm)*
G04 Created by KiCad (PCBNEW 9.0.2) date 2025-05-23 14:58:01*
%MOMM*%
%LPD*%
G01*
G04 APERTURE LIST*
G04 Aperture macros list*
%AMRoundRect*
0 Rectangle with rounded corners*
0 $1 Rounding radius*
0 $2 $3 $4 $5 $6 $7 $8 $9 X,Y pos of 4 corners*
0 Add a 4 corners polygon primitive as box body*
4,1,4,$2,$3,$4,$5,$6,$7,$8,$9,$2,$3,0*
0 Add four circle primitives for the rounded corners*
1,1,$1+$1,$2,$3*
1,1,$1+$1,$4,$5*
1,1,$1+$1,$6,$7*
1,1,$1+$1,$8,$9*
0 Add four rect primitives between the rounded corners*
20,1,$1+$1,$2,$3,$4,$5,0*
20,1,$1+$1,$4,$5,$6,$7,0*
20,1,$1+$1,$6,$7,$8,$9,0*
20,1,$1+$1,$8,$9,$2,$3,0*%
G04 Aperture macros list end*
%ADD10C,3.000000*%
%ADD11RoundRect,0.250001X-0.949999X-0.949999X0.949999X-0.949999X0.949999X0.949999X-0.949999X0.949999X0*%
%ADD12C,2.400000*%
%ADD13RoundRect,0.243750X-0.456250X0.243750X-0.456250X-0.243750X0.456250X-0.243750X0.456250X0.243750X0*%
%ADD14RoundRect,0.250000X-0.600000X0.600000X-0.600000X-0.600000X0.600000X-0.600000X0.600000X0.600000X0*%
G04 APERTURE END LIST*
D10*
%TO.C,J7*%
X134789474Y-65950000D03*
%TD*%
%TO.C,J2*%
X99750000Y-65950000D03*
%TD*%
%TO.C,J22*%
X74375000Y-108425000D03*
%TD*%
%TO.C,J15*%
X190852632Y-65950000D03*
%TD*%
%TO.C,J25*%
X107885000Y-108425000D03*
%TD*%
%TO.C,J13*%
X176836842Y-65950000D03*
%TD*%
%TO.C,J21*%
X232900000Y-65950000D03*
%TD*%
%TO.C,J12*%
X169828947Y-65950000D03*
%TD*%
%TO.C,J33*%
X197245000Y-108425000D03*
%TD*%
%TO.C,J19*%
X218884211Y-65950000D03*
%TD*%
%TO.C,J27*%
X130225000Y-108425000D03*
%TD*%
%TO.C,J35*%
X219585000Y-108425000D03*
%TD*%
%TO.C,J30*%
X163735000Y-108425000D03*
%TD*%
D11*
%TO.C,J1*%
X63725000Y-108350000D03*
D12*
X67225000Y-108350000D03*
%TD*%
D10*
%TO.C,J34*%
X208415000Y-108425000D03*
%TD*%
%TO.C,J32*%
X186075000Y-108425000D03*
%TD*%
%TO.C,J6*%
X127781579Y-65950000D03*
%TD*%
%TO.C,J31*%
X174905000Y-108425000D03*
%TD*%
%TO.C,J18*%
X211876316Y-65950000D03*
%TD*%
%TO.C,J8*%
X141797368Y-65950000D03*
%TD*%
%TO.C,J14*%
X183844737Y-65950000D03*
%TD*%
%TO.C,J17*%
X204868421Y-65950000D03*
%TD*%
%TO.C,J10*%
X155813158Y-65950000D03*
%TD*%
%TO.C,J23*%
X85545000Y-108425000D03*
%TD*%
%TO.C,J28*%
X141395000Y-108425000D03*
%TD*%
%TO.C,J4*%
X113765789Y-65950000D03*
%TD*%
%TO.C,J29*%
X152565000Y-108425000D03*
%TD*%
%TO.C,J36*%
X230755000Y-108425000D03*
%TD*%
%TO.C,J5*%
X120773684Y-65950000D03*
%TD*%
%TO.C,J9*%
X148805263Y-65950000D03*
%TD*%
%TO.C,J16*%
X197860526Y-65950000D03*
%TD*%
%TO.C,J24*%
X96715000Y-108425000D03*
%TD*%
%TO.C,J3*%
X106757895Y-65950000D03*
%TD*%
%TO.C,J20*%
X225892105Y-65950000D03*
%TD*%
%TO.C,J37*%
X241925000Y-108425000D03*
%TD*%
%TO.C,J26*%
X119055000Y-108425000D03*
%TD*%
%TO.C,J11*%
X162821053Y-65950000D03*
%TD*%
D13*
%TO.C,D23*%
X165560000Y-96062500D03*
X165560000Y-97937500D03*
%TD*%
D14*
%TO.C,SW7*%
X141813158Y-73750000D03*
X141813158Y-76950000D03*
X141813158Y-80150000D03*
X141813158Y-83350000D03*
%TD*%
%TO.C,SW15*%
X197897368Y-73750000D03*
X197897368Y-76950000D03*
X197897368Y-80150000D03*
X197897368Y-83350000D03*
%TD*%
%TO.C,SW20*%
X232950000Y-73750000D03*
X232950000Y-76950000D03*
X232950000Y-80150000D03*
X232950000Y-83350000D03*
%TD*%
%TO.C,SW13*%
X183876316Y-73750000D03*
X183876316Y-76950000D03*
X183876316Y-80150000D03*
X183876316Y-83350000D03*
%TD*%
%TO.C,SW8*%
X148823684Y-73750000D03*
X148823684Y-76950000D03*
X148823684Y-80150000D03*
X148823684Y-83350000D03*
%TD*%
D13*
%TO.C,D47*%
X232130000Y-96062500D03*
X232130000Y-97937500D03*
%TD*%
%TO.C,D34*%
X96915000Y-96062500D03*
X96915000Y-97937500D03*
%TD*%
D14*
%TO.C,SW10*%
X162844737Y-73750000D03*
X162844737Y-76950000D03*
X162844737Y-80150000D03*
X162844737Y-83350000D03*
%TD*%
%TO.C,SW19*%
X225939474Y-73750000D03*
X225939474Y-76950000D03*
X225939474Y-80150000D03*
X225939474Y-83350000D03*
%TD*%
D13*
%TO.C,D46*%
X230055000Y-96062500D03*
X230055000Y-97937500D03*
%TD*%
D14*
%TO.C,SW2*%
X106760526Y-73750000D03*
X106760526Y-76950000D03*
X106760526Y-80150000D03*
X106760526Y-83350000D03*
%TD*%
D13*
%TO.C,D19*%
X154465000Y-96062500D03*
X154465000Y-97937500D03*
%TD*%
%TO.C,D28*%
X185675000Y-96062500D03*
X185675000Y-97937500D03*
%TD*%
D14*
%TO.C,SW17*%
X211918421Y-73750000D03*
X211918421Y-76950000D03*
X211918421Y-80150000D03*
X211918421Y-83350000D03*
%TD*%
D13*
%TO.C,D11*%
X121180000Y-96062500D03*
X121180000Y-97937500D03*
%TD*%
%TO.C,D16*%
X141295000Y-96062500D03*
X141295000Y-97937500D03*
%TD*%
%TO.C,D10*%
X119105000Y-96062500D03*
X119105000Y-97937500D03*
%TD*%
D14*
%TO.C,SW18*%
X218928947Y-73750000D03*
X218928947Y-76950000D03*
X218928947Y-80150000D03*
X218928947Y-83350000D03*
%TD*%
D13*
%TO.C,D49*%
X243225000Y-96062500D03*
X243225000Y-97937500D03*
%TD*%
%TO.C,D6*%
X85820000Y-96062500D03*
X85820000Y-97937500D03*
%TD*%
%TO.C,D48*%
X241150000Y-96062500D03*
X241150000Y-97937500D03*
%TD*%
%TO.C,D30*%
X196770000Y-96062500D03*
X196770000Y-97937500D03*
%TD*%
%TO.C,D29*%
X187750000Y-96062500D03*
X187750000Y-97937500D03*
%TD*%
%TO.C,D5*%
X76800000Y-96062500D03*
X76800000Y-97937500D03*
%TD*%
%TO.C,D17*%
X143370000Y-96062500D03*
X143370000Y-97937500D03*
%TD*%
%TO.C,D36*%
X108010000Y-96062500D03*
X108010000Y-97937500D03*
%TD*%
%TO.C,D12*%
X130200000Y-96062500D03*
X130200000Y-97937500D03*
%TD*%
%TO.C,D42*%
X218960000Y-96062500D03*
X218960000Y-97937500D03*
%TD*%
%TO.C,D43*%
X221035000Y-96062500D03*
X221035000Y-97937500D03*
%TD*%
%TO.C,D41*%
X209940000Y-96062500D03*
X209940000Y-97937500D03*
%TD*%
D14*
%TO.C,SW11*%
X169855263Y-73750000D03*
X169855263Y-76950000D03*
X169855263Y-80150000D03*
X169855263Y-83350000D03*
%TD*%
D13*
%TO.C,D13*%
X132275000Y-96062500D03*
X132275000Y-97937500D03*
%TD*%
%TO.C,D4*%
X74725000Y-96062500D03*
X74725000Y-97937500D03*
%TD*%
D14*
%TO.C,SW9*%
X155834211Y-73750000D03*
X155834211Y-76950000D03*
X155834211Y-80150000D03*
X155834211Y-83350000D03*
%TD*%
%TO.C,SW5*%
X127792105Y-73750000D03*
X127792105Y-76950000D03*
X127792105Y-80150000D03*
X127792105Y-83350000D03*
%TD*%
%TO.C,SW1*%
X99750000Y-73750000D03*
X99750000Y-76950000D03*
X99750000Y-80150000D03*
X99750000Y-83350000D03*
%TD*%
D13*
%TO.C,D25*%
X176655000Y-96062500D03*
X176655000Y-97937500D03*
%TD*%
D14*
%TO.C,SW16*%
X204907895Y-73750000D03*
X204907895Y-76950000D03*
X204907895Y-80150000D03*
X204907895Y-83350000D03*
%TD*%
D13*
%TO.C,D7*%
X87895000Y-96062500D03*
X87895000Y-97937500D03*
%TD*%
D14*
%TO.C,SW6*%
X134802632Y-73750000D03*
X134802632Y-76950000D03*
X134802632Y-80150000D03*
X134802632Y-83350000D03*
%TD*%
D13*
%TO.C,D40*%
X207865000Y-96062500D03*
X207865000Y-97937500D03*
%TD*%
D14*
%TO.C,SW12*%
X176865789Y-73750000D03*
X176865789Y-76950000D03*
X176865789Y-80150000D03*
X176865789Y-83350000D03*
%TD*%
D13*
%TO.C,D37*%
X110085000Y-96062500D03*
X110085000Y-97937500D03*
%TD*%
%TO.C,D22*%
X163485000Y-96062500D03*
X163485000Y-97937500D03*
%TD*%
%TO.C,D24*%
X174580000Y-96062500D03*
X174580000Y-97937500D03*
%TD*%
D14*
%TO.C,SW14*%
X190886842Y-73750000D03*
X190886842Y-76950000D03*
X190886842Y-80150000D03*
X190886842Y-83350000D03*
%TD*%
%TO.C,SW3*%
X113771053Y-73750000D03*
X113771053Y-76950000D03*
X113771053Y-80150000D03*
X113771053Y-83350000D03*
%TD*%
D13*
%TO.C,D31*%
X198845000Y-96062500D03*
X198845000Y-97937500D03*
%TD*%
%TO.C,D35*%
X98990000Y-96062500D03*
X98990000Y-97937500D03*
%TD*%
%TO.C,D18*%
X152390000Y-96062500D03*
X152390000Y-97937500D03*
%TD*%
D14*
%TO.C,SW4*%
X120781579Y-73750000D03*
X120781579Y-76950000D03*
X120781579Y-80150000D03*
X120781579Y-83350000D03*
%TD*%
M02*
